<svg xmlns="http://www.w3.org/2000/svg" xmlns:xlink="http://www.w3.org/1999/xlink" viewBox="0 0 308.4 404.4"><g opacity=".3"><path d="M296.1 95.5h-2.5c0-.6-.4-.9-.6-1.4v-1.4c.1-.5-.2-.8-.3-1.3-.1-.5 0-.8 0-1.2-.1-.9-.3-1.7-.6-2.5s-.6-1.6-.8-2.4c-.3-.8-.7-1.6-1.2-2.4-.8-1.7-1.7-3.3-2.7-4.9-.5-.8-.9-1.7-1.4-2.5-.5-.8-1.2-1.3-1-2.3h-.3c0-.8-.7-1.4-.6-2.3-.6-.7-.3-2.2-.3-3.1h-1.4c-1.6.6-3 1.7-4 3.1h-.3c-.6-1-1.4-1.9-2.3-2.7-.5-.5-.9-1-1.4-1.4-.5-.4-.9-.5-1.2-1h-.5c-.4-.8-1.8-1.3-2.5-1.7-1-.6-1.9-1.2-2.8-1.8-1.8-1.4-3.3-3.2-4.5-5.1-2.1-2.8-3.3-6.2-3.4-9.8 0-.9.1-1.7.3-2.5l.3-1.2c.1-.4.5-.9.6-1.3.3-1.7.9-3.3 1.7-4.8.6-.9 1.2-1.8 2-2.5.7-.7 1.4-1.4 2.3-2 1.5-1.3 3.2-2.4 4.9-3.3 1.6-.8 3.2-1.6 4.8-2.5.8-.5 1.1-.3.6-1.1-.4-.3-.8-.6-1.2-.8-.8-.5-1.6-.8-2.4-1.2h-.8V24h-2.5v-.3h-1.2v.3h-3.7v.3h-1.4c-3.8 1.4-7.5 2.6-10.5 5.5-.9.8-1.7 1.6-2.5 2.5-.5.6-.9 1.6-1.4 2.3-.4.8-.9 1.6-1.4 2.3-.6.6-1.6.7-2.3 1.3-1.3 1.2-1.5 3.1-2.4 4.5-.5.8-1.1 1.5-1.6 2.4-.2.4-.3.7-.6 1.2-.2.4-.6.7-.8 1.2-1.7 3.1-3.7 5.8-4.2 9.3 0 .2-.2.4-.3.7v.6l-.3 1.2c-.1.8 0 1.5.1 2.3.1 1.6.5 3.1 1.3 4.5h-.3c-.4-1-2.4-1.7-3.3-2.3-1.3-.8-1.9-1.2-2.1-2.7-.4-2.3-.9-4.6-1.7-6.8l-1.2-3.4c-.2-1.2-.7-2.4-1.4-3.4-1.8-2.2-4.5-3.7-6.8-5.2h-.6c-.3-.6-1.4-.8-2-1.2h-1.7v-.3h-2.3v.2h-2c-1 .3-1.9.7-2.8 1.2h-6.2c-1.3.6-2.5 1.2-3.7 1.9-1.4.7-2.6 1.8-3.7 3-.3.5-.4 1.3-.7 1.8-.3.6-.6 1.2-1 1.8-.6 1.2-1.4 2.4-2.1 3.5-1 1.3-2.2 2.4-3.5 3.4-1.2.7-2.4 1.2-3.7 1.7-2.5 1.3-4.8 3.7-4.8 6.5.1.6-.3.8-.3 1.3.1.4.3.9.4 1.3.3.9.7 1.7 1.3 2.5h.3c-.2 1.3 2.2 1.3.3 2.3h-1.2v.3h-4.5v.3h-1.4c-.9.5-1.9.7-2.8 1.2h-2.3c-2.9-1.4-5.9-2.7-8.8-4.1-1.5-.7-2.9-1.8-3.9-3.2-.5-.6-.7-1.3-1.2-2s-.9-1.5-1.4-2.3c-2-2.9-4.5-5.7-6.8-8.5-2.2-2.7-4.1-5.5-5.7-8.6h-.3c.1-.8-1-1.7-1.4-2.4-.2-.4-.4-.9-.6-1.3-.2-.4-.6-.8-.8-1.3-.4-.8-.7-1.6-1.2-2.4-.4-.7-.5-1.6-.8-2.4-.6-1.4-1.1-3-1.8-4.4-.3-.8-.6-1.6-.8-2.4-.2-.7-.4-1.5-.7-2.1-.7-1.4-1.2-2.9-1.8-4.4-.7-1.4-.8-3.1-1.8-4.4-2.2-2.9-5.8-3.7-8.8-5.5-2.8-1.8-5.7-3.3-8.8-4.5h-2c-.2-.5-1.2-1.1-1.7-1.4h-2.5c-.6.4-1 .7-.8 1.4h-.3V10c0 .3-.1.6-.2.9-.2.7-.3 1.5-.3 2.3 0 .2.2.7.3 1l.3 1.2c0 .7.1 1.4.3 2.1.1.7.3 1.3.6 2 .3.6 1.3 1.3 1.3 1.8 0 .8-1.2 1.2-1.7 1.7-.6.6-1.1 1.2-1.6 1.8-.3.3-.6.7-.8 1.2 0 .1-.1.4-.1.4-.1.3.2.3.1.6-.2.8-.7 1.2-1.2 1.8-.7 1.3-1.5 2.5-2.3 3.8-.4.6-.7 1.3-1 2-.2.3-.3.7-.4 1 0 .2-.3.7-.3.8-.2 1.4.2 2.6-.6 3.8-.9 1.4-2.4 1.9-3.8 2.8-1 .6-2.5 1.9-2.4 3.2h-.3c-.5.7-1.2 1.3-2 1.7-.8.6-1.4 1.3-2 2.1-.9 1.4-1.6 2.9-2.3 4.5-.3.7-.2 1.6-.6 2.3-.3.7-.6 1.5-.8 2.3-.5 1.5-1.2 3-1.7 4.5-1 3-2.1 6-3.1 9-.5 1.5-.9 3-1.4 4.5-.6 1.4-1 2.9-1.2 4.4h-.3c0 .7-.1 1.4-.3 2.1 0 .1-.2.7-.3.8l-.3 1.2c-.2.7-.2 1.3-.3 2-.1.6-.7 1.4-.6 2.1v.6h-.3v1.2c-.1.4-.4.6-.3 1.2 0 1-.3 1.8-.3 2.8 0 2-.2 4.2 0 6.2 0 .6.2 1 .3 1.6.1.6-.1 1.2 0 1.7 0 .2.2.4.3.7s0 .5 0 .7c.1.5.2 1 .3 1.6h.3v1.2h.3c-.1 1 .9 1.7 1.4 2.5v.3h.3v.3h1v.3h.3v.3h.6v.3h.6v.3h.6v.3h.6v.3h.8v.3h.8v.3h2v.3h7.4v-.3h4.7v-.3h3.4v-.3h2.3v-.1h2v-.3h1.8v-.3h1.7v-.3h1.7v-.3h1.3v-.3h1.7v-.3h1.7v-.3h1.7v-.3h1.2c1.2.8.8 2.1.8 3.4.1 1.6.1 3.2-.1 4.8-.5 1.6-.9 3.2-1 4.8v6.8c.1 3.3-.6 6.6-1.8 9.6-.2.8-.5 1.5-.8 2.3-.4.6-.6 1.3-1 2-.8 1.5-1.8 3-2.8 4.4-2.3 2.9-5.7 5.2-8.5 7.5-2.9 2.2-5.2 5.1-6.8 8.5-1 2.7-1.5 5.6-1.4 8.5.1 1.5.5 2.9 1.2 4.2.6 1.6 1.6 3 3 4s3.1 1.9 2.4 3.7c-.6 1.5-2.4 2.8-3.3 4.2-1.5 2.4-2.6 5.1-4.1 7.5-.7 1.2-1.2 2.6-1.8 3.8-.7 1.2-1.3 2.4-1.8 3.7-.5 1.3-1.1 2.5-1.7 3.8-.6 1.3-.9 2.6-1.6 3.8-.6 1.2-1.3 2.5-1.8 3.8-.1.3-.2.7-.3 1-.1.3-.4.6-.6 1-.2.4-.2.6-.3.8l-.3.8c-.5 1.3-1 2.6-1.7 3.8-.6 1.2-2 2.3-2 3.8-.1 1.2-.3 2.5-.6 3.7-.2.7-.5 1.3-.8 2l-.6 1.8c-.8 2.6-1.7 5.1-2.8 7.5-1.2 2.5-2.1 5-3.4 7.5-.2.7-.5 1.4-.8 2.1-.2.7-.5 1.3-.8 2-.2.6-.4 1.3-.6 2-.3.7-.5 1.4-.6 2.1-.5.5-.5 1.7-.6 2.4 0 .2-.2.3-.3.6v.6c-.1.4-.2.9-.4 1.3-.4.8-1 1.6-1.6 2.4-.6.8-1.2 1.6-1.7 2.3l-2.1 2.4c-.7.7-1.3 1.5-1.8 2.4-.6.7-1.2 1.5-1.7 2.4-.3.8-.7 1.5-1.2 2.3v.3h-.3v.6h-.3v.3l-.3.6v.3h-.2v.3c-.2 1.4-1.3 2.9-2 4.2-.4.5-.6 1.1-.6 1.7H51v.6h-.3v.3c-.3.6-.6 1.2-.8 1.8l-.6 1.2c0 .1-.2.7-.3.8-.3.6-.6 1.3-.8 2l-.3 1.2c0 .1-.3.8-.3.8-.4 2.6-1 5-1.4 7.6-.2 1.1-.4 2.4-.6 3.4s-.1 2.2-.3 3.4c-.3 2.3-.8 4.6-1.4 6.8-.4 1.2-.7 2.5-1.2 3.7-.4 1.2-1.2 1.9-1.2 3.1-.1 1.3-.3 2.5-.8 3.7-.2.6-.5 1.2-.8 1.7-.3.5-.3 1.2-.6 1.7-1.1 2.2-2 4.5-2.8 6.8-.2.7-.6 1.3-.8 2-.2.5-.1.9-.3 1.4-.2.5-.4 1.1-.6 1.7v.8c0 .2-.2.6-.3.8-.1 1.2 0 2.5.3 3.7.2 1.1.6 2.1 1.2 3.1.5 1-.1 1-.8 1.7-.6.5-1 1.2-1.3 1.9-.4 1-.6 2.1-.6 3.3h-.8v-.3h-2.3v.3h-.3c-.5.8-.8 1.6-1 2.5-.1.4-.2.8-.1 1.3 0 .3.5.8.6 1.2.2 1-.3 1.9-1.2 2.4-.9.6-1.7 1-2.5 1.7-1.6 1.1-2.9 2.5-4 4.1-.5.7-.9 1.5-1.2 2.3l-.6 1.2v.6c0 .2-.3.8-.3.6-.6 2.9-1 5.9-1.2 8.9-.1 1.5 0 2.9.3 4.4.3.8.2 1.7.6 2.4l1.2 2.1c1.6 3.5 4.8 4.9 8.2 6.6h1.2v.3h1.6v.3h1.7v-.3h3.1v-.3h.6v.3h2.3v-.3h.8c3.7-1.8 7.4-3 10.5-5.8 3.1-2.8 4.8-5.4 4.8-9.3 0-1.6-.3-3-.3-4.7v-2.4c0-.8.2-1.6.6-2.3.3-.7.1-.6.8-.9.4-.2.7-.4 1-.6.7-.6 1.1-1.4 1.3-2.3 0-1.6.2-3.2.6-4.7.2-.8.4-1.6.7-2.4.4-.7.8-1.5 1-2.3.3-.8.5-1.5.6-2.4v-2.1c-.1-1.2 2.6-2.7 3.1-3.8.7-1.3 1.2-2.6 1.7-4 .8-2.5 1.4-5.1 2.3-7.6.7-2.3 1.5-4.6 2.5-6.8.2-.3.1-.8.3-1.2.2-.4.4-.5.6-.8.3-.5.3-1.2.6-1.7.5-1.1 1.2-2.1 1.7-3.1.7-1.3 1.4-2.5 2.3-3.7.7-1 1.3-2.1 2-3.1.8-1.3 1.7-2.4 2.5-3.7.3-.6.7-1.1 1.2-1.6s1.2-1 1.7-1.6c.8-1 1.5-2.2 2-3.4.3-.6.6-1.2.8-1.7.3-.5.3-1.2.6-1.7 1.2-2.3 2.3-4.5 3.4-6.8s2-4.5 3.1-6.8c.6-1.3 1.4-2.4 2-3.7.6-1 1.1-2.1 1.4-3.3h.3c0 .6-.1 1.2-.3 1.8v.8c0 .2-.2.6-.3.8-.1.6.1 1.2 0 1.8-.1.6-.2 1.1-.3 1.7-.1 1.6 0 3.2.3 4.8.4 1.6 1 3.2 1.7 4.7 1.1 1.8 2.5 3.5 4.2 4.7 1.5 1 3.1 1.8 4.8 2.4h1.4l2.3.8h1.7v.3h2.8v.3h4.5v.3h2v.3h1.4c1.4.5 2.8.9 4.2 1.4h1.2c1.3.5 3.1.8 2.5 2.7-.2.4-.5.8-.8 1.2-.2.3-.6.6-.8.8-.6.6-1.3 1.3-2 1.8-1.3 1.1-2.6 2.4-3.7 3.8-.6.6-1.2 1.3-1.7 2-.3.4-.9 1.3-.8 1.8h-.3v.6h-.3c-.2 1-.6 2-1.2 2.8-.4.9-.7 1.9-.8 2.8-.2 1.9-.3 3.8-.3 5.7-.2 2 .1 4 .8 5.8.6 1 1.5 1.8 2.5 2.3 1 .4 1.9 1 2.8 1.6h.8v.3h.8l1.2.6h1.4v.3h7.1v-.3h1.4l.6-.6h1.4v-.3h1.4v.3h1.4c1.6.8 3.3 1.2 4.8 2h1.4v.3h1.4v.3h2.5v.3h5.7v-.3h2v-.5h1.4v-.3h.8c1.5-.6 3.5-.9 4.8-2h.6v-.3h.6c1.1-.7 2.2-1.3 3.4-1.8 1.1-.6 2.1-1.5 2.8-2.5.4-.5.7-1 1-1.6.3-.5.5-1 .7-1.6.2-1 .1-2 .3-3.1.1-.6.4-1 .3-1.7 0-.2-.2-.4-.3-.7v-.7c-.1-1.2-.5-2.3-1.2-3.3-1.5-2.2-3.4-3-5.9-4h-3.7v-.3h-2.3v-.3h-1.4l-5.1-2.5c-1-.5-1.4-.9-1-2 .4-.8 1-1.6 1.6-2.4 1.1-1.9 2.5-3.5 4.1-4.9 1.5-1 3.2-1.8 4.9-2.3h3.7c1.4.5 2.8.9 4.2 1.4h1.7v.3h3.1l.8.6h1.7l.8-.6h1.4v-.3h3.4c1.5.6 2.9 1.3 4.2 2.3h.6v.3h4v-.4h3.7c1.5.6 2.9 1.3 4.2 2.1 1.4 1 2.7 2 4 3.1 2.5 2.2 5.3 4 8.2 5.5h1.7v.3h1.4v-.3h1.4c1.1-.5 2.1-1.2 3.1-1.8 1-.6 1.6-1.7 1.4-2.8v-1.6c-.1-.5-.3-1.1-.6-1.6-.2-.5-.2-1-.4-1.6-.2-.4-.4-.9-.4-1.4-.3-.3-.3-.8-.4-1.2-.2-.4-.4-.8-.4-1.2-.2-.5-.6-.9-.6-1.4h-.3c-.1-.5-.3-1-.6-1.4v-.3h-.3v-.4h-.3v-.3c-.2-.2-.3-.5-.3-.8-1.6-3.8-4.3-7-7.8-9.3-1.7-1-3.7-1.2-5.1-2.6-.7-.6-1.2-1.4-1.3-2.4 0-.4 0-.9-.1-1.3-.2-.4-.4-.8-.7-1.2v-.3h-.3c-.9-1.4-2.1-2.5-3.4-3.5-1.2-1.1-2.4-2-3.7-3h-.3v-.3h-.6c-.5-.4-1.2-.6-1.4-1.2h1.7c.3-.7 1.3-.9 1.8-1.4.5-.5 1.3-1.3 1.3-2h.3c0-.4.1-.8.3-1.2.1-.4.2-.7.3-1.2.2-.7.3-1.5.3-2.3h.3c0-.8-.1-1.6-.3-2.4-.2-.9-.8-1.8-1.6-2.4-.4-.3-1-.5-1.3-1-.2-.2-.2-.9-.3-1.2-.4-.8-.9-1.6-1.6-2.4-.8-.8-1.6-1.6-2.3-2.5-.2-.4-.1-.7 0-1.2s.1-.9.1-1.3l.3-1.2v-1.3l.3-1.2v-1.5c0-1.3-.2-2.7-.4-4-.1-.7-.2-1.4-.4-2.1-.2-.5-.2-1.4-.6-1.8-.1-.8-.4-1.5-.8-2.1-.3-.7-.4-1.4-.7-2.1-.6-1.4-1.1-2.9-1.7-4.2-1.3-2.9-2.7-5.7-4.2-8.5-1.8-2.7-3.7-5.2-5.8-7.6-1.1-1.3-2.2-2.6-3.4-3.8-1.2-1.2-2.3-2.4-3.4-3.7-.4-.6-.7-1.4-1.2-2-.2-.3-.8-.5-1-.8-.2-.3-.1-.4-.1-.8-.2-1.3-.3-2.5-.3-3.8 0-.8.3-1.2.3-2l-.3-1.8c-.1-.7-.2-1.3-.4-2-.1-.6-.2-1.2-.4-1.8-.4-1.2-1-2.4-1.4-3.7-.2-.7-.6-1.3-.8-2-.2-.6-.4-1.3-.7-1.8-.4-.6-.7-1.3-1-2-.4-.6-.6-1.2-.8-1.8-.1-1.3-.5-2.6-1-3.8-.4-.7-.8-1.3-1.2-2-.5-.6-.9-1.2-1.3-1.8-.5-1.2-.2-2.6.6-3.7.7-1.4 1.6-2.7 2.7-3.8 1.2-1.1 2.5-2 3.8-2.8h.3c.4.7.9.8 1.4 1.3.5.4 1.2 1.2 1.7 1.7.5.6 1.1 1.2 1.7 1.7.6.3 1 .8 1.4 1.3h.6c.6 1.3 2.9 1.6 4.1 2.2 1.4.7 2.9 1.2 4.4 1.8h1.4v.5h3.7v.2h1.4c1.4-.6 2.7-1.3 4-2.1 1.3-.7 2.6-1.3 4-1.8h1.4c.3.7.6 1.4.8 2.1l.3 1.2c0 .2.3.8.3.8.3 1.5 1 3 2 4.2 1 1.4 1.8 2.7 3.7 3.2 1.2.3 3.4.6 4 1.8h.3v.3h5.1v-.3h1.4c2.7-1.3 4.9-3.5 6.2-6.2.2-.6.4-1.3.6-1.8.2-.6.4-1.2.6-1.7.4-1.1.6-2.3.6-3.5v-3-1.6c-.1-.5-.4-.8-.3-1.4-.2-.8-.4-1.6-.8-2.4-.3-.8-.5-1.6-.7-2.4-.4-1.6-.9-3.2-1.2-4.8-.5-2.8-.7-5.7-.7-8.6-.1-.8.1-1.6.6-2.3.6-.7 1.4-.3 1.4-1.4s-1-1.1-1.7-1.7c-.6-.6-1-1.3-1.4-2-.9-1.4-1.7-2.9-2.4-4.4-.7-1.3-1.1-2.8-1-4.2.3-1.8 1.4-3 2.5-4.4 1.1-1.4 1.3-3.1 2.8-4.1h.6c2.7 1.4 5.4 2.6 8.2 3.7h1.4v.3h6.5v-.3h1.4c1.2-.6 2.6-.9 3.8-1.5 1.3-.6 2.6-1.4 3.8-2.2h.3c1.3-1 2.6-2 3.7-3.3 1.2-1 2.2-2.2 3.1-3.5h.8c1.5 1.1 3.1 2 4.8 2.7 1.6.7 3.2 1.2 4.8 1.8h1.7v.3h2.8v-.3h1.7c1.6-.6 3.1-1.2 4.7-1.9.8-.4 1.6-.8 2.4-1.3.6-.4 1.6-.6 2-1.3h.6c.4-.8 1.8-1.5 2.5-2.1.8-.7 1.6-1.5 2.3-2.3.8-1 1.7-1.7 2.4-2.7.6-.8 1.1-1.7 1.6-2.5s1.6-2.4 1.4-3.4h.3c-.3-1.2 1.2-2.4.8-3.7.3-2 .7-4.1 1-6.2.1-1.1.4-2.2.7-3.3.2-1.1.8-2.1-.5-3zM107.6 79.9c.1-.8.7-1.5.8-2.3.2-1.6.6-2.9.8-4.5.1-.7.7-1.6.8-2.3.1-.8.3-1.5.6-2.3.2-.7.4-1.5.6-2.3v-.6c-.1-.2 0-.5.3-.6v-.6c-.1-.2 0-.5.3-.6v-.6c-.1-.2 0-.5.3-.6V62c-.1-.2 0-.5.3-.6 0-.7-.7-1.5-.8-2.3v-1.2c0-.4.1-.8.3-1.2.1-.8.2-1.4.3-2.3.3-.2.4-.7.2-1l-.2-.2c-.2-.4-.3-.8-.3-1.2.1-.9 1.1-1.4 1.7-2 1-.9 3.2-2.9 2.8-4.4h.3c1.5.7 3 1.5 4.5 2.1 1.6.6 3.3.8 4.2 2.3.4.7.8 1.5 1.2 2.3.3.6.6 1.3.8 2 .4 1.6 1 3.1 1.6 4.7.7 1.5 1.2 3 1.7 4.5.3.7.7 1.3 1.2 2 .3.7.6 1.5.8 2.3.3.8.6 1.5.8 2.3 0 .1.6 1 .6 1.2-.1.5-.8.6-1.2.8-1.6.7-3.1 1.6-4.5 2.5h-.6c-1.8 3.1-6.3 3.9-9.3 5.1h-1.4v.3h-1.4v.3H114v.3h-1.7v.3h-1.7v.3H109v.3h-.3c-.9-.3-1.3-.6-1.1-1.6zm142.1 10.6h-.8v-.3h-1.4v-.3h-4v-.3h-1.4v.3h-2.8v.3h-1.2v.3h-5.9v-.3h-1.4v-.3h-3.7c0-3.3 2.6-5.4 4-8.2v-.3h.3v-.6h.4V80h.3c-.2-1.5 3.2-1.9 4.2-2.2 1-.3 4.5-1.4 4.2-2.9h.3c-.1-.4 0-.9.3-1.2v-.6h.3c-.2 1 1.3 1.9 2 2.4l2.7 2.1c1.9 1.3 3.6 2.8 5.2 4.4.7.7 2.2 1.7 2.5 2.7.3.7 0 .7-.3 1.4-.2.4-.3.8-.3 1.3 0 .9.2 1.8.6 2.7.2.8.3 1.7.3 2.5h-.6c-.6-1-2.7-1.6-3.8-2.1zM97.4 286.1h.3v.3h-.3v-.3zm93.9-.6h1.2c-.6.6-1.4.6-2 1.2h-1.7v.3h-1.4c-1.3 1.1-3 1.5-4.2 2.7-.6.6-1 1.3-1.4 2-.6.7-1.2 1.3-2 1.8h-2v.3h-.8c-1-1.1 1-2.6 1.4-3.5.6-1.2 1.2-2.4 2-3.5h.3v-.6h.3v-.3h.2c.2-1.2 1.4-2.5 2-3.7h1.4c1.9 1.4 4.2 2.6 6.7 3.3zm-43.2-7.4c.1.1.2.1.3.2 0 0-.1 0-.1.2 0 .3-.1.5-.3.7-.6.9-1.1 1.9-1.7 2.8h-.3c-.2.7-.4 1.3-.8 1.8l-1.2 1.8h-.6c-.9-.9-2.6-1.2-3.7-1.7h-.8v-.3h-1.2v-.3h-2.5v-.3h-1.7v.3H131v.3h-1.4v.3h-.6c.4-2.5 2.9-3.4 5.1-4.2h1.7v-.3h1.4v-.3h1.6l1.2-.6h1.4v-.3h1.4l1.2-.6h1.4v-.3h1.4c.4.4.8.6 1.3.8zm1.8-25.3c.5.7.9 1.4 1.2 2.3.2.7.4.6-.1 1.3-.3.4-.7.7-1.2.9-.8.4-1.6.7-2.4 1.1h-2v.3h-1.7c.6-1.4 1-2.8 1.7-4.1.6-1.3 1.5-2.7 2.3-4.1h.3c.6.8 1.3 1.6 1.9 2.3zM199.1 115c-.4-.7-1.2-1-1.7-1.6-.6-.5-1.1-1.1-1.4-1.8h-.3c-.5-.8-.7-1.7-.6-2.5h.6c.7.5 1.5 1 2.4 1.3.6.3 1.8.6 2.1 1.2h.3c.9.7-1.2 2.6-1.2 3.4h-.2zm6.2-5.2c.2.6.7 1.2.6 1.8h-1.7c-.6-.7-1-1.6-1.2-2.5.3-.4.3-.8.6-1.2h.8c.4.6.7 1.3.9 1.9z" fill="#4c6d83" opacity=".24"/><image width="1285" height="1685" xlink:href="D875C60EDC2E594.png" transform="translate(-27.415 -35.95) scale(.2827)" overflow="visible"/></g></svg>