<svg xmlns="http://www.w3.org/2000/svg" viewBox="0 0 637.64 637.57"><title>bg-the-verginia-beer</title><g id="Layer_2" data-name="Layer 2"><g id="svgbg"><g style="opacity:0.07"><path d="M637.2,637.57q0-317.33,0-634.65c0-2.91.38-2.53-2.53-2.53H0C.1.28-.16,0,.2,0s.94,0,1.41,0Q318.78,0,636,0c1.33,0,1.63.3,1.63,1.63q-.06,317.18-.06,634.34C637.53,636.49,637.94,637.18,637.2,637.57Z" style="fill:#fff"/><path d="M510.8,380.32q9.12-32.2,18.22-64.42c-.57-.78-1.35-.68-2.15-.51a1.77,1.77,0,0,0-.71.5c-1.49,1.62-2.16,1.62-3.69,0a1.8,1.8,0,0,0-.87-.55c-5.1-.42-10.22-.19-15.33-.12a2.06,2.06,0,0,0-1.15.43,1.76,1.76,0,0,0-.52.9,1.5,1.5,0,0,1-1.87,1.38c-1.19-.12-1.12-1-1.13-1.83,0-3.06,0-6.12,0-9.17-.06-4.17.2-8.35-.17-12.51a10.58,10.58,0,0,1-.33-3q0-18.66,0-37.32a6.87,6.87,0,0,0-.22-2.63,1.21,1.21,0,0,0-.48-.52c-2.43-1-4.93-1.91-7.3-3.1-.94-.46-1.43.24-1.57,1.1-.2,1.28-.37,2.56-.46,3.86-.53,7.28-1.28,14.55-1.91,21.82-.87,10.22-1.82,20.42-2.71,30.63-.29,3.28-.55,6.57-.86,9.85-.1,1-.55,1.62-1.73,1.44s-1.34-.76-1.25-1.74c.36-4,.69-8,1.06-12,.91-9.85,1.77-19.7,2.66-29.56.82-9.09,1.6-18.19,2.41-27.28a8.67,8.67,0,0,0-.45-4.34,16.23,16.23,0,0,1-1.21-6.56c0-4,0-8,0-12a3.13,3.13,0,0,0-.59-2.5c-.77,0-1.53,0-2.29,0s-1.6.22-1.88-.56.51-1.21,1.06-1.64c3.37-2.65,6.79-5.25,10.1-8,2.44-2,5.2-3.63,7.29-6.05,0-7.24,0-14.47,0-21.7,0-1.39-.58-2-1.83-2a35.55,35.55,0,0,0-5.46.07q-9.9-.3-19.78,0c-2-.08-4-.42-5.88.31-1.07.89-.86,2.13-.86,3.28,0,9.49,0,19,0,28.46,0,2.87,0,2.87-2.8,2.88H432.85a7.91,7.91,0,0,0-3,.28c-.7.33-.63.76-.14,1.22a5.93,5.93,0,0,0,1.86,1q17.42,7.31,34.8,14.68c4.06,1.72,3.45,1.12,3.49,5.56a38.39,38.39,0,0,0-.08,4.55c0,4.58,0,4.57-4.52,4.62-1.09,0-2.25-.18-3.17.68a3,3,0,0,0-.43,1.33c-.31,2.33-.31,2.35-2.65,2.6-1.16.13-2,.52-2.25,1.82a12.55,12.55,0,0,0-.1,1.94q0,25.13,0,50.25c0,3.28.28,3.61,3.51,4a1.37,1.37,0,0,1,1.42,1.61c0,1-.33,1.58-1.41,1.59-3.89,0-7.79,0-11.68,0a1.26,1.26,0,0,1-1.4-1.43c0-.9.14-1.57,1.25-1.76,2.8-.49,3-.7,3-3.52q0-25.49,0-51c0-2.93-.25-3.22-3.12-3.55-1-.12-1.46-.56-1.48-1.57a3.45,3.45,0,0,0-.64-2.5,5,5,0,0,0-4.77.06,3.84,3.84,0,0,0-.59,2.53c0,.93-.44,1.35-1.38,1.47-3,.41-3.21.63-3.21,3.64q0,25.38,0,50.76c0,3,.18,3.25,3.2,3.63,1.08.14,1.38.7,1.38,1.66s-.4,1.54-1.46,1.54c-3.89,0-7.78,0-11.67,0-1,0-1.36-.52-1.37-1.45s.17-1.56,1.27-1.74c2.78-.47,2.95-.7,2.95-3.54q0-25.47,0-50.94c0-2.93-.25-3.23-3.11-3.55-1-.12-1.47-.55-1.48-1.56a3.58,3.58,0,0,0-.64-2.51,3.88,3.88,0,0,0-4.07.06,3.92,3.92,0,0,0-.59,2.54c0,.92-.44,1.34-1.38,1.46-3,.41-3.21.63-3.21,3.64q0,25.39,0,50.77c0,3,.18,3.23,3.21,3.62,1.07.14,1.37.7,1.37,1.66s-.39,1.54-1.46,1.54c-3.89,0-7.78,0-11.67,0-1,0-1.36-.52-1.36-1.45s.16-1.56,1.27-1.74c2.77-.47,2.94-.7,2.95-3.54q0-25.47,0-50.94c0-2.93-.25-3.23-3.11-3.55-1-.11-1.46-.55-1.48-1.56a3.53,3.53,0,0,0-.63-2.51,3.41,3.41,0,0,0-3.73.06,2.32,2.32,0,0,0-.53,1.66c.14,1.72-.55,2.47-2.32,2.41-1.5-.05-2.24.86-2.29,2.34,0,.65,0,1.3,0,1.95v49.35c0,.65,0,1.3,0,1.95a2.15,2.15,0,0,0,2.3,2.34l1.23.06c1.11,0,1.37.69,1.37,1.63s-.41,1.54-1.46,1.54c-4,0-8,0-12,0-1,0-1.35-.53-1.36-1.46s.18-1.55,1.29-1.73c2.75-.46,2.93-.7,2.93-3.55q0-25.47,0-50.95c0-2.2-.09-3.56-3.14-3.55-1.06,0-1.46-.57-1.46-1.57a3.87,3.87,0,0,0-.53-2.37,2.8,2.8,0,0,0-2-.6c-1.42-.06-2.84-.06-4.25,0s-1.77-.5-1.77-1.78c0-2.48.12-4.95-.09-7.42,0-.3,0-.61,0-.88-.46-2.52.86-3.59,3-4.51,11.83-4.95,23.64-10,35.48-14.91a5.68,5.68,0,0,0,1.56-.82c.56-.48.71-.95-.11-1.32a8.76,8.76,0,0,0-3-.25h-30.4c-2.54,0-2.58,0-2.58-2.57q0-14.31,0-28.62a7.56,7.56,0,0,0-.25-2.8,1.4,1.4,0,0,0-.41-.55l-.36-.12c-2.4-.69-4.84-.31-7.27-.27q-9.82-.28-19.64,0a24.16,24.16,0,0,0-4-.1c-1.07,0-2.23-.23-3.13.66l0,10.38c.62,1.25,1.81.92,2.8.92,6.49,0,13,0,19.46,0,2.6,0,2.62,0,3.28,2.46,1.23,4.55,2.45,9.11,3.7,13.66,1.3,4.76,1.18,4-3,4.11-3,0-3.33.35-3.33,3.36v45.11a6.06,6.06,0,0,0,.2,2.28c.47.95,1.79.41,2.3,1.29.4,1.37.12,2.78.22,4.17.08,1.17-.3,1.9-1.6,2a1.53,1.53,0,0,0-1.3.76,7.08,7.08,0,0,0-.35,3.13q0,18.14,0,36.25c0,2-.16,2.13-2.09,2.17H303a12.49,12.49,0,0,0-3.17.18,24.21,24.21,0,0,1-4.89.19c-.79,0-1.34-.28-1.46-1.15a2.09,2.09,0,0,0-2.6-1.92,48.41,48.41,0,0,0-7.52,0c-2.06-.33-2.34,1.26-2.83,2.63a3,3,0,0,1-2.49.58,111,111,0,0,0-11.82,0,3.16,3.16,0,0,1-2.37-.47c-.71-1.28-.88-3.15-3.09-2.75a48,48,0,0,0-7.68,0,2,2,0,0,0-2.35,1.84,1.32,1.32,0,0,1-1.48,1.19c-4.39.11-3.87-.07-3.87-3.44q0-33.53,0-67a7.31,7.31,0,0,0-.37-3.31c-.72-1-1.78-.74-2.76-.81-1.53-.1-3.1.22-4.8-.26,1.84-2.78,3.67-5.37,5.39-8a3.66,3.66,0,0,1,3.5-1.82c3.76.07,7.52,0,11.28,0,1,0,2,.14,2.67-.91a8.24,8.24,0,0,0,.32-3.31V127.26c0-.76,0-1.53,0-2.29a1.33,1.33,0,0,1,.6-1.21,2.56,2.56,0,0,1,4,2.24c0,6.37,0,12.74,0,19.1q0,40,0,80c0,1.16-.21,2.38.58,3.41a10.94,10.94,0,0,0,7.34.09c1.17-1.06.9-2.49.9-3.81q0-48.75,0-97.49c0-.76,0-1.53,0-2.29a1.28,1.28,0,0,1,.77-1.27c2.19-.93,3.8.1,3.81,2.49v28.13q0,35.37,0,70.76c0,1.16-.21,2.38.6,3.41a9.9,9.9,0,0,0,7.32-.06c.78-1.12.55-2.39.55-3.61q0-48.82,0-97.64c0-.77,0-1.54,0-2.3a1.24,1.24,0,0,1,1-1.25c2.53-.65,3.53.08,3.55,2.64v97.65c0,.82,0,1.65,0,2.47a2.68,2.68,0,0,0,.93,2.2,8.16,8.16,0,0,0,6.27-.18,3.39,3.39,0,0,0,.54-2.19q0-5.31,0-10.62a3.4,3.4,0,0,0-.55-2.19,2.83,2.83,0,0,0-1.63-.58c-1.85-.26-1.94-.37-1.58-2.25q1.53-7.8,3.12-15.6a5.67,5.67,0,0,1,.63-2,9,9,0,0,0,1.08-5.1q0-30.51,0-61c0-.71,0-1.42,0-2.13a1.11,1.11,0,0,1,.94-1.1c2.62-.67,3.64.08,3.65,2.71V187.7c0,4.59.47,5.05,5.09,4.87.91,0,1.94.12,2.47-.95q0-36.93,0-73.87c0-.59,0-1.18,0-1.76.09-.93-.28-1.23-1.2-1.21-1.88,0-3.77,0-5.65-.08a2.93,2.93,0,0,0-2.16-.58c-1.3,0-2.6-.06-3.89,0s-1.91-.53-1.86-1.88a10.35,10.35,0,0,0-.08-3.52,38,38,0,0,0-6.54-12.38,18.81,18.81,0,0,1-2.13-3.79,1.8,1.8,0,0,0-1.92-1.14,39.33,39.33,0,0,1-6.33,0c-3-.4-4.9.47-5.74,3.45a6.91,6.91,0,0,1-.89,1.49,3.65,3.65,0,0,0-1.57,1.85l-4.59,9.17a7.26,7.26,0,0,0-.79,3.23c-.05,3.78.44,3.49-3.71,3.57-1.37,0-2.85-.45-4.09.57a36.12,36.12,0,0,1-4.41.05c-1.75-.18-2.1.44-2.1,2.11q.09,52.08,0,104.15c0,.63.39,1.4-.37,1.91a11.34,11.34,0,0,0-3.47-.6H109a8.1,8.1,0,0,0-3.44.67c0,.47-.09.94-.09,1.4q0,41,0,81.94a9.85,9.85,0,0,0,.45,2.77q8.44,29.67,16.91,59.33l3.44,12.08Z" style="fill:#23373d"/><path d="M188.58,174.16q0-20.79,0-41.57c0-2.28,0-2.29,2.3-2.29q27,0,54,0c1.19,0,1.92,0,1.91,1.63q-.09,44-.06,87.92a1.05,1.05,0,0,1-1,.3,49.86,49.86,0,0,1-6.13-1.63,1.8,1.8,0,0,1-1.1-1.09,9.85,9.85,0,0,1-.26-3.33q0-34.6,0-69.2c0-.82.26-1.75-.5-2.55-.81.82-.54,1.74-.54,2.57q0,34.5,0,69a6.54,6.54,0,0,1-.41,3.3c-1.65.86-4.72.36-6.27-1a7.14,7.14,0,0,1-.38-3.3q0-33.89,0-67.77c0-.88.31-2.55-.46-2.48-1.15.11-.56,1.66-.56,2.55q-.06,33.7,0,67.41c0,1.16.21,2.38-.56,3.43-1.7.83-3.33.26-4.93-.3a1.57,1.57,0,0,1-1-1.54c-.06-.76,0-1.53,0-2.29q0-33.39,0-66.78a5.68,5.68,0,0,0-.3-2.59c-.41-.69-.82-.69-1.21,0a6.34,6.34,0,0,0-.26,2.63q0,33.08,0,66.15c0,.7,0,1.41,0,2.12-.1,1.53-.58,2-2.12,1.87-1.27-.13-2.63.19-3.78-.65-.77-1-.61-2.24-.61-3.41q0-33.15,0-66.31c0-.84.25-1.76-.46-2.6-.91.71-.57,1.66-.58,2.46q0,33,0,66c0,1.16.2,2.37-.52,3.43a2.76,2.76,0,0,1-2.18.46c-6.34-.32-12.68-.73-19-.91-5.48-.16-10.95-.46-16.42-.25-7.64.29-15.29.19-22.92.93-1.35.13-2.83.47-4-.6q0-4.92,0-9.84c.85-1,2.05-.75,3.13-.76q15.12,0,30.25,0,13.08,0,26.18,0c2.38,0,2.45-.19,2.25-2.55a30.66,30.66,0,0,0-2.87-10.51,11.48,11.48,0,0,1-.86-5q0-20.17,0-40.34c0-.8.43-2.26-.52-2.27S205,144,205,144.82c0,12.09,0,24.18,0,36.27,0,1.14.42,2.74-.74,3.25-1.31.58-2-1.05-3-1.76-2.42-1.77-3.06-4.13-3-7.08.15-10.32.07-20.64,0-31,0-.71.3-2-.46-2-1,0-.59,1.32-.59,2,0,9.78,0,19.57,0,29.36,0,4.44-.35,4.67-4.28,2.77-.91-.44-1.84-.8-2.75-1.22C189.5,175.2,188.82,174.92,188.58,174.16Z" style="fill:#e5ba5d"/><path d="M529,315.9l-2.31-.16c-.92-.4-1-1.29-1.07-2.09-.92-6.83-2-13.64-2.7-20.49-.56-5.21-1.35-10.4-1.92-15.61-1.2-10.94-2.83-21.83-4-32.78a5.94,5.94,0,0,1,.41-3.12,16,16,0,0,0,1.21-6.55c0-3.95,0-7.89,0-11.84a3.56,3.56,0,0,1,.64-2.68l2.65-.05c.6,0,1.28,0,1.46-.69s-.31-1-.74-1.3l-9-7.16c-1.89-1.51-3.77-3-5.68-4.49a1.93,1.93,0,0,1-.75-1.85q.68-12.87,1.34-25.75c.28-5.52.52-11,.8-16.58.43-8.59.89-17.17,1.33-25.75q.39-7.86.77-15.7c.1-2,.18-4,.33-6a3.4,3.4,0,0,1,3.43-3.34c1.71-.08,3.42-.07,5.13,0A3.43,3.43,0,0,1,524,115.5q.38,9.18.74,18.36.54,13.59,1.08,27.18l1.05,25.59q.54,13.16,1.07,26.3T529,239.41q.52,13.05,1.06,26.11.53,12.89,1.06,25.77c.16,3.65.27,7.3.61,10.93C532.14,307.07,530.54,311.47,529,315.9Z" style="fill:#e5ba5d"/><path d="M298.78,213.59c-.41,0-.82-.06-1.23-.06-3.2,0-3.18,0-2.56-3.06,1.17-5.64,1.71-11.5,3.64-16.86,1.64-4.6,1.08-9,1.12-13.54.15-18.39.08-36.78,0-55.17,0-1.55.32-2.13,2-2.08,4.11.13,4.11,0,4.11,4.19,0,20.87,0,41.73,0,62.6,0,1.87.56,2.4,2.29,2.2,1.52-.17,3.07.17,4.58-.19a10.93,10.93,0,0,0,1.39.15h30.67a13.09,13.09,0,0,0,1.39-.14c.7.06,1.4.16,2.1.16,7.2,0,14.4,0,21.6,0,1.18,0,1.8.27,2.11,1.49,1.63,6.21,3.28,12.4,5,18.57.43,1.52,0,1.8-1.41,1.72-1.65-.1-3.31,0-5,0-.82,0-1.21.29-1.16,1.13,0,.47,0,.95,0,1.42q0,22.65,0,45.31c0,.7-.05,1.41-.08,2.11-1.15-.68-.87-1.84-.87-2.85q0-15.93,0-31.86c0-4.07,0-8.14,0-12.21,0-2.25-.13-2.37-2.44-2.37H302C300.91,214.19,299.75,214.37,298.78,213.59Z" style="fill:#c04837"/><path d="M417.69,216.37c-11.72,0-23.45,0-35.18,0-1.66,0-2-.49-2-2.08.09-11,.08-22,.1-33,.11-.05.22-.15.32-.14,4.77.3,9.49-.54,14.25-.62,19-.35,37.94-.29,56.92-.29,1.1,0,2.26-.17,3.2.68q5.49.24,11,0c.64-.4,1.27-.78,1.62.3-.05.7-.14,1.4-.14,2.1q0,15.3,0,30.6c0,2.49,0,2.47-2.43,2.47h-35.9c-.9.68-1.73.12-2.45-.29a6.53,6.53,0,0,0-6.83,0C419.42,216.49,418.59,217.06,417.69,216.37Z" style="fill:#c04837"/><path d="M519.3,220.58q0,7.78,0,15.57a8.93,8.93,0,0,1-.71,4.32c-1.35,2.44-.87,4.91-.57,7.39,1,8.29,2,16.57,3.1,24.86q2.08,16.45,4.19,32.91c.42,3.37.7,6.77,1.42,10.11a3,3,0,0,1-3.44,2.07c-1.17-.25-.84-1.39-1.16-2.14a2.65,2.65,0,0,1-1-2.16c-2.63-20.64-5.31-41.28-7.81-61.93,0-.24,0,0,0-.18-.29-2.31-.3-2.32-2.36-1.29a20.78,20.78,0,0,1-3.63,1.4,1.74,1.74,0,0,0-1.44,1.92c0,.7,0,1.41,0,2.12q0,28.49,0,57c0,1.09.25,2.27-.64,3.19,0,.3-.06.59-.07.88a2.52,2.52,0,0,1-3.82,2c-.72-.42-.46-1.15-.47-1.75q0-11.13,0-22.26c-.16-3.47-.06-6.94-.07-10.41q0-15.45,0-30.9a4.14,4.14,0,0,0-.15-1.91,22.05,22.05,0,0,1-8.38-3.5c-.42,4.61-.81,8.94-1.19,13.26q-1.18,13.19-2.37,26.39-1,11-1.89,22c-.18,2.11-.39,4.22-.59,6.33-.09.92-.17,1.92-1.52,1.48-1.11-.36-3,.45-2.82-1.91.4-4.28.78-8.56,1.17-12.84q1-11.08,2-22.17,1.18-13.09,2.35-26.21c.29-3.16.54-6.33.82-9.5a5.23,5.23,0,0,0-.55-2.89,13,13,0,0,1-1.15-5.67q0-7.78,0-15.57a9.43,9.43,0,0,1,1.37-.2q15.14,0,30.25.07A10.16,10.16,0,0,1,519.3,220.58Z" style="fill:#c04837"/><path d="M188.58,174.16a50.64,50.64,0,0,1,7.85,3.6v-2.18q0-16.37,0-32.73c0-.79-.25-1.65,1.14-1.61,1,0,1.45.23,1.41,1.37-.09,2.47,0,4.95,0,7.42,0,9.32,0,18.64,0,27.95a3,3,0,0,0,1.14,2.56c1.37,1.19,2.57,2.58,3.92,4a2.64,2.64,0,0,0,.32-1.95q0-19.8,0-39.62c0-.88-.21-1.79,1.26-1.69,1,.06,1.34.28,1.32,1.3,0,3.6,0,7.19,0,10.79q0,16.72,0,33.43a7.76,7.76,0,0,0,.83,3.56,29.91,29.91,0,0,1,2.9,11.73c.1,1.59-.42,2-2,2q-29.8-.07-59.61,0c-.36,0-.71,0-1.06,0-.76-3.26,0-6.42.95-9.46,3.3-10.41,10.51-16.93,20.74-20.29.45-.14.88-.3,1.32-.45a3.08,3.08,0,0,1,1.68-.92,30.4,30.4,0,0,1,13,0,3.56,3.56,0,0,1,1.68.92A1.71,1.71,0,0,0,188.58,174.16Z" style="fill:#23373d"/><path d="M455.27,180.9c-8.13,0-16.25,0-24.37.07q-25.15.12-50.32.3a.13.13,0,0,1,0-.19c1.71,0,3.43-.19,5.12-.05,1.53.12,2.06-.49,2.28-1.89a27.44,27.44,0,0,1,6.19-13.47A29.15,29.15,0,0,1,417,154.72l1.06,0c1.68-.51,3.4-.21,5.1-.25,2.34-.07,2.32,0,2.47-2.33.05-.79-.13-1.69.78-2.18a9.59,9.59,0,0,1,.12,3.16c0,1.15.25,1.58,1.54,1.69a29.65,29.65,0,0,1,26.22,20.95A18.6,18.6,0,0,1,455.27,180.9Z" style="fill:#e5ba5d"/><path d="M148,213.85c7.7-.33,15.4-.78,23.11-1,6.71-.17,13.42-.06,20.14.15,7.06.22,14.11.62,21.15,1.09a1.72,1.72,0,0,1,2.49.25l4.38.47c.63.07,1-.1,1-.82,0-.53,0-1.06,0-1.59V143.36c0-.64.07-1.28.1-1.93.76.39.78,1.13.84,1.83s0,1.53,0,2.3q0,32.72,0,65.44a5.15,5.15,0,0,0,.35,2.8,4.06,4.06,0,0,0,.34-2.44q0-33.35,0-66.68c0-1.13-.34-2.41.85-3.25,0,.65.1,1.29.1,1.93,0,23.21,0,46.42-.05,69.63,0,1.85.62,2.5,2.3,2.58,1.06.05,2.1.23,3.15.34a2,2,0,0,1,2.53.36l5.55,1a1.9,1.9,0,0,1,2.47.44l7.83,2.11c2,1.09,4.29,1.5,6,3.09-6.54,0-13.08.09-19.62.1H156.53l-50.93,0c2.12-2,4.88-2.69,7.54-3.5,8.23-2.5,16.73-3.63,25.25-4.61C141.59,214.53,144.79,214.2,148,213.85Z" style="fill:#c04837"/><path d="M353.28,181.14l-7.08.11c-.56-.6-.32-1.35-.32-2,0-10.85,0-21.7,0-32.54,0-3.42,1.86-6.15,3-9.14.4-1,1.24-.6,1.63.3.72,1.67,1.4,3.37,2.13,5,.2.46.24,1.19.88,1.19s.75-.77.89-1.32q3.18-12.74,6.35-25.48c.47-1.88.95-3.76,1.41-5.65.14-.58.22-1.3.94-1.28s.79.75.93,1.33c2.33,9,4.65,18.1,7,27.14a28.27,28.27,0,0,0,1.68,5.55c1.09-1.67,1.45-3.4,2.23-4.91.42-.83.28-2.34,1.51-2.31s1.1,1.51,1.54,2.35a21.83,21.83,0,0,1,2.28,11c-.17,10.14,0,20.28,0,30.42-2.41.5-4.84.17-7.25.19-1.12-.78-.89-2-.9-3.07q0-14.47,0-29c0-.53,0-1.06,0-1.59,0-2.25-.11-2.35-2.44-2.35q-6.63,0-13.25,0c-2.25,0-2.36.11-2.36,2.42,0,10.19,0,20.38,0,30.57C354,179.19,354.2,180.31,353.28,181.14Z" style="fill:#e5ba5d"/><path d="M493.37,181.14l-19.61,0a2.25,2.25,0,0,1-.79-2.05q0-16.4,0-32.78a2.41,2.41,0,0,1,.71-2.09l.7-.09a8.6,8.6,0,0,1,2.43-.35c4.58,0,9.17,0,13.75,0a5.32,5.32,0,0,1,2.24.34l.65.06a2.57,2.57,0,0,1,.72,2.26q0,16.24,0,32.49A2.38,2.38,0,0,1,493.37,181.14Z" style="fill:#c04837"/><path d="M492.8,144.11c-.36.43-.85.31-1.31.31q-7.89,0-15.79,0c-.46,0-.95.08-1.32-.31q2.83-11.18,5.66-22.36c.84-3.35,1.66-6.72,2.5-10.08.14-.56.23-1.28.92-1.37s.84.71,1,1.23Q488.64,127.82,492.8,144.11Z" style="fill:#e5ba5d"/><path d="M473.68,144.2q0,17.49,0,35c0,.64,0,1.29,0,1.94l-5.86.08c-.47-.45-1.09-.15-1.62-.3,0-11.49,0-23,0-34.47,0-3.29,1.86-6,3-8.93.44-1.1,1.23-.44,1.6.39C471.85,140,472.76,142.09,473.68,144.2Z" style="fill:#e5ba5d"/><path d="M493.37,181.14l.06-35.2c0-.59,0-1.18,0-1.77.83-2.07,1.67-4.15,2.51-6.22.18-.45.35-.91,1-.87s.68.41.84.8c1.45,3.51,3,6.86,2.93,10.93-.28,9.49-.26,19,0,28.49.2,8.42.16,16.85.21,25.28,0,.58-.07,1.16-.11,1.73,0-7-.12-14.08-.06-21.12,0-1.62-.41-2.15-2-2S495.13,181.16,493.37,181.14Z" style="fill:#e5ba5d"/><path d="M274.34,96.32c-1.47,2.94-2.83,6-4.43,8.81a12.7,12.7,0,0,0-1.88,8.06c.17,1.22-.32,1.65-1.56,1.6-2.29-.11-4.59-.06-6.88-.08a13.55,13.55,0,0,1,2.39-9.62c1.57-2.4,2.87-5,4.2-7.51a2,2,0,0,1,2.17-1.32C270.34,96.36,272.34,96.31,274.34,96.32Z" style="fill:#c04837"/><path d="M305.88,114.7c-2.41,0-4.82,0-7.23.07-.9,0-1.38-.3-1.22-1.21.78-4.58-1.3-8.31-3.45-12-1-1.67-1.76-3.44-2.63-5.17l.18,0c2.29,0,4.87-.64,6.81.2s2.39,3.6,3.6,5.45c.42.64.7,1.38,1.17,2A13.8,13.8,0,0,1,305.88,114.7Z" style="fill:#c04837"/><path d="M187.29,173.8a36.36,36.36,0,0,0-16.31,0,6.74,6.74,0,0,1,6.22-7.05c1.28-.13,1.56-.65,1.48-1.78s0-2.36,0-3.53c0-.49,0-1,.72-.95s.56.52.56.92c0,1.3.06,2.6,0,3.89-.05,1,.34,1.29,1.29,1.44A6.84,6.84,0,0,1,187.29,173.8Z" style="fill:#c04837"/><path d="M426.37,149.93c0,.53-.06,1.06-.07,1.59,0,3.61,0,3.68-3.7,3.57-1.52,0-3.13.58-4.58-.4,0-1.23.05-2.46.06-3.69,0-2.36,1.13-3.86,3-4.09C424.18,146.53,425.61,147.36,426.37,149.93Z" style="fill:#23373e"/><path d="M298.78,213.59c2.83,0,5.66-.06,8.49-.06,19.94,0,39.89,0,59.83-.05,1.77,0,2.27.42,2.27,2.24-.08,15.28-.05,30.56-.05,45.84,0,.65.06,1.29.09,1.94.86.73,1.94.06,2.85.45-.4.75-1.13.77-1.83.83s-1.54,0-2.3,0H302.76c-2.55,0-2.55,0-2.57,2.53a31.61,31.61,0,0,1-.11,4.24,13.51,13.51,0,0,1,.12,2.11v37.24c0,1.11.12,2.25-.7,3.19-1.33,0-2.67,0-4,.12-1.61.1-3.07.23-2.74-2.2.18-1.29-1.12-.56-1.69-.86a2.46,2.46,0,0,1-.74-2,33.54,33.54,0,0,1,.11-5,12.49,12.49,0,0,0,.16-4.56,3.35,3.35,0,0,0-3.63-2.9,3.28,3.28,0,0,0-3.13,3.39c-.08,1.35,0,2.71,0,4.07a44.31,44.31,0,0,1,.08,5.28,2.5,2.5,0,0,1-.64,1.78c-1.29-.12-2,.32-1.75,1.75a1.21,1.21,0,0,1-.35,1.28c-.7-.05-1.41,0-2.12,0-1.77,0-2-.21-2.08-2-.09-3.12,0-6.25,0-9.37a6.88,6.88,0,0,0-.84-3.56,4.47,4.47,0,0,0-7.84,0,7.69,7.69,0,0,0-1,3.89c0,2.77,0,5.54,0,8.31s-.12,2.74-2.78,2.75a9.33,9.33,0,0,0-1.06,0c-.7-.15-.72-.71-.63-1.21.26-1.45-.41-1.94-1.75-1.82a2.41,2.41,0,0,1-.75-2,33.51,33.51,0,0,1,.11-5,12.49,12.49,0,0,0,.16-4.56,3.35,3.35,0,0,0-3.63-2.91,3.28,3.28,0,0,0-3.13,3.39c-.07,1.35,0,2.71-.05,4.07a42.3,42.3,0,0,1,.08,5.28,2.5,2.5,0,0,1-.64,1.78c-1.33-.14-2,.36-1.74,1.78.18,1-.37,1.25-1.32,1.28-5.31.17-5.31.19-5.31-5.1l0-69.46c.91-.93,2.09-.67,3.18-.67q26.27,0,52.53,0c4,0,3.92.22,2.32-3.51-.33-.76-.64-1.52-.92-2.3-.69-1.87-1.37-3.74-3.08-5Q298.78,220.9,298.78,213.59Z" style="fill:#e5ba5d"/><path d="M220.39,313.66c-.35.82-1.09.56-1.69.56H139.59c-.61,0-1.35.26-1.71-.55,0-18.22,0-36.45,0-54.67,0-2.9.11-3,3.1-3h76.08a9.41,9.41,0,0,1,2.12.13,1.28,1.28,0,0,1,1.18,1.48c0,.46,0,.94,0,1.41C220.39,277.21,220.35,295.44,220.39,313.66Z" style="fill:#e5ba5d"/><path d="M299.5,314.12q0-21.28,0-42.58a3.14,3.14,0,0,1,2.48-.7q32.46,0,64.93,0c.87,0,1.79-.07,2.42.76q0,20.08,0,40.16c0,2.35,0,2.35-2.25,2.35Z" style="fill:#c04837"/><path d="M417.69,216.37a14.81,14.81,0,0,0,4.05-1.54,4,4,0,0,1,3.62,0,15.8,15.8,0,0,0,4.05,1.56c5,2.53,10.3,4.47,15.45,6.68,7.75,3.33,15.5,6.66,23.33,9.82,1.78.71,2.55,1.57,2.24,3.43-.08.52-.05,1-.08,1.58-.71.84-1.69.73-2.62.73-4,0-8,0-12,0q-37.79,0-75.57,0c-1.15,0-2.4.29-3.34-.72-.24-3.87-.26-3.91,3.16-5.37q17.78-7.56,35.57-15.08C416.25,217.12,417,216.73,417.69,216.37Z" style="fill:#e5ba5d"/><path d="M220.39,313.66c0-.7-.1-1.4-.1-2.11V259c0-2.33,0-2.33-2.24-2.33q-38.93,0-77.85,0c-1.74,0-2.27.37-2.26,2.21.07,17.63,0,35.27,0,52.9,0,.64-.06,1.29-.1,1.93,0-5.84-.06-11.67-.07-17.51q0-18.12,0-36.25c0-3.07,0-3.07-3-3.3-.23-.54.21-.86.44-1.23,2.17-3.44,4.38-6.85,6.52-10.3a2.36,2.36,0,0,1,2.26-1.28q35,0,70,0c.7,0,1.42-.11,1.89.64l7.58,11.84c-.17.19-.23.33-.31.34-2.79.21-2.79.21-2.79,3.08q0,26,0,52C220.46,312.37,220.42,313,220.39,313.66Z" style="fill:#c04837"/><path d="M376.78,237.89h93.57c0,3.05,0,6.11.1,9.16,0,1-.49,1.12-1.3,1.11-2.29,0-4.58,0-6.87,0a3,3,0,0,1-2.3.68H448.31a3.23,3.23,0,0,1-2.32-.68h-4.6a2.91,2.91,0,0,1-2.3.68H427.42a3.29,3.29,0,0,1-2.32-.68h-3.82a3.33,3.33,0,0,1-2.49.68H407.46a3.33,3.33,0,0,1-2.49-.68H401.5a3.24,3.24,0,0,1-2.32.68H387.51a2.91,2.91,0,0,1-2.3-.68c-2.41,0-4.82-.09-7.22,0-1,0-1.33-.28-1.31-1.29C376.76,243.88,376.75,240.88,376.78,237.89Z" style="fill:#f5eacc"/><path d="M505.18,315.72q0-31.49-.07-63c0-.72-.05-1.46.91-1.63a19.49,19.49,0,0,0,7.48-3.21c.42,3.35.82,6.51,1.22,9.68q1.54,12.17,3.07,24.34c.88,7.06,1.72,14.13,2.62,21.19.53,4.19,1.13,8.37,1.7,12.56Z" style="fill:#e5ba5d"/><path d="M298.77,228.22c1.51-.16,2.13.69,2.61,2,1,2.66,2,5.28,3.22,7.84.66,1.45.21,1.62-1.14,1.61q-25.83,0-51.65,0c-2.35,0-4.71,0-7.07,0h-8.68c1.4-2.09,2.58-3.88,3.79-5.66s2.21-4.49,4-5.45,4.48-.26,6.78-.29l9.17-.1a7.91,7.91,0,0,1,6.08,0,58.14,58.14,0,0,0,7.23,0,8.4,8.4,0,0,1,6.18,0,52.72,52.72,0,0,0,7.11,0,8.43,8.43,0,0,1,6.19,0Z" style="fill:#f5eacc"/><path d="M292.6,228.2h-6.19q0-51.83,0-103.66c0-1.3.31-1.71,1.66-1.7,4.48,0,4.48,0,4.48,4.54q0,49.35,0,98.71C292.52,226.79,292.57,227.49,292.6,228.2Z" style="fill:#c04837"/><path d="M279.3,228.19h-6.19c0-.77.08-1.53.08-2.3q0-50.33,0-100.65c0-2.66-.25-2.37,2.36-2.38,3.75,0,3.75,0,3.75,3.78Q279.31,177.43,279.3,228.19Z" style="fill:#c04837"/><path d="M265.89,228.19h-6.08q0-51.56,0-103.11c0-1.74.35-2.34,2.2-2.26,3.93.16,3.93,0,3.93,4Q265.9,177.52,265.89,228.19Z" style="fill:#c04837"/><path d="M385.21,248.2a152.62,152.62,0,0,1,16.29,0c0,.18,0,.35,0,.53,0,1.23.33,2.72-.24,3.63s-2.19.32-3.33.35-1.08.61-1.08,1.38c0,3.18,0,6.36,0,9.55,0,14.62,0,29.24,0,43.86,0,1.49.43,1.9,1.88,1.85,3.13-.08,3.64.66,3.06,3.81-.13.73-.53.81-1.1.81-4.66,0-9.31,0-14,0-.94,0-1.29-.37-1.21-1.25a5.63,5.63,0,0,0,0-.71c0-3.14-.26-2.73,2.58-2.67,1.41,0,1.78-.42,1.78-1.8q-.06-26.54,0-53.06c0-.85.25-1.74-1.21-1.79-3.4-.12-3.39-.19-3.39-3.62Z" style="fill:#c04837"/><path d="M425.1,248.2a152.62,152.62,0,0,1,16.29,0c0,.17,0,.35,0,.53,0,1.23.33,2.72-.23,3.62s-2.19.28-3.34.36c-.75.06-1.07.33-1,1.08,0,.41,0,.82,0,1.23v52c0,2.3,0,2.27,2.28,2.32.78,0,2-.44,2.28.38a7,7,0,0,1,.06,3.83c-.09.51-.65.41-1,.41-4.6,0-9.2,0-13.8,0-.82,0-1.21-.29-1.16-1.14,0-.41,0-.82,0-1.24,0-2.27,0-2.36,2.31-2.25,1.59.08,2.08-.36,2.07-2q-.09-26.34,0-52.7c0-1.61-.48-2.12-2-1.9-.46.07-.94,0-1.41,0-1,.1-1.33-.4-1.29-1.36S425.11,249.26,425.1,248.2Z" style="fill:#c04837"/><path d="M405,248.2a153,153,0,0,1,16.31,0c0,.23,0,.47,0,.7-.07,1.23.48,2.71-.23,3.62s-2.21.26-3.36.35c-.73,0-1.1.3-1.06,1.06,0,.35,0,.71,0,1.06,0,17.4,0,34.8,0,52.19,0,1.68.39,2.36,2.13,2.18.82-.09,2.08-.49,2.46.36.52,1.15.25,2.55.12,3.84-.07.64-.68.55-1.13.55-4.55,0-9.09,0-13.63,0-.9,0-1.32-.32-1.23-1.23,0-.12,0-.24,0-.36-.07-3.08-.07-3.13,2.95-3.2,1.09,0,1.4-.4,1.4-1.45q0-26.81,0-53.61c0-1.09-.36-1.4-1.43-1.42-3.24-.06-3.24-.11-3.24-3.43C405,249,405,248.61,405,248.2Z" style="fill:#c04837"/><path d="M369.35,271.61c-.59,0-1.18-.06-1.76-.06H299.52c0-2.12,0-4.24,0-6.36,0-1,.3-1.21,1.32-1.21q35.29.09,70.59.08a8.55,8.55,0,0,0,.87-.09,61.33,61.33,0,0,1,.16,6.78c0,.6-.2.83-.8.81C370.86,271.53,370.11,271.59,369.35,271.61Z" style="fill:#f5eacb"/><path d="M446,248.2a152.62,152.62,0,0,1,16.29,0v.35c0,1.29.35,2.86-.25,3.8s-2.29.29-3.5.37c-.73.05-1.09.3-1.06,1.05,0,.3,0,.59,0,.89,0,17.5,0,35,0,52.52,0,1.7.45,2.42,2.17,2.14h.17c.85.13,2.14-.45,2.44.41a9.91,9.91,0,0,1,.14,3.66c0,.63-.65.57-1.12.57-4.59,0-9.19,0-13.79,0-.83,0-1.2-.31-1.15-1.14,0-.42,0-.83,0-1.24,0-2.27,0-2.37,2.32-2.25,1.6.09,2.07-.38,2.07-2q-.1-26.35,0-52.7c0-1.62-.49-2.12-2-1.9-.46.07-.94,0-1.41,0-1,.11-1.33-.41-1.28-1.36S446,249.26,446,248.2Z" style="fill:#c04837"/><path d="M353.28,181.14c0-11.68,0-23.36,0-35,0-1.32.36-1.7,1.69-1.68,5.37.07,10.74.08,16.1,0,1.48,0,1.89.42,1.88,1.88-.06,10.86,0,21.71,0,32.56,0,.76.07,1.53.11,2.29C366.41,181.3,359.85,181.32,353.28,181.14Z" style="fill:#c04837"/><path d="M263.37,314.22c3.2-.3,3.2-.3,3.2-3.56,0-2.71,0-5.41,0-8.12.06-3.44,2.34-6.19,5.16-6.31,3.3-.13,5.75,2.25,5.86,5.88.11,3.17,0,6.35,0,9.53,0,2.45,0,2.44,2.46,2.48.35,0,.7.07,1,.1C275.21,314.39,269.29,314.41,263.37,314.22Z" style="fill:#c04837"/><path d="M260.94,303.72c0,2.49,0,5,.05,7.46a64.25,64.25,0,0,1-7.85,0c0-2.49,0-5,0-7.47A10,10,0,0,1,260.94,303.72Z" style="fill:#c04837"/><path d="M291,303.72c0,2.49,0,5,0,7.46a64.08,64.08,0,0,1-7.84,0v-7.47A10.05,10.05,0,0,1,291,303.72Z" style="fill:#c04837"/><path d="M500.58,251.37c.43.36.33.85.33,1.31q0,20.52,0,41a8.75,8.75,0,0,1-.09.88,2.3,2.3,0,0,1-.25-1.54Q500.56,272.22,500.58,251.37Z" style="fill:#aa7163"/><path d="M238.89,217.73l-2.47-.43q0-37.06,0-74.13c0-.63-.55-1.66.63-1.86,1-.18,1.86-.2,1.85,1.41Q238.85,180.22,238.89,217.73Z" style="fill:#25383e"/><path d="M230.87,216.27l-2.53-.36q0-36.4,0-72.83c0-.65-.62-1.71.88-1.83,1.35-.11,1.65.35,1.65,1.66-.05,14.91,0,29.82,0,44.72Z" style="fill:#22373e"/><path d="M214.88,214.37l-2.49-.25q0-35.56,0-71.15c0-.68-.5-1.68,1-1.74s1.49.5,1.49,1.64Q214.87,178.61,214.88,214.37Z" style="fill:#23373e"/><path d="M222.84,141.43c0,.71-.07,1.41-.07,2.12q0,34.86,0,69.73c0,.85.52,2.26-1.37,1.76-.6-.16-.95-.39-.92-1.06,0-.47,0-.94,0-1.41q0-34.6,0-69.2c0-.64,0-1.29-.07-1.94A4.26,4.26,0,0,1,222.84,141.43Z" style="fill:#23373e"/><path d="M511.49,199.91c0-3.72,2.36-6.29,5.72-6.28,3.18,0,5.64,2.71,5.65,6.21s-2.59,6.57-5.78,6.53S511.48,203.58,511.49,199.91Z" style="fill:#f5eacc"/><path d="M444.71,200.24c0,2.18,0,4.36,0,6.55,0,1-.25,1.36-1.29,1.34-3-.06-6,0-9,0-.84,0-1.13-.28-1.12-1.12,0-4.43-.06-8.85,0-13.27a5.66,5.66,0,0,1,11.32,0,4.73,4.73,0,0,1,0,.53C444.7,196.23,444.7,198.23,444.71,200.24Z" style="fill:#f5eacc"/><path d="M397.9,200.27c0,2.24,0,4.48,0,6.72,0,.85-.28,1.14-1.12,1.13q-4.6-.06-9.2,0c-.88,0-1.12-.34-1.11-1.16,0-4.42,0-8.84.11-13.26a5.8,5.8,0,0,1,5.72-5.6,6,6,0,0,1,5.57,5.8C397.94,196,397.9,198.15,397.9,200.27Z" style="fill:#f5eacc"/><path d="M413.48,200.22c0,2.18,0,4.36,0,6.54,0,.91-.13,1.39-1.23,1.37-3-.07-6,0-9,0-.85,0-1.12-.29-1.11-1.13,0-4.48-.06-9,0-13.43a5.64,5.64,0,0,1,11.28.11C413.54,195.85,413.48,198,413.48,200.22Z" style="fill:#f5eacc"/><path d="M429.13,200.22c0,2.18,0,4.37,0,6.55,0,.94-.21,1.38-1.28,1.36-3-.07-6,0-9,0-.82,0-1.15-.24-1.14-1.1,0-4.49-.07-9,.05-13.45A5.64,5.64,0,0,1,429,193.5c.14,2.23,0,4.48,0,6.72Z" style="fill:#f5eacc"/><path d="M460.28,200.21c0,2.13,0,4.25,0,6.37,0,1.1-.21,1.59-1.45,1.55-2.88-.08-5.78-.06-8.67,0-1,0-1.34-.24-1.32-1.28.05-4.24,0-8.49.05-12.74a5.69,5.69,0,1,1,11.36.1C460.32,196.2,460.28,198.21,460.28,200.21Z" style="fill:#f5eacc"/><path d="M489,166.13c0,2.36-.06,4.71,0,7.06,0,1.19-.39,1.49-1.51,1.46-2.76-.07-5.53-.06-8.29,0-1,0-1.31-.28-1.3-1.29.05-4.7,0-9.41,0-14.12.06-4.2,3.82-7.26,7.23-5.85a6.05,6.05,0,0,1,3.79,5.86C489,161.54,489,163.84,489,166.13Z" style="fill:#f5eacc"/><path d="M318.66,228.7c0,9.26-.05,18.52,0,27.77,0,1.57-.41,2.07-2,2a50,50,0,0,0-6.36,0c-1.54.09-2-.35-2-1.95.08-8.72,0-17.45,0-26.18,0-.53,0-1.06,0-1.59C310,227.7,317,227.69,318.66,228.7Z" style="fill:#c04837"/><path d="M360,228.72c0,9.26-.05,18.52,0,27.77,0,1.6-.47,2-2,1.95a59.45,59.45,0,0,0-6.54,0c-1.41.08-1.81-.38-1.8-1.78.06-8.84,0-17.69,0-26.53,0-.48,0-1,0-1.42C351.41,227.69,358.35,227.7,360,228.72Z" style="fill:#c04837"/><path d="M339.27,228.67c0,9.24-.06,18.48,0,27.72,0,1.66-.49,2.15-2.09,2.05a53.09,53.09,0,0,0-6.18,0c-1.46.08-1.92-.37-1.91-1.86.06-8.83,0-17.66,0-26.49,0-.47,0-.94,0-1.41a1.38,1.38,0,0,1,.89-.51,45.22,45.22,0,0,1,8.39,0A1.41,1.41,0,0,1,339.27,228.67Z" style="fill:#c04937"/><path d="M339.27,228.67a90.8,90.8,0,0,0-10.17,0c-2.27,0-2.27,0-2.27-2.34,0-1.47,0-2.94,0-4.41,0-1,.4-1.34,1.37-1.33q6,0,12,0c1,0,1.4.35,1.38,1.33,0,1.47,0,2.94,0,4.41C341.54,228.66,341.54,228.66,339.27,228.67Z" style="fill:#f5eacb"/><path d="M318.66,228.7a70.68,70.68,0,0,0-10.29,0c-1.81.28-2.36-.52-2.18-2.27a36.82,36.82,0,0,0,0-4.58c0-.85.21-1.29,1.17-1.28q6.09,0,12.17,0c.91,0,1.26.33,1.23,1.24a37.63,37.63,0,0,0,0,4.75C321,228.34,320.28,228.92,318.66,228.7Z" style="fill:#f5eacb"/><path d="M360,228.72a70.68,70.68,0,0,0-10.29,0c-1.64.22-2.34-.37-2.15-2.13a30.57,30.57,0,0,0,0-4.59c-.06-1.11.4-1.41,1.45-1.4q5.84.07,11.67,0c1.05,0,1.49.31,1.43,1.41a29.3,29.3,0,0,0,0,4.59C362.35,228.35,361.61,228.9,360,228.72Z" style="fill:#f5eacb"/><path d="M283.22,258.35c0-2.54,0-5.09,0-7.64a8.88,8.88,0,0,1,7.76,0c.08,2.55.17,5.1.25,7.64a1.55,1.55,0,0,1-1.33.7,34.51,34.51,0,0,1-5.38,0A1.53,1.53,0,0,1,283.22,258.35Z" style="fill:#c04837"/><path d="M260.91,250.72l.24,7.65A1.48,1.48,0,0,1,260,259a30.47,30.47,0,0,1-5.65,0,1.42,1.42,0,0,1-1.18-.69l0-7.64A8.85,8.85,0,0,1,260.91,250.72Z" style="fill:#c04937"/><path d="M268,258.35l0-7.64a8.85,8.85,0,0,1,7.76,0l.24,7.64a1.55,1.55,0,0,1-1.33.7,34.38,34.38,0,0,1-5.37,0A1.53,1.53,0,0,1,268,258.35Z" style="fill:#c04937"/><path d="M291,277.53c0,2.48,0,5,.05,7.45a2.08,2.08,0,0,1-1.91.68c-2-.17-4.09.66-5.94-.67v-7.47A10,10,0,0,1,291,277.53Z" style="fill:#c04837"/><path d="M268,285v-7.47a10,10,0,0,1,7.8,0c0,2.48,0,5,.05,7.45a2.08,2.08,0,0,1-1.91.68C272,285.49,269.86,286.32,268,285Z" style="fill:#c04837"/><path d="M260.94,277.53,261,285a2.08,2.08,0,0,1-1.91.68c-2-.17-4.1.66-5.95-.67v-7.47A10,10,0,0,1,260.94,277.53Z" style="fill:#c04837"/><path d="M291,303.72h-7.8c0-1.35-.05-2.7,0-4a3.66,3.66,0,0,1,3.2-3.6,3.87,3.87,0,0,1,4.53,2.46A9.79,9.79,0,0,1,291,303.72Z" style="fill:#f5e9cb"/><path d="M291,277.53h-7.8c0-1.35-.05-2.71,0-4.07a3.65,3.65,0,0,1,3.28-3.57,3.91,3.91,0,0,1,4.48,2.59A9.86,9.86,0,0,1,291,277.53Z" style="fill:#f5e9cb"/><path d="M275.81,277.53H268c0-1.36-.06-2.71,0-4.07a3.62,3.62,0,0,1,3.29-3.56,3.86,3.86,0,0,1,4.47,2.58A9.86,9.86,0,0,1,275.81,277.53Z" style="fill:#f5e9cb"/><path d="M260.94,277.53h-7.8c0-1.36-.06-2.71,0-4.07a3.66,3.66,0,0,1,3.29-3.57,3.87,3.87,0,0,1,4.47,2.59A9.75,9.75,0,0,1,260.94,277.53Z" style="fill:#f5e9cb"/><path d="M260.94,303.72h-7.79c0-1.35-.06-2.7,0-4a3.66,3.66,0,0,1,3.21-3.6,3.87,3.87,0,0,1,4.52,2.45A9.73,9.73,0,0,1,260.94,303.72Z" style="fill:#f5e9cb"/><path d="M291,250.72h-7.76c0-1.29-.06-2.58,0-3.87a3.44,3.44,0,0,1,3.11-3.62c2.58-.3,4.2.64,4.71,2.84A8.68,8.68,0,0,1,291,250.72Z" style="fill:#f5eacc"/><path d="M275.78,250.72H268c0-1.35-.07-2.7,0-4a3.51,3.51,0,0,1,3.3-3.46c2.55-.19,4.1.74,4.54,2.84A9.13,9.13,0,0,1,275.78,250.72Z" style="fill:#f5eacb"/><path d="M260.91,250.72h-7.76c0-1.35-.07-2.69,0-4a3.51,3.51,0,0,1,3.11-3.45c2.41-.28,4.09.57,4.63,2.5A8.77,8.77,0,0,1,260.91,250.72Z" style="fill:#f5eacc"/><path d="M268,285a66.32,66.32,0,0,0,7.85,0c2.44-.22,1.57,1.61,1.74,2.81.24,1.64-.89,1.4-1.87,1.4-2.69,0-5.39,0-8.08,0-1.08,0-1.53-.33-1.38-1.4S265.53,284.77,268,285Z" style="fill:#293a3e"/><path d="M253.14,285a66.49,66.49,0,0,0,7.86,0c2.44-.21,1.56,1.61,1.73,2.81.24,1.64-.89,1.4-1.87,1.4-2.69,0-5.39-.05-8.08,0-1.08,0-1.53-.33-1.38-1.4S250.67,284.77,253.14,285Z" style="fill:#293a3e"/><path d="M283.23,285a66.32,66.32,0,0,0,7.85,0c2.63-.2,1.55,1.78,1.72,3,.24,1.62-1,1.21-1.85,1.22-2.69,0-5.39,0-8.08,0-1.08,0-1.53-.33-1.38-1.4S280.76,284.77,283.23,285Z" style="fill:#293a3e"/><path d="M283.22,258.35h8c2.5-.19,1.33,1.71,1.55,2.78.3,1.46-.78,1.25-1.64,1.25-2.65,0-5.3,0-8,0-1,0-1.93.09-1.72-1.4C281.65,259.83,280.87,258.08,283.22,258.35Z" style="fill:#23373e"/><path d="M268,258.35h8c2.48-.19,1.34,1.7,1.56,2.77.3,1.46-.77,1.26-1.64,1.26-2.65,0-5.3,0-7.94,0-1,0-1.94.09-1.73-1.4C266.43,259.82,265.65,258.08,268,258.35Z" style="fill:#23373e"/><path d="M253.13,258.35l8,0c2.48-.2,1.34,1.68,1.56,2.76.3,1.45-.75,1.26-1.63,1.26-2.65,0-5.3,0-7.95,0-1,0-1.94.1-1.73-1.4C251.56,259.83,250.77,258.08,253.13,258.35Z" style="fill:#23373e"/><path d="M169.22,288.44q0-8.13,0-16.26c0-5.83,3.59-9.39,9.45-9.54,3.72-.1,6.86.87,9,4.16a8.8,8.8,0,0,1,1.4,4.86c0,11.37,0,22.74,0,34.11,0,1.3-.46,1.56-1.64,1.55-5.54-.05-11.08-.07-16.62,0-1.4,0-1.63-.49-1.62-1.74C169.26,299.88,169.22,294.16,169.22,288.44Z" style="fill:#c04837"/><path d="M214.22,288.26c0,5.78,0,11.56,0,17.35,0,1.28-.29,1.74-1.66,1.72-5.55-.08-11.09-.07-16.64,0-1.27,0-1.58-.41-1.58-1.62,0-11.27,0-22.54,0-33.8,0-5.47,3.8-9.15,9.27-9.24s8.89,2,10.25,6.52a8.63,8.63,0,0,1,.27,2.62Q214.23,280,214.22,288.26Z" style="fill:#c04837"/><path d="M144.06,288.1c0-5.54,0-11.08,0-16.63a8.71,8.71,0,0,1,8.68-8.82c3.51-.14,6.69.38,9,3.31a8.08,8.08,0,0,1,1.87,5.21c0,11.5,0,23,0,34.49,0,1.36-.46,1.68-1.73,1.66-5.43-.06-10.85-.07-16.27,0-1.37,0-1.68-.44-1.66-1.72C144.09,299.77,144.06,293.93,144.06,288.1Z" style="fill:#c04837"/><path d="M320,286.16c0,6.47-.09,12.95,0,19.42,0,1.53-.39,2.1-2,2a65.1,65.1,0,0,0-6.7,0c-1.42.07-1.82-.44-1.81-1.82,0-6.53,0-13.06,0-19.59a1.83,1.83,0,0,1,1.68-.77c2.4-.09,4.8-.08,7.2,0A1.82,1.82,0,0,1,320,286.16Z" style="fill:#e5ba5c"/><path d="M358.89,286.15a4.11,4.11,0,0,0-.23,2.08c0,5.84-.06,11.67,0,17.5,0,1.51-.48,1.92-1.92,1.85-2.17-.1-4.36-.1-6.54,0-1.39.06-1.84-.39-1.82-1.8.07-5.78,0-11.55,0-17.32,0-.77,0-1.53-.06-2.3a1.8,1.8,0,0,1,1.67-.76q3.58-.12,7.17,0A1.84,1.84,0,0,1,358.89,286.15Z" style="fill:#e5ba5d"/><path d="M339.14,286.16c0,6.54-.06,13.08,0,19.61,0,1.41-.43,1.87-1.82,1.81-2.29-.09-4.6-.09-6.89,0-1.26.05-1.59-.41-1.58-1.62,0-6.59,0-13.19,0-19.79a1.81,1.81,0,0,1,1.66-.77c2.32-.09,4.65-.09,7,0A1.81,1.81,0,0,1,339.14,286.16Z" style="fill:#e5ba5d"/><path d="M320,286.16a103.32,103.32,0,0,0-10.56,0c-1.71.26-2.15-.48-2.09-2.16.14-3.61,0-3.62,3.75-3.62,3,0,6,.12,9,0,1.71-.09,2.16.54,2,2.07a5.23,5.23,0,0,0,0,1.58C322.32,285.66,321.74,286.44,320,286.16Z" style="fill:#f5eacc"/><path d="M358.89,286.15c-3.51-.15-7-.16-10.52,0-1.87.35-2.21-.55-2.15-2.24.13-3.52,0-3.53,3.65-3.53,3.24,0,6.48,0,9.71,0,1.07,0,1.52.27,1.41,1.38a8.78,8.78,0,0,0,0,2.29C361.25,285.75,360.59,286.44,358.89,286.15Z" style="fill:#f5eacc"/><path d="M339.14,286.16a98.11,98.11,0,0,0-10.29,0c-1.91.33-2.29-.59-2.22-2.34.14-3.43,0-3.44,3.54-3.44,3.12,0,6.23.1,9.34,0,1.54-.07,2,.46,1.77,1.87a5.47,5.47,0,0,0,0,1.76C341.58,285.73,340.92,286.48,339.14,286.16Z" style="fill:#f5eacc"/><path d="M368.52,166.31c0,2.36,0,4.71,0,7.06,0,1-.33,1.3-1.31,1.28q-4.23-.09-8.47,0c-1,0-1.32-.28-1.31-1.29,0-4.77-.07-9.53.05-14.3.1-4.23,4-7.15,7.36-5.6a6.15,6.15,0,0,1,3.64,5.79C368.59,161.6,368.52,164,368.52,166.31Z" style="fill:#f5eacc"/></g></g></g></svg>