<svg xmlns="http://www.w3.org/2000/svg" viewBox="0 0 383.46 58.06"><title>brewers-association-2019</title><g id="Layer_2" data-name="Layer 2"><g id="page1"><g id="ba2019-logo.svg"><polygon points="375.65 53.16 370.42 53.18 370.28 38.85 371.99 38.85 371.98 37.65 370.27 37.65 370.16 26.82 371.73 26.81 371.71 25.64 370.15 25.65 370.01 11.11 375.21 11.08 375.19 9.52 343.96 9.67 343.96 9.68 0 13.88 5.49 58.06 370.43 54.76 370.43 54.75 375.65 54.73 375.65 53.16" style="fill:#4b6c83"/><path d="M31,28.89a12,12,0,0,1-.53,4.33,5.89,5.89,0,0,1-4.39,4,15.28,15.28,0,0,1-3.37.43q-1.21,0-2.52,0c-.88,0-1.68,0-2.42,0l-2.59-.12-.69-26.6c.83-.09,1.66-.18,2.5-.25s1.46-.13,2.26-.17,1.51-.08,2.14-.1a15.66,15.66,0,0,1,3.92.32,6.4,6.4,0,0,1,2.64,1.22,4.82,4.82,0,0,1,1.5,2.2A10.89,10.89,0,0,1,30,17.36a7.7,7.7,0,0,1-.25,2.33A5,5,0,0,1,29,21.28a3.43,3.43,0,0,1-1.05,1,5.88,5.88,0,0,1-1.2.56,3.94,3.94,0,0,1,1.51.44,4.09,4.09,0,0,1,1.34,1.1,6.26,6.26,0,0,1,1,1.84A8.88,8.88,0,0,1,31,28.89Zm-6.14-11a3.47,3.47,0,0,0-.71-2.23,2.17,2.17,0,0,0-1.8-.75l-.92,0-.83.08-.8.1.17,6.15,2-.05a3,3,0,0,0,2.26-.82A3.72,3.72,0,0,0,24.83,17.84Zm.86,11.22a5.14,5.14,0,0,0-.31-1.79,2.88,2.88,0,0,0-.76-1.12,2.36,2.36,0,0,0-1.06-.58,4.15,4.15,0,0,0-1.23-.14l-2.28.06L20.24,33a7.85,7.85,0,0,1,.84,0c.25,0,.55,0,.87,0h1A2.34,2.34,0,0,0,25.16,32,5.84,5.84,0,0,0,25.69,29.06Z" style="fill:#4b6c83"/><path d="M51,18a10.7,10.7,0,0,1-.83,5,6.1,6.1,0,0,1-2.58,2.75l5,10.78-5.89.15-4.29-9.92-1.52,0,.27,10-5.21.13-.69-26.59c.73-.07,1.5-.15,2.31-.25S39,10,39.8,9.9s1.63-.1,2.42-.12a13.81,13.81,0,0,1,4.11.4,5.63,5.63,0,0,1,4.12,4.11A15.62,15.62,0,0,1,51,18Zm-5.28.4a7,7,0,0,0-.61-3.17,2.27,2.27,0,0,0-2.19-.9,10.16,10.16,0,0,0-1.6.16c-.27.06-.51.1-.72.13l.21,7.67,2.39-.06a2.25,2.25,0,0,0,1.87-1A4.57,4.57,0,0,0,45.67,18.39Z" style="fill:#4b6c83"/><path d="M56.18,36.4l-.7-26.59,13.6-.36.11,4.11-8.4.22L61,20.5l7.44-.19.11,4.06-7.44.2.2,7.59,8.39-.22.11,4.11Z" style="fill:#4b6c83"/><path d="M92.53,35.45l-7.33.19-1.83-8.88-1.66,9-7,.19-2-26.56,4.63-.12,1.62,22.5,2.4-11.39,4.33-.12,2.69,11.26.47-22.55,4.3-.11Z" style="fill:#4b6c83"/><path d="M98.19,35.3l-.7-26.59,13.6-.36.11,4.11-8.39.22L103,19.4l7.45-.19.1,4.06-7.44.2.2,7.59,8.39-.22.11,4.11Z" style="fill:#4b6c83"/><path d="M131.36,15.88a10.73,10.73,0,0,1-.82,5A6.09,6.09,0,0,1,128,23.61l5,10.78-5.89.15-4.29-9.92-1.52,0,.26,10-5.2.14-.7-26.59c.74-.07,1.51-.16,2.32-.26l2.25-.19c.82-.06,1.63-.1,2.41-.12a13.81,13.81,0,0,1,4.12.41,5.8,5.8,0,0,1,2.66,1.51,6,6,0,0,1,1.46,2.6A15.06,15.06,0,0,1,131.36,15.88Zm-5.27.41a7,7,0,0,0-.62-3.18,2.26,2.26,0,0,0-2.19-.89,10.12,10.12,0,0,0-1.59.15l-.72.14.2,7.67,2.4-.06a2.28,2.28,0,0,0,1.87-1A4.59,4.59,0,0,0,126.09,16.29Z" style="fill:#4b6c83"/><path d="M149.08,26.06a11.38,11.38,0,0,1-.56,4.29,5.71,5.71,0,0,1-1.76,2.54A6.13,6.13,0,0,1,144,34.1a20.8,20.8,0,0,1-3.5.36h-1.35c-.5,0-1,0-1.49-.08s-1-.09-1.41-.15-.83-.13-1.16-.2L135,29.51c.3.07.67.14,1.09.2s.85.12,1.31.16l1.37.09q.69,0,1.26,0a4.83,4.83,0,0,0,2.81-.82,2.93,2.93,0,0,0,1-2.59,6.52,6.52,0,0,0-.26-1.74,2.79,2.79,0,0,0-.66-1.16,2.94,2.94,0,0,0-1-.7,7.27,7.27,0,0,0-1.38-.38,7.12,7.12,0,0,1-4.6-2.35,8.57,8.57,0,0,1-1.49-5.13,9.61,9.61,0,0,1,.5-3.59,5.74,5.74,0,0,1,1.68-2.4,7.16,7.16,0,0,1,2.82-1.38,16.72,16.72,0,0,1,3.84-.5h1.18c.43,0,.86,0,1.3.1l1.24.16c.39,0,.73.12,1,.18l.12,4.49c-.34-.07-.72-.13-1.17-.18l-1.37-.16c-.47-.05-.93-.08-1.39-.09s-.85,0-1.18,0a4.21,4.21,0,0,0-2.49.71,2.45,2.45,0,0,0-.82,2.11,7.23,7.23,0,0,0,.17,1.5,2.07,2.07,0,0,0,.5.94,2.65,2.65,0,0,0,.93.56,9.37,9.37,0,0,0,1.49.38,10.38,10.38,0,0,1,2.51.75,6,6,0,0,1,2,1.45,6.63,6.63,0,0,1,1.32,2.36A12.93,12.93,0,0,1,149.08,26.06Z" style="fill:#4b6c83"/><path d="M175.46,33.28l-1.38-6.16-6.34.17-1.06,6.22-5.43.14L166.63,6.9l7.67-.2,6.51,26.44Zm-5-23.13-1.95,12.63,4.64-.12Z" style="fill:#4b6c83"/><path d="M196.52,24.82a11.46,11.46,0,0,1-.55,4.29,5.85,5.85,0,0,1-1.76,2.54,6.18,6.18,0,0,1-2.74,1.21,23.11,23.11,0,0,1-3.51.36c-.4,0-.85,0-1.35,0s-1,0-1.48-.07-1-.09-1.41-.15-.84-.13-1.17-.2l-.12-4.52c.31.07.67.13,1.09.2s.86.12,1.32.15.91.08,1.37.1.87,0,1.25,0a4.88,4.88,0,0,0,2.81-.82,2.92,2.92,0,0,0,1-2.59A6.42,6.42,0,0,0,191,23.6a2.79,2.79,0,0,0-.66-1.16,3.13,3.13,0,0,0-1-.7,6.77,6.77,0,0,0-1.38-.38A7.19,7.19,0,0,1,183.31,19a8.57,8.57,0,0,1-1.48-5.13,9.6,9.6,0,0,1,.49-3.59A5.68,5.68,0,0,1,184,7.89a7.12,7.12,0,0,1,2.81-1.38A16.78,16.78,0,0,1,190.67,6h1.18c.43,0,.86,0,1.29.1l1.24.16a8.56,8.56,0,0,1,1,.18l.12,4.48c-.33-.06-.72-.12-1.16-.17L193,10.6c-.47,0-.94-.08-1.39-.1h-1.18a4.14,4.14,0,0,0-2.49.71,2.41,2.41,0,0,0-.82,2.11,6.6,6.6,0,0,0,.17,1.5,2.07,2.07,0,0,0,.5.94,2.48,2.48,0,0,0,.93.56,9.09,9.09,0,0,0,1.49.38,9.67,9.67,0,0,1,2.51.75,6.25,6.25,0,0,1,2,1.45A6.47,6.47,0,0,1,196,21.26,12.16,12.16,0,0,1,196.52,24.82Z" style="fill:#4b6c83"/><path d="M212.06,24.41a11.49,11.49,0,0,1-.55,4.3,5.9,5.9,0,0,1-1.76,2.53A6.16,6.16,0,0,1,207,32.45a20.8,20.8,0,0,1-3.5.36h-1.35c-.5,0-1,0-1.49-.08s-1-.09-1.41-.15-.83-.13-1.16-.2L198,27.86c.31.07.67.14,1.09.2s.86.12,1.31.16l1.37.09q.69,0,1.26,0a4.74,4.74,0,0,0,2.81-.82,2.93,2.93,0,0,0,1-2.59,6.14,6.14,0,0,0-.26-1.74,3,3,0,0,0-.65-1.16,3.07,3.07,0,0,0-1-.7,7.27,7.27,0,0,0-1.38-.38,7.12,7.12,0,0,1-4.6-2.35,8.5,8.5,0,0,1-1.48-5.13,9.43,9.43,0,0,1,.49-3.59,5.68,5.68,0,0,1,1.69-2.4,7.18,7.18,0,0,1,2.81-1.38,16.73,16.73,0,0,1,3.85-.5c.35,0,.74,0,1.18,0a11.2,11.2,0,0,1,1.29.1l1.24.15c.39.06.73.12,1,.19l.12,4.48q-.5-.1-1.17-.18l-1.37-.16c-.47,0-.93-.08-1.39-.09s-.85,0-1.18,0a4.21,4.21,0,0,0-2.49.71,2.45,2.45,0,0,0-.82,2.11,7.14,7.14,0,0,0,.18,1.5,2,2,0,0,0,.5.94,2.52,2.52,0,0,0,.92.56,8.31,8.31,0,0,0,1.5.38,10.65,10.65,0,0,1,2.51.75,6.25,6.25,0,0,1,2,1.45,6.63,6.63,0,0,1,1.32,2.36A12.93,12.93,0,0,1,212.06,24.41Z" style="fill:#4b6c83"/><path d="M232.35,18.18a50.82,50.82,0,0,1-.17,6.13,12.13,12.13,0,0,1-1.17,4.4,6.26,6.26,0,0,1-2.65,2.69,12.39,12.39,0,0,1-9.12.24,6.18,6.18,0,0,1-2.78-2.55,11.92,11.92,0,0,1-1.41-4.34,50.6,50.6,0,0,1-.48-6.1,40.8,40.8,0,0,1,.21-5.86A11.23,11.23,0,0,1,216,8.57,6.22,6.22,0,0,1,218.67,6a10.37,10.37,0,0,1,4.44-1,10.17,10.17,0,0,1,4.48.72,6.21,6.21,0,0,1,2.78,2.44,11.2,11.2,0,0,1,1.46,4.14A41,41,0,0,1,232.35,18.18Zm-5.28.33c0-2-.16-3.54-.31-4.76a10.85,10.85,0,0,0-.69-2.87,2.62,2.62,0,0,0-1.14-1.4,3.46,3.46,0,0,0-1.72-.33,3.3,3.3,0,0,0-1.69.42A2.67,2.67,0,0,0,220.45,11a11,11,0,0,0-.53,2.91,46.68,46.68,0,0,0-.07,4.77c.05,1.92.16,3.5.32,4.74a12.54,12.54,0,0,0,.68,2.95A3,3,0,0,0,222,27.9a3.07,3.07,0,0,0,1.72.39,3.12,3.12,0,0,0,1.69-.48,3,3,0,0,0,1.07-1.57,12.75,12.75,0,0,0,.53-3C227.1,22,227.12,20.43,227.07,18.51Z" style="fill:#4b6c83"/><path d="M249.52,31c-.2.05-.49.12-.89.19l-1.24.22c-.45.08-.89.14-1.33.19s-.82.08-1.12.09a11.14,11.14,0,0,1-3.77-.48,5.3,5.3,0,0,1-2.7-2A11.32,11.32,0,0,1,236.82,25a40.87,40.87,0,0,1-.68-7,34.45,34.45,0,0,1,.39-6.95,9.15,9.15,0,0,1,1.61-4,5.25,5.25,0,0,1,2.76-1.88,15.35,15.35,0,0,1,3.82-.54,9.05,9.05,0,0,1,1,0l1.24.1c.42,0,.8.09,1.15.14l.74.15.12,4.6c-.64-.13-1.39-.25-2.27-.34a18.14,18.14,0,0,0-2.34-.11,3.34,3.34,0,0,0-1.42.32,2.13,2.13,0,0,0-.93,1.23,9.66,9.66,0,0,0-.5,2.67,45.13,45.13,0,0,0-.07,4.72c0,2,.15,3.55.29,4.74a11.72,11.72,0,0,0,.61,2.76,2.27,2.27,0,0,0,1,1.28,3.13,3.13,0,0,0,1.49.29,18,18,0,0,0,2.52-.26,19,19,0,0,0,2.06-.43Z" style="fill:#4b6c83"/><path d="M252.38,31.27l-.11-4,2.66-.07-.48-18.54-2.66.07-.11-4,10.53-.27.1,4-2.66.07L260.14,27,262.8,27l.1,4Z" style="fill:#4b6c83"/><path d="M279,30.57l-1.38-6.16-6.34.16-1.06,6.23-5.43.14,5.38-26.75,7.68-.2,6.5,26.44ZM274,7.44,272,20.07l4.64-.12Z" style="fill:#4b6c83"/><path d="M293.51,8.18l.58,22-5.21.14-.57-22-5.47.15-.12-4.6,16.14-.42L299,8Z" style="fill:#4b6c83"/><path d="M301.27,30l-.11-4,2.66-.07-.48-18.54-2.66.07-.11-4,10.52-.27.11,4-2.66.07L309,25.75l2.66-.07.1,4Z" style="fill:#4b6c83"/><path d="M332.44,15.56a51,51,0,0,1-.16,6.13,11.93,11.93,0,0,1-1.18,4.4,6.2,6.2,0,0,1-2.65,2.69,12.36,12.36,0,0,1-9.11.24,6.25,6.25,0,0,1-2.79-2.55,12.11,12.11,0,0,1-1.4-4.34,48.47,48.47,0,0,1-.49-6.1,40.8,40.8,0,0,1,.21-5.86A11.41,11.41,0,0,1,316.11,6a6.28,6.28,0,0,1,2.65-2.58,10.44,10.44,0,0,1,4.44-1,10.22,10.22,0,0,1,4.49.72,6.31,6.31,0,0,1,2.78,2.44,11.32,11.32,0,0,1,1.46,4.14A42.61,42.61,0,0,1,332.44,15.56Zm-5.27.33c-.06-2-.16-3.54-.32-4.76a11.31,11.31,0,0,0-.68-2.87A2.71,2.71,0,0,0,325,6.86a3.6,3.6,0,0,0-1.72-.34,3.47,3.47,0,0,0-1.7.43,2.66,2.66,0,0,0-1.06,1.45,11,11,0,0,0-.54,2.91q-.13,1.84-.06,4.77c.05,1.92.15,3.5.31,4.74a12,12,0,0,0,.69,2.95,3,3,0,0,0,1.14,1.51,3.09,3.09,0,0,0,1.72.39,3.18,3.18,0,0,0,1.7-.48,3,3,0,0,0,1.06-1.57,11.78,11.78,0,0,0,.53-3C327.19,19.4,327.22,17.81,327.17,15.89Z" style="fill:#4b6c83"/><path d="M347,28.79,341.39,7.57,342,28.92l-4.59.12-.7-26.59,7.56-.2,5.66,21.63-.57-21.76L353.83,2l.7,26.59Z" style="fill:#4b6c83"/><path d="M28,26.89a12,12,0,0,1-.53,4.33,5.89,5.89,0,0,1-4.39,4,15.28,15.28,0,0,1-3.37.43q-1.21,0-2.52,0c-.88,0-1.68,0-2.42,0l-2.59-.12-.69-26.6c.83-.09,1.66-.18,2.5-.25s1.46-.13,2.26-.17,1.51-.08,2.14-.1a15.66,15.66,0,0,1,3.92.32A6.4,6.4,0,0,1,24.92,9.9a4.82,4.82,0,0,1,1.5,2.2A10.89,10.89,0,0,1,27,15.36a7.7,7.7,0,0,1-.25,2.33A5,5,0,0,1,26,19.28a3.43,3.43,0,0,1-1.05,1,5.88,5.88,0,0,1-1.2.56,3.94,3.94,0,0,1,1.51.44,4.09,4.09,0,0,1,1.34,1.1,6.26,6.26,0,0,1,1,1.84A8.88,8.88,0,0,1,28,26.89Zm-6.14-11a3.47,3.47,0,0,0-.71-2.23,2.17,2.17,0,0,0-1.8-.75l-.92,0-.83.08-.8.1.17,6.15,2-.05a3,3,0,0,0,2.26-.82A3.72,3.72,0,0,0,21.83,15.84Zm.86,11.22a5.14,5.14,0,0,0-.31-1.79,2.88,2.88,0,0,0-.76-1.12,2.36,2.36,0,0,0-1.06-.58,4.15,4.15,0,0,0-1.23-.14l-2.28.06L17.24,31a7.85,7.85,0,0,1,.84,0c.25,0,.55,0,.87,0h1A2.34,2.34,0,0,0,22.16,30,5.84,5.84,0,0,0,22.69,27.06Z" style="fill:#fff"/><path d="M48,16a10.7,10.7,0,0,1-.83,5,6.1,6.1,0,0,1-2.58,2.75l5,10.78-5.89.15-4.29-9.92-1.52,0,.27,10-5.21.13L32.24,8.34c.73-.07,1.5-.15,2.31-.25S36,8,36.8,7.9s1.63-.1,2.42-.12a13.81,13.81,0,0,1,4.11.4,5.63,5.63,0,0,1,4.12,4.11A15.62,15.62,0,0,1,48,16Zm-5.28.4a7,7,0,0,0-.61-3.17,2.27,2.27,0,0,0-2.19-.9,10.16,10.16,0,0,0-1.6.16c-.27.06-.51.1-.72.13l.21,7.67,2.39-.06a2.25,2.25,0,0,0,1.87-1A4.57,4.57,0,0,0,42.67,16.39Z" style="fill:#fff"/><path d="M53.18,34.4l-.7-26.59,13.6-.36.11,4.11-8.4.22L58,18.5l7.44-.19.11,4.06-7.44.2.2,7.59,8.39-.22.11,4.11Z" style="fill:#fff"/><path d="M89.53,33.45l-7.33.19-1.83-8.88-1.66,9-7,.19-2-26.56,4.63-.12,1.62,22.5,2.4-11.39,4.33-.12,2.69,11.26.47-22.55,4.3-.11Z" style="fill:#fff"/><path d="M95.19,33.3l-.7-26.59,13.6-.36.11,4.11-8.39.22L100,17.4l7.45-.19.1,4.06-7.44.2.2,7.59,8.39-.22.11,4.11Z" style="fill:#fff"/><path d="M128.36,13.88a10.73,10.73,0,0,1-.82,5A6.09,6.09,0,0,1,125,21.61l5,10.78-5.89.15-4.29-9.92-1.52,0,.26,10-5.2.14-.7-26.59c.74-.07,1.51-.16,2.32-.26l2.25-.19c.82-.06,1.63-.1,2.41-.12a13.81,13.81,0,0,1,4.12.41,5.8,5.8,0,0,1,2.66,1.51,6,6,0,0,1,1.46,2.6A15.06,15.06,0,0,1,128.36,13.88Zm-5.27.41a7,7,0,0,0-.62-3.18,2.26,2.26,0,0,0-2.19-.89,10.12,10.12,0,0,0-1.59.15l-.72.14.2,7.67,2.4-.06a2.28,2.28,0,0,0,1.87-1A4.59,4.59,0,0,0,123.09,14.29Z" style="fill:#fff"/><path d="M146.08,24.06a11.38,11.38,0,0,1-.56,4.29,5.71,5.71,0,0,1-1.76,2.54A6.13,6.13,0,0,1,141,32.1a20.8,20.8,0,0,1-3.5.36h-1.35c-.5,0-1,0-1.49-.08s-1-.09-1.41-.15-.83-.13-1.16-.2L132,27.51c.3.07.67.14,1.09.2s.85.12,1.31.16l1.37.09q.69,0,1.26,0a4.83,4.83,0,0,0,2.81-.82,2.93,2.93,0,0,0,1-2.59,6.52,6.52,0,0,0-.26-1.74,2.79,2.79,0,0,0-.66-1.16,2.94,2.94,0,0,0-1-.7,7.27,7.27,0,0,0-1.38-.38,7.12,7.12,0,0,1-4.6-2.35,8.57,8.57,0,0,1-1.49-5.13,9.61,9.61,0,0,1,.5-3.59,5.74,5.74,0,0,1,1.68-2.4,7.16,7.16,0,0,1,2.82-1.38,16.72,16.72,0,0,1,3.84-.5h1.18c.43,0,.86,0,1.3.1l1.24.16c.39,0,.73.12,1,.18l.12,4.49c-.34-.07-.72-.13-1.17-.18l-1.37-.16c-.47-.05-.93-.08-1.39-.09s-.85,0-1.18,0a4.21,4.21,0,0,0-2.49.71,2.45,2.45,0,0,0-.82,2.11,7.23,7.23,0,0,0,.17,1.5,2.07,2.07,0,0,0,.5.94,2.65,2.65,0,0,0,.93.56,9.37,9.37,0,0,0,1.49.38,10.38,10.38,0,0,1,2.51.75,6,6,0,0,1,2,1.45,6.63,6.63,0,0,1,1.32,2.36A12.93,12.93,0,0,1,146.08,24.06Z" style="fill:#fff"/><path d="M172.46,31.28l-1.38-6.16-6.34.17-1.06,6.22-5.43.14L163.63,4.9l7.67-.2,6.51,26.44Zm-5-23.13-1.95,12.63,4.64-.12Z" style="fill:#fff"/><path d="M193.52,22.82a11.46,11.46,0,0,1-.55,4.29,5.85,5.85,0,0,1-1.76,2.54,6.18,6.18,0,0,1-2.74,1.21,23.11,23.11,0,0,1-3.51.36c-.4,0-.85,0-1.35,0s-1,0-1.48-.07-1-.09-1.41-.15-.84-.13-1.17-.2l-.12-4.52c.31.07.67.13,1.09.2s.86.12,1.32.15.91.08,1.37.1.87,0,1.25,0a4.88,4.88,0,0,0,2.81-.82,2.92,2.92,0,0,0,1-2.59A6.42,6.42,0,0,0,188,21.6a2.79,2.79,0,0,0-.66-1.16,3.13,3.13,0,0,0-1-.7,6.77,6.77,0,0,0-1.38-.38A7.19,7.19,0,0,1,180.31,17a8.57,8.57,0,0,1-1.48-5.13,9.6,9.6,0,0,1,.49-3.59A5.68,5.68,0,0,1,181,5.89a7.12,7.12,0,0,1,2.81-1.38A16.78,16.78,0,0,1,187.67,4h1.18c.43,0,.86,0,1.29.1l1.24.16a8.56,8.56,0,0,1,1,.18l.12,4.48c-.33-.06-.72-.12-1.16-.17L190,8.6c-.47,0-.94-.08-1.39-.1h-1.18a4.14,4.14,0,0,0-2.49.71,2.41,2.41,0,0,0-.82,2.11,6.6,6.6,0,0,0,.17,1.5,2.07,2.07,0,0,0,.5.94,2.48,2.48,0,0,0,.93.56,9.09,9.09,0,0,0,1.49.38,9.67,9.67,0,0,1,2.51.75,6.25,6.25,0,0,1,2,1.45A6.47,6.47,0,0,1,193,19.26,12.16,12.16,0,0,1,193.52,22.82Z" style="fill:#fff"/><path d="M209.06,22.41a11.49,11.49,0,0,1-.55,4.3,5.9,5.9,0,0,1-1.76,2.53A6.16,6.16,0,0,1,204,30.45a20.8,20.8,0,0,1-3.5.36q-.62,0-1.35,0c-.5,0-1,0-1.49-.08s-1-.09-1.41-.15-.83-.13-1.16-.2L195,25.86c.31.07.67.14,1.09.2s.86.12,1.31.16l1.37.09q.69,0,1.26,0a4.74,4.74,0,0,0,2.81-.82,2.93,2.93,0,0,0,1-2.59,6.14,6.14,0,0,0-.26-1.74,3,3,0,0,0-.65-1.16,3.07,3.07,0,0,0-1-.7,7.27,7.27,0,0,0-1.38-.38,7.12,7.12,0,0,1-4.6-2.35,8.5,8.5,0,0,1-1.48-5.13,9.43,9.43,0,0,1,.49-3.59,5.68,5.68,0,0,1,1.69-2.4,7.18,7.18,0,0,1,2.81-1.38,16.73,16.73,0,0,1,3.85-.5c.35,0,.74,0,1.18,0a11.2,11.2,0,0,1,1.29.1l1.24.15c.39.06.73.12,1,.19l.12,4.48q-.5-.1-1.17-.18l-1.37-.16c-.47,0-.93-.08-1.39-.09s-.85,0-1.18,0a4.21,4.21,0,0,0-2.49.71,2.45,2.45,0,0,0-.82,2.11,7.14,7.14,0,0,0,.18,1.5,2,2,0,0,0,.5.94,2.52,2.52,0,0,0,.92.56,8.31,8.31,0,0,0,1.5.38,10.65,10.65,0,0,1,2.51.75,6.25,6.25,0,0,1,2,1.45,6.63,6.63,0,0,1,1.32,2.36A12.93,12.93,0,0,1,209.06,22.41Z" style="fill:#fff"/><path d="M229.35,16.18a50.82,50.82,0,0,1-.17,6.13,12.13,12.13,0,0,1-1.17,4.4,6.26,6.26,0,0,1-2.65,2.69,12.39,12.39,0,0,1-9.12.24,6.18,6.18,0,0,1-2.78-2.55,11.92,11.92,0,0,1-1.41-4.34,50.6,50.6,0,0,1-.48-6.1,40.8,40.8,0,0,1,.21-5.86A11.23,11.23,0,0,1,213,6.57,6.22,6.22,0,0,1,215.67,4a10.37,10.37,0,0,1,4.44-1,10.17,10.17,0,0,1,4.48.72,6.21,6.21,0,0,1,2.78,2.44,11.2,11.2,0,0,1,1.46,4.14A41,41,0,0,1,229.35,16.18Zm-5.28.33c0-2-.16-3.54-.31-4.76a10.85,10.85,0,0,0-.69-2.87,2.62,2.62,0,0,0-1.14-1.4,3.46,3.46,0,0,0-1.72-.33,3.3,3.3,0,0,0-1.69.42A2.67,2.67,0,0,0,217.45,9a11,11,0,0,0-.53,2.91,46.68,46.68,0,0,0-.07,4.77c.05,1.92.16,3.5.32,4.74a12.54,12.54,0,0,0,.68,2.95A3,3,0,0,0,219,25.9a3.07,3.07,0,0,0,1.72.39,3.12,3.12,0,0,0,1.69-.48,3,3,0,0,0,1.07-1.57,12.75,12.75,0,0,0,.53-3C224.1,20,224.12,18.43,224.07,16.51Z" style="fill:#fff"/><path d="M246.52,29c-.2.05-.49.12-.89.19l-1.24.22c-.45.08-.89.14-1.33.19s-.82.08-1.12.09a11.14,11.14,0,0,1-3.77-.48,5.3,5.3,0,0,1-2.7-2A11.32,11.32,0,0,1,233.82,23a40.87,40.87,0,0,1-.68-7,34.45,34.45,0,0,1,.39-7,9.15,9.15,0,0,1,1.61-4,5.25,5.25,0,0,1,2.76-1.88,15.35,15.35,0,0,1,3.82-.54,9.05,9.05,0,0,1,1,0l1.24.1c.42,0,.8.09,1.15.14l.74.15.12,4.6c-.64-.13-1.39-.25-2.27-.34a18.14,18.14,0,0,0-2.34-.11,3.34,3.34,0,0,0-1.42.32A2.13,2.13,0,0,0,239,8.71a9.66,9.66,0,0,0-.5,2.67,45.13,45.13,0,0,0-.07,4.72c0,2,.15,3.55.29,4.74a11.72,11.72,0,0,0,.61,2.76,2.27,2.27,0,0,0,1,1.28,3.13,3.13,0,0,0,1.49.29,18,18,0,0,0,2.52-.26,19,19,0,0,0,2.06-.43Z" style="fill:#fff"/><path d="M249.38,29.27l-.11-4,2.66-.07-.48-18.54-2.66.07-.11-4,10.53-.27.1,4-2.66.07L257.14,25,259.8,25l.1,4Z" style="fill:#fff"/><path d="M276,28.57l-1.38-6.16-6.34.16-1.06,6.23-5.43.14,5.38-26.75,7.68-.2,6.5,26.44ZM271,5.44,269,18.07l4.64-.12Z" style="fill:#fff"/><path d="M290.51,6.18l.58,22-5.21.14-.57-22-5.47.15-.12-4.6,16.14-.42L296,6Z" style="fill:#fff"/><path d="M298.27,28l-.11-4,2.66-.07-.48-18.54-2.66.07-.11-4,10.52-.27.11,4-2.66.07L306,23.75l2.66-.07.1,4Z" style="fill:#fff"/><path d="M329.44,13.56a51,51,0,0,1-.16,6.13,11.93,11.93,0,0,1-1.18,4.4,6.2,6.2,0,0,1-2.65,2.69,12.36,12.36,0,0,1-9.11.24,6.25,6.25,0,0,1-2.79-2.55,12.11,12.11,0,0,1-1.4-4.34,48.47,48.47,0,0,1-.49-6.1,40.8,40.8,0,0,1,.21-5.86A11.41,11.41,0,0,1,313.11,4a6.28,6.28,0,0,1,2.65-2.58,10.44,10.44,0,0,1,4.44-1,10.22,10.22,0,0,1,4.49.72,6.31,6.31,0,0,1,2.78,2.44,11.32,11.32,0,0,1,1.46,4.14A42.61,42.61,0,0,1,329.44,13.56Zm-5.27.33c-.06-2-.16-3.54-.32-4.76a11.31,11.31,0,0,0-.68-2.87A2.71,2.71,0,0,0,322,4.86a3.6,3.6,0,0,0-1.72-.34,3.47,3.47,0,0,0-1.7.43,2.66,2.66,0,0,0-1.06,1.45A11,11,0,0,0,317,9.31q-.13,1.84-.06,4.77c.05,1.92.15,3.5.31,4.74a12,12,0,0,0,.69,2.95,3,3,0,0,0,1.14,1.51,3.09,3.09,0,0,0,1.72.39,3.18,3.18,0,0,0,1.7-.48,3,3,0,0,0,1.06-1.57,11.78,11.78,0,0,0,.53-3C324.19,17.4,324.22,15.81,324.17,13.89Z" style="fill:#fff"/><path d="M344,26.79,338.39,5.57,339,26.92l-4.59.12L333.66.45l7.56-.2,5.66,21.63L346.31.12,350.83,0l.7,26.59Z" style="fill:#fff"/><path d="M70.76,44.11c0,.76,0,1.48-.06,2.17a7.31,7.31,0,0,1-.37,1.83,2.79,2.79,0,0,1-.85,1.26,2.36,2.36,0,0,1-1.52.49,2.23,2.23,0,0,1-1.12-.31,1.7,1.7,0,0,1-.48-.45,1.77,1.77,0,0,1-.31-.71,2.09,2.09,0,0,1-.89.69,3.74,3.74,0,0,1-1.45.29,3.06,3.06,0,0,1-1-.12,1.93,1.93,0,0,1-.87-.54,2.92,2.92,0,0,1-.65-1.15,6.7,6.7,0,0,1-.28-2,5.81,5.81,0,0,1,.3-2.12,3,3,0,0,1,2.18-1.94,7.74,7.74,0,0,1,1.63-.19,6.25,6.25,0,0,1,1,.07c.38,0,.72.11,1,.17l.11,6.18a1,1,0,0,0,.2.55.68.68,0,0,0,.56.24.75.75,0,0,0,.62-.32,2.58,2.58,0,0,0,.35-.89A9.68,9.68,0,0,0,69.09,46c0-.54,0-1.15,0-1.83a14.41,14.41,0,0,0-.21-2.4,2.38,2.38,0,0,0-2.17-2.08,13.4,13.4,0,0,0-2.48-.14,9.3,9.3,0,0,0-2.44.31,2.75,2.75,0,0,0-1.44,1,3.8,3.8,0,0,0-.68,1.79,17.93,17.93,0,0,0-.14,2.84A18.11,18.11,0,0,0,59.75,48a3.63,3.63,0,0,0,.69,1.73,2.78,2.78,0,0,0,1.44.94,8.21,8.21,0,0,0,2.48.26c.24,0,.51,0,.82,0l.91-.09.82-.09.58-.07,0,1.42-.65.09-.82.09-.87.08-.8,0a11.38,11.38,0,0,1-3.16-.32,4.06,4.06,0,0,1-2-1.19,4.64,4.64,0,0,1-1-2.16,16.31,16.31,0,0,1-.33-3.26,15.36,15.36,0,0,1,.28-3.51,4.94,4.94,0,0,1,1.07-2.24,4.16,4.16,0,0,1,2-1.21,11.5,11.5,0,0,1,3-.39,15.63,15.63,0,0,1,3,.19,4.13,4.13,0,0,1,2,.87A3.77,3.77,0,0,1,70.35,41,11.15,11.15,0,0,1,70.76,44.11Zm-5.19-1.33a1.56,1.56,0,0,0-.32-.07l-.42,0a4.06,4.06,0,0,0-.87.12,1.55,1.55,0,0,0-.74.41,2.05,2.05,0,0,0-.49.85,4.33,4.33,0,0,0-.17,1.42,6.29,6.29,0,0,0,.13,1.3,2,2,0,0,0,.32.75,1,1,0,0,0,.47.35,2.07,2.07,0,0,0,.62.07,1.78,1.78,0,0,0,.74-.14,1.46,1.46,0,0,0,.48-.33,1.24,1.24,0,0,0,.25-.43,1.56,1.56,0,0,0,.07-.46Z" style="fill:#f2dfac"/><path d="M79.59,49.07a2.77,2.77,0,0,1-.87,2.37,4,4,0,0,1-2.44.73,9,9,0,0,1-1.46-.08,8.83,8.83,0,0,1-.95-.2l0-1.46.47.09.63.08.71.08a6.11,6.11,0,0,0,.73,0,1.48,1.48,0,0,0,.67-.14,1.29,1.29,0,0,0,.44-.35,1.35,1.35,0,0,0,.24-.48,2,2,0,0,0,.07-.53,1.82,1.82,0,0,0-.27-1.06,1.57,1.57,0,0,0-1-.46,3.79,3.79,0,0,1-2.18-.93,2.64,2.64,0,0,1-.67-1.8,3.31,3.31,0,0,1,.24-1.4,2.64,2.64,0,0,1,.69-.94,3.09,3.09,0,0,1,1.05-.55A5.08,5.08,0,0,1,77,41.88a5.52,5.52,0,0,1,1.31.11l.84.19,0,1.46-1-.22a5.26,5.26,0,0,0-1.3-.1,1.93,1.93,0,0,0-.75.14,1.24,1.24,0,0,0-.45.35,1.14,1.14,0,0,0-.2.48,3.12,3.12,0,0,0,0,.54c0,.73.45,1.16,1.3,1.27a3.62,3.62,0,0,1,2.21.95A3,3,0,0,1,79.59,49.07Z" style="fill:#f2dfac"/><path d="M84,43.4l.1,6.1a2.67,2.67,0,0,0,0,.33,1,1,0,0,0,.16.35.93.93,0,0,0,.3.29,1.07,1.07,0,0,0,.51.11,4,4,0,0,0,.78-.09c.21-.05.39-.09.54-.14l0,1.4a5.89,5.89,0,0,1-.68.17,6.77,6.77,0,0,1-1,.11,2.54,2.54,0,0,1-1-.19A1.91,1.91,0,0,1,83,51.3a2.39,2.39,0,0,1-.43-.84,4.19,4.19,0,0,1-.15-1l-.1-6-1.3,0L81,42l1.3,0,0-2.4,1.7,0,0,2.4,2.32,0,0,1.5Z" style="fill:#f2dfac"/><path d="M95.86,46.49a11.54,11.54,0,0,1-.19,2.61A4.31,4.31,0,0,1,95,50.76a2.54,2.54,0,0,1-1.18.87,5.68,5.68,0,0,1-1.64.27,4.9,4.9,0,0,1-1.64-.22,2.47,2.47,0,0,1-1.2-.83,4.21,4.21,0,0,1-.76-1.62,11.36,11.36,0,0,1-.3-2.61,6.19,6.19,0,0,1,.86-3.76,4.08,4.08,0,0,1,5.76-.1A6.1,6.1,0,0,1,95.86,46.49Zm-1.73.33A14.24,14.24,0,0,0,94,45a3.85,3.85,0,0,0-.35-1.18A1.41,1.41,0,0,0,93,43.2a2.66,2.66,0,0,0-2,0,1.4,1.4,0,0,0-.62.67,3.72,3.72,0,0,0-.31,1.19,13.76,13.76,0,0,0-.07,1.8,6.09,6.09,0,0,0,.51,2.79,1.67,1.67,0,0,0,1.61.82,1.7,1.7,0,0,0,1.59-.87A6.37,6.37,0,0,0,94.13,46.82Z" style="fill:#f2dfac"/><path d="M104.23,51.36a7.19,7.19,0,0,1-1.06.25,6.14,6.14,0,0,1-1.11.11,5.53,5.53,0,0,1-1.53-.16,2.13,2.13,0,0,1-1.11-.74,4,4,0,0,1-.69-1.61,14,14,0,0,1-.27-2.77,10.92,10.92,0,0,1,.17-2.28,4.1,4.1,0,0,1,.61-1.54,2.39,2.39,0,0,1,1.06-.88,4.29,4.29,0,0,1,1.56-.3,9.8,9.8,0,0,1,1.13.08c.42.06.78.12,1.07.19l0,1.48c-.38-.08-.73-.14-1.07-.19a9.19,9.19,0,0,0-1.26,0,1.36,1.36,0,0,0-.73.19,1.28,1.28,0,0,0-.49.64,4.12,4.12,0,0,0-.27,1.18,16.62,16.62,0,0,0-.06,1.85,11.52,11.52,0,0,0,.14,1.8,3.24,3.24,0,0,0,.34,1,1.11,1.11,0,0,0,.52.47,2.06,2.06,0,0,0,.68.11,7.7,7.7,0,0,0,1.35-.13c.35-.07.67-.14,1-.22Z" style="fill:#f2dfac"/><path d="M111.93,51.41l-2.78-4.93-.59.71.07,4.28-1.7,0-.24-14,1.7,0,.13,7.6,3-3.65,2.08,0-3.32,3.92,3.63,6.08Z" style="fill:#f2dfac"/><path d="M116.21,51.34l-.24-14,1.7,0,.08,4.74a3.28,3.28,0,0,1,1-.67,3.37,3.37,0,0,1,1.26-.25,4.38,4.38,0,0,1,1.45.18,2.09,2.09,0,0,1,.94.63,2.58,2.58,0,0,1,.52,1.09,7.79,7.79,0,0,1,.17,1.58l.12,6.6-1.7,0-.12-6.8a2.66,2.66,0,0,0-.33-1.41,1.47,1.47,0,0,0-1.32-.46,2.11,2.11,0,0,0-1.42.61,1.88,1.88,0,0,0-.41.55,1.15,1.15,0,0,0-.14.58l.12,7Z" style="fill:#f2dfac"/><path d="M133.54,45.83a11.56,11.56,0,0,1-.2,2.62,4,4,0,0,1-.69,1.65,2.51,2.51,0,0,1-1.17.87,5.73,5.73,0,0,1-3.28.06A2.52,2.52,0,0,1,127,50.2a4.41,4.41,0,0,1-.76-1.63,11.94,11.94,0,0,1-.29-2.61,6.13,6.13,0,0,1,.85-3.76,4.08,4.08,0,0,1,5.76-.1A6.12,6.12,0,0,1,133.54,45.83Zm-1.74.33a12.82,12.82,0,0,0-.13-1.8,3.59,3.59,0,0,0-.35-1.18,1.41,1.41,0,0,0-.64-.64,2.16,2.16,0,0,0-1-.18,2.24,2.24,0,0,0-1,.22,1.43,1.43,0,0,0-.62.66,3.72,3.72,0,0,0-.31,1.19,13.84,13.84,0,0,0-.07,1.8,6.45,6.45,0,0,0,.51,2.8,1.69,1.69,0,0,0,1.62.81,1.65,1.65,0,0,0,1.58-.87A6.09,6.09,0,0,0,131.8,46.16Z" style="fill:#f2dfac"/><path d="M139.43,50.83l-.51.11a3.49,3.49,0,0,1-.69.07,1.79,1.79,0,0,1-.6-.09,1.26,1.26,0,0,1-.55-.35,2,2,0,0,1-.41-.7,3.56,3.56,0,0,1-.18-1.13L136.28,37l1.7,0,.21,11.66a1.41,1.41,0,0,0,.14.73.59.59,0,0,0,.53.2,1.06,1.06,0,0,0,.31,0l.23-.06Z" style="fill:#f2dfac"/><path d="M141.83,50.89l-.18-10,1.4,0,.16.87a2.94,2.94,0,0,1,2.24-1.06A2.76,2.76,0,0,1,147,41a2.48,2.48,0,0,1,.9.89,3,3,0,0,1,2.5-1.3,2.52,2.52,0,0,1,2.18.81,4.54,4.54,0,0,1,.68,2.68l.11,6.6-1.69,0-.12-6.8a2.9,2.9,0,0,0-.3-1.43,1.19,1.19,0,0,0-1.14-.45,1.7,1.7,0,0,0-.72.18,1.86,1.86,0,0,0-.57.43,2.37,2.37,0,0,0-.36.55,1.54,1.54,0,0,0-.12.57l.13,7-1.7,0-.12-6.8a2.86,2.86,0,0,0-.3-1.42,1.19,1.19,0,0,0-1.14-.45,1.59,1.59,0,0,0-.72.17,2,2,0,0,0-.57.43,2.42,2.42,0,0,0-.36.56,1.46,1.46,0,0,0-.12.57l.13,7Z" style="fill:#f2dfac"/><path d="M163.41,44.87a14.58,14.58,0,0,1-.18,2.75,4.29,4.29,0,0,1-.69,1.8,2.7,2.7,0,0,1-1.29,1,6.23,6.23,0,0,1-2,.33h-.94c-.27,0-.51,0-.73,0L157,50.6l-.55-.07-.24-13.89,1.7,0,.08,4.74a3.12,3.12,0,0,1,2.21-.92,2.67,2.67,0,0,1,2.48,1.08A6.57,6.57,0,0,1,163.41,44.87Zm-3.54-3a2,2,0,0,0-1.36.61,2.17,2.17,0,0,0-.38.55,1.39,1.39,0,0,0-.13.58l.1,5.61a2.76,2.76,0,0,0,.54.05c.21,0,.47,0,.78,0a2.35,2.35,0,0,0,1.17-.28,1.77,1.77,0,0,0,.68-.79,4.32,4.32,0,0,0,.33-1.3,14.16,14.16,0,0,0,.07-1.81,10.84,10.84,0,0,0-.12-1.58,2.88,2.88,0,0,0-.32-1,1.1,1.1,0,0,0-.55-.52A2,2,0,0,0,159.87,41.87Z" style="fill:#f2dfac"/><path d="M167.73,46a8.64,8.64,0,0,0,.17,1.58,3.08,3.08,0,0,0,.37,1,1.1,1.1,0,0,0,.53.44,2.07,2.07,0,0,0,.68.1A10,10,0,0,0,171,49c.46-.08.84-.16,1.14-.23l0,1.44a7.92,7.92,0,0,1-1.21.25,9.08,9.08,0,0,1-1.27.11,6,6,0,0,1-1.53-.15,2.2,2.2,0,0,1-1.14-.7,3.75,3.75,0,0,1-.73-1.54,11.63,11.63,0,0,1-.28-2.68,10.48,10.48,0,0,1,.18-2.37,4.49,4.49,0,0,1,.67-1.61,2.69,2.69,0,0,1,1.12-.92,4.23,4.23,0,0,1,1.58-.31,2.74,2.74,0,0,1,2.48,1.09,5.49,5.49,0,0,1,.81,3.1l0,1.5Zm1.82-4.36a2.21,2.21,0,0,0-.82.16,1.23,1.23,0,0,0-.55.49,2.68,2.68,0,0,0-.32.91,8.75,8.75,0,0,0-.14,1.44l3.48-.06v-.54a3.74,3.74,0,0,0-.38-1.78A1.3,1.3,0,0,0,169.55,41.68Z" style="fill:#f2dfac"/><path d="M177.08,45.87a9.62,9.62,0,0,0,.18,1.59,3,3,0,0,0,.37.94,1,1,0,0,0,.53.44,1.8,1.8,0,0,0,.68.1,10,10,0,0,0,1.53-.13l1.14-.23,0,1.44a9.34,9.34,0,0,1-1.21.25c-.48.06-.91.1-1.27.11a6,6,0,0,1-1.53-.15,2.27,2.27,0,0,1-1.14-.7,3.63,3.63,0,0,1-.73-1.54,12.22,12.22,0,0,1-.29-2.69,10.88,10.88,0,0,1,.19-2.36,4.25,4.25,0,0,1,.67-1.61,2.56,2.56,0,0,1,1.12-.92,4,4,0,0,1,1.57-.31,2.73,2.73,0,0,1,2.49,1.09,5.54,5.54,0,0,1,.81,3.09l0,1.5Zm1.83-4.35a2.45,2.45,0,0,0-.82.15,1.23,1.23,0,0,0-.55.49,2.74,2.74,0,0,0-.32.92,8.73,8.73,0,0,0-.14,1.43l3.48-.06v-.54a3.69,3.69,0,0,0-.38-1.77A1.3,1.3,0,0,0,178.91,41.52Z" style="fill:#f2dfac"/><path d="M185.12,50.13l-.17-10,1.39,0,.14,1a2.84,2.84,0,0,1,.83-.86,2.25,2.25,0,0,1,1.23-.34,5.73,5.73,0,0,1,.62,0l.44.06,0,1.78-.6-.11a4.55,4.55,0,0,0-.61,0,1.56,1.56,0,0,0-.82.22,1.61,1.61,0,0,0-.53.54,2.08,2.08,0,0,0-.29.74,3.83,3.83,0,0,0-.08.81l.11,6.16Z" style="fill:#f2dfac"/><path d="M378,18.94V17.19l2-2.66a7.83,7.83,0,0,0,.57-.8,4.11,4.11,0,0,0,.31-.64,2,2,0,0,0,.12-.58c0-.2,0-.42,0-.67a1.49,1.49,0,0,0-.25-.92,1.19,1.19,0,0,0-.92-.28,4.17,4.17,0,0,0-.81.09l-.77.17V9.31l.24-.05.45-.08.55-.08.54,0a4.49,4.49,0,0,1,1.38.18,2,2,0,0,1,.87.56,2.11,2.11,0,0,1,.44.9,5.31,5.31,0,0,1,.13,1.26,7.35,7.35,0,0,1,0,.84,3.14,3.14,0,0,1-.13.68,3.55,3.55,0,0,1-.3.67,8.71,8.71,0,0,1-.54.8l-1.73,2.39h2.8v1.58Z" style="fill:#4b6c83"/><path d="M383.46,25.9c0,.85,0,1.6-.09,2.24a4.75,4.75,0,0,1-.39,1.59,2.06,2.06,0,0,1-.85,1,2.77,2.77,0,0,1-1.44.33,2.92,2.92,0,0,1-1.45-.31,2.1,2.1,0,0,1-.86-.95,5,5,0,0,1-.41-1.59,20.82,20.82,0,0,1-.11-2.24c0-.82,0-1.53.08-2.14a4.7,4.7,0,0,1,.37-1.53,2.11,2.11,0,0,1,.85-.92,3,3,0,0,1,1.47-.31,3.11,3.11,0,0,1,1.48.3,2,2,0,0,1,.85.9,4.44,4.44,0,0,1,.39,1.53C383.42,24.37,383.45,25.08,383.46,25.9ZM381.6,26c0-.73,0-1.31,0-1.76a4.73,4.73,0,0,0-.13-1,.79.79,0,0,0-.29-.49.88.88,0,0,0-.51-.13,1,1,0,0,0-.51.13.8.8,0,0,0-.28.5,5,5,0,0,0-.11,1c0,.45,0,1,0,1.76s0,1.34,0,1.79a5.88,5.88,0,0,0,.12,1.06.88.88,0,0,0,.29.51.91.91,0,0,0,.51.13,1,1,0,0,0,.51-.14.88.88,0,0,0,.28-.51,5.08,5.08,0,0,0,.12-1.06C381.6,27.32,381.6,26.72,381.6,26Z" style="fill:#4b6c83"/><path d="M378.43,42.88V41.3h1.64l0-6.46-1.77.7v-1.7l1.63-.7h2l.05,8.16h1.34v1.57Z" style="fill:#4b6c83"/><path d="M377.89,48.1a4.4,4.4,0,0,1,.22-1.52,2.44,2.44,0,0,1,.61-.95,2.24,2.24,0,0,1,.9-.51,3.93,3.93,0,0,1,1.09-.15,3.17,3.17,0,0,1,1.16.19,1.72,1.72,0,0,1,.85.72,4,4,0,0,1,.53,1.49,14.49,14.49,0,0,1,.19,2.47,12.75,12.75,0,0,1-.2,2.64,3.91,3.91,0,0,1-.61,1.56,2,2,0,0,1-1,.73,5.11,5.11,0,0,1-1.43.19h-.38l-.43,0-.4,0-.29-.06V53.24a6.16,6.16,0,0,0,.67.13,5.8,5.8,0,0,0,.88.06,1.7,1.7,0,0,0,.59-.09.77.77,0,0,0,.41-.33,2.11,2.11,0,0,0,.23-.71,10.24,10.24,0,0,0,.1-1.19,2.84,2.84,0,0,1-.59.27,2.15,2.15,0,0,1-.68.1,2.54,2.54,0,0,1-1.17-.23,1.81,1.81,0,0,1-.73-.67,2.72,2.72,0,0,1-.39-1.06A8.63,8.63,0,0,1,377.89,48.1ZM380.61,50a2.19,2.19,0,0,0,.53-.07,1.57,1.57,0,0,0,.44-.18c0-.77,0-1.38-.08-1.82a3.9,3.9,0,0,0-.18-1,.57.57,0,0,0-.28-.38,1.09,1.09,0,0,0-.42-.07.89.89,0,0,0-.38.08.57.57,0,0,0-.27.28,1.57,1.57,0,0,0-.17.53,6.58,6.58,0,0,0-.05.85,3.26,3.26,0,0,0,.2,1.33A.7.7,0,0,0,380.61,50Z" style="fill:#4b6c83"/></g></g></g></svg>