<svg xmlns="http://www.w3.org/2000/svg" viewBox="0 0 15.19 18.52"><title>icon-pin</title><g style="isolation:isolate"><g id="Layer_2" data-name="Layer 2"><g id="page1"><g style="opacity:0.24;mix-blend-mode:hard-light"><path d="M8.35,1A6.85,6.85,0,0,0,1.5,7.85c0,3.78,6.85,10.67,6.85,10.67s6.84-6.89,6.84-10.67A6.85,6.85,0,0,0,8.35,1Zm.07,9.67A3.57,3.57,0,1,1,12,7.1,3.57,3.57,0,0,1,8.42,10.67Z" style="fill:#4c6d83"/></g><path d="M6.85,0A6.85,6.85,0,0,0,0,6.85c0,3.78,6.85,10.67,6.85,10.67s6.84-6.89,6.84-10.67A6.85,6.85,0,0,0,6.85,0Zm.07,9.67A3.57,3.57,0,1,1,10.49,6.1,3.57,3.57,0,0,1,6.92,9.67Z" style="fill:#ed2024"/></g></g></g></svg>