<?xml version="1.0" encoding="utf-8"?>
<!-- Generator: Adobe Illustrator 23.0.6, SVG Export Plug-In . SVG Version: 6.00 Build 0)  -->
<svg version="1.1" id="Layer_1" xmlns="http://www.w3.org/2000/svg" xmlns:xlink="http://www.w3.org/1999/xlink" x="0px" y="0px"
	 viewBox="0 0 308.4 404.4" style="enable-background:new 0 0 308.4 404.4;" xml:space="preserve">
<style type="text/css">
	.st0{opacity:0.3;}
	.st1{opacity:0.24;}
	.st2{fill:#4C6D83;}
</style>
<title>illustration-ska-brewing</title>
<g class="st0">
	<g id="svg">
		<g class="st1">
			<path class="st2" d="M296.1,95.5h-2.5c0-0.6-0.4-0.9-0.6-1.4c0-0.5,0-0.9,0-1.4c0.1-0.5-0.2-0.8-0.3-1.3c-0.1-0.5,0-0.8,0-1.2
				c-0.1-0.9-0.3-1.7-0.6-2.5c-0.3-0.8-0.6-1.6-0.8-2.4c-0.3-0.8-0.7-1.6-1.2-2.4c-0.8-1.7-1.7-3.3-2.7-4.9
				c-0.5-0.8-0.9-1.7-1.4-2.5c-0.5-0.8-1.2-1.3-1-2.3h-0.3c0-0.8-0.7-1.4-0.6-2.3c-0.6-0.7-0.3-2.2-0.3-3.1h-1.4
				c-1.6,0.6-3,1.7-4,3.1h-0.3c-0.6-1-1.4-1.9-2.3-2.7c-0.5-0.5-0.9-1-1.4-1.4c-0.5-0.4-0.9-0.5-1.2-1h-0.5
				c-0.4-0.8-1.8-1.3-2.5-1.7c-1-0.6-1.9-1.2-2.8-1.8c-1.8-1.4-3.3-3.2-4.5-5.1c-2.1-2.8-3.3-6.2-3.4-9.8c0-0.9,0.1-1.7,0.3-2.5
				c0.1-0.4,0.2-0.8,0.3-1.2c0.1-0.4,0.5-0.9,0.6-1.3c0.3-1.7,0.9-3.3,1.7-4.8c0.6-0.9,1.2-1.8,2-2.5c0.7-0.7,1.4-1.4,2.3-2
				c1.5-1.3,3.2-2.4,4.9-3.3c1.6-0.8,3.2-1.6,4.8-2.5c0.8-0.5,1.1-0.3,0.6-1.1c-0.4-0.3-0.8-0.6-1.2-0.8c-0.8-0.5-1.6-0.8-2.4-1.2
				h-0.8V24h-2.5v-0.3h-1.2V24h-3.7v0.3h-1.4c-3.8,1.4-7.5,2.6-10.5,5.5c-0.9,0.8-1.7,1.6-2.5,2.5c-0.5,0.6-0.9,1.6-1.4,2.3
				c-0.4,0.8-0.9,1.6-1.4,2.3c-0.6,0.6-1.6,0.7-2.3,1.3c-1.3,1.2-1.5,3.1-2.4,4.5c-0.5,0.8-1.1,1.5-1.6,2.4
				c-0.2,0.4-0.3,0.7-0.6,1.2c-0.2,0.4-0.6,0.7-0.8,1.2c-1.7,3.1-3.7,5.8-4.2,9.3c0,0.2-0.2,0.4-0.3,0.7c0,0.3,0,0.4,0,0.6
				c-0.1,0.4-0.2,0.8-0.3,1.2c-0.1,0.8,0,1.5,0.1,2.3c0.1,1.6,0.5,3.1,1.3,4.5h-0.3c-0.4-1-2.4-1.7-3.3-2.3
				c-1.3-0.8-1.9-1.2-2.1-2.7c-0.4-2.3-0.9-4.6-1.7-6.8l-1.2-3.4c-0.2-1.2-0.7-2.4-1.4-3.4c-1.8-2.2-4.5-3.7-6.8-5.2h-0.6
				c-0.3-0.6-1.4-0.8-2-1.2h-1.7v-0.3h-2.3V41h-2c-1,0.3-1.9,0.7-2.8,1.2h-6.2c-1.3,0.6-2.5,1.2-3.7,1.9c-1.4,0.7-2.6,1.8-3.7,3
				c-0.3,0.5-0.4,1.3-0.7,1.8c-0.3,0.6-0.6,1.2-1,1.8c-0.6,1.2-1.4,2.4-2.1,3.5c-1,1.3-2.2,2.4-3.5,3.4c-1.2,0.7-2.4,1.2-3.7,1.7
				c-2.5,1.3-4.8,3.7-4.8,6.5c0.1,0.6-0.3,0.8-0.3,1.3c0.1,0.4,0.3,0.9,0.4,1.3c0.3,0.9,0.7,1.7,1.3,2.5h0.3
				c-0.2,1.3,2.2,1.3,0.3,2.3h-1.2v0.3h-4.5v0.3h-1.4c-0.9,0.5-1.9,0.7-2.8,1.2h-2.3c-2.9-1.4-5.9-2.7-8.8-4.1
				c-1.5-0.7-2.9-1.8-3.9-3.2c-0.5-0.6-0.7-1.3-1.2-2s-0.9-1.5-1.4-2.3c-2-2.9-4.5-5.7-6.8-8.5c-2.2-2.7-4.1-5.5-5.7-8.6h-0.3
				c0.1-0.8-1-1.7-1.4-2.4c-0.2-0.4-0.4-0.9-0.6-1.3c-0.2-0.4-0.6-0.8-0.8-1.3c-0.4-0.8-0.7-1.6-1.2-2.4c-0.4-0.7-0.5-1.6-0.8-2.4
				c-0.6-1.4-1.1-3-1.8-4.4c-0.3-0.8-0.6-1.6-0.8-2.4c-0.2-0.7-0.4-1.5-0.7-2.1c-0.7-1.4-1.2-2.9-1.8-4.4c-0.7-1.4-0.8-3.1-1.8-4.4
				c-2.2-2.9-5.8-3.7-8.8-5.5c-2.8-1.8-5.7-3.3-8.8-4.5h-2c-0.2-0.5-1.2-1.1-1.7-1.4h-2.5c-0.6,0.4-1,0.7-0.8,1.4h-0.3
				c0,0.4,0,0.8,0,1.2c0,0.3-0.1,0.6-0.2,0.9c-0.2,0.7-0.3,1.5-0.3,2.3c0,0.2,0.2,0.7,0.3,1c0.1,0.4,0.2,0.8,0.3,1.2
				c0,0.7,0.1,1.4,0.3,2.1c0.1,0.7,0.3,1.3,0.6,2c0.3,0.6,1.3,1.3,1.3,1.8c0,0.8-1.2,1.2-1.7,1.7c-0.6,0.6-1.1,1.2-1.6,1.8
				c-0.3,0.3-0.6,0.7-0.8,1.2c0,0.1-0.1,0.4-0.1,0.4c-0.1,0.3,0.2,0.3,0.1,0.6c-0.2,0.8-0.7,1.2-1.2,1.8c-0.7,1.3-1.5,2.5-2.3,3.8
				c-0.4,0.6-0.7,1.3-1,2c-0.2,0.3-0.3,0.7-0.4,1c0,0.2-0.3,0.7-0.3,0.8c-0.2,1.4,0.2,2.6-0.6,3.8c-0.9,1.4-2.4,1.9-3.8,2.8
				c-1,0.6-2.5,1.9-2.4,3.2h-0.3c-0.5,0.7-1.2,1.3-2,1.7c-0.8,0.6-1.4,1.3-2,2.1c-0.9,1.4-1.6,2.9-2.3,4.5c-0.3,0.7-0.2,1.6-0.6,2.3
				c-0.3,0.7-0.6,1.5-0.8,2.3c-0.5,1.5-1.2,3-1.7,4.5c-1,3-2.1,6-3.1,9c-0.5,1.5-0.9,3-1.4,4.5c-0.6,1.4-1,2.9-1.2,4.4h-0.3
				c0,0.7-0.1,1.4-0.3,2.1c0,0.1-0.2,0.7-0.3,0.8c-0.1,0.4-0.2,0.8-0.3,1.2c-0.2,0.7-0.2,1.3-0.3,2c-0.1,0.6-0.7,1.4-0.6,2.1v0.6
				h-0.3c0,0.4,0,0.8,0,1.2c-0.1,0.4-0.4,0.6-0.3,1.2c0,1-0.3,1.8-0.3,2.8c0,2-0.2,4.2,0,6.2c0,0.6,0.2,1,0.3,1.6
				c0.1,0.6-0.1,1.2,0,1.7c0,0.2,0.2,0.4,0.3,0.7s0,0.5,0,0.7c0.1,0.5,0.2,1,0.3,1.6h0.3v1.2h0.3c-0.1,1,0.9,1.7,1.4,2.5v0.3h0.3
				v0.3h0.4l0,0h0.6v0.3h0.3v0.3h0.6v0.3h0.6v0.3h0.6v0.3h0.6v0.3h0.8v0.3h0.8v0.3h2v0.3h7.4v-0.3h4.7v-0.3h3.4v-0.3h2.3V114h2v-0.3
				h1.8v-0.3h1.7v-0.3h1.7v-0.3h1.3v-0.3h1.7v-0.3h1.7v-0.3h1.7v-0.3h1.2c1.2,0.8,0.8,2.1,0.8,3.4c0.1,1.6,0.1,3.2-0.1,4.8
				c-0.5,1.6-0.9,3.2-1,4.8v6.8c0.1,3.3-0.6,6.6-1.8,9.6c-0.2,0.8-0.5,1.5-0.8,2.3c-0.4,0.6-0.6,1.3-1,2c-0.8,1.5-1.8,3-2.8,4.4
				c-2.3,2.9-5.7,5.2-8.5,7.5c-2.9,2.2-5.2,5.1-6.8,8.5c-1,2.7-1.5,5.6-1.4,8.5c0.1,1.5,0.5,2.9,1.2,4.2c0.6,1.6,1.6,3,3,4
				c1.4,1,3.1,1.9,2.4,3.7c-0.6,1.5-2.4,2.8-3.3,4.2c-1.5,2.4-2.6,5.1-4.1,7.5c-0.7,1.2-1.2,2.6-1.8,3.8c-0.7,1.2-1.3,2.4-1.8,3.7
				c-0.5,1.3-1.1,2.5-1.7,3.8c-0.6,1.3-0.9,2.6-1.6,3.8c-0.6,1.2-1.3,2.5-1.8,3.8c-0.1,0.3-0.2,0.7-0.3,1c-0.1,0.3-0.4,0.6-0.6,1
				c-0.2,0.4-0.2,0.6-0.3,0.8l-0.3,0.8c-0.5,1.3-1,2.6-1.7,3.8c-0.6,1.2-2,2.3-2,3.8c-0.1,1.2-0.3,2.5-0.6,3.7
				c-0.2,0.7-0.5,1.3-0.8,2c-0.2,0.6-0.4,1.2-0.6,1.8c-0.8,2.6-1.7,5.1-2.8,7.5c-1.2,2.5-2.1,5-3.4,7.5c-0.2,0.7-0.5,1.4-0.8,2.1
				c-0.2,0.7-0.5,1.3-0.8,2c-0.2,0.6-0.4,1.3-0.6,2c-0.3,0.7-0.5,1.4-0.6,2.1c-0.5,0.5-0.5,1.7-0.6,2.4c0,0.2-0.2,0.3-0.3,0.6
				c0,0.2,0,0.4,0,0.6c-0.1,0.4-0.2,0.9-0.4,1.3c-0.4,0.8-1,1.6-1.6,2.4c-0.6,0.8-1.2,1.6-1.7,2.3c-0.7,0.8-1.4,1.6-2.1,2.4
				c-0.7,0.7-1.3,1.5-1.8,2.4c-0.6,0.7-1.2,1.5-1.7,2.4c-0.3,0.8-0.7,1.5-1.2,2.3v0.3h-0.3v0.6h-0.3v0.3l-0.3,0.6v0.3h-0.2v0.3
				c-0.2,1.4-1.3,2.9-2,4.2c-0.4,0.5-0.6,1.1-0.6,1.7H51v0.6h-0.3v0.3c-0.3,0.6-0.6,1.2-0.8,1.8c-0.2,0.4-0.4,0.8-0.6,1.2
				c0,0.1-0.2,0.7-0.3,0.8c-0.3,0.6-0.6,1.3-0.8,2c-0.1,0.4-0.2,0.8-0.3,1.2c0,0.1-0.3,0.8-0.3,0.8c-0.4,2.6-1,5-1.4,7.6
				c-0.2,1.1-0.4,2.4-0.6,3.4s-0.1,2.2-0.3,3.4c-0.3,2.3-0.8,4.6-1.4,6.8c-0.4,1.2-0.7,2.5-1.2,3.7c-0.4,1.2-1.2,1.9-1.2,3.1
				c-0.1,1.3-0.3,2.5-0.8,3.7c-0.2,0.6-0.5,1.2-0.8,1.7c-0.3,0.5-0.3,1.2-0.6,1.7c-1.1,2.2-2,4.5-2.8,6.8c-0.2,0.7-0.6,1.3-0.8,2
				c-0.2,0.5-0.1,0.9-0.3,1.4c-0.2,0.5-0.4,1.1-0.6,1.7c0,0.3,0,0.6,0,0.8s-0.2,0.6-0.3,0.8c-0.1,1.2,0,2.5,0.3,3.7
				c0.2,1.1,0.6,2.1,1.2,3.1c0.5,1-0.1,1-0.8,1.7c-0.6,0.5-1,1.2-1.3,1.9c-0.4,1-0.6,2.1-0.6,3.3h-0.8v-0.3h-2.3v0.3h-0.3
				c-0.5,0.8-0.8,1.6-1,2.5c-0.1,0.4-0.2,0.8-0.1,1.3c0,0.3,0.5,0.8,0.6,1.2c0.2,1-0.3,1.9-1.2,2.4c-0.9,0.6-1.7,1-2.5,1.7
				c-1.6,1.1-2.9,2.5-4,4.1c-0.5,0.7-0.9,1.5-1.2,2.3c-0.2,0.4-0.4,0.8-0.6,1.2c0,0.2,0,0.4,0,0.6c0,0.2-0.3,0.8-0.3,0.6
				c-0.6,2.9-1,5.9-1.2,8.9c-0.1,1.5,0,2.9,0.3,4.4c0.3,0.8,0.2,1.7,0.6,2.4s0.8,1.4,1.2,2.1c1.6,3.5,4.8,4.9,8.2,6.6h1.2v0.3h1.6
				v0.3h1.7v-0.3h3.1v-0.3h0.6v0.3h2.3v-0.3H40c3.7-1.8,7.4-3,10.5-5.8c3.1-2.8,4.8-5.4,4.8-9.3c0-1.6-0.3-3-0.3-4.7v-2.4
				c0-0.8,0.2-1.6,0.6-2.3c0.3-0.7,0.1-0.6,0.8-0.9c0.4-0.2,0.7-0.4,1-0.6c0.7-0.6,1.1-1.4,1.3-2.3c0-1.6,0.2-3.2,0.6-4.7
				c0.2-0.8,0.4-1.6,0.7-2.4c0.4-0.7,0.8-1.5,1-2.3c0.3-0.8,0.5-1.5,0.6-2.4v-2.1c-0.1-1.2,2.6-2.7,3.1-3.8c0.7-1.3,1.2-2.6,1.7-4
				c0.8-2.5,1.4-5.1,2.3-7.6c0.7-2.3,1.5-4.6,2.5-6.8c0.2-0.3,0.1-0.8,0.3-1.2c0.2-0.4,0.4-0.5,0.6-0.8c0.3-0.5,0.3-1.2,0.6-1.7
				c0.5-1.1,1.2-2.1,1.7-3.1c0.7-1.3,1.4-2.5,2.3-3.7c0.7-1,1.3-2.1,2-3.1c0.8-1.3,1.7-2.4,2.5-3.7c0.3-0.6,0.7-1.1,1.2-1.6
				c0.5-0.5,1.2-1,1.7-1.6c0.8-1,1.5-2.2,2-3.4c0.3-0.6,0.6-1.2,0.8-1.7c0.3-0.5,0.3-1.2,0.6-1.7c1.2-2.3,2.3-4.5,3.4-6.8
				c1.1-2.3,2-4.5,3.1-6.8c0.6-1.3,1.4-2.4,2-3.7c0.6-1,1.1-2.1,1.4-3.3h0.3c0,0.6-0.1,1.2-0.3,1.8c0,0.3,0,0.6,0,0.8
				s-0.2,0.6-0.3,0.8c-0.1,0.6,0.1,1.2,0,1.8c-0.1,0.6-0.2,1.1-0.3,1.7c-0.1,1.6,0,3.2,0.3,4.8c0.4,1.6,1,3.2,1.7,4.7
				c1.1,1.8,2.5,3.5,4.2,4.7c1.5,1,3.1,1.8,4.8,2.4h1.4l2.3,0.8h1.7v0.3h2.8v0.3h4.5v0.3h2v0.3h1.4c1.4,0.5,2.8,0.9,4.2,1.4h1.2
				c1.3,0.5,3.1,0.8,2.5,2.7c-0.2,0.4-0.5,0.8-0.8,1.2c-0.2,0.3-0.6,0.6-0.8,0.8c-0.6,0.6-1.3,1.3-2,1.8c-1.3,1.1-2.6,2.4-3.7,3.8
				c-0.6,0.6-1.2,1.3-1.7,2c-0.3,0.4-0.9,1.3-0.8,1.8h-0.3v0.6h-0.3c-0.2,1-0.6,2-1.2,2.8c-0.4,0.9-0.7,1.9-0.8,2.8
				c-0.2,1.9-0.3,3.8-0.3,5.7c-0.2,2,0.1,4,0.8,5.8c0.6,1,1.5,1.8,2.5,2.3c1,0.4,1.9,1,2.8,1.6h0.8v0.3h0.8l1.2,0.6h1.4v0.3h7.1
				v-0.3h1.4l0.6-0.6h1.4v-0.3h1.4v0.3h1.4c1.6,0.8,3.3,1.2,4.8,2h1.4v0.3h1.4v0.3h2.5v0.3h5.7v-0.3h2V352h1.4v-0.3h0.8
				c1.5-0.6,3.5-0.9,4.8-2h0.6v-0.3h0.6c1.1-0.7,2.2-1.3,3.4-1.8c1.1-0.6,2.1-1.5,2.8-2.5c0.4-0.5,0.7-1,1-1.6
				c0.3-0.5,0.5-1,0.7-1.6c0.2-1,0.1-2,0.3-3.1c0.1-0.6,0.4-1,0.3-1.7c0-0.2-0.2-0.4-0.3-0.7c0-0.3,0-0.5,0-0.7
				c-0.1-1.2-0.5-2.3-1.2-3.3c-1.5-2.2-3.4-3-5.9-4h-3.7v-0.3h-2.3v-0.3h-1.4l-5.1-2.5c-1-0.5-1.4-0.9-1-2c0.4-0.8,1-1.6,1.6-2.4
				c1.1-1.9,2.5-3.5,4.1-4.9c1.5-1,3.2-1.8,4.9-2.3h3.7c1.4,0.5,2.8,0.9,4.2,1.4h1.7v0.3h3.1l0.8,0.6h1.7l0.8-0.6h1.4v-0.3h3.4
				c1.5,0.6,2.9,1.3,4.2,2.3h0.6v0.3h4v-0.4h3.7c1.5,0.6,2.9,1.3,4.2,2.1c1.4,1,2.7,2,4,3.1c2.5,2.2,5.3,4,8.2,5.5h1.7v0.3h1.4v-0.3
				h1.4c1.1-0.5,2.1-1.2,3.1-1.8c1-0.6,1.6-1.7,1.4-2.8c0-0.5,0-1,0-1.6c-0.1-0.5-0.3-1.1-0.6-1.6c-0.2-0.5-0.2-1-0.4-1.6
				c-0.2-0.4-0.4-0.9-0.4-1.4c-0.3-0.3-0.3-0.8-0.4-1.2c-0.2-0.4-0.4-0.8-0.4-1.2c-0.2-0.5-0.6-0.9-0.6-1.4h-0.3
				c-0.1-0.5-0.3-1-0.6-1.4v-0.3h-0.3v-0.4h-0.3v-0.3c-0.2-0.2-0.3-0.5-0.3-0.8H221c-1.6-3.8-4.3-7-7.8-9.3c-1.7-1-3.7-1.2-5.1-2.6
				c-0.7-0.6-1.2-1.4-1.3-2.4c0-0.4,0-0.9-0.1-1.3c-0.2-0.4-0.4-0.8-0.7-1.2v-0.3h-0.3c-0.9-1.4-2.1-2.5-3.4-3.5
				c-1.2-1.1-2.4-2-3.7-3h-0.3v-0.3h-0.6c-0.5-0.4-1.2-0.6-1.4-1.2h1.7c0.3-0.7,1.3-0.9,1.8-1.4c0.5-0.5,1.3-1.3,1.3-2h0.3
				c0-0.4,0.1-0.8,0.3-1.2c0.1-0.4,0.2-0.7,0.3-1.2c0.2-0.7,0.3-1.5,0.3-2.3h0.3c0-0.8-0.1-1.6-0.3-2.4c-0.2-0.9-0.8-1.8-1.6-2.4
				c-0.4-0.3-1-0.5-1.3-1c-0.2-0.2-0.2-0.9-0.3-1.2c-0.4-0.8-0.9-1.6-1.6-2.4c-0.8-0.8-1.6-1.6-2.3-2.5c-0.2-0.4-0.1-0.7,0-1.2
				s0.1-0.9,0.1-1.3c0.1-0.4,0.2-0.8,0.3-1.2c0-0.4,0-0.8,0-1.3c0.1-0.4,0.2-0.8,0.3-1.2c0-0.4,0-0.8,0-1.2v-0.3
				c0-1.3-0.2-2.7-0.4-4c-0.1-0.7-0.2-1.4-0.4-2.1c-0.2-0.5-0.2-1.4-0.6-1.8c-0.1-0.8-0.4-1.5-0.8-2.1c-0.3-0.7-0.4-1.4-0.7-2.1
				c-0.6-1.4-1.1-2.9-1.7-4.2c-1.3-2.9-2.7-5.7-4.2-8.5c-1.8-2.7-3.7-5.2-5.8-7.6c-1.1-1.3-2.2-2.6-3.4-3.8
				c-1.2-1.2-2.3-2.4-3.4-3.7c-0.4-0.6-0.7-1.4-1.2-2c-0.2-0.3-0.8-0.5-1-0.8c-0.2-0.3-0.1-0.4-0.1-0.8c-0.2-1.3-0.3-2.5-0.3-3.8
				c0-0.8,0.3-1.2,0.3-2c-0.1-0.6-0.2-1.2-0.3-1.8c-0.1-0.7-0.2-1.3-0.4-2c-0.1-0.6-0.2-1.2-0.4-1.8c-0.4-1.2-1-2.4-1.4-3.7
				c-0.2-0.7-0.6-1.3-0.8-2c-0.2-0.6-0.4-1.3-0.7-1.8c-0.4-0.6-0.7-1.3-1-2c-0.4-0.6-0.6-1.2-0.8-1.8c-0.1-1.3-0.5-2.6-1-3.8
				c-0.4-0.7-0.8-1.3-1.2-2c-0.5-0.6-0.9-1.2-1.3-1.8c-0.5-1.2-0.2-2.6,0.6-3.7c0.7-1.4,1.6-2.7,2.7-3.8c1.2-1.1,2.5-2,3.8-2.8h0.3
				c0.4,0.7,0.9,0.8,1.4,1.3c0.5,0.4,1.2,1.2,1.7,1.7c0.5,0.6,1.1,1.2,1.7,1.7c0.6,0.3,1,0.8,1.4,1.3h0.6c0.6,1.3,2.9,1.6,4.1,2.2
				c1.4,0.7,2.9,1.2,4.4,1.8h1.4v0.5h3.7V184h1.4c1.4-0.6,2.7-1.3,4-2.1c1.3-0.7,2.6-1.3,4-1.8h1.4c0.3,0.7,0.6,1.4,0.8,2.1
				c0.1,0.4,0.2,0.8,0.3,1.2c0,0.2,0.3,0.8,0.3,0.8c0.3,1.5,1,3,2,4.2c1,1.4,1.8,2.7,3.7,3.2c1.2,0.3,3.4,0.6,4,1.8h0.3v0.3h5.1
				v-0.3h1.4c2.7-1.3,4.9-3.5,6.2-6.2c0.2-0.6,0.4-1.3,0.6-1.8c0.2-0.6,0.4-1.2,0.6-1.7c0.4-1.1,0.6-2.3,0.6-3.5v-3c0-0.5,0-1,0-1.6
				c-0.1-0.5-0.4-0.8-0.3-1.4c-0.2-0.8-0.4-1.6-0.8-2.4c-0.3-0.8-0.5-1.6-0.7-2.4c-0.4-1.6-0.9-3.2-1.2-4.8
				c-0.5-2.8-0.7-5.7-0.7-8.6c-0.1-0.8,0.1-1.6,0.6-2.3c0.6-0.7,1.4-0.3,1.4-1.4s-1-1.1-1.7-1.7c-0.6-0.6-1-1.3-1.4-2
				c-0.9-1.4-1.7-2.9-2.4-4.4c-0.7-1.3-1.1-2.8-1-4.2c0.3-1.8,1.4-3,2.5-4.4c1.1-1.4,1.3-3.1,2.8-4.1h0.6c2.7,1.4,5.4,2.6,8.2,3.7
				h1.4v0.3h6.5v-0.3h1.4c1.2-0.6,2.6-0.9,3.8-1.5c1.3-0.6,2.6-1.4,3.8-2.2h0.3c1.3-1,2.6-2,3.7-3.3c1.2-1,2.2-2.2,3.1-3.5h0.8
				c1.5,1.1,3.1,2,4.8,2.7c1.6,0.7,3.2,1.2,4.8,1.8h1.7v0.3h2.8v-0.3h1.7c1.6-0.6,3.1-1.2,4.7-1.9c0.8-0.4,1.6-0.8,2.4-1.3
				c0.6-0.4,1.6-0.6,2-1.3h0.6c0.4-0.8,1.8-1.5,2.5-2.1c0.8-0.7,1.6-1.5,2.3-2.3c0.8-1,1.7-1.7,2.4-2.7c0.6-0.8,1.1-1.7,1.6-2.5
				c0.5-0.8,1.6-2.4,1.4-3.4h0.3c-0.3-1.2,1.2-2.4,0.8-3.7c0.3-2,0.7-4.1,1-6.2c0.1-1.1,0.4-2.2,0.7-3.3
				C296.8,97.4,297.4,96.4,296.1,95.5z M107.6,79.9c0.1-0.8,0.7-1.5,0.8-2.3c0.2-1.6,0.6-2.9,0.8-4.5c0.1-0.7,0.7-1.6,0.8-2.3
				c0.1-0.8,0.3-1.5,0.6-2.3c0.2-0.7,0.4-1.5,0.6-2.3v-0.6c-0.1-0.2,0-0.5,0.3-0.6c0,0,0,0,0,0v-0.6c-0.1-0.2,0-0.5,0.3-0.6
				c0,0,0,0,0,0v-0.6c-0.1-0.2,0-0.5,0.3-0.6c0,0,0,0,0,0v-0.6c-0.1-0.2,0-0.5,0.3-0.6c0,0,0,0,0,0c0-0.7-0.7-1.5-0.8-2.3
				c0-0.4,0-0.8,0-1.2c0-0.4,0.1-0.8,0.3-1.2c0.1-0.8,0.2-1.4,0.3-2.3c0.3-0.2,0.4-0.7,0.2-1c-0.1-0.1-0.1-0.1-0.2-0.2
				c-0.2-0.4-0.3-0.8-0.3-1.2c0.1-0.9,1.1-1.4,1.7-2c1-0.9,3.2-2.9,2.8-4.4h0.3c1.5,0.7,3,1.5,4.5,2.1c1.6,0.6,3.3,0.8,4.2,2.3
				c0.4,0.7,0.8,1.5,1.2,2.3c0.3,0.6,0.6,1.3,0.8,2c0.4,1.6,1,3.1,1.6,4.7c0.7,1.5,1.2,3,1.7,4.5c0.3,0.7,0.7,1.3,1.2,2
				c0.3,0.7,0.6,1.5,0.8,2.3c0.3,0.8,0.6,1.5,0.8,2.3c0,0.1,0.6,1,0.6,1.2c-0.1,0.5-0.8,0.6-1.2,0.8c-1.6,0.7-3.1,1.6-4.5,2.5h-0.6
				c-1.8,3.1-6.3,3.9-9.3,5.1h-1.4v0.3h-1.4v0.3h-1.7v0.3h-1.7v0.3h-1.7v0.3H109v0.3h-0.3C107.8,81.2,107.4,80.9,107.6,79.9z
				 M249.7,90.5h-0.8v-0.3h-1.4v-0.3h-4v-0.3h-1.4v0.3h-2.8v0.3h-1.2v0.3h-5.9v-0.3h-1.4v-0.3h-3.7c0-3.3,2.6-5.4,4-8.2v-0.3h0.3
				v-0.6h0.4v-0.8h0.3c-0.2-1.5,3.2-1.9,4.2-2.2c1-0.3,4.5-1.4,4.2-2.9h0.3c-0.1-0.4,0-0.9,0.3-1.2v-0.6h0.3c-0.2,1,1.3,1.9,2,2.4
				c0.9,0.7,1.8,1.4,2.7,2.1c1.9,1.3,3.6,2.8,5.2,4.4c0.7,0.7,2.2,1.7,2.5,2.7c0.3,0.7,0,0.7-0.3,1.4c-0.2,0.4-0.3,0.8-0.3,1.3
				c0,0.9,0.2,1.8,0.6,2.7c0.2,0.8,0.3,1.7,0.3,2.5h-0.6C252.9,91.6,250.8,91,249.7,90.5z M97.4,286.1h0.3v0.3h-0.3V286.1z
				 M191.3,285.5h1.2c-0.6,0.6-1.4,0.6-2,1.2h-1.7v0.3h-1.4c-1.3,1.1-3,1.5-4.2,2.7c-0.6,0.6-1,1.3-1.4,2c-0.6,0.7-1.2,1.3-2,1.8h-2
				v0.3h-0.8c-1-1.1,1-2.6,1.4-3.5c0.6-1.2,1.2-2.4,2-3.5h0.3v-0.6h0.3v-0.3h0.2c0.2-1.2,1.4-2.5,2-3.7h1.4
				C186.5,283.6,188.8,284.8,191.3,285.5L191.3,285.5z M148.1,278.1c0.1,0.1,0.2,0.1,0.3,0.2c0,0-0.1,0-0.1,0.2
				c0,0.3-0.1,0.5-0.3,0.7c-0.6,0.9-1.1,1.9-1.7,2.8H146c-0.2,0.7-0.4,1.3-0.8,1.8c-0.4,0.6-0.8,1.2-1.2,1.8h-0.6
				c-0.9-0.9-2.6-1.2-3.7-1.7h-0.8v-0.3h-1.2v-0.3h-2.5v-0.3h-1.7v0.3h-2.5v0.3h-1.4v0.3h-0.6c0.4-2.5,2.9-3.4,5.1-4.2h1.7v-0.3h1.4
				v-0.3h1.6l1.2-0.6h1.4v-0.3h1.4l1.2-0.6h1.4v-0.3h1.4C147.2,277.7,147.6,277.9,148.1,278.1z M149.9,252.8
				c0.5,0.7,0.9,1.4,1.2,2.3c0.2,0.7,0.4,0.6-0.1,1.3c-0.3,0.4-0.7,0.7-1.2,0.9c-0.8,0.4-1.6,0.7-2.4,1.1h-2v0.3h-1.7
				c0.6-1.4,1-2.8,1.7-4.1c0.6-1.3,1.5-2.7,2.3-4.1h0.3C148.6,251.3,149.3,252.1,149.9,252.8L149.9,252.8z M199.1,115
				c-0.4-0.7-1.2-1-1.7-1.6c-0.6-0.5-1.1-1.1-1.4-1.8h-0.3c-0.5-0.8-0.7-1.7-0.6-2.5h0.6c0.7,0.5,1.5,1,2.4,1.3
				c0.6,0.3,1.8,0.6,2.1,1.2h0.3c0.9,0.7-1.2,2.6-1.2,3.4L199.1,115z M205.3,109.8c0.2,0.6,0.7,1.2,0.6,1.8h-1.7
				c-0.6-0.7-1-1.6-1.2-2.5c0.3-0.4,0.3-0.8,0.6-1.2h0.8C204.8,108.5,205.1,109.2,205.3,109.8L205.3,109.8z"/>
		</g>
		
			<image style="overflow:visible;enable-background:new    ;" width="1285" height="1685" xlink:href="CE260E1AEAD8AF7B.png"  transform="matrix(0.2827 0 0 0.2827 -27.4153 -35.9493)">
		</image>
	</g>
</g>
</svg>
