<svg xmlns="http://www.w3.org/2000/svg" viewBox="0 0 258.87 137.23"><g data-name="Layer 2"><rect x="4.04" y="7.16" width="252.79" height="124.91" rx="17" transform="rotate(-2.73 130.401 69.663)" fill="#395468"/><rect x="2.04" y="5.16" width="252.79" height="124.91" rx="17" transform="rotate(-2.73 128.558 67.73)" fill="#4b6c83"/><g opacity=".9" fill="#fff"><path d="M26.78 49.21a5.29 5.29 0 01-2.12.49 3.78 3.78 0 01-4.18-3.9 4 4 0 014-4.44 4.35 4.35 0 011.94.27l-.21.86a3.91 3.91 0 00-1.65-.26 3 3 0 00-3 3.48 2.94 2.94 0 003.26 3.1 4.07 4.07 0 001.68-.42zM31.14 49.27l-.14-.73a2.17 2.17 0 01-1.73 1 1.66 1.66 0 01-1.86-1.58c-.06-1.4 1.15-2.23 3.39-2.33v-.11a1.19 1.19 0 00-1.38-1.28 2.88 2.88 0 00-1.49.5l-.29-.74a3.59 3.59 0 011.88-.61c1.77-.08 2.26 1.11 2.31 2.27l.11 2.17a7.82 7.82 0 00.16 1.38zm-.29-3c-1.16 0-2.45.29-2.4 1.42a.94.94 0 001 1 1.45 1.45 0 001.36-1 1 1 0 000-.34zM33.46 44.92c0-.6-.06-1.09-.12-1.57h.93l.11.95a2.14 2.14 0 011.87-1.18c.8 0 2.07.38 2.16 2.37l.17 3.46-1.04.05-.16-3.34c0-.93-.43-1.7-1.42-1.65a1.5 1.5 0 00-1.36 1.15 1.48 1.48 0 00-.05.49l.17 3.49h-1.06zM40.06 44.6c0-.6-.06-1.09-.12-1.56h.94l.1 1a2.13 2.13 0 011.86-1.19c.8 0 2.07.39 2.17 2.37l.16 3.47h-1.05L44 45.3c-.05-.93-.43-1.69-1.43-1.65a1.51 1.51 0 00-1.37 1.15 1.93 1.93 0 00-.05.5l.17 3.48h-1zM47.33 45.78a1.86 1.86 0 002.08 1.92 3.76 3.76 0 001.59-.38l.22.75a4.72 4.72 0 01-1.91.45 2.69 2.69 0 01-3-2.79c-.09-1.75.88-3.17 2.57-3.25a2.45 2.45 0 012.52 2.61 3.66 3.66 0 010 .5zm3.05-.9a1.5 1.5 0 00-1.54-1.64A1.73 1.73 0 0047.31 45zM57.43 39.49l.33 7c0 .51.07 1.1.12 1.49h-.94l-.1-1a2.16 2.16 0 01-1.93 1.24c-1.4.06-2.53-1.07-2.62-2.83-.1-1.93 1-3.17 2.46-3.24a2 2 0 011.79.8l-.17-3.46zm-.81 5.12a2.22 2.22 0 00-.07-.45A1.57 1.57 0 0055 43c-1.09.06-1.69 1.05-1.63 2.33s.67 2.11 1.81 2.06a1.59 1.59 0 001.49-1.33 1.74 1.74 0 000-.46zM67.14 44.6a2.83 2.83 0 01-2.74 3.21A2.75 2.75 0 0161.48 45a2.83 2.83 0 012.73-3.21 2.74 2.74 0 012.93 2.81zm-4.6.28c.06 1.27.84 2.19 1.87 2.14s1.71-1 1.65-2.34c0-1-.59-2.2-1.84-2.14s-1.73 1.23-1.68 2.34zM68.38 43.49c0-.68-.08-1.27-.14-1.8h.92l.09 1.14a1.75 1.75 0 011.55-1.35 1 1 0 01.3 0v1a1.32 1.32 0 00-.36 0 1.48 1.48 0 00-1.35 1.42 3.7 3.7 0 000 .49l.15 3.09h-1zM74.88 47.18v-1.5l-.34-7 1-.05.17 3.65a2.18 2.18 0 011.93-1.16c1.49-.12 2.56 1.06 2.63 2.88.1 2.07-1.15 3.16-2.45 3.22a2.07 2.07 0 01-2-1v1zm1-2.38a2.26 2.26 0 00.07.39 1.62 1.62 0 001.64 1.15c1.1-.05 1.72-1 1.65-2.31 0-1.16-.7-2.13-1.83-2.07a1.68 1.68 0 00-1.54 1.37 1.85 1.85 0 000 .43zM86.81 43.66a2.83 2.83 0 01-2.74 3.21A2.75 2.75 0 0181.15 44a2.82 2.82 0 012.72-3.21 2.76 2.76 0 012.94 2.87zm-4.6.28c.06 1.27.84 2.19 1.87 2.14s1.71-1 1.65-2.33c0-1-.59-2.21-1.84-2.15s-1.73 1.23-1.68 2.34zM89.15 39l.08 1.67 1.51-.08v.81l-1.51.07.14 3.12c0 .72.26 1.12.85 1.09a2.38 2.38 0 00.61-.1l.08.79a2.67 2.67 0 01-.93.19 1.43 1.43 0 01-1.15-.39 2.12 2.12 0 01-.48-1.49l-.15-3.16h-.9v-.8l.9-.05-.07-1.39zM93.07 38.83l.08 1.67 1.51-.07v.8l-1.52.07.15 3.13c0 .72.26 1.11.85 1.09a2.31 2.31 0 00.61-.11l.08.79a2.46 2.46 0 01-.93.19 1.43 1.43 0 01-1.11-.39 2.09 2.09 0 01-.48-1.49l-.15-3.16h-.9v-.8h.9l-.07-1.39zM95.67 37.66h1l.41 8.51-1.06.05zM99.31 43.3a1.86 1.86 0 002.09 1.92 3.84 3.84 0 001.59-.38l.21.75a4.55 4.55 0 01-1.91.45 2.7 2.7 0 01-3-2.79c-.08-1.74.88-3.17 2.57-3.25a2.46 2.46 0 012.53 2.61v.5zm3.06-.9a1.5 1.5 0 00-1.55-1.64 1.75 1.75 0 00-1.53 1.79zM109.41 37l.34 7c0 .51.06 1.1.12 1.49l-1 .05-.1-1a2.15 2.15 0 01-1.92 1.24 2.65 2.65 0 01-2.59-2.78c-.11-1.93 1-3.17 2.45-3.24a1.94 1.94 0 011.79.8l-.16-3.46zm-.81 5.12a2.24 2.24 0 00-.07-.44 1.55 1.55 0 00-1.53-1.14c-1.09.05-1.69 1-1.63 2.32s.68 2.12 1.82 2.06a1.58 1.58 0 001.48-1.33 1.7 1.7 0 000-.46zM114.05 45.31l-.38-8.07 1.13-.06 2.79 4a22.13 22.13 0 011.57 2.55c-.14-1.08-.21-2.06-.27-3.32l-.14-3.41h1l.38 8.07h-1l-2.76-4a25.48 25.48 0 01-1.64-2.62c.1 1 .18 2 .24 3.33l.16 3.45zM122.79 37.45a.65.65 0 01-1.3.06.64.64 0 01.63-.69.63.63 0 01.67.63zm-.79 7.49l-.28-5.8h1l.28 5.8zM125.64 37.28l.08 1.67 1.51-.08v.81l-1.51.07.15 3.12c0 .72.26 1.12.85 1.09a2.29 2.29 0 00.6-.1l.09.79a2.67 2.67 0 01-.93.19 1.47 1.47 0 01-1.16-.39 2.22 2.22 0 01-.48-1.49l-.15-3.16h-.9V39h.89l-.06-1.39zM128.46 40.63c0-.68-.07-1.27-.13-1.81h.92l.09 1.13a1.74 1.74 0 011.54-1.35 1.32 1.32 0 01.3 0l.05 1a1.37 1.37 0 00-.36 0 1.5 1.5 0 00-1.3 1.4 2.68 2.68 0 000 .5l.14 3.09h-1zM137.51 41.24a2.85 2.85 0 01-2.74 3.22 2.76 2.76 0 01-2.92-2.85 2.84 2.84 0 012.72-3.22 2.76 2.76 0 012.94 2.85zm-4.6.28c.06 1.27.84 2.19 1.87 2.14s1.71-1 1.65-2.33c-.05-1-.59-2.21-1.84-2.15s-1.73 1.24-1.68 2.34zM141.38 44v-1.5l-.34-7h1l.18 3.64a2.18 2.18 0 011.93-1.16c1.44-.07 2.51 1.08 2.58 2.85.1 2.07-1.16 3.16-2.45 3.22a2.06 2.06 0 01-2-1v1zm1-2.38a2 2 0 00.06.38 1.62 1.62 0 001.64 1.16c1.11-.05 1.72-1 1.66-2.31-.05-1.16-.7-2.13-1.83-2.07a1.66 1.66 0 00-1.54 1.37 1.8 1.8 0 000 .43zM148.66 41a1.86 1.86 0 002.08 1.92 3.76 3.76 0 001.59-.38l.22.75a4.94 4.94 0 01-1.91.45 2.7 2.7 0 01-3-2.79c-.09-1.75.88-3.17 2.57-3.25a2.45 2.45 0 012.52 2.61 3.45 3.45 0 010 .49zm3.05-.9a1.51 1.51 0 00-1.54-1.65 1.76 1.76 0 00-1.54 1.8zM154.61 40.66a1.86 1.86 0 002.09 1.92 3.86 3.86 0 001.59-.37l.22.74a4.61 4.61 0 01-1.92.45 2.69 2.69 0 01-3-2.78c-.08-1.75.88-3.18 2.57-3.26A2.46 2.46 0 01158.7 40v.49zm3.06-.9a1.5 1.5 0 00-1.54-1.64 1.75 1.75 0 00-1.54 1.79zM159.92 39.13c0-.69-.07-1.27-.13-1.81h.92l.09 1.13a1.76 1.76 0 011.54-1.35 1.42 1.42 0 01.31 0v1a1.34 1.34 0 00-.36 0 1.5 1.5 0 00-1.29 1.38 3.94 3.94 0 000 .5l.15 3.09h-1zM167.3 35.33a.62.62 0 01-.64.68.63.63 0 01-.67-.62.65.65 0 01.63-.69.63.63 0 01.68.63zm-.82 7.48L166.2 37h1.06l.27 5.8zM169 41.61a2.7 2.7 0 001.41.35c.77 0 1.11-.43 1.08-.91s-.33-.77-1.13-1c-1.06-.32-1.57-.87-1.61-1.57a1.79 1.79 0 011.92-1.79 2.88 2.88 0 011.45.29l-.23.78a2.25 2.25 0 00-1.2-.28c-.63 0-1 .4-.94.84s.38.68 1.15.93c1 .33 1.57.81 1.61 1.67 0 1-.71 1.78-2.09 1.84a3.34 3.34 0 01-1.65-.31zM176.23 38.11c0-.6-.07-1.09-.13-1.57h.92l.1.93a2 2 0 011.77-1.15 1.72 1.72 0 011.7 1.08 2.63 2.63 0 01.61-.79 2 2 0 011.27-.46c.76 0 1.93.41 2 2.42l.17 3.42h-1l-.16-3.28c-.05-1.11-.5-1.76-1.35-1.72A1.34 1.34 0 00181 38a1.49 1.49 0 00-.06.53l.17 3.59-1 .05-.17-3.48c0-.92-.48-1.57-1.29-1.53a1.44 1.44 0 00-1.25 1.11 1.49 1.49 0 00-.06.52l.17 3.5-1 .05zM186.83 39.13a1.87 1.87 0 002.09 1.92 3.84 3.84 0 001.59-.38l.22.75a5 5 0 01-1.92.45 2.71 2.71 0 01-3-2.79c-.08-1.75.88-3.17 2.57-3.26a2.46 2.46 0 012.53 2.62v.49zm3.06-.9a1.51 1.51 0 00-1.54-1.65 1.75 1.75 0 00-1.54 1.79zM195.54 41.43l-.12-.73a2.17 2.17 0 01-1.73.95 1.66 1.66 0 01-1.86-1.58c-.06-1.4 1.15-2.23 3.39-2.32v-.12a1.19 1.19 0 00-1.38-1.28 2.88 2.88 0 00-1.49.5l-.27-.68a3.59 3.59 0 011.88-.61c1.77-.08 2.26 1.11 2.32 2.27l.1 2.17a7.82 7.82 0 00.16 1.38zm-.29-3c-1.15 0-2.45.29-2.4 1.42a1 1 0 001 1 1.45 1.45 0 001.36-1 1 1 0 000-.34zM197.86 37.08c0-.6-.06-1.09-.12-1.57h.93l.11 1a2.14 2.14 0 011.87-1.18c.8 0 2.07.38 2.16 2.37l.17 3.46h-1.06l-.16-3.34c0-.93-.43-1.7-1.42-1.65a1.5 1.5 0 00-1.34 1.11 1.48 1.48 0 00-.05.49l.17 3.49-1.06.05zM205.53 33.47l.08 1.67 1.51-.08v.81l-1.51.07.15 3.13c0 .71.26 1.11.84 1.08a2.3 2.3 0 00.61-.1l.09.79a2.67 2.67 0 01-.93.19 1.47 1.47 0 01-1.16-.39 2.17 2.17 0 01-.48-1.49l-.11-3.15h-.9v-.8h.9l-.06-1.39zM211.94 33.16l.08 1.67 1.51-.07v.8l-1.51.07.15 3.13c0 .72.26 1.12.85 1.09a2.81 2.81 0 00.6-.1l.09.78a2.46 2.46 0 01-.93.19 1.43 1.43 0 01-1.16-.39 2.18 2.18 0 01-.48-1.49l-.14-3.16h-.9v-.8h.89l-.06-1.39zM220 37.31a2.83 2.83 0 01-2.75 3.21 2.76 2.76 0 01-2.92-2.85 2.83 2.83 0 012.73-3.21 2.75 2.75 0 012.94 2.85zm-4.6.28c.06 1.27.83 2.19 1.86 2.14s1.72-1 1.66-2.33c0-1-.6-2.21-1.84-2.15s-1.74 1.24-1.69 2.34zM223.86 40.08v-1.5l-.33-7 1-.05.17 3.64a2.16 2.16 0 011.96-1.17c1.44-.07 2.52 1.08 2.59 2.84.1 2.08-1.16 3.17-2.45 3.23a2.05 2.05 0 01-2-1v1zm1-2.38a1.59 1.59 0 00.06.38 1.63 1.63 0 001.64 1.16c1.1-.05 1.72-1 1.66-2.31-.06-1.16-.7-2.13-1.83-2.08a1.7 1.7 0 00-1.55 1.38 2.63 2.63 0 000 .43zM231.13 37a1.86 1.86 0 002.09 1.91 3.71 3.71 0 001.59-.37l.22.74a4.74 4.74 0 01-1.92.46 2.71 2.71 0 01-3-2.79c-.08-1.75.89-3.18 2.57-3.26a2.46 2.46 0 012.53 2.62v.49zm3.06-.91a1.5 1.5 0 00-1.54-1.64 1.75 1.75 0 00-1.54 1.79zM19.1 61.14a1.86 1.86 0 002.08 1.92 3.87 3.87 0 001.6-.37l.21.74a4.55 4.55 0 01-1.91.45 2.69 2.69 0 01-3-2.78c-.08-1.75.88-3.18 2.57-3.26a2.46 2.46 0 012.53 2.62 3.26 3.26 0 010 .49zm3-.9a1.49 1.49 0 00-1.54-1.64 1.75 1.75 0 00-1.53 1.79zM24.4 59.37c0-.6-.07-1.09-.13-1.57h.94l.11 1a2.11 2.11 0 011.86-1.18c.81 0 2.07.38 2.17 2.37l.16 3.46h-1.05l-.16-3.34c0-.94-.43-1.7-1.42-1.65a1.49 1.49 0 00-1.36 1.14 1.57 1.57 0 00-.05.5l.16 3.48-1 .05zM29.87 65a1.7 1.7 0 001.13-.47c.27-.35.36-.81.29-2.2l-.23-4.85 1.05-.06.25 5.26a3.16 3.16 0 01-.58 2.42 2.68 2.68 0 01-1.76.75zm2.29-9.23a.63.63 0 01-.63.68.63.63 0 01-.68-.62.65.65 0 01.64-.69.63.63 0 01.67.65zM39.18 60a2.83 2.83 0 01-2.74 3.21 2.76 2.76 0 01-2.93-2.85 2.83 2.83 0 012.73-3.21A2.75 2.75 0 0139.18 60zm-4.6.28c.06 1.26.84 2.19 1.87 2.14s1.71-1 1.65-2.34c-.05-1-.6-2.2-1.84-2.14s-1.73 1.18-1.68 2.29zM40.62 57l1.44 3.36c.15.38.31.83.42 1.17.09-.35.19-.8.31-1.23l1-3.45 1.12-.06L43.54 61c-.66 2-1.13 3.07-1.81 3.73a2.84 2.84 0 01-1.27.74l-.3-.87a2.85 2.85 0 00.9-.56 3.36 3.36 0 00.83-1.22.88.88 0 00.07-.25.78.78 0 00-.09-.28l-2.4-5.24zM46.45 59.84a1.87 1.87 0 002.09 1.92 3.84 3.84 0 001.59-.38l.22.75a5 5 0 01-1.92.45 2.71 2.71 0 01-3-2.79c-.08-1.75.88-3.18 2.57-3.26a2.46 2.46 0 012.53 2.62v.49zm3.06-.9A1.51 1.51 0 0048 57.29a1.75 1.75 0 00-1.54 1.79zM56.55 53.55l.34 7a15 15 0 00.12 1.5h-.95l-.09-1A2.13 2.13 0 0154 62.32c-1.4.07-2.54-1.06-2.62-2.82-.1-1.93 1-3.18 2.45-3.24a1.92 1.92 0 011.79.8l-.12-3.46zm-.81 5.11a1.35 1.35 0 00-.07-.44 1.55 1.55 0 00-1.58-1.15c-1.09 0-1.69 1-1.63 2.33s.68 2.11 1.82 2.06a1.58 1.58 0 001.48-1.33 1.72 1.72 0 000-.46zM61.27 61.85l-.24-5h-.82v-.8h.82v-.28a2.71 2.71 0 01.57-2.05 2 2 0 011.39-.61 2.53 2.53 0 01.91.12l-.11.83a1.43 1.43 0 00-.68-.1c-.9 0-1.08.84-1 1.73V56l1.4-.07v.8l-1.4.07.24 5zM64.42 57.7c0-.69-.07-1.27-.13-1.81h.92L65.3 57a1.74 1.74 0 011.54-1.35 1.32 1.32 0 01.3 0v1a1.37 1.37 0 00-.36 0 1.49 1.49 0 00-1.35 1.42 3.84 3.84 0 000 .5l.15 3.09h-1zM68.82 58.77a1.86 1.86 0 002.08 1.92 4 4 0 001.6-.37l.21.74a4.72 4.72 0 01-1.91.45 2.69 2.69 0 01-3-2.79c-.08-1.74.88-3.17 2.57-3.25a2.47 2.47 0 012.53 2.62 3.26 3.26 0 010 .49zm3.05-.9a1.49 1.49 0 00-1.54-1.64A1.75 1.75 0 0068.8 58zM74.12 60.15a2.82 2.82 0 001.41.36c.77 0 1.11-.44 1.09-.92s-.34-.77-1.13-1c-1.06-.32-1.58-.87-1.61-1.56a1.79 1.79 0 011.92-1.8 2.81 2.81 0 011.44.29l-.23.78a2.32 2.32 0 00-1.2-.28c-.62 0-1 .41-.93.84s.38.68 1.15.93c1 .33 1.56.81 1.6 1.67.05 1-.71 1.78-2.08 1.84a3.21 3.21 0 01-1.65-.3zM78.61 52.49l1.06-.05.17 3.62a2.07 2.07 0 01.72-.78 2.26 2.26 0 011.07-.35c.78 0 2 .38 2.14 2.38l.23 3.45-1 .05-.16-3.33c0-.93-.43-1.7-1.42-1.66A1.53 1.53 0 0080 57a1.3 1.3 0 000 .5l.16 3.5h-1zM85.22 52.18h1l.41 8.5h-1.06zM88.51 54.74l1.43 3.36c.15.38.32.83.43 1.17.09-.35.19-.8.31-1.23l1-3.46h1.11l-1.38 4.21c-.66 2-1.13 3.07-1.82 3.72a2.86 2.86 0 01-1.26.75l-.33-.93a2.8 2.8 0 00.9-.55 3.21 3.21 0 00.83-1.22.73.73 0 00.08-.26 1.64 1.64 0 00-.09-.27l-2.4-5.24zM101.6 57a2.85 2.85 0 01-2.74 3.22 2.76 2.76 0 01-2.92-2.85 2.84 2.84 0 012.73-3.22A2.75 2.75 0 01101.6 57zm-4.6.28c.06 1.27.84 2.19 1.87 2.14s1.72-1 1.65-2.33c0-1-.59-2.21-1.84-2.15S97 56.15 97 57.25zM102.84 56c0-.74-.09-1.34-.14-1.89l1-.05.09 1a2.29 2.29 0 012-1.22c1.41-.07 2.52 1.07 2.6 2.83.1 2.08-1.12 3.17-2.49 3.24a2 2 0 01-1.82-.82l.15 3.15h-1zm1.12 1.5a1.85 1.85 0 00.06.42 1.62 1.62 0 001.64 1.08c1.12-.05 1.72-1 1.66-2.32-.06-1.16-.72-2.13-1.83-2.08A1.69 1.69 0 00104 56a1.54 1.54 0 000 .43zM110.26 56.8a1.85 1.85 0 002.08 1.91 3.67 3.67 0 001.59-.37l.22.74a4.73 4.73 0 01-1.91.46 2.7 2.7 0 01-3-2.79c-.09-1.75.88-3.18 2.57-3.26a2.46 2.46 0 012.52 2.62 3.55 3.55 0 010 .49zm3-.91a1.5 1.5 0 00-1.54-1.64 1.75 1.75 0 00-1.49 1.75zM115.55 55c0-.6-.06-1.09-.12-1.57h.93l.11 1a2.17 2.17 0 011.87-1.18c.8 0 2.07.38 2.17 2.37l.16 3.46-1 .05-.16-3.34c0-.93-.43-1.7-1.43-1.65a1.5 1.5 0 00-1.36 1.15 1.48 1.48 0 000 .49l.17 3.49h-1zM122.82 56.2a1.86 1.86 0 002.08 1.92 3.76 3.76 0 001.59-.38l.22.75a4.89 4.89 0 01-1.91.45 2.7 2.7 0 01-3-2.79c-.09-1.75.88-3.18 2.57-3.26a2.46 2.46 0 012.52 2.62 3.45 3.45 0 010 .49zm3.05-.9c0-.68-.35-1.71-1.54-1.65a1.75 1.75 0 00-1.54 1.79zM132.92 49.9l.33 7c0 .52.07 1.1.12 1.5h-.94l-.1-1a2.16 2.16 0 01-1.93 1.23c-1.4.07-2.53-1.07-2.62-2.83-.1-1.92 1-3.17 2.46-3.24a2 2 0 011.79.81l-.17-3.37zm-.81 5.1a2.24 2.24 0 00-.07-.44 1.56 1.56 0 00-1.58-1.15c-1.09 0-1.69 1-1.63 2.33s.67 2.11 1.81 2.06a1.6 1.6 0 001.49-1.33 1.74 1.74 0 000-.46zM140.73 58.06l-.11-.73a2.16 2.16 0 01-1.73 1A1.65 1.65 0 01137 56.7c-.07-1.4 1.14-2.23 3.38-2.32v-.12A1.19 1.19 0 00139 53a2.88 2.88 0 00-1.49.5l-.27-.68a3.59 3.59 0 011.88-.61c1.77-.08 2.26 1.11 2.32 2.27l.1 2.17a7.82 7.82 0 00.16 1.38zm-.29-3c-1.15 0-2.45.29-2.4 1.42a1 1 0 001.05 1 1.44 1.44 0 001.35-1 1 1 0 000-.34zM143.05 53.71c0-.6-.06-1.09-.12-1.57h.93l.11.95a2.14 2.14 0 011.87-1.18c.8 0 2.07.38 2.16 2.37l.17 3.46h-1.06l-.11-3.33c0-.93-.42-1.7-1.42-1.65a1.5 1.5 0 00-1.36 1.15 1.48 1.48 0 00-.05.49l.17 3.49h-1.06zM154.46 48.88l.33 7c0 .51.07 1.1.12 1.49h-.94l-.1-1a2.16 2.16 0 01-1.93 1.24c-1.4.06-2.53-1.07-2.62-2.83-.1-1.93 1-3.17 2.45-3.24a2 2 0 011.8.8l-.17-3.46zm-.81 5.12a2.24 2.24 0 00-.07-.44A1.57 1.57 0 00152 52.4c-1.09.06-1.69 1.05-1.63 2.33s.67 2.11 1.81 2.06a1.59 1.59 0 001.49-1.33 1.74 1.74 0 000-.46zM159.19 51.36l1.3 3.21c.21.52.39 1 .54 1.46.11-.48.25-1 .42-1.51l1-3.31 1.1-.05-2 5.9h-1l-2.48-5.69zM165.6 49.43a.62.62 0 01-.64.68.64.64 0 01-.67-.62.65.65 0 01.63-.69.63.63 0 01.68.63zm-.82 7.48l-.28-5.8h1.06l.27 5.8zM172.64 53.58a2.84 2.84 0 01-2.74 3.22A2.76 2.76 0 01167 54a2.84 2.84 0 012.73-3.22 2.75 2.75 0 012.91 2.8zm-4.59.28c.06 1.27.83 2.19 1.86 2.15s1.72-1 1.65-2.34c0-1-.59-2.21-1.84-2.15s-1.72 1.24-1.67 2.34zM173.66 48l1.06-.05.4 8.51h-1.05zM177.31 53.6a1.86 1.86 0 002.08 1.92 3.8 3.8 0 001.59-.38l.22.75a4.94 4.94 0 01-1.91.45 2.7 2.7 0 01-3-2.79c-.09-1.75.88-3.17 2.57-3.26a2.46 2.46 0 012.52 2.62 3.45 3.45 0 010 .49zm3.05-.9a1.51 1.51 0 00-1.54-1.65 1.75 1.75 0 00-1.54 1.79zM182.6 51.82c0-.6-.06-1.09-.12-1.57h.94l.1 1a2.17 2.17 0 011.89-1.25c.8 0 2.07.38 2.17 2.37l.16 3.47h-1.05l-.16-3.34c-.05-.93-.43-1.69-1.43-1.65a1.51 1.51 0 00-1.36 1.15 1.48 1.48 0 00-.05.49l.17 3.49h-1.05zM190.28 48.21l.08 1.67 1.51-.07v.8l-1.51.07.15 3.13c0 .72.26 1.12.85 1.09a3.06 3.06 0 00.61-.1l.08.78a2.46 2.46 0 01-.93.19 1.43 1.43 0 01-1.16-.39 2.13 2.13 0 01-.47-1.49l-.16-3.16h-.89v-.8h.9l-.07-1.39zM192.88 47h1.05l.41 8.51h-1.06zM196.17 49.6l1.43 3.4c.15.37.32.82.43 1.17.09-.35.19-.8.31-1.22l1-3.46 1.11-.05-1.38 4.21c-.66 2-1.13 3.06-1.82 3.72a2.82 2.82 0 01-1.26.74l-.31-.87a2.85 2.85 0 00.9-.56 3.09 3.09 0 00.83-1.21.79.79 0 00.08-.26 1.64 1.64 0 00-.09-.27l-2.4-5.28zM204 51.13c0-.75-.09-1.34-.14-1.89l.95-.05.09 1a2.29 2.29 0 012-1.22c1.4-.07 2.51 1.07 2.6 2.83.1 2.08-1.12 3.17-2.49 3.24a2 2 0 01-1.83-.83l.15 3.16h-1zm1.11 1.49a2.58 2.58 0 00.07.43 1.63 1.63 0 001.64 1.16c1.12-.05 1.72-1 1.66-2.32-.06-1.17-.72-2.13-1.83-2.08a1.68 1.68 0 00-1.53 1.38 1.65 1.65 0 00-.05.44zM216 51.51a2.84 2.84 0 01-2.74 3.22 2.76 2.76 0 01-2.92-2.85 2.84 2.84 0 012.73-3.22 2.75 2.75 0 012.93 2.85zm-4.6.28c.07 1.27.84 2.2 1.87 2.15s1.72-1 1.66-2.34c-.05-1-.6-2.21-1.85-2.15s-1.7 1.24-1.65 2.34zM222.23 52.59c0 .59.07 1.12.13 1.57l-.94.05-.1-.94a2.21 2.21 0 01-1.87 1.17c-.91 0-2-.41-2.12-2.45l-.16-3.39 1-.05.15 3.21c.06 1.1.43 1.83 1.39 1.79a1.54 1.54 0 001.34-1 1.57 1.57 0 00.07-.54l-.12-3.59 1.05-.05zM223.83 50.1c0-.69-.08-1.27-.14-1.81h.92l.09 1.13h.05A1.76 1.76 0 01226.3 48a1 1 0 01.3 0l.05 1a1.42 1.42 0 00-.37 0 1.49 1.49 0 00-1.35 1.42 3.94 3.94 0 000 .5l.15 3.09-1 .05zM228.23 51.17a1.86 1.86 0 002.08 1.92 3.8 3.8 0 001.59-.38l.22.75a4.76 4.76 0 01-1.91.45 2.69 2.69 0 01-3-2.79c-.09-1.75.88-3.17 2.57-3.25a2.45 2.45 0 012.52 2.61 3.66 3.66 0 010 .5zm3.05-.9a1.51 1.51 0 00-1.54-1.65 1.76 1.76 0 00-1.54 1.8zM238.33 44.88l.33 7c0 .51.07 1.1.12 1.49h-.95l-.09-1a2.14 2.14 0 01-1.92 1.24c-1.4.06-2.53-1.07-2.62-2.83-.1-1.93 1-3.17 2.45-3.24a1.94 1.94 0 011.79.8l-.17-3.46zm-.81 5.12a2.14 2.14 0 00-.07-.43 1.55 1.55 0 00-1.58-1.15c-1.09.05-1.69 1-1.63 2.32s.67 2.12 1.81 2.06a1.59 1.59 0 001.49-1.33 1.74 1.74 0 000-.46zM96.31 66.75a.62.62 0 01-.64.68.66.66 0 010-1.31.63.63 0 01.64.63zm-.82 7.48l-.28-5.8 1.06-.05.27 5.8zM98 69.87c0-.6-.06-1.09-.12-1.57h.93l.11.95a2.17 2.17 0 011.93-1.25c.8 0 2.07.38 2.17 2.37l.16 3.46h-1.05l-.13-3.26c0-.93-.43-1.7-1.43-1.65a1.5 1.5 0 00-1.36 1.15 1.48 1.48 0 00-.05.49l.17 3.49h-1.06zM110.55 73.51l-.12-.73a2.16 2.16 0 01-1.73.94 1.65 1.65 0 01-1.86-1.58c-.06-1.4 1.15-2.23 3.39-2.32v-.12a1.19 1.19 0 00-1.38-1.28 2.89 2.89 0 00-1.49.51l-.27-.69a3.58 3.58 0 011.88-.6c1.77-.09 2.26 1.1 2.32 2.26l.1 2.17a8.05 8.05 0 00.16 1.39zm-.29-3c-1.15 0-2.45.3-2.4 1.42a.94.94 0 001 1 1.44 1.44 0 001.35-1 1 1 0 000-.34zM115.38 69.37c0-.74-.09-1.34-.14-1.89h1l.09 1a2.27 2.27 0 012-1.22c1.41-.07 2.52 1.07 2.6 2.83.1 2.08-1.12 3.17-2.49 3.24a2 2 0 01-1.83-.83l.15 3.15-1 .05zm1.11 1.49a2.58 2.58 0 00.07.43 1.63 1.63 0 001.64 1.16c1.12 0 1.72-1 1.66-2.32-.06-1.13-.72-2.13-1.86-2.08a1.68 1.68 0 00-1.53 1.38 1.65 1.65 0 000 .44zM123.16 65.47a.63.63 0 01-.64.68.66.66 0 010-1.31.63.63 0 01.64.63zm-.82 7.53l-.28-5.8 1-.05.28 5.8zM124.89 68.59c0-.6-.06-1.09-.12-1.57h.93l.11 1a2.17 2.17 0 011.87-1.18c.8 0 2.07.38 2.16 2.37l.17 3.46h-1.05l-.16-3.34c0-.93-.43-1.7-1.43-1.65a1.5 1.5 0 00-1.37 1.11 1.48 1.48 0 000 .49l.17 3.49h-1.06zM132.56 65l.08 1.67 1.51-.08v.81l-1.51.07.15 3.13c0 .71.26 1.11.85 1.09a2.22 2.22 0 00.6-.11l.09.79a2.46 2.46 0 01-.93.19 1.47 1.47 0 01-1.16-.39 2.22 2.22 0 01-.48-1.49l-.15-3.16h-.9v-.8h.89l-.06-1.39zM142.78 66.16v1.6l.16 3.37a3.33 3.33 0 01-.7 2.68 3.08 3.08 0 01-2.08.8 3.79 3.79 0 01-1.95-.39l.23-.81a3.3 3.3 0 001.72.37c1.08 0 1.84-.65 1.77-2.11v-.65a2.1 2.1 0 01-1.8 1.06 2.58 2.58 0 01-2.6-2.71 2.78 2.78 0 012.46-3.2 1.92 1.92 0 011.86.92v-.87zm-1 2.34a1.65 1.65 0 00-.08-.47 1.54 1.54 0 00-1.53-1c-1 0-1.68.94-1.62 2.28.06 1.14.68 2.06 1.81 2a1.6 1.6 0 001.47-1.71zM144.31 63.38l1.05-.05.41 8.5h-1.05zM150.71 71.6l-.12-.73a2.16 2.16 0 01-1.73.95 1.66 1.66 0 01-1.86-1.58c-.07-1.4 1.14-2.23 3.38-2.33v-.11a1.2 1.2 0 00-1.38-1.28 2.85 2.85 0 00-1.48.5l-.28-.68a3.62 3.62 0 011.88-.61c1.78-.08 2.27 1.11 2.32 2.27l.1 2.17a10.3 10.3 0 00.16 1.38zm-.3-2.95c-1.15 0-2.45.29-2.39 1.42a.94.94 0 001 1 1.44 1.44 0 001.35-1 1 1 0 00.05-.34zM153 70.41a2.9 2.9 0 001.41.35c.77 0 1.11-.44 1.09-.92s-.34-.76-1.13-1c-1.06-.32-1.58-.88-1.61-1.57a1.79 1.79 0 011.92-1.8 3.09 3.09 0 011.44.29l-.23.78a2.32 2.32 0 00-1.2-.28c-.62 0-.95.41-.93.84s.38.68 1.14.93c1 .34 1.57.82 1.61 1.68.05 1-.71 1.77-2.09 1.84a3.3 3.3 0 01-1.64-.32zM157.73 70.18a2.7 2.7 0 001.41.35c.77 0 1.11-.43 1.08-.91s-.33-.77-1.12-1c-1.06-.32-1.58-.87-1.62-1.56a1.8 1.8 0 011.92-1.8 2.88 2.88 0 011.45.29l-.23.78a2.22 2.22 0 00-1.2-.28c-.63 0-1 .41-.94.84s.39.68 1.15.93c1 .33 1.57.81 1.61 1.67 0 1-.71 1.78-2.09 1.85a3.27 3.27 0 01-1.64-.32zM162.21 70.42a.72.72 0 11.74.73.71.71 0 01-.74-.73zM25.91 92l-.72 2.58-1.07.05 2.36-8.2 1.25-.06 3.14 7.94h-1.11l-1-2.5zm2.61-.94l-.9-2.29c-.21-.51-.35-1-.49-1.45-.1.49-.21 1-.34 1.48l-.68 2.38zM35.39 86.64l.08 1.66 1.53-.07v.8l-1.51.07.15 3.13c0 .72.26 1.12.85 1.09a2.38 2.38 0 00.61-.1l.08.79a2.71 2.71 0 01-.93.18 1.43 1.43 0 01-1.16-.39 2.12 2.12 0 01-.47-1.48l-.16-3.17h-.89v-.81h.9l-.1-1.34zM41.6 93.82l-.12-.73a2.15 2.15 0 01-1.73 1 1.65 1.65 0 01-1.86-1.58c-.06-1.4 1.15-2.23 3.39-2.32V90a1.19 1.19 0 00-1.38-1.28 2.88 2.88 0 00-1.49.5l-.27-.68A3.68 3.68 0 0140 88c1.77-.08 2.26 1.11 2.32 2.27l.1 2.17a7.82 7.82 0 00.16 1.38zm-.29-2.95c-1.16 0-2.45.29-2.4 1.42a.94.94 0 001.05 1 1.44 1.44 0 001.35-1 1 1 0 000-.34zM43.93 92.63a2.7 2.7 0 001.41.35c.76 0 1.1-.44 1.08-.92s-.34-.76-1.13-1c-1.06-.32-1.58-.87-1.61-1.57a1.78 1.78 0 011.92-1.79 2.81 2.81 0 011.4.3l-.22.78a2.2 2.2 0 00-1.21-.28c-.62 0-1 .4-.93.83s.38.68 1.15.93c1 .34 1.56.82 1.6 1.68 0 1-.7 1.78-2.08 1.84a3.31 3.31 0 01-1.65-.32zM49.73 86l.08 1.67 1.51-.08v.81l-1.51.07.19 3.08c0 .71.26 1.11.85 1.08a2.29 2.29 0 00.6-.1l.09.79a2.67 2.67 0 01-.93.19 1.47 1.47 0 01-1.16-.39 2.17 2.17 0 01-.45-1.49l-.15-3.16h-.9v-.8h.9l-.06-1.38zM53.12 90.56a1.86 1.86 0 002.09 1.91 3.86 3.86 0 001.59-.37l.22.74a4.74 4.74 0 01-1.92.46 2.71 2.71 0 01-3-2.79c-.08-1.75.89-3.18 2.57-3.26a2.46 2.46 0 012.53 2.62 3.55 3.55 0 010 .49zm3.06-.91A1.5 1.5 0 0054.64 88a1.75 1.75 0 00-1.54 1.8zM60.92 91.82a2.7 2.7 0 001.41.35c.77 0 1.11-.44 1.09-.92s-.34-.76-1.13-1c-1.06-.32-1.58-.87-1.61-1.57a1.79 1.79 0 011.92-1.8 2.94 2.94 0 011.44.3l-.23.78a2.14 2.14 0 00-1.2-.28c-.62 0-1 .4-.93.83s.38.68 1.15.93c1 .34 1.56.82 1.6 1.68 0 1-.71 1.77-2.08 1.84a3.31 3.31 0 01-1.65-.32zM69 92.51l-.12-.73a2.15 2.15 0 01-1.73.94 1.65 1.65 0 01-1.85-1.58c-.07-1.4 1.14-2.22 3.38-2.32v-.12a1.2 1.2 0 00-1.39-1.28 2.91 2.91 0 00-1.48.5l-.28-.68a3.61 3.61 0 011.88-.6c1.78-.09 2.26 1.1 2.32 2.26l.1 2.17a9.18 9.18 0 00.17 1.4zm-.3-3c-1.15 0-2.45.3-2.39 1.42a.93.93 0 001 1 1.43 1.43 0 001.35-1 1 1 0 000-.33zM71.34 88.16c0-.6-.06-1.09-.12-1.56h.92l.1.93a2 2 0 011.76-1.2 1.72 1.72 0 011.7 1.08 2.47 2.47 0 01.61-.78 2 2 0 011.27-.47c.76 0 1.92.41 2 2.42l.24 3.42h-1l-.15-3.29c-.06-1.11-.5-1.76-1.35-1.72a1.37 1.37 0 00-1.2 1 2.09 2.09 0 00-.06.53l.18 3.58h-1L75 88.74c0-.92-.48-1.57-1.29-1.53a1.43 1.43 0 00-1.25 1.11 1.49 1.49 0 00-.06.52l.17 3.5h-1zM81.31 88c0-.74-.09-1.34-.14-1.89h1l.09 1a2.28 2.28 0 012-1.23c1.4-.06 2.51 1.07 2.6 2.83.1 2.09-1.12 3.18-2.49 3.24a2 2 0 01-1.83-.82l.15 3.15-1 .05zm1.11 1.5a2.76 2.76 0 00.07.43 1.63 1.63 0 001.64 1.15c1.12 0 1.72-1 1.66-2.32-.06-1.16-.72-2.13-1.83-2.07a1.67 1.67 0 00-1.53 1.38 1.54 1.54 0 00-.05.43zM87.86 83.09h1.06l.4 8.5h-1zM91.51 88.73a1.85 1.85 0 002.08 1.91 3.82 3.82 0 001.59-.37l.22.74a4.73 4.73 0 01-1.91.46 2.71 2.71 0 01-3-2.79c-.08-1.75.89-3.18 2.58-3.26A2.46 2.46 0 0195.59 88a3.55 3.55 0 010 .49zm3-.91A1.5 1.5 0 0093 86.18 1.75 1.75 0 0091.48 88zM104.22 85v1.6l.16 3.36a3.39 3.39 0 01-.7 2.69 3.09 3.09 0 01-2.08.8 3.75 3.75 0 01-1.95-.39l.22-.82a3.27 3.27 0 001.73.38c1.07 0 1.84-.65 1.77-2.12v-.64a2.08 2.08 0 01-1.79 1.06 2.6 2.6 0 01-2.61-2.71 2.8 2.8 0 012.44-3.21 2 2 0 011.85.92v-.87zm-1 2.34a1.36 1.36 0 00-.09-.47 1.51 1.51 0 00-1.52-1c-1 0-1.69.93-1.62 2.28 0 1.13.67 2 1.81 2a1.55 1.55 0 001.43-1.15 2.21 2.21 0 00.06-.57zM106.9 83.26a.62.62 0 01-.64.68.63.63 0 01-.67-.62.65.65 0 01.63-.69.63.63 0 01.68.63zm-.82 7.48L105.8 85h1.06l.27 5.79zM109 84.8l1.29 3.2a14 14 0 01.54 1.46c.11-.48.26-1 .42-1.51l1-3.31h1.1l-2 5.9-1 .05-2.48-5.69zM114.89 87.61a1.86 1.86 0 002.11 1.92 3.84 3.84 0 001.59-.38l.21.75a4.72 4.72 0 01-1.91.45 2.7 2.7 0 01-3-2.79c-.08-1.75.88-3.17 2.57-3.25a2.46 2.46 0 012.54 2.61 3.34 3.34 0 010 .5zm3-.9a1.5 1.5 0 00-1.54-1.65 1.76 1.76 0 00-1.53 1.8zM120.19 89a2.75 2.75 0 001.41.35c.77 0 1.11-.43 1.09-.91s-.34-.77-1.13-1c-1.06-.32-1.58-.87-1.61-1.57a1.78 1.78 0 011.92-1.79 2.81 2.81 0 011.44.29l-.23.78a2.22 2.22 0 00-1.2-.28c-.62 0-.95.41-.93.84s.38.68 1.15.93c1 .33 1.56.81 1.6 1.67 0 1-.7 1.78-2.08 1.84a3.32 3.32 0 01-1.65-.31zM127.69 83.9l1.43 3.37c.15.38.32.82.43 1.17.1-.36.19-.81.32-1.23l1-3.46h1.12l-1.39 4.21c-.65 2-1.12 3.06-1.81 3.72a2.82 2.82 0 01-1.26.74l-.31-.87a2.67 2.67 0 00.9-.56 3.09 3.09 0 00.83-1.21.67.67 0 00.07-.26.9.9 0 00-.08-.27l-2.4-5.25zM138.17 86.26a2.84 2.84 0 01-2.74 3.22 2.77 2.77 0 01-2.93-2.85 2.85 2.85 0 012.73-3.22 2.76 2.76 0 012.94 2.85zm-4.6.28c.06 1.27.84 2.19 1.87 2.14s1.71-1 1.65-2.33c-.05-1-.6-2.21-1.84-2.15s-1.73 1.24-1.68 2.34zM144.37 87.33c0 .6.06 1.13.12 1.58h-.93l-.11-.95a2.16 2.16 0 01-1.87 1.16c-.91 0-2-.4-2.12-2.44l-.16-3.39h1.05l.16 3.21c0 1.1.42 1.83 1.38 1.78a1.5 1.5 0 001.34-1 1.36 1.36 0 00.07-.54l-.17-3.56h1.06zM148.44 84.49c0-.6-.06-1.09-.12-1.57h.92l.09.94a2 2 0 011.77-1.16 1.73 1.73 0 011.7 1.09 2.28 2.28 0 01.61-.79 2 2 0 011.26-.47c.77 0 1.93.41 2 2.43l.16 3.41-1 .05-.16-3.28c0-1.12-.49-1.77-1.34-1.73a1.38 1.38 0 00-1.2 1 1.76 1.76 0 00-.06.53l.17 3.58-1 .05-.16-3.47c-.05-.92-.49-1.58-1.29-1.54a1.45 1.45 0 00-1.26 1.12 1.49 1.49 0 00-.05.52l.16 3.5h-1zM163.7 85a2.84 2.84 0 01-2.7 3.26 2.76 2.76 0 01-3-2.85 2.83 2.83 0 012.72-3.22A2.76 2.76 0 01163.7 85zm-4.6.28c.06 1.27.84 2.2 1.87 2.15s1.71-1 1.65-2.34c-.05-1-.6-2.2-1.84-2.14s-1.73 1.27-1.68 2.37zM164.93 86.86a2.7 2.7 0 001.41.35c.76 0 1.1-.44 1.08-.92s-.33-.76-1.13-1c-1.06-.32-1.57-.87-1.61-1.57a1.8 1.8 0 011.92-1.8 2.91 2.91 0 011.44.3l-.22.78a2.2 2.2 0 00-1.21-.28c-.62 0-1 .4-.93.83s.38.68 1.15.93c1 .34 1.56.82 1.61 1.68 0 1-.71 1.77-2.09 1.84a3.34 3.34 0 01-1.65-.32zM170.74 80.18l.07 1.67 1.51-.08v.81l-1.51.07.15 3.13c0 .71.26 1.11.85 1.08a1.93 1.93 0 00.6-.1l.09.79a2.67 2.67 0 01-.93.19 1.47 1.47 0 01-1.16-.39 2.22 2.22 0 01-.48-1.49l-.15-3.16h-.9v-.8h.89l-.06-1.39zM181.34 84.2a2.84 2.84 0 01-2.74 3.22 2.76 2.76 0 01-2.92-2.85 2.84 2.84 0 012.73-3.22 2.75 2.75 0 012.93 2.85zm-4.6.28c.06 1.27.84 2.2 1.87 2.15s1.72-1 1.65-2.34c0-1-.59-2.21-1.84-2.15s-1.73 1.24-1.68 2.34zM182.87 87.08l-.23-5h-.82v-.81h.82V81a2.77 2.77 0 01.58-2.06 2 2 0 011.39-.6 2.44 2.44 0 01.9.12l-.1.82a1.74 1.74 0 00-.68-.1c-.9 0-1.09.85-1 1.73v.32l1.4-.07v.8l-1.4.07.24 5zM189.63 79.28l.07 1.72 1.51-.08v.81l-1.51.07.15 3.13c0 .71.26 1.11.85 1.08a1.93 1.93 0 00.6-.1l.09.79a2.67 2.67 0 01-.93.19 1.47 1.47 0 01-1.16-.39 2.22 2.22 0 01-.48-1.49l-.15-3.16h-.9v-.8l.89-.05-.06-1.38zM192.23 78.11h1.05l.17 3.62a1.86 1.86 0 01.72-.78 2.09 2.09 0 011.06-.35c.78 0 2.05.38 2.14 2.38l.17 3.45-1.06.05-.16-3.33c0-.93-.42-1.71-1.42-1.66a1.51 1.51 0 00-1.36 1.12 1.18 1.18 0 000 .51l.16 3.5-1.05.05zM199.69 83.57a1.87 1.87 0 002.09 1.92 3.84 3.84 0 001.59-.38l.22.75a5 5 0 01-1.92.45 2.71 2.71 0 01-3-2.79c-.08-1.75.88-3.18 2.57-3.26a2.46 2.46 0 012.53 2.62v.49zm3.06-.91a1.5 1.5 0 00-1.54-1.66 1.75 1.75 0 00-1.54 1.79zM207.79 85.89l-.24-5h-.81v-.8h.82v-.26a2.65 2.65 0 01.72-2 2.76 2.76 0 011.83-.68 3.76 3.76 0 011.76.3l.39 8.25h-1l-.37-7.66a1.8 1.8 0 00-.87-.12c-1.1 0-1.42.87-1.37 1.81v.29l1.35-.07v.8l-1.35.07.24 5zM217.12 85.45l-.12-.73a2.13 2.13 0 01-1.73 1 1.65 1.65 0 01-1.85-1.58c-.07-1.4 1.14-2.23 3.38-2.32v-.12a1.2 1.2 0 00-1.39-1.28 2.94 2.94 0 00-1.48.5l-.28-.68a3.71 3.71 0 011.88-.61c1.78-.08 2.27 1.11 2.32 2.27l.1 2.17a10.3 10.3 0 00.16 1.38zm-.3-3c-1.15 0-2.45.3-2.39 1.42a.93.93 0 001 1 1.43 1.43 0 001.35-1 1 1 0 00.05-.34zM219.67 79.52l1.3 3.2c.21.52.39 1 .53 1.46.11-.48.25-1 .42-1.51l1-3.31h1.1l-2 5.91h-1l-2.48-5.69zM230.24 81.87a2.83 2.83 0 01-2.73 3.22 2.77 2.77 0 01-2.93-2.85 2.85 2.85 0 012.73-3.24 2.74 2.74 0 012.93 2.87zm-4.59.28c.06 1.27.83 2.19 1.86 2.14s1.72-1 1.66-2.33c0-1-.6-2.21-1.85-2.15s-1.72 1.24-1.67 2.34zM231.48 80.77c0-.69-.07-1.27-.13-1.81h.92l.09 1.13A1.75 1.75 0 01234 78.7a1.32 1.32 0 01.3 0l.05 1a1.37 1.37 0 00-.36 0 1.49 1.49 0 00-1.35 1.42 3.79 3.79 0 000 .49l.15 3.1-1 .05zM234.29 86.11a17.28 17.28 0 00.59-2.9l1.17-.18a15.25 15.25 0 01-1 3zM38.68 108v-1.5l-.33-7h1l.17 3.64a2.13 2.13 0 011.92-1.16c1.44-.07 2.51 1.08 2.59 2.84.09 2.07-1.16 3.16-2.46 3.23a2.07 2.07 0 01-2-1v1zm1-2.37a2.32 2.32 0 00.07.38 1.64 1.64 0 001.64 1.16c1.1-.06 1.72-1 1.65-2.31-.05-1.17-.7-2.13-1.82-2.08a1.69 1.69 0 00-1.55 1.37 1.89 1.89 0 000 .44zM50.28 105.84c0 .6.07 1.12.12 1.57h-.93l-.11-.94a2.17 2.17 0 01-1.86 1.17c-.92 0-2-.41-2.13-2.45l-.16-3.39h1.05l.14 3.2c.05 1.1.42 1.83 1.38 1.79a1.53 1.53 0 001.34-1 1.36 1.36 0 00.07-.54l-.19-3.58h1.06zM53 99.81l.08 1.67 1.51-.07v.8l-1.51.07.15 3.13c0 .72.26 1.11.85 1.09a2.22 2.22 0 00.6-.11l.09.79a2.46 2.46 0 01-.93.19 1.47 1.47 0 01-1.16-.39 2.13 2.13 0 01-.48-1.49l-.15-3.16h-.9v-.8h.9l-.05-1.39zM63.07 98.29l.34 7a15 15 0 00.12 1.5h-1l-.1-1a2.13 2.13 0 01-1.92 1.23c-1.4.07-2.54-1.06-2.62-2.82-.11-1.93 1-3.18 2.45-3.24a1.92 1.92 0 011.79.8L62 98.34zm-.81 5.11a1.68 1.68 0 00-.07-.44 1.56 1.56 0 00-1.58-1.15c-1.09 0-1.69 1-1.63 2.33s.68 2.11 1.82 2.06a1.57 1.57 0 001.48-1.33 1.72 1.72 0 000-.46zM70.29 103.51a2.84 2.84 0 01-2.74 3.22 2.76 2.76 0 01-2.92-2.85 2.84 2.84 0 012.73-3.22 2.75 2.75 0 012.93 2.85zm-4.6.28c.06 1.27.84 2.2 1.87 2.15s1.72-1 1.65-2.34c0-1-.59-2.2-1.84-2.15s-1.73 1.24-1.68 2.34zM72.17 103.66a1.86 1.86 0 002.09 1.92 3.86 3.86 0 001.59-.37l.22.74a4.61 4.61 0 01-1.92.45 2.7 2.7 0 01-3-2.78c-.08-1.75.89-3.18 2.57-3.26a2.46 2.46 0 012.54 2.64v.49zm3.06-.9a1.5 1.5 0 00-1.54-1.64 1.75 1.75 0 00-1.54 1.79zM77.48 105a2.8 2.8 0 001.41.36c.77 0 1.11-.44 1.08-.92s-.33-.76-1.13-1c-1.06-.32-1.57-.88-1.61-1.57a1.8 1.8 0 011.92-1.8 2.92 2.92 0 011.44.29l-.22.78a2.37 2.37 0 00-1.2-.28c-.63 0-1 .41-.94.84s.38.68 1.15.93c1 .33 1.57.81 1.61 1.68s-.71 1.77-2.09 1.84a3.34 3.34 0 01-1.65-.32zM84.67 101.54c0-.59-.07-1.09-.13-1.56h.94l.1 1a2.16 2.16 0 011.87-1.19c.8 0 2.07.39 2.17 2.37l.16 3.47h-1l-.16-3.35c0-.93-.43-1.69-1.43-1.64a1.5 1.5 0 00-1.36 1.14 1.57 1.57 0 000 .5l.17 3.48h-1zM96.58 102.26a2.85 2.85 0 01-2.74 3.22 2.77 2.77 0 01-2.93-2.85 2.85 2.85 0 012.73-3.22 2.76 2.76 0 012.94 2.85zm-4.6.28c.06 1.27.84 2.19 1.87 2.14s1.71-1 1.65-2.33c0-1-.6-2.21-1.84-2.15s-1.73 1.24-1.66 2.34zM98.92 97.62l.08 1.67 1.51-.07v.8l-1.51.07.15 3.13c0 .72.26 1.11.85 1.09a2.22 2.22 0 00.6-.11l.09.79a2.67 2.67 0 01-.93.19 1.47 1.47 0 01-1.16-.39 2.2 2.2 0 01-.48-1.49l-.12-3.16h-.9v-.8h.9L97.9 98zM104.52 99l1.43 3.37c.15.38.32.82.43 1.17.09-.36.19-.8.31-1.23l1-3.46 1.11-.05-1.36 4.2c-.66 2-1.13 3.07-1.82 3.72a2.86 2.86 0 01-1.26.75l-.3-.88a2.74 2.74 0 00.89-.56 3.09 3.09 0 00.83-1.21.73.73 0 00.08-.26 1.64 1.64 0 00-.09-.27l-2.4-5.24zM110.83 97.09a.65.65 0 01-1.3.06.64.64 0 01.62-.69.63.63 0 01.68.63zm-.82 7.48l-.27-5.79 1.05-.06.28 5.8zM113.23 101.71a1.85 1.85 0 002.08 1.91 3.78 3.78 0 001.59-.37l.22.74a4.68 4.68 0 01-1.91.46 2.7 2.7 0 01-3-2.79c-.09-1.75.88-3.18 2.57-3.26a2.46 2.46 0 012.52 2.62 3.5 3.5 0 010 .49zm3-.91a1.5 1.5 0 00-1.54-1.64 1.75 1.75 0 00-1.49 1.84zM118.32 95.65l1.06-.05.4 8.51h-1zM126.11 95.28l.33 7c0 .51.07 1.1.12 1.49h-.94l-.1-1a2.16 2.16 0 01-1.93 1.24c-1.4.06-2.53-1.07-2.62-2.83-.1-1.93 1-3.17 2.46-3.24a2 2 0 011.79.8l-.17-3.46zm-.81 5.12a2.24 2.24 0 00-.07-.44 1.55 1.55 0 00-1.58-1.15c-1.09 0-1.69 1-1.63 2.32s.67 2.12 1.81 2.06a1.59 1.59 0 001.49-1.33 1.66 1.66 0 000-.45zM131.63 96.06l.08 1.67 1.51-.07v.8l-1.51.07.15 3.13c0 .72.26 1.11.85 1.08a1.93 1.93 0 00.6-.1l.09.79a2.46 2.46 0 01-.93.19 1.47 1.47 0 01-1.16-.39 2.22 2.22 0 01-.48-1.49l-.15-3.16h-.9v-.8h.9l-.07-1.39zM134.23 94.89h1.05l.17 3.62a1.92 1.92 0 01.72-.78 2.22 2.22 0 011.06-.35c.78 0 2.05.38 2.14 2.38l.17 3.45h-1.06l-.16-3.33c0-.93-.42-1.71-1.42-1.66a1.51 1.51 0 00-1.36 1.12 1.36 1.36 0 000 .51l.17 3.5-1.06.05zM141.69 100.35a1.87 1.87 0 002.09 1.92 3.84 3.84 0 001.59-.38l.22.75a5 5 0 01-1.92.45 2.71 2.71 0 01-3-2.79c-.08-1.75.89-3.18 2.58-3.26a2.46 2.46 0 012.52 2.62v.49zm3.06-.9a1.51 1.51 0 00-1.54-1.65 1.75 1.75 0 00-1.54 1.79zM149.79 102.68l-.23-5h-.82v-.8h.82v-.28a2.71 2.71 0 01.57-2 2 2 0 011.39-.61 2.44 2.44 0 01.9.12l-.1.83a1.55 1.55 0 00-.68-.11c-.9 0-1.09.85-1 1.74v.31l1.4-.07v.8l-1.4.07.24 5zM157.91 100.7c0 .6.07 1.13.13 1.58h-.94l-.1-1a2.18 2.18 0 01-1.87 1.16c-.91 0-2-.4-2.12-2.44l-.16-3.39h1l.15 3.21c.06 1.1.43 1.83 1.39 1.78a1.51 1.51 0 001.34-1 1.57 1.57 0 00.07-.54l-.17-3.56 1.05-.05zM159.29 93.7h1.05l.41 8.5h-1.05zM162.07 93.57h1.05l.41 8.5h-1.05zM168.21 99.08a1.86 1.86 0 002.08 1.92 3.87 3.87 0 001.6-.37l.21.74a4.55 4.55 0 01-1.91.45 2.68 2.68 0 01-3-2.78c-.09-1.75.88-3.18 2.57-3.26a2.82 2.82 0 012.51 3.11zm3-.9a1.49 1.49 0 00-1.54-1.64 1.75 1.75 0 00-1.54 1.79zM173.89 95.72l.88 1.2c.23.32.43.61.63.92.18-.36.35-.67.53-1l.76-1.27h1.13L176 98.42l2.18 2.9-1.2.06-.91-1.27c-.24-.32-.45-.63-.67-1-.17.35-.36.68-.56 1l-.77 1.35h-1.17l1.92-3-2.1-2.75zM179 97.37c0-.74-.09-1.34-.14-1.89h.94l.1 1a2.29 2.29 0 012-1.23c1.4-.07 2.51 1.07 2.6 2.83.1 2.08-1.12 3.18-2.49 3.24a2 2 0 01-1.83-.82l.15 3.15-1 .05zm1.11 1.5a3 3 0 00.07.43 1.63 1.63 0 001.64 1.15c1.11 0 1.72-1 1.66-2.32-.06-1.16-.72-2.13-1.83-2.08a1.69 1.69 0 00-1.53 1.39 2 2 0 00-.06.43zM186.4 98.22a1.86 1.86 0 002.09 1.91 3.71 3.71 0 001.59-.37l.21.74a4.64 4.64 0 01-1.91.46 2.71 2.71 0 01-3-2.79c-.08-1.75.88-3.18 2.57-3.26a2.46 2.46 0 012.53 2.62v.49zm3.06-.9a1.51 1.51 0 00-1.55-1.65 1.75 1.75 0 00-1.53 1.79zM191.71 96.68c0-.68-.07-1.27-.13-1.81h.92l.09 1.14a1.73 1.73 0 011.54-1.34 1 1 0 01.3 0l.05 1a2 2 0 00-.36 0 1.5 1.5 0 00-1.3 1.33 2.68 2.68 0 000 .5l.14 3.09h-1zM196.64 93a.65.65 0 01-1.3.06.64.64 0 01.62-.69.63.63 0 01.68.63zm-.82 7.48l-.27-5.8 1-.05.28 5.8zM199 97.61a1.86 1.86 0 002.08 1.92 3.82 3.82 0 001.59-.37l.22.74a4.6 4.6 0 01-1.91.45 2.7 2.7 0 01-3-2.78c-.08-1.75.89-3.18 2.58-3.26a2.46 2.46 0 012.52 2.62 3.55 3.55 0 010 .49zm3.05-.9a1.5 1.5 0 00-1.54-1.64 1.75 1.75 0 00-1.51 1.79zM204.33 95.84c0-.6-.06-1.09-.12-1.57h.93l.11 1a2.13 2.13 0 011.89-1.27c.8 0 2.07.38 2.17 2.37l.16 3.46h-1.05l-.16-3.34c0-.94-.43-1.7-1.43-1.65a1.5 1.5 0 00-1.36 1.16 1.57 1.57 0 00-.05.5l.17 3.49h-1.05zM215.26 99.34a3.9 3.9 0 01-1.65.41 2.75 2.75 0 01-3-2.82 3 3 0 013-3.23 3.54 3.54 0 011.48.23l-.2.83a2.56 2.56 0 00-1.24-.22 2.19 2.19 0 00.18 4.37 3.19 3.19 0 001.28-.35zM216.85 96.76a1.86 1.86 0 002.08 1.92 3.78 3.78 0 001.59-.37l.22.74a4.55 4.55 0 01-1.91.45 2.68 2.68 0 01-3-2.78c-.09-1.75.88-3.18 2.57-3.26a2.46 2.46 0 012.52 2.62 3.55 3.55 0 010 .49zm3.05-.9a1.5 1.5 0 00-1.54-1.64 1.75 1.75 0 00-1.54 1.78zM221.92 98.61a.72.72 0 111.43-.07.72.72 0 11-1.43.07z"/></g><path d="M84.21 29.21l-2.48-4.29-.3.51.19 3.9-2.19.11-.54-11.19 2.19-.1.19 3.85 2.39-4 2.46-.11-3.11 5 3.72 6.17zM88.17 29l-.53-11.19 5.72-.27.08 1.73-3.53.16.09 2.85 3.14-.15.08 1.71-3.1.16.16 3.2 3.53-.2.08 1.73zM95.81 28.66l-.53-11.19 5.72-.27.08 1.72-3.53.17.13 2.83 3.14-.15.08 1.71-3.13.15.15 3.2 3.53-.17.08 1.72zM109.72 20.35a6.07 6.07 0 01-.14 1.79 2.86 2.86 0 01-.61 1.19 2.54 2.54 0 01-1.09.7 5.52 5.52 0 01-1.51.26h-.91l.18 3.86-2.19.1-.53-11.19 1-.12 1-.1c.34 0 .68-.06 1-.08a5.46 5.46 0 011.81.17 2.49 2.49 0 011.82 1.8 7.1 7.1 0 01.17 1.62zm-2.22.22a3.29 3.29 0 00-.31-1.42 1 1 0 00-1-.44 4.35 4.35 0 00-.78.08l-.26.06.18 3.6 1-.05a1 1 0 00.87-.52 2.26 2.26 0 00.3-1.31zM115.68 27.71L115.6 26l1.12-.05-.38-7.8-1.12.06-.08-1.7 4.43-.21.08 1.69-1.12.06.37 7.8 1.1-.05.08 1.7zM125.83 27.23l-2.54-8.89.43 9-1.94.09-.53-11.19 3.18-.15 2.57 9.04-.43-9.13 1.9-.09.53 11.16zM142.14 26.45l-.45-9.58-1.1 5.89-1.66.08-1.72-5.75.46 9.57-1.95.09-.54-11.18 3.33-.16 1.15 4.25.75-4.34 3.18-.16.54 11.19zM145.8 26.27l-.08-1.69h1.12l-.37-7.8-1.12.05-.08-1.7 4.43-.21.08 1.7-1.12.05.37 7.8 1.12-.05.08 1.69zM156 25.79l-2.54-8.88.43 9-1.93.09-.54-11.19 3.18-.15 2.58 9.06-.43-9.16 1.9-.09.53 11.19zM167.9 19.44a14.14 14.14 0 01-.1 2.95 4.72 4.72 0 01-.63 1.85 2.5 2.5 0 01-1.15 1 4.61 4.61 0 01-1.62.34h-3.09l-.53-11.19 1.08-.13.92-.1.82-.06a6.56 6.56 0 011.71.12 2.52 2.52 0 011.29.76 4.23 4.23 0 01.84 1.66 12.13 12.13 0 01.46 2.8zm-2.21.21c-.05-.86-.11-1.54-.19-2a3.87 3.87 0 00-.31-1.11.8.8 0 00-.45-.47 1.59 1.59 0 00-.64-.07h-.99l.36 7.52h.98a1.09 1.09 0 001.05-.85 4.8 4.8 0 00.2-1.2c.03-.41.02-1.05-.01-1.82zM169.87 21.47l-.36-7.54 2.16-.1.36 7.54zm.07 3.65l-.1-2.08 2.39-.11.1 2.08z" fill="#f3e0ad"/><g opacity=".1" fill="#fff"><path d="M105 58.5c0-6.86-1.63-12-5-15.18A12 12 0 0093.23 40c-2.46-4.3-6.14-5.12-8.52-4.88-4.5-3.67-8.5-3.55-11.12-2.74A11.42 11.42 0 0070 34.23a11.43 11.43 0 00-3.73-1.44c-2.68-.54-6.67-.25-10.78 3.86-2.39 0-6 1.19-8 5.72a12 12 0 00-6.43 4c-3 3.54-4.11 8.78-3.39 15.59-2.5 4.73-4.27 14 4.67 20.15-.37 4.11.74 10.63 6.94 13.78a9.17 9.17 0 001.32 6 7.81 7.81 0 005.27 3.25c1.48 2 5.7 7.06 10.81 6.8h.11c2.64-.17 5-1.71 6.91-4.56 2.23 2.64 4.69 3.93 7.33 3.84h.11c5.11-.26 8.8-5.7 10.07-7.86a7.82 7.82 0 004.91-3.77 9.26 9.26 0 00.7-6.07c5.84-3.76 6.29-10.37 5.51-14.42 8.32-7.1 5.61-16.16 2.67-20.6zm-6 18.14a2 2 0 00-.72 2.18c.1.34 2.4 8.42-4.57 11.84a2 2 0 00-1 2.52s.95 2.62 0 4.43a4.29 4.29 0 01-3.14 2 2.07 2.07 0 00-1.35 1c-.91 1.77-4 6.35-7.17 6.52-1.85.07-3.75-1.46-5.64-4.54a2.09 2.09 0 00-1.86-.95 2 2 0 00-1.7 1.13c-1.56 3.26-3.3 5-5.14 5.09h-.06c-3.19.16-6.7-4.09-7.8-5.75a2 2 0 00-1.44-.89A4.33 4.33 0 0154 99.6a6.1 6.1 0 01-.48-4.42 2 2 0 00-1.24-2.41c-7.29-2.7-5.81-11-5.75-11.31a2 2 0 00-.93-2.1c-9.69-5.77-4.66-15-4.07-16a2 2 0 00.28-1.27c-.73-5.84.08-10.39 2.33-13.13a7.72 7.72 0 015-2.82 2 2 0 001.79-1.34c1.56-4.55 4.71-4.18 5-4.13a2 2 0 001.87-.62c5.61-6.22 10.46-2.28 11-1.82a2 2 0 001.44.51h.06a2.06 2.06 0 001.37-.65c.48-.52 4.91-4.93 11.13.69a2 2 0 001.9.43c.35-.09 3.45-.78 5.46 3.59a2 2 0 001.91 1.2 7.77 7.77 0 015.17 2.24c2.56 2.48 3.84 6.94 3.72 12.88a2 2 0 00.4 1.23c.7.91 6.64 9.56-2.36 16.29z"/><path d="M49.53 42.23a2 2 0 00-1.07 3.85c6.1 1.69 6.55 6.39 6.56 6.64a2 2 0 004-.23c-.02-.31-.51-7.76-9.49-10.26zM57.58 74.74a2 2 0 00-2.51 1.31s-1.27 3.84-4 4.78c-1.5.52-3.33 0-5.44-1.4a2 2 0 00-2.25 3.3A11.16 11.16 0 0050.25 85a7.74 7.74 0 002.18-.43c4.61-1.6 6.38-7.12 6.45-7.35a2 2 0 00-1.3-2.48zM65.28 87.47a2 2 0 00-2.82.14c-5.49 6.07-3.78 12-3.71 12.21a2 2 0 002 1.41 1.7 1.7 0 00.45-.08 2 2 0 001.37-2.47c0-.16-1.07-4.06 2.84-8.39a2 2 0 00-.13-2.82zM67.11 59.16c-2.55-1.11-4.38.47-6 1.87a21.52 21.52 0 01-5.49 3.71c-4.73 2.18-9-2.52-9.23-2.73a2 2 0 00-2.81-.16 2 2 0 00-.18 2.82c.22.24 4.46 4.93 10.12 4.65a10.37 10.37 0 003.77-.95 25.61 25.61 0 006.44-4.32 8.53 8.53 0 011.66-1.27h.1a2 2 0 002.64-1 2 2 0 00-1.02-2.62zM101.62 77a2 2 0 00-2.82-.24c-2 1.65-3.72 2.3-5.25 2-2.32-.54-4-3.33-4.44-4.36a2 2 0 00-2.63-1 2 2 0 00-1 2.62c.11.23 2.43 5.54 7.19 6.66a8 8 0 002.18.21 11.2 11.2 0 006.58-3 2 2 0 00.19-2.89zM80.88 81.08a2 2 0 10-2.69 3c4.31 3.89 3.72 7.85 3.68 8.06a2 2 0 001.58 2.33 2 2 0 00.49 0 2 2 0 001.85-1.62c.05-.25 1.21-6.29-4.91-11.77zM99.25 65.68a2 2 0 00-2.61-1.06c-.26.11-6.17 2.5-9.51-1.51a21.57 21.57 0 01-3.36-5.7c-.86-2-1.83-4.18-4.6-4.26a2 2 0 10-.13 4h.09a7.87 7.87 0 011 1.87 25.73 25.73 0 004 6.66 10.61 10.61 0 009.07 3.72 16.24 16.24 0 005.06-1.1 2 2 0 00.99-2.62zM70 34.75a2 2 0 00-1.89 2.1l3.42 66.9a2 2 0 104-.2l-3.41-66.91A2 2 0 0070 34.75z"/><path d="M62.05 79.79c-6.2-3.69-2.65-12.14-2.49-12.51a2 2 0 10-3.66-1.6c-1.82 4.15-3.29 13.14 4.1 17.54a2 2 0 102-3.43zM68.87 12.33A2 2 0 0067 14.42l.5 10a2 2 0 104-.2l-.51-10a2 2 0 00-2.12-1.89zM74.06 114.12a2 2 0 00-1.89 2.09l.51 10a2 2 0 104-.21l-.51-10a2 2 0 00-2.11-1.88zM25.82 70.55l-10 .51a2 2 0 00-1.9 2.1A2 2 0 0016 75.05l10-.51a2 2 0 00-.2-4zM127.61 65.36l-10 .51a2 2 0 00.21 4l10-.51a2 2 0 00-.2-4zM39.05 37.92l-7.42-6.69a2 2 0 10-2.68 3l7.42 6.7a2 2 0 001.43.51 2 2 0 001.25-3.48zM114.7 106.23l-7.42-6.69a2 2 0 00-2.68 3l7.41 6.7a2 2 0 001.45.5 2 2 0 001.24-3.47zM110.66 27.2a2 2 0 00-2.82.14l-6.69 7.41a2 2 0 103 2.68l6.7-7.41a2 2 0 00-.19-2.82zM42.36 102.85a2 2 0 00-2.82.14l-6.7 7.42a2 2 0 001.58 3.32 2 2 0 001.39-.65l6.69-7.42a2 2 0 00-.14-2.81z"/></g></g></svg>