<svg xmlns="http://www.w3.org/2000/svg" viewBox="0 0 99.72 94.93"><g data-name="Layer 2"><g opacity=".24" fill="#4c6d83"><path d="M88 21.44a43.15 43.15 0 01-1.85 3.91 2.63 2.63 0 00-.23 1.36c.18 1.93 0 3.85 0 5.78a23.53 23.53 0 00.47 4.93h-5.63c-.24 0-.31-.06-.27-.29 1.28-8.27.39-16.58.56-24.87a62.55 62.55 0 00-.22-7.11 11.07 11.07 0 00-.68-2.95h6.46c-1.09 4.8-.61 9.62-.68 14.44a1.64 1.64 0 00.15.7l1.61-3.84a86.58 86.58 0 003.1-8.42 3.18 3.18 0 000-2.58c-.08-.15-.17-.44.22-.42 2.49.11 5 .09 7.54.09C95.17 5 93.87 9 92.17 12.79c-.45 1-.81 2.07-1.24 3.1a1.26 1.26 0 000 1q3.09 8 6.15 16a14.35 14.35 0 002.22 4.42h-7.61c.17-.4.58-.58.7-1a3.37 3.37 0 000-1.89A89.4 89.4 0 0088 21.44zM97.76 63.69a10.64 10.64 0 00-1.69-1.82 3.92 3.92 0 00-5.92.75 10.39 10.39 0 00-1.81 4.75A60.9 60.9 0 0088 80.66a27.92 27.92 0 001.3 7.13 7.92 7.92 0 00.33.8c1.16 2.49 2 2.43 4.34 2.19.29 0 .32-.16.32-.4 0-2.82.19-5.64.1-8.46a17.22 17.22 0 00-.55-4.23c-.09-.34 0-.45.35-.4a14.59 14.59 0 005.23 0c.31-.06.39.07.31.35a18 18 0 00-.57 5.61c0 2.67-.13 5.33-.12 8a12.2 12.2 0 00.37 3.39 13.77 13.77 0 01-2.55.2 31.25 31.25 0 01-6.7-.19 8.28 8.28 0 01-5.94-4.46 19.44 19.44 0 01-2.33-7 49.21 49.21 0 01-.45-10.91 23.88 23.88 0 012.42-9.91A9.63 9.63 0 0191.41 57a10.67 10.67 0 017.22 1.45c.22.15.43.24.29.57a11.81 11.81 0 00-1.16 4.67zM21 37.65H8.36a3.22 3.22 0 011-.86 3.72 3.72 0 001.59-2.87 28.75 28.75 0 00.05-3.71V9.88c0-1.22-.07-2.44-.11-3.65 0-.21 0-.42-.3-.45a10.11 10.11 0 00-5.28.6 4.46 4.46 0 00-1.78 1.44c-.17-.22 0-.4 0-.59.62-1.51 1.24-3 1.71-4.59.11-.38.31-.44.66-.43 4.93.14 9.85 0 14.77 0 .87 0 1.74-.06 2.61-.09.19 0 .4 0 .45.22a34.54 34.54 0 002 5.2.39.39 0 010 .33 7.33 7.33 0 00-3.86-2A11.13 11.13 0 0019 5.69c-.31 0-.49.11-.49.52v26a15.69 15.69 0 00.23 2.64 3.05 3.05 0 001.55 2.37c.25.07.42.22.71.43zM72.78 69.25c1.4 4.42 2.77 8.77 4.16 13.13a1.22 1.22 0 00.13-.67 72.73 72.73 0 00-.22-11.62c-.07-.61-.15-1.23-.28-1.83 0-.27 0-.37.27-.37h3.71c.28 0 .3.1.27.35-1.09 6.75-.59 13.56-.77 20.34a23.68 23.68 0 00.49 5.69c.06.25 0 .36-.27.36H76.1c-.32 0-.33-.21-.38-.4-1.41-5-3.16-9.94-4.88-14.86 0-.09-.07-.17-.1-.26-.21 0-.13.18-.14.28-.08 3.86-.24 7.72 0 11.58a29.35 29.35 0 00.33 3.1c.06.36.08.6-.45.57h-3.12c-.33 0-.43-.09-.28-.4a5.23 5.23 0 00.35-2.44c-.09-5.44.15-10.89.1-16.33a4.84 4.84 0 010-1.94c.25-.49 1-.73 1.51-1.11a30.11 30.11 0 003.74-3.17zM77.44 5.93a4.79 4.79 0 00-6.69.4A8.49 8.49 0 0068.9 11a23.17 23.17 0 00.4 7.87 6.38 6.38 0 008.55 4.5c.15-.06.32-.24.48-.09s0 .32-.06.48a8.62 8.62 0 00-.27 1.16A1.11 1.11 0 0176.87 26a20.1 20.1 0 01-7-.25 2.3 2.3 0 01-.82-.39 26.79 26.79 0 00-4.29-2.6 1.65 1.65 0 01-.64-.56 10 10 0 01-1.63-4.75 26.11 26.11 0 01.23-8.18c.8-3.91 3.36-6 7.13-6.88a21.23 21.23 0 018.33 0c.48.08.58.22.37.69-.37.92-.72 1.92-1.11 2.85zM55.28 87.93c.32-2.79.63-5.56.95-8.33 0-.15.05-.3.08-.45.07-.49-.1-1.14.27-1.43s1-.22 1.43-.32l1.34-.3c-.22 1.59-.43 3.12-.63 4.66-.3 2.26-.59 4.51-.87 6.77q-.36 2.93-.7 5.85c0 .22-.11.29-.32.29h-3.07c-.27 0-.29-.12-.33-.34-.42-2.73-.86-5.46-1.4-8.2-.1.59-.21 1.18-.3 1.77-.32 2.14-.64 4.27-.93 6.4 0 .32-.16.38-.43.37h-2.9c-.28 0-.37-.07-.42-.37-.64-3.71-1.3-7.42-1.95-11.14l-1-5.5c0-.21 0-.42-.08-.66l2.62.56c.2 0 .27.16.31.36.53 3.19 1.08 6.37 1.62 9.56a.74.74 0 00.23.53l.58-2.92q.64-3.36 1.28-6.74c0-.26.14-.35.41-.34h1.91c.32 0 .4.14.45.39q.81 4.55 1.63 9.09c.04.14 0 .33.22.44zM33.91 75.54h6a5.67 5.67 0 011.56.57c.54.2 1.08.41 1.63.56.3.08.38.22.31.49 0 .08 0 .15-.05.23-.07.27.06.69-.19.8s-.35-.34-.59-.45a2.84 2.84 0 00-1.18-.22h-2.43c-.25 0-.29.09-.29.3v4.57c0 .36.18.37.43.38a10.21 10.21 0 003.75-.38v2.76c0 .31-.11.4-.37.27-1.12-.55-2.32-.2-3.48-.3-.22 0-.25.12-.26.29v6.5c0 .93.15 1 1.05 1a6.1 6.1 0 004.2-1.74c-.14.84-.27 1.68-.42 2.52-.19 1-.2 1-1.19 1h-7.76c-.48 0-.67 0-.51-.6a16.39 16.39 0 00.43-4.36c0-3.79 0-7.57-.07-11.36a7.94 7.94 0 00-.57-2.83zM65.83 76c-.79 1.72-.66 3.57-.67 5.42v7.17a20.85 20.85 0 00.81 6.1h-5.63c-.18 0-.31 0-.25-.25.75-2.79.56-5.63.54-8.46 0-2.2.1-4.4-.07-6.59a18.39 18.39 0 00-.3-2.23c0-.23 0-.28.19-.37a9.64 9.64 0 015.38-.79z"/><path d="M93.63 73c-.12.92-.53 1.16-1.51.91a2.28 2.28 0 01-1.27-.91 5 5 0 01.15-5.58 2.19 2.19 0 012.43-.59c.55.23.09.58.07.86s-.27.1-.39 0a.75.75 0 00-1 .32 5.17 5.17 0 000 4.54 1.12 1.12 0 001.52.45zM98.57 73.69c-.25 0-.31-.11-.31-.26s0-.31.26-.31.23.12.24.27a.25.25 0 01-.19.3zM80.13 49.13c0-.4.11-.9-.08-1.18s-.71-.08-1.09-.09-.35-.08-.37-.36a15.22 15.22 0 00-.25-2.35c-.12-.54.16-.57.5-.64 1-.21 1-.21.77-1.17s-.26-1.11-1.37-.86c-.32.07-.42 0-.5-.32-.14-.59-.34-1.18-.54-1.76-.25-.74-.26-.73.46-1s.75-.3.44-1.07c-.48-1.17-.49-1.19-1.67-.74-.32.12-.39 0-.51-.23a12.57 12.57 0 00-1-1.77c-.4-.55-.25-.79.27-1.09.72-.41.7-.45.25-1.14-.69-1.08-.69-1.09-1.77-.38-.27.19-.39.14-.58-.11a19.06 19.06 0 00-1.29-1.56c-.28-.3-.36-.47 0-.81.83-.76.81-.79 0-1.6s-.69-.7-1.37 0a3.31 3.31 0 00-.32.33c-.15.17-.26.17-.43 0-.64-.53-1.28-1.06-1.93-1.57-.22-.17-.23-.28-.08-.51s.76-.76.61-1.14-.7-.56-1.07-.83c-.1-.07-.2-.12-.29-.19s-.31-.09-.44.1c-.27.38-.43 1-.8 1.07s-.84-.4-1.26-.62-1-.32-1.18-.66.28-.85.42-1.3c0-.13.17-.3 0-.39A5.23 5.23 0 0062 22.5c-.32 0-.4.7-.56 1.1s-.25.46-.63.29a12.86 12.86 0 00-1.37-.44c-1-.31-1.1-.33-.84-1.39.15-.63-.07-.8-.61-.87s-1-.34-1.27-.17-.27.82-.35 1.27-.18.47-.53.4a11.15 11.15 0 00-2.3-.23c-.42 0-.51-.17-.5-.56 0-1.4 0-1.37-1.41-1.41-.58 0-.75.12-.72.71.06 1.21 0 1.2-1.16 1.27-.25 0-.49.07-.74.1-1 .1-1 .1-1.22-.91-.16-.85-.16-.85-1-.7l-.57.11c-.73.14-.73.14-.57.85.25 1.15.25 1.15-.88 1.46-.46.12-1 .45-1.36.32s-.44-.83-.64-1.28c0-.05-.06-.09-.08-.15s-.09-.15-.21-.1a6.08 6.08 0 00-1.71.78c-.22.21.28.8.41 1.24a.13.13 0 000 .06c.19.27.06.39-.2.5-.43.18-.84.39-1.25.6s-.82.6-1.17.55-.54-.69-.83-1l-.12-.19a.12.12 0 00-.19 0 6 6 0 00-1.52 1.11c-.18.24.39.71.6 1.09v.05c.18.19.13.31-.07.46-.72.55-1.43 1.11-2.13 1.69-.19.16-.3.16-.47 0s-.61-.64-.93-.95c-.1-.09-.19-.29-.38-.13a4.26 4.26 0 00-1.28 1.37c-.11.26.54.61.82 1a1.29 1.29 0 00.17.16c.26.2.31.36 0 .63a12.52 12.52 0 00-1 1.08c-.26.3-.5.83-.79.85s-.74-.34-1.07-.6-.61-.28-.84.18-.76.84-.72 1.21.73.6 1.13.87c.24.16.32.27.13.53a10 10 0 00-.62 1c-.21.38-.32 1-.64 1.12s-.83-.25-1.26-.38c-.13 0-.3-.19-.39 0a6 6 0 00-.65 1.77c0 .25.74.36 1.14.54h.05c.2.07.25.15.16.38-.22.55-.4 1.12-.58 1.68-.28.88-.29.92-1.2.68-.58-.16-.79 0-.81.58v.17c-.08.4-.37.86-.16 1.16s.73.24 1.13.3.35.16.31.43a16.09 16.09 0 00-.21 2.26c0 .64-.28.68-.79.66-1.11 0-1.11 0-1.11 1.05v.7c0 .23.07.42.39.4s.73 0 1.1 0 .36.09.36.36a15.37 15.37 0 00.22 2.54c.06.38 0 .57-.45.64-1 .15-1 .19-.78 1.17v.05c.22 1 .23 1 1.24.83.33-.06.48 0 .57.35.17.71.38 1.41.61 2.1.08.23.09.34-.15.45s-1 .19-1.09.53.28.81.44 1.22v.05c.09.63.42.61.91.39.75-.34.76-.32 1.12.39.15.3.3.58.46.87s.56.72.53 1.06-.61.51-.94.76-.27.22-.1.44c.29.41.56.83.83 1.25.12.21.24.28.45.09s.3-.17.42-.29c.42-.39.75-.41 1.05.15a5.5 5.5 0 00.64.82c.29.36.81.7.83 1.07s-.58.7-.92 1-.24.34 0 .55a8.5 8.5 0 01.9.9c.29.36.47.27.76 0 .87-.9.88-.88 1.81-.09l.54.44c.81.65.85.67.23 1.52-.33.46-.31.68.18 1 1.18.77 1.17.81 1.94-.36.19-.29.33-.28.59-.12.49.31 1 .58 1.5.85.8.43.8.43.46 1.28s-.3.73.43 1c.39.16.83.49 1.16.4s.41-.71.56-1.11.3-.31.56-.22a17.4 17.4 0 002 .64c.51.11.57.3.45.78-.24.93-.21.94.71 1.11 1.14.22 1.17.22 1.42-.91.07-.34.2-.4.49-.33a15.67 15.67 0 002.64.28c.45 0 .53.16.52.57 0 1 0 1 .94 1 1.14 0 1.15 0 1.2-1.14 0-.31.1-.39.39-.41a19 19 0 002.13-.22c.42-.07.51 0 .57.42.17 1 .2 1 1.14.78.36-.07.83 0 1-.26s-.06-.67-.12-1 0-.43.32-.51a11.93 11.93 0 002-.6c.47-.19.66-.13.83.35.3.86.33.85 1.17.51 1.08-.44 1.09-.44.67-1.56-.09-.25-.06-.35.19-.47a18.77 18.77 0 001.88-1c.4-.25.6-.26.87.18.48.79.51.77 1.3.23s1-.64.34-1.58c-.15-.23-.18-.35.09-.55.64-.48 1.26-1 1.87-1.54.18-.16.29-.19.46 0s.51.58.84 1c.28-.32.47-.59.7-.82.78-.78.8-.79 0-1.56-.24-.25-.21-.37 0-.6a13.71 13.71 0 001.28-1.57c.32-.47.57-.57 1.05-.19s.63.43 1.06-.2l.1-.15c.63-1 .64-1-.3-1.61-.23-.16-.26-.24-.12-.48.39-.66.77-1.34 1.09-2 .16-.34.31-.33.61-.21 1 .39 1 .38 1.36-.6s.4-1-.55-1.35c-.28-.12-.42-.23-.28-.59a21 21 0 00.63-2.09c.08-.31.23-.35.49-.3s.76.27 1 .14.22-.65.3-1c.21-1 .22-1-.77-1.19-.44-.07-.47-.26-.42-.61.08-.59.17-1.18.21-1.78.09-1.07.08-1.09 1.14-1.1.35 0 .44-.12.41-.43a2.8 2.8 0 01.03-.49zm-2.88-4.29c.26-.05.4-.06.46.3.13.8.17 1.61.26 2.41 0 .3-.15.3-.36.29h-4.86c-.41 0-.6-.21-.49-.5.19-.5-.7-1.25.25-1.49 1.57-.42 3.16-.69 4.74-1.01zm-.67-4.29c.17.66.4 1.31.59 1.91 0 .26-.11.26-.24.29-1.66.33-3.31.67-5 1-.23 0-.37 0-.42-.24v-.06c-.14-.47-.51-1.06-.35-1.39s.84-.42 1.3-.61c1.08-.44 2.18-.85 3.24-1.34.57-.23.74-.11.88.44zm-2.89-5c.31-.22.44-.16.6.14.33.63.68 1.25 1 1.87.06.1.1.21.15.31s-.14.17-.23.21L70.49 40c-.2.08-.32.07-.39-.15-.24-.44-.71-.91-.64-1.3s.73-.59 1.14-.87c1.01-.77 2.06-1.44 3.09-2.16zm-3-3.9c.22-.22.36-.27.58 0 .44.56.9 1.11 1.37 1.65.17.2.14.3-.07.44l-4.17 2.75-.23.14c-.13 0-.17-.1-.23-.16-1-1.07-1-1.06 0-2.12s1.86-1.81 2.77-2.73zm-3.77-3.31c.2-.32.35-.32.61-.1.54.47 1.1.91 1.65 1.36a3.18 3.18 0 01.26.26 2.84 2.84 0 01-.23.25l-3.56 3.54c-.17.17-.26.19-.47 0-1.16-.87-1.17-.86-.39-2s1.46-2.23 2.15-3.34zm-5.67 1.28c.51-1.26 1-2.51 1.53-3.78.11-.3.22-.35.49-.2.6.34 1.21.66 1.82 1a1.65 1.65 0 01.27.19l-.15.27c-.91 1.38-1.83 2.76-2.72 4.15-.18.28-.31.3-.58.15-1.12-.64-1.12-.63-.64-1.81zm-4.14-.39l1-5.08c.05-.28.21-.33.45-.25.69.22 1.38.46 2.08.65.29.08.3.22.2.45q-1 2.34-1.9 4.68c-.08.19-.16.29-.38.22l-1.26-.4c-.16-.08-.3-.15-.17-.3zm-3.59-6.14c.73.1 1.46.16 2.19.23.26 0 .39.08.31.44-.35 1.63-.66 3.27-1 4.92 0 .29-.19.33-.43.3s-.49-.08-.74-.1c-.89-.06-.89-.06-.89-1v-2-2.32c.04-.39.12-.56.58-.5zm-4.95.19c.65 0 1.3-.12 1.95-.19.28 0 .37.06.36.34v5.03c0 .3-.08.43-.38.41a2.84 2.84 0 00-.41 0c-.9 0-.89 0-1.07-.88-.28-1.4-.54-2.8-.86-4.18-.09-.46.03-.54.43-.56zm-4.53 1c.54-.13 1.07-.29 1.61-.44.18-.05.32-.11.37.17q.52 2.57 1.06 5.14c0 .18 0 .26-.23.33-1.11.4-1.11.41-1.56-.7-.53-1.28-1-2.57-1.58-3.84-.16-.47-.04-.61.35-.71zm-4.83 2.1c.65-.3 1.27-.64 1.91-1l.28-.12c.24 0 .24.15.28.26.64 1.57 1.27 3.16 1.92 4.73.12.28 0 .33-.19.41-.45.21-.93.64-1.33.57s-.6-.74-.88-1.14c-.72-1-1.41-2.11-2.13-3.16-.16-.29-.18-.45.16-.6zm-4.44 3.14a28.81 28.81 0 012.28-1.77c1 1.52 2 3 3 4.52.14.2.13.31-.08.45a14 14 0 00-1.14.89c-.22.2-.35.16-.56 0q-1.76-1.8-3.54-3.57c-.16-.29-.16-.39.06-.57zm-3.45 3.66c.5-.56 1-1.14 1.45-1.72.17-.21.27-.17.44 0 1.19 1.21 2.39 2.41 3.58 3.61.18.18.25.31 0 .51s-.49.55-.72.83a2.92 2.92 0 00-.17.27l-.33-.21c-1.4-.91-2.79-1.83-4.2-2.73-.22-.23-.25-.36-.03-.61zm-2.71 4.3c.38-.65.74-1.31 1.09-2 .11-.19.21-.24.41-.11 1.44 1 2.89 1.9 4.34 2.85a1.24 1.24 0 01.21.19c-.29.48-.54 1-.83 1.41-.08.11-.21 0-.31-.06l-4.76-1.91c-.2-.09-.26-.19-.13-.42zm-1.61 4c.15-.5.32-1 .48-1.48.08-.24.2-.32.47-.21 1.56.65 3.13 1.28 4.69 1.92.05 0 .14 0 .16.06.2.55-.26.95-.32 1.43 0 .25-.14.36-.28.29l-4.58-.91c-.88-.19-.88-.21-.62-1.1zm-1 5.83c0-.83.17-1.65.27-2.47 0-.3.14-.35.45-.29 1.63.35 3.27.67 4.91 1 .29.06.34.17.31.42-.06.44-.15.87-.17 1.31s-.22.49-.58.48h-2.36v-.06h-2.54c-.29-.03-.35-.1-.29-.39zm.2 5.48c-.08-.91-.17-1.81-.26-2.71 0-.32.19-.27.37-.27h4.93c.39 0 .49.12.48.49a11.92 11.92 0 00.11 1.33c0 .27-.06.35-.33.4-1.62.32-3.24.66-4.86 1-.28.05-.46.08-.49-.24zm1.62 5c-.23.1-.39.14-.47-.2-.18-.68-.41-1.35-.61-2-.06-.21-.09-.37.25-.44 1.65-.32 3.3-.67 5-1h.22c.38.36.3 1 .54 1.43s-.12.35-.3.42l-2.24.91zm2.15 4.52c-.29.2-.39.11-.52-.14-.33-.64-.66-1.29-1-1.93-.13-.24-.13-.35.16-.47l4.68-1.89c.12-.06.29-.14.37 0 .25.45.48.91.72 1.39 0 .16-.13.2-.24.27-1.45.92-2.84 1.83-4.22 2.77zM33 66.38c-.22.23-.35.27-.56 0-.47-.61-1-1.2-1.46-1.79-.14-.17-.2-.31 0-.47 1.43-.93 2.86-1.88 4.28-2.82l.29-.2c0 .08.08.18.13.26s.18.24.28.37c.24.31.69.64.66.93s-.51.59-.79.87c-.92.94-1.83 1.88-2.83 2.85zm3.58 3.33c-.15.24-.25.27-.46.08-.54-.47-1.1-.91-1.65-1.37-.16-.13-.26-.23 0-.43 1.23-1.2 2.44-2.42 3.66-3.62a.47.47 0 01.18-.14 4 4 0 011.19 1.06l-.16.26zm5.88-1.45c-.52 1.3-1.05 2.59-1.55 3.89-.15.41-.33.44-.66.24-.58-.34-1.17-.66-1.76-1-.21-.11-.34-.22-.15-.5.93-1.39 1.83-2.79 2.75-4.19 0-.06.09-.18.13-.18.53 0 .89.46 1.36.64.13.06.26.11.19.36s-.2.48-.31.74zm3.89 1.81c-.25 1.28-.52 2.56-.78 3.84 0 .18 0 .41-.34.36-.77-.22-1.58-.45-2.37-.76-.24-.1-.13-.21-.08-.35q.94-2.31 1.88-4.64c.1-.28.24-.36.51-.23l.21.08c.39.19 1 .11 1.16.47s-.1.81-.19 1.23zm4.73 2.23v2.43c0 .29-.07.38-.38.38-.91 0-1.8-.17-2.7-.26-.28 0-.37-.13-.31-.4.33-1.66.65-3.31 1-5 0-.18.1-.27.35-.23a16.66 16.66 0 001.72.16c.31 0 .39.11.39.41-.08.86-.07 1.68-.07 2.51zm4.59 2.57c-.67 0-1.34.13-2 .22-.35 0-.5 0-.48-.45v-2.37-2.49c0-.26 0-.42.34-.37h.18c.39 0 .87-.31 1.16 0s.19.72.27 1.1c.27 1.32.53 2.63.8 4 .06.18.06.34-.27.36zm1-7.58c-.16-.83-.16-.83-1-.67-1.28.25-1.28.25-1 1.53.08.36 0 .55-.39.56s-.69 0-1.08.07V67.4c0-.28-.08-.38-.35-.38H51.4c-.22 0-.33.07-.31.3v.12c0 .45.19 1.2-.11 1.3a4.37 4.37 0 01-2-.14c-.2 0-.09-.2-.07-.33.06-.46.41-1 .15-1.35s-.87-.18-1.3-.33-.72 0-.8.55c-.15 1-.19 1-1.17.7-.71-.24-.71-.24-.43-.95a2 2 0 01.15-.37c.19-.3.09-.46-.22-.55l-.37-.14c-.4-.15-.83-.48-1.17-.4s-.35.66-.5 1-.22.25-.43.12c-.37-.23-.76-.44-1.14-.65.16-.46.74-.81.61-1.2s-.71-.48-1-.76-.77-.35-1 .21-.5.54-.8.12c-.18-.25-.9-.29-.37-.87.24-.26.74-.44.67-.79s-.47-.54-.72-.8c-.69-.69-.71-.71-1.39 0-.33.35-.49.26-.74-.06-.8-1-.82-1 .26-1.69.29-.19.37-.3.13-.6a9.61 9.61 0 01-.77-1.15c-.13-.21-.23-.27-.45-.1s-.55.35-.81.54-.31.19-.47-.07c-.69-1.14-.71-1.15.53-1.64.34-.14.43-.27.26-.61a6.29 6.29 0 01-.45-1.11c-.12-.42-.31-.41-.66-.26-1.14.5-1.14.48-1.47-.73-.09-.34 0-.47.34-.54s1 0 1.17-.31-.08-.8-.16-1.21c-.15-.8-.15-.8-1-.64-1 .19-1 .19-1-.79s0-1 1-1c.34 0 .45-.11.42-.43a4.51 4.51 0 010-.52c0-1.09 0-1.1-1-1.16-.25 0-.37-.07-.33-.33s0-.46.09-.69c.15-1 .16-1 1.16-.77.38.1.62.1.64-.39a3.18 3.18 0 01.21-1c.23-.57-.06-.72-.55-.78-.28 0-.56-.11-.86-.16.14-.43.29-.83.39-1.24s.25-.31.5-.21.78.46 1 .35.36-.67.51-1c.34-.82.35-.87-.48-1.15-.53-.18-.57-.39-.26-.79 0 0 0-.1.08-.15.4-.71.42-.73 1.09-.25.38.28.6.23.78-.18a2.46 2.46 0 01.22-.34c.19-.31.54-.61.55-.92s-.51-.4-.77-.61c0 0-.09 0-.09-.06 0-.54.48-.72.71-1.09.13-.22.26-.18.44 0 .65.6.65.59 1.28 0l.16-.16c.63-.64.64-.64.05-1.32-.15-.17-.16-.27 0-.4s.23-.19.36-.28c.31-.23.61-.62.93-.63s.46.53.68.83.29.29.54.1a12.8 12.8 0 011.15-.77c.29-.16.25-.32.09-.54s-.39-.56-.59-.86c.17-.1.31-.19.47-.27 1-.53 1-.54 1.47.47.12.28.24.29.47.19s.39-.15.58-.24.79-.22.95-.47-.17-.62-.3-.93 0-.36.22-.41h.22c.77-.23.78-.23.91.54.06.39.16.66.64.44a2.78 2.78 0 01.5-.11c.34-.08.78 0 1-.26s-.06-.6-.12-.92c0-.12-.1-.29.11-.32a7 7 0 011.2-.11c.3 0 .16.3.16.47 0 .78 0 .78.8.78H52c.32 0 .72.08 1-.07s.07-.58.08-.88.1-.35.35-.31h.28c.38.05.88 0 1.12.18s-.07.68-.12 1c0 .15 0 .21.16.24l1.64.34c.34.07.31-.21.35-.39.19-.86.18-.86 1-.59l.28.08c.43.07.48.27.31.66-.34.74-.31.75.42 1l.22.08c.32.12.67.38 1 .33s.28-.54.43-.83.18-.34.41-.15l.15.08c.92.47.93.48.38 1.34-.15.24-.13.36.11.48a5.79 5.79 0 01.58.38c.86.55.86.55 1.46-.25.15-.2.24-.22.45-.07 1.08.73 1.08.72-.06 1.92.45.4.93.8 1.37 1.23.18.17.28.13.42 0l.8-.85c.12.15.19.26.28.36.8.86.81.87-.13 1.55-.26.18-.21.29-.07.49.27.38.53.76.76 1.16s.28.28.54.11c.94-.6.92-.58 1.48.39.26.44.17.6-.28.76-.85.29-.85.32-.5 1.16.45 1.11.45 1.12 1.57.68.26-.1.38-.08.44.19v.06c.47 1.23.47 1.24-.77 1.53-.32.07-.47.17-.38.52s.2.86.28 1.3c0 .28.15.42.45.29 1.3-.27 1.47-.11 1.42 1.24 0 .24-.1.3-.31.29a4.67 4.67 0 01-.75 0c-.55-.1-.69.16-.64.63v.06c0 .46-.13 1 .09 1.35s.82.11 1.26.1.38.12.35.4a5 5 0 00-.09 1.09c.06.63-.28.56-.69.48-1-.21-1-.2-1.2.84s-.18 1.09.88 1.24c.46.07.51.22.39.62-.34 1.12-.33 1.14-1.43.67-.37-.16-.58-.18-.69.28a5.64 5.64 0 01-.35.85c-.27.67-.27.67.43.94.86.33.86.33.43 1.13a2 2 0 00-.1.21c-.16.5-.41.45-.79.19-.87-.62-.88-.6-1.47.3s-.58.89.33 1.46c.36.23.45.39.13.76-.76.87-.75.9-1.53.07-.32-.34-.54-.43-.82 0-.34.35-.89.65-1 1s.54.69.87 1c.18.18.2.29 0 .45-.38.29-.74.6-1.13.91-.27-.41-.53-.79-.77-1.19-.14-.22-.25-.22-.46-.08-.4.29-.82.57-1.25.83-.22.13-.25.26-.07.45a.67.67 0 01.09.14c.74 1.14.74 1.13-.49 1.69-.22.1-.33.1-.42-.15s-.27-.67-.39-1-.19-.37-.49-.22a11.83 11.83 0 01-1.28.52c-.26.1-.41.2-.21.5a3.08 3.08 0 01.21.53c.32.81.32.81-.52 1.08s-.93.3-1.12-.66zm3.92 6.39c-.72.21-1.44.41-2.14.64-.3.1-.35 0-.4-.25-.32-1.62-.67-3.23-1-4.85 0-.12-.13-.32.09-.4l1.53-.48c.24 0 .25.16.3.28.62 1.53 1.23 3.06 1.87 4.58.16.31.01.4-.24.48zm4.53-2.11c-.6.3-1.18.63-1.77 1l-.3.13c-.22 0-.21-.15-.25-.27-.63-1.53-1.24-3.06-1.88-4.58-.1-.26 0-.36.18-.49 1.27-.74 1.27-.74 2.07.47.7 1.06 1.38 2.13 2.11 3.16.26.29.17.42-.15.58zm4.19-3.06l-1.7 1.4c-.22.18-.33.21-.52-.07-.89-1.38-1.8-2.73-2.72-4.09-.18-.27-.14-.42.11-.59s.76-.8 1.14-.81.7.6 1 .93c.89.88 1.77 1.78 2.65 2.67.09.09.23.15.24.39zm3.54-3.88a22.92 22.92 0 01-1.71 2.05L67.39 63s-.07-.06-.07-.09c-.16-.67.57-.84.76-1.31.09-.22.24-.29.49-.12 1.39.93 2.79 1.84 4.2 2.75.23.11.23.19.09.4zm2.59-4.26c-.36.63-.69 1.29-1 1.93-.06.1-.07.28-.27.25l-.29-.18c-1.34-.87-2.67-1.76-4-2.62-.26-.16-.36-.29-.16-.57s.28-1.07.68-1.18.88.28 1.32.46c1.18.47 2.35 1 3.53 1.42.27.12.37.2.2.49zm1.73-4.73c-.22.71-.45 1.42-.66 2.14-.08.28-.2.25-.42.16l-4.64-1.88c-.21-.08-.31-.15-.2-.42a6.4 6.4 0 00.36-1.15c0-.22.12-.31.37-.22 1.63.32 3.29.67 5 1 .24.03.27.15.2.37zm.83-5.26c-.08.78-.15 1.57-.22 2.35 0 .39-.18.51-.6.42-1.5-.33-3-.61-4.51-.91-.37-.07-.64-.14-.48-.64a3.18 3.18 0 00.11-1.15c0-.43.14-.55.57-.53h4.73c.33.01.4.13.4.46zM19.83 80.24c-.54-2.6-1.74-4.69-4.62-5.43A5 5 0 0017.86 72a15.39 15.39 0 00-.07-11.86A4.7 4.7 0 0013.15 57H3.82c-.27 0-.4 0-.27.34a15 15 0 01.87 5.39V88.8a15.9 15.9 0 01-.17 3A5.05 5.05 0 013 94.61a.56.56 0 00.17.06c3.16 0 6.33.09 9.49.21a6.35 6.35 0 001.44-.15 6.84 6.84 0 005.5-5.28 18.65 18.65 0 00.23-9.21zm-9.78-20.56h.23c1.91-.59 2.65.27 3.1 1.64a14.45 14.45 0 01.3 8.68 4.45 4.45 0 01-.9 1.67 2.39 2.39 0 01-2.94.58c-.3-.15-.29-.37-.29-.62v-5.7-5.67c-.01-.39.1-.58.5-.58zm4.34 30.69a2.8 2.8 0 01-3.51 1.88 1.17 1.17 0 01-1-.8 8.27 8.27 0 01-.38-2.56c-.07-2 .19-3.93.09-5.55v-6.55a.6.6 0 01.47-.66 2.54 2.54 0 013.08.92A9.66 9.66 0 0115 81.17a16 16 0 01-.61 9.2zM38.87 15.94c-.13-.28-.11-.41.18-.56a4.89 4.89 0 001.87-1.77 7.63 7.63 0 001-5.49 6.8 6.8 0 00-2.46-4.44 7.26 7.26 0 00-4.37-1.25c-3-.13-6 .23-9.1 0a3.59 3.59 0 01.62 1.3 12.66 12.66 0 01.26 2.88c0 3.3 0 6.6.09 9.9a38.59 38.59 0 01-.43 9.17c-.07.35.09.37.37.37h4.7c.94 0 .94 0 .72-.93a29.79 29.79 0 01-.32-7.84c0-.15 0-.28.22-.25a9.46 9.46 0 002.19-.15.49.49 0 01.56.35c.92 1.92 1.82 3.85 2.64 5.82.15.36.27.34.56.18a22 22 0 013.08-1.43c.45-.16.39-.32.21-.64-.94-1.71-1.77-3.46-2.59-5.22zM35 14.07a2.87 2.87 0 01-2.59 1.1c-.35 0-.45-.12-.45-.47V9.83 4.91c0-.36.1-.48.47-.55a2.92 2.92 0 013.16 1.37 7.51 7.51 0 01-.59 8.34zM33.42 94.65c-.22-.54-.42-1.05-.63-1.56-1.28-3.25-1.93-6.67-3-10-.09-.28.09-.42.25-.58 2.65-2.59 4-8.33 1.19-12.28A5.06 5.06 0 0027 67.88c-2.18 0-4.35.25-6.57.09a19.12 19.12 0 01.57 4.46c-.06 7.3.48 14.6-.21 21.88 0 .27 0 .38.32.37h4.11c.31 0 .34-.08.28-.37-.13-.62-.23-1.25-.3-1.88a66.45 66.45 0 01-.2-6.77 2.71 2.71 0 010-1c.15-.37.64-.12 1-.3s.56-.08.68.35c.56 1.89 1.16 3.77 1.72 5.67.41 1.4.9 2.8.23 4.3zm-5.82-14.2a3.93 3.93 0 01-.92 1.39 2.12 2.12 0 01-.7.4c-.72.21-.93.06-.93-.69v-5.38-5.5c0-.42.13-.58.51-.64a1.63 1.63 0 011.73.78 6.62 6.62 0 011 2.69 11.65 11.65 0 01-.69 6.95z"/><path d="M60.44 20.74c-.88-2.46-1.78-4.91-2.64-7.38-.94-2.69-1.87-5.36-2.8-8.11-.27-.81-.39-1.66.54-2.2H48.5c.8.45.73 1.16.62 1.86a4 4 0 01-.25.88c-1.29 3.49-2.44 7-3.6 10.57a86.75 86.75 0 01-1.69 4.62 19.2 19.2 0 014-.84c1.05-.05 1.66-.44 1.8-1.5v-.1c.06-.31.25-.38.55-.37h3.24c1.41 0 1.42 0 1.8 1.34a.58.58 0 00.58.5 27.88 27.88 0 014.93 1c.06-.11-.01-.18-.04-.27zm-6.82-6.34c-.26.27-1 .07-1.55.08s-1 0-1.45 0c-.26 0-.35-.07-.28-.33.52-1.93 1-3.86 1.55-5.79 0 0 .06-.09.11-.17a43.7 43.7 0 011.33 4.65.13.13 0 000 .06c.1.53.58 1.2.29 1.5zM98.07 68.19a1.87 1.87 0 00-1.68-1.44 2 2 0 00-2 1.21 5.71 5.71 0 00-.48 2.76 4.41 4.41 0 00.69 2.4 1.86 1.86 0 003.23-.19 5.88 5.88 0 00.55-2.74 6.16 6.16 0 00-.31-2zm-1.27 2.18a9.39 9.39 0 01-.12 1.91 2.75 2.75 0 01-.14.49c-.07.16-.15.32-.36.34s-.34-.15-.43-.31a4.58 4.58 0 01-.42-1.8 6.76 6.76 0 01.3-3c.08-.23.19-.48.42-.49s.32.25.42.44a5.3 5.3 0 01.33 2.42zM39.47 41.87c.07-1.64.14-3.19.18-4.73 0-.41.14-.52.54-.51 6.72.16 13.44.06 20.16.13h4.26c-.45.82-.81 1.57-1.25 2.27a88.78 88.78 0 00-6 11.38 53 53 0 00-3.16 8 7.67 7.67 0 00-.2 4.22 4.28 4.28 0 001.08 1.83H44.3c-.08-.13 0-.21.09-.3 2.84-4 4.75-8.4 6.92-12.71C53 48 54.69 44.59 56.38 41.18c.3-.61.31-.62-.35-.62-3 0-6-.2-8.92-.11a29.58 29.58 0 00-6.08.68 3.12 3.12 0 00-1.56.74z"/></g><path d="M85 19.44a43.15 43.15 0 01-1.85 3.91 2.63 2.63 0 00-.23 1.36c.18 1.93 0 3.85 0 5.78a23.53 23.53 0 00.47 4.93h-5.63c-.24 0-.31-.06-.27-.29 1.28-8.27.39-16.58.56-24.87a62.55 62.55 0 00-.22-7.11A11.07 11.07 0 0077.12.2h6.46C82.52 5 83 9.82 82.93 14.64a1.64 1.64 0 00.15.7l1.61-3.84a86.58 86.58 0 003.1-8.42 3.18 3.18 0 000-2.58c-.08-.15-.17-.44.22-.42 2.49.11 5 .09 7.54.09C92.17 3 90.87 7 89.17 10.79c-.45 1-.81 2.07-1.24 3.1a1.26 1.26 0 000 1q3.09 8 6.15 16a14.35 14.35 0 002.22 4.42h-7.61c.17-.4.58-.58.7-1a3.37 3.37 0 000-1.89A89.4 89.4 0 0085 19.44zM94.76 61.69a10.64 10.64 0 00-1.69-1.82 3.92 3.92 0 00-5.92.75 10.39 10.39 0 00-1.81 4.75A60.9 60.9 0 0085 78.66a27.92 27.92 0 001.3 7.13 7.92 7.92 0 00.33.8c1.16 2.49 2 2.43 4.34 2.19.29 0 .32-.16.32-.4 0-2.82.19-5.64.1-8.46a17.22 17.22 0 00-.55-4.23c-.09-.34 0-.45.35-.4a14.59 14.59 0 005.23 0c.31-.06.39.07.31.35a18 18 0 00-.57 5.61c0 2.67-.13 5.33-.12 8a12.2 12.2 0 00.37 3.39 13.77 13.77 0 01-2.55.2 31.25 31.25 0 01-6.7-.19 8.28 8.28 0 01-5.94-4.46 19.44 19.44 0 01-2.33-7 49.21 49.21 0 01-.45-10.91 23.88 23.88 0 012.42-9.91A9.63 9.63 0 0188.41 55a10.67 10.67 0 017.22 1.45c.22.15.43.24.29.57a11.81 11.81 0 00-1.16 4.67zM18 35.65H5.36a3.22 3.22 0 011-.86 3.72 3.72 0 001.59-2.87A28.75 28.75 0 008 28.21V7.88c0-1.22-.07-2.44-.11-3.65 0-.21 0-.42-.3-.45a10.11 10.11 0 00-5.28.6A4.46 4.46 0 00.53 5.82c-.17-.22-.05-.4 0-.59.62-1.51 1.24-3 1.71-4.59.11-.38.31-.44.66-.43 4.93.14 9.85.05 14.77 0 .87 0 1.74-.06 2.61-.09.19 0 .4 0 .45.22a34.54 34.54 0 002 5.2.39.39 0 010 .33 7.33 7.33 0 00-3.86-2A11.13 11.13 0 0016 3.69c-.31 0-.49.11-.49.52v26a15.69 15.69 0 00.23 2.64 3.05 3.05 0 001.55 2.37c.25.07.42.22.71.43zM69.78 67.25c1.4 4.42 2.77 8.77 4.16 13.13a1.22 1.22 0 00.13-.67 72.73 72.73 0 00-.22-11.62c-.07-.61-.15-1.23-.28-1.83 0-.27 0-.37.27-.37h3.71c.28 0 .3.1.27.35-1.09 6.75-.59 13.56-.77 20.34a23.68 23.68 0 00.49 5.69c.06.25 0 .36-.27.36H73.1c-.32 0-.33-.21-.38-.4-1.41-5-3.16-9.94-4.88-14.86 0-.09-.07-.17-.1-.26-.21 0-.13.18-.14.28-.08 3.86-.24 7.72 0 11.58a29.35 29.35 0 00.33 3.1c.06.36.08.6-.45.57h-3.12c-.33 0-.43-.09-.28-.4a5.23 5.23 0 00.35-2.44c-.09-5.44.15-10.89.1-16.33a4.84 4.84 0 010-1.94c.25-.49 1-.73 1.51-1.11a30.11 30.11 0 003.74-3.17zM74.44 3.93a4.79 4.79 0 00-6.69.4A8.49 8.49 0 0065.9 9a23.17 23.17 0 00.4 7.87 6.38 6.38 0 008.55 4.5c.15-.06.32-.24.48-.09s0 .32-.06.48a8.62 8.62 0 00-.27 1.16A1.11 1.11 0 0173.87 24a20.1 20.1 0 01-7-.25 2.3 2.3 0 01-.82-.39 26.79 26.79 0 00-4.29-2.6 1.65 1.65 0 01-.64-.56 10 10 0 01-1.63-4.75 26.11 26.11 0 01.23-8.18c.8-3.91 3.36-6 7.13-6.88a21.23 21.23 0 018.33 0c.48.08.58.22.37.69-.37.92-.72 1.92-1.11 2.85zM52.28 85.93c.32-2.79.63-5.56.95-8.33 0-.15.05-.3.08-.45.07-.49-.1-1.14.27-1.43s1-.22 1.43-.32l1.34-.3c-.22 1.59-.43 3.12-.63 4.66-.3 2.26-.59 4.51-.87 6.77q-.36 2.93-.7 5.85c0 .22-.11.29-.32.29h-3.07c-.27 0-.29-.12-.33-.34-.42-2.73-.86-5.46-1.4-8.2-.1.59-.21 1.18-.3 1.77-.32 2.14-.64 4.27-.93 6.4 0 .32-.16.38-.43.37h-2.9c-.28 0-.37-.07-.42-.37-.64-3.71-1.3-7.42-1.95-11.14l-1-5.5c0-.21 0-.42-.08-.66l2.62.56c.2 0 .27.16.31.36.53 3.19 1.08 6.37 1.62 9.56a.74.74 0 00.23.53l.58-2.92q.64-3.36 1.28-6.74c0-.26.14-.35.41-.34h1.91c.32 0 .4.14.45.39q.81 4.55 1.63 9.09c.04.14 0 .33.22.44zM30.91 73.54h6a5.67 5.67 0 011.56.57c.54.2 1.08.41 1.63.56.3.08.38.22.31.49 0 .08 0 .15-.05.23-.07.27.06.69-.19.8s-.35-.34-.59-.45a2.84 2.84 0 00-1.18-.22h-2.43c-.25 0-.29.09-.29.3v4.57c0 .36.18.37.43.38a10.21 10.21 0 003.75-.38v2.76c0 .31-.11.4-.37.27-1.12-.55-2.32-.2-3.48-.3-.22 0-.25.12-.26.29v6.5c0 .93.15 1 1.05 1a6.1 6.1 0 004.2-1.74c-.14.84-.27 1.68-.42 2.52-.19 1-.2 1-1.19 1h-7.76c-.48 0-.67 0-.51-.6a16.39 16.39 0 00.43-4.36c0-3.79 0-7.57-.07-11.36a7.94 7.94 0 00-.57-2.83zM62.83 74c-.79 1.72-.66 3.57-.67 5.42v7.17a20.85 20.85 0 00.81 6.1h-5.63c-.18 0-.31 0-.25-.25.75-2.79.56-5.63.54-8.46 0-2.2.1-4.4-.07-6.59a18.39 18.39 0 00-.3-2.23c0-.23 0-.28.19-.37a9.64 9.64 0 015.38-.79z" fill="#546db4"/><path d="M90.63 71c-.12.92-.53 1.16-1.51.91a2.28 2.28 0 01-1.27-.91 5 5 0 01.15-5.58 2.19 2.19 0 012.43-.59c.55.23.09.58.07.86s-.27.1-.39 0a.75.75 0 00-1 .32 5.17 5.17 0 000 4.54 1.12 1.12 0 001.52.45zM95.57 71.69c-.25 0-.31-.11-.31-.26s0-.31.26-.31.23.12.24.27a.25.25 0 01-.19.3z" fill="#546db4"/><path d="M77.13 47.13c0-.4.11-.9-.08-1.18s-.71-.08-1.09-.09-.35-.08-.37-.36a15.22 15.22 0 00-.25-2.35c-.12-.54.16-.57.5-.64 1-.21 1-.21.77-1.17s-.26-1.11-1.37-.86c-.32.07-.42 0-.5-.32-.14-.59-.34-1.18-.54-1.76-.25-.74-.26-.73.46-1s.75-.3.44-1.07c-.48-1.17-.49-1.19-1.67-.74-.32.12-.39 0-.51-.23a12.57 12.57 0 00-1-1.77c-.4-.55-.25-.79.27-1.09.72-.41.7-.45.25-1.14-.69-1.08-.69-1.09-1.77-.38-.27.19-.39.14-.58-.11a19.06 19.06 0 00-1.29-1.56c-.28-.3-.36-.47 0-.81.83-.76.81-.79 0-1.6s-.69-.7-1.37 0a3.31 3.31 0 00-.32.33c-.15.17-.26.17-.43 0-.64-.53-1.28-1.06-1.93-1.57-.22-.17-.23-.28-.08-.51s.76-.76.61-1.14-.7-.56-1.07-.83c-.1-.07-.2-.12-.29-.19s-.31-.09-.44.1c-.27.38-.43 1-.8 1.07s-.84-.4-1.26-.62-1-.32-1.18-.66.28-.85.42-1.3c0-.13.17-.3 0-.39A5.23 5.23 0 0059 20.5c-.32 0-.4.7-.56 1.1s-.25.46-.63.29a12.86 12.86 0 00-1.37-.44c-1-.31-1.1-.33-.84-1.39.15-.63-.07-.8-.61-.87s-1-.34-1.27-.17-.27.82-.35 1.27-.18.47-.53.4a11.15 11.15 0 00-2.3-.23c-.42 0-.51-.17-.5-.56 0-1.4 0-1.37-1.41-1.41-.58 0-.75.12-.72.71.06 1.21 0 1.2-1.16 1.27-.25 0-.49.07-.74.1-1 .1-1 .1-1.22-.91-.16-.85-.16-.85-1-.7l-.57.11c-.73.14-.73.14-.57.85.25 1.15.25 1.15-.88 1.46-.46.12-1 .45-1.36.32s-.44-.83-.64-1.28c0-.05-.06-.09-.08-.15s-.09-.15-.21-.1a6.08 6.08 0 00-1.71.78c-.22.21.28.8.41 1.24a.13.13 0 000 .06c.19.27.06.39-.2.5-.43.18-.84.39-1.25.6s-.82.6-1.17.55-.54-.69-.83-1l-.12-.19a.12.12 0 00-.19 0 6 6 0 00-1.52 1.11c-.18.24.39.71.6 1.09v.05c.18.19.13.31-.07.46-.72.55-1.43 1.11-2.13 1.69-.19.16-.3.16-.47 0s-.61-.64-.93-.95c-.1-.09-.19-.29-.38-.13a4.26 4.26 0 00-1.28 1.37c-.11.26.54.61.82 1a1.29 1.29 0 00.17.16c.26.2.31.36 0 .63a12.52 12.52 0 00-1 1.08c-.26.3-.5.83-.79.85s-.74-.34-1.07-.6-.61-.28-.84.18-.76.84-.72 1.21.73.6 1.13.87c.24.16.32.27.13.53a10 10 0 00-.62 1c-.21.38-.32 1-.64 1.12s-.83-.25-1.26-.38c-.13 0-.3-.19-.39 0a6 6 0 00-.65 1.77c0 .25.74.36 1.14.54h.05c.2.07.25.15.16.38-.22.55-.4 1.12-.58 1.68-.28.88-.29.92-1.2.68-.58-.16-.79 0-.81.58v.17c-.08.4-.37.86-.16 1.16s.73.24 1.13.3.35.16.31.43a16.09 16.09 0 00-.21 2.26c0 .64-.28.68-.79.66-1.11 0-1.11 0-1.11 1.05v.7c0 .23.07.42.39.4s.73 0 1.1 0 .36.09.36.36a15.37 15.37 0 00.22 2.54c.06.38 0 .57-.45.64-1 .15-1 .19-.78 1.17v.05c.22 1 .23 1 1.24.83.33-.06.48 0 .57.35.17.71.38 1.41.61 2.1.08.23.09.34-.15.45s-1 .19-1.09.53.28.81.44 1.22v.05c.09.63.42.61.91.39.75-.34.76-.32 1.12.39.15.3.3.58.46.87s.56.72.53 1.06-.61.51-.94.76-.27.22-.1.44c.29.41.56.83.83 1.25.12.21.24.28.45.09s.3-.17.42-.29c.42-.39.75-.41 1.05.15a5.5 5.5 0 00.64.82c.29.36.81.7.83 1.07s-.58.7-.92 1-.24.34 0 .55a8.5 8.5 0 01.9.9c.29.36.47.27.76 0 .87-.9.88-.88 1.81-.09l.54.44c.81.65.85.67.23 1.52-.33.46-.31.68.18 1 1.18.77 1.17.81 1.94-.36.19-.29.33-.28.59-.12.49.31 1 .58 1.5.85.8.43.8.43.46 1.28s-.3.73.43 1c.39.16.83.49 1.16.4s.41-.71.56-1.11.3-.31.56-.22a17.4 17.4 0 002 .64c.51.11.57.3.45.78-.24.93-.21.94.71 1.11 1.14.22 1.17.22 1.42-.91.07-.34.2-.4.49-.33a15.67 15.67 0 002.64.28c.45 0 .53.16.52.57 0 1 0 1 .94 1 1.14 0 1.15 0 1.2-1.14 0-.31.1-.39.39-.41a19 19 0 002.13-.22c.42-.07.51 0 .57.42.17 1 .2 1 1.14.78.36-.07.83 0 1-.26s-.06-.67-.12-1 0-.43.32-.51a11.93 11.93 0 002-.6c.47-.19.66-.13.83.35.3.86.33.85 1.17.51 1.08-.44 1.09-.44.67-1.56-.09-.25-.06-.35.19-.47a18.77 18.77 0 001.88-1c.4-.25.6-.26.87.18.48.79.51.77 1.3.23.94-.64 1-.64.34-1.58-.15-.23-.18-.35.09-.55.64-.48 1.26-1 1.87-1.54.18-.16.29-.19.46 0s.51.58.84 1c.28-.32.47-.59.7-.82.78-.78.8-.79 0-1.56-.24-.25-.21-.37 0-.6a13.71 13.71 0 001.28-1.57c.32-.47.57-.57 1.05-.19s.63.43 1.06-.2l.1-.15c.63-1 .64-1-.3-1.61-.23-.16-.26-.24-.12-.48.39-.66.77-1.34 1.09-2 .16-.34.31-.33.61-.21 1 .39 1 .38 1.36-.6s.4-1-.55-1.35c-.28-.12-.42-.23-.28-.59a21 21 0 00.63-2.09c.08-.31.23-.35.49-.3s.76.27 1 .14.22-.65.3-1c.21-1 .22-1-.77-1.19-.44-.07-.47-.26-.42-.61.08-.59.17-1.18.21-1.78.09-1.07.08-1.09 1.14-1.1.35 0 .44-.12.41-.43a2.8 2.8 0 01.03-.49zm-2.88-4.29c.26-.05.4-.06.46.3.13.8.17 1.61.26 2.41 0 .3-.15.3-.36.29h-4.86c-.41 0-.6-.21-.49-.5.19-.5-.7-1.25.25-1.49 1.57-.42 3.16-.69 4.74-1.01zm-.67-4.29c.17.66.4 1.31.59 1.91 0 .26-.11.26-.24.29-1.66.33-3.31.67-5 1-.23 0-.37 0-.42-.24v-.06c-.14-.47-.51-1.06-.35-1.39s.84-.42 1.3-.61c1.08-.44 2.18-.85 3.24-1.34.57-.23.74-.11.88.44zm-2.89-5c.31-.22.44-.16.6.14.33.63.68 1.25 1 1.87.06.1.1.21.15.31s-.14.17-.23.21L67.49 38c-.2.08-.32.07-.39-.15-.24-.44-.71-.91-.64-1.3s.73-.59 1.14-.87c1.01-.77 2.06-1.44 3.09-2.16zm-3-3.9c.22-.22.36-.27.58 0 .44.56.9 1.11 1.37 1.65.17.2.14.3-.07.44l-4.17 2.75-.23.14c-.13 0-.17-.1-.23-.16-1-1.07-1-1.06 0-2.12s1.86-1.81 2.77-2.73zm-3.77-3.31c.2-.32.35-.32.61-.1.54.47 1.1.91 1.65 1.36a3.18 3.18 0 01.26.26 2.84 2.84 0 01-.23.25l-3.56 3.54c-.17.17-.26.19-.47 0-1.16-.87-1.17-.86-.39-2s1.46-2.23 2.15-3.34zm-5.67 1.28c.51-1.26 1-2.51 1.53-3.78.11-.3.22-.35.49-.2.6.34 1.21.66 1.82 1a1.65 1.65 0 01.27.19c-.06.1-.1.19-.15.27-.91 1.38-1.83 2.76-2.72 4.15-.18.28-.31.3-.58.15-1.12-.64-1.12-.63-.64-1.81zm-4.14-.39l1-5.08c.05-.28.21-.33.45-.25.69.22 1.38.46 2.08.65.29.08.3.22.2.45q-1 2.34-1.9 4.68c-.08.19-.16.29-.38.22l-1.26-.4c-.16-.08-.3-.15-.17-.3zm-3.59-6.14c.73.1 1.46.16 2.19.23.26 0 .39.08.31.44-.35 1.63-.66 3.27-1 4.92 0 .29-.19.33-.43.3s-.49-.08-.74-.1c-.89-.06-.89-.06-.89-1v-2-2.32c.04-.39.12-.56.58-.5zm-4.95.19c.65 0 1.3-.12 1.95-.19.28 0 .37.06.36.34v5.03c0 .3-.08.43-.38.41a2.84 2.84 0 00-.41 0c-.9 0-.89 0-1.07-.88-.28-1.4-.54-2.8-.86-4.18-.09-.46.03-.54.43-.56zm-4.53 1c.54-.13 1.07-.29 1.61-.44.18-.05.32-.11.37.17q.52 2.57 1.06 5.14c0 .18 0 .26-.23.33-1.11.4-1.11.41-1.56-.7-.53-1.28-1-2.57-1.58-3.84-.16-.47-.04-.61.35-.71zm-4.83 2.1c.65-.3 1.27-.64 1.91-1l.28-.12c.24 0 .24.15.28.26.64 1.57 1.27 3.16 1.92 4.73.12.28 0 .33-.19.41-.45.21-.93.64-1.33.57s-.6-.74-.88-1.14c-.72-1-1.41-2.11-2.13-3.16-.16-.29-.18-.45.16-.6zm-4.44 3.14a28.81 28.81 0 012.28-1.77c1 1.52 2 3 3 4.52.14.2.13.31-.08.45a14 14 0 00-1.14.89c-.22.2-.35.16-.56 0q-1.76-1.8-3.54-3.57c-.16-.29-.16-.39.06-.57zm-3.45 3.66c.5-.56 1-1.14 1.45-1.72.17-.21.27-.17.44 0 1.19 1.21 2.39 2.41 3.58 3.61.18.18.25.31 0 .51s-.49.55-.72.83a2.92 2.92 0 00-.17.27l-.33-.21c-1.4-.91-2.79-1.83-4.2-2.73-.22-.23-.25-.36-.03-.61zm-2.71 4.3c.38-.65.74-1.31 1.09-2 .11-.19.21-.24.41-.11 1.44 1 2.89 1.9 4.34 2.85a1.24 1.24 0 01.21.19c-.29.48-.54 1-.83 1.41-.08.11-.21 0-.31-.06l-4.76-1.91c-.2-.09-.26-.19-.13-.42zm-1.61 4c.15-.5.32-1 .48-1.48.08-.24.2-.32.47-.21 1.56.65 3.13 1.28 4.69 1.92.05 0 .14 0 .16.06.2.55-.26.95-.32 1.43 0 .25-.14.36-.28.29l-4.58-.91c-.88-.19-.88-.21-.62-1.1zm-1 5.83c0-.83.17-1.65.27-2.47 0-.3.14-.35.45-.29 1.63.35 3.27.67 4.91 1 .29.06.34.17.31.42-.06.44-.15.87-.17 1.31s-.22.49-.58.48h-2.36v-.06h-2.54c-.29-.03-.35-.1-.29-.39zm.2 5.48c-.08-.91-.17-1.81-.26-2.71 0-.32.19-.27.37-.27h4.93c.39 0 .49.12.48.49a11.92 11.92 0 00.11 1.33c0 .27-.06.35-.33.4-1.62.32-3.24.66-4.86 1-.28.05-.46.08-.49-.24zm1.62 5c-.23.1-.39.14-.47-.2-.18-.68-.41-1.35-.61-2-.06-.21-.09-.37.25-.44 1.65-.32 3.3-.67 5-1h.22c.38.36.3 1 .54 1.43s-.12.35-.3.42l-2.24.91zm2.15 4.52c-.29.2-.39.11-.52-.14-.33-.64-.66-1.29-1-1.93-.13-.24-.13-.35.16-.47l4.68-1.89c.12-.06.29-.14.37 0 .25.45.48.91.72 1.39 0 .16-.13.2-.24.27-1.45.92-2.84 1.83-4.22 2.77zM30 64.38c-.22.23-.35.27-.56 0-.47-.61-1-1.2-1.46-1.79-.14-.17-.2-.31 0-.47 1.43-.93 2.86-1.88 4.28-2.82l.29-.2c0 .08.08.18.13.26s.18.24.28.37c.24.31.69.64.66.93s-.51.59-.79.87c-.92.94-1.83 1.88-2.83 2.85zm3.58 3.33c-.15.24-.25.27-.46.08-.54-.47-1.1-.91-1.65-1.37-.16-.13-.26-.23 0-.43 1.23-1.2 2.44-2.42 3.66-3.62a.47.47 0 01.18-.14 4 4 0 011.19 1.06l-.16.26zm5.88-1.45c-.52 1.3-1.05 2.59-1.55 3.89-.15.41-.33.44-.66.24-.58-.34-1.17-.66-1.76-1-.21-.11-.34-.22-.15-.5.93-1.39 1.83-2.79 2.75-4.19 0-.06.09-.18.13-.18.53 0 .89.46 1.36.64.13.06.26.11.19.36s-.2.48-.31.74zm3.89 1.81c-.25 1.28-.52 2.56-.78 3.84 0 .18 0 .41-.34.36-.77-.22-1.58-.45-2.37-.76-.24-.1-.13-.21-.08-.35q.94-2.31 1.88-4.64c.1-.28.24-.36.51-.23l.21.08c.39.19 1 .11 1.16.47s-.1.81-.19 1.23zm4.73 2.23v2.43c0 .29-.07.38-.38.38-.91 0-1.8-.17-2.7-.26-.28 0-.37-.13-.31-.4.33-1.66.65-3.31 1-5 0-.18.1-.27.35-.23a16.66 16.66 0 001.72.16c.31 0 .39.11.39.41-.08.86-.07 1.68-.07 2.51zm4.59 2.57c-.67 0-1.34.13-2 .22-.35 0-.5 0-.48-.45v-2.37-2.49c0-.26 0-.42.34-.37h.18c.39 0 .87-.31 1.16 0s.19.72.27 1.1c.27 1.32.53 2.63.8 4 .06.18.06.34-.27.36zm1-7.58c-.16-.83-.16-.83-1-.67-1.28.25-1.28.25-1 1.53.08.36 0 .55-.39.56s-.69 0-1.08.07V65.4c0-.28-.08-.38-.35-.38H48.4c-.22 0-.33.07-.31.3v.12c0 .45.19 1.2-.11 1.3a4.37 4.37 0 01-2-.14c-.2 0-.09-.2-.07-.33.06-.46.41-1 .15-1.35s-.87-.18-1.3-.33-.72 0-.8.55c-.15 1-.19 1-1.17.7-.71-.24-.71-.24-.43-.95a2 2 0 01.15-.37c.19-.3.09-.46-.22-.55l-.37-.14c-.4-.15-.83-.48-1.17-.4s-.35.66-.5 1-.22.25-.43.12c-.37-.23-.76-.44-1.14-.65.16-.46.74-.81.61-1.2s-.71-.48-1-.76-.77-.35-1 .21-.5.54-.8.12c-.18-.25-.9-.29-.37-.87.24-.26.74-.44.67-.79s-.47-.54-.72-.8c-.69-.69-.71-.71-1.39 0-.33.35-.49.26-.74-.06-.8-1-.82-1 .26-1.69.29-.19.37-.3.13-.6a9.61 9.61 0 01-.77-1.15c-.13-.21-.23-.27-.45-.1s-.55.35-.81.54-.31.19-.47-.07c-.69-1.14-.71-1.15.53-1.64.34-.14.43-.27.26-.61a6.29 6.29 0 01-.45-1.11c-.12-.42-.31-.41-.66-.26-1.14.5-1.14.48-1.47-.73-.09-.34 0-.47.34-.54s1 0 1.17-.31-.08-.8-.16-1.21c-.15-.8-.15-.8-1-.64-1 .19-1 .19-1-.79s0-1 1-1c.34 0 .45-.11.42-.43a4.51 4.51 0 010-.52c0-1.09 0-1.1-1.05-1.16-.25 0-.37-.07-.33-.33s0-.46.09-.69c.15-1 .16-1 1.16-.77.38.1.62.1.64-.39a3.18 3.18 0 01.21-1c.23-.57-.06-.72-.55-.78-.28 0-.56-.11-.86-.16.14-.43.29-.83.39-1.24s.25-.31.5-.21.78.46 1 .35.36-.67.51-1c.34-.82.35-.87-.48-1.15-.53-.18-.57-.39-.26-.79 0 0 .05-.1.08-.15.4-.71.42-.73 1.09-.25.38.28.6.23.78-.18a2.46 2.46 0 01.22-.34c.19-.31.54-.61.55-.92s-.51-.4-.77-.61c0 0-.09 0-.09-.06 0-.54.48-.72.71-1.09.13-.22.26-.18.44 0 .65.6.65.59 1.28 0l.16-.16c.63-.64.64-.64.05-1.32-.15-.17-.16-.27 0-.4s.23-.19.36-.28c.31-.23.61-.62.93-.63s.46.53.68.83.29.29.54.1a12.8 12.8 0 011.15-.77c.29-.16.25-.32.09-.54s-.39-.56-.59-.86c.17-.1.31-.19.47-.27 1-.53 1-.54 1.47.47.12.28.24.29.47.19s.39-.15.58-.24.79-.22.95-.47-.17-.62-.3-.93 0-.36.22-.41h.22c.77-.23.78-.23.91.54.06.39.16.66.64.44a2.78 2.78 0 01.5-.11c.34-.08.78 0 1-.26s-.06-.6-.12-.92c0-.12-.1-.29.11-.32a7 7 0 011.2-.11c.3 0 .16.3.16.47 0 .78 0 .78.8.78H49c.32 0 .72.08 1-.07s.07-.58.08-.88.1-.35.35-.31h.28c.38.05.88 0 1.12.18s-.07.68-.12 1c0 .15 0 .21.16.24l1.64.34c.34.07.31-.21.35-.39.19-.86.18-.86 1-.59l.28.08c.43.07.48.27.31.66-.34.74-.31.75.42 1l.22.08c.32.12.67.38 1 .33s.28-.54.43-.83.18-.34.41-.15l.15.08c.92.47.93.48.38 1.34-.15.24-.13.36.11.48a5.79 5.79 0 01.58.38c.86.55.86.55 1.46-.25.15-.2.24-.22.45-.07 1.08.73 1.08.72-.06 1.92.45.4.93.8 1.37 1.23.18.17.28.13.42 0l.8-.85c.12.15.19.26.28.36.8.86.81.87-.13 1.55-.26.18-.21.29-.07.49.27.38.53.76.76 1.16s.28.28.54.11c.94-.6.92-.58 1.48.39.26.44.17.6-.28.76-.85.29-.85.32-.5 1.16.45 1.11.45 1.12 1.57.68.26-.1.38-.08.44.19v.06c.47 1.23.47 1.24-.77 1.53-.32.07-.47.17-.38.52s.2.86.28 1.3c0 .28.15.42.45.29 1.3-.27 1.47-.11 1.42 1.24 0 .24-.1.3-.31.29a4.67 4.67 0 01-.75 0c-.55-.1-.69.16-.64.63v.06c0 .46-.13 1 .09 1.35s.82.11 1.26.1.38.12.35.4a5 5 0 00-.09 1.09c.06.63-.28.56-.69.48-1-.21-1-.2-1.2.84s-.18 1.09.88 1.24c.46.07.51.22.39.62-.34 1.12-.33 1.14-1.43.67-.37-.16-.58-.18-.69.28a5.64 5.64 0 01-.35.85c-.27.67-.27.67.43.94.86.33.86.33.43 1.13a2 2 0 00-.1.21c-.16.5-.41.45-.79.19-.87-.62-.88-.6-1.47.3s-.58.89.33 1.46c.36.23.45.39.13.76-.76.87-.75.9-1.53.07-.32-.34-.54-.43-.82 0-.34.35-.89.65-1 1s.54.69.87 1c.18.18.2.29 0 .45-.38.29-.74.6-1.13.91-.27-.41-.53-.79-.77-1.19-.14-.22-.25-.22-.46-.08-.4.29-.82.57-1.25.83-.22.13-.25.26-.07.45a.67.67 0 01.09.14c.74 1.14.74 1.13-.49 1.69-.22.1-.33.1-.42-.15s-.27-.67-.39-1-.19-.37-.49-.22a11.83 11.83 0 01-1.28.52c-.26.1-.41.2-.21.5a3.08 3.08 0 01.21.53c.32.81.32.81-.52 1.08s-.93.3-1.12-.66zm3.92 6.39c-.72.21-1.44.41-2.14.64-.3.1-.35 0-.4-.25-.32-1.62-.67-3.23-1-4.85 0-.12-.13-.32.09-.4l1.53-.48c.24 0 .25.16.3.28.62 1.53 1.23 3.06 1.87 4.58.16.31.01.4-.24.48zm4.53-2.11c-.6.3-1.18.63-1.77 1l-.3.13c-.22 0-.21-.15-.25-.27-.63-1.53-1.24-3.06-1.88-4.58-.1-.26 0-.36.18-.49 1.27-.74 1.27-.74 2.07.47.7 1.06 1.38 2.13 2.11 3.16.26.29.17.42-.15.58zm4.19-3.06l-1.7 1.4c-.22.18-.33.21-.52-.07-.89-1.38-1.8-2.73-2.72-4.09-.18-.27-.14-.42.11-.59s.76-.8 1.14-.81.7.6 1 .93c.89.88 1.77 1.78 2.65 2.67.09.09.23.15.24.39zm3.54-3.88a22.92 22.92 0 01-1.71 2.05L64.39 61s-.07-.06-.07-.09c-.16-.67.57-.84.76-1.31.09-.22.24-.29.49-.12 1.39.93 2.79 1.84 4.2 2.75.23.11.23.19.09.4zm2.59-4.26c-.36.63-.69 1.29-1 1.93-.06.1-.07.28-.27.25l-.29-.18c-1.34-.87-2.67-1.76-4-2.62-.26-.16-.36-.29-.16-.57s.28-1.07.68-1.18.88.28 1.32.46c1.18.47 2.35 1 3.53 1.42.27.12.37.2.2.49zm1.73-4.73c-.22.71-.45 1.42-.66 2.14-.08.28-.2.25-.42.16l-4.64-1.88c-.21-.08-.31-.15-.2-.42a6.4 6.4 0 00.36-1.15c0-.22.12-.31.37-.22 1.63.32 3.29.67 5 1 .24.03.27.15.2.37zm.83-5.26c-.08.78-.15 1.57-.22 2.35 0 .39-.18.51-.6.42-1.5-.33-3-.61-4.51-.91-.37-.07-.64-.14-.48-.64a3.18 3.18 0 00.11-1.15c0-.43.14-.55.57-.53h4.73c.33.01.4.13.4.46z" fill="#f26a27"/><path d="M16.83 78.24c-.54-2.6-1.74-4.69-4.62-5.43A5 5 0 0014.86 70a15.39 15.39 0 00-.07-11.86A4.7 4.7 0 0010.15 55H.82c-.27 0-.4 0-.27.34a15 15 0 01.87 5.39v18.71c0 2.46-.05 4.91.05 7.36a15.9 15.9 0 01-.17 3A5.05 5.05 0 010 92.61a.56.56 0 00.17.06c3.16 0 6.33.09 9.49.21a6.35 6.35 0 001.44-.15 6.84 6.84 0 005.5-5.28 18.65 18.65 0 00.23-9.21zM7.05 57.68h.23c1.91-.59 2.65.27 3.1 1.64a14.45 14.45 0 01.3 8.68 4.45 4.45 0 01-.9 1.67 2.39 2.39 0 01-2.94.58c-.3-.15-.29-.37-.29-.62v-5.7-5.67c-.01-.39.1-.58.5-.58zm4.34 30.69a2.8 2.8 0 01-3.51 1.88 1.17 1.17 0 01-1-.8 8.27 8.27 0 01-.38-2.56c-.07-2 .19-3.93.09-5.55v-6.55a.6.6 0 01.47-.66 2.54 2.54 0 013.08.92A9.66 9.66 0 0112 79.17a16 16 0 01-.61 9.2zM35.87 13.94c-.13-.28-.11-.41.18-.56a4.89 4.89 0 001.87-1.77 7.63 7.63 0 001-5.49 6.8 6.8 0 00-2.46-4.44A7.26 7.26 0 0032.12.43c-3-.13-6 .23-9.1 0a3.59 3.59 0 01.62 1.3 12.66 12.66 0 01.26 2.88c0 3.3 0 6.6.09 9.9a38.59 38.59 0 01-.43 9.17c-.07.35.09.37.37.37h4.7c.94 0 .94 0 .72-.93a29.79 29.79 0 01-.35-7.84c0-.15 0-.28.22-.25a9.46 9.46 0 002.19-.15.49.49 0 01.56.35c.92 1.92 1.82 3.85 2.64 5.82.15.36.27.34.56.18a22 22 0 013.08-1.43c.45-.16.39-.32.21-.64-.94-1.71-1.77-3.46-2.59-5.22zM32 12.07a2.87 2.87 0 01-2.59 1.1c-.35 0-.45-.12-.45-.47V7.83 2.91c0-.36.1-.48.47-.55a2.92 2.92 0 013.16 1.37 7.51 7.51 0 01-.59 8.34zM30.42 92.65c-.22-.54-.42-1.05-.63-1.56-1.28-3.25-1.93-6.67-3-10-.09-.28.09-.42.25-.58 2.65-2.59 4-8.33 1.19-12.28A5.06 5.06 0 0024 65.88c-2.18 0-4.35.25-6.57.09a19.12 19.12 0 01.57 4.46c-.06 7.3.48 14.6-.21 21.88 0 .27 0 .38.32.37h4.11c.31 0 .34-.08.28-.37-.13-.62-.23-1.25-.3-1.88a66.45 66.45 0 01-.2-6.77 2.71 2.71 0 010-1c.15-.37.64-.12 1-.3s.56-.08.68.35c.56 1.89 1.16 3.77 1.72 5.67.41 1.4.9 2.8.23 4.3zm-5.82-14.2a3.93 3.93 0 01-.92 1.39 2.12 2.12 0 01-.7.4c-.72.21-.93.06-.93-.69v-5.38-5.5c0-.42.13-.58.51-.64a1.63 1.63 0 011.73.78 6.62 6.62 0 011 2.69 11.65 11.65 0 01-.69 6.95zM57.44 18.74c-.88-2.46-1.78-4.91-2.64-7.38C53.86 8.67 52.93 6 52 3.25c-.27-.81-.39-1.66.54-2.2H45.5c.8.45.73 1.16.62 1.86a4 4 0 01-.25.88c-1.29 3.49-2.44 7-3.6 10.57a86.75 86.75 0 01-1.69 4.62 19.2 19.2 0 014-.84c1.05-.05 1.66-.44 1.8-1.5v-.1c.06-.31.25-.38.55-.37h3.24c1.41 0 1.42 0 1.8 1.34a.58.58 0 00.58.5 27.88 27.88 0 014.93 1c.06-.11-.01-.18-.04-.27zm-6.82-6.34c-.26.27-1 .07-1.55.08s-1 0-1.45 0c-.26 0-.35-.07-.28-.33.52-1.93 1-3.86 1.55-5.79 0 0 .06-.09.11-.17a43.7 43.7 0 011.33 4.65.13.13 0 000 .06c.1.53.58 1.2.29 1.5zM95.07 66.19a1.87 1.87 0 00-1.68-1.44 2 2 0 00-2 1.21 5.71 5.71 0 00-.48 2.76 4.41 4.41 0 00.69 2.4 1.86 1.86 0 003.23-.19 5.88 5.88 0 00.55-2.74 6.16 6.16 0 00-.31-2zm-1.27 2.18a9.39 9.39 0 01-.12 1.91 2.75 2.75 0 01-.14.49c-.07.16-.15.32-.36.34s-.34-.15-.43-.31a4.58 4.58 0 01-.42-1.8 6.76 6.76 0 01.3-3c.08-.23.19-.48.42-.49s.32.25.42.44a5.3 5.3 0 01.33 2.42z" fill="#546db4"/><path d="M36.47 39.87c.07-1.64.14-3.19.18-4.73 0-.41.14-.52.54-.51 6.72.16 13.44.06 20.16.13h4.26c-.45.82-.81 1.57-1.25 2.27a88.78 88.78 0 00-6 11.38 53 53 0 00-3.16 8 7.67 7.67 0 00-.2 4.22 4.28 4.28 0 001.08 1.83H41.3c-.08-.13 0-.21.09-.3 2.84-3.95 4.75-8.4 6.92-12.71C50 46 51.69 42.59 53.38 39.18c.3-.61.31-.62-.35-.62-3 0-6-.2-8.92-.11a29.58 29.58 0 00-6.08.68 3.12 3.12 0 00-1.56.74z" fill="#f26a27"/></g></svg>