<svg xmlns="http://www.w3.org/2000/svg" viewBox="0 0 154.26 72.5"><g fill-rule="evenodd" data-name="Layer 2"><path d="M56.16 24.87c.27-.24.6-.14.91-.14h6.69c1 0 1 0 .76-.95a6.77 6.77 0 01.46-5 7.25 7.25 0 002.61 2c.19.07.42.32.59 0 .35-.65.78-.36 1.21-.13a28.94 28.94 0 003.53 1.53c.42.16.56.09.67-.3s.47-.51.92-.37c1.75.54 3.39 1.36 5.12 2l.57.15a7.59 7.59 0 00-2.58-2.09 25.81 25.81 0 01-2.69-1.81c-.37-.31-.84-.6-.67-1.21 0-.14 0-.21-.13-.28-1.06-.77-1.62-2-2.55-2.87-.72-.68-.65-1 .23-1.31s.2-.67.06-.89a37 37 0 01-2.11-4.68c-.12-.27-.37-.67.26-.74.18 0 .14-.19.12-.34a15.06 15.06 0 01.31-3.21c0-.25.15-.69.46-.63.65.15.58-.35.62-.64A13 13 0 0172.3 0h.35c.73 1.34 2.13 1.82 3.3 2.61.44.29.74-.39 1.19 0s1.25.7 1.83 1.11a13.15 13.15 0 001.42.79c.14.08.34.21.47.06.65-.74 1 0 1.47.27.77.58 1.52 1.19 2.28 1.8.33.25.59.62 1.1.24.24-.19.42.16.59.34a16.39 16.39 0 012.84 5.14.71.71 0 00.33.39v-1.61c0-.16 0-.48.08-.45 1.12.26.58-.65.56-.92a10.2 10.2 0 011.06-4.38c.16-.4.38-.66.8-.31s.56.09.66-.24c.21-.66.38-1.32.56-2 0-.14 0-.29.08-.42.21-.58.46-1.25 1-1.39s.76.52 1.05.87a12.72 12.72 0 011.27 1.83c.36.61.69.67 1 0s.55-.64 1-.05c1 1.45 2.33 2.74 2.94 4.49.15.42.39.45.67.11s.59-.24.76.18l2 4.73a1.06 1.06 0 01-1 .6.4.4 0 01-.26-.25 1.61 1.61 0 010-.46 19.67 19.67 0 00-2.7 2.22 2.39 2.39 0 01-1.07.81.66.66 0 01-.36-.07c-.34-.24-.51-.66-1-1a3.16 3.16 0 01-1.09 2.71 3.79 3.79 0 00-.69 3.25c-.17.14 0 .32-.05.48-.22.32.08.77-.26 1.06-.25 0-.35-.21-.46-.38-.14-.34-.32-.67-.13-.92a7.25 7.25 0 00-.5 3.56.59.59 0 01-.29.35.44.44 0 00-.22.45.23.23 0 01-.12.17 11.72 11.72 0 00-2 3c-.47.84-.51.85-1.07.05-2.86-4.11-5.51-8.36-8.57-12.32-.5-.66-1-1.28-1.56-1.92a1.76 1.76 0 01-.42-.35c.15.07.16.32.25.52a110.89 110.89 0 018.93 14.42c.14.28.23.57.35.86a17.75 17.75 0 00-11.45-5c-4.79-.43-9.6-.13-14.41-.18-2.87.01-5.76.02-8.65.02z" fill="#edebd6"/><path d="M0 59.94h3.16a5.53 5.53 0 011.62.19A2.76 2.76 0 017 62.17 2.47 2.47 0 015.81 65c.05.08.08.17.14.2a3.18 3.18 0 011.75 3.48 3.44 3.44 0 01-2.82 2.75 33.19 33.19 0 01-4.88.18z" fill="#8a8f37"/><path d="M125.73 41.56a7.61 7.61 0 005.62 7.44 22.81 22.81 0 0016.52-1.13 11 11 0 002.75-1.87 6.34 6.34 0 002.19-5.41c.84.69 1.46 1.27 1.42 2.31a18.37 18.37 0 000 2.57A6.84 6.84 0 01152 51a16.67 16.67 0 01-8.7 4.65 35.19 35.19 0 01-18-.59l-.5-.12a13.3 13.3 0 01-4.81-2 19.43 19.43 0 01-6.35-5.12 11.32 11.32 0 01-2-10.51c.1-.35.16-.74.53-.94l.55-1.2a3.33 3.33 0 011.28-2.03l.89-1c.35-1 1.27-1.53 2-2.14a26.18 26.18 0 018.68-4.86 1.63 1.63 0 011-.17 32.92 32.92 0 018.89-1.09 25.73 25.73 0 0112.66 3.37 1 1 0 001.27-.06c1.21-.95 2.47-1.83 3.8-2.8v14c-3.58-5.61-8.55-8.58-15.08-8.82a21.36 21.36 0 00-6.78 1c-3.45 1.34-5 4.05-5.37 7.57a8 8 0 00-.07 2.89.65.65 0 01-.16.53z" fill="#52512b"/><path d="M11.83 55.12a1.46 1.46 0 01.92-.11H74c-.57-.74-1.36-1.1-1.91-1.73.36-1.21 1.41-1.72 2.4-2.28.35-.2.7-.36.81-.82s.48-.46.8-.56c.87-.26 1.75-.51 2.81-.8-.78 0-1.33 0-1.57-.68-.08-.23-.35-.29-.57-.33A3.14 3.14 0 0174 45.18c1.6 0 3.19-.09 4.79-.11A26.06 26.06 0 0085.87 44a13.74 13.74 0 013.7 3.14c.72 1 .74 1.27-.42 1.77a45.51 45.51 0 00-6.94 4.24.87.87 0 00-.42.32 1.18 1.18 0 01.45-.33 31 31 0 017.17-3.79c1.33-.48 1.68-.25 2 1.11a13.3 13.3 0 01.18 3.67l-1 .87H113c.23 0 .52.15.69-.16.15.1.2.24 0 .29a3.21 3.21 0 01-.76 0H95.42a29.1 29.1 0 001.11 3.38 2.6 2.6 0 010 1.76c-.05.13-.13.37-.18.36-1.07-.11-.55.62-.52 1a6.78 6.78 0 01-.25 2.11c-.11.44-.11 1.09-.93.85-.24-.07-.42.25-.55.48-.34.56-.66 1.13-1 1.68-.13.18-.27.85-.61.09-.13-.28-.26 0-.34.11a5.52 5.52 0 01-2 1.87c-.42.26-.8.82-1.4.24-.16-.15-.36.09-.52.2-.48.32-1 .64-1.43.94s-.59.46-1.1.06-1 .33-1.63.41c.36-1.38.15-2.83.84-4.13a.62.62 0 00-.24-.89c-.45-.29-.41-.68-.2-1.12a10.25 10.25 0 00.92-2.92c.08-.56-.09-.67-.55-.67-.19-.17-.11-.38-.07-.58a9.76 9.76 0 01.87-2.18 1.19 1.19 0 01-1.2.83c-.3 0-.39.39-.56.61a4.08 4.08 0 01-.68.87c-.35.19-.37.66-.71.86-.18.07-.41.26-.56.18-1.37-.7-1.92.55-2.76 1.13h-.07c-.54-.29-.47-.88-.69-1.32-.13-.29-.18-.66-.57-.67s-.46.36-.57.64a6.78 6.78 0 01-.71 1.74c-.76.56-1.5 1.16-2.3 1.67a7 7 0 01-.93-2.35c-.16-.43-.24-.88-.41-1.31a.78.78 0 00-.66-.59c-.33 0-.72-.16-1 .09s0 .59.08.88c.14.49.33 1 .47 1.46.09.3.2.61 0 .9a27.32 27.32 0 01-3.27 1c.2-.91.39-1.73.56-2.55.14-.59.31-1.2-.48-1.51-.32-.12-.23-.33-.11-.55a11.91 11.91 0 00.68-1.39c.21-.63.66-1.29 0-2-.28-.28-.13-.6.15-.82s.73-.54 1.15-.85a1.35 1.35 0 00-.89-.12H12.94zM126.57 24.93a28.42 28.42 0 00-9.22 4.93c-.85.71-1.64 1.49-2.46 2.24-.54-.31-1.12-.12-1.67-.15s-.61-.17-.51-.63a12.57 12.57 0 014.62-7.76 4.93 4.93 0 001.14-1.18 3.43 3.43 0 00-2.3 1.19 20.48 20.48 0 00-4.36 6.68 5.41 5.41 0 01-.34.78 1.16 1.16 0 01-2.11 0 7.42 7.42 0 01-.83-2.41 2.12 2.12 0 00-.35-1.12c.42-1.16 1.49-1.72 2.29-2.53-.1-.07-.29 0-.45 0a.63.63 0 01-.34-.16.81.81 0 01-.13-.48 11 11 0 011.84-3.3c-.19 0-.43.22-.63-.06a2.23 2.23 0 01.65-1c.17-.17.46-.44.66-.25.62.61.7 0 1-.34a16.91 16.91 0 013.07-3.2c.77-.6.79-.58 1.1.49 1.48-1 2.4-2.55 4-3.49 0 .64.28.8.94.66a30.41 30.41 0 003.82-1.37c.26-.09.49-.33.64.15s.47.29.75.23l3.18-.59c.28-.06.62-.18.82 0s-.08.52-.18.76a24.17 24.17 0 01-1.5 2.49c-.22.4-.31.71.23.95s.44.86.33 1.34a7.31 7.31 0 01-1.65 3.06c-.15.19-.45.36-.18.64.71.75.14 1.34-.29 1.86a16.63 16.63 0 01-1.58 1.57zM125.73 41.56a13.69 13.69 0 01.5-5.9c1.09-3.52 3.67-5.29 7.14-5.94a14.8 14.8 0 014.74-.2l-.47.1a5.57 5.57 0 001.92.55c.66.19.84.57.53 1.13-.2.33-.12.49.08.8a11.28 11.28 0 002.45 2.23c.36.31.42.58 0 .87s-.42.65-.09 1.06a20.85 20.85 0 002.05 2.63c.38.35.45.56-.21.63-1.44.17-2.86.44-4.3.58-.76.08-.94.44-.77 1.06s-.06.56-.49.59a12.77 12.77 0 01-3.8-.45c-.56-.14-.77 0-.72.55s-.22.49-.62.42c-1.49-.26-3-.48-4.46-.73-.27 0-.56-.1-.57.28 0 .83-.56.66-1 .51-.64-.21-1.27-.51-1.91-.77z" fill="#edebd6"/><path d="M82.46 61.35c.28-.27.06-.9.67-.93a1.76 1.76 0 011.87.06c0 .17-.1.33-.14.49l-3.12 9.48c-.13.4-.25.81-.39 1.21s-.19.5-.58.48-.52-.15-.63-.51c-.72-2.15-1.47-4.3-2.22-6.49-.33.22-.35.57-.45.87-.64 1.82-1.26 3.65-1.88 5.48-.11.34-.17.64-.64.63s-.52-.31-.63-.64c-.82-2.54-1.66-5.08-2.5-7.61-.29-1-.57-2-.89-2.94-.14-.45-.05-.59.44-.6 1.53-.06 1.53-.08 2 1.36.32 1 .66 2.05 1 3.07.47.43.41 1.1.75 1.64.57-1.1.64-2.36 1.35-3.36.26-.72.55-1.43.78-2.15.1-.32.23-.49.59-.47s.58 0 .69.45c.18.62.43 1.22.65 1.83.79 1.23.94 2.68 1.48 3.92 0 .2.16.09 0 .12s0 0 0-.07a24.32 24.32 0 011.8-5.32z" fill="#8a8f36"/><path d="M126 67.23v-5.54c0-.35-.15-.89.22-1a4.15 4.15 0 011.61 0c.24 0 .18.32.18.52v10.63c0 .18.1.45-.21.48s-.65.08-.91-.27c-.86-1.18-1.76-2.33-2.64-3.49l-2.61-3.42v6.11c0 .3.23.8-.24.87a6 6 0 01-1.69 0c-.16 0-.1-.3-.1-.47V61.19c0-.21-.1-.51.27-.52s.75-.08 1.06.33c1.34 1.78 2.73 3.53 4.1 5.29l.78 1zM153.8 68.74a7.81 7.81 0 000 1.37c.18 1-.36 1.51-1.22 1.83a7.77 7.77 0 01-4 .47 4.92 4.92 0 01-4.19-4.18c-.62-2.79.3-5.55 2.43-6.8a5.78 5.78 0 015.95-.15c.51.27.65.56.28 1a2.34 2.34 0 00-.33.6c-.14.38-.29.46-.66.2a3.63 3.63 0 00-1.41-.61 3.27 3.27 0 00-3.76 1.83 5.13 5.13 0 00-.18 4.08 3.35 3.35 0 004 2.12c.64-.16 1.12-.45 1-1.24a1.55 1.55 0 010-.43c.17-.83-.09-1.23-1-1-.54.11-.67-.21-.56-.64s-.38-1.13.52-1.16 1.77 0 2.66 0c.44 0 .53.21.52.59-.06.69-.05 1.38-.05 2.12zM48.28 66v-5.06c0-.5.08-.7.64-.69h6.1c.52 0 .74.13.66.66a2.66 2.66 0 000 .69c.07.48-.16.56-.59.56h-4c-.57 0-.72.16-.72.72 0 1.9 0 1.9 1.84 1.9H53c1.12 0 1.1 0 1.11 1.11 0 .5 0 .78-.69.7s-1.6 0-2.39 0c-.6 0-.74.2-.71.74a17.68 17.68 0 010 2.06c0 .48.13.58.57.58 1.34 0 2.69.06 4 0 .93 0 .59.61.65 1.05s0 .84-.7.82c-2-.06-4 0-6 0-.5 0-.62-.16-.61-.63v-5.15z" fill="#8a8f37"/><path d="M112.11 36.4c-2.19 6 .13 11.07 5.37 14.8a30.57 30.57 0 007.26 3.72 9.06 9.06 0 01-5.13-1.36c-.23.19 0 .54-.21.77-.88-.27-1.46-1-2.25-1.47-.51-.27-1-.88-1.64-.11-.2.26-.4-.07-.54-.22a8 8 0 01-1.87-3c-.11-.32-.22-.64-.36-1-.64.71-1 .37-1.41-.24a7.31 7.31 0 01-.72-3.21 8.7 8.7 0 00-.07-1.54c-.13-.42.18-1.25-.81-1.15-.23 0-.16-.39-.16-.6v-4.12c0-.46 0-.88-.65-.87-.18 0-.34 0-.31-.3a9.75 9.75 0 01.66-3.06c.39-.76.9-.79 1.4 0a14.43 14.43 0 011.11 2.59.8.8 0 00.33.37z" fill="#edecd5"/><path d="M102.53 29.54a5 5 0 01-3 2.12c.14.3.68.36.6.65s-.57.43-.93.49a6.81 6.81 0 01-5.79-1.28c-.42-.34-.66-.59-.15-1.14a6.63 6.63 0 001.5-2.24c.72.09 1.13.71 1.71 1.05a2 2 0 001.54.45c-.79-1.05-2-1.72-2.47-3a.54.54 0 01.22-.42c.16 0 .25.08.37.15s.23.72.65.36a.75.75 0 00.22-1.14 2.15 2.15 0 01-.72-1.39 3.6 3.6 0 01.4-.87c.28 0 .39.18.53.35s.28.3.5.14c.51-.39.63-.11.64.37a1.22 1.22 0 00.21.72.69.69 0 00.85.21c.31-.13.28-.4.21-.66a3.23 3.23 0 00-2-2.49c-.25-.09-.57-.13-.66-.46a.5.5 0 01.22-.31.85.85 0 01.5-.06 2.65 2.65 0 01.75.38c1.15.66 1.73.36 1.85-1 .06-.17.13-.32.35-.31.32 1.3 1.38 1.64 2.49 1.92.06 0 .18.12.19.1.06-.18-.08-.34-.1-.51a2.67 2.67 0 01-.15-1.12.31.31 0 01.27-.22c.43.42.68.32.86-.24.09-.28.12-.82.55-.69s.34.59.26 1a2.17 2.17 0 000 .25c-.16 1.19-.16 1.19 1 1.09 0 .41-.32.68-.32 1.07a.28.28 0 01-.13.11c-.45.22-1.14-.09-1.4.44a4.2 4.2 0 00-.3 1.9c.29.3.62-.32.85.05s0 .65-.22.94l-.34.56c-.18.51-.7.57-1.08.82-.14-.17-.27-.35-.52-.17-.52 0-.69-.45-1-.77a2.43 2.43 0 00-3.74.12.86.86 0 00.08 1.28c.82.79 1.23.91 2.09.5.24 0 .35.2.48.36a1 1 0 001.12.44c.32-.07.67-.19.96.1z" fill="#ecebd5"/><path d="M102.7 66.29v5.07c0 .58-.18.71-.72.71-1.38 0-1.38 0-1.38-1.34 0-3.07.06-6.13 0-9.19 0-.95.37-1 1.14-1s1 .32 1 1.08c-.06 1.58 0 3.15 0 4.72zM100 28.68c-.35.63-.81.62-1.35.24l-.49-.33c-1.44-.95-.9-1.67.17-2.44a4.36 4.36 0 011.69-.54 1.18 1.18 0 011.21.42c.41.51.86 1 1.3 1.46a7.67 7.67 0 00.43.8c.42.6.47 1.06-.38 1.25-.36 0-.72.1-1.08.12-.52 0-1 0-1.18-.63a1.18 1.18 0 010-.77c-.16.18-.19.36-.32.42zM105.94 21.77c-.33.18-.64.61-1 .36s-.23-.72-.18-1.15.37-1 0-1.5c-.31.6-.34 1.31-.9 1.82l-.44-.85c-.46-.3-.55-.84-.82-1.26a1 1 0 01.33-1.36 7.12 7.12 0 011.31-.94c1-.54 1.69-.29 2.14.8 0 .13 0 .28.13.36.58.47.37 1.11.38 1.7a1.81 1.81 0 01-.95 2.02zM108.75 12.22l1.8-.55a26.84 26.84 0 01-.4 3.64.72.72 0 01-.38.54 9.14 9.14 0 01-2.65 1c-.07-.48.32-.83.32-1.29-.27.11-.41.41-.71.41a3.65 3.65 0 01.25-2.88 1.18 1.18 0 01.8-.61 7.62 7.62 0 01.97-.26zM103 27.66c.1-.63.79-.46 1.08-.82a6.23 6.23 0 012.23-.43 3.81 3.81 0 002.11-1c.39-.64 1.09-.54 1.68-.69h.9a18.83 18.83 0 00-2.77 2.73 5.55 5.55 0 01-3.42 1.86c-.54.08-.6 0-.52-.49.37-.24.83-.33 1.19-.6a2 2 0 01-1.88.28c-.23-.27-.41-.56-.6-.84zM106.82 17.68c-.14-.29 0-.41.27-.47a11.26 11.26 0 003.49-1.47 11.26 11.26 0 01-.34 3.88c-.25.94-.8.57-1.3.42-.72-.22 0-.55 0-.84a2.37 2.37 0 01.22-.6l-.81.76c-.65.59-.73.56-1-.28-.55-.35-.43-.91-.53-1.4z" fill="#8a8f37"/><path d="M103.88 13.69l1.05-.49c.29.13.77-.7.89.2.08.75.23 1.5.29 2.26s-.06 1-.84 1c-.55 0-1 .46-1.55.18-.2-.25.07-.47 0-.71s-.06-.07 0 0 0 .26-.11.38a3.05 3.05 0 01-.65 1.28c-.19.21-.35.5-.7.29a.66.66 0 01-.3-.88 18.79 18.79 0 01.94-1.91c.31-.57.43-1.22.98-1.6z" fill="#8b8f37"/><path d="M103.76 16.53c0 .11 0 .35.19.25a3.62 3.62 0 011.66-.31c.42 0 .34-.29.33-.53 0-.85-.08-1.7-.12-2.54a13.45 13.45 0 01.49 4.29c-.8-1.05-1.43-1.14-2.49-.35-.29.22-.55.49-.85.71a.79.79 0 00-.26 1.16c.08.18 0 .22-.17.25-.58-.29-.85-.9-1.31-1.32-1.28-1.16-2.33-.92-3 .68-.32.8-.25 1.69-.59 2.48h-.51c-.19 0-.2-.12-.18-.26a3.89 3.89 0 00.16-1.17A4.72 4.72 0 0199.65 16h.35c.13.14.07.56.23.47.74-.41 1 .19 1.33.69.43-.86.76-1.66 1.19-2.41.26-.45.42-1 1-1.17a.17.17 0 01.11.12 32.27 32.27 0 01-1.6 3.3c-.17.32-.36.64.07.86s.49-.26.63-.46a11 11 0 00.61-1.12c.16.02.26.05.19.25z" fill="#ebebd3"/><path d="M104.42 26.28c-.28-.36.29-.59.12-.94h-.1c-.28.16-.45.7-.76.55s-.1-.66-.09-1a3 3 0 01.06-.42c.24-1.63.24-1.63 2-1.6.71.57 1 2.32.39 2.93-.43.38-1.11.2-1.62.48z" fill="#8a8f37"/><path d="M108.88 23a15.09 15.09 0 01-2.21 2 2.91 2.91 0 011-2.35c-.7.32-1-.2-1.14-.61s.31-.61.62-.77a7.83 7.83 0 011.4-.59.73.73 0 011 .56 1 1 0 01.16.63 1.45 1.45 0 01-.25.72 1.34 1.34 0 01-.58.41zM95.66 26.62a23.72 23.72 0 002.88 3.19c-1.77.43-2.59-1-3.73-1.67-.18-.41-1.07-.8.08-1.23.35-.14-.14-.74-.13-1.14a.25.25 0 000-.17c-.06-.16 0-.21.18-.22a2.19 2.19 0 01.72 1.24z" fill="#8b9037"/><path d="M152.1 20.2c.25 1.23.45 2.23.65 3.23 0 .17.22.39-.14.44a.34.34 0 01-.43-.31c-.07-.44-.15-.88-.25-1.5l-.83 2c-.29-.76-.51-1.32-.74-1.93a5.21 5.21 0 00-.33 1.38c-.05.21-.14.36-.41.33s-.22-.21-.19-.37c.21-1 .43-2.05.69-3.28a14.17 14.17 0 011 2.3c.44-.59.37-1.49.98-2.29z" fill="#55532e"/><path d="M109.38 22.7l.19-.73c.14-.21.12-.5.32-.68.14-.48.58-.27.87-.38l1.31-.26a10.22 10.22 0 00-2.34 3.53 3.05 3.05 0 01-.28.5 3 3 0 01-1.31.7c-.35.05-.67.31-1.2.22a6.79 6.79 0 002.11-2.41c.09-.19.08-.42.33-.49z" fill="#8b9037"/><path d="M147.86 22.35a5.3 5.3 0 010-.69c.06-.52-.08-.81-.68-.71-.18 0-.43 0-.41-.27s.25-.26.44-.26h1.88c.21 0 .5-.09.48.29s-.28.26-.45.23c-.6-.09-.73.19-.69.73s0 1.2 0 1.8c0 .2 0 .4-.3.4s-.28-.21-.28-.41c.01-.37.01-.74.01-1.11z" fill="#52512b"/><path d="M107.8 12.54l-.82.52-.49.2c-.26.05-.25-.14-.27-.3s0-.36-.28-.28H105a7.2 7.2 0 013.5-.83.09.09 0 01.06.06v.13a1.43 1.43 0 01-.76.5z" fill="#90943b"/><path d="M114 33.14c-.45.69-.9 1.37-1.34 2.06v-.17c-.33-1.58-.33-1.58 1.34-1.89z" fill="#eae9d4"/><path d="M106.82 17.68a4.08 4.08 0 01.48 1.4c-.34.1-.23.51-.48.67-.12-.56-.25-1.13-.38-1.7a.61.61 0 00.38-.37z" fill="#e7e7ca"/><path d="M111.82 16.48a5.59 5.59 0 01-.82 2c-.09-.91-.27-1.66.82-2z" fill="#90953b"/><path d="M103.55 28.52c1 .25 1.68-.49 2.54-.67a2.51 2.51 0 01-1.85 1c-.16-.26-.54-.05-.69-.33z" fill="#f2f2e6"/><path d="M108.14 25.38l1.23-.85a.53.53 0 01.36.2h.37l-1.68.69z" fill="#e5e5c7"/><path d="M81.4 14.77l-.84-1a1.91 1.91 0 011 .84z" fill="#fafaf3"/><path d="M107.8 12.54a1.43 1.43 0 01.75-.5l.2.18c-.3.16-.55.45-.95.32z" fill="#e4e4c9"/><path d="M105.94 12.68c.24-.19.35-.09.36.17s0 .34.19.41c-.23.23-.34.14-.36-.14s0-.35-.19-.44z" fill="#cfd09c"/><path d="M109.89 21.29a.76.76 0 01-.32.68v-.68z" fill="#e4e5c9"/><path d="M109.38 22.7l-.33.49-.17-.18c.12-.21.19-.43.5-.31z" fill="#dcddb8"/><path d="M107.77 50a1.49 1.49 0 01-.6-1.31V34.1c0-.43 0-.76-.61-.72-1.48.1-3 .13-4.45.18-2.91.1-5.82.21-8.74.29-.32 0-.72.18-.87-.39a9.1 9.1 0 00-1.82-3.36 7.6 7.6 0 00-2.61-2.43 20.85 20.85 0 00-10.7-2.95c-4.29-.1-8.57 0-12.86 0-2.83 0-5.66.05-8.49 0H1.57A2.26 2.26 0 000 24.9v1a5.53 5.53 0 00.91.9c2 1.56 3.9 3.19 5.89 4.73A1.66 1.66 0 017.5 33v14a1.68 1.68 0 01-.7 1.46C4.86 50 3 51.54 1 53.08a3.57 3.57 0 00-1 1v1h11.83a2.32 2.32 0 011-.08h56.73a8.79 8.79 0 011.35.12 8.85 8.85 0 002.57 0c.6-.07.67-.31.27-.77a8.48 8.48 0 00-1.37-1.17c-2-1.48-3.8-3.11-5.76-4.59a2.25 2.25 0 01-1-2.12c.07-1.07.07-1.12 1.12-1.13h7.35a56 56 0 006.48-.19 18.22 18.22 0 005.11-1l.27-.08a14 14 0 004.87-2.87 8.06 8.06 0 002.18-5c1.4 1.09 2.67 2.09 3.85 3.18a1.17 1.17 0 01.26.89v8.21a1.36 1.36 0 01-.59 1.17c-.72.55-1.4 1.16-2.11 1.73l-2.38 2-.9.67c-.23.21-.56.42-.46.75s.52.27.82.3h.26c2 .19 4-.19 6-.18h15.06c.25 0 .63.24.76-.23-1.87-1.51-3.82-3.14-5.8-4.69zm-54.66-2.7a1.39 1.39 0 01-.59 1.21c-2.06 1.63-4.09 3.3-6.26 5.06v-13.2l-2.37 2.1-6.67 6.05a1.78 1.78 0 01-1.28.54H20.75c-.69 0-.86-.18-.84-.84v-5.24c0-.48.12-.63.61-.62h8.07a1.85 1.85 0 011 .35c1.74 1.13 3.41 2.21 5.18 3.29.23.14.42.39.8.36V32.93c-2 1.09-4 2.13-5.93 3.2a2.19 2.19 0 01-1.13.31h-7.9c-.57 0-.71-.16-.7-.71v-5.15c0-.49.06-.7.64-.7h15.54a1.42 1.42 0 011 .48l8.35 7.57V25.78c2 1.62 3.78 3.18 5.71 4.49a4.17 4.17 0 012 4.1c-.15 4.29-.06 8.63-.04 12.88z" fill="#52512b"/><path d="M91.55 54.11c-.3-.24-.18-.58-.18-.88a15 15 0 00-.31-3.13c-.16-.85-.55-.91-1.27-.67a36.24 36.24 0 00-6 2.88c-.56.32-1.14.62-1.71.93 0 0-.07-.07 0-.11s0-.06 0-.06a32.94 32.94 0 017.24-4.47c.69-.29.67-.59.27-1.13a11.3 11.3 0 00-3.44-3c-.18-.1-.49-.13-.29-.47a.17.17 0 01.14 0 .94.94 0 011 .15c1.11.84 2.45 1.35 3.37 2.46a1 1 0 001.23.35c.49-.21.44-.7.41-1.11a9.06 9.06 0 00-1-3.67c-.15-.3-.42-.56-.29-1a7.68 7.68 0 002.12-5.42l4.31 3.54c.24.2.21.45.22.71v8.93a.82.82 0 01-.3.74c-.86.66-1.7 1.35-2.55 2-.49-.32-.52-.66-.25-1.21.39-.75-.48-1.08-.76-1.61-.16-.32-.41-.67-.85-.59s-.31.37-.31.63a16.08 16.08 0 00.08 2.3 3.69 3.69 0 01-.16 2.34z" fill="#fff"/><path d="M68.35 30.6c2.31 0 4.63-.08 6.94 0 3.28.1 5 2.48 4.34 5.83-.38 1.89-1.41 2.74-3.58 2.91-2.65.2-5.31.09-8 .11a8.17 8.17 0 01-2.61-.12c.28-.27.64-.21 1-.21h3.85a3.34 3.34 0 002.71-.85c.19-.2.49-.14.8-.28a6.59 6.59 0 00-1-.69c-.39-.31-.78-.59-.55-1.2.13-.33-.14-.53-.37-.69a35.81 35.81 0 01-3.17-3c-.57-.56-.17-1.22-.36-1.81z" fill="#edebd6"/><path d="M74 45.18a1.48 1.48 0 01.63 1.09c.06.65.84.85 1.41 1.09a8.53 8.53 0 001.31.38c.46.11 0 .92.72.87a1.68 1.68 0 011.24.21c-1.1.49-2.19.65-3.22 1-.29.1-.78.05-.61.67.07.24-.27.32-.46.43-.49.28-1 .52-1.48.85s-1.06.46-1 1.22c0 .18-.28.24-.48.27-2.12-1.69-4.23-3.39-6.35-5.07-.45-.34-.27-.78-.28-1.18 0-1.88 0-1.89 1.89-1.88zM68.35 30.6c.17.34.84.6.14 1.08-.12.09.14.28.25.39a25.89 25.89 0 003.66 3.44c.19.13.47.22.21.5-.48.52-.11.79.28 1.06s.72.47 1.08.69c.14.09.34.16.3.36s-.28.21-.42.16c-.66-.2-.81.5-1.23.65a5.84 5.84 0 01-2.17.39h-5c0-2.75 0-5.51-.09-8.27 0-.37.11-.5.48-.49.86.03 1.68.03 2.51.04z" fill="#fff"/><path d="M90.66 41.18a9.52 9.52 0 011.55 4.54c0 .56.14 1.24-.55 1.47s-1.2-.17-1.7-.67A11.93 11.93 0 0086 44a14.84 14.84 0 004.66-2.82z" fill="#edebd6"/><path d="M92.21 53.56c.14-1.59-.28-3.16-.16-4.75 0-.33-.09-.74.36-.86a.89.89 0 011 .4 13.58 13.58 0 011 1.29c.21.33.63.67 0 1.08-.34.21.09.65.17 1z" fill="#ecebd6"/><path d="M97 21.49a3.65 3.65 0 012.85 3c.06.34.36.74-.23.89s-1.12.25-1.37-.44a6.83 6.83 0 01-.18-1.17c-.55.86-.57.85-1.35-.42a.51.51 0 01-.23-.8c.24-.33-.52-.84.19-1.08a.23.23 0 01.32.02zM103.77 13.57a13 13 0 00-2 4 1.05 1.05 0 01-.79-1.17c-.39.2-.67.68-1.1.38s.09-.49.14-.75a17.19 17.19 0 014.24-3.39c-.26.36-.36.67-.49.93z" fill="#8b9037"/><path d="M96.39 24.2a3.65 3.65 0 00.77 1.3 1.18 1.18 0 01-.38 1.68c-.23.11-.3-.06-.4-.17l-.55-.75a1.35 1.35 0 01-.55-1.35 5.65 5.65 0 01.72-4.19c.13.56 0 1 .21 1.43a4.22 4.22 0 01.18 2.05z" fill="#8b9037"/><path d="M99.65 16c-.05.33-.35.43-.55.61a4.78 4.78 0 00-1.75 3.89c0 .25.24.67-.32.68-.12.07-.22.07-.29-.06a3.28 3.28 0 01.75-3.62c.75-.81 1.32-1.66.7-2.95A3.57 3.57 0 0199.65 16z" fill="#8c9037"/><path d="M102.61 11.9c.33 1.16.11 1.56-1.2 2z" fill="#979a43"/><path d="M95.28 24.91l.55 1.35a.4.4 0 01-.17.36 2.81 2.81 0 01-.66-1.18.24.24 0 010-.31.36.36 0 01.28-.22z" fill="#f4f4e9"/><path d="M96.39 24.2a4.08 4.08 0 01-.23-2.05l.33.35c.08.26.15.53.23.8s.05.7-.33.9z" fill="#f9f9f3"/><path d="M96.74 21.09l.29.06.15.16-.18.18-.32-.07c-.05-.12-.16-.25.06-.33z" fill="#f6f6ed"/><path d="M94.93 25.13v.31l-.18.16c-.14-.23-.28-.45.18-.47z" fill="#bec07c"/><path d="M2 68a1 1 0 010-.17c.11-.56-.3-1.23.24-1.68a4.22 4.22 0 012.76.4 2 2 0 01.43 2.07 1.38 1.38 0 01-1.09 1.08c-.47.1-1 .13-1.44.19-.67.07-1-.15-.92-.9A7.08 7.08 0 002 68z" fill="#fffffe"/><path d="M2 63.06c0-1.48.23-1.65 1.71-1.33.71.15 1.2.5 1.2 1.3a1.36 1.36 0 01-1.3 1.37h-.09C2 64.55 2 64.55 2 63.06z" fill="#fefefc"/><path d="M82.46 61.35l-1.83 6c-.53-1.69-1-3.16-1.47-4.63a5.62 5.62 0 012.09-1.78s.13 0 .14.06c.2.57.69.31 1.07.35z" fill="#fefefd"/><path d="M76.45 63l-1.32 4.13a10.81 10.81 0 01-.78-2.41c.45-.84 1.39-1.12 2.1-1.72z" fill="#fdfcf9"/><path d="M85 60.48l-1.87-.06c.27-.4.52-.81.81-1.19s.27-.78.86-.4c.23.15.44-.26.58-.51s.33-.7.85-.88A14.58 14.58 0 0085 60.48z" fill="#fffffe"/><path d="M91.09 57.9a17.53 17.53 0 00.11-2.39c0-.3.19-.38.46-.37s.44.16.37.43a5.5 5.5 0 01-.94 2.33z" fill="#fafaf6"/><path d="M82.09 53.07v.17l-.71.79a1.35 1.35 0 01.71-.96z" fill="#f7f5ec"/><path d="M109.73 24.73a.36.36 0 01-.36-.2l.36-.35z" fill="#f8f7ef"/><path d="M29.86 67.14c-.3-.45-.29-.63.2-.94a3.19 3.19 0 001.49-3.47 3 3 0 00-2.49-2.49 20.32 20.32 0 00-4.34-.14c-.56 0-.72.17-.72.73v9.43c0 1.63-.37 1.42 1.52 1.47.56 0 .66-.2.64-.7 0-1.09.05-2.18 0-3.26 0-.76.23-.9.9-.83a.83.83 0 01.67.43 23.39 23.39 0 011.6 2.63 2.6 2.6 0 003.25 1.66 1.33 1.33 0 00.21-.08c-1-1.49-1.94-2.98-2.93-4.44zm-2-2c-1.71.19-1.71.19-1.71-1.57s0-1.74 1.73-1.53c1.1.13 1.54.57 1.53 1.55S29 65 27.84 65.1zM97.69 21.3a5.69 5.69 0 01.77-3.3 1.47 1.47 0 012.07-.58 5.8 5.8 0 012 2 3 3 0 01.63 1.24c.07.38.15.76.22 1.14s.22.54-.24.58c-.37-.11-.7-.41-1.11-.36-.88.1-1.23-.34-1.28-1.15a2.47 2.47 0 00-.17-.57c-.45-.06-.18.21-.17.37a2.09 2.09 0 010 .25c0 .29.16.81-.16.84-.54.05-1 1-1.67.14-.16-.3-.58-.41-.89-.6z" fill="#8a8f37"/><path d="M102.86 27c-1.79-1.44-1.79-1.44-1.58-2.32-.26-.29-.6.36-.81-.06a10.33 10.33 0 01-.49-1.35c0-.16.13-.23.26-.29.75-.35 1.57-.77 2.35-.34s.64 1.28.59 2-.18 1.49-.32 2.36z" fill="#8b8f37"/><path d="M103.2 20.63a3.17 3.17 0 01-.63-1.24l.14-.18a4.7 4.7 0 01.64 1.24z" fill="#eae8ce"/><path d="M100.45 20.64a1.08 1.08 0 01-.14-.84.44.44 0 01.31.47c-.06.12-.11.25-.17.37z" fill="#dbdab1"/><path d="M100 28.68c.07-.19.15-.38.32-.8V29c-.16-.09-.27-.2-.32-.32z" fill="#c4c786"/><path d="M103.18 22.35c.25-.13.17-.38.24-.58a.65.65 0 01.07.74c-.07.1-.24-.04-.31-.16z" fill="#abaf57"/><path d="M103.76 16.53l-.19-.21.23-.48a.59.59 0 01-.04.69z" fill="#d9dbb1"/></g></svg>