<svg xmlns="http://www.w3.org/2000/svg" viewBox="0 0 136.98 265.62"><title>logo-brewers-association</title><g id="Layer_2" data-name="Layer 2"><g id="svg"><path d="M94.18,186.44a51.92,51.92,0,0,0,3.95-4.55c5.44-6.8,9.9-14.09,10.25-23.18.17-4.35.1-8.71.11-13.07.05-28.16.05-56.33.17-84.5,0-9.33-.42-18.66.26-28a18.48,18.48,0,0,0-2.06-10.39c-1.53-2.77-3.52-4.55-7-4.82-9.87-.77-19.75-.8-29.63-.92-9.89.11-19.76.17-29.64.85-4,.29-6.14,2.33-7.72,5.57a17.9,17.9,0,0,0-1.57,6.06c-.34,3.19.23,6.36.21,9.54-.28,38.91-.1,77.82-.05,116.72A35.13,35.13,0,0,0,36,173.36a59.48,59.48,0,0,0,9.12,12.26,9.59,9.59,0,0,1,2.92,8c-.47,6.18.52,12.25,1.55,18.31,1.85,10.87,4.48,21.6,5.91,32.55.33,2.53,1.14,5.33,0,7.57-.88,1.74-1,2.83,0,4.36.75,1.16.76,2.25-1,2.48-.69.09-1.11.28-1,1.17a7.21,7.21,0,0,0,6.41,5.59H79.43a6.75,6.75,0,0,0,6.88-5.25c.22-.76.31-1.35-.74-1.49-2.12-.28-1.73-1.47-.91-2.78.63-1,1.29-2.23.31-3.2s-.94-2.22-.89-3.43c.35-8.66,2.42-17.06,4-25.53,2-10.53,4.49-21,3.86-31.85A7,7,0,0,1,94.18,186.44Zm8.3-74.49c1.88,0,1.27,1.33,1.32,2.27s.33,2-1.33,2.06c-4,.21-4,.3-4,4.41,0,4.74-.09,9.48,0,14.22,0,1.81-.54,2.28-2.22,2.15-1.4-.11-2.72.24-2.55-2.05.21-2.79.06-5.6.05-8.39s0-5.76,0-8.63c0-1.27-.29-1.93-1.65-1.76a12.71,12.71,0,0,1-1.38,0,2.48,2.48,0,0,1-2.32-3.75c.33-.67.88-.52,1.38-.52C94.06,112,98.27,112,102.48,112ZM83.8,54.53c3.13.1,6.28.11,9.41,0,1.77-.06,1.53,1.07,1.5,2.15s.4,2.3-1.43,2.2c-1.67-.09-3.36,0-5,0-1.18-.05-1.74.35-1.58,1.59,0,.23,0,.46,0,.7.06,4-.52,3.45,3.41,3.4,1.89,0,3,.18,2.74,2.55-.14,1.43-.53,1.8-1.89,1.8-4.39,0-4.31.08-4.31,4.6,0,1.61.57,2,2,1.9,1.68-.11,3.36,0,5,0S95,76.49,95,77.4s.53,2.28-1.35,2.25c-3.36-.08-6.73-.08-10.09,0C82.25,79.68,82,79.19,82,78c.06-3.65,0-7.3,0-11s.07-7.15,0-10.72C81.94,54.89,82.4,54.49,83.8,54.53Zm0,28.69c1.39-.08,2,.21,2,1.86-.09,7,0,14-.08,21,0,.76.62,2.17-1,2.07-1.36-.09-3.1.94-4-1.16-1.69-4-3.44-8-5.2-11.93-.25-.57-.26-1.35-1.27-1.76,0,4.39-.11,8.63,0,12.86.06,2-.78,2.06-2.31,2.1s-2.07-.47-2-2.11c.09-7,.08-14,0-21,0-1.58.52-1.85,2-2,2.45-.23,3.66.68,4.51,3a70.82,70.82,0,0,0,5,10.66c0-3.94.11-7.88,0-11.8C81.4,83,82.55,83.3,83.8,83.22ZM66,54.52c2.36.2,4.74-.17,7.1.32,3.14.64,5.12,2.47,5.6,5.66a44.39,44.39,0,0,1,0,13c-.55,3.74-3,5.76-7.06,6-2,.13-4,0-6,.08-1.23,0-1.58-.42-1.56-1.62.06-3.65,0-7.31,0-11s.06-7,0-10.5C64.09,55.11,64.38,54.39,66,54.52ZM54.2,95.74c0-3.57,0-7.14,0-10.71,0-1.28.3-1.79,1.65-1.75,3.14.09,6.28.14,9.41,0,1.74-.08,1.61.93,1.54,2s.54,2.47-1.49,2.3c-1.6-.13-3.22,0-4.82,0-1.14-.06-1.78.24-1.59,1.52a5.45,5.45,0,0,1,0,.7c0,3.43,0,3.46,3.35,3.42,1.59,0,3-.23,2.78,2.29-.13,1.66-.58,2-2.12,2-4-.06-3.91,0-4.06,4.14-.08,2,.57,2.6,2.43,2.37,1.2-.15,2.45.08,3.66-.05,1.79-.2,2.38.39,2.33,2.28,0,1.65-.52,2.11-2.1,2.05-3.13-.12-6.27-.08-9.4,0-1.2,0-1.6-.37-1.57-1.59C54.24,103,54.2,99.39,54.2,95.74Zm-8.59-41.1c1.62.11,3.75-1.3,4.83,1.21C52.22,60,54,64.07,56.27,68.17V64.46c0-2.49,0-5,0-7.46A2.46,2.46,0,0,1,60,54.6c.63.3.57.85.57,1.38q0,11.09,0,22.17c0,.71.05,1.61-1,1.42-1.35-.24-3.08,1-4-1.16-1.67-4-3.46-8-5.21-11.92a3.1,3.1,0,0,0-1.3-1.9c0,4.37-.09,8.54,0,12.7,0,1.79-.38,2.4-2.26,2.39s-2.12-.62-2.1-2.29c.09-6.84,0-13.69.08-20.53C44.83,56.08,44.19,54.56,45.61,54.64Zm.55,29.07c3.62,1,5.25,3.4,5.11,7.47-.13,3.73-1.91,5.94-5.45,6.73a14.09,14.09,0,0,1-1.57.32c-3.33.39-3.33.39-3.33,3.74v3.26c0,3.19,0,3.12-3.14,3-1.23,0-1.57-.44-1.55-1.63.06-3.65,0-7.3,0-11s.06-7.15,0-10.73c0-1.33.41-1.78,1.71-1.69C40.68,83.48,43.45,83,46.16,83.71Zm-9.9-16.64c0-3.65.08-7.3,0-10.94-.06-2.19,1.41-1.52,2.49-1.57S41,54.22,41,56.16Q40.84,67.1,41,78c0,2.23-1.45,1.48-2.5,1.56S36.16,80,36.22,78C36.35,74.36,36.26,70.71,36.26,67.07Zm2.46,84.84a2.78,2.78,0,0,0,2.35,2.78,2.86,2.86,0,0,0,3.15-1.41c.31-.48.36-1.26,1.19-1.21a3,3,0,0,1,1.33.17c.45.31.12.84,0,1.26a5.3,5.3,0,0,1-5.4,3.51,5.15,5.15,0,0,1-4.91-4.42c-.17-1.3-.16-2.63-.22-3.79s.07-2.19.19-3.19a5.32,5.32,0,0,1,10-1.92c.31.62,1.11,1.51.24,2a1.54,1.54,0,0,1-2.37-1,2.53,2.53,0,0,0-2.13-1.56,2.83,2.83,0,0,0-3.36,2.67A50.88,50.88,0,0,0,38.72,151.91Zm6.36-15.18c-2.51.46-5,.14-7.54.28-1.26.07-1.32-.67-1.31-1.62,0-3.65,0-7.29,0-10.94s.06-7.15,0-10.71c0-1.43.41-1.93,1.82-1.82,2.35.18,4.73-.15,7.08.29a6.33,6.33,0,0,1,5.53,5.45,40.42,40.42,0,0,1,0,13.66A6.3,6.3,0,0,1,45.08,136.73Zm11.35,18.33c-.46-1.3-1.23-2.49-1.73-3.78s-1.52-1.12-2.48-1c-1.2.12-.76,1.14-.8,1.82-.07,1.08,0,2.17,0,3.26,0,.84,0,1.5-1.17,1.51S49,156.37,49,155.43q.06-6.51,0-13c0-1,.29-1.46,1.31-1.41,1.9.09,3.82,0,5.71.23a3.74,3.74,0,0,1,3.44,3.22c.39,1.86.19,3.71-1.53,4.75-1.26.76-1,1.37-.45,2.34.87,1.62,1.63,3.3,2.49,5.06C58,157.17,57,156.69,56.43,155.06Zm-.6-18c-1.34,0-1.7-.46-1.67-1.75.07-3.65,0-7.31,0-11,0-3.5.05-7,0-10.5,0-1.34.22-2,1.74-1.91,3.14.12,6.28.13,9.43,0,1.85-.08,1.45,1.13,1.41,2.13s.58,2.35-1.34,2.19a18.82,18.82,0,0,0-3.44,0c-1,.1-2.54-.67-2.9.48a14,14,0,0,0-.13,4.63c0,.61.64.52,1.08.53.77,0,1.54,0,2.3,0,2.49,0,3.29,1.15,2.6,3.56-.29,1-1,.74-1.66.76-4.65.21-4.6.2-4.43,5,.05,1.24.45,1.62,1.61,1.55,1.38-.08,2.78.12,4.14,0,2.09-.25,2.83.47,2.65,2.65-.11,1.32-.47,1.72-1.74,1.69C62.27,137,59.05,137,55.83,137Zm18,19.74c-.7,0-1.52.36-2-.63-.37-.79-.12-2.13-1.24-2.28a30.85,30.85,0,0,0-4.81-.08c-1.07,0-1,1.09-1.18,1.75a1.51,1.51,0,0,1-2.26,1.19c-1.25-.44-.18-1.33,0-1.88,1.41-4.19,2.93-8.33,4.38-12.51.24-.69.41-1.31,1.31-1.34s1.2.45,1.46,1.19c1.54,4.46,3.11,8.92,4.67,13.38,0,.15.09.3.14.45C74.46,156.48,74.31,156.8,73.81,156.78Zm.49-34.73c0,4.22-.08,8.45,0,12.68,0,1.68-.34,2.32-2.14,2.28S70,136.61,70,134.8c.11-7,.1-14,0-21,0-1.53.44-1.85,1.92-2,2.43-.22,3.68.61,4.54,3,1.33,3.67,3,7.19,4.6,10.78l.45-.17c0-3.81.12-7.62,0-11.42-.08-1.89.64-2.07,2.23-2.14,1.84-.08,2.11.62,2.09,2.26-.09,6.84,0,13.68-.08,20.52,0,.79.63,2.21-.79,2.23s-3.24,1-4.17-1.21c-1.73-4.14-3.55-8.25-5.35-12.36A2.41,2.41,0,0,0,74.3,122.05Zm10.47,21.2c-1.22,0-2.45,0-3.67,0a2.82,2.82,0,0,0-2.35,4.22c.27.53.74.47,1.18.48,1.22,0,2.45,0,3.67,0,.79,0,1.35.11,1.37,1.09s-.43,1.13-1.26,1.2c-1.64.14-3.81-.84-4.76.5-.77,1.09-.27,3.15-.23,4.78,0,1-.4,1.32-1.36,1.33s-1-.66-1-1.39c0-2.17,0-4.35,0-6.52s0-4.2,0-6.3c0-1.14.21-1.71,1.5-1.66,2.29.09,4.59,0,6.89,0,.76,0,1.33.1,1.33,1.11S85.56,143.27,84.77,143.25ZM92,149.8c0-.93,0-1.87,0-2.8,0-1.08.27-2.33-.15-3.21-.55-1.14-1.94-.42-2.94-.51-.8-.08-1-.4-1-1.15s.3-1.13,1.08-1.12h8.5c.75,0,1.08.31,1.1,1.11,0,1-.53,1.26-1.3,1.11-2.81-.55-3,1-2.92,3.28.17,2.94,0,5.9,0,8.85,0,.88-.08,1.47-1.2,1.49s-1.18-.61-1.17-1.47C92,153.53,92,151.66,92,149.8Z" style="fill:#726658;fill-rule:evenodd"/><path d="M43.72,258.83c-12.5,0-25,0-37.48-.05-3.84,0-3.36.35-3.36-3.31L2.94,97.93q0-44.36,0-88.69c0-2.09.54-2.6,2.55-2.56,6.66.13,13.33.07,20,0,.94,0,2.23.55,2.27-1.35s-1.33-1.51-2.36-1.51c-7.51,0-15,.07-22.53-.08-2.2,0-2.78.5-2.78,2.78q.09,63.13,0,126.27,0,18,0,35.95,0,45.27-.07,90.56c0,1.75.33,2.44,2.23,2.37,4.21-.15,8.43,0,12.65,0q14.48,0,29,0c1.22,0,2.33.12,2.14-1.74S44.55,258.83,43.72,258.83Z" style="fill:#726658;fill-rule:evenodd"/><path d="M122,132.91q0-62.89,0-125.79c0-.62,0-1.25,0-1.87.06-1-.34-1.39-1.33-1.38q-3.57.06-7.13,0c-1,0-1.32.41-1.34,1.39s.3,1.59,1.44,1.52,2.31.11,3.44,0c1.79-.23,2.13.53,2.13,2.22q-.1,123.81-.09,247.63c0,1.94-.63,2.29-2.35,2.27-6.74-.1-13.49-.08-20.23,0-1,0-2.86-.94-2.82,1.46,0,2.24,1.72,1.33,2.7,1.34,7.59.08,15.18-.05,22.76.11,2.25,0,2.76-.6,2.76-2.83Q121.94,195.93,122,132.91Z" style="fill:#726658;fill-rule:evenodd"/><path d="M9.49,208.64c.13,1.46,1.24.64,1.92.45,3.62-1,7.23-2,10.85-3,1-.28,1.74-.58,1.72-2s-.64-1.72-1.68-2c-1.6-.49-3.19-1.05-5.3-1.75,2.14-.73,3.79-1.37,5.48-1.83,1.19-.32,1.48-1,1.49-2.17s-.72-1.54-1.65-1.79c-3.55-1-7.08-2-10.63-2.88-.73-.19-1.88-1.23-2.18.37-.24,1.29-.59,2.85,1.53,3.21,1.66.28,3.28.82,4.92,1.25a18.54,18.54,0,0,1-4.94,2c-1,.27-1.63.58-1.64,1.82s.81,1.48,1.71,1.79c1.63.56,3.39.78,5.22,1.9-2.13.57-3.92,1.09-5.74,1.53S9.41,207.6,9.49,208.64Z" style="fill:#726658;fill-rule:evenodd"/><path d="M22,19c-3.52-.06-7,0-10.56-.05-1.3,0-1.94.25-2,1.77s.61,2,2.05,1.91,2.85,0,4.28,0c0,.17.07.33.1.49-1.8,1.17-3.58,2.37-5.42,3.48-1.2.72-1,1.82-.93,2.89,0,.82.58,1,1.26,1,4,0,8,0,11.94,0,1.44,0,1.26-1,1.29-1.92s0-1.85-1.38-1.78c-1.69.09-3.38,0-5.07,0a32.52,32.52,0,0,1,5.55-4.07c1.24-.74.93-1.87.85-2.89C23.84,18.48,22.68,19,22,19Z" style="fill:#726658;fill-rule:evenodd"/><path d="M11,248.79c1.91-.07,3.82,0,5.73,0,7.71,0,7.71,0,7.15-6.58,0-.08,0-.16,0-.23-.41-3.52-3.61-5.15-6.52-3.19-.85.57-1.23.34-1.95-.05-2.64-1.44-5.33-.1-5.79,2.95-.27,1.82-.12,3.7-.23,5.56C9.31,248.5,9.89,248.82,11,248.79Zm7.12-5.2c.05-.93.07-2,1.38-1.92s1.19,1.17,1.2,2.24c.12.9-.19,1.46-1.36,1.42S18.09,244.48,18.14,243.59Zm-5.54.06c.14-.77.09-1.86,1.26-1.81s1,1.13,1.06,2-.07,1.55-1.19,1.52S12.58,244.53,12.6,243.65Z" style="fill:#726658;fill-rule:evenodd"/><path d="M21.84,172.61a15.73,15.73,0,0,1-2.06,0c-.45,0-1,.07-1.11-.54s.38-.79.8-1a9.15,9.15,0,0,1,1.45-.69c2.68-.76,3.67-2.48,2.76-5.53-1.36.69-2.68,1.28-3.92,2a2.09,2.09,0,0,1-3-.31c-2.55-2.28-6.34-.81-7.12,2.6-.43,1.83-.17,3.71-.26,5.56-.06,1.23.44,1.61,1.62,1.59,3.59-.06,7.19,0,10.78,0,1.17,0,2.21.2,2.19-1.69C24,172.86,23.34,172.44,21.84,172.61Zm-7.57,0c-1.13.13-1.73-.26-1.61-1.38.1-.9.13-1.95,1.38-2s1.52,1,1.59,2S15.24,172.81,14.27,172.61Z" style="fill:#726658;fill-rule:evenodd"/><path d="M11.16,235.07q5.28-.09,10.57,0c1.37,0,2.25,0,2.26-1.89s-1.06-1.87-2.33-1.82c-.69,0-1.38,0-2.07,0-.38,0-.81,0-.93-.46a.83.83,0,0,1,.49-1,10.15,10.15,0,0,1,2.07-1c2.8-.75,3.15-2.67,2.45-5.34-1.32.66-2.64,1.24-3.88,2-1.08.63-1.82.85-3-.22-2.5-2.35-6.34-.93-7.17,2.46-.45,1.84-.15,3.72-.27,5.58C9.3,234.72,9.9,235.09,11.16,235.07Zm1.43-5.14c.09-1.07.34-2.1,1.62-2.06,1.13,0,1.39,1,1.42,2.16.11.85-.19,1.4-1.34,1.39S12.49,231.22,12.59,229.93Z" style="fill:#726658;fill-rule:evenodd"/><path d="M14.26,44a17.59,17.59,0,0,0,5.7-.13c2.74-.63,4.13-2.59,4.06-5.63a5,5,0,0,0-4.31-5.19,26.79,26.79,0,0,0-3-.16V33c-.76,0-1.53-.06-2.29,0a5.31,5.31,0,0,0-5,5.54A5.27,5.27,0,0,0,14.26,44Zm2.37-7.38a11.84,11.84,0,0,1,2.06,0c1.18.08,2.16.51,2.11,1.91s-1.06,1.75-2.22,1.82c-.61,0-1.22,0-2.26,0-1.13-.17-3.51.61-3.57-1.84S15.09,36.81,16.63,36.63Z" style="fill:#726658;fill-rule:evenodd"/><path d="M19.29,96.56a17.64,17.64,0,0,0-2.52-.08c-5,0-7.37,1.77-7.4,5.54s2.36,5.62,7.31,5.57a21,21,0,0,0,2.51,0,5.08,5.08,0,0,0,4.8-5.46C24,99,22.32,97,19.29,96.56ZM17,104a15.79,15.79,0,0,1-2.06,0c-1.19,0-2.21-.44-2.25-1.79,0-1.51,1.09-1.89,2.34-2,.69,0,1.38,0,2.45,0,1.07.22,3.34-.58,3.28,1.92S18.45,103.81,17,104Z" style="fill:#726658;fill-rule:evenodd"/><path d="M16,221.12c2.37,0,4.36-.06,6.35,0,1.23,0,1.59-.42,1.55-1.62q-.11-3.27,0-6.53c0-1.24-.23-1.82-1.62-1.82s-1.71.58-1.61,1.81c.07.93,0,1.87,0,2.8s0,1.72-1.26,1.68-1.15-.94-1.17-1.78c0-.62,0-1.25,0-1.87.07-1.11-.21-1.73-1.5-1.72s-1.86.36-1.75,1.72a24.3,24.3,0,0,1,0,2.56c0,.77-.44,1.07-1.19,1.07s-1.17-.29-1.19-1.06a25.49,25.49,0,0,1,0-3.27c.24-2.13-1.1-2.13-2.43-1.83s-.78,1.67-.78,2.54c0,2.31-1,5.26.37,6.78S14.17,220.84,16,221.12Z" style="fill:#726658;fill-rule:evenodd"/><path d="M9.82,188.55c1.39,1.58,4.34.23,6.21.52,2.37,0,4.36,0,6.35,0,1.19,0,1.61-.41,1.57-1.62q-.11-3.37,0-6.76c0-1.2-.36-1.6-1.56-1.62s-1.8.42-1.68,1.73c.08.93,0,1.87,0,2.8s.26,1.95-1.26,1.9-1.1-1.17-1.16-2a11.09,11.09,0,0,1,0-1.63c.09-1.2-.22-1.85-1.62-1.85s-1.71.62-1.62,1.83c0,.77,0,1.55,0,2.33s-.27,1.32-1.19,1.32-1.25-.39-1.24-1.26c0-1.09-.1-2.19,0-3.26.24-2.18-1.18-2.08-2.45-1.78s-.76,1.69-.76,2.57C9.47,184.08,8.49,187,9.82,188.55Z" style="fill:#726658;fill-rule:evenodd"/><path d="M22.86,71.22c-1.27-.53-1.7-4.34-.53-4.75C24.8,65.62,23.8,63.85,24,62c-4.67,1.73-9.11,3.38-13.56,5-.86.3-.91.93-.92,1.66s.1,1.5,1,1.83C14.61,72,18.7,73.5,22.81,75c.36.12,1.12.5,1.08-.18C23.82,73.59,24.82,72,22.86,71.22ZM18.8,69.29c-1.18.89-2.1-.4-3.58-.5,1.35-.68,2.33-1.35,3.45-1C19.11,68,19.07,69.08,18.8,69.29Z" style="fill:#726658;fill-rule:evenodd"/><path d="M23.37,142.66c-2.3-1.8-2.32-3.76.06-5.55a.91.91,0,0,0,.39-1.2c.35-2.23,0-2.81-1.7-2.12-3.62,1.45-7.3,2.76-11,4.08-1,.36-1.75.68-1.75,2s.81,1.67,1.78,2c3.6,1.31,7.18,2.67,10.79,3.94.59.2,1.57,1.19,1.87,0C24.07,144.89,24.5,143.54,23.37,142.66Zm-4.73-2.06c-1.18.63-2-.44-3.05-.8,1.06-.38,2-1.42,3.08-.64A1,1,0,0,1,18.64,140.6Z" style="fill:#726658;fill-rule:evenodd"/><path d="M9.39,115.41c.31,2.84,2,4.63,4.52,4.7s3.58-1.21,4.29-4.23c.23-1-.22-2.9,1.55-2.52s.94,2.14.92,3.37a1.31,1.31,0,0,1-.23.65c-1,1.64.44,2.43,1.32,2.9,1.17.63,1.35-.85,1.72-1.57a6.34,6.34,0,0,0,.47-3.54,7.79,7.79,0,0,0,0-1.28,4.63,4.63,0,0,0-4.36-4.33c-2.54-.09-3.85,1.09-4.41,4-.09.46-.2.91-.27,1.37-.1.72-.23,1.51-1.12,1.49s-1.24-.83-1.23-1.65a4.55,4.55,0,0,1,.33-1.81c.77-1.6-.58-2.24-1.42-2.69-1.06-.56-1.28.77-1.56,1.46A7.45,7.45,0,0,0,9.39,115.41Z" style="fill:#726658;fill-rule:evenodd"/><path d="M13,155.87c.13-1.23-.88-1.81-1.68-2.22s-1.1.61-1.34,1.18a7.36,7.36,0,0,0-.06,6.11,4.17,4.17,0,0,0,4.48,2.54A3.73,3.73,0,0,0,18,160.11c.15-.76.29-1.52.41-2.29s.45-1.18,1.2-1.14,1.06.56,1.12,1.24a4.85,4.85,0,0,1-.36,3c-.91,1.68.56,2.39,1.44,2.86s1.27-.8,1.61-1.49a5.76,5.76,0,0,0,.54-3c0-4.17-1.83-6.45-5-6.22-2.43.17-3.28,1.19-4,4.78-.18.85,0,2.24-1.31,2.05s-1.21-1.58-1.09-2.66C12.63,156.72,13,156.31,13,155.87Z" style="fill:#726658;fill-rule:evenodd"/><path d="M10.12,130.05a4.2,4.2,0,0,0,4.67,2.23A3.76,3.76,0,0,0,18,128.84c.12-.77.28-1.53.41-2.3.11-.6.42-1,1-1.05a1.13,1.13,0,0,1,1.24,1.1,5.05,5.05,0,0,1-.34,3.19c-.85,1.59.55,2.27,1.35,2.73,1.2.69,1.36-.81,1.72-1.51a6.06,6.06,0,0,0,.49-3.41,9.56,9.56,0,0,0,0-1.41,4.69,4.69,0,0,0-4.32-4.39c-2.46-.15-3.87,1.13-4.45,4-.13.61-.23,1.22-.35,1.83s-.38,1-1,1.05-1.08-.53-1.2-1.18a4.16,4.16,0,0,1,.34-2.5c.64-1.46-.69-2-1.45-2.49-1-.6-1.24.64-1.48,1.24A7.05,7.05,0,0,0,10.12,130.05Z" style="fill:#726658;fill-rule:evenodd"/><path d="M9.48,89.92A5,5,0,0,0,13,94.11a10.41,10.41,0,0,0,3.64.36,10.92,10.92,0,0,0,3.86-.38A5,5,0,0,0,24,89.17c.08-2.72-1-4.61-3.14-5.37-.48-.17-1.28-.84-1.42.25s-.51,2.24.36,3.1c.72.7,1.32,1.38.88,2.4s-1.52,1.19-2.53,1.24a20.25,20.25,0,0,1-2.06,0c-1.21-.06-2.54.15-3.26-1.2s.46-1.86,1.06-2.72a2.69,2.69,0,0,0,0-3.07c-.81-.91-1.83.13-2.55.69A5.27,5.27,0,0,0,9.48,89.92Z" style="fill:#726658;fill-rule:evenodd"/><path d="M15.57,59.43c.91.08,1.83,0,2.75,0,1.38,0,2.77-.08,4.14,0S24,58.73,24,57.59s-.15-1.89-1.59-1.83c-2.45.11-4.9-.06-7.35.06-1.67.07-2.68-.25-2.39-2.24.17-1.14-.46-1.49-1.5-1.45s-1.72,0-1.71,1.28q0,4.2,0,8.4c0,1.17.79,1.15,1.58,1.12s1.77.2,1.61-1C12.33,59.41,13.76,59.28,15.57,59.43Z" style="fill:#726658;fill-rule:evenodd"/><path d="M50.87,3.31c-.14,1.85,0,3.71,0,5.57,0,1,.44,1.36,1.39,1.34s1.18-.42,1.22-1.28-.29-1.64.42-2.4c1.44,1.32,1.14,4.63,4.7,3.39C57.49,8,56.32,6.15,58.06,4c.41-.52.07-1.5-.34-2.2C56.92.41,53.64-.48,51.63.28,50.12.85,50.94,2.28,50.87,3.31Zm3.48-.78c.64,0,1.21.13,1.34,1-.12.73-.65.92-1.3,1s-1-.27-1-.94S53.67,2.5,54.35,2.53Z" style="fill:#726658;fill-rule:evenodd"/><path d="M10.81,50.25c2-.08,4,0,6,0s4-.06,5.95,0c1.5.07,1.28-.92,1.28-1.83s.17-1.89-1.29-1.87c-4,0-7.93,0-11.9,0-1.63,0-1.25,1.17-1.33,2.12S9.61,50.29,10.81,50.25Z" style="fill:#726658;fill-rule:evenodd"/><path d="M10.9,81c1.9-.08,3.81,0,5.72,0s4-.07,5.94,0c1.35.06,1.49-.66,1.43-1.72s.24-2-1.39-2c-3.88.07-7.77.06-11.66,0-1.52,0-1.48.91-1.49,2S9.55,81.1,10.9,81Z" style="fill:#726658;fill-rule:evenodd"/><path d="M101.75,3.86a5,5,0,0,0,0,1.16c0,1.24,0,2.48,0,3.71,0,.52-.11,1.08.5,1.42a4.75,4.75,0,0,0,6.83-4c0-.62,0-1.24,0-1.85C109,1.15,107.75.36,103.81.2,100.47.07,102.12,2.48,101.75,3.86Zm3.35-1.27c1.79-.12,1.5,1.5,1.51,2.54s.3,2.91-1.5,2.84c-2-.08-.35-1.95-1.16-2.67C104.55,4.33,103.29,2.72,105.1,2.59Z" style="fill:#726658;fill-rule:evenodd"/><path d="M43.26,10.22a10.37,10.37,0,0,0,1.37,0c1.1-.28,3,.92,3.14-1S45.94,8.36,45,8.07c-.6-.17-1.28-.09-1.22-1s.66-.67,1.18-.77c.84-.16,2.18.6,2.24-1.11S45.84,4.22,45,4c-.22,0-.45,0-.68,0a.6.6,0,0,1-.59-.58c0-.43.1-.78.56-.83s1.07,0,1.6-.08c.83-.07,2,.37,2-1.15s-1.2-1.09-2-1.1C41.08.13,41.08.15,41.08,5a25.33,25.33,0,0,1,0,3C40.84,9.84,41.59,10.46,43.26,10.22Z" style="fill:#726658;fill-rule:evenodd"/><path d="M97.27,10.24c.75-.07,1.36-.1,1.35-1.11s-.69-1-1.38-1.08c-.94-.18-2.6.7-2.67-.79-.09-1.65,1.6-.71,2.5-.89a1.06,1.06,0,0,0,1-1.25A1,1,0,0,0,97.17,4c-.92-.2-2.63.68-2.58-.79s1.74-.52,2.68-.69c.73-.13,1.33-.11,1.37-1.11C98.68.29,98,.29,97.16.24,92-.08,92-.1,92,5.17,92,10.74,92,10.73,97.27,10.24Z" style="fill:#726658;fill-rule:evenodd"/><path d="M33,9.91a3.74,3.74,0,0,0,3.93-.23c.83-.55,1.81-1.45,1.17-2.42-.47-.72-1.6-.44-2.42.26-1.31,1.1-1.92.38-2.07-1a15,15,0,0,1,0-2.32c.08-1.56.72-2.24,2.16-1.2.85.6,1.91.9,2.4.08S37.76,1.35,37,.82A3.53,3.53,0,0,0,35.52.25C32.54-.26,31,1.47,31,5.54,31,7.16,31.11,8.94,33,9.91Z" style="fill:#726658;fill-rule:evenodd"/><path d="M77.67,10.24c1.41,0,1.47-.88,1.39-1.85-.14-1.48.32-2.19,1.89-2,.83.1,1.79.17,1.77-1.16s-1-1-1.82-1.14-1.81.44-1.71-.83,1.2-.57,1.87-.71a3.07,3.07,0,0,1,.68,0c.77,0,1.57.11,1.6-1.09S82.67.28,81.85.23c-5.34-.35-5.34-.36-5.34,5,0,1,0,2,0,3C76.56,9.08,76.12,10.2,77.67,10.24Z" style="fill:#726658;fill-rule:evenodd"/><path d="M61.49,2.45c2-.11,1.62,1.34,1.63,2.52s0,2.64,0,4c0,.85.31,1.29,1.2,1.29S65.57,9.86,65.56,9c0-1.47,0-2.95,0-4.43,0-1.17,0-2.2,1.6-2.07.83.06.91-.64.9-1.31s-.42-.93-1-.93H61.72a.86.86,0,0,0-1,1C60.76,1.81,60.77,2.49,61.49,2.45Z" style="fill:#726658;fill-rule:evenodd"/><path d="M86.14,8.82c0,.93.21,1.44,1.26,1.42s1.17-.72,1.17-1.55c0-1.16,0-2.31,0-3.47s0-2.32,0-3.47c0-.85-.07-1.5-1.18-1.52s-1.27.49-1.25,1.41Q86.19,5.24,86.14,8.82Z" style="fill:#726658;fill-rule:evenodd"/><path d="M72.07,10.23c1.1,0,1.19-.7,1.18-1.54,0-1.16,0-2.31,0-3.47s0-2.31,0-3.47c0-.84-.07-1.51-1.17-1.53s-1.3.48-1.29,1.41q0,3.59,0,7.17C70.78,9.73,71,10.25,72.07,10.23Z" style="fill:#726658;fill-rule:evenodd"/><path d="M136.92,256.89c0-.41,0-1.07-.62-.95-.47.09-.62.63-.64,1.11.16.36.33.71.49,1.07h0a11.72,11.72,0,0,0,.29,3.63C137.36,260,136.8,258.42,136.92,256.89Z" style="fill:#726658;fill-rule:evenodd"/><path d="M132.49,256.14c-.27-.43-.77-.44-.8,0a14.29,14.29,0,0,0,.23,5.65c1.12-1.17,0-2.62,1-3.58A2.21,2.21,0,0,1,132.49,256.14Z" style="fill:#726658;fill-rule:evenodd"/><path d="M128.17,256.25h0c.25,1.73-.2,3.52.77,5.24,0-1.75,0-3.5,0-5.25Z" style="fill:#726658;fill-rule:evenodd"/><path d="M126.88,256.15l1.29.1a.53.53,0,0,1,.78,0c.46-.08,1,.21,1.41-.38h-3.49C126.87,256,126.88,256.05,126.88,256.15Z" style="fill:#726658;fill-rule:evenodd"/><path d="M133.86,259a9.21,9.21,0,0,0-1.37-2.86c-.13.74.44,1.34.38,2.06l.44.87h0Z" style="fill:#726658;fill-rule:evenodd"/><path d="M135.66,257.05a3.92,3.92,0,0,0-.91,1.9l.06.52h0v.06c.77-.15.63-1.18,1.33-1.4C135.83,257.84,135.38,257.62,135.66,257.05Z" style="fill:#726658;fill-rule:evenodd"/><path d="M134.77,259.49a.37.37,0,0,1-.12-.33c0-.14.06-.21.1-.21l-.89.05a.39.39,0,0,1-.55.07c0,.51.05,1,.56,1.32A1.49,1.49,0,0,1,134.77,259.49Z" style="fill:#726658;fill-rule:evenodd"/><path d="M134.79,259.5c-.32.28-.4.82-.92.89,1.18.63.88-.31.95-.87h0Z" style="fill:#726658;fill-rule:evenodd"/><path d="M134.79,259.5l0,0h0l0,0Z" style="fill:#726658;fill-rule:evenodd"/><path d="M134.81,259.53v0Z" style="fill:#726658;fill-rule:evenodd"/><path d="M68.9,67.13c0,1.87,0,3.73,0,5.6,0,2.72,1.26,3.43,3.65,2.08a3.39,3.39,0,0,0,1.68-2.88,56.92,56.92,0,0,0,0-9.77c-.17-2.14-1.45-3.07-3.48-3.29-1.39-.15-1.94.25-1.87,1.74C69,62.78,68.9,65,68.9,67.13Z" style="fill:#726658;fill-rule:evenodd"/><path d="M42.51,116.21c-1.16-.1-1.67.22-1.62,1.5.08,2.24,0,4.49,0,6.73,0,1.86-.08,3.72,0,5.57.06.9-.66,2.3.62,2.6a3.57,3.57,0,0,0,4.06-1.44,4.41,4.41,0,0,0,.64-1.95,51.74,51.74,0,0,0,0-9.72C46,117.22,44.56,116.39,42.51,116.21Z" style="fill:#726658;fill-rule:evenodd"/><path d="M42.7,94.24c2.88-.08,3.95-1,3.92-3.55s-1.1-3.28-3.85-3.44c-3.07-.16-1.37,2.18-2,3.41C41.65,91.75,39.39,94.33,42.7,94.24Z" style="fill:#726658;fill-rule:evenodd"/><path d="M53.43,143.18c-2.16-.16-2.21,1-2,2.56-.26,1.6,0,2.72,2,2.46,1.68-.21,3.54,0,3.69-2.42C57.29,143.93,56.17,143.37,53.43,143.18Z" style="fill:#726658;fill-rule:evenodd"/><path d="M67.9,145.56,67.09,148c-1.39,4.05-1.39,4.05,3.19,3.4-.63-2-1.26-3.91-1.88-5.85Z" style="fill:#726658;fill-rule:evenodd"/><path d="M55.81,108.52c3.13-.07,6.27-.1,9.4,0,1.58,0,2.06-.41,2.1-2.06,0-1.88-.54-2.48-2.32-2.28-1.21.14-2.46-.1-3.67,0-1.86.23-2.51-.35-2.43-2.36.15-4.13,0-4.2,4.06-4.14,1.54,0,2-.36,2.13-2,.2-2.51-1.2-2.3-2.79-2.28-3.37,0-3.37,0-3.34-3.42a4.08,4.08,0,0,0,0-.7c-.18-1.29.45-1.59,1.59-1.53,1.6.08,3.22-.08,4.82,0,2,.17,1.42-1.28,1.49-2.3s.21-2.12-1.54-2c-3.13.15-6.27.11-9.4,0-1.36,0-1.68.48-1.66,1.75.07,3.57,0,7.14,0,10.72s0,7.3,0,10.94C54.21,108.15,54.61,108.55,55.81,108.52Z" style="fill:#fff"/><path d="M42.17,143.43A2.53,2.53,0,0,1,44.3,145a1.56,1.56,0,0,0,2.38,1c.87-.52.06-1.4-.25-2a5.33,5.33,0,0,0-10,1.93c-.11,1-.12,2-.19,3.19s0,2.48.22,3.78a5.15,5.15,0,0,0,4.91,4.42,5.28,5.28,0,0,0,5.4-3.51c.14-.42.47-1,0-1.25a2.85,2.85,0,0,0-1.33-.18c-.83-.05-.88.73-1.19,1.21a2.84,2.84,0,0,1-3.15,1.41,2.77,2.77,0,0,1-2.35-2.77,50.86,50.86,0,0,1,0-6A2.82,2.82,0,0,1,42.17,143.43Z" style="fill:#fff"/><path d="M44.8,77.64c0,1.66.29,2.28,2.11,2.29s2.3-.61,2.25-2.39c-.12-4.16,0-8.33,0-12.7a3.11,3.11,0,0,1,1.3,1.89c1.75,4,3.54,7.92,5.21,11.92.9,2.17,2.64.92,4,1.17,1,.18,1-.71,1-1.42q0-11.09,0-22.17c0-.54.06-1.09-.57-1.39a2.46,2.46,0,0,0-3.7,2.4q0,3.73,0,7.47v3.71c-2.25-4.1-4-8.21-5.82-12.33-1.09-2.5-3.22-1.1-4.84-1.2-1.42-.09-.78,1.43-.79,2.21C44.82,64,44.89,70.79,44.8,77.64Z" style="fill:#fff"/><path d="M82.07,67.31c0,3.66,0,7.31,0,11,0,1.17.26,1.65,1.52,1.62,3.36-.07,6.73-.08,10.1,0,1.88,0,1.32-1.29,1.34-2.25s.45-2.14-1.28-2-3.36-.07-5,0c-1.44.09-2-.28-2-1.9,0-4.51-.08-4.57,4.31-4.59,1.36,0,1.75-.37,1.89-1.81.24-2.37-.85-2.58-2.74-2.55-3.93.06-3.35.62-3.41-3.4,0-.23,0-.47,0-.7-.16-1.23.4-1.64,1.58-1.59,1.68.07,3.37-.05,5,0s1.39-1.2,1.42-2.21.27-2.2-1.5-2.14c-3.13.1-6.27.09-9.41,0-1.4,0-1.86.37-1.82,1.83C82.14,60.17,82.07,63.74,82.07,67.31Z" style="fill:#fff"/><path d="M81.59,97.09a69.36,69.36,0,0,1-5-10.66c-.85-2.33-2.07-3.24-4.52-3-1.44.14-2,.41-2,2q.11,10.5,0,21c0,1.63.44,2.13,2,2.1s2.38-.14,2.31-2.09c-.16-4.24,0-8.48,0-12.86,1,.4,1,1.18,1.27,1.76,1.76,4,3.52,7.93,5.2,11.92.89,2.1,2.63,1.08,4,1.17,1.57.1,1-1.32,1-2.08,0-7,0-14,.07-21,0-1.66-.61-1.94-2-1.86s-2.4-.21-2.31,1.82C81.7,89.22,81.59,93.16,81.59,97.09Z" style="fill:#fff"/><path d="M38.52,79.83c1-.07,2.53.68,2.5-1.55Q40.9,67.35,41,56.4c0-1.94-1.12-1.66-2.24-1.6s-2.55-.62-2.49,1.57c.11,3.65,0,7.3,0,10.94s.08,7.29,0,10.94C36.22,80.2,37.43,79.9,38.52,79.83Z" style="fill:#fff"/><path d="M97.44,141.26c-2.83,0-5.67,0-8.5,0-.78,0-1.08.34-1.08,1.12s.25,1.07,1,1.16c1,.09,2.39-.64,2.94.5.42.89.14,2.13.16,3.22,0,.93,0,1.86,0,2.79,0,1.87,0,3.73,0,5.6,0,.86,0,1.48,1.17,1.47s1.21-.62,1.2-1.5c0-2.94.12-5.91,0-8.85-.13-2.26.1-3.83,2.91-3.28.77.15,1.32-.11,1.3-1.11C98.52,141.57,98.19,141.26,97.44,141.26Z" style="fill:#fff"/><path d="M84.79,141.25c-2.29,0-4.6.07-6.89,0-1.28,0-1.53.52-1.5,1.66.07,2.09,0,4.2,0,6.29s0,4.35,0,6.53c0,.72-.07,1.39,1,1.38s1.38-.29,1.36-1.33c0-1.63-.54-3.68.23-4.78.95-1.34,3.12-.36,4.76-.49.84-.07,1.28-.28,1.26-1.2s-.58-1.12-1.36-1.1c-1.23,0-2.45,0-3.68,0-.44,0-.91.05-1.18-.47a2.83,2.83,0,0,1,2.35-4.23c1.22,0,2.45,0,3.67,0,.79,0,1.31-.15,1.3-1.14S85.55,141.25,84.79,141.25Z" style="fill:#fff"/><path d="M85,137.11c1.42,0,.79-1.45.8-2.23,0-6.84,0-13.69.07-20.52,0-1.65-.25-2.34-2.09-2.27-1.59.07-2.31.26-2.23,2.14.16,3.8,0,7.61,0,11.42l-.46.17c-1.55-3.58-3.27-7.11-4.6-10.78-.86-2.35-2.11-3.17-4.54-3-1.47.13-1.94.44-1.92,2,.08,7,.09,14,0,21,0,1.81.56,2.17,2.21,2.21s2.19-.6,2.14-2.29c-.11-4.22,0-8.45,0-12.68a2.45,2.45,0,0,1,1.1,1.24c1.8,4.12,3.62,8.22,5.36,12.36C81.74,138.11,83.57,137.14,85,137.11Z" style="fill:#fff"/><path d="M67.29,135.59c.18-2.18-.56-2.9-2.65-2.65-1.36.16-2.76,0-4.13.05-1.17.07-1.57-.31-1.62-1.56-.17-4.75-.22-4.74,4.43-5,.63,0,1.37.26,1.66-.76.69-2.42-.11-3.56-2.59-3.57-.77,0-1.54,0-2.3,0-.45,0-1.07.07-1.09-.54a14,14,0,0,1,.13-4.62c.36-1.15,1.9-.39,2.9-.49a18.82,18.82,0,0,1,3.44,0c1.92.16,1.31-1.26,1.35-2.19s.43-2.21-1.42-2.14c-3.14.12-6.29.12-9.42,0-1.52-.06-1.78.56-1.75,1.9.07,3.5,0,7,0,10.5,0,3.66,0,7.32,0,11,0,1.28.33,1.78,1.67,1.74,3.22-.09,6.44-.08,9.66,0C66.83,137.31,67.18,136.92,67.29,135.59Z" style="fill:#fff"/><path d="M102.54,112.19c-4.21.06-8.42,0-12.63,0-.5,0-1-.14-1.38.52a2.48,2.48,0,0,0,2.32,3.75,10.59,10.59,0,0,0,1.38,0c1.36-.17,1.69.49,1.65,1.76-.07,2.88,0,5.75,0,8.63s.15,5.61-.06,8.39c-.17,2.3,1.15,1.95,2.56,2.06,1.67.13,2.26-.34,2.21-2.16-.13-4.73,0-9.48,0-14.22,0-4.11,0-4.2,4-4.41,1.66-.08,1.38-1.1,1.32-2S104.43,112.17,102.54,112.19Z" style="fill:#fff"/><path d="M78.77,60.75c-.48-3.2-2.47-5-5.61-5.67-2.35-.48-4.74-.12-7.1-.31-1.61-.13-1.9.59-1.87,2,.09,3.5,0,7,0,10.5,0,3.66,0,7.31,0,11,0,1.2.33,1.67,1.56,1.61,2-.09,4,.06,6-.08,4.08-.27,6.51-2.3,7.06-6A44.32,44.32,0,0,0,78.77,60.75ZM74.28,72.18a3.38,3.38,0,0,1-1.68,2.87C70.21,76.4,69,75.69,69,73c0-1.87,0-3.73,0-5.59,0-2.18.08-4.36,0-6.52-.07-1.49.48-1.89,1.87-1.74,2,.22,3.31,1.14,3.48,3.28A56,56,0,0,1,74.28,72.18Z" style="fill:#fff"/><path d="M50.71,117.9a6.32,6.32,0,0,0-5.52-5.44c-2.36-.45-4.73-.12-7.09-.3-1.41-.11-1.86.39-1.82,1.82.09,3.57,0,7.14,0,10.71s0,7.3,0,10.95c0,.94.05,1.69,1.31,1.62,2.51-.14,5,.17,7.54-.28a6.3,6.3,0,0,0,5.55-5.41A40.22,40.22,0,0,0,50.71,117.9Zm-4.4,11.57a4.5,4.5,0,0,1-.64,1.95,3.58,3.58,0,0,1-4.06,1.44c-1.28-.3-.56-1.71-.61-2.6-.11-1.85,0-3.72,0-5.57,0-2.25.06-4.49,0-6.73-.05-1.28.46-1.61,1.62-1.5,2,.18,3.51,1,3.73,3.28A51,51,0,0,1,46.31,129.47Z" style="fill:#fff"/><path d="M46.22,84c-2.71-.74-5.48-.23-8.22-.42-1.3-.09-1.73.36-1.7,1.69.07,3.57,0,7.15,0,10.72s0,7.31,0,11c0,1.18.32,1.6,1.55,1.63,3.14.06,3.14.13,3.14-3v-3.27c0-3.34,0-3.34,3.33-3.74a14.05,14.05,0,0,0,1.57-.31c3.54-.8,5.33-3,5.45-6.74C51.48,87.36,49.84,85,46.22,84ZM42.77,94.49c-3.31.08-1.06-2.5-1.9-3.58.6-1.24-1.11-3.58,2-3.41,2.76.15,3.82,1,3.85,3.43S45.64,94.41,42.77,94.49Z" style="fill:#fff"/><path d="M57.5,151.77c-.52-1-.8-1.58.45-2.33,1.72-1,1.92-2.9,1.53-4.75A3.74,3.74,0,0,0,56,141.46c-1.89-.19-3.81-.14-5.71-.23-1,0-1.31.46-1.31,1.41q0,6.53,0,13c0,.94.23,1.41,1.27,1.41s1.19-.66,1.17-1.51c0-1.09-.05-2.17,0-3.26,0-.68-.4-1.7.8-1.81,1-.1,2-.26,2.48,1S56,154,56.49,155.31c.59,1.63,1.61,2.1,3.5,1.52C59.13,155.07,58.37,153.39,57.5,151.77Zm-4-3.32c-2.09.25-2.31-.87-2-2.47-.21-1.56-.16-2.71,2-2.56,2.75.19,3.86.76,3.75,2.61C57.08,148.49,55.22,148.24,53.54,148.45Z" style="fill:#fff"/><path d="M74.35,156.26c0-.15-.09-.3-.14-.44q-2.34-6.69-4.67-13.39c-.25-.73-.61-1.21-1.46-1.19s-1.07.65-1.31,1.35c-1.45,4.17-3,8.32-4.38,12.5-.18.55-1.24,1.44,0,1.89a1.52,1.52,0,0,0,2.26-1.2c.14-.65.11-1.71,1.18-1.74a29.81,29.81,0,0,1,4.82.07c1.11.15.86,1.49,1.23,2.29.47,1,1.29.61,2,.63C74.37,157,74.52,156.72,74.35,156.26Zm-7.2-8c.28-.8.54-1.6.81-2.4l.5-.05c.62,2,1.25,3.88,1.88,5.86C65.76,152.26,65.76,152.26,67.15,148.21Z" style="fill:#fff"/></g></g></svg>