<svg xmlns="http://www.w3.org/2000/svg" viewBox="0 0 280.37 49.85"><g fill-rule="evenodd" data-name="Layer 2"><path d="M216.9 25.73c-.54 5.59-1.11 11.17-1.61 16.76-.13 1.45-1.14.77-1.79.86s-1.46.28-1.55-.94c-.34-4.64-.78-9.28-1.16-13.92-.5-6-.94-12-1.52-18.06-.12-1.3.15-1.77 1.44-1.56a3.85 3.85 0 001 0c1-.14 1.26.24 1.3 1.23.22 5.19.51 10.37.79 15.55a24.26 24.26 0 00.46 3.77c.46-5 .93-10 1.38-15 .14-1.49.31-3 .35-4.48s1.2-.95 2-1.07 1.15.2 1.21 1.13c.41 6.45.89 12.9 1.57 19.37.23-2.89.47-5.77.69-8.65.26-3.52.49-7 .79-10.56 0-.43-.24-1.23.6-1.27a13.36 13.36 0 012.68.15 3.24 3.24 0 01.07 1.33c-.44 4.36-.91 8.72-1.38 13.08q-.91 8.61-1.84 17.23a8.62 8.62 0 00-.18 1.42c.1 1.77-1.19 1.13-2.07 1.27-1.1.18-1.31-.36-1.38-1.32-.37-5.23-.8-10.45-1.2-15.68a4.77 4.77 0 01-.28-1.41.91.91 0 01-.37.77z" fill="#010101"/><path d="M242.64 28c0-5.9.06-11.79 0-17.68 0-1.47.63-1.48 1.69-1.48s1.85-.06 1.84 1.52c-.09 10.46 0 20.91-.07 31.37 0 .6.54 1.65-.82 1.63-1.11 0-2.24.35-2.6-1.42-1.27-6.1-2.7-12.16-4.28-18.24v3.9c0 4.83-.06 9.65 0 14.48 0 1.52-.82 1.29-1.72 1.28s-1.74.27-1.73-1.27c.07-10.67 0-21.34 0-32 0-.84.13-1.24 1.12-1.26 2.77-.05 2.74-.1 3.29 2.89 1 5.45 2 10.89 3 16.33z" fill="#030303"/><path d="M141.84 24v17.51c0 .59.37 1.5-.34 1.72a7 7 0 01-2.7 0c-.45-.05-.31-.61-.31-1V9.91c0-1 .37-1.23 1.22-1.13a4.27 4.27 0 001.13 0c1.17-.22 1.55.34 1.75 1.43 1.05 5.89 2.16 11.77 3.26 17.65 0 .08.14.13.32.3V10.72c0-.61-.34-1.58.23-1.79a6.76 6.76 0 012.7-.09c.52 0 .35.58.35.92v32.48c0 .53.11 1.17-.76 1s-2.13.59-2.48-1.1c-.81-3.92-1.75-7.81-2.63-11.71L142.07 24zM122.53 26.17c0 5.25-.08 10.5 0 15.75 0 1.84-1 1.39-2 1.46s-1.85 0-1.81-1.52c.13-4.07 0-8.15.07-12.22 0-1.09-.21-1.44-1.37-1.44s-1.53.3-1.51 1.52c.09 4.07 0 8.14.06 12.21 0 1-.15 1.51-1.36 1.47-2.39-.08-2.4 0-2.4-2.34V10.37c0-1.56.68-1.6 1.8-1.51s2.09-.41 2 1.45c-.14 4.28 0 8.57-.08 12.85 0 1.36.66 1.22 1.56 1.28s1.34-.25 1.32-1.31c-.06-4.29 0-8.57 0-12.86 0-1.11.27-1.59 1.41-1.4a3.85 3.85 0 001 0c1.1-.16 1.45.25 1.44 1.39-.16 5.31-.13 10.61-.13 15.91zM256.7 42a3.79 3.79 0 01-4.61 1.47 4.57 4.57 0 01-3-4 17.27 17.27 0 01-.09-2.87V14.42c0-2.89 1.35-5.05 3.51-5.75 2.86-.94 5.56.7 6.22 3.82.53 2.54.14 5.12.26 7.68 0 .6-.3.72-.8.7a17.42 17.42 0 00-1.77 0c-.72.07-.9-.23-.89-.92v-5.78c0-1-.36-1.77-1.35-1.82s-1.58.72-1.58 1.79v24.11c0 1 .28 1.89 1.47 1.89s1.44-.88 1.44-1.89v-7.4c0-.53.07-.92-.76-1.05-1.08-.17-.4-1.2-.54-1.83-.29-1.32.25-1.7 1.6-1.66 3.45.11 3.45 0 3.45 3.57v11.73c0 .58.53 1.49-.54 1.73A1.45 1.45 0 01256.7 42z" fill="#020202"/><path d="M71.69 26V10.23c0-1.15.31-1.45 1.43-1.39 2 .09 4 .07 6 0 .95 0 1.13.31 1.13 1.18 0 2.48 0 2.48-2.37 2.48a3.52 3.52 0 01-.65 0c-1.36-.23-1.85.21-1.77 1.69.14 2.68.12 5.37 0 8-.06 1.31.36 1.68 1.6 1.57.57-.05 1.53-.41 1.71.32a5.83 5.83 0 01-.08 3c-.18.61-1.16.31-1.76.27-1.07-.08-1.5.18-1.47 1.38.09 3.21.06 6.43 0 9.65 0 .92.26 1.26 1.18 1.15.52-.06 1.08.06 1.6 0 1.56-.25 2 .25 2 1.92s-.51 2.08-2.06 1.94a29.83 29.83 0 00-4.82 0c-1.3.1-1.72-.24-1.7-1.63.08-5.24.03-10.5.03-15.76zM198.54 26.19V10.28c0-1.06.16-1.51 1.36-1.44 1.92.11 3.85.08 5.78 0 .93 0 1.29.15 1.28 1.2 0 2.46 0 2.46-2.4 2.46a6.14 6.14 0 01-1 0c-1.11-.17-1.47.24-1.43 1.38q.12 4.26 0 8.51c0 1.16.32 1.49 1.43 1.4.65-.05 1.71-.38 1.92.25a6 6 0 010 3c-.15.7-1.05.39-1.56.32-1.5-.19-1.89.38-1.83 1.84.12 3 .07 6 0 9 0 1 .16 1.54 1.29 1.36a9.1 9.1 0 011.28 0c2.18 0 2.1 0 2.21 2.18.06 1.3-.24 1.78-1.63 1.68a45.2 45.2 0 00-5.46 0c-1 0-1.35-.23-1.34-1.3.13-5.33.1-10.63.1-15.93zM83 26V10.26c0-1.13.27-1.48 1.41-1.41a52.34 52.34 0 005.46 0c1.11-.06 1.42.36 1.29 1.36a4.2 4.2 0 000 1.12c.1.86-.15 1.23-1.11 1.21s-2.6-.55-3.2.23-.18 2.15-.18 3.26c0 2.14.06 4.29 0 6.43 0 1.09.21 1.52 1.38 1.42.69-.05 1.79-.44 2 .26a6 6 0 01.06 3c-.14.76-1 .43-1.51.36-1.56-.2-2.06.28-2 1.95.15 4.17 0 8.35.08 12.53 0 1.11-.24 1.45-1.39 1.41-2.29-.07-2.29 0-2.29-2.29zM96.56 28.06V14.23c0-1.14-.17-1.68-1.45-1.52-.56.07-1.54.4-1.69-.32a12.38 12.38 0 010-3.33c0-.29.46-.18.71-.18h8.2c.82 0 1 .34.94 1.05a7 7 0 000 1.45c.17 1.15-.32 1.59-1.42 1.38-1.5-.29-1.73.42-1.72 1.76.06 9.12 0 18.23.08 27.34 0 1.76-.87 1.5-1.94 1.55s-1.83 0-1.79-1.51c.16-4.62.08-9.24.08-13.84zM60.85 26.07V10.16c0-1.05.27-1.34 1.32-1.31 2.34.05 2.34 0 2.34 2.38V37.9c0 1.3.26 1.91 1.63 1.65a4 4 0 01.49 0c2.67 0 3 .46 2.58 3.14-.14.84-.67.67-1.17.68-2 0-4-.06-5.94 0-1 .05-1.22-.32-1.22-1.27-.01-5.32-.03-10.68-.03-16.03z" fill="#010101"/><path d="M228.16 26V10.43c0-1.23.26-1.8 1.56-1.58a3.82 3.82 0 001.12 0c.88-.1 1.26.18 1.19 1.14-.08 1.17 0 2.35 0 3.53 0 9.42-.06 18.84.06 28.25 0 1.89-1 1.55-2.07 1.61s-1.9 0-1.86-1.65c.08-5.23 0-10.47 0-15.73z" fill="#040303"/><path d="M265.11 17.47c0-2.09-.07-4.18 0-6.26.09-1.84 1.28-3 2.78-2.86s2.31 1.22 2.35 3.08V14c0 .6-.16.85-.8.87s-.94-.24-.9-.93a24.48 24.48 0 000-2.57c0-.42-.15-.88-.74-.85s-.73.35-.73.86v12.2c0 .5.18.84.71.88s.74-.39.76-.82q.07-1.37 0-2.73c0-.66.18-1 .91-.94s.81.34.79.91v3.05a2.55 2.55 0 11-5.09.12c-.11-2.19 0-4.39 0-6.58z" fill="#030303"/><path d="M271.73 28.91h6.26c.79 0 1 .22 1 1s0 1.23-1 1.22q-6.27-.08-12.53 0c-1 0-.94-.53-1-1.22s.19-1 1-1c2.1.09 4.18 0 6.27 0z" fill="#100f0f"/><path d="M280.36 25c0 .69.26 1.49-.92 1.42s-.69-1-.75-1.53-.26-1.29.82-1.29c1.25.05.72.93.85 1.4z" fill="#0f0e0e"/><path d="M216.9 25.73v-1.59c.38-.25.44.1.58.31v1.93c-.26-.15-.07-.71-.58-.65z" fill="#6c6969"/><path d="M217.49 24.45l-.58-.31c0-.24 0-.64.36-.51s.22.52.22.82z" fill="#323130"/><path d="M162.75 35.91V17.57a32 32 0 00-.24-4.48c-.37-2.8-1.88-4.19-4.68-4.22-1.34 0-2.68.08-4 0-1.09-.08-1.32.31-1.31 1.33.05 5.31 0 10.61 0 15.92v13.81c0 3.44 0 3.44 3.49 3.44 5.1 0 6.42-1.24 6.71-6.34.05-.37.03-.75.03-1.12zm-4 3c-.41.83-1.15.64-1.82.64-.93 0-.58-.74-.58-1.17V26.02v-12c0-.54-.39-1.38.75-1.39.9 0 1.61.18 1.82 1.16a6 6 0 01.07 1.12v22.42a3.52 3.52 0 01-.26 1.57z" fill="#020202"/><path d="M182.37 30.39a5.08 5.08 0 00-1.84-4.57 4.55 4.55 0 001.7-3 49.61 49.61 0 00-.14-10.41A4 4 0 00178 8.88h-4.34c-.94 0-1.16.27-1.15 1.16v31.85c0 1.3.37 1.64 1.59 1.53s2.47 0 3.7 0a4.21 4.21 0 004.41-4c.41-3.03.07-6.03.16-9.03zm-6.26-12.08v-4.5c0-.54-.24-1.26.76-1.22.78 0 1.67 0 1.69 1.05.07 3.1.07 6.21 0 9.31 0 1-.89 1.18-1.78 1.15s-.65-.8-.66-1.29c-.03-1.5-.01-3-.01-4.5zm2.51 19.75c0 1.08-.47 1.49-1.56 1.52-1.34 0-.92-.88-.93-1.52v-4.65-4.48c0-.54-.38-1.38.74-1.39s1.72.29 1.74 1.39v5.93c.01 1.07-.01 2.14.01 3.2z" fill="#010201"/><path d="M195.46 41.43a27.69 27.69 0 01-.22-4.64 72.45 72.45 0 00-.14-7.37c-.15-1.13-1.29-1.82-1.51-2.7s1.3-1.52 1.39-2.66v-.32a92.91 92.91 0 00.02-11.07 4 4 0 00-4.2-3.79h-4.18c-1-.06-1.35.23-1.34 1.31.06 5.3 0 10.61 0 15.91v15.08c0 2.2 0 2.11 2.18 2.22 1.29.07 1.6-.35 1.57-1.59-.07-4.07 0-8.14 0-12.21 0-.46-.31-1.16.58-1.22s1.56 0 1.83.9a4.86 4.86 0 01.13 1.43v8.52a7.53 7.53 0 00.63 3.28c.7 1.43 2.12 1 3.13.79s.27-1.23.13-1.87zm-4.29-17.33c-.36.73-1 .67-1.68.62s-.49-.7-.5-1.11v-5-4.82c0-.46-.3-1.16.6-1.2s1.55 0 1.76 1a5.88 5.88 0 01.11 1.11v7.87a3.48 3.48 0 01-.29 1.53z" fill="#010101"/><path d="M135.82 41.87c-.38-3.19-.66-6.39-1-9.58-.71-7.18-1.48-14.36-2.09-21.55-.14-1.6-.6-2.26-2.21-1.79-1.7-.51-2.11.23-2.25 1.89-.48 5.81-1.17 11.6-1.75 17.39-.47 4.69-.9 9.38-1.36 14.06-.07.65-.09 1.31.8 1.05s2.15.84 2.42-.78.39-3.29.52-4.94c.05-.67.31-.84 1-.92 1.32-.15 2 .24 1.94 1.66 0 .85.08 1.71.1 2.56.06 2.47.06 2.38 2.52 2.49 1.32.06 1.54-.41 1.36-1.54zm-5.44-9c-.87 0-1.1-.25-1-1.09.37-3.86.7-7.73 1-11.6l.25-.05c.23 3.93.43 7.86.71 11.78.08.82-.26.87-.96.91z" fill="#020202"/><path d="M277.14 17.45V11.5c0-1.95-1.14-3.16-2.69-3.15s-2.63 1.18-2.64 3.17v12.05c0 1.86 1 3 2.58 3.07s2.69-1.14 2.73-3.09.02-4.07.02-6.1zm-2.71 7c-.69 0-.62-.59-.62-1.07V11.52c0-.5 0-1 .7-1s.63.6.63 1.07V23.3c-.02.51.12 1.18-.71 1.16z" fill="#040404"/><path d="M24.93 49.85a24.93 24.93 0 1124.93-24.41 24.91 24.91 0 01-24.93 24.41z" fill="#221f1f"/><path d="M48.68 25A23.76 23.76 0 1124.93 1.17 23.75 23.75 0 0148.68 25z" fill="#fffefe"/><path d="M22 18.62c0-2.47.18-4.93.37-7.39.08-.93.08-1.87.23-2.8a4.53 4.53 0 01.33-1.25 1.44 1.44 0 011.2-1 1.71 1.71 0 011.64.82 4.36 4.36 0 01.54 2 38.83 38.83 0 01.14 5.06c-.12 2 0 4-.15 5.93a1.8 1.8 0 00.1.79c.11.29.3.35.54.16a1.77 1.77 0 00.48-.64 28.46 28.46 0 001-2.86c.64-1.72 1-3.54 1.6-5.27a9.9 9.9 0 011.17-2.43c.53-.75 1.09-1 1.74-.82a1.73 1.73 0 011.12 1.66 12.49 12.49 0 01-.2 2.8 36 36 0 01-.61 3.86 68.05 68.05 0 00-1.43 7 8.54 8.54 0 00.24 3.62c.41 1.37 1.33 1.67 2.48.83a15.71 15.71 0 002.22-2.32A7.26 7.26 0 0140.24 24a1.74 1.74 0 012 .67 1.19 1.19 0 01.07 1.35c-.75 1.24-1.4 2.54-2.18 3.76a6.37 6.37 0 01-1.39 1.54 15.82 15.82 0 00-2.52 2.84c-1.27 1.7-2.37 3.52-3.7 5.17a9.8 9.8 0 01-5.92 3.85A8.22 8.22 0 0119.11 41a11 11 0 01-3-5.06c-.43-1.48-.64-3-.93-4.51-.17-.88-.32-1.77-.55-2.65a7.88 7.88 0 00-1.27-2.48c-1.11-1.6-2.07-3.28-3.18-4.88a7.44 7.44 0 01-1.27-2.84 2.48 2.48 0 010-.94 1.18 1.18 0 01.9-1 1.62 1.62 0 011.71.58c.52.61 1 1.24 1.52 1.87 1 1.19 1.88 2.39 2.84 3.57a3.55 3.55 0 001.17.93c.09.05.19.13.27.07s0-.2 0-.29a4.07 4.07 0 00-.22-.7 38.66 38.66 0 01-2-6.1 33.13 33.13 0 01-.92-3.42 3.62 3.62 0 010-1.82 1.52 1.52 0 012.53-.63 5.5 5.5 0 011.16 2c.91 2.35 1.82 4.71 2.81 7a2.89 2.89 0 00.63 1c.24.23.38.21.52-.11a1.92 1.92 0 00.14-.75z" fill="#221f1f"/><path d="M35.5 41.23a1.81 1.81 0 011.82-1.83 1.84 1.84 0 11-1.82 1.83z" fill="#222020"/><path d="M22.7 17.89c0-2 .16-4.06.33-6.14.08-1 .09-2 .22-3a3.84 3.84 0 01.34-1.33.84.84 0 011.52-.13 2.58 2.58 0 01.42 1.19c.16 1.12.16 2.25.22 3.38s0 2-.06 3v3.59c0 .59-.09 1.18-.07 1.77a2.78 2.78 0 00.15.86 1 1 0 001.52.55 2 2 0 00.74-.85 17.38 17.38 0 00.88-2.41c.78-2.11 1.19-4.33 2-6.42a7.58 7.58 0 011-1.89c.21-.25.44-.51.82-.42s.52.42.61.77a5.17 5.17 0 010 1.84c-.2 1.39-.31 2.79-.6 4.17s-.63 2.64-.89 4a38.63 38.63 0 00-.73 4.12 9.23 9.23 0 00.35 3.8 3.61 3.61 0 00.21.49 1.91 1.91 0 002.77.87 6.8 6.8 0 002.12-1.87 10.81 10.81 0 012.34-2.29 4.84 4.84 0 011.66-.77 1 1 0 011.2.45.45.45 0 010 .53c-.66 1-1.16 2-1.74 3.05a9.82 9.82 0 01-2.23 2.57A16.84 16.84 0 0035.58 34c-1.25 1.61-2.28 3.37-3.55 5a9.22 9.22 0 01-5.37 3.59 7.63 7.63 0 01-7.77-2.72 12 12 0 01-2.48-5.63c-.26-1.3-.53-2.6-.72-3.91a10.32 10.32 0 00-1.94-4.65c-1.06-1.49-1.95-3.1-3-4.6a6.31 6.31 0 01-1.16-2.68 1.5 1.5 0 010-.2c0-.28 0-.58.33-.73a.79.79 0 01.82.09 2.78 2.78 0 01.68.73c1.21 1.52 2.41 3.06 3.62 4.58a5.74 5.74 0 001.4 1.29 2 2 0 00.56.28.77.77 0 001.08-.92 4.23 4.23 0 00-.34-1.15 28.55 28.55 0 01-1.54-4.42c-.44-1.52-.9-3-1.28-4.57a4.85 4.85 0 01-.11-1.37.9.9 0 01.58-.89.88.88 0 011 .38 9.24 9.24 0 011.15 2.44C18.34 16 19.16 18 20 20.08a3.68 3.68 0 00.8 1.23.94.94 0 001.67-.31 2.63 2.63 0 00.23-1.11c.01-.63 0-1.26 0-2z" fill="#d0212d"/><path d="M37.83 41.37a.57.57 0 00.38-.73c-.11-.35-.42-.4-.73-.41h-1c-.06 0-.12 0-.13.08s.06.08.11.08c.23 0 .25.2.26.37v1c0 .35 0 .34-.26.37s-.12 0-.11.1.07.07.12.07h1c.05 0 .12 0 .12-.07a.11.11 0 00-.05-.08c-.44-.08-.25-.44-.34-.75a1.25 1.25 0 01.42.48c.18.28.36.54.78.4a1.44 1.44 0 01-2 .24 1.58 1.58 0 01-.4-2.07 1.55 1.55 0 012.75 1.43c-.08.19-.15.24-.33.09a5.23 5.23 0 01-.59-.6z" fill="#fefefe"/><path d="M37.21 40.8c.08-.11-.11-.35.18-.34s.3.16.29.36-.1.35-.31.34-.09-.24-.16-.36z" fill="#eae9e8"/></g></svg>