<svg xmlns="http://www.w3.org/2000/svg" viewBox="0 0 221.24 59.7"><g data-name="Layer 2"><path d="M.63 45.84c1.47-6.56 3.7-12.9 5.7-19.31a8.67 8.67 0 000-5.31C4.39 14.77 2.1 8.45.62 1.89.84 1.25 1 .53 1.85.48h215.53c1.51 0 3.26-.4 3.31 2-1.91 6.53-3.8 13.07-5.77 19.59a5.88 5.88 0 000 3.64c2 6.51 3.85 13.06 5.77 19.59-.13 1.28-.47 2.32-2.13 2a7.89 7.89 0 00-1.46 0H4.19c-1.28-.05-3.09.79-3.56-1.46z" fill="#aba28b"/><path d="M.63 45.84C1.4 46.91 2.48 47 3.71 47H217.5c1.51 0 2.62-.25 3.19-1.75 1.52 2.77-.43 2.44-2.13 2.44H2.39c-.93-.02-3.49.96-1.76-1.85z" fill="#b6a98e"/><path d="M220.69 2.46C220.1.73 218.76.71 217.21.71H4.58c-1.42 0-3-.36-4 1.15C0 1-.61.1 1.23 0h217.28c1.76 0 3.56-.24 2.18 2.46z" fill="#b7a98d"/><path d="M4.06 5.43c-.9-2.29-.44-3.11 2.32-3.11q104.33.12 208.65 0c2.67 0 3.12.65 2.27 3.12-1.76 5.15-3.23 10.41-4.91 15.6a8.78 8.78 0 000 5.64c1.76 5.47 3.39 11 5.11 16.46a5.39 5.39 0 01.36 2.57c-.85.73-1.88.37-2.81.37H6.32c-.93 0-1.95.36-2.8-.37-.4-1.23.54-2.25.54-3.41A14.59 14.59 0 016 36l1-3.11a8.59 8.59 0 011-4.2c1.56-3.56 1.13-6.91-.15-10.39C7.22 16.63 6.34 15 6.4 13L6 11.69a16.27 16.27 0 01-1.94-6.26z" fill="#fff"/><path d="M3.52 45.72h214.34c-.78 1.13-2 .67-3 .67H6.43c-.96 0-2.14.46-2.91-.67z" fill="#9a927a"/><path d="M4.28 1.4h212.81v.27H4.16z" fill="#9d947d"/><path d="M6.4 13c1.08 3.31 2.24 6.6 3.19 9.94.66 2.3-1 4.23-1.43 6.37A30.59 30.59 0 017 32.93c-1.14-1.92.23-3.66.83-5.15 1.33-3.31.51-6.22-.37-9.33-.52-1.75-2.2-3.34-1.06-5.45zM6 36a29.85 29.85 0 01-1.9 6.27c-.89-2.48.64-4.42 1.45-6.51a.42.42 0 01.25 0c.04.12.09.24.2.24zM4.06 5.43A30.55 30.55 0 016 11.69C4.42 9.88 3.48 7.88 4.06 5.43z" fill="#aba28b"/><path d="M78.52 29.42a2.67 2.67 0 00-3.33-1.63c-1.36.42-.67 1.86-.66 2.82 0 1.89.07 3.14-2.64 3.14s-2.84-1.19-2.79-3.28c.12-5.07.11-10.15 0-15.22 0-1.79.28-2.59 2.33-2.51 4.29.18 8.59 0 12.88.09 3.55.07 4.47 1.09 4.51 4.6v4.39c0 5.32-.25 5.59-5.52 6.07.54.75.9 1.51 1.93 1.49.6.24 1.21.45 1.41 1.16l3.68 2.93c-3.47.22-6.62 1-9.11-2a14.51 14.51 0 00-2.72-2.06z" fill="#05529c"/><path d="M44 15.4a2.48 2.48 0 012.31-2.31c5.25-.09 10.51-.07 15.77 0a2.36 2.36 0 012.3 2.32 103.64 103.64 0 000 15.76c-.11 1.95-1.57 2.39-3.06 2.41-4.78.09-9.55.07-14.33 0-1.29 0-2.54-.32-2.94-1.87A127.12 127.12 0 0044 15.4z" fill="#03529d"/><path d="M19.37 23.57c0-2.92.07-5.85 0-8.77 0-1.41.42-1.85 1.82-1.83 5 .07 10 0 14.92 0 2.38 0 3.65 1.05 3.63 3.52v7.89c0 2.23-1.16 3.39-3.48 3.35-2.93-.05-5.86.13-8.78-.05-2.16-.14-3.17.48-2.76 2.71.51 2.73-.68 3.45-3.29 3.3-1.77-.1-2.07-.72-2-2.26.11-2.63 0-5.27 0-7.9z" fill="#08509b"/><path d="M130.59 29l5.81.2c1.06 0 2-.11 1.91-1.52-.07-1.16.75-1.36 1.52-1.15 1.28.36 3.32-1.2 3.77 1.2.7 3.7-.41 5.74-3.37 5.87-4.57.2-9.16.14-13.73 0a3.38 3.38 0 01-3.61-3.73V16.42c0-2.6 1.51-3.91 4.08-3.93 4.38 0 8.77-.07 13.15 0 2.93.06 4.81 3.64 3.39 6.19a1.13 1.13 0 01-1.22.53c-1.35-.08-2.73.25-4-.26l-.59-.63c-2.4-1.93-5.14-.72-7.74-.83a.75.75 0 00-.76.75c.08 3.31-.87 6.68.53 9.91a2.41 2.41 0 01.86.85z" fill="#06519c"/><path d="M190.79 20c1.1-1.93 2.19-3.88 3.31-5.81.37-.64.57-1.53 1.57-1.5 1.53 0 3.59-.43 4.43.36s-.9 2.24-1.5 3.39a36.6 36.6 0 01-3.12 5.26 12.46 12.46 0 00-2.81 9.74c.32 2.13-.76 2.46-2.49 2.28-1.41-.14-3.38.63-3-2.09.61-3.91-.88-7.17-3-10.33-1.77-2.63-3.24-5.46-4.9-8.28 5.35-.79 5.31-.77 7.75 3.7.87 1.59 1.44 3.37 2.8 4.66a.29.29 0 00.25-.06 3.05 3.05 0 00.2-.53c.02-.41.36-.56.51-.79z" fill="#06529c"/><path d="M163.88 18.34c.32-1.77-1-1.1-1.83-1.26-1.72-.34-3.58.68-5.21-.52 1.89-.69 3.81-.09 5.45-.32h-3.66c-.92 0-1.5-.4-1.54-1.35-.05-1.11.56-1.55 1.63-1.55h15.76c1.39 0 1.65.84 1.47 2.26.34-2.12-.77-2.3-2.19-2.28q-7 .06-14 0c-.94 0-1.94.33-2.83-.28 6.26-.9 12.56-.17 18.84-.36 1.59-.05 1 1.38 1 2.22s.6 2.1-1 2.23h-.88c-5.53.22-5.54.22-5.55 5.67 0 3-.14 6 0 9.07.13 2.38-1.45 1.8-2.68 1.78s-2.79.68-2.71-1.75c.12-4.09 0-8.18-.08-12.27a1.15 1.15 0 01.01-1.29z" fill="#05519c"/><path d="M99.68 33l-.21-13.4a1.05 1.05 0 010-1.25c.31-1.76-1-1.11-1.83-1.27-1.7-.35-3.54.72-5.14-.54a17.27 17.27 0 016.31-.05 17.42 17.42 0 00-4.32-.24c-1 0-1.68-.2-1.68-1.43s.56-1.5 1.62-1.49h15.47c1.14 0 1.84.35 1.62 1.42.22.58.67.07.36.3 0 0-.17 0-.19-.21-.15-1.7-1.37-1.53-2.55-1.53H95.43c-1 0-1.94.28-2.85-.27 3.6-.93 7.25-.19 10.88-.38 2.13-.11 4.27 0 6.4 0 1.65-.07 2.67 0 2.64 2.24s-.82 2.4-2.57 2.29-3.3 0-5 .07c-1 2.41-.29 4.92-.43 7.39-.12 2.12-.09 4.27 0 6.4.07 1.55-.32 2.28-2.08 2.28s-2.09-.8-2-2.31c.07-2.83 0-5.66 0-8.49v8.58c-.03.62.43 1.58-.74 1.89z" fill="#03529d"/><path d="M148.08 23c0-2.73.15-5.46 0-8.17s1.59-1.82 2.88-1.9 2.61-.31 2.54 1.93c-.16 5.74-.15 11.48 0 17.22.05 2.4-1.49 1.77-2.72 1.8s-2.81.51-2.68-1.83c.1-3.05-.02-6.05-.02-9.05z" fill="#07529c"/><path d="M40.83 16.91a17.15 17.15 0 01.63 11.37c-.52 1.84-2.42 2.1-4.12 2.14-2.53.06-5.06.14-7.58 0-2.09-.13-3 .4-2.88 2.71.15 3.53-1.36 4.22-5 2.53.23-.59.76-.57 1.2-.5 2.22.35 3.07-.6 2.68-2.75-.46-2.63.68-3.43 3.21-3.2a60.54 60.54 0 007 0c3.53-.09 4.7-1.21 4.83-4.78.11-2.49.03-5.01.03-7.52z" fill="#9f9780"/><path d="M47.09 35.09h14.79c2.64 0 3.82-1.59 3.82-4.15V16.61a2.66 2.66 0 011.17 2.71v12.85c0 2.25-1 3.92-3.33 4-4.76.15-9.52.06-14.29 0-.81-.02-1.8-.11-2.16-1.08z" fill="#a09880"/><path d="M203 15.65c-2 3.39-3.93 6.79-6.07 10a11.07 11.07 0 00-2 6.82c.16 4.29-.78 4.82-5.06 3.26.06-.15.13-.44.18-.44 3.23.3 4.25-1.24 3.76-4.28a9.12 9.12 0 011.93-6.81c1.6-2.32 3-4.81 4.38-7.25.58-1.05 1.17-2.02 2.88-1.3z" fill="#a39b84"/><path d="M165.35 35.21c6.55.84 5-3.07 5.06-5.94s.1-5.85 0-8.77c-.07-1.68.55-2.31 2.18-2.12.58.06 1.17 0 1.75 0 2.19.21 4.16.15 3.75-3.34 2 3.49 1.4 4.52-2 4.55-4.48.05-4.48.05-4.48 4.48v8.76c.02 3.87-1.14 4.51-6.26 2.38z" fill="#a19982"/><path d="M101.59 35.63c4.49-1 4.49-1 4.49-5.34 0-3.22.11-6.43 0-9.64-.09-1.87.61-2.47 2.35-2.24a17 17 0 001.75 0c2 0 4.31.49 3.2-3.53a3.41 3.41 0 011.15 4.12c-.27.94-1.53.52-2.36.54-4.94.14-4.94.13-4.94 5.19v7.59c0 4.51-.51 4.85-5.64 3.31z" fill="#9b937a"/><path d="M86.64 30.54l-1.4-1.15c4.47-1.18 4.47-1.18 4.48-5.87v-6.65c1.19-.2 1.38.65 1.4 1.23.08 3.21.23 6.43 0 9.62-.18 2.67-2.84 2.1-4.48 2.82z" fill="#a9a28d"/><path d="M156.92 13c5.65 0 11.29 0 16.93.05 2.71 0 3 .56 1.45 3.66 1.41-3.8-1.09-3.1-2.92-3.1h-12.56c-.88 0-2.19-.35-2.16 1.18S159 15.9 159.87 16a7.92 7.92 0 013.44.61h-6.47a5 5 0 01.08-3.61z" fill="#254188"/><path d="M99.68 33c1.2-3.79 0-7.72 1-11.56v9.22c0 1.24 0 2.33 1.75 2.34s1.79-1 1.78-2.31V19.86c0-.9-.43-2 .72-2.61 0 4.35-.33 8.73 0 13.05.27 3.28-1.15 3.75-3.74 3.36-.48-.13-1.33.34-1.51-.66z" fill="#234088"/><path d="M141.62 35.19c2.71-1 3.31-3.43 3.48-6.09 1.82 4.18 0 7.27-4.17 7.21s-8.56.52-12.8-.35c3.48-.84 7-.12 10.51-.39.99-.08 2.09.48 2.98-.38z" fill="#a49c86"/><path d="M92.58 13c5.56 0 11.12.13 16.67 0 2.57 0 3 1 2.13 3.24.16-2.08-.64-2.8-2.71-2.71-4.38.18-8.77 0-13.15.07-.88 0-2.22-.43-2.28 1.06-.07 1.76 1.42 1.19 2.37 1.26a7.49 7.49 0 013.2.59h-6.3a7.19 7.19 0 01.07-3.51zM62.06 13.08a48.24 48.24 0 01-15.77 0 63 63 0 0115.77 0z" fill="#263d85"/><path d="M155.28 15.72v19.13c0 .78-.2 1.29-1.15 1.24-1.23-.05-2.46 0-3.8 0a4.62 4.62 0 01.23-.73c3.7.45 4.09-1.59 3.94-4.66-.24-5-.06-10-.06-15z" fill="#8f856a"/><path d="M78.49 29.38c-.58 1.09-1.91 1.51-1.8 3.3.25 4-.78 4.53-4.94 3 0-.58.45-.62.75-.57 2.65.47 3.5-.74 3.09-3.21s.4-3.49 2.93-2.53z" fill="#a29a83"/><path d="M130.59 29h-1.16a20.19 20.19 0 010-10.66c.85-.4 1.42 0 1.88.67-1.59 3.21-.31 6.64-.72 9.99z" fill="#a8a08a"/><path d="M144.91 16a4.23 4.23 0 01.73 5.22c-.93 1.41-3.14.58-5.07.34 1.07-1.79 3.24-.13 3.87-1.39.56-1.1.33-2.6.47-4.17z" fill="#a39b85"/><path d="M141.62 35.19c.07 1.27-.9.59-1.33.6-4 .11-8.1.13-12.16.17-.67-.06-1.38-.06-1.67-.77z" fill="#8f866a"/><path d="M44 15.4c1.16 2.6.43 5.34.47 8S45 29 44 31.73a80.29 80.29 0 010-16.33z" fill="#263d84"/><path d="M64.36 31.16a48.46 48.46 0 010-15.76 94.25 94.25 0 010 15.76z" fill="#263c84"/><path d="M92 35.91c-2 .13-4.13.76-6.89-.44C88 35.12 90 35 92 35.91z" fill="#92886d"/><path d="M99.48 18.35v1.25c-1.58-.17-3.22.31-5.12-.43 1.76-1.4 3.53-.57 5.12-.82z" fill="#a79f88"/><path d="M163.88 18.34v1.27h-4.76c1.41-1.83 3.18-1.01 4.76-1.27z" fill="#a69e88"/><path d="M190.79 20c-.15.27-.31.53-.46.79a25 25 0 01-3-5.71c2.15 1.49 2.26 3.59 3.46 4.92z" fill="#a0967f"/><path d="M131.31 19l-1.31-.64a8.82 8.82 0 018.15-.14c0 .25.05.5.08.74z" fill="#8d8367"/><path d="M83.51 19.53c.26 4.07.26 4.07-3.75 4-1 0-1.94-.09-2.91-.14-1.64-3.1-.85-4.65 2.51-4.74 1.42.01 2.96-.34 4.15.88z" fill="#f6f7f8"/><path d="M75.58 23.46c-2.43-1.57-.75-3.89-.9-5.82-.11-1.3 1.5-.74 2.36-.81 1.34-.09 2.7 0 4 0 1.14 0 2.12.12 2.42 1.46-1.25 1.14-2.8.66-4.18.58-2.29-.13-3.59.44-3.23 3a1.93 1.93 0 01-.47 1.59z" fill="#fbfbfa"/><path d="M75.58 23.46c0-5.16 0-5.15 5.35-5.17h2.58v1.28c-1 0-1.94-.08-2.91-.05-3.89.1-3.84-.95-3.75 4z" fill="#a49e8a"/><path d="M59.1 19.55c0 2.51 0 5 .13 7.52.08 1.57-.38 2.35-2.1 2.23-1.92-.14-3.85-.11-5.78-.15-1.3-1.72-1.73-7.53-.67-9.13a2.41 2.41 0 011.92-1.2c2.19-.06 4.48-.82 6.5.73z" fill="#fafafa"/><path d="M50 29.18c-1 0-1-.8-1-1.46a37 37 0 010-3.8c.16-2.19-1.07-5.43.53-6.36 2.47-1.43 5.85-.44 8.84-.42.79 0 .82.67.71 1.29-1.85.88-3.82.43-5.72.41s-2.84.74-2.75 2.73c.08 1.84 0 3.68 0 5.52.02.75.22 1.58-.61 2.09z" fill="#f0efec"/><path d="M50 29.18c.07-2.51.3-5 .15-7.51s.46-3.61 3.16-3.29a48.58 48.58 0 005.79.05v1.12c-9 0-9 0-7.75 9.6z" fill="#9b9279"/><path d="M34.42 19.65c.27 4 .27 4-3.49 4-1.35 0-2.69-.07-4-.11-1.23-3.15-.37-4.66 2.89-4.77 1.54-.1 3.29-.61 4.6.88z" fill="#f7f7f5"/><path d="M25.84 23.5c-2.62-1.17-.75-3.4-1.13-5.1-.32-1.46 1.07-1.24 2-1.24h5.5c1.1 0 2.21 0 2.2 1.56-1.5 1-3.17.44-4.74.42-2.2 0-3.66.42-3.36 3a1.83 1.83 0 01-.47 1.36z" fill="#dee4e8"/><path d="M25.84 23.5c0-4.77 0-4.77 4.77-4.77h3.8v.95h-3.8c-3.7 0-3.7 0-3.73 3.85z" fill="#999077"/><path d="M138.19 18.22l-8.15.14c-1.37 2.39-.29 5-.59 7.47a27.56 27.56 0 000 3.15c-1.26.25-1.19-.66-1.2-1.43v-9.07c0-.92.05-1.85 1.29-1.87h7.61c1.09.02 1.23.72 1.04 1.61z" fill="#f0f1f2"/><path d="M201 59.65c-5.56 0-4.92.5-4.94-4.86 0-3.64 0-3.66 3.71-3.66h4.48c.79 0 1.57.22 1.79 1.19.08.36.19.75-.19 1-.72.4-1.25-.1-1.89-.28a19.71 19.71 0 00-5.28-.23c-.59 0-.51.55-.56 1-.57 4.14-.46 4.26 3.73 4.25h.86c.64-.07 1.52.27 1.47-.95-.05-1-.78-.8-1.38-.84h-1.27c-.42 0-.59-.15-.58-.5s.1-.69.23-.72a7.09 7.09 0 014.58 0c1 .46.39 2.07.35 3.16a1.39 1.39 0 01-1.48 1.48zM164.83 54c-.72 1.78-1.22 3.11-1.78 4.41-.24.53-.29 1.27-1.21 1.26s-1-.6-1.24-1.2c-.72-1.93-1.48-3.84-2.19-5.77-.19-.51-.88-1.21.15-1.52a1.2 1.2 0 011.68.83c.5 1.47 1.12 2.89 1.81 4.66.71-1.75 1.29-3.16 1.85-4.57.19-.48.35-.91 1-1s1 .44 1.2 1c.57 1.36 1.11 2.72 1.88 4.6.67-1.82 1.19-3.14 1.64-4.49.26-.8.71-1.3 1.54-1 1.14.36.23 1.1.09 1.52-.65 2-1.42 3.86-2.19 5.77-.22.55-.31 1.25-1.22 1.22s-1-.71-1.19-1.27c-.57-1.33-1.09-2.63-1.82-4.45zM190 56.87v-4.39c0-.62-.12-1.32.88-1.35s.94.65.94 1.3v5.76c0 .5.35 1.22-.47 1.44a1.67 1.67 0 01-1.57-.43c-1.88-1.6-3.79-3.18-6.1-5.12v4.33c0 .66 0 1.27-.94 1.28s-1-.55-1-1.25v-5.77c0-.54-.19-1.22.51-1.48a1.56 1.56 0 011.54.5zM150.13 59.68c-4.39 0-4.39 0-4.39-4.48 0-4.07 0-4.07 4-4.07h3.85c.54 0 1 .12 1 .81s-.45.79-1 .79h-4.49c-.63 0-1.3-.12-1.27.92s.78.71 1.35.86c.84.21 2.4-.68 2.41.71 0 1.72-1.65.6-2.53.84-.63.17-1.25 0-1.24 1s.67.92 1.31.92h4.27c.7 0 1.31 0 1.24 1s-.79.65-1.29.67c-1.08.06-2.15.03-3.22.03zM177.4 55.32v3.39c0 .73-.31 1-1 1s-1-.27-1-1v-6.56c0-.71.34-1 1-1s1 .34 1 1c-.01 1.06 0 2.11 0 3.17zM127.38 55.78a1.35 1.35 0 010-.93c.88-3 .34-3.7-2.76-3.72h-1.71c-4.32 0-4.32 0-4.32 4.33s0 4.22 4.17 4.22h1.7c3.41-.01 3.92-.68 2.92-3.9zm-5.7-3.1h2.76c.68 0 1.52-.13 1.48 1 0 .94-.76.86-1.39.87h-2.75c-.69 0-1.27 0-1.23-1 .03-.81.53-.87 1.13-.87zm2.59 5.51H121.49c-.75 0-.94-.44-1-1.1s.31-1 1-1h2.78c.73 0 1.69-.24 1.66 1s-.93 1.04-1.66 1.1zM140.14 58.1l-1.49-1.27c2.4-.67 2.86-1.45 2.55-3.87-.24-2-1.66-1.84-3-1.82-2 0-4.59-.66-5.77.34-1.37 1.17-.29 3.88-.46 5.9a2.27 2.27 0 000 .64c.12.66-.45 1.66.93 1.67s1-.83 1.11-1.59c0-.51-.32-1.25.45-1.46a1.83 1.83 0 012 .48c.37.42.86.75 1.22 1.18a3.49 3.49 0 004.14 1.16zm-3.62-3.1c-.82-.17-1.81.36-2.4-.36a1.41 1.41 0 01.12-1.74c.29-.33 4.46-.24 4.73.08a1.31 1.31 0 01.12 1.57c-.66.83-1.71.26-2.57.45z" fill="#aba28b"/></g></svg>