<svg xmlns="http://www.w3.org/2000/svg" viewBox="0 0 264.63 48.92"><g fill-rule="evenodd" data-name="Layer 2"><path d="M7.64 21.3c-.15 1.44-.36 2.74-.39 4-.09 4.1-.12 8.19-.16 12.29 0 3.63.36 4.19 3.81 4.9 1.33.27 1.1 1.36 1.26 2.18s0 1.71-1 1.9c-2 .38-4 1.41-6.2.75a4.58 4.58 0 00-1.85.26 2 2 0 01-2.3-1.09 1.69 1.69 0 01.77-2.09c1.85-1.19 2-3 2-4.89-.06-7.36.74-14.71.26-22.08-.14-2.11.3-4.34-2.53-5.42a2.29 2.29 0 01-.85-3.43 2 2 0 013.12-.48A1 1 0 005 8.18a2 2 0 013.26 1c.81 2.07 2.29 3.69 3.41 5.52 3.08 5 5.17 10.64 9.29 15a11.35 11.35 0 011.2 2c.66-.14.43-.63.46-1 .38-5.23-.62-10.4-.76-15.62 0-1.6-1.36-2.51-2.59-3.33-.44-.29-1-.45-1.39-.75a1.56 1.56 0 01-.74-2 1.67 1.67 0 012-1 16.91 16.91 0 006.72-.25c.67-.13 1.54-.92 2.06.27.43 1 .48 2.17-.4 2.75-2.2 1.44-1.84 3.24-1.41 5.39a35.84 35.84 0 01.12 9.14 103.42 103.42 0 00.11 17.86 9.25 9.25 0 01-.68 4.47 2 2 0 01-1.81 1.33A1.72 1.72 0 0122 47.65c-2.53-5.82-5.84-11.26-8.59-17-1.33-2.76-2.78-5.54-4.37-8.2a1.85 1.85 0 00-1.4-1.15zM61.83 21.66C63 17.75 64 14.38 65.08 11c.3-1-.3-1.27-1.06-1.53-.44-.14-.88-.45-.81-1s.48-.7 1-.83a23.09 23.09 0 016.74-.25 1.19 1.19 0 011.22 1.1 1.39 1.39 0 01-1.27 1.34c-1.57.27-1.08.94-.66 1.91 1.35 3.13 2.08 6.52 4.06 9.71.81-1.8 1.62-3.49 2.34-5.21.38-.91.49-1.93.91-2.81.85-1.78 1.45-3.39-1-4.41-.47-.19-1-.62-.62-1.26a1.51 1.51 0 011.7-.76 12.44 12.44 0 004.88.55c1-.09 1.37.77 1.51 1.54s-.52.82-1.15 1a4 4 0 00-2.61 3.05c-1.1 4.15-3.3 7.94-4 12.2a16 16 0 01-1.77 4.56c-.8 1.63-1.75 1.6-2.78.1a9.81 9.81 0 01-1.48-4 63.24 63.24 0 00-3-10.83c-1.18 1.71-1.33 3.66-2.07 5.38-1.29 3-3.13 5.83-3 9.28 0 .69-.58.84-1.07 1a1.13 1.13 0 01-1.42-.39 8.27 8.27 0 01-.67-1.89C57.4 24 55.89 19.42 54 15c-.73-1.73-1.72-3.61-3.66-4.52-.52-.25-.92-.59-.84-1.21s.69-.94 1.27-1.09a15.07 15.07 0 017.28 0c.39.09.84.21.81.69a1.19 1.19 0 01-1 1.15c-1.62.28-1.43 1-.59 2a4.07 4.07 0 011 2.33c.3 2.76 2.5 4.43 3.56 7.31zM229.85 21.6c.71-3.47-.34-6.69-.61-10-.11-1.3-1.47-1.56-2.5-2-.68-.28-1.63-.51-1.41-1.37a1.48 1.48 0 012-.83c2 .58 4-.07 5.94-.21.62 0 1.25-.17 1.46.61a1.19 1.19 0 01-.73 1.54c-1.47.61-1.39 1.63-1 2.94a14.31 14.31 0 01.13 5.34 44.81 44.81 0 00.06 10.67 4.63 4.63 0 01-.08 1.78 2.23 2.23 0 01-1.8 1.93c-1 .15-1.51-.48-2.06-1.23q-5.07-7-10.24-13.88c-.36-.49-.67-1.4-1.43-1.14s-.53 1.19-.54 1.76c-.06 2.69-.08 5.38-.19 8.07a2.23 2.23 0 002.63 2.51c.9-.07 1.56.12 1.7 1.17s-.65 1.27-1.44 1.47a33.7 33.7 0 01-6.65.51 1.54 1.54 0 01-1.64-.89c-.19-.64.47-1.09 1-1.34a2.17 2.17 0 001.31-2.21c0-4.57.71-9.11.32-13.69-.13-1.43-.17-2.62-1.91-3a1.48 1.48 0 01-1.21-1.78 1.5 1.5 0 011.94-1 5.51 5.51 0 003.24 0 1.54 1.54 0 011.56.71c2 2.43 4.28 4.66 6.08 7.28a38.77 38.77 0 006.07 6.28zM107.41 17.55a2.67 2.67 0 00.4 0c1.42-.2 3.48.74 4.13-.47.81-1.52.56-3.6.44-5.46a2.36 2.36 0 00-1-1.64 1.83 1.83 0 01-.38-2.19c.35-.89 1.1-.66 1.7-.61 1.65.13 3.29.36 4.94.55a1.29 1.29 0 011.17.93 1.15 1.15 0 01-.46 1.41c-2.18 1.14-2.28 3.37-2.45 5.26a59.7 59.7 0 00.06 9 6.61 6.61 0 001.87 4.3c.4.41 1 .83.54 1.53a1.57 1.57 0 01-1.55.66h-5.18a1.63 1.63 0 01-1.81-1.2c-.23-.89.45-1.15 1-1.43 1.25-.57 1.37-1.62 1.37-2.83 0-4.62 0-4.53-4.48-5-1.51-.15-3 .31-4.51-.13a1.13 1.13 0 00-1.38 1.12 13.75 13.75 0 00.82 6.45 2 2 0 001 .94c.49.25 1.08.38.89 1.08a1.35 1.35 0 01-1.27.83c-1.92.21-3.84.37-5.76.45-.81 0-1.77-.57-.93-1.28 2.53-2.16 1.67-5 1.54-7.48a41 41 0 01.07-8.65 3.19 3.19 0 00-1.84-3.8c-.65-.3-1.12-.68-1-1.52s.85-.89 1.37-.92c2-.14 4-.16 6-.2.57 0 1.28-.16 1.49.64a1.78 1.78 0 01-.65 1.78 6 6 0 00-1.54 7 1.64 1.64 0 001.62.92c1.26.05 2.52 0 3.78 0zM39 7.34c1.91-.17 3.82.21 5.72-.24a1.93 1.93 0 012.48 1.37 3.31 3.31 0 01-.83 3.46 1.28 1.28 0 01-1.93-.32 3.83 3.83 0 00-1.71-1.31c-3-1.24-4-.64-4.07 2.6a16 16 0 00-.18 2.37c.1.81-.33 2 1.05 2.23 1.22.24 2.37.42 3.12-.93.44-.78.82-1.9 2-1.53 1 .33.74 1.41.84 2.25a13.21 13.21 0 01-.19 4 1.24 1.24 0 01-.7 1.12c-.62.22-.7-.36-1-.68a3.8 3.8 0 00-4.35-.78c-1.46.58-1 1.95-.77 3.12a3.68 3.68 0 01.17.77c-.09 2 .57 3.54 2.73 4a5 5 0 005.28-2.55c.37-.66.6-1.76 1.56-1.48 1.12.32 1 1.51.79 2.39-.61 2.53-1.09 4.44-4.75 3.77-3.14-.57-6.35.11-9.53.08-1.09 0-2.48.53-2.87-.86S32.3 28 33.76 28c.52 0 .53-.5.64-.88a6.48 6.48 0 00.24-2.76c-.57-3.5-.23-7-.26-10.52A4.3 4.3 0 0032 9.74c-.43-.24-1.15-.17-1.05-.92s.69-.76 1.17-1c2.18-.9 4.54-.36 6.88-.48zM158.25 31.19c-3-.69-6.4.14-9.81-.27-.65-.08-1.22-.14-1.44-.78s-.25-1.16.31-1.44c3.05-1.57 2.52-4.44 2.54-7 0-3.38-.11-6.75-.16-10.13a1.25 1.25 0 00-1.19-1.33c-.61-.1-1-.38-1.05-1s.43-1 1-1.31c1.14-.72 2.18-1.07 3.45-.24.89.58 1.94-.12 2.92.07a22.13 22.13 0 012.72.51 1.46 1.46 0 011 1.59c0 .7-.5.95-1.13 1.17-3.49 1.23-3.63 1.6-2.83 5.31a24.26 24.26 0 01.1 9.3c-.33 1.93.48 2.57 2 2.86 3.34.65 4 .3 5.63-2.75.25-.47.44-1 .64-1.45s.53-1.11 1.24-1.13.89.77 1 1.27a25.05 25.05 0 01.42 4.3 2 2 0 01-1.93 2.15c-1.68.11-3.36.17-5.43.3zM186.36 27.46c.08 2.81-.46 3.19-3.15 3.42-4.6.4-9.19 0-13.79 0-.84 0-1.47-.14-1.68-1a1.35 1.35 0 01.86-1.63c2.13-.84 2.11-2.85 2.15-4.49.09-4.09-.16-8.19-.25-12.28a1.23 1.23 0 00-1.2-1.32 1.05 1.05 0 01-1-1c-.07-.68.37-1 1-1.3 1.08-.54 2.05-1.22 3.29-.31a2.33 2.33 0 001.74.18 9.11 9.11 0 013.74.33 1.58 1.58 0 011.28 1.56c.06 1-.58 1.15-1.33 1.38-2.93.91-3.34 1.71-2.7 4.74a28.65 28.65 0 01.12 10.28 1.71 1.71 0 001 2.05 4.37 4.37 0 006.45-1.89c.39-.76.74-1.54 1.09-2.33a1.14 1.14 0 011.07-.74c.61 0 .77.47.88.9a10.06 10.06 0 01.43 3.45zM136.4 41.78a32.68 32.68 0 002.25-5.43c.33-.83-.17-1-.69-1.36-.33-.21-.7-.51-.56-1 .19-.63.77-.33 1.19-.38a1.61 1.61 0 01.78.13c.83.41 2.09-.38 2.58.57.69 1.32-1.13 1.07-1.49 1.91a55.89 55.89 0 00-2.71 7.6 12.93 12.93 0 01-.84 2.43c-.28.57-.4 1.38-1.27 1.3s-1-.85-1.15-1.46c-.69-2.46-1.33-5-2.14-8-.86 3.1-2.36 5.35-2.91 8-.12.57 0 1.32-.79 1.42s-1-.72-1.21-1.31c-1.08-3.11-1.79-6.36-3.66-9.15a8 8 0 00-.84-1.08c-.33-.36-1.11-.46-.93-1.12s1-.76 1.66-.8a18.68 18.68 0 012 0c.58 0 1.35-.11 1.65.48s-.46.79-.86 1.06-.23.4-.06.64c1.16 1.66 1.1 4 2.91 5.37.5-1.7 1-3.39 1.5-5.07.12-.39.31-.75.11-1.15-.75-1.46-.68-1.59.95-1.68h2c.67 0 1.14.06 1.33.63s-.29.8-.77.93c-.68.18-.53.52-.31 1 .76 1.81 1.13 3.8 2.28 5.52zM161.24 38.84a25.58 25.58 0 00-.26 5.87c0 .88.86 1.06 1.61 1.16.44.06.74.22.79.71.08.67-.41.82-.86.85-1.38.11-2.77.19-4.15.2-.6 0-.92-.54-.45-.93 2.06-1.69.81-4.09 1.34-6.1.31-1.17-.1-2.51-.06-3.77 0-1-.66-1.15-1.25-1.56s-.92-1.38 0-1.41c1.27 0 2.63-.64 3.91.76 2.16 2.38 3.75 5.28 6.5 7.2.53-1.91-.15-3.7-.3-5.51-.07-.83-1-1-1.63-1.27-.27-.13-.71-.23-.64-.65a.75.75 0 01.89-.6 13.43 13.43 0 003.75-.13c.32 0 .7-.1.84.32a.68.68 0 01-.25.88c-1.06.51-.65 1.32-.59 2.17.2 3.16-.34 6.33 0 9.49a1.33 1.33 0 01-1 1.56c-.8.21-1.16-.32-1.58-.89-1.82-2.52-3.68-5-5.55-7.5-.18-.35-.36-.85-1.06-.85zM176.49 40.06c-.36-3.82 5.79-8.61 11.26-6a2.49 2.49 0 011 3.39c-.49.9-1 1.09-1.72.08-1.44-2.15-3.08-2.67-5.34-1.78-1.66.65-2.57 2.35-2.32 4.57a6.61 6.61 0 003.65 5.5 2.05 2.05 0 002.39-.34c.92-.74.71-2 .55-3s-.94-.91-1.73-.8c-.47.07-1-.08-1-.67a1 1 0 011-1h2.79c1.33 0 3.18-.44 1.46 2-.5.72-.19 2.07-.11 3.12s.08 1.56-1.3 2.06a8.11 8.11 0 01-8.07-1.13c-1.81-1.31-2.42-3.06-2.51-6zM107.1 34.63a2.65 2.65 0 012.14-.94c2.06 0 4.12 0 6.18-.06a1.19 1.19 0 011.35.91 1.94 1.94 0 01-.46 1.82c-.51.52-1 .11-1.53-.31-.76-.64-1.87-1.42-2.62-.5a3.84 3.84 0 00-.26 3.77c.28.68 1.49.62 2.11-.26.3-.44.59-1.05 1.19-.83s.55 1 .55 1.57a10.86 10.86 0 01-.12 2c-.1.51-.31 1.1-1 .46-.93-.81-2.29-1.24-2.84-.05a3.1 3.1 0 00.72 3.63c1.23 1 2.51.49 3.57-.5a2.44 2.44 0 00.47-.87.71.71 0 01.74-.54c.5.08.5.52.53.93.15 1.85-.78 2.8-2.65 2.77s-4 0-6 0c-.48 0-1.15.27-1.38-.42s0-1.12.77-1.32.83-1 .81-1.65c0-2.44-.21-4.89-.26-7.33-.05-1.37-1.5-1.4-2.01-2.28zM149.07 47.62h-1.39c-.46 0-1.32.14-1.57-.55s.5-.8 1-1.12c1.24-.83.74-2.32.82-3.45.11-1.68.07-3.4 0-5.1 0-.86.14-2.09-1.24-2.4a.73.73 0 01-.54-.93c.11-.57.59-.42.94-.42.93 0 1.86.05 2.79 0 .75 0 1.57 0 1.85.79s-.52.89-1 1.21c-.73.49-.41 1.36-.43 2 0 1.91.12 3.83.2 5.75a3.59 3.59 0 00.89 2.54c.35.35 1 .54.71 1.22s-.93.34-1.43.36-1.06 0-1.59 0zM67.8 41.65c-2.55-.8-4.82-.11-7.35.63-1.93.57-4.6.89-6.72-.61a2.05 2.05 0 01-.65-2.5 1.1 1.1 0 011.45-.7c.67.14 1.21.57.84 1.25-.7 1.31.33 1.32 1 1.48a5.83 5.83 0 004.64-1c1.38-1 3.24-1.22 4.14-2.9.39-.73 1.29-.54 1.29.12 0 .95 2 1.49.51 2.74-.12.1 1 .81 1.62 1.1.03.74-.38.57-.77.39zM197.25 41.25c.27-.28.7-.51.78-.83.11-.49-.42-.3-.69-.41-.78-.29-.08-.36.09-.46a2 2 0 00.74-1.14c.53-1.36.78-1.34 2.1-.3 2.28 1.78 4.71 3.87 8.09 3.31.9-.15 1.79-.11 1.27-1.5-.34-.92.5-1.17 1.11-1.27a1.12 1.12 0 011.26 1 2.14 2.14 0 01-1.65 2.73 11.7 11.7 0 01-7.64-.47 7.38 7.38 0 00-4.61-.26c-.42.17-.87.35-.85-.4z" fill="#5a1a0b"/><path d="M197.25 41.25l.85.41a4.24 4.24 0 01-2.84.6c.46-.93 1.38-.67 1.99-1.01zM67.8 41.65l.8-.35 1.76.5c-1.01.77-1.77.2-2.56-.15z" fill="#5a1a0b"/><path d="M46.73 0c-.48.71-.75 1.21-1.55 1.39A1.67 1.67 0 0146.73 0z" fill="#cecbcb" opacity=".2"/><path d="M133.05 6.88c-6.4 0-13 6.07-12.79 11.83.16 5.53 6.59 12.14 11.81 12.13 6.58 0 12-5.13 12-11.26.01-6.38-5.49-12.7-11.02-12.7zm1.73 20.94c-.89.77-2 .51-3 0-3.3-1.68-4.8-4.56-5.26-8.06a32.65 32.65 0 01-.16-4.54c0-2.45 1.52-3.93 3.6-4.71a6.45 6.45 0 017.09 1.54c2 1.92 1.48 4.65 2.25 6.48.06 4.21-1.85 6.97-4.52 9.29zM208.57 27.15c-1.59-.92-2.07-2.45-2.65-4C204 18.05 202 13 200.09 7.86A2.07 2.07 0 00198 6.37 1.9 1.9 0 00196.06 8c-.13.44-.23.89-.35 1.34-1.78 6.93-3.09 14.05-7.92 19.77-.74.88.09 2.71 1.13 2.43a13 13 0 015.09.06 1.73 1.73 0 002-1.32 1.48 1.48 0 00-.91-2c-1.64-.68-1.7-1.8-1-3.21a4.79 4.79 0 00.68-1.85c0-1.88.87-2.52 2.43-2.07 3.83.15 5.87 2.61 5.27 6.08-.1.6-.6.7-1 .74-1.08.1-2.12.32-2 1.66a2 2 0 002.23 1.83c2-.38 3.92.42 5.87-.12.91-.26 1.9-.27 2.11-1.44a2.48 2.48 0 00-1.12-2.75zm-10.81-9.64c-1-.08-1.09-.79-1-1.76.09-.51 0-1.71.75-1.6 1 .14 1.18 1.39 1.33 2.33.16.77-.4 1.08-1.08 1.03zM104 46.85c-2.3-1.05-3.52-3.06-4.77-5.13-.63-1-.91-1.65 0-2.72a2.89 2.89 0 00-1.37-4.91 12.44 12.44 0 00-7.2 0c-.38.11-.86.18-.79.69 0 .27.33.72.55.74 2.25.22 1.75 1.93 1.79 3.29 0 1.52-.08 3 0 4.58 0 1.34 0 2.53-1.64 3a.8.8 0 00-.66.87c.09.5.61.44 1 .46h2.38v-.12h2.79c.36 0 .84-.21.81-.69a1 1 0 00-.52-.75c-2.26-.49-1.51-2.28-1.62-3.68 0-.45 0-1 .56-1.14s.78.36 1 .75c.94 1.44 1.82 2.92 2.85 4.31s2.27 2.42 4.18 2.17a1.29 1.29 0 001.15-.94c.14-.42-.11-.63-.49-.78zm-8.63-6.79c-1.43 0-.93-1.26-1.29-1.88.53-1.14-.11-2.94 1.66-2.85 1.33.06 1.91 1.55 1.9 2.66a2.23 2.23 0 01-2.23 2.07zM84.23 42c-.43-1-1.63-.85-2.08-1.71 2.47-2.5 2-4.91-1.24-6.26-2-.82-4.16-.35-6.26-.33a.88.88 0 00-.79.79c-.09.53.27.65.69.76 1.22.32 1.37 1.25 1.33 2.33v4.19c-.08 1.72.58 3.58-1.09 5-.35.3-.4 1.38.58 1.16 2-.45 4-.13 5.91-.44 3.05-.44 4.13-2.64 2.95-5.49zm-4.92-6.26a2 2 0 011.88 2.16 1.76 1.76 0 01-1.82 1.91c-1.5 0-1-1.36-1.14-2-.05-1.07-.16-2.14 1.08-2.05zm2.74 8.52c-.28 1.61-1.84 1.17-2.72 1.26-1.49.16-1.09-1.23-1.12-2.18.45-.71-.61-2.37 1.39-2.13a2.81 2.81 0 012.45 3.07zM251.8 8.58a35.32 35.32 0 01-3.44-.87c-3.49-.9-7-2.38-10.24.9-1.26 1.29-1.5 2.22.06 3.15 2.88 1.72 3.74 4.18 3.26 7.44a29.72 29.72 0 00-.21 6.73 97.5 97.5 0 01.31 11.33c-.08 2.28-.16 4.68-2.55 6.12a1.92 1.92 0 00-.54 2.21c.23.71 1.06.5 1.55.5 2.4 0 4.68 1 7.16.67 2.46.48 4.87-.27 7.15-1 2.12-.73 4.52-1.54 5.8-3.57 5.79-9.23 6.29-19.22-.1-28.46a12.07 12.07 0 00-8.21-5.15zm5.77 28.83c-1.29 3.56-4.29 4.78-7.45 5.8-1.12.37-3.09-1.13-3.29-2.6-.63-4.41-1.7-8.77-1-13.33a42.33 42.33 0 000-7.55 29.66 29.66 0 01.53-6.51A1.36 1.36 0 01248 12c3.31.17 6.21 1.47 7.93 4.23a25.17 25.17 0 013.69 12.2 41.45 41.45 0 01-2.05 8.98z" fill="#5a1a0b"/></g></svg>