<svg xmlns="http://www.w3.org/2000/svg" viewBox="0 0 166.55 87.62"><g data-name="Layer 2"><path d="M111.92 13.27a15.36 15.36 0 013.4 3.82 15.69 15.69 0 01-7.77 23 14.48 14.48 0 01-9.15.44c-.43-.12-.56-.21-.22-.6a47.81 47.81 0 003.94-5.24.51.51 0 01.57-.3 5 5 0 003.51-1 9.52 9.52 0 003.54-3.9 3.28 3.28 0 00-.07-3.09c-.33-.62-.71-1.22-1.1-1.81a.49.49 0 010-.63 16 16 0 003.28-10.45 1.8 1.8 0 01.07-.24zM50.81 36.19a15 15 0 01-5-7.06 15.55 15.55 0 018-19.24 15.25 15.25 0 0110.4-1.14c.38.09.48.17.18.51a51.74 51.74 0 00-4.14 5.42c-.1.16-.19.32-.44.29a5.57 5.57 0 00-4 1.36 9 9 0 00-3.1 3.7 3.2 3.2 0 00.13 2.86c.36.68.77 1.33 1.18 2a.56.56 0 010 .75 15.7 15.7 0 00-3.22 10.27 2.84 2.84 0 01.01.28z" fill="#383636"/><path d="M90.22 1.23a10.92 10.92 0 013.29-1 14 14 0 0113.82 5.41 14.28 14.28 0 01.48 16.76c-.32.46-.45.41-.74 0-1.6-2.28-3.35-4.46-5.17-6.57-.23-.27-.33-.44-.08-.81a2.33 2.33 0 00.11-2.34 11.54 11.54 0 00-3.67-4.79 4.36 4.36 0 00-2.75-.94.49.49 0 01-.51-.27 16.11 16.11 0 00-4.69-5.3s-.05-.07-.09-.15zM72.47 48.32a13.9 13.9 0 01-6.42 1.2A14.26 14.26 0 0153 39.23a14 14 0 011.87-12c.29-.46.44-.47.77 0 1.58 2.24 3.3 4.38 5.09 6.46.23.27.3.41 0 .73a2.09 2.09 0 00-.31 2.19 10.75 10.75 0 004.2 5.39 4.12 4.12 0 002.51.65c.25 0 .45 0 .59.25a16.14 16.14 0 004.7 5.3s.02.03.05.12zM76.46 69.66L78 60.81c.16-.89.34-1.77.48-2.66 0-.25.14-.32.37-.31h.51c1.41 0 1.37 0 1.61 1.41.51 3 1.05 5.94 1.58 8.91a8.22 8.22 0 00.45 1.78l.24-2c.34-3.2.68-6.4 1-9.59 0-.38.12-.53.52-.51h2c.4 0 .53.1.47.5q-.54 3.52-1.07 7c-.36 2.46-.72 4.91-1.09 7.37-.21 1.42-.43 2.84-.63 4.26 0 .25-.15.32-.38.32h-2c-.34 0-.39-.21-.43-.45l-1.35-8.1a34.34 34.34 0 00-.76-3.62l-.39 2.25c-.47 2.85-.94 5.7-1.43 8.54-.08.45.07 1.07-.35 1.31s-.87.06-1.32.06c-1.24 0-1.21 0-1.4-1.3-.34-2.42-.74-4.83-1.1-7.24l-1.2-8.21c-.11-.78-.21-1.57-.33-2.35 0-.27 0-.4.3-.39h2.26c.29 0 .4.11.44.4.38 3.6.78 7.2 1.17 10.8 0 .21.08.41.12.62zM87.57 36.06a11.42 11.42 0 004.19 5.75 4.11 4.11 0 003.61.64 1.41 1.41 0 00.74-.37c.38-.47.81-.41 1.31-.25a15.93 15.93 0 0011.58-.65 1 1 0 01.18 0c.17.16 0 .28 0 .4a13.89 13.89 0 01-11.29 7.89 14.22 14.22 0 01-14.28-7.67.63.63 0 01.1-.87 50.41 50.41 0 003.64-4.5c.01-.17.05-.33.22-.37zM74.71 13.62a11.2 11.2 0 00-4-5.76A3.62 3.62 0 0067 7.11a4.43 4.43 0 01-2.92 0 16.78 16.78 0 00-10 .91l-.55.2a5.55 5.55 0 01.76-1.52 14.32 14.32 0 0124.78.89c.13.23.25.41 0 .67a47.83 47.83 0 00-4.21 5.2c-.02.09-.1.12-.15.16z" fill="#383636"/><path d="M12.9 67.56v-9c0-.62.18-.77.75-.72a7.39 7.39 0 001.41 0c.53-.05.7.12.69.67v6.88c0 .7.21.85.84.79a13.81 13.81 0 011.93 0c.46 0 .62-.1.61-.6V58.5c0-.55.15-.71.68-.67a7.32 7.32 0 001.48 0c.54 0 .73.1.72.7v18c0 .62-.19.79-.76.73h-1.23c-.88 0-.88 0-.88-.85v-7.15c0-.55-.17-.69-.69-.65a15.74 15.74 0 01-2.06 0c-.54 0-.63.18-.63.66v7.4c0 .48-.1.65-.6.61a10.35 10.35 0 00-1.67 0c-.47 0-.58-.14-.57-.58l-.02-9.14z" fill="#393637"/><path d="M108.51 28a2.25 2.25 0 01-.34 1.13 8 8 0 01-4.12 3.51 1.88 1.88 0 01-2.43-.69c-1.32-1.67-2.62-3.35-3.92-5-.74-.95-1.47-1.9-2.21-2.84a.55.55 0 01-.09-.74 48.14 48.14 0 014.66-6.53c.25-.28.39-.35.67 0a76.27 76.27 0 017.37 10 2.47 2.47 0 01.41 1.16zM59.15 16.53a2.07 2.07 0 011.9 1l4.86 6.24c.33.42.63.87 1 1.27a.63.63 0 010 .9 67.56 67.56 0 01-4.5 6.49c-.23.29-.36.41-.66.06a82.91 82.91 0 01-7.28-9.8 2.28 2.28 0 01.07-2.75 7.77 7.77 0 014.08-3.27zM73.32 15.93a.44.44 0 01.4.24l7 8.91a.46.46 0 010 .63A61.81 61.81 0 0175.58 33c-.22.28-.33.28-.56 0-2.33-3-4.67-6.08-7-9.12a.47.47 0 01-.06-.62 42.44 42.44 0 015.16-7 1.84 1.84 0 00.2-.33zM94.65 25.63l-.16.31a48.6 48.6 0 01-5 7c-.34.39-.49.28-.76-.06q-3.44-4.44-6.89-8.88c-.19-.24-.3-.43-.11-.74a45.14 45.14 0 015-6.9c.37-.4.55-.4.89.05 2.23 2.94 4.49 5.85 6.74 8.77.11.17.2.32.29.45zM88.52 13.59A11.47 11.47 0 0084.65 8a4.19 4.19 0 00-3.73-1 .34.34 0 01-.47-.19 16 16 0 00-5.06-5.61 10.73 10.73 0 013.23-1 14.14 14.14 0 0112.6 4 12.55 12.55 0 012.22 2.9c.12.21.18.35 0 .55a46.27 46.27 0 00-4.92 5.94z" fill="#383636"/><path d="M87.3 48.35a13.57 13.57 0 01-6.43 1.16 14.2 14.2 0 01-10.09-5 13.58 13.58 0 01-1.58-2.25c-.11-.2-.22-.35 0-.56a49.61 49.61 0 004.59-5.54s.07 0 .14-.09a11.45 11.45 0 002.61 4.4 6 6 0 003.2 2 3.94 3.94 0 002-.09.41.41 0 01.56.22c1.75 3 2.05 3.34 5 5.75z" fill="#393636"/><path d="M159.36 71.81c0-2.21-.09-2.31-2.16-3.17-.67-.28-1.34-.55-2-.85A3.81 3.81 0 01153 65a7.6 7.6 0 01.23-4.48c.87-2.19 2.9-3.18 5.47-2.7a4.45 4.45 0 013.52 4.39c0 1.26 0 1.26-1.28 1.26h-.32c-1.16 0-1.16 0-1.28-1.15a1.85 1.85 0 00-1.82-1.81 1.81 1.81 0 00-1.84 1.69 3.06 3.06 0 01-.05.32c-.24 1.87.15 2.52 1.9 3.19.66.25 1.32.49 2 .75a3.82 3.82 0 012.6 3.23 12.4 12.4 0 01-.2 4.66c-.68 2.52-2.9 3.4-5.15 3.08a4.55 4.55 0 01-4.1-5.2c0-.33.13-.47.46-.45s.6 0 .9 0c.45 0 1-.12 1.32.09s.11.8.18 1.21a1.86 1.86 0 002 1.58 1.7 1.7 0 001.86-1.57c-.06-.42-.06-.85-.04-1.28z" fill="#383636"/><path d="M91 67.58v-9.14c0-.48.1-.61.6-.61h7.15c.43 0 .62.09.58.56s0 1.07 0 1.61-.11.51-.51.51h-4.44c-.43 0-.55.12-.54.54v4.64c0 .4.12.51.51.5h3.8c.35 0 .51.08.49.47a14.27 14.27 0 000 1.73c0 .43-.16.49-.53.49h-3.73c-.43 0-.55.13-.54.55V74c0 .47.16.57.59.56h4.31c.51 0 .63.15.6.62a11.64 11.64 0 000 1.67c0 .47-.16.57-.59.56H91.6c-.49 0-.6-.15-.6-.62.05-3.11 0-6.16 0-9.21z" fill="#393637"/><path d="M52.23 67.58v-9.14c0-.47.09-.61.59-.61h7.15c.44 0 .61.11.58.57a10.82 10.82 0 000 1.61c0 .42-.13.5-.52.5h-4.38c-.5 0-.61.14-.6.61v4.51c0 .47.16.57.59.56h3.68c.41 0 .57.1.54.54 0 .68.22 1.57-.12 2s-1.28.12-2 .14-1.46 0-2.19 0c-.36 0-.54.06-.54.48v4.71c0 .41.15.49.53.49h4.38c.5 0 .62.14.59.61s0 1.2 0 1.8c0 .35-.11.44-.44.44h-7.41c-.54 0-.45-.31-.45-.62z" fill="#383637"/><path d="M40 67.57v-9.15c0-.49.12-.59.6-.59h7.09c.44 0 .69 0 .63.58s.28 1.56-.15 2-1.26.09-1.92.1h-2.9c-.39 0-.53.09-.52.5v4.64c0 .42.11.55.54.54h3.73c.43 0 .56.13.54.55a10.82 10.82 0 000 1.61c0 .45-.15.54-.56.53h-3.6c-.49 0-.67.09-.66.62v4.45c0 .47.1.63.6.61h4.37c.38 0 .54.07.52.49v1.87c0 .35-.07.49-.45.49h-7.41c-.48 0-.44-.24-.44-.56z" fill="#393636"/><path d="M120.29 71l.69-4.11c.46-2.81.93-5.62 1.37-8.43.08-.51.26-.67.78-.63a17.75 17.75 0 001.93 0c.32 0 .41.11.35.43q-1 4.89-2 9.8c-.58 2.83-1.18 5.66-1.73 8.49-.11.58-.28.9-.94.78s-1.29.25-1.66-.14-.3-1-.41-1.58q-1.77-8.69-3.56-17.36c-.08-.4.06-.43.38-.42a16.67 16.67 0 001.87 0c.55 0 .74.16.82.67.3 2 .64 4 1 6s.69 4.31 1 6.46z" fill="#383636"/><path d="M133.52 71.51a10.16 10.16 0 00-.07-1.79c-.18-.83-.54-1.17-1.38-1.12-.69 0-.93-.21-.82-.87a.56.56 0 000-.13c0-.47-.14-1 .06-1.39s.82-.19 1.25-.29a1.23 1.23 0 00.94-1.29c.05-.92 0-1.85 0-2.77a1.36 1.36 0 00-1.3-1.34 1.3 1.3 0 00-1.36 1.25 2.94 2.94 0 000 .51c0 1.18 0 1.18-1.17 1.18-1.63 0-1.63 0-1.62-1.63a4.16 4.16 0 017.64-2.28 4.94 4.94 0 01.64 2.39 16.25 16.25 0 010 3.27A2.23 2.23 0 01135.1 67c-.24.15-.47.3-.07.53a2.75 2.75 0 011.28 2.47 26 26 0 01-.11 4 4 4 0 01-4.7 3.37 3.83 3.83 0 01-3.5-4.18c0-1.49 0-1.49 1.52-1.49 1.22 0 1.22 0 1.27 1.2s.57 1.77 1.38 1.76 1.33-.73 1.34-1.8z" fill="#393636"/><path d="M81.94 26.71l4.27 5.47.07.11c1 1.33 1 1.32.07 2.67a59.82 59.82 0 01-4.3 5.37 2 2 0 01-2.39.52 5 5 0 01-2.14-1.6 11.88 11.88 0 01-1.84-2.85 1.15 1.15 0 01.23-1.4 52.06 52.06 0 005.59-7.6zM67 41a3 3 0 01-1.93-.64A10.29 10.29 0 0162 36.28a.93.93 0 01.14-1.13 51.08 51.08 0 005.81-7.91c.24-.38.36-.44.65-.06q2.34 3.11 4.73 6.17a.51.51 0 010 .72 51.17 51.17 0 01-5.07 6.39A1.53 1.53 0 0167 41zM94.38 41A3.45 3.45 0 0192 40a11.06 11.06 0 01-2.62-3.62 1.11 1.11 0 01.26-1.38 39.62 39.62 0 005.72-7.49c.32-.53.45-.43.76 0 1.52 2 3.06 3.92 4.61 5.87a.41.41 0 010 .59 51.22 51.22 0 01-5.23 6.6 1.43 1.43 0 01-1.12.43z" fill="#383636"/><path d="M95.51 8.52a3 3 0 011.83.62 10.2 10.2 0 013.13 4.1 1 1 0 01-.28 1.25 34.71 34.71 0 00-5.67 7.37c-.31.51-.45.44-.77 0C92.3 20 90.82 18 89.33 16.11a.6.6 0 01-.07-.84 57.32 57.32 0 014.93-6.18 1.61 1.61 0 011.32-.57z" fill="#383637"/><path d="M81.84 8.52a3.66 3.66 0 012.53 1.24 11.69 11.69 0 012.31 3.3 1.1 1.1 0 01-.27 1.48 34.73 34.73 0 00-5.55 7.21c-.27.43-.4.55-.76.06-1.48-1.94-3-3.86-4.51-5.78a.54.54 0 010-.77 54.08 54.08 0 015-6.23 1.64 1.64 0 011.25-.51zM67.94 8.51a3.5 3.5 0 012.35 1 11.29 11.29 0 012.59 3.57 1.11 1.11 0 01-.29 1.47 34.45 34.45 0 00-5.49 7.11c-.32.52-.46.47-.8 0-1.51-1.95-3-3.95-4.59-5.8-.19-.21-.16-.34 0-.55a51 51 0 015.13-6.42 1.62 1.62 0 011.1-.38z" fill="#383636"/><path d="M6.14 68.92v7.79c0 .52-.15.67-.65.63a13.29 13.29 0 00-1.67 0c-.43 0-.54-.12-.54-.54v-8.76-6.89c0-.52-.15-.68-.66-.65H.44c-.3 0-.45-.09-.41-.41v-.06c0-.71-.23-1.63.12-2.06s1.33-.13 2-.14h6.57c.45 0 .63.14.57.59a4.56 4.56 0 000 .64c0 1.45 0 1.44-1.42 1.45-.57 0-1.31-.24-1.68.11s-.11 1.1-.11 1.67c.05 2.21.06 4.42.06 6.63z" fill="#393637"/><path d="M44.51 85c.09-.81.21-1.62.26-2.42 0-.43.27-.41.56-.41s.31.27.28.5c-.22 1.5-.46 3-.66 4.51 0 .31-.18.37-.45.39s-.42-.13-.46-.39a19.66 19.66 0 00-.54-2.55c-.15.84-.31 1.68-.44 2.52-.05.37-.23.44-.55.42s-.31-.12-.34-.35c-.21-1.48-.46-3-.66-4.44 0-.22-.24-.59.28-.61s.55.12.57.54a8.36 8.36 0 00.4 2.18c.12-.72.25-1.44.36-2.17.05-.25 0-.53.4-.55s.41.3.46.57c.13.75.25 1.5.38 2.25z" fill="#3a3638"/><path d="M108.92 84.93v2.21c0 .36-.13.43-.45.43s-.4-.12-.4-.42v-4.5c0-.2-.08-.45.27-.47s.54 0 .65.35c.23.73.5 1.45.79 2.29a17.29 17.29 0 00.79-2.1 1.75 1.75 0 01.21-.46c.14-.16.36-.09.55-.07s.2.24.2.4v4.57c0 .29-.06.42-.38.41s-.42-.09-.41-.4v-2.46a6.14 6.14 0 00-.55 1.45c-.07.18-.08.44-.38.44s-.3-.28-.37-.45c-.16-.41-.28-.83-.42-1.24z" fill="#3c3537"/><path d="M62.68 84.78v-2.09c0-.31 0-.53.44-.52s.38.23.38.5v4.44c0 .19.09.46-.27.45s-.49 0-.6-.31a14 14 0 00-1-2.34v2.15c0 .32 0 .52-.43.51s-.4-.17-.4-.47v-4.44c0-.19-.07-.46.27-.48s.52 0 .64.34c.24.77.55 1.52.82 2.28z" fill="#393738"/><path d="M139.85 84.79v-2.15c0-.31 0-.48.41-.47s.4.2.4.49v4.44c0 .19.11.47-.26.46s-.49.06-.61-.3a12.53 12.53 0 00-1-2.34v2.22c0 .35-.13.42-.44.43s-.4-.12-.4-.42v-4.56c0-.18 0-.42.26-.41s.51-.09.63.28c.26.79.56 1.56.84 2.34z" fill="#3b3736"/><path d="M70.9 84.88v-1.67a1.24 1.24 0 011.41-1.08 1.28 1.28 0 011.16 1.37c0 .18-.08.29-.27.27s-.4.11-.51-.14c0-.09 0-.21-.07-.31s-.26-.42-.53-.36a.49.49 0 00-.39.52v2.7c0 .32.09.56.45.57a.45.45 0 00.49-.54c0-.36.28-.89-.45-1-.24 0-.18-.48-.07-.55.33-.22.74-.09 1.12-.08s.21.3.22.49v1.29a1.18 1.18 0 01-1.36 1.19 1.15 1.15 0 01-1.2-1.25v-1.42z" fill="#393736"/><path d="M32.26 84.84v-2.25c0-.3.08-.43.4-.41h1.55c.28 0 .36.12.37.39s-.08.4-.36.37h-.32c-.91 0-.77-.12-.83.83-.05.61.18.74.72.68.2 0 .52-.15.58.2s.13.65-.42.6c-.27 0-.71-.18-.82.13a1.89 1.89 0 000 1.2c.16.39.65.16 1 .15.53 0 .48.28.47.61a.22.22 0 01-.25.22h-.26c-.58 0-1.32.19-1.68-.1s-.09-1.08-.12-1.65c-.05-.32-.03-.65-.03-.97z" fill="#3a3638"/><path d="M88.57 84.9v-1.61a1.21 1.21 0 011.33-1.17 1.22 1.22 0 011.16 1.28c0 .21 0 .41-.29.38s-.51.12-.53-.27-.17-.58-.49-.55-.37.34-.37.65v2.57c0 .27 0 .54.36.57a.44.44 0 00.5-.47c0-.45.34-.28.56-.29s.24.23.24.41a1.15 1.15 0 01-1.24 1.17c-.8 0-1.21-.37-1.24-1.13v-.77z" fill="#3a3738"/><path d="M149.09 84c.14-.46.32-.92.42-1.39s.44-.44.73-.35.12.39 0 .58a9.44 9.44 0 00-.87 4.41c0 .29-.09.38-.37.37s-.49 0-.44-.36a9.92 9.92 0 00-.88-4.55c0-.14-.32-.39 0-.46s.66-.18.8.28.27 1 .41 1.46z" fill="#3b383b"/><path d="M53.56 85v2.18c0 .28 0 .43-.37.43s-.44-.11-.44-.44v-4.49c0-.3 0-.47.41-.47s.39.21.39.49c.01.73.01 1.49.01 2.3z" fill="#3f3841"/><path d="M165.62 58.9c.31-.21.12-.95.69-.8.41.1.16.59.19.91s.17.59-.13.6-.1-.4-.19-.61a.47.47 0 00-.05-.1c-.6.82-.6.82-1 0l-.07.06c-.11.21.17.64-.2.63s-.19-.42-.17-.63-.27-.79.18-.89.4.48.61.74z" fill="#504f52"/><path d="M164.61 58.23c-.69.1-.48.6-.51 1 0 .15.1.41-.16.41s-.15-.26-.16-.41c-.05-.39.21-.91-.57-1a1.54 1.54 0 011.4 0z" fill="#4a464a"/><path d="M150.14 76.76c-.91-2.6-1.78-5.22-2.68-7.82a.54.54 0 01.26-.74 3.94 3.94 0 001.72-2.53 9.32 9.32 0 000-4.33 4 4 0 00-3.55-3.34c-1.66-.22-3.34-.06-5-.13-.48 0-.61.1-.61.6V76.5c0 1.07-.06.86.91.87h1.28c.42 0 .65-.1.65-.62v-7.09c0-.18-.11-.46.1-.53a3.49 3.49 0 011.33 0c.33 0 .28.35.34.54q1.13 3.59 2.22 7.17c.12.39.27.62.75.58a13 13 0 011.87 0c.47-.06.58-.18.41-.66zm-3.35-12.1a1.89 1.89 0 01-2.15 1.88c-1.54 0-1.54 0-1.54-1.47v-4.06c0-.39.11-.54.51-.51s.73 0 1.09 0a1.92 1.92 0 012.09 1.91c.05.36.05.72.08 1.08s-.03.79-.08 1.17zM36.14 76.79c-.9-2.61-1.77-5.22-2.67-7.83a.56.56 0 01.27-.78 3.91 3.91 0 001.67-2.42 9.34 9.34 0 00.07-4.27A4 4 0 0031.85 58c-1.65-.21-3.3 0-5-.13-.52 0-.64.13-.64.63v18.15c0 .62.18.78.75.72a8.42 8.42 0 011.42 0c.52 0 .69-.1.68-.65v-7.09c0-.18-.1-.48.12-.51a4.69 4.69 0 011.35 0c.31 0 .26.41.33.63q1.11 3.51 2.18 7c.13.42.3.65.8.61a13 13 0 011.87 0c.5 0 .58-.14.43-.57zm-3.39-11.92a1.73 1.73 0 01-1.56 1.61 12.58 12.58 0 01-1.73.07c-.36 0-.37-.21-.36-.47v-2.51-2.64c0-.28.06-.44.39-.43s.86 0 1.28 0a1.89 1.89 0 012 1.91 7.68 7.68 0 01-.02 2.46z" fill="#393636"/><path d="M113.46 76.89c-.14-.45-.21-.92-.31-1.38-1.19-5.37-2.4-10.73-3.58-16.09-.35-1.58-.33-1.58-2-1.58h-.32c-.33 0-.47.07-.55.44-.68 3.11-1.39 6.22-2.09 9.33s-1.34 6.1-2 9.14c-.11.46 0 .62.45.59a16.83 16.83 0 011.74 0c.43 0 .59-.14.66-.56.18-1.08.43-2.14.61-3.22.06-.33.18-.43.5-.42h2.83c.39 0 .53.15.58.5.13.76.28 1.52.43 2.27.28 1.44.28 1.44 1.74 1.43h1c.36 0 .41-.1.31-.45zm-4.58-6.4h-1.74c-.4 0-.47-.14-.39-.5.32-1.61.62-3.23.93-4.84l.27-1.31h.11c.29 1.44.57 2.88.85 4.32.12.61.2 1.23.34 1.83.09.37.02.51-.37.5z" fill="#383637"/><path d="M15 84.91c-.13-.16 0-.25 0-.39a1.87 1.87 0 000-1.93 2.65 2.65 0 00-2-.41c-.26.09-.2.3-.2.48v2.19a9.14 9.14 0 000 1.48c.06.41-.36 1 .26 1.2a2.55 2.55 0 001.39 0 1 1 0 00.79-.91c.03-.62.19-1.21-.24-1.71zm-1.47-1.26c.16-.25-.18-.7.34-.71s.63.28.62.72-.19.74-.62.72-.15-.52-.34-.73zm.35 3.08c-.59 0-.15-.58-.34-.85.18-.25-.26-.77.36-.78s.61.37.61.79-.1.89-.63.84z" fill="#3b3635"/><path d="M25.12 87c-.14-.51-.31-1-.5-1.52a.46.46 0 01.08-.48 1.91 1.91 0 00.22-2.17c-.27-.61-.89-.65-1.5-.61h-.51c-.31 0-.42.09-.41.4v4.64c0 .37.2.33.45.34s.38-.07.37-.36V85.7c0-.17 0-.38.23-.39s.22.16.27.31c.16.55.35 1.1.5 1.66s.51.35.79.3.05-.39.01-.58zm-1.44-2.47c-.71 0-.21-.6-.41-.86.15-.27-.21-.79.41-.77s.64.4.63.85-.14.83-.63.82z" fill="#3c3537"/><path d="M100.84 83.1a1.2 1.2 0 00-1.31-1 1.19 1.19 0 00-1.19 1.11v3.15a1.14 1.14 0 001.1 1.19c.82.06 1.4-.29 1.44-1a19 19 0 00-.04-3.45zm-.75 3.1c0 .3-.13.56-.49.55s-.46-.24-.46-.56v-2.63c0-.33.11-.59.43-.6s.52.26.52.6v1.35c0 .43.01.86 0 1.29z" fill="#393739"/><path d="M130.87 87.06c-.33-1.48-.65-3-1-4.44 0-.25-.12-.43-.44-.46s-.4.23-.45.48c-.33 1.48-.64 3-1 4.44-.12.46 0 .48.41.49s.37-.34.42-.57.15-.64.67-.62.53.33.56.67.08.58.49.5c.47.09.41-.19.34-.49zm-1.23-1.47a.7.7 0 01-.43 0c-.16 0-.09-.2-.06-.32a2.91 2.91 0 01.34-1.16c.09.45.16.79.22 1.13.02.13.08.3-.07.35z" fill="#3b3738"/><path d="M121.33 83.47a1.18 1.18 0 00-1.27-1.29h-.84c-.28 0-.39.13-.39.42v4.5c0 .28 0 .49.38.48s.47-.15.44-.49 0-.69 0-1 .09-.6.56-.61a1.08 1.08 0 001.13-1.14c0-.34 0-.59-.01-.87zM120 84.71c-.64-.06-.15-.63-.36-.93.21-.26-.27-.82.38-.83s.59.48.61.92-.14.89-.63.84z" fill="#39363c"/></g></svg>