<svg xmlns="http://www.w3.org/2000/svg" viewBox="0 0 119.06 120"><g data-name="Layer 2"><path d="M14.09 64.68a2.63 2.63 0 00-.18-1.3 4.12 4.12 0 01-.14-1.48 26.75 26.75 0 010-3.58c.24-1.45.12-2.91.27-4.36a2.75 2.75 0 01.12-.57 3.07 3.07 0 00.24-1.5 1.26 1.26 0 01.08-.61 7.75 7.75 0 00.52-2.92 1 1 0 01.09-.41c.83-1.88 1.17-3.92 1.89-5.84a10.18 10.18 0 01.55-1.21 12.17 12.17 0 001.07-2.21 1 1 0 01.18-.37c1.15-1.35 1.76-3 2.8-4.46A17.45 17.45 0 0123 31.65c.48-.49 1-.92 1.47-1.46a27.21 27.21 0 012.16-2.75 15 15 0 012.67-2.3 1.46 1.46 0 00.41-.41 5.58 5.58 0 012.09-1.86 18.27 18.27 0 001.47-1.16c.47-.32.93-.66 1.4-1a.9.9 0 01.36-.19 6.83 6.83 0 002.51-1.43 2.14 2.14 0 01.57-.32 4.17 4.17 0 001.47-.85 1 1 0 01.64-.27 3 3 0 001.36-.48 9.47 9.47 0 011.94-.74 23.68 23.68 0 012.39-1.13 11.87 11.87 0 012.09-.36 9.89 9.89 0 002.13-.52 4.54 4.54 0 011.31-.21 1.34 1.34 0 00.57-.08 7.28 7.28 0 013-.41 2 2 0 00.87-.26 1.22 1.22 0 011-.1 5.56 5.56 0 001.82.12c1.58 0 3.16-.12 4.74 0a7.47 7.47 0 011.69.23 2 2 0 001 0 1.68 1.68 0 01.94 0c1.34.46 2.76.6 4.1 1.08a.73.73 0 00.33 0 2.4 2.4 0 011.56.45 4.29 4.29 0 002 .6 2.22 2.22 0 011 .28 10.65 10.65 0 002.42 1 1 1 0 01.49.21 9 9 0 001.76 1 40.08 40.08 0 013.59 2.1 3.52 3.52 0 001.1.58 1.8 1.8 0 01.48.24A15.61 15.61 0 0189.39 24a2.11 2.11 0 00.56.42 5.57 5.57 0 011.77 1.68 2.68 2.68 0 00.85.76 3.86 3.86 0 011.61 1.64 1.71 1.71 0 00.76.85 1.58 1.58 0 01.76.85 2 2 0 00.78.95 1.73 1.73 0 01.55.62 13.58 13.58 0 001.67 2.33 1.54 1.54 0 01.21.31c.67 1.68 1.84 3.09 2.52 4.77.16.41.36.81.53 1.22a17.28 17.28 0 001.07 2.1 7.76 7.76 0 01.81 2.94 2 2 0 00.23.8 5.62 5.62 0 01.79 2.72 5.49 5.49 0 00.48 2.09 6.94 6.94 0 01.43 2 4.37 4.37 0 010 1.53.29.29 0 000 .16c.45 1 .17 2.06.38 3.07a4.53 4.53 0 01-.07 2.31 1.42 1.42 0 00-.09.61 17.64 17.64 0 01-.27 3.77 11.74 11.74 0 00-.11 1.87 7.84 7.84 0 01-.64 2.9 1.82 1.82 0 00-.16.76 4.53 4.53 0 01-.67 2.66 1 1 0 00-.21.53 5.35 5.35 0 01-.93 2.63 3.29 3.29 0 00-.34.85 3.85 3.85 0 01-.54 1.29 8.51 8.51 0 00-.76 2.06 1.86 1.86 0 01-.64 1 1.36 1.36 0 00-.52.73 4.54 4.54 0 01-.76 1.38 2 2 0 00-.33.53 3.5 3.5 0 01-1 1.49.18.18 0 000 .07 15.62 15.62 0 01-1.57 2.22 28.48 28.48 0 01-3.39 3.88 3 3 0 00-.56.71 3.61 3.61 0 01-1.72 1.62 5.86 5.86 0 00-1.64 1.45 11.15 11.15 0 01-1 .83c-1.57 1.25-3.36 2.19-5 3.32a10.94 10.94 0 01-4.11 2 1.14 1.14 0 00-.66.4 1.41 1.41 0 01-1.12.54 1.39 1.39 0 00-.61.13 20.62 20.62 0 01-4.09 1.65 19.44 19.44 0 01-4.36.84 11.09 11.09 0 00-1.88.5 2.78 2.78 0 01-1.51.08.69.69 0 00-.53 0 4.46 4.46 0 01-2.45.26 22.25 22.25 0 00-2.94.13 16 16 0 01-2.27-.22c-1.12 0-2.22-.33-3.35-.26a7 7 0 01-2-.36 5 5 0 00-1.27-.21 1.66 1.66 0 01-1-.36 1.16 1.16 0 00-.89-.29 4.37 4.37 0 01-2.17-.42 5.84 5.84 0 01-1-.46 3 3 0 00-1.73-.51.71.71 0 01-.56-.24 4.19 4.19 0 00-2.28-1 2.24 2.24 0 01-1.15-.62 1.61 1.61 0 00-.78-.45 6.34 6.34 0 01-2.31-1.18 2.37 2.37 0 00-.68-.41 5.26 5.26 0 01-2.23-1.61 8.72 8.72 0 00-1.51-1.1c-1.39-1.14-2.82-2.25-4.11-3.51a2.73 2.73 0 01-.33-.43 1.88 1.88 0 00-.95-.83 1.16 1.16 0 01-.65-.62 6.3 6.3 0 00-1.57-1.91A6.29 6.29 0 0122.83 87a7.8 7.8 0 00-1.48-1.94 1.84 1.84 0 01-.57-.91 2.13 2.13 0 00-.64-1.09 1.11 1.11 0 01-.37-.5c-.2-1.12-1.2-1.86-1.39-3a1.08 1.08 0 00-.27-.42 1.94 1.94 0 01-.53-1.36 1.14 1.14 0 00-.4-.84 2.15 2.15 0 01-.53-1c-.22-.76-.47-1.51-.72-2.26a3.84 3.84 0 01-.29-1.29 1.42 1.42 0 00-.12-.61 17.46 17.46 0 01-1.12-5.14c-.04-.64-.4-1.25-.31-1.96z" fill="#465661"/><path d="M5.05 48.37l6.54 2.88a2 2 0 01.26.11c.42.23.41.64 0 .87a6.19 6.19 0 01-1.88.52c-2 .32-4 .42-6 .57a10.29 10.29 0 00-2.45.58.64.64 0 00-.37.37.45.45 0 01-.63.3.53.53 0 01-.26-.63c.11-.64.4-1.23.48-1.87a.45.45 0 01.55-.39 4.6 4.6 0 001.81-.11c1.69-.19 3.38-.43 5.07-.65l.39-.09-1.77-.75-4.56-1.93c-.26-.1-.51-.22-.5-.53s.26-.45.51-.56a1.66 1.66 0 01.31-.12c1.8-.45 3.62-.81 5.44-1.19l2-.42L4.9 43c-.2-.1-.41-.17-.6-.28s-.47-.25-.73 0a.34.34 0 01-.46 0 .51.51 0 01-.2-.47c.11-.46.21-.92.33-1.37.06-.25.26-.47.49-.43a.45.45 0 01.43.54.82.82 0 00.61.86 23.24 23.24 0 012.49 1.26c1.85.79 3.69 1.58 5.46 2.52.27.15.6.27.53.65s-.37.36-.64.43c-1.49.38-3 .84-4.46 1.14-.83.16-1.67.25-2.5.42zM102.79 30.83l3.7-1.73 2.18-1c.18-.07.3-.15.28-.37a.41.41 0 01.28-.43.52.52 0 01.56.18c.26.35.54.7.8 1.06a.56.56 0 010 .69.48.48 0 01-.73 0 .72.72 0 00-.81-.15 26 26 0 00-4 1.75c-1.44.7-2.88 1.4-4.38 2-.26.1-.51.15-.69-.06s-.07-.44 0-.66c1.19-2.29 2.31-4.62 3.65-6.9a3.73 3.73 0 00-1 .41l-5.3 2.57c-.12.06-.25.11-.37.18a.49.49 0 01-.58-.05.5.5 0 01-.11-.54A6 6 0 0197 26.3a56.29 56.29 0 013.54-5.13 11 11 0 001.24-2.35.57.57 0 000-.51.46.46 0 01.15-.68c.26-.14.47 0 .67.2.43.5.69 1.1 1.12 1.59a.45.45 0 01-.09.69 1.88 1.88 0 00-.57.65l-3.25 5c-.06.1-.17.18-.15.36l4.34-2.21c.59-.29 1.19-.58 1.77-.9a.56.56 0 01.62 0 .54.54 0 01.16.57 2.21 2.21 0 01-.27.7c-1 1.57-1.76 3.26-2.64 4.89-.25.52-.51 1.03-.85 1.66zM61.21 9.11v.71a1 1 0 00.36.84.35.35 0 01.13.48.44.44 0 01-.51.25 13.58 13.58 0 00-2.39-.3.54.54 0 01-.44-.18c-.16-.18-.2-.36 0-.46.81-.36.89-1.13 1-1.84.19-1.53.3-3.07.43-4.6a13.91 13.91 0 01.12-1.46 1.91 1.91 0 00-.44-1.61c-.14-.19-.35-.37-.21-.63s.41-.26.68-.29a15.35 15.35 0 012.44.2c.2 0 .28.15.34.3a.28.28 0 01-.15.39c-.85.35-.88 1.16-1 1.87a16.18 16.18 0 00-.2 2.78c0 .21 0 .36.29.37a21 21 0 003.27.14c.14 0 .22 0 .23-.18.11-1.37.23-2.74.35-4.11 0-.21-.16-.2-.27-.24-.33-.11-.74-.19-.67-.64s.5-.43.86-.46a4.25 4.25 0 011.18.22 1.75 1.75 0 00.85.1c.23-.06.32.14.44.26a.24.24 0 010 .36c-.7.52-.57 1.28-.6 2-.06 1.65-.08 3.3-.14 5 0 .4-.12.79-.16 1.19a2 2 0 00.42 1.44c.13.19.31.35.12.66s-.4.19-.61.19c-.69 0-1.38-.06-2.08-.06a.5.5 0 01-.48-.33c-.09-.2 0-.35.19-.49A1.92 1.92 0 0065 9.41c.06-.63.13-1.26.17-1.89 0-.28 0-.46-.42-.46-.94 0-1.88-.14-2.82-.2-.61-.05-.61 0-.65.59s-.07 1.1-.11 1.66zM111 79.3a2.5 2.5 0 001.18.57 7.58 7.58 0 001.67.48.43.43 0 01.27.1.37.37 0 00.62-.1c.16-.25.38-.42.65-.27s.26.39.21.69a14.73 14.73 0 01-.47 1.73.55.55 0 01-.49.44c-.24 0-.28-.24-.31-.42-.07-.35-.27-.43-.6-.5-1.13-.22-2.21-.62-3.31-.94l-4.65-1.39c-.29-.09-.48-.09-.65.18a.54.54 0 01-.6.28.47.47 0 01-.32-.4.28.28 0 010-.24 4.82 4.82 0 00.51-1.86c.07-.28.19-.47.46-.52s.34.19.42.38c.18.39.54.44.9.57a22.59 22.59 0 013 .94 14.27 14.27 0 00-1.49-1.81c-.37-.39-.73-.77-1.07-1.17s-.28-.16-.37.08c-.16.43-.49.55-.83.33a.61.61 0 01-.25-.54 10 10 0 01.43-2.66c.09-.38.45-.36.76-.3a.45.45 0 01.37.55 1.25 1.25 0 00.38 1.23c.72.93 1.43 1.87 2.14 2.82.14.19.24.26.5.15a23.82 23.82 0 015.44-1.7.64.64 0 00.47-.3 1.53 1.53 0 01.6-.56c.18-.12.32-.27.57-.08s.22.34.15.57a8.29 8.29 0 01-.7 2.07 1.25 1.25 0 01-.45.54c-.18.1-.37.18-.48-.09s-.23-.13-.38-.11a21.23 21.23 0 00-3.65 1.08zM68.81 108.54a.33.33 0 00-.33 0 .48.48 0 01-.63-.26.56.56 0 01.22-.73 4.71 4.71 0 011.29-.54c.43-.13.85-.25 1.28-.36s.5.08.65.35a.49.49 0 01-.18.71.4.4 0 00-.19.29.72.72 0 01-.56.55 1.1 1.1 0 00-.61.53 12.14 12.14 0 00-1 2c-.12.3-.12.64-.24 1s.15.25.26.34a26.28 26.28 0 013.67 3.56c.32.38.58.8 1.17.81.23 0 .44.22.67.33s.1.23.07.36 0 .28-.18.32a9.88 9.88 0 01-2.36.4 1.51 1.51 0 01-.69-.15c-.15-.08-.32-.21-.2-.38s0-.41-.11-.58a21.6 21.6 0 00-2.49-2.57c-.2-.18-.4-.38-.62-.59a8.08 8.08 0 00.15 2c0 .49.36.91.27 1.43 0 .2.18.36.42.36s.51.15.52.43-.21.41-.47.51a12.57 12.57 0 01-1.8.39.58.58 0 01-.62-.22c-.14-.22.09-.38.22-.48a.58.58 0 00.18-.75c-.35-1.17-.49-2.39-.73-3.58-.31-1.55-.6-3.1-.89-4.66-.05-.25-.11-.4-.4-.39a.6.6 0 01-.31-.1.39.39 0 01-.25-.47c0-.23.19-.42.41-.4a5.34 5.34 0 001.85-.4c.28-.07.53-.09.71.15s0 .41-.15.59a.74.74 0 00-.18.57c.18 1.17.57 2.3.64 3.49a29.12 29.12 0 001.54-3.86zM112.32 37.83c-1 .35-1.93.61-2.85 1a5.34 5.34 0 01-1.88.66 1.19 1.19 0 00-.68.27.88.88 0 01-.54.2 1.29 1.29 0 00-1.2 1c0 .15 0 .36-.32.36s-.47 0-.55-.34a9.58 9.58 0 00-.39-1.14.57.57 0 01.1-.65.59.59 0 01.66 0 1.57 1.57 0 001.29 0c1.66-.56 3.31-1.15 5-1.73.51-.18 1-.4 1.52-.54a1.17 1.17 0 001-1.05c0-.26.19-.31.43-.31s.3.06.36.25a9.9 9.9 0 00.46 1.29.91.91 0 01-.16 1.06 22.55 22.55 0 01-2.14 2.23 17.37 17.37 0 00-2.43 2.68c.83-.28 1.65-.57 2.47-.83.57-.19 1.14-.36 1.71-.5a1.73 1.73 0 00.94-.71c.13-.17 0-.35 0-.51s-.06-.58.22-.67.45.14.58.4a7 7 0 01.64 1.87.5.5 0 01-.21.58c-.23.14-.44 0-.6-.16-.36-.37-.51-.39-.95-.1a.72.72 0 01-.21.12c-2.6.63-5 1.75-7.56 2.58-.26.08-.51.19-.74 0a.74.74 0 01-.1-.78 2.11 2.11 0 01.74-1c1.89-1.76 3.57-3.71 5.39-5.53zM114.24 47.81a6.63 6.63 0 00-5 2.08 3.62 3.62 0 00-.82 1.47.91.91 0 001 1.2c.3 0 .6-.1.9-.13a.26.26 0 00.23-.21 2.8 2.8 0 00.06-.28c0-.24.15-.47.39-.48s.4.19.48.45A13.68 13.68 0 01112 54a.47.47 0 01-.19.5.36.36 0 01-.51 0 1.07 1.07 0 00-1-.13c-.52.15-1 .24-1.58.36a.57.57 0 01-.78-.41c-.12-.37-.48-.72 0-1.12.07-.06 0-.17-.09-.25a7.32 7.32 0 01-.69-2.64.66.66 0 010-.28 6.42 6.42 0 012.62-3.63 4.92 4.92 0 012-.54 9.43 9.43 0 013.55.12 3.1 3.1 0 011.88 1.27c.37.55.9 1 .85 1.77a1.86 1.86 0 00.15.64 2.38 2.38 0 010 1.47c-.06.27-.17.52.19.69.17.08.1.61-.07.64a3.84 3.84 0 01-1.61.3c-.2 0-.39-.1-.46-.3s.07-.37.21-.51a3.43 3.43 0 01.43-.32 1.34 1.34 0 00.55-1.34 3.78 3.78 0 01-.1-.57 1.85 1.85 0 00-1.57-1.72 3.48 3.48 0 00-1.54-.19zM19 90.28c-.84.67-1.67 1.31-2.44 2-.45.42-.8 1-1.5 1.18-.12 0-.24.17-.32.29a2.29 2.29 0 01-.91.78c-.48.24-.44.74-.49 1.16a.49.49 0 01-.37.5c-.27.08-.34-.12-.46-.25-.25-.29-.49-.6-.75-.89a.64.64 0 01-.09-.63c.06-.19.34-.25.49-.22a1.34 1.34 0 001.11-.34 27 27 0 002.43-2c1.19-1 2.36-2 3.55-3 .35-.29.16-.64.21-1s0-.35.22-.43.37-.08.53.13a12.68 12.68 0 00.88 1.06.74.74 0 01.16.8 22.11 22.11 0 01-1.61 3.54 16.28 16.28 0 00-1.11 2.67 1.18 1.18 0 00.46-.34c1-.85 2-1.63 3-2.38a2.13 2.13 0 00.61-.93c0-.1 0-.18-.07-.27s-.14-.2-.2-.31a.43.43 0 01.05-.57.48.48 0 01.6.07 6 6 0 011.32 1.64.44.44 0 01-.06.57.42.42 0 01-.54 0c-.51-.2-.66-.17-1 .28-.21.29-.56.34-.81.56l-3.22 2.71-2.46 2.06c-.39.32-.7.23-.88-.25a1.57 1.57 0 01.2-1.32c1.22-2.15 2.14-4.46 3.23-6.68z" fill="#010101"/><path d="M87.68 106.72c-.73-1.31-1.4-2.65-2.06-4a1 1 0 00-1.32-.5.46.46 0 01-.59-.14.45.45 0 01.2-.57 6.27 6.27 0 011.84-1 .49.49 0 01.56.18.48.48 0 01-.07.57c-.28.42-.27.6.08 1a.55.55 0 01.16.18c.79 1.95 2 3.67 3 5.52.29.56.62 1.1.93 1.66s.11.79-.46.84a1.7 1.7 0 01-1.27-.5c-1.94-1.63-4.08-3-6.1-4.49h-.12c-.07.15 0 .24.1.33.49.81 1 1.63 1.45 2.42a3.67 3.67 0 01.89 1.7c0 .16.2.32.32.47a1.08 1.08 0 01.33.52c.11.7.62 1 1.22 1.07.27.06.33.19.38.44s-.13.31-.27.39c-.34.2-.68.37-1 .57a.58.58 0 01-.7 0 .56.56 0 01-.08-.62.91.91 0 000-.65 6 6 0 00-.57-1.29c-1-1.86-2.11-3.7-3.13-5.58a1.08 1.08 0 00-1-.67.43.43 0 01-.47-.4c-.08-.32.15-.34.31-.44.36-.21.73-.39 1.08-.62a.83.83 0 011 0 24 24 0 012.92 2.06 12.41 12.41 0 002.44 1.55zM54.37 114.23c.17-1.55.39-3 .68-4.51a1.87 1.87 0 00-.19-1 .25.25 0 00-.21-.16l-.4-.11a.42.42 0 01-.35-.45.46.46 0 01.47-.34 6.35 6.35 0 012.12.28.45.45 0 01.33.43c0 .27-.19.39-.41.46a.6.6 0 00-.49.79.57.57 0 010 .29 36.92 36.92 0 00-.72 4.92c-.17 1.08-.28 2.17-.42 3.26a.46.46 0 01-.71.39 1.74 1.74 0 01-.87-1.3c-.61-2.5-1.57-4.88-2.37-7.35-.08.59-.17 1.17-.22 1.75a17.9 17.9 0 01-.21 2.55c-.18.78-.11 1.58-.35 2.34-.17.5.16.84.42 1.19.13.17.25.28.13.54s-.33.25-.55.22c-.4 0-.8-.11-1.2-.15a.59.59 0 01-.47-.37c-.09-.2.09-.42.21-.5a1.44 1.44 0 00.6-1c.27-1.19.33-2.41.5-3.62s.25-2.46.46-3.67a1.14 1.14 0 00-.45-1.18c-.16-.14-.26-.26-.13-.52a.39.39 0 01.49-.22 10.31 10.31 0 001.36.17.72.72 0 01.68.51 21.88 21.88 0 011.09 3.26 16 16 0 001.18 3.1z" fill="#010201"/><path d="M19.36 101.21A4.56 4.56 0 0120.6 98a10.68 10.68 0 013-2.48 3 3 0 012.33-.28.9.9 0 00.28 0 2.79 2.79 0 011.57.8 3.48 3.48 0 011.35 1.52c.07.18.16.3.41.21s.54.36.42.53a4.57 4.57 0 01-1 1.27.54.54 0 01-.58.07c-.21-.11-.19-.34-.17-.55s.26-.61.19-1a2.22 2.22 0 00-2.78-1.61 2.55 2.55 0 00-1.45.94c-.1.17-.32.26-.48.4s-.33.47-.46.55c-.54.36-.61 1-1.11 1.39a.33.33 0 00-.12.24 6.08 6.08 0 00-.48 3.44 4.1 4.1 0 00.2.59.8.8 0 001.3.36 4.56 4.56 0 00.82-.88c.14-.16 0-.32-.08-.45s-.22-.47 0-.65.45-.12.69 0a10.35 10.35 0 011.74 1.2.37.37 0 01.15.42c-.06.2-.12.35-.32.36a1.32 1.32 0 00-1 .67c-.29.43-.64.83-.95 1.26a.54.54 0 01-.76.19c-.36-.18-.85-.25-.83-.83 0-.14-.15-.1-.23-.13A7.1 7.1 0 0120 104a1.45 1.45 0 01-.29-.67 7.76 7.76 0 01-.35-2.12zM10.38 38.2c.1-.38.25-.7-.08-1a.34.34 0 01-.05-.46.44.44 0 01.45-.21 4.7 4.7 0 011.44.61.44.44 0 01.14.48.36.36 0 01-.36.29c-.4 0-.47.23-.59.49s-.06.23.11.31L13.9 40c.55.28.79.22 1.08-.32a5.22 5.22 0 00.7-2.11.51.51 0 00-.22-.5 1.33 1.33 0 01-.27-.26.51.51 0 010-.58c.1-.21.28-.11.4-.07a3.62 3.62 0 011.37.51.46.46 0 01.17.64c-.19.44-.49.84-.66 1.28-.56 1.39-1.34 2.66-1.94 4 0 .09-.08.18-.13.27a.5.5 0 01-.46.21c-.19 0-.21-.2-.22-.31 0-.39-.28-.55-.6-.72-1.56-.8-3.1-1.65-4.68-2.42-.89-.44-1.83-.77-2.75-1.14a.74.74 0 00-.68.08c-.25.15-.39 0-.57-.12s-.09-.31 0-.46c.73-1.54 1.42-3.09 2-4.68a1.74 1.74 0 01.5-.7.56.56 0 01.9 0 1 1 0 00.53.22.67.67 0 01.55.72c-.06.29-.35.43-.77.33a.86.86 0 00-.87.35 2.47 2.47 0 00-.63 1.33c0 .27-.36.54-.22.77s.47.25.72.36z" fill="#010101"/><path d="M94.44 18.43c.33.16.63.4 1 .14a.35.35 0 01.47.14.66.66 0 01-.09.74c-.21.29-.47.55-.7.83a.5.5 0 01-.56.15.38.38 0 01-.24-.51c.15-.42-.23-.49-.41-.69s-.16 0-.23.06c-.66.72-1.33 1.43-2 2.16a.61.61 0 000 1 6.31 6.31 0 001.73 1.2.64.64 0 00.8-.08.54.54 0 01.25-.15.56.56 0 01.58.11c.16.17 0 .33 0 .45a3.92 3.92 0 01-.83 1.16.47.47 0 01-.6.05s-.08-.07-.13-.1L89 21.17a.55.55 0 01-.16-.57c.05-.22.28-.14.43-.13a.77.77 0 00.68-.31c1.24-1.38 2.51-2.74 3.73-4.15.61-.71 1.13-1.51 1.68-2.27a.88.88 0 00.07-.77c-.08-.29.16-.3.29-.42s.23-.05.35 0c1.37 1.14 2.78 2.25 4.23 3.3a1.43 1.43 0 01.52.83.42.42 0 01-.18.51 1.31 1.31 0 00-.53.61.62.62 0 01-.82.26.51.51 0 01-.11-.76.88.88 0 00-.13-1 3.72 3.72 0 00-1.26-1c-.53-.37-.52-.36-.94.17-.76.94-1.53 1.87-2.3 2.8z" fill="#010201"/><path d="M77 110.8c.3-.17.6-.32.61-.74a.37.37 0 01.33-.38.61.61 0 01.59.44 9.52 9.52 0 01.38 1.14.47.47 0 01-.2.5.34.34 0 01-.49 0c-.25-.32-.48-.18-.75-.08s-.16.09-.12.23c.28.93.54 1.86.83 2.78.19.58.38.68 1 .52a6.21 6.21 0 001.62-.72.78.78 0 00.45-.86.65.65 0 010-.24.48.48 0 01.35-.42c.2-.06.29.11.36.23a4 4 0 01.61 1.46.38.38 0 01-.21.38 1.4 1.4 0 01-.33.15l-5.39 1.75a.56.56 0 01-.57-.13c-.19-.18 0-.34.09-.47a.83.83 0 00.07-.75c-.53-1.76-1-3.53-1.59-5.27-.3-.94-.71-1.83-1.09-2.74a.81.81 0 00-.57-.45c-.27-.07-.22-.26-.24-.45s.1-.28.28-.33c1.58-.53 3.15-1.12 4.69-1.77a1.5 1.5 0 01.89-.08c.34.07.53.24.5.6a.84.84 0 00.19.53.7.7 0 01-.11.93c-.24.17-.51 0-.76-.33a.75.75 0 00-.65-.38 2.25 2.25 0 00-1.31.31 2.54 2.54 0 01-.67.31c-.26.07-.28.24-.21.4.57 1.25.91 2.62 1.42 3.93zM3.66 79c-.3.09-.46-.09-.54-.35s-.15-.68-.26-1c-.46-1.48-.82-3-1.23-4.5a1.47 1.47 0 01-.08-.28.48.48 0 01.19-.43c.13-.14.27 0 .36.06a1 1 0 001 .12c1.74-.44 3.5-.83 5.23-1.3.94-.25 1.85-.64 2.77-1a.7.7 0 00.44-.48c.09-.32.32-.28.55-.28s.23.23.28.39c.46 1.56.95 3.12 1.51 4.65a1.64 1.64 0 010 1 .45.45 0 01-.5.4.93.93 0 00-.66.18.73.73 0 01-.52.09.48.48 0 01-.44-.38.43.43 0 01.21-.5c.29-.14.54-.3.59-.63a2 2 0 00-.18-1.34 3 3 0 01-.32-.76c-.06-.29-.24-.3-.45-.22-1.13.42-2.31.69-3.45 1.06-.17.06-.52 0-.47.26a.61.61 0 00.55.53c.42 0 .61.43.36.69a.86.86 0 01-.45.29c-.32.08-.64.16-1 .27a.49.49 0 01-.61-.21.4.4 0 01.12-.55c.37-.26.06-.51 0-.76s-.12 0-.19 0c-1 .22-1.91.44-2.86.69a.65.65 0 00-.53.88 5.88 5.88 0 00.74 1.84.68.68 0 00.69.36.73.73 0 01.33 0 .53.53 0 01.39.39c.05.21-.14.28-.25.33a3.29 3.29 0 01-1.32.49zM43.66 7c.08-.73.15-1.33.21-1.94 0-.3 0-.61.06-.91s.09-.59-.29-.79-.2-.59.11-.74c.48-.25 1-.47 1.47-.68a.5.5 0 01.69.2c.14.29-.06.46-.27.61a2.53 2.53 0 00-.85 1.74 13.82 13.82 0 00-.23 2.23 1.08 1.08 0 010 .41c-.26.47 0 .75.31 1.06a30.84 30.84 0 002.83 2.77 4.09 4.09 0 001.17.7c.17.07.36.17.33.37a.5.5 0 01-.32.44 10.85 10.85 0 01-2.21.68.47.47 0 01-.58-.59c0-.1.1-.19 0-.29A17.44 17.44 0 0143.87 10a10.25 10.25 0 00-.33 1.76c-.06.38-.06.77-.09 1.16 0 .12 0 .22.17.21s.35.26.4.44-.11.39-.29.46a14.4 14.4 0 01-1.42.42c-.19 0-.47 0-.53-.22a.53.53 0 01.22-.63 1.44 1.44 0 00.6-1.23 18.77 18.77 0 01.47-2.78.53.53 0 00-.14-.52c-1.21-1.35-2.41-2.73-3.68-4-.15-.15-.28-.26-.5-.17a.43.43 0 01-.59-.29.44.44 0 01.34-.61c.7-.21 1.4-.43 2.1-.63a.46.46 0 01.59.44.86.86 0 00.25.59c.72.84 1.42 1.65 2.22 2.6zM9.06 82.78a15.78 15.78 0 00-2.86.11c-.14 0-.29 0-.28.29s-.51.52-.77.23a3.58 3.58 0 01-.74-1.5.38.38 0 01.14-.41c.16-.08.44-.14.55 0a1.9 1.9 0 001.82.46 8.05 8.05 0 011.9 0 1.27 1.27 0 001.32-.54c1-1.28 2-2.52 3.08-3.78.16-.2.37-.39.16-.72a.42.42 0 01.21-.52.42.42 0 01.58.17c.35.67.7 1.35 1 2a.41.41 0 01-.35.58 1 1 0 00-.61.39L12.11 82a8 8 0 001.56 0c.54 0 1.08-.11 1.62-.15.18 0 .21-.13.28-.25.23-.44.61-.47.9-.06l.77 1.14c.18.27.23.56 0 .77s-.46 0-.65-.17a2.33 2.33 0 00-1.63-.49 13.39 13.39 0 00-2.53.16c-.09 0-.2.06-.28 0-.55-.21-.8.16-1.08.51a30.91 30.91 0 00-2.27 3.08 4 4 0 00-.58 1.32c0 .17-.1.35-.29.36a.48.48 0 01-.54-.22 8.41 8.41 0 01-1-2 .45.45 0 01.46-.61.4.4 0 00.42-.24 20.11 20.11 0 011.79-2.37zM106.94 95.24a2 2 0 01-.08.62 4.63 4.63 0 01-3.34 2.88 2.11 2.11 0 01-1.13-.2 17.76 17.76 0 01-5.21-3.36c-.39-.4-.88-.72-1.31-1.08a.39.39 0 00-.59 0 .37.37 0 01-.58 0c-.16-.18-.28-.45 0-.66A9.14 9.14 0 0095.89 92a.56.56 0 01.68-.24.55.55 0 01.39.61.82.82 0 00.37.75 43.16 43.16 0 005.35 3.5c1.56.83 2.41.17 3.26-1a.93.93 0 000-1.06 5.87 5.87 0 00-1.15-1.42 29.49 29.49 0 00-4.09-3.21c-.29-.18-.6-.33-.91-.49a.65.65 0 00-.94.22c-.17.23-.38.31-.6.14a.47.47 0 01-.1-.63 4.23 4.23 0 011.37-1.48.54.54 0 01.54-.11c.23.09.16.31.15.48a.76.76 0 00.28.62 8.36 8.36 0 001.2.93c.57.42 1.16.83 1.71 1.3a26.64 26.64 0 012.79 2.41 2.78 2.78 0 01.75 1.92zM21.4 17.4a.4.4 0 01-.64.33c-.12-.07-.22-.18-.33-.25a.8.8 0 00-1.16.13c-.53.54-1 1.12-1.58 1.66-.16.17-.13.25 0 .38 1.85 1.49 3.59 3.1 5.51 4.49.26.19.46.44.73.61a2.48 2.48 0 001.15.26c.18 0 .42 0 .49.24a.55.55 0 01-.21.62 15 15 0 00-1.67 1.62.5.5 0 01-.64.11.43.43 0 01-.05-.6c.22-.33.12-.51-.17-.74q-3.3-2.57-6.58-5.17c-.2-.16-.29-.14-.45 0-.36.41-.78.76-1.1 1.2a4 4 0 00-.44 1.06c-.05.17.11.28.23.36a.76.76 0 01.28.74c0 .16-.05.32-.2.38a.46.46 0 01-.51-.06c-.42-.39-.84-.77-1.24-1.18a.45.45 0 010-.66c1-1 1.89-2.12 2.94-3.07s2-2.14 3-3.23c.23-.25.42-.61.84-.61a2 2 0 011.56.9.69.69 0 01.24.48zM53.56 1.63c.36 2.13.69 4.22 1.09 6.3a11 11 0 00.52 2.16 2.69 2.69 0 00.52.63c.14.17.4.31.29.58s-.35.33-.65.33a11.05 11.05 0 00-2.15.14c-.32.05-.57 0-.65-.36s.14-.46.4-.54.36-.23.3-.55C52.65 7.55 52.1 4.76 51.55 2c0-.2-.11-.24-.3-.22a16.34 16.34 0 00-1.73.2 3.34 3.34 0 00-1 .53c-.15.1-.09.29-.06.43a.6.6 0 01-.09.55c-.15.18-.31.41-.57.32a.56.56 0 01-.37-.58 9.18 9.18 0 00-.14-1.16c-.08-.58.08-.78.66-.84a39.61 39.61 0 014.48-.46c1.49 0 2.89-.44 4.36-.51a.91.91 0 011 .54A2.33 2.33 0 0158 2.38a.42.42 0 01-.38.38.47.47 0 01-.43-.38c0-.12 0-.25-.09-.36a.77.77 0 00-.91-.66c-.9.07-1.75.18-2.63.27zM39.51 104.27a2.54 2.54 0 01-.78 1.62.43.43 0 01-.53.08.45.45 0 01-.13-.55 2.3 2.3 0 00.18-.43.77.77 0 00-.36-1l-2-1.13c-.15-.09-.22-.06-.3.11-1 2.15-2.13 4.25-3 6.45a7.68 7.68 0 00-.48 1.05 3.11 3.11 0 000 1.14c0 .18 0 .38-.14.47a.55.55 0 01-.58 0 19.16 19.16 0 00-2-1.24.44.44 0 01-.23-.59.43.43 0 01.58-.24c.36.14.48 0 .62-.31q1.71-3.84 3.45-7.68c.13-.28.1-.4-.18-.53a3.83 3.83 0 01-.86-.49c-.42-.35-.94-.21-1.39-.37-.21-.07-.33.11-.4.28a.83.83 0 01-.61.52c-.17 0-.35.06-.46-.09a.47.47 0 01-.07-.54c.27-.49.52-1 .81-1.45a.47.47 0 01.69-.16c1.48.88 3.07 1.59 4.47 2.62a7.42 7.42 0 001.72.9c.54.23 1 .54 1.54.81a.84.84 0 01.44.75zM103.45 81.57c-.24-.19-.37-.45-.21-.69s.43-.29.77-.19a7.75 7.75 0 011.44.72.46.46 0 01.21.61.44.44 0 01-.63.22.93.93 0 00-.6 0 2.94 2.94 0 00-1.8 1.81 1.07 1.07 0 00.19.94 1.21 1.21 0 01.13.35 4.82 4.82 0 003.24 3.18 1.57 1.57 0 01.26.12 4.37 4.37 0 003.17.63h.16a3 3 0 001.82-2.3 2.31 2.31 0 00-.92-1.92c-.11-.1-.26-.17-.3-.33a.38.38 0 01.47-.49 7.07 7.07 0 012 .86.41.41 0 01-.12.77c-.26.06-.25.18-.24.38.09 2.12-1.07 3.57-2.64 4.76a2.42 2.42 0 01-2.2.29 10.32 10.32 0 01-5.14-3.29 4.17 4.17 0 01-.4-4.89 6.5 6.5 0 011.34-1.54zM93.84 94.56a2.21 2.21 0 011.64 1.5c0 .13 0 .34-.16.4a.51.51 0 01-.54-.08c-.11-.1-.21-.22-.33-.31a.78.78 0 00-1.1 0c-.48.37-.95.77-1.44 1.13-.21.15-.23.26-.06.47 1.3 1.6 2.57 3.24 3.91 4.82a9.71 9.71 0 001.63 1.57 2.44 2.44 0 00.86.26c.19.06.45.07.49.32a.59.59 0 01-.3.59 15 15 0 00-1.76 1.33.48.48 0 01-.67 0 .43.43 0 010-.63c.25-.31.14-.49-.09-.74q-2.8-3.15-5.6-6.32c-.22-.25-.37-.32-.61-.06a1.44 1.44 0 01-.39.31c-.51.24-.61.78-.89 1.18-.15.21 0 .37.14.51a.74.74 0 01.21.8c0 .14-.08.31-.27.32a.52.52 0 01-.5-.14c-.34-.44-.71-.85-1.06-1.29a.43.43 0 01.05-.6c1.26-1 2.44-2.05 3.75-3a29.61 29.61 0 002.5-2.13.75.75 0 01.59-.21zM112.29 66.58l-3.21-2.16c-.08.17-.13.31-.2.44s-.33.38-.57.28a.47.47 0 01-.31-.6c.14-.54.26-1.1.35-1.66a.5.5 0 01.44-.43.43.43 0 01.46.4c0 .63.5.95.92 1.31l.13.1a28.83 28.83 0 012.45 1.62 1.64 1.64 0 001.21.31 4.33 4.33 0 011.34.07 22.45 22.45 0 002.6.27.33.33 0 00.32-.13.44.44 0 01.59-.14.5.5 0 01.19.74 5.91 5.91 0 00-.27.74.57.57 0 000 .51c.11.22.18.42-.08.62a.42.42 0 01-.63 0 1.16 1.16 0 00-.88-.32c-.57-.06-1.15-.15-1.73-.22a5.37 5.37 0 00-3.9.9 14.65 14.65 0 01-1.84.85 3.55 3.55 0 00-1.61 1.2.47.47 0 01-.69.16.46.46 0 01-.17-.68.63.63 0 00.08-.44 6.08 6.08 0 01.09-1.28.63.63 0 01.93-.52c.09 0 .14.06.22 0a19 19 0 013.77-1.94zM35.78 16a2.73 2.73 0 01-1.17 2.31c-.29.22-.58.43-.85.67a1.43 1.43 0 01-.86.24.38.38 0 00-.38.24c-.23.46-.65.47-.92 0a6.62 6.62 0 00-.81-1.15.45.45 0 010-.72.42.42 0 01.64.14 1.84 1.84 0 002.28.21 1.9 1.9 0 00.78-2.49.68.68 0 00-.32-.35 2.86 2.86 0 00-3 0 2.29 2.29 0 01-2.42-.16 3.82 3.82 0 01-1.52-4.34 2.87 2.87 0 012.23-1.79c.18 0 .4 0 .39-.32a.44.44 0 01.37-.35.58.58 0 01.57.26c.29.46.56.93.85 1.39a.48.48 0 01-.07.54.4.4 0 01-.52.1 3.54 3.54 0 01-.94-.61.48.48 0 00-.6-.09 3.49 3.49 0 01-.34.15c-.94.35-1 .72-.85 1.75a4.26 4.26 0 00.48 1.27.53.53 0 00.65.32c.32-.06.64-.15 1-.24 2.07-.59 4.08-.07 5.1 2.14a2 2 0 01.23.88z" fill="#010101"/><path d="M19.84 31.48a2.66 2.66 0 01-.34 1.35 7.76 7.76 0 00-.52 1 .71.71 0 01-.31.33c-.31.18-.64.31-.62.81 0 .3-.43.42-.73.23a7.13 7.13 0 00-1.32-.69.46.46 0 01-.27-.65c.12-.32.41-.25.63-.18a1.72 1.72 0 002.18-.82 1.88 1.88 0 00.3-1.47c-.34-1.08-.82-1.4-1.86-1.22a2.83 2.83 0 00-2 1.23 2.08 2.08 0 01-1.9.89 3.76 3.76 0 01-3.57-3.54 3 3 0 011.31-2.39c.13-.09.35-.1.18-.38a.41.41 0 01.15-.48.59.59 0 01.64 0l1.35.89a.48.48 0 01.18.56.42.42 0 01-.45.29 4.44 4.44 0 01-1.08-.24.38.38 0 00-.44.12 4 4 0 01-.39.43 1.12 1.12 0 00-.15 1.53 4.12 4.12 0 001.32 1.37.36.36 0 00.42 0 4.78 4.78 0 001-.75c1.8-1.51 3.82-1.62 5.53-.11a2.25 2.25 0 01.76 1.89z" fill="#020202"/><path d="M11.57 64.63c0 .69-.25.89-.76.62a2.72 2.72 0 00-1.76 0c-2.45.33-4.85.93-7.28 1.39-.25 0-.41.1-.31.44A14.55 14.55 0 002 68.76c.25.57.3.62.9.49.36-.07.62 0 .68.36s-.21.48-.53.55a7.68 7.68 0 00-1.33.28.44.44 0 01-.62-.44 17.93 17.93 0 00-.83-4.17A5.72 5.72 0 000 64.29c-.08-.15.11-.3.23-.41a.28.28 0 01.38 0c.84.88 1.87.5 2.82.35 2.12-.32 4.22-.74 6.33-1.11.33-.06.62-.14.72-.5s.23-.25.46-.25.3.16.36.33a10.86 10.86 0 01.27 1.93zM112.77 33.41a.41.41 0 01-.59.37 1 1 0 00-1.09.11c-1 .51-2 1-3 1.54-.56.29-1.15.53-1.73.79a5.2 5.2 0 00-2.49 1.9c-.27.42-.7.37-.94-.08a15.44 15.44 0 00-1.22-2.17.5.5 0 010-.74c.25-.19.49 0 .67.19.29.4.67.29 1 .16a16.94 16.94 0 003.1-1.55 19.43 19.43 0 012.39-1.15 4.17 4.17 0 002-1.63c.19-.31.59-.31.7 0a1.88 1.88 0 00.38.58 4 4 0 01.82 1.68zM37.61 16.72a.44.44 0 01-.4-.27.48.48 0 01.15-.49c.51-.52.47-.6.27-1.3a42 42 0 00-2-4.31 7.77 7.77 0 00-1-2.21 4.09 4.09 0 00-1-1c-.23-.14-.21-.61 0-.65a2.29 2.29 0 00.84-.49 4.45 4.45 0 011.29-.55.59.59 0 01.58.14.41.41 0 010 .54c-.23.34-.05.63.08.93.57 1.27 1.15 2.53 1.72 3.8.11.24.2.48.29.73a5.68 5.68 0 002 3 .47.47 0 01-.08.84 19.31 19.31 0 00-2.4 1.22.56.56 0 01-.34.07zM19.05 87.23c-.95-.31-1.48.47-2.16.85-1.23.7-2.35 1.58-3.6 2.25a5.09 5.09 0 00-2.29 2.1c-.22.45-.65.44-.93 0a15.15 15.15 0 00-1.4-2 .48.48 0 010-.74c.21-.18.46-.07.64.13.35.37.7.19 1.06 0a18 18 0 003.07-2 17.63 17.63 0 012.08-1.29 4.64 4.64 0 001.92-1.88c.14-.26.57-.32.67-.07s.4.48.6.72a3.67 3.67 0 01.68 1.18.44.44 0 01-.34.75z" fill="#010101"/><path d="M58.08 117.42a1 1 0 011 1.36 4.28 4.28 0 01-.49 1 .5.5 0 01-.65.22.54.54 0 01-.22-.56c0-.12.08-.24-.1-.31a.65.65 0 01-.41-.87c.15-.63.36-.82.87-.84z" fill="#040404"/><path d="M99.86 46.43a1.47 1.47 0 00.3 1.24.49.49 0 01.11.18c.32 1.24.93 2.37 1.33 3.57a.14.14 0 010 .09c-.2 1 .41 1.81.59 2.72a1.58 1.58 0 01.09.7 6.14 6.14 0 00.09 2.18c.06 1 .34 2 .37 3v.13c-.47 1.05 0 2.17-.21 3.23a27.76 27.76 0 00-.62 3.72 29.36 29.36 0 01-.52 3 19.17 19.17 0 01-1 2.82c-.21.55-.43 1.09-.64 1.63a1 1 0 00-.09.36 2 2 0 01-.58 1.63.64.64 0 00-.16.29 3.54 3.54 0 01-1 1.84.86.86 0 00-.19.58 2.08 2.08 0 01-.51 1.16 7.74 7.74 0 00-.64 1c-.61 1.15-1.59 2-2.25 3.15a39.38 39.38 0 01-2.6 3.35 3 3 0 01-.6.57 2 2 0 00-.66.68 4.63 4.63 0 01-1.92 1.8 7.36 7.36 0 00-2.15 1.81 6.17 6.17 0 01-2.18 1.48 4.46 4.46 0 00-1.06.78 4.32 4.32 0 01-1.89 1.17 2.08 2.08 0 00-.86.47 3.45 3.45 0 01-2.19 1.06.76.76 0 00-.52.15 5.07 5.07 0 01-2.63.91 8.71 8.71 0 00-2.47.55c-1.18.61-2.49.61-3.69 1.07a4.2 4.2 0 01-1.41.32 2.16 2.16 0 00-.92.23 2 2 0 01-.89.18 4.9 4.9 0 00-1.57.14.93.93 0 01-.37 0 3.88 3.88 0 00-2.16.18.81.81 0 01-.57-.06 1.79 1.79 0 00-1.29 0 1.25 1.25 0 01-.66.07c-1.27-.2-2.56-.29-3.84-.43a1.13 1.13 0 01-.6-.27 1.12 1.12 0 00-1.12-.25 1.26 1.26 0 01-.58 0c-1.27-.26-2.58-.33-3.84-.67a8.33 8.33 0 00-1.66-.37 1.55 1.55 0 01-.83-.45 1.87 1.87 0 00-1-.47 5.63 5.63 0 01-1.94-.69 2.12 2.12 0 00-.77-.29 2.55 2.55 0 01-1.25-.54c-.79-.59-1.73-.93-2.57-1.45-1.73-1-3.39-2.2-5.11-3.27a14.65 14.65 0 01-2.6-2.2A17.19 17.19 0 0029 88.07a1.65 1.65 0 01-.59-.78 3.92 3.92 0 00-1-1.45A6.8 6.8 0 0126 84.08a1.4 1.4 0 00-.44-.55A4.67 4.67 0 0124 81.47c-.1-.22-.18-.45-.44-.56s-.24-.3-.28-.5a3.12 3.12 0 00-.93-1.7.77.77 0 01-.27-.55 3.06 3.06 0 00-.49-1.4 13.57 13.57 0 01-1.41-3.41 1.58 1.58 0 00-.46-.87.55.55 0 01-.15-.42 12.75 12.75 0 00-.93-3.64 1.72 1.72 0 01-.12-.9 2 2 0 00-.16-1.14c-.21-.47-.17-1-.39-1.48a.34.34 0 01.05-.23 1 1 0 000-.85.77.77 0 01-.07-.36c.28-1.44-.31-2.79-.44-4.18a8.25 8.25 0 01.37-3.94 2 2 0 00.15-.64c0-1 .35-2 .39-3.05a16.49 16.49 0 01.8-3.8c.34-1.24.93-2.38 1.21-3.62a16.55 16.55 0 011.12-2.72 1.06 1.06 0 01.18-.37 11.35 11.35 0 001.61-2.7c.25-.4.26-.92.52-1.35s.69-1 1.07-1.53a7.72 7.72 0 00.87-1.32 1.17 1.17 0 01.58-.62.57.57 0 00.3-.29 7.6 7.6 0 011.09-1.55 9.51 9.51 0 011.73-1.63c.81-.71 1.41-1.6 2.18-2.35a3.56 3.56 0 011-.73 4.52 4.52 0 001.56-1.29 1.07 1.07 0 01.57-.47 2.71 2.71 0 00.78-.46 9.3 9.3 0 011.63-.91 2.61 2.61 0 00.54-.31A3.42 3.42 0 0139 23a13.43 13.43 0 001.47-.83 4.37 4.37 0 002-1.13.36.36 0 01.23-.09 2.64 2.64 0 001.26-.6 1.26 1.26 0 011-.33 3.27 3.27 0 001.27-.29 7 7 0 002.35-.89c.38-.29.88-.22 1.32-.38a7.86 7.86 0 012.1-.27c1-.06 1.86-.41 2.81-.52a11.08 11.08 0 012.07-.2c.24 0 .48-.13.69-.09 1 .21 2-.17 3 0a15 15 0 004.22.17 12.94 12.94 0 013.42.55 20 20 0 013.89 1 20.93 20.93 0 002.34 1 3.28 3.28 0 011.8 1 .9.9 0 00.53.22 6.78 6.78 0 012.71 1.21 7.53 7.53 0 001.67.74 5.7 5.7 0 012.07 1.36 14.34 14.34 0 003.62 2.63A7.54 7.54 0 0189 29.32a1.54 1.54 0 00.63.58c.19.07.25.26.32.42a1.3 1.3 0 00.81.79 1 1 0 01.61.58 2.06 2.06 0 00.85.95 2.75 2.75 0 01.74.78 8.88 8.88 0 011.82 2.36 18.27 18.27 0 001.7 2.64 8.8 8.8 0 01.89 2 1.33 1.33 0 00.49.75 1.49 1.49 0 01.59 1 4.83 4.83 0 00.79 1.83 5.36 5.36 0 01.62 2.43z" fill="#b2bc36"/><path d="M91.87 10.08a2.91 2.91 0 00-1.62-1.4A4.27 4.27 0 0188.71 8a23.56 23.56 0 00-2.09-1.51.39.39 0 00-.3-.1c-.36.05-.5.23-.38.62a1.18 1.18 0 01-.29 1.49.51.51 0 00-.14.25 3.91 3.91 0 01-.62 1.2A15.75 15.75 0 0083.54 12 30.75 30.75 0 0182 14.68a.68.68 0 01-.94.35.52.52 0 00-.43.94A16.13 16.13 0 0083 17.13c.13 0 .22.06.32-.06a.75.75 0 00.22-.57 2 2 0 01.54-1.5 13.5 13.5 0 001.15-1.8 4.87 4.87 0 00.39.47.77.77 0 01.23.85 11.09 11.09 0 00-.31 1.5 5.17 5.17 0 00-.23 1.51 3.45 3.45 0 002.52 2.62c.36.07.56-.16.45-.5a1.61 1.61 0 01-.12-.39c0-.26-.12-.43-.43-.45s-.46-.11-.46-.29a4.23 4.23 0 01.11-1.84 4.09 4.09 0 00.29-2.68c.34.1.65.21 1 .27a4 4 0 001 0 2.89 2.89 0 002.2-4.19zm-1.87.33a3.48 3.48 0 01-2.12 2.33h-.2a2.8 2.8 0 01-.29 0 2.89 2.89 0 01-1.37-.39c-.18-.1-.21-.2-.1-.37l1.93-3.17c.09-.16.17-.15.32-.08a4 4 0 011.73 1.3c.1.15.19.23.1.38zM80.82 4.13a16.39 16.39 0 01-2.1-.74 9.4 9.4 0 00-1.65-.64.48.48 0 00-.64.21c-.08.24-.08.53.28.62.19.06.24.18.16.39-.48 1.23-.92 2.48-1.43 3.7-.57 1.39-1.21 2.76-1.7 4.18a.51.51 0 01-.69.36c-.27-.08-.54 0-.62.21s.11.44.34.59a6.48 6.48 0 001.49.48l3.4 1.3a1.13 1.13 0 00.77 0 3.89 3.89 0 002.82-3.48A2.62 2.62 0 0080.66 9a2.15 2.15 0 001.41-.88 2.67 2.67 0 00-1.25-3.99zm-2.3 8.6a2.28 2.28 0 01-1.25.68h-.17a1.49 1.49 0 01-.92-.19c-.33-.27 0-.57.14-.82.42-1 .58-2.13 1-3.16.15-.38.3-.44.66-.32a2.89 2.89 0 011.44 1 1.26 1.26 0 01.28.83 3 3 0 01-1.18 1.98zm2.17-6.08c-.4 1.15-.74 1.4-2 1.39-1 0-1 0-.68-.92s.48-1.64.71-2.46c.06-.22.12-.34.38-.21a5.2 5.2 0 00.69.27 1.39 1.39 0 01.9 1.93zM48 110.5a7.54 7.54 0 00-.17-1.83 3.55 3.55 0 00-2.48-2.86 6.66 6.66 0 01-1.25-.37 2.59 2.59 0 00-1.62-.25 4.64 4.64 0 00-3.56 2.39 7.85 7.85 0 00-.77 2.34 6 6 0 00.06 3 5.84 5.84 0 003.21 3.31 2.46 2.46 0 001.27.22 4 4 0 002.34-.6c.27-.2.57-.35.84-.54a3.34 3.34 0 001.52-1.84 8.74 8.74 0 00.61-2.97zm-2.22 1.3a7.78 7.78 0 01-1.78 2.68 1.74 1.74 0 01-.91.55c-.78.08-1.58.37-2.3-.29a1.9 1.9 0 01-.72-1.86c0-.09.11-.18 0-.28-.42-.71 0-1.42 0-2.13a2.42 2.42 0 01.5-1.38 5 5 0 00.38-1 2.37 2.37 0 012.49-1.6 6.29 6.29 0 011.55.32.68.68 0 01.42.38 4.7 4.7 0 01.32 4.61z" fill="#010101"/><path d="M48.46 93.85a2.51 2.51 0 011.35-.07 1.93 1.93 0 001.06-.13 2.91 2.91 0 011.13-.13 3.51 3.51 0 002.36-.45.76.76 0 01.58-.18 3.82 3.82 0 002.27-.54 15.25 15.25 0 002.72-1.26c1 0 1.61-.79 2.37-1.27a14.59 14.59 0 003-2 19 19 0 002.4-2.51 1.73 1.73 0 01.42-.47 5.09 5.09 0 001.2-1.37c.56-.82 1.15-1.63 1.72-2.45a1.72 1.72 0 00.36-1 1.39 1.39 0 01.35-.92 2.05 2.05 0 00.49-1.17 2.07 2.07 0 01.37-1 1.42 1.42 0 00.28-1.06 14.56 14.56 0 01.29-2.26c0-.74.28-1.44.36-2.17a3 3 0 00-.08-1.27 14.66 14.66 0 01-.21-2.17c-.16-.83-.26-1.67-.38-2.51a.82.82 0 00-.06-.28c-.65-1.28-.78-2.78-1.59-4a11.65 11.65 0 00-2-2.57 1.24 1.24 0 01-.31-.34 10.5 10.5 0 00-2.26-2.3 6 6 0 00-1.84-1.27 1.09 1.09 0 01-.3-.23 2.24 2.24 0 00-1.45-.81 1.07 1.07 0 01-.56-.26 7.28 7.28 0 00-2.34-1.06C59 52 58 51.58 56.81 51.3c-.68-.17-1.37 0-2-.21s-1.38 0-2.07-.17a5.27 5.27 0 00-1.94 0 4.26 4.26 0 01-.71 0c-.16 0-.35-.07-.49 0-1 .45-2.09.08-3.12.3h-.08c-.88.45-1.91.44-2.8.86a2.26 2.26 0 01-1 .24 3.46 3.46 0 00-2 .71 4.25 4.25 0 01-1.12.62 9.23 9.23 0 00-2 1.29 4.94 4.94 0 01-1.21.62 1.24 1.24 0 00-.73.6 3.13 3.13 0 01-.87.87 16 16 0 00-2.81 2.71c-.29.4-.61.77-1 1.25a8.34 8.34 0 010-2.34 1.51 1.51 0 00-.05-.87 7.15 7.15 0 01-.17-2.84c.07-.69 0-1.38 0-2.08a8.85 8.85 0 01.36-2.39.27.27 0 000-.12 14.79 14.79 0 01.55-3.43.71.71 0 000-.25 3.4 3.4 0 01.58-2.55 6.69 6.69 0 00.59-2.24 2 2 0 01.17-.59A21.48 21.48 0 0034 38.76a1.51 1.51 0 01.15-.39c.78-.8 1-2 1.67-2.8a1.23 1.23 0 00.32-.62 3.45 3.45 0 011.12-2c.74-.78 1.55-1.47 2.32-2.21A16.49 16.49 0 0142 29.06c.38-.25.79-.46 1.17-.72a7.56 7.56 0 012.54-.86 3.63 3.63 0 00.57-.13 2.45 2.45 0 011.42-.14 2.84 2.84 0 001.16 0 2.33 2.33 0 01.91 0 17.29 17.29 0 014.93 2.13 1.05 1.05 0 01.42.39c.2.35.4.7.61 1.05a.58.58 0 01-.08.79 3.46 3.46 0 00-.74 1 2.21 2.21 0 01-.72.74 8.88 8.88 0 00-2 2.14 3 3 0 00-.54 2.25 5 5 0 001 2.93 8.15 8.15 0 004.81 2.59 4.72 4.72 0 002-.1.53.53 0 01.24 0c1.2.35 2-.68 3.11-.81a.39.39 0 00.21-.13 21.12 21.12 0 002.14-2.09.9.9 0 00.25-.47 11.05 11.05 0 01.73-2.46 2 2 0 000-1.26 1.25 1.25 0 01-.13-.52c.15-1.53-.67-2.7-1.42-3.9a6.72 6.72 0 01-.46-.88 3.42 3.42 0 00-1.49-1.52 4.09 4.09 0 01-1-.77 5.27 5.27 0 00-2-1.32 2.68 2.68 0 01-1.07-.71 1.08 1.08 0 00-.91-.41 1.41 1.41 0 01-.81-.16 10.7 10.7 0 00-3.72-1.25 7.1 7.1 0 01-1.74-.62.48.48 0 01.15-.07 10.35 10.35 0 012.72-.28 2.09 2.09 0 00.82-.09 14.84 14.84 0 014.84-.4c1 .1 2.11-.19 3.18 0 .54.09 1.05.26 1.57.38a2.51 2.51 0 001.15.09 1 1 0 01.83.18 2.37 2.37 0 001.34.36 5.49 5.49 0 011.26.29c.94.23 1.87.51 2.83.67a6.32 6.32 0 012.26.81A11.38 11.38 0 0177 27.47a.45.45 0 00.32.16 3.35 3.35 0 011.64.64.39.39 0 01.24.32.57.57 0 00.53.55 3.78 3.78 0 011.43.87 35.68 35.68 0 003 2.49c.6.37.9 1 1.42 1.46a13.68 13.68 0 002 1.79c.4.23.56.69.8 1.06A28.26 28.26 0 0190.3 39l2.38 4.22a39 39 0 012.5 5.93 11.44 11.44 0 01.65 3.34 14.29 14.29 0 00.4 1.69 13.4 13.4 0 01.27 2.52 10.49 10.49 0 00.17 2.16 3.28 3.28 0 010 1 2.26 2.26 0 00.12 1.23 1.58 1.58 0 01.06.89 7.61 7.61 0 00-.07 2.52 3.62 3.62 0 01-.29 1.57 10.18 10.18 0 00-.49 2.69 1.55 1.55 0 01-.33 1.08 1.68 1.68 0 00-.34 1 25.55 25.55 0 01-.5 2.86.62.62 0 01-.12.26 2.39 2.39 0 00-.5 1.43 1.49 1.49 0 01-.43 1 1.75 1.75 0 00-.44 1 .93.93 0 01-.52.8 1.79 1.79 0 00-.74.82c-.22.45-.6.8-.85 1.22a17.35 17.35 0 01-1.91 2.28 12.49 12.49 0 01-2.07 2 1.23 1.23 0 00-.33.31 8.15 8.15 0 01-1.46 1.69 10.8 10.8 0 01-1.41 1.09 10.65 10.65 0 00-2.16 1.61 1 1 0 01-.44.31 8.18 8.18 0 00-2.63 1.71A4.77 4.77 0 0177 92a7.19 7.19 0 00-1.17.52 21.7 21.7 0 01-2 .89c-.5.2-1 .33-1.55.49h-.16c-1 .82-2.2.6-3.31.88a19.19 19.19 0 01-2.37.62.11.11 0 01-.08 0c-1.07-.26-2 .41-3 .45s-2.08.19-3.12.16-2.14-.23-3.22-.36h-.16a4.57 4.57 0 01-2.49-.46.59.59 0 00-.37 0 2.45 2.45 0 01-1.67-.3 29.18 29.18 0 00-3.31-1z" fill="#465661"/><path d="M47.76 90.62a5.86 5.86 0 01-1.32-.14 2.67 2.67 0 00-1.16 0 1 1 0 01-.61-.06 27.93 27.93 0 01-2.78-1 2.16 2.16 0 00-.66-.23 2.8 2.8 0 01-1.23-.63 1.92 1.92 0 00-.38-.25 11.28 11.28 0 01-3.48-3A7.19 7.19 0 0135 83.76a22.66 22.66 0 01-1.3-2.42c-.26-.73-.48-1.48-.73-2.21a15.22 15.22 0 01-.52-3.13 10.79 10.79 0 00-.22-1.48 2.37 2.37 0 01-.07-1 2.3 2.3 0 000-.74 4.69 4.69 0 010-1.54 2.23 2.23 0 00.06-1 1.42 1.42 0 010-.58 7.68 7.68 0 00.22-2 1.15 1.15 0 01.18-.64 8.05 8.05 0 00.9-2.53 1.34 1.34 0 01.21-.53 7.26 7.26 0 00.84-1.58.94.94 0 01.36-.45 7.42 7.42 0 001.88-2 .67.67 0 01.22-.25c.89-.56 1.6-1.38 2.53-1.89a2 2 0 01.85-.3 1.59 1.59 0 001.08-.49 2 2 0 011-.45c1.09-.25 2.2-.45 3.31-.59a8.23 8.23 0 001.63-.31.71.71 0 01.25 0c1 .2 2.05.08 3.05.38a2 2 0 001.14.07 1 1 0 01.69.06c1.18.6 2.45 1 3.61 1.61a2.77 2.77 0 01.91.71 2.52 2.52 0 00.83.69 2.25 2.25 0 01.85.88 7.2 7.2 0 001.48 2.14.75.75 0 01.3.54 7.16 7.16 0 00.82 2.38 11.6 11.6 0 01.77 3c.07.83.18 1.63.33 2.45a19.57 19.57 0 010 4.19 2.27 2.27 0 00.05.9 1.85 1.85 0 01-.05 1.31 1 1 0 00-.11.48c.17 1.27-.49 2.37-.72 3.55a7.61 7.61 0 01-1.26 2.61 2.9 2.9 0 00-.44 1 1.13 1.13 0 01-.5.79 3.48 3.48 0 00-1 1.12 1.67 1.67 0 01-.79.65 1.69 1.69 0 00-.74.52 6.56 6.56 0 01-3.48 2 11.75 11.75 0 00-2.52.68 4.23 4.23 0 01-1.47.22c-.61 0-1.14.01-1.67.04z" fill="#465661"/></g></svg>