<svg xmlns="http://www.w3.org/2000/svg" viewBox="0 0 155.87 68.73"><g fill="#7d1516" fill-rule="evenodd" data-name="Layer 2"><path d="M77.63 11.22c0 1.86-.09 3.73 0 5.59.1 1.62.48 3.33 3.23 3.62 2.39.24 4.64-.17 5.8-2 .43-.71.65-2 2.14-1.57 1.23.34.58 1.46.27 2.2a5.54 5.54 0 00.23 5.17c.27.48.42 1.15-.45 1.49a1.68 1.68 0 01-1.85-.6c-1.63-1.57-3.49-2.8-6.5-1.92s-2.88 2.8-2.87 4.72c0 2.7.06 5.4 0 8.1s1.77 3.65 5.29 3.6a21.29 21.29 0 0010-2.69c.69-.37 1.36-1 2.3-.27s.32 1.21-.42 1.65c-1 .57-1.56 1.26-1.39 2.17.45 2.35-1.43 2.75-4 2.32-5.5-.93-11.08-.5-16.63-.71-1 0-2.22.28-2.79-.57s.22-1.45 1.26-1.72c1.58-.41 1.18-1.33 1.18-2.11v-33c0-1.35-.35-2.4-2.43-2.74-.66-.11-1.34-.32-1.39-.82S69.28.47 70 .38a38.77 38.77 0 0124 4.34c.71.38.28 5.45-.44 5.61-1.66.37-1.48-.69-1.79-1.31-1.7-3.42-5.86-5.71-10.6-6-2.44-.14-3.68.43-3.57 2.31s0 3.91 0 5.86z"/><path d="M64.16 26.54c-.31-4.6-.35-8.72-2.62-12.58-1.28-2.19-2.75-4.36-6.81-4.16a6.11 6.11 0 00-5.82 5.53c-.31 2.37-4.43 4.2-7.75 3.47-1.15-.25-.88-.83-.63-1.31a18.86 18.86 0 0112.35-9.83c4.54-1.24 9.68.27 12.19 3.62 6.77 9 6.39 18.2.06 27.26-1.87 2.67-5.15 4.31-9.36 5a48.63 48.63 0 00-8.91 1.88c-.67.26-1.47.69-2.06.11s-.06-1.29.52-1.48c5.87-1.93 3.42-5.28 2.87-8.32a50.42 50.42 0 01-.79-11.43c.1-1.77.41-3.31 3.42-3.75a5.35 5.35 0 002.83-1.83c.53-.5 1-1.35 2-.88s.17 1.19-.07 1.78c-2.35 5.93-4.48 11.87-2.92 18.12.33 1.35.22 3.07 2.58 3.38a6.4 6.4 0 005.77-2.31 12.78 12.78 0 002.62-6.65c.37-2.03.37-4.09.53-5.62zM114.81 40c.83 1.83-.74 3.18-.38 4.69.2.88-1 1-1.93.76-4.87-1.2-9.59-2.75-15-2.15-1.65.19-1.39-.75-.43-1.4 2.3-1.56 2.6-3.57 2.53-5.65-.33-9.66 1-19.35-1.08-29-.24-1.13.31-1.71 1.92-.92a55.88 55.88 0 015 2.65c1.41.9 2.56 1.9-.09 2.92-1.84.69-1.27 2.12-1.27 3.27 0 7.36.45 14.72 0 22.06-.22 4.12 4.34 5.43 8.39 3.66.65-.22 1.34-.46 2.34-.89zM116.05 46.52c2.18-1.55 2.31-3.31 2.34-5.21.1-7.49.32-15-.49-22.76a12.9 12.9 0 016.28 5 .72.72 0 010 .75c-4.37 6.5-1.31 13.31-1.36 20 0 2.68 4.1 2.13 6.88 2 .78-.05 1.79-1 2.19 0a3.83 3.83 0 010 3c-.42.89-1.8.44-2.7.15-4.12-1.45-8.08-3.09-13.14-2.93zM85.53 63.49l-5.8-9.37c-2.23 3-2 6.4-4.86 9.51-1.82-5.81-3.46-11.18-6.27-16.47 2.76-.72 4.18-.54 4.52 1.89.38 2.65 1.5 5.25 2.41 8.22 1.86-2 3-3.81 2.8-6-.09-.81-.08-1.81 1.7-1.71 1.27.07 1.83.74 1.66 1.56-.56 2.83 2.19 4.74 3.66 7.6a27.37 27.37 0 002.46-10.64c0-.51-.53-1.25.4-1.47a4 4 0 012.2.29c1 .45 0 1-.19 1.42-1.57 4-2.24 8.19-3.11 12.31a3.31 3.31 0 01-1.58 2.86zM108.82 65.15L103 52.48l-4.51 13c-1.73-.73-2.86-1.2-1.7-2.73a18.73 18.73 0 003.72-11.81c0-.76-.92-2 1.48-1.94 1.58 0 2.34.29 2.8 1.63 1.11 3.21 2.74 6.33 4.49 10.19a17.7 17.7 0 002.11-8c0-.67-.55-1.63.86-1.87a4.12 4.12 0 012.19.45c1.16.57 0 1.19-.24 1.69-1.9 3.91-2.94 8-4.24 12zM127.58 60c.16-2.44.45-4.39-2.81-4.89a5.73 5.73 0 00-6.2 3 8.31 8.31 0 00-1.16 5.44c.14 1.61 1.16 2.65 3.43 2.87 1.4.14 2.42-.19 3-1.29.83-1.61.43-2.69-2-3.23-.12 0-.15-.3-.24-.49a7.61 7.61 0 014.15.27c.71.32 5.8.33.94 2.28-1.75.7-1 2.46-.66 3.86-1.36 0-2.48-.19-3.59-.13-5.79.29-7.88-.91-8-5.06-.06-3.49 1.33-6.65 6-8.5 3.19-1.28 9.67 1 9.85 3.48.05.58-1.38 1.25-2.71 2.39zM66.53 49.61c-2.45 0-4.7-2.08-6.23-.34-.9 1-.48 3.08 1.15 4.07 1.9 1.15 2.57-.83 4.06-1.23-.89 1 2.92 4-2.62 3-.65-.1-1.33.23-1.4.76-.21 1.67-.51 3.75 1.32 4.68a4.6 4.6 0 005.52-1.46 1.2 1.2 0 011.21-.54c1.19 4.2-3.57 3.18-6.45 3.77-2.29.47-3.51.42-3.56-1.93a31.64 31.64 0 00-2.18-10.69c-.13-.34-.6-.89-.48-1 2.13-1.28 4.85-1 7.34-1.28 2.1-.19 1.73 1.19 2.32 2.19zM96.89 48.83c-1.71 4.2-2.1 8.54-2.66 12.85-.11.82-.78.88-1.57.71s-1.45-.24-1.12-1.08a40.74 40.74 0 002.56-12.56c0-.79.62-.91 1.49-.81s1.65.06 1.3.89zM0 48.15c5.17 0 10.31.5 15.5.36 1.26 0 1.93.5 1.95 1.38s-.93.84-1.66.75C10.51 50 5.1 49.74 0 48.15zM155.87 47.42c-4.72 2.09-10 2.12-15.22 2.29-.75 0-1.24-.2-1.29-.77s.54-1 1.43-1c5.03-.04 10.06-.01 15.08-.52zM9.39 39.55c2.79 1.11 5.56 2.24 8.38 3.31.75.29 1.43.54 1 1.21s-1.23.46-1.92.15C14 43 10.68 42.08 9.39 39.55zM10.58 59.65A21.22 21.22 0 0118 55.58c.81-.3 1.64-.74 2.31.05 1 1.17-.72 1.19-1.43 1.44-2.72.93-5.52 1.73-8.3 2.58zM146.39 58.66c-2.5-1.15-5.39-1.59-8-2.46-.55-.18-1.26-.4-.89-1a1.35 1.35 0 011.53-.61c2.65 1.15 5.91 1.71 7.36 4.07zM145.23 39.9c-1.3 2.19-3.59 2.89-5.4 3.93a1 1 0 01-1.29-.17c-.3-.36-.33-.77.12-1 1.92-.89 3.55-2.21 6.57-2.76z"/><path d="M42.65 25.44c-2.49-3.27-6.95-3.85-10.54-1.17-6.92 5.16-9.25 11.41-7.46 18.42.69 2.73 2.83 4.91 6.72 5.53 3.61.57 6.45-.94 8.78-2.78 4-3.14 4.94-7 4.91-12.06a12.61 12.61 0 00-2.41-7.94zm-4.9 18.07a4.68 4.68 0 01-4.15 2.17c-2-.1-2.73-1.26-3.46-2.38-2.7-4.11-.6-13.69 3.73-17 1.88-1.42 3.57-1.39 4.93.41 1.81 2.39 1.72 5 1.78 7.63a13.36 13.36 0 01-2.83 9.17zM60.1 64.77c-3-1.79-3.75-5-7.3-6.35-1.82-.71-2.11-1.21-.84-2.56 1.53-1.63 1.52-3.54-.38-5.18a5 5 0 00-5.24-.83c-1.85.78-3.9.88-7.31 1.79 3.65.56 3.74 2.2 4.31 3.57 1.19 2.83 2.31 5.68 3.21 8.56.3 1 .59 1.19 1.94 1 2-.32.75-.9.47-1.54-.73-1.61-1.69-3.21-1.44-5.1 6.29 1.4 7.55 6.09 12 8.87.25-.93.93-2 .58-2.23zm-12.79-8.58c-2.2 0-1.78-1.63-2.08-2.58-.4-1.26.72-2.23 2.52-2.3 2-.09 2.43 1.1 2.82 2.21a3 3 0 01-3.26 2.67zM43.36 61.66a4.2 4.2 0 00-4.29-3.13c-2.42 0-2.22-.8-1.93-2s-.22-2.2-1.67-2.91a4.28 4.28 0 00-4.24.45 12.79 12.79 0 01-4.81 1.37c4.72 4.05 6.28 8.54 7 13.29 2.31-.82 4.76-1.6 7.06-2.56s3.41-2.59 2.88-4.51zm-10.45-2.42c-1.91-.24-1.77-1.85-1.91-3s1.22-1.52 2.3-1.47c1.86.1 2 1.23 1.86 2.31-.24 1.01-.58 2.39-2.25 2.16zm4.31 6.48c-2.47-.11-2.71-2.06-3-3.42s1.21-2.32 3-2.32a3 3 0 013.34 2.92 3.09 3.09 0 01-3.34 2.82z"/></g></svg>