<svg xmlns="http://www.w3.org/2000/svg" viewBox="0 0 174.28 126.82"><g data-name="Layer 2"><path d="M82.66 126.79a6.25 6.25 0 01-6.32-4.87 6.33 6.33 0 0111.13-5.3c.59.75.73 1.38-.11 2a9.08 9.08 0 00-.76.76c-1 1-1.21 1-2.08-.18a2.26 2.26 0 00-2.71-1 2.3 2.3 0 00-1.68 2.35 2.39 2.39 0 004.45 1.19c.7-1.06 1-1.08 1.93-.21 1.9 1.77 1.85 2.63-.33 4.12a5.11 5.11 0 01-3.52 1.14z" fill="#4c6d83" opacity=".24"/><path d="M81.16 125.79a6.25 6.25 0 01-6.32-4.87 6.33 6.33 0 0111.16-5.3c.59.75.73 1.38-.11 2a9.08 9.08 0 00-.76.76c-1 1-1.21 1-2.08-.18a2.26 2.26 0 00-2.71-1 2.3 2.3 0 00-1.68 2.35 2.39 2.39 0 004.45 1.19c.7-1.06 1-1.08 1.93-.21 1.9 1.77 1.85 2.63-.33 4.12a5.11 5.11 0 01-3.55 1.14z" fill="#e5ba5d"/><path d="M101.51 11c-.56-.48-1-.2-1.43.28A3.29 3.29 0 0198 12.54c-.5 0-1.14.16-1.25-.57s.49-.69 1-.84a10.4 10.4 0 003-1.38 2.32 2.32 0 00.78-2.8c-.32-1-1.22-1.16-2.15-1.1a5 5 0 00-3.93 2.43c-.54.79-1 1.65-1.45 2.48A2.85 2.85 0 0192.71 12a.77.77 0 01-.56.09c-.27-.13-.16-.42-.07-.63.44-1 .91-2 1.34-2.94s1.07-1.87.3-2.79S92 5.33 91 5.56c0 0-.07 0-.18-.07.4-.86.79-1.64 1.14-2.45.14-.31.35-.66 0-1a.92.92 0 00-1-.15 8.5 8.5 0 01-4.25.22 42 42 0 01-4.31-.91 6.31 6.31 0 00-3.55.11 2.77 2.77 0 00-2 2.47A2.44 2.44 0 0078 6.37a3.16 3.16 0 003.3-.08 1 1 0 00.56-1.39c-.28-.6-.71-1-1.43-.61a.87.87 0 01-1 0 .44.44 0 01-.1-.55 1 1 0 011-.51 18.41 18.41 0 013.53.56c.45.08.43.33.25.69a58.89 58.89 0 01-2.85 5.67 5.74 5.74 0 01-.81 1c-1 1-1.83.86-2.51-.37-.12-.21-.19-.47-.51-.3a2.68 2.68 0 00-1.49 1.78c-.16.75.47 1.13 1 1.46a4.59 4.59 0 005.06-.54 8.65 8.65 0 002.27-3c.83-1.72 1.68-3.44 2.46-5.19.32-.69.86-.54 1.31-.41.68.19.2.67.07 1-1.1 2.35-2.13 4.73-3.44 7-.32.55-1.37.92-1 1.57s1.34.19 2 .27h.11c.79.05 1.17-.21 1.36-1.09a11.68 11.68 0 012.32-4.69c.3-.39.76-.91 1.29-.53s0 .79-.2 1.17a16.44 16.44 0 00-1.24 3.23c-.21 1.22.28 1.82 1.5 1.92a3.72 3.72 0 002.84-1c.25-.22.37-.53.83-.12a4.54 4.54 0 006.73-.71c.43-.6.92-1.08.3-1.6zM99 7.6c.31-.1.65-.11.83.25a.6.6 0 01-.27.82 5 5 0 01-2 .71A2.53 2.53 0 0199 7.6z" fill="#4c6d83" opacity=".24"/><path d="M100 10c-.56-.48-1-.2-1.43.28a3.29 3.29 0 01-2.1 1.28c-.5 0-1.14.16-1.25-.57s.49-.69 1-.84a10.4 10.4 0 003-1.38A2.32 2.32 0 00100 6c-.32-1-1.22-1.16-2.15-1.1a5 5 0 00-3.93 2.43c-.54.79-1 1.65-1.45 2.48A2.85 2.85 0 0191.21 11a.77.77 0 01-.56.09c-.27-.13-.16-.42-.07-.63.44-1 .91-2 1.34-2.94s1.07-1.87.3-2.79-1.77-.41-2.69-.18c0 0-.07 0-.18-.07.4-.86.79-1.64 1.14-2.45.14-.31.35-.66 0-1a.92.92 0 00-1-.15 8.5 8.5 0 01-4.25.22A42 42 0 0180.9.2a6.31 6.31 0 00-3.55.11 2.77 2.77 0 00-2 2.47 2.44 2.44 0 001.11 2.59 3.16 3.16 0 003.3-.08 1 1 0 00.56-1.39c-.28-.6-.71-1-1.43-.61a.87.87 0 01-1 0 .44.44 0 01-.1-.55 1 1 0 011-.51 18.41 18.41 0 013.53.56c.45.08.43.33.25.69a58.89 58.89 0 01-2.85 5.67 5.74 5.74 0 01-.81 1c-1 1-1.83.86-2.51-.37-.12-.21-.19-.47-.51-.3a2.68 2.68 0 00-1.49 1.78c-.16.75.47 1.13 1 1.46a4.59 4.59 0 005.05-.59 8.65 8.65 0 002.27-3c.83-1.72 1.68-3.44 2.46-5.19.32-.69.86-.54 1.31-.41.68.19.2.67.07 1-1.1 2.35-2.13 4.73-3.44 7-.32.55-1.37.92-1 1.57s1.34.19 2 .27h.11c.79.05 1.17-.21 1.36-1.09a11.68 11.68 0 012.32-4.69c.3-.39.76-.91 1.29-.53s0 .79-.2 1.17a16.44 16.44 0 00-1.24 3.23c-.21 1.22.28 1.82 1.5 1.92a3.72 3.72 0 002.84-1c.25-.22.37-.53.83-.12a4.54 4.54 0 006.73-.71c.48-.55.97-1.03.34-1.55zm-2.49-3.4c.31-.1.65-.11.83.25a.6.6 0 01-.27.82 5 5 0 01-2 .71 2.53 2.53 0 011.44-1.78z" fill="#e5ba5d"/><path d="M94.79 114.24a6.28 6.28 0 00-6.31 6.2 6.18 6.18 0 006.23 6.35 6.1 6.1 0 006.33-6.21 6.19 6.19 0 00-6.25-6.34zm-.07 8.7a2.39 2.39 0 01-2.36-2.47 2.4 2.4 0 114.8.09 2.37 2.37 0 01-2.44 2.38z" fill="#4c6d83" opacity=".24"/><path d="M93.29 113.24a6.28 6.28 0 00-6.31 6.2 6.18 6.18 0 006.23 6.35 6.1 6.1 0 006.33-6.21 6.19 6.19 0 00-6.25-6.34zm-.07 8.7a2.39 2.39 0 01-2.36-2.47 2.4 2.4 0 114.8.09 2.37 2.37 0 01-2.44 2.38z" fill="#e5ba5d"/><path d="M102.64 126.51a1.7 1.7 0 01-1.67-1.8 1.67 1.67 0 011.77-1.68 1.74 1.74 0 01-.1 3.48z" fill="#4c6d83" opacity=".24"/><path d="M101.14 125.51a1.7 1.7 0 01-1.67-1.8 1.67 1.67 0 011.77-1.68 1.74 1.74 0 01-.1 3.48z" fill="#e5ba5d"/><path d="M15.87 49.06c.35-3.64.71-7.28 1.06-10.92q.6-6 1.18-12a1.56 1.56 0 011.72-1.59h7c1.33 0 1.79.65 1.56 1.94l-7.91 44.72c-.29 1.66-.63 2-2.28 2h-4.8c-1.81 0-2.09-.19-2.4-1.93C9.93 65.15 8.89 59.05 7.81 53Q5.44 39.67 3 26.36c-.19-1.06.24-1.8 1.32-1.83 2.51-.07 5-.05 7.55 0 .88 0 1.34.58 1.43 1.47.3 3.1.62 6.19.92 9.29.44 4.49.86 9 1.29 13.48a1.15 1.15 0 00.11.29z" fill="#4c6d83" opacity=".24"/><path d="M12.87 47.06c.35-3.64.71-7.28 1.06-10.92q.6-6 1.18-12a1.56 1.56 0 011.72-1.59h7c1.33 0 1.79.65 1.56 1.94l-7.91 44.72c-.29 1.66-.63 2-2.28 2h-4.8c-1.81 0-2.09-.19-2.4-1.93C6.93 63.15 5.89 57.05 4.81 51Q2.44 37.67 0 24.36c-.19-1.06.24-1.8 1.32-1.83 2.51-.07 5-.05 7.55 0 .88 0 1.34.58 1.43 1.47.3 3.1.62 6.19.92 9.29.44 4.49.86 9 1.29 13.48a1.15 1.15 0 00.11.29z" fill="#c04f47"/><path d="M123 38.57V26.36c0-1.58.16-1.75 1.69-1.76h3.84c1.36 0 1.68.32 1.68 1.71v33.81c0 2.07-.18 2.26-2.25 2.24-3.54 0-3.52.58-4.74-3.5-1-3.43-2.19-6.82-3.29-10.23a.6.6 0 00-.45-.53v12.64c0 1.12-.42 1.61-1.54 1.59h-4.2a1.28 1.28 0 01-1.49-1.43v-.6-33.7c0-1.84.21-2.05 2.07-2.05 4.33 0 3.71-.48 5.08 3.68 1 3.1 2 6.21 3 9.31.12.36.11.76.6 1.03z" fill="#4c6d83" opacity=".24"/><path d="M120 36.57V24.36c0-1.58.16-1.75 1.69-1.76h3.84c1.36 0 1.68.32 1.68 1.71v33.81c0 2.07-.18 2.26-2.25 2.24-3.54 0-3.52.58-4.74-3.5-1-3.43-2.19-6.82-3.29-10.23a.6.6 0 00-.45-.53v12.64c0 1.12-.42 1.61-1.54 1.59h-4.2a1.28 1.28 0 01-1.49-1.43v-.6-33.7c0-1.84.21-2.05 2.07-2.05 4.33 0 3.71-.48 5.08 3.68 1 3.1 2 6.21 3 9.31.12.36.11.76.6 1.03z" fill="#c04f47"/><path d="M73.84 43.47V31.95a7 7 0 017.38-7.37c2.14 0 4.21.05 6 1.49a8.07 8.07 0 012.64 7.67 1.45 1.45 0 01-1 1c-1.46.53-2.91 1.1-4.38 1.59-1.23.42-1.68.07-1.73-1.27v-2.87c0-.54-.17-1-.77-1s-.94.36-1 1v23.07c0 .51.33.68.79.7s.9-.08.91-.69c0-2.67 0-5.35.06-8 0-.11 0-.28-.07-.34-1.64-1.26-.4-3-.76-4.47-.08-.36.28-.45.53-.54 1.91-.7 3.81-1.43 5.73-2.06 1.14-.38 1.68.12 1.68 1.41v14.51a7 7 0 01-6.42 6.85 19 19 0 01-3.11 0 7 7 0 01-6.51-7.13c0-4.12.03-8.07.03-12.03z" fill="#4c6d83" opacity=".24"/><path d="M70.84 41.47V29.95a7 7 0 017.38-7.37c2.14 0 4.21.05 6 1.49a8.07 8.07 0 012.64 7.67 1.45 1.45 0 01-1 1c-1.46.53-2.91 1.1-4.38 1.59-1.23.42-1.68.07-1.73-1.27v-2.87c0-.54-.17-1-.77-1s-.94.36-1 1v23.07c0 .51.33.68.79.7s.9-.08.91-.69c0-2.67 0-5.35.06-8 0-.11 0-.28-.07-.34-1.64-1.26-.4-3-.76-4.47-.08-.36.28-.45.53-.54 1.91-.7 3.81-1.43 5.73-2.06 1.14-.38 1.68.12 1.68 1.41v14.51a7 7 0 01-6.42 6.85 19 19 0 01-3.11 0 7 7 0 01-6.51-7.13c0-4.12.03-8.07.03-12.03z" fill="#c04f47"/><path d="M146 46.41V66c0 1.7-.22 1.91-2 1.91h-4.32c-1.57 0-1.8-.24-1.8-1.82V36.18v-10c0-1.41.35-1.77 1.77-1.79s2.88 0 4.32 0c1.63 0 2.05.42 2 2.07 0 2.36-.05 4.71-.06 7.07.09 4.32.09 8.6.09 12.88z" fill="#4c6d83" opacity=".24"/><path d="M143 44.41V64c0 1.7-.22 1.91-2 1.91h-4.32c-1.57 0-1.8-.24-1.8-1.82V34.18v-10c0-1.41.35-1.77 1.77-1.79s2.88 0 4.32 0c1.63 0 2.05.42 2 2.07 0 2.36-.05 4.71-.06 7.07.09 4.32.09 8.6.09 12.88z" fill="#c04f47"/><path d="M35.6 46.24V26.45c0-1.69.33-2 2-2h4.32A1.5 1.5 0 0143.7 26v38.9c0 3 0 3-3 3h-3.12c-1.82 0-2-.19-2-2z" fill="#4c6d83" opacity=".24"/><path d="M32.6 44.24V24.45c0-1.69.33-2 2-2h4.32A1.5 1.5 0 0140.7 24v38.9c0 3 0 3-3 3h-3.12c-1.82 0-2-.19-2-2z" fill="#c04f47"/><path d="M73.42 89.31v-14c0-1.57.08-1.65 1.59-1.65h10.55c1.1 0 1.53.34 1.44 1.46a24.83 24.83 0 000 3.11c0 .73-.26 1-1 1h-5c-.7 0-1 .13-1 .91.06 1.64.06 3.28 0 4.91 0 .79.26.93 1 .91h4.08c.82 0 1.18.29 1.16 1.11v3.36c0 .84-.37 1.12-1.17 1.09h-4.19c-.62 0-.84.16-.83.81v6.59c0 .74.3.84.92.83h6.36c.81 0 1.26.18 1.27 1.11v3.35c0 .94-.46 1.14-1.26 1.13H75.06c-1.55 0-1.64-.09-1.64-1.61z" fill="#4c6d83" opacity=".24"/><path d="M70.42 87.31v-14c0-1.57.08-1.65 1.59-1.65h10.55c1.1 0 1.53.34 1.44 1.46a24.83 24.83 0 000 3.11c0 .73-.26 1-1 1h-5c-.7 0-1 .13-1 .91.06 1.64.06 3.28 0 4.91 0 .79.26.93 1 .91h4.08c.82 0 1.18.29 1.16 1.11v3.36c0 .84-.37 1.12-1.17 1.09h-4.19c-.62 0-.84.16-.83.81v6.59c0 .74.3.84.92.83h6.36c.81 0 1.26.18 1.27 1.11v3.35c0 .94-.46 1.14-1.26 1.13H72.06c-1.55 0-1.64-.09-1.64-1.61z" fill="#c04f47"/><path d="M93.82 89.44V75.17c0-1.12.34-1.58 1.51-1.56H106c1.08 0 1.54.34 1.45 1.46a25 25 0 000 3.12c0 .73-.29 1-1 1h-5c-.68 0-1 .1-1 .9.06 1.68 0 3.36 0 5 0 .65.22.81.83.79h4.2c.8 0 1.19.26 1.17 1.1v3.36c0 .81-.32 1.13-1.14 1.11h-4.2c-.61 0-.86.15-.85.8v6.58c0 .72.26.86.91.85h5.27c1 0 1.41.23 1.33 1.28a26.91 26.91 0 000 3.36c0 .69-.3 1-.91 1H94.87c-1 0-1.06-.6-1.06-1.36V90.05z" fill="#4c6d83" opacity=".24"/><path d="M90.82 87.44V73.17c0-1.12.34-1.58 1.51-1.56H103c1.08 0 1.54.34 1.45 1.46a25 25 0 000 3.12c0 .73-.29 1-1 1h-5c-.68 0-1 .1-1 .9.06 1.68 0 3.36 0 5 0 .65.22.81.83.79h4.2c.8 0 1.19.26 1.17 1.1v3.36c0 .81-.32 1.13-1.14 1.11h-4.2c-.61 0-.86.15-.85.8v6.58c0 .72.26.86.91.85h5.27c1 0 1.41.23 1.33 1.28a26.91 26.91 0 000 3.36c0 .69-.3 1-.91 1H91.87c-1 0-1.06-.6-1.06-1.36V88.05z" fill="#c04f47"/><path d="M97.42 43.48v-16.8c0-1.94.15-2.09 2.13-2.09h3.72c1 0 1.36.48 1.4 1.38v34.44c0 1.9-.22 2.12-2.13 2.12h-3.35c-1.42 0-1.76-.32-1.77-1.77V52z" fill="#4c6d83" opacity=".24"/><path d="M94.42 41.48v-16.8c0-1.94.15-2.09 2.13-2.09h3.72c1 0 1.36.48 1.4 1.38v34.44c0 1.9-.22 2.12-2.13 2.12h-3.35c-1.42 0-1.76-.32-1.77-1.77V50z" fill="#c04f47"/><path d="M172.32 54.19q-1-9.22-2.06-18.45c-.35-3.13-.69-6.26-1-9.4-.12-1.08-.61-1.83-1.79-1.84h-8.76a1.68 1.68 0 00-1.8 1.69q-.84 7.68-1.7 15.36l-2 18.22c-.43 3.84-.88 7.69-1.29 11.54-.16 1.51.19 1.84 1.72 1.85h5.64c1.15 0 1.66-.55 1.73-1.66.1-1.6.24-3.19.38-4.78.17-1.81.18-1.73 2.06-1.83 1.09-.06 1.36.34 1.39 1.33 0 1.71.18 3.43.34 5.14.14 1.47.52 1.78 2 1.79H173.06a1.18 1.18 0 001.3-1.47c-.73-5.82-1.36-11.68-2.04-17.49zm-9.22 2c-.47 0-1.07.21-1-.71.23-2.78.39-5.57.58-8.36.08-1.09.16-2.19.26-3.48a25.56 25.56 0 01.53 4.92c.23 2.3.32 4.62.52 6.92.08.78-.41.7-.89.69z" fill="#4c6d83" opacity=".24"/><path d="M169.32 52.19q-1-9.22-2.06-18.45c-.35-3.13-.69-6.26-1-9.4-.12-1.08-.61-1.83-1.79-1.84h-8.76a1.68 1.68 0 00-1.8 1.69q-.84 7.68-1.7 15.36l-2 18.22c-.43 3.84-.88 7.69-1.29 11.54-.16 1.51.19 1.84 1.72 1.85h5.64c1.15 0 1.66-.55 1.73-1.66.1-1.6.24-3.19.38-4.78.17-1.81.18-1.73 2.06-1.83 1.09-.06 1.36.34 1.39 1.33 0 1.71.18 3.43.34 5.14.14 1.47.52 1.78 2 1.79H170.06a1.18 1.18 0 001.3-1.47c-.73-5.82-1.36-11.68-2.04-17.49zm-9.22 2c-.47 0-1.07.21-1-.71.23-2.78.39-5.57.58-8.36.08-1.09.16-2.19.26-3.48a25.56 25.56 0 01.53 4.92c.23 2.3.32 4.62.52 6.92.08.78-.41.7-.89.69z" fill="#c04f47"/><path d="M68.54 60.16q-2-6.33-4-12.65c-.24-.74-.23-1.19.47-1.69a5.77 5.77 0 002.52-4.18 51.89 51.89 0 000-11.35 6.77 6.77 0 00-6.49-5.68c-2.72-.07-5.44 0-8.15 0-1 0-1.44.41-1.43 1.45v34.89c0 1 .45 1.45 1.44 1.44h4c1.52 0 1.8-.29 1.81-1.83v-7.89a1.7 1.7 0 01.47 1c.71 2.33 1.45 4.64 2.08 7a2 2 0 002.32 1.71h3.36c1.9-.02 2.17-.38 1.6-2.22zm-8.05-20.32a.82.82 0 01-.88.9c-.7 0-1-.13-.94-.9.07-1.28 0-2.55 0-3.83v-3.95c0-.34-.1-.78.46-.77s1-.12 1.25.44a1.08 1.08 0 01.11.47c.09 2.55.14 5.1 0 7.64z" fill="#4c6d83" opacity=".24"/><path d="M65.54 58.16q-2-6.33-4-12.65c-.24-.74-.23-1.19.47-1.69a5.77 5.77 0 002.52-4.18 51.89 51.89 0 000-11.35 6.77 6.77 0 00-6.49-5.68c-2.72-.07-5.44 0-8.15 0-1 0-1.44.41-1.43 1.45v34.89c0 1 .45 1.45 1.44 1.44h4c1.52 0 1.8-.29 1.81-1.83v-7.89a1.7 1.7 0 01.47 1c.71 2.33 1.45 4.64 2.08 7a2 2 0 002.32 1.71h3.36c1.9-.02 2.17-.38 1.6-2.22zm-8.05-20.32a.82.82 0 01-.88.9c-.7 0-1-.13-.94-.9.07-1.28 0-2.55 0-3.83v-3.95c0-.34-.1-.78.46-.77s1-.12 1.25.44a1.08 1.08 0 01.11.47c.09 2.55.14 5.1 0 7.64z" fill="#c04f47"/><path d="M66.78 98.26a34.43 34.43 0 010-4.31c.1-2.43-.48-4.45-3.28-5.48A5.19 5.19 0 0066.76 83a17.47 17.47 0 010-2.4c.4-4.7-3.3-6.91-6.75-7h-7.43c-.94 0-1.27.34-1.27 1.27v29c0 .91.31 1.31 1.25 1.3h7.43c3.84-.06 7.14-2.47 6.79-6.91zm-6.42 1.12c-.08 1.24-1.32.83-2.14.88s-.55-.71-.56-1.12v-3.46-3.47c0-.42-.34-1.15.6-1.09s2-.39 2.13.87a55.23 55.23 0 01-.03 7.39zm0-14.11c-.11 1.14-1.3.74-2.08.8s-.59-.61-.61-1v-2.88-2.51c0-.39-.32-1.1.52-1.05s2.06-.47 2.19.78a30.19 30.19 0 01-.03 5.86z" fill="#4c6d83" opacity=".24"/><path d="M63.78 96.26a34.43 34.43 0 010-4.31c.1-2.43-.48-4.45-3.28-5.48A5.19 5.19 0 0063.76 81a17.47 17.47 0 010-2.4c.4-4.7-3.3-6.91-6.75-7h-7.43c-.94 0-1.27.34-1.27 1.27v29c0 .91.31 1.31 1.25 1.3h7.43c3.84-.06 7.14-2.47 6.79-6.91zm-6.42 1.12c-.08 1.24-1.32.83-2.14.88s-.55-.71-.56-1.12v-3.46-3.47c0-.42-.34-1.15.6-1.09s2-.39 2.13.87a55.23 55.23 0 01-.03 7.39zm0-14.11c-.11 1.14-1.3.74-2.08.8s-.59-.61-.61-1v-2.88-2.51c0-.39-.32-1.1.52-1.05s2.06-.47 2.19.78a30.19 30.19 0 01-.03 5.86z" fill="#c04f47"/><path d="M130.72 104.06c-1.45-3.74-2.9-7.49-4.38-11.23-.28-.71-.35-1.14.47-1.61a5.23 5.23 0 002.73-5V79.5a5.09 5.09 0 00-1.36-3.6 7 7 0 00-5.33-2.29h-7.44c-.9 0-1.27.27-1.27 1.24v29.14c0 .92.37 1.2 1.2 1.19h3.72c1 0 1.39-.34 1.37-1.39-.05-3.1 0-6.2 0-9.31h.22c.08.18.17.35.24.54 1.16 3 2.34 6.09 3.45 9.16a1.72 1.72 0 001.93 1.37c1.16-.08 2.32 0 3.48 0 1.51-.03 1.53-.05.97-1.49zm-7.53-17.48c-.07 1.12-1.21.9-2 .93s-.76-.6-.76-1.14v-3.48-3.23c0-.48-.21-1.12.67-1.06s2-.33 2.09.79a52.28 52.28 0 010 7.19z" fill="#4c6d83" opacity=".24"/><path d="M127.72 102.06c-1.45-3.74-2.9-7.49-4.38-11.23-.28-.71-.35-1.14.47-1.61a5.23 5.23 0 002.73-5c-.05-2.24 0-4.48 0-6.72a5.09 5.09 0 00-1.36-3.6 7 7 0 00-5.33-2.29h-7.44c-.9 0-1.27.27-1.27 1.24v29.14c0 .92.37 1.2 1.2 1.19h3.72c1 0 1.39-.34 1.37-1.39-.05-3.1 0-6.2 0-9.31h.22c.08.18.17.35.24.54 1.16 3 2.34 6.09 3.45 9.16a1.72 1.72 0 001.93 1.37c1.16-.08 2.32 0 3.48 0 1.51-.03 1.53-.05.97-1.49zm-7.53-17.48c-.07 1.12-1.21.9-2 .93s-.76-.6-.76-1.14v-3.48-3.23c0-.48-.21-1.12.67-1.06s2-.33 2.09.79a52.28 52.28 0 010 7.19z" fill="#c04f47"/></g></svg>