<svg xmlns="http://www.w3.org/2000/svg" viewBox="0 0 178.88 70.54"><g fill="#447cbf" data-name="Layer 2"><path d="M118.65 24.63c0 2.37.29 4.85-.83 6.73 0 .72-.57 2 .32 2.38a4 4 0 003.2 0 23.36 23.36 0 008.24-.73 3.71 3.71 0 001.6-2.68 8.1 8.1 0 00-1.84-6.81c-1.06-.67-2.72-1.22-3.73-.12A5 5 0 00124 28c.08.72.77.91 1.17 1.35.57 0 1.54.36 1.87-.56.32-.42-.35-.89.12-1.32a1.16 1.16 0 011.13.48 3.94 3.94 0 010 1.87c-.42 2.06-2.43 1.71-3.81 1.83-1-.23-2.15.38-2.85-.71a1.2 1.2 0 01.26-1.44 31.41 31.41 0 00-.54-10.32 6 6 0 00-.33-4.89 3.2 3.2 0 00-2.42-.42 3 3 0 00-2 1.83 3.68 3.68 0 00.51 2.47c1.89 1.23 1.04 4.3 1.54 6.46zm8-.95v-.17a2.44 2.44 0 012.51.73l.54.71c-.7-.87-1.89-1.75-3.09-1.27zm-5.84-8.46v.17c-.21-.31-.5-.79-.88-.82h-.53a1.05 1.05 0 011.37.65zM167.58 24.18c-2.05-2.91-5.56-4-6.43-7.61a3.36 3.36 0 011.57-2.09 1.43 1.43 0 011.85.56c.42.61-.25 1-.58 1.21 0 .95-.38 2.06.23 2.84.4 1.12 1.43 1.2 2.33 1.06 1.63-1.53 1.13-4.64.67-6.8a5.14 5.14 0 00-2-1.94c-1.35.17-3.29-.46-4.31 1.09-1.94 2.41-2.33 6.25-1.32 9.56a6.52 6.52 0 003.75 3.39 6.38 6.38 0 012.18 5.11c-.27.74-.51 2-1.45 2-1.47.07-3.38.3-4.36-1.19.87.05 1.41-.7 2.16-.79a2.11 2.11 0 00.72-2.22c-.27-.76-.7-1.55-1.46-1.65-1.47 0-3 0-3.67 1.6-.44-1.16-.41-2.66-1.37-3.52a3.4 3.4 0 00-3-.7c-1.37.57-3.61.59-3.67 3 .4.44 1.2.44 1.25 1.25-.16.83-1.11.74-1.69.64-1.31-.52-.92-2.41-1.47-3.51 0-.82-1.37-1.39-.38-2.16 1-.42 1.91.3 2.78.81a2.4 2.4 0 002.31-.7c.22-1.65-.95-2.82-1.33-4.3-1.19-1-1.58 1.08-2.54 1.45-1.87-.22-.94-2.76-1.34-4.39.1-1 1-.78 1.59-.85 1.06-.11 1.89 1.26 2.4 2.14.7.39 1 0 1.18-.5l.1-.45v.23c.08-.19.15-.4.24-.57a5 5 0 00-.82-3.22c-.44-.53-1.12-.31-1.65-.48l-3.85.07c-1-.22-2.2-.76-3.26-.16-.44.5-1.06.88-.94 1.69-.13 1.23 1 .76 1.54 1.15a2.86 2.86 0 01.73 1.78 35.66 35.66 0 00.69 10 .6.6 0 01-.7.36 3.23 3.23 0 00-1.68 2.81c.06 1.62 1.43.19 2.14.7 1.25.75 2.66.81 4 1.2 2.77 0 6.71 2.52 8.68-1.06.32.84.63 1.65 1 2.44 2.48 3.55 6.95.91 10.35 1.1.45-.12.57-.76.85-1.14.01-3.26-.22-6.83-2.02-9.24zm-2.53-5.27c-.4-.34-.17-1-.08-1.4 0 .22-.36.92.08 1.31.27.13.49.48.81.37-.22.15-.58-.06-.81-.28zm-.54-7.08a2.9 2.9 0 011.79 1.33c-.31 0-.38-.52-.69-.68a5.31 5.31 0 00-1.1-.65 3 3 0 00-.42 0 1.14 1.14 0 01.42 0zm-3.75 4.28l.18-.44a4.73 4.73 0 00-.22 1.12c0-.23.03-.46.04-.68zm0 1.53a3.25 3.25 0 00.08.43 2.76 2.76 0 01.5 1 2.49 2.49 0 01-.56-1.43zM162 28.25l-.28-.31c.38.12.5.75.33 1.17-.11.1-.17.33-.32.33a1.57 1.57 0 00.27-1.19zm-11.82-1.47v-.87.31zm1.27-4.52a1.12 1.12 0 01-.21 1c-.2 0-.41.11-.54-.07.36-.01.68-.56.72-.93zm.21-8.66h.11v.45h-.11zm-7.66-.76v-.16c1 0 1.87.68 2.91.53-1.18.35-2.06-.42-2.91-.37zm10.31 11.67c-.28.09-.49.63-.76.14.18-.17.49-.14.76-.14zm.6 7.38c.5-.21 1.11-.11 1.54-.4a2.6 2.6 0 01-1.59.4zm7 1.1a12.38 12.38 0 01-1.34-.31 13.58 13.58 0 011.34.31 3.34 3.34 0 001.22 0 2.52 2.52 0 01-1.3.01zm7-3.76v.43a13.31 13.31 0 00-1.67-4.61c.97.95 1.11 2.75 1.6 4.18zm0 3.62a2.41 2.41 0 01-.16.54c-.37.2-.66.54-1.07.6a2.77 2.77 0 001.23-1.14 3.43 3.43 0 00.08-.56v.41zm.11-1.44v-.55zm.1.3l-.12-2.3.12 2.3z"/><path d="M132.3 26.89c-.39 4-.73 9.2 2.51 11.54a4.74 4.74 0 005.71-.6c.54.92 1.48 1.05 2.35 1.28 1.68-1.23 3.77.3 5.32-1.27a4.24 4.24 0 00.58-2.62c-.34-.94-.82-1.92-1.74-2.09-1.11-.22-2.68-.41-3.42.82a1.6 1.6 0 00.34 1.52c-.31.56-.68-.1-1-.18a93 93 0 01-1-13.34c-.05-1.14 1.17-1 1.45-1.94a1.32 1.32 0 00-.37-1.39c-1.79-.77-4.46-1-6.19.18-.2.5-.58 1.08-.24 1.66 1.41.88 1.92 2.67 2.31 4.39.1 4 1.85 9.17-1.39 11.83-.26.15-.72.67-1 0-1.69-4.09-1.13-9.2-1.49-13.86a9.27 9.27 0 00.76-2.9c-.17-1.09-1.2-1-1.88-1.09-1.82.09-4.24-.5-5.47 1.38a1.78 1.78 0 00.61 1.58c1.8.73 2.95 2.93 3.25 5.1zm15.16 7.65c-.43-.48-1-.31-1.5-.72a1.76 1.76 0 011.5.72zm-3.38-.41c.15 0 .06.41.12.64-.06-.23-.37-.4-.12-.64zM142.18 19l-.12-.13c.19 0 .27.21.4.35a.77.77 0 01-.41 1h-.19a1 1 0 00.32-1.22zm-.77 2.78l.14 2.59h.08l.28 5.26h-.08V30h-.11l-.42-8.26zm-1.56 10a4.83 4.83 0 01-.29 3.07 6.54 6.54 0 00.29-3.14zm-4.76-11.68a1.12 1.12 0 00-.29-.52.61.61 0 01.29.52zm0 0a2.56 2.56 0 01.07.62c-.16-.05-.3.23-.38 0a1 1 0 00.32-.6zm-.46 2.59c0 .4-.08.81-.1 1.23l.06 1.1h-.08v-.82 1.55l.16 4.48c-.08-1.49-.16-3-.17-4.47l-.07-2.17zM94.68 29.84c0 3.68 3.86 6.93 1.27 10.43-.24 1.1.7 1.82 1 2.44h-.07a2.6 2.6 0 00.31.25 6 6 0 001.71.47h.1a2.53 2.53 0 002.55-1.73c0-.22.22 0 .37.07a.5.5 0 01.46 0 9.06 9.06 0 003.38 1.23h2c.4 0 .76.16 1.16.2a3.58 3.58 0 00.92-.13 1.15 1.15 0 01.37 0c2.09-.26 4.54-.59 6-2.76a1.35 1.35 0 00-.19.33 6.5 6.5 0 01.52-.71c2.06-3.4 2.08-8.63.61-12.5a9.15 9.15 0 00-5.39-3.43 7 7 0 001.41-6.16 8.07 8.07 0 00-8.43-4.69c.11-.15-.28-.3-.49-.21a.28.28 0 00-.1.24c-.41-.57-1.16-.17-1.73-.23-.17.29-.35.38-.56.12-2 0-3.86.34-5.78.54a.24.24 0 010-.08 2.51 2.51 0 00-.61 0h-.32a2.84 2.84 0 00-1.64 1.2 2.77 2.77 0 00-.5 1.81c.3.34.13 1.37.57 1.76 2.79 2.98 1.27 8 1.1 11.54zm9.48 8.77c-.5-.2-.11-.68-.14-1.08l.25-.33c-.09.45-.6.98-.11 1.41zM116.57 30l-.1.15a5.82 5.82 0 00-1.63-3.77 4.62 4.62 0 011.73 3.62zm-4.07-11.54a4.89 4.89 0 01-.29 1.56H112a4.22 4.22 0 00-.36-3.24 3.39 3.39 0 01.86 1.68zm-.71 10.69c.91 2.34 1.24 5.61-.05 7.79-1.45 2.15-3.58 2-5.74 2.11a2.25 2.25 0 01-1-1.22c0-.68 0-1.55.47-1.8 0 .55.46.8.77 1a2.36 2.36 0 002.5-1.23 5.49 5.49 0 00-.75-4.1c-1.18-1.7-3.07-1.29-4.73-1.07-1.17.79-2.84 2.19-2.86 4.06l.22 2.71c-1.22-1.67-1.43-4.06-1.32-6.36.39-1.11.51-2.61 1.54-3.16 3-1.11 7.12-2 10 0zm-4.92 3.32a1.89 1.89 0 00-1.25-.57 1.36 1.36 0 011.71.87 2 2 0 01-.21 1.73H107a2.26 2.26 0 00-.13-2.03zM103 25.18c1.41 0 2.57-1.09 4-1.43-1.29.47-2.82 1.59-4 1.43zm8.13 1.44c.35.16.3.62.5.92a4.85 4.85 0 00-2-1.3 1.72 1.72 0 011.48.38zm-7.28-13.39a8.5 8.5 0 013.23.61 15.35 15.35 0 00-3.23-.61 16.56 16.56 0 00-1.73.09 8.33 8.33 0 011.71-.09zm4 5.25l.31.66a4 4 0 01-1 3.64c-2.3 1.22-4.89 1.62-7.45 2.22.13-2.6-1.24-5.38-.43-8.07 2.72-.93 6.5-1.44 8.55 1.55zm-9.09-1.7a.61.61 0 01.6-.36 2.51 2.51 0 00-.63 1.67c-.43-.33-.12-.91.01-1.31zM97 41c-.12.6.36 1 .72 1.25l.27.12c.12.14-.81-.18-1-.71h-.08v-.63zm-2.46-25.76a1 1 0 01.63-.39.86.86 0 01.28-.11.5.5 0 01-.28.11 3.08 3.08 0 00-1 1.18h.09v.31h-.07c-.1-.26.14-.78.35-1.1zM81.78 41C81 40.65 80 39.86 79 40.62a.84.84 0 00.11.9 4 4 0 011.53 2.8c-.27 1.72-.13 4 1.52 4.66a2.79 2.79 0 002.4-.44c0 .45.55 1.21.59 1.66a1.85 1.85 0 01-.8 1.8c-.38.21-.94.21-.92-.2a.72.72 0 00.59-1c-.2-.82-2.83-.64-3 .64-.14.86.78 1.48 1.24 1.84a1.43 1.43 0 001.54.3 5.91 5.91 0 001.45-.92 3.25 3.25 0 00.94-3.13 8.94 8.94 0 00-.34-2 3 3 0 00-.29-.67 21.67 21.67 0 01-.4-3.4c0-.37.48-.19.59-.46a.45.45 0 00-.17-.48c-.76-.47-1.81-1.14-2.56-1-.09.17-.28.34-.15.64a4.28 4.28 0 011 2c.07 1.44.94 3-.47 4.06-.11.07-.31.27-.45.07-.91-1.36-.76-3.37-.81-5.37.14-.37.41-.62.42-1.09s-.5-.66-.78-.83zm.46 9.89c-.18-.36.62-.39.83-.36s.8.28.64.6a.69.69 0 00-.49-.49c-.22-.09-1.05-.22-.98.23zm3-8.32l-.06-.06c.08 0 .12.11.17.17 0 .15 0 .23-.16.23h-.08c.15-.05.2-.19.13-.36zm-.19 1.67c.06.68.09 1 .16 1.66-.07-.65-.1-1-.17-1.66zm-.11-.85c0 .34 0 .51.08.85 0-.34-.05-.51-.08-.86zm0 0c.09 1.1.16 1.61.25 2.62s0-.08 0-.13a.57.57 0 010 .13c-.1-1-.17-1.52-.26-2.62zm-3.07.73c0 .75 0 1.11.09 1.82a13.78 13.78 0 01-.14-1.86zm.07-.77a3.07 3.07 0 01.07-.42l-.1.25v.91c0 .75 0 1.11.08 1.82a15.73 15.73 0 01-.08-1.82v-.91c0-.14.07-.2.11-.34a.28.28 0 000 .09v-.08a2.89 2.89 0 00-.13.46zm.14-1.35a.31.31 0 00.16-.22 1.74 1.74 0 00-.11-.27 1.51 1.51 0 01.11.26.27.27 0 01-.16.21c0 .07 0 .07.09.06s-.07.03-.09-.04zM30 33.73c1.19 1.32 2.47 2.55 2.64 4.66a2.18 2.18 0 01-1.89 2.33c-1.29.15-2.67.45-3.67-.59 1-.52 2.1-1.08 2.45-2.22a2.65 2.65 0 00-1.87-2.77 3.09 3.09 0 00-3 1.72c-.67 2.18.8 4.48 2.08 6 2.8 2.33 6-.89 9.25-1l1.01-.93c.65-2.27-1-4.45-1.52-6.66-1.47-4.05-6.27-5.19-9.39-8a2.52 2.52 0 01.17-3.56l.11-.09a1.51 1.51 0 011.9-.05c.67.59 0 1.1-.25 1.62.36 1.61.59 3.18 2.27 3.54A1.54 1.54 0 0032 26.58c-.12-2.45-.29-5.54-2.53-7-1.12-1.2-3.05-.29-4.38.19-2.86 2.92-1.93 7.38-.25 10.92.99 1.72 3.27 2.62 5.16 3.04z"/><path d="M18.13 55.36c3.92-1.16 6.55-5 7-8.91.86-9-3.39-16.45-9.65-22.19.14-.08.69-.34.46-.88-.72-.87-2.09-.12-2.82-.28.6-.15 1.2-.29 1.81-.38-4.36.5-9.18 2.42-11.06 6.52-1.14 2.56-2.5 4.65-2.87 7.48-.2 1.77-.84 3.42-1 5.19a19.09 19.09 0 00.16 4c.08.57.28 1.18.43 1.8a1.16 1.16 0 010-.18c.99 2.47 2.23 5.21 4.92 6.77a20.62 20.62 0 0012.62 1.06zm6-12.5c-.28 2.78-.31 6-2.45 8a19.39 19.39 0 002.48-8zM19 29.8a55.32 55.32 0 00-4.17-4.63c1.98.97 3 2.97 4.17 4.63zM6.54 39.41l-.07-1h.13l.08 1zm6.34 13.12c-6.6-4.66-6-14.91-4.3-21.77.84-2.05 2.43-4.5 4.58-5.46a32.84 32.84 0 016.24 9.08c.27 6 2.93 13.38-2.39 17.69a8.07 8.07 0 01-4.13.46zM164.56 46.39a4.22 4.22 0 01.1.62 1.55 1.55 0 00-.1-.62zM73.39 34.79c1.08.3 2 1.44 3.23.69a2.09 2.09 0 00.48-2.35h-.35a1.61 1.61 0 000-.22 3.72 3.72 0 01-.16.59c.12-.58-.25-1-.34-1.55a.51.51 0 01.52.4 4 4 0 00-1-2.3l-1-7.12c1.09 1 2.66 1 3.48 2.25 1.47 3.39.7 8.1 4.47 10.13a3.06 3.06 0 002.63-1.89 3.94 3.94 0 00-.63-4.2 1.33 1.33 0 00-1.58-.28l-.27.45c-.68-1.15-.34-3.69-1.25-5.22 0-.9.92-2.3-.45-2.65v-.22a2.34 2.34 0 01-.11-.94c0-1 .41-1.88.36-3a12.5 12.5 0 00-1.62-4.59 4 4 0 00-3.68-1.72c-1.94-.27-3.15 1.25-4.88.9a1.74 1.74 0 00-.77 2.36c2.58 5 2.76 12.4-.12 17.28.19 1.65 3.04 3.2 3.04 3.2zm-1.78-22a.43.43 0 01.56-.16.34.34 0 01.15.14zm7.25 6.31c-.4.59-.35 2.09-1.64 1.6a1.41 1.41 0 00-1.84-.48 1.44 1.44 0 00-.37.28l-.34.45c-.26-1.49-1.28-4.32-.07-6.1a3.8 3.8 0 012.06-.06c.3.46.12 1.3.9 1.4.15 0 .42 0 .49-.2v-.29a4.74 4.74 0 01.81 3.39zM73.27 46.27a8.09 8.09 0 00-.3 1 .27.27 0 01.1.24c.08.23.1.49.49.61a3.33 3.33 0 01.74.23 2 2 0 01.26.18c.55.19 1 .77 1.64.56a.76.76 0 00.25-1h-.18a1.59 1.59 0 00-.51-1.37c-.28-.45-.43-.66-.72-1.05.6.36 1.43.37 1.87.94.77 1.57.36 3.68 2.14 5.55a1 1 0 001.33-.54 2.64 2.64 0 00-.17-2.46.71.71 0 00-.79-.35c0 .08-.08.13-.14.21-.32-.69-.11-2-.57-2.76 0-.46.53-1.13-.21-1.3v-.16a.81.81 0 01-.08-.46c0-.49.22-.9.2-1.41a3.48 3.48 0 00-.9-1.91 2.14 2.14 0 00-2.1-.1c-1.11.26-1.77 1-2.76 1.29-.49.33-.63.7-.35.87a3.33 3.33 0 011.2 2.54 5.48 5.48 0 00-.44.65zm2.87 1.92c.06-.25-.13-.46-.18-.69.45.06.25.5.18.69zm1-4.34c-.22.28-.18.91-.89.76a.89.89 0 00-1-.09.69.69 0 00-.2.13l-.18.2c-.17-.55-.79-1.44-.14-2.26a2.94 2.94 0 011.14-.31c.18.14.09.49.52.45.08 0 .24 0 .28-.14v-.1a1.47 1.47 0 01.51 1.36zM167.33 46.12a.18.18 0 01.23-.12.24.24 0 01.08.06zM64.68 51.62c.19.47.19.85.62 1.19A1.89 1.89 0 0067 53c1.63-.69.53-3.91.11-5.26-1-3.25-2.64-6.66-1-9.83.36-.71.55-1-.36-1.42-2.83-1.24-4 2.4-3.6 4.36a32.11 32.11 0 002.54 7.08 9.06 9.06 0 01-2.38-1.31c-.95-.69-.5-1.06-.95-1.92-.87-1.68-2.7-.19-2.39 1.35.11.58.84 1.58.74 2.09-.24 1.19-1.47.29-1.92-.28-.78-.93-1.24-2.08-2-3 1.08-1.31-2.26-1.59-2.62-.06v.17a4.21 4.21 0 01.12.48 1.16 1.16 0 000 .18c.19.25.6.27 1 .49a7.39 7.39 0 013 2.78c.57 1 .58 3 1.4 3.79a2.37 2.37 0 002.52-.08c1.19-1.1-.33-3.29-.08-4.69 1.45 1.08 2.87 1.93 3.55 3.7zm.7-8c-.11-.34-.2-.68-.28-1a.65.65 0 010 .13 3.56 3.56 0 01.28.87z"/><path d="M53.76 59.09a.4.4 0 01.32 0 9 9 0 002.43 0c1.53-.49 4.12.22 4.61-2.07v-.59a4.56 4.56 0 00-.46-1.12c-.37-.55-.63-1.27-1.24-1.55a2 2 0 00-1.81.14c-.66.55-1.9 1-1.51 2.3.29.17.74 0 .9.48s-.48.6-.83.64c-.82-.06-.93-1.17-1.42-1.68-.15-.47-1-.54-.59-1.14.49-.41 1.12-.16 1.69 0a1.41 1.41 0 001.15-.86c-.18-1-1-1.4-1.48-2.15-.84-.37-.69.87-1.15 1.24-1.07.2-1-1.37-1.49-2.2-.13-.6.41-.6.73-.75.57-.24 1.27.37 1.7.78.45.09.54-.17.56-.49v-.27.13a.71.71 0 010-.14.93.93 0 01-.18-.75 2.3 2.3 0 00-.81-1.11c-.34-.21-.68 0-1 0l-2.11.68c-.62.06-1.36 0-1.85.48-.15.34-.43.66-.22 1.1.15.71.7.25 1.06.38a1.79 1.79 0 01.71.85 20.73 20.73 0 002.1 5.43.35.35 0 01-.32.32 1.81 1.81 0 00-.48 1.6m3.63-5.7a.63.63 0 010 .58c-.1 0-.21.13-.31.05.25 0 .32-.37.29-.59zm-5.77-3.92v-.08c.56-.18 1.14.06 1.7-.21-.61.42-1.23.14-1.72.33zM58 54.1c.07-.12.25-.16.39-.2-.18.1-.2.43-.39.2zM25.36 45.8a1.48 1.48 0 01-.45.28c.15-.08.3-.2.45-.28zM5.36 42.3l-.18-.46.1.14.08.32zM2.46 31.81l-.06.02-.11-.24.08-.03.09.25zM32 60.4c.65 2 3.33 3.18 2.5 5.56.06.65.7.89 1 1.19l.2.08a3.86 3.86 0 001 0 1.47 1.47 0 001.1-1.38c0-.13.12 0 .21 0a.34.34 0 01.26-.05 5.22 5.22 0 002.12.05c.37-.08.75-.24 1.11-.33s.45 0 .68-.09a1.83 1.83 0 00.49-.23.68.68 0 01.2-.07c1.14-.5 2.44-1.11 2.87-2.56a1.6 1.6 0 000 .21c0-.16.11-.33.17-.48a8.91 8.91 0 00-1.82-7 5.22 5.22 0 00-3.57-1 4 4 0 00-.29-3.67 4.71 4.71 0 00-5.49-1.14c0-.1-.21-.12-.29 0a.16.16 0 000 .15c-.32-.25-.66.1-1 .16-.06.18-.14.27-.3.16-1.09.35-2.08.85-3.1 1.29a1.42 1.42 0 00-.33.11h-.18a1.66 1.66 0 00-.72 1 1.6 1.6 0 000 1.08c.23.14.32.74.62.88 2.04 1.03 2.07 4.09 2.56 6.08zm6.76 3.23c-.26-.05-.15-.35-.23-.55l.08-.23c.03.26-.13.62.17.78zM42.5 55a2.68 2.68 0 011.69 1.75v.1A3.17 3.17 0 0042.5 55h-.15zM40 51.06a3.48 3.48 0 01.1.91L40 52a2.53 2.53 0 00-.77-1.73 2 2 0 01.77.79zm1.47 6a5.62 5.62 0 011.29 4.32c-.42 1.45-1.63 1.75-2.82 2.16a1.27 1.27 0 01-.74-.5c-.12-.38-.28-.86 0-1.08.06.3.4.38.59.39a1.35 1.35 0 001.18-1.11 3.16 3.16 0 00-1.12-2.13c-.94-.73-1.92-.19-2.8.22a3.21 3.21 0 00-.89 2.74l.59 1.46a5.73 5.73 0 01-1.82-3.27c0-.69-.17-1.54.3-2 1.46-1.13 3.6-2.32 5.52-1.71zm-2.18 2.68a1.08 1.08 0 00-.79-.09.78.78 0 011.09.2 1.19 1.19 0 01.18 1h-.08a1.36 1.36 0 00-.45-1.07zm-3.4-3.36c.77-.23 1.23-1.05 1.93-1.48-.63.51-1.29 1.4-1.98 1.52zm4.74-.62c.22 0 .27.29.44.42a2.87 2.87 0 00-1.34-.37 1 1 0 01.9 0zm-4.44-6.37a9.29 9.29 0 00-1.89.22 4.84 4.84 0 011.84-.18zm1.22 2.44l.29.32a2.31 2.31 0 01.08 2.18A18.75 18.75 0 0134 56.9c-.37-1.46-1.61-2.77-1.62-4.39 1.32-1 3.33-1.93 4.98-.64zM32 52.5a.34.34 0 01.26-.29 1.41 1.41 0 000 1c-.26-.1-.26-.47-.26-.71zm3.18 13.7a.74.74 0 00.6.56h.18c.07.07-.5 0-.66-.22zm-5.74-13.83a.68.68 0 01.26-.32l.14-.11a.69.69 0 01-.13.11 1.71 1.71 0 00-.31.82v.18c-.07-.13-.02-.46.04-.68zM157.84 47.67l-.49-.14c.24-.3-.23.72.13.62C145.08 49.7 137 48.94 130 50l-.47-.21c-1.83.88-4.21.62-6.09 1.17l-.34-.23c0-1.68 2.54-1.21 3.67-2-.55.14-2.7 1-3.36-.07l.11-.12a95.19 95.19 0 00-12.9 2.74l.53.2-.18.14c-.65.26-1.14-.06-1.68-.32-.67.21-3 .08-3.58.4l-2.58.72c0 .12.11.32-.07.41-1-.24-1.88.67-2.83.52 0-.11.1-.19.16-.24-.46-.5-2.27.49-1.48-.62 0-.12-1.45.43-2 0-2 1.13-3.74 2.45-5.84 3v-.27c-1.45.94-5.82.48-7.27 1.36-1.27 0-2.12 2-3.35.77a23.16 23.16 0 01-5.14 1.14 11.72 11.72 0 01-3.66 1.77c-10.5 2-18.18 6.35-28.19 9.16a5.18 5.18 0 01-2.11 1.09c2.27-.45 4.78-1.14 7-.19l-.35-.23c.62-1 2-.29 2.81-.68v.26c.75-.49 2.54.42 2.93-.7a3.93 3.93 0 011.64 0c4.75-2.15 7.72-4.88 12.77-6.62 1.53-1.68 4.57-1.17 6.49-2.28l.63.41c2.34-1.23 5.42-1.8 8-2.35v.23c3.1-.46 7.49-2.74 10.39-2.22l-.56.48c.72-.28 1.16.16 1.75.3a.37.37 0 01-.18.14l2.26-.06c.17-.52.69-.43 1.21-.34 1.47-.33 3.87 1 4.52-1.06.73-.6 1.27.49 2.14 0l-.52-.2c2.68-1 8.08-1.45 10.77-2.07l.2.53c.9.53 3.68-1.34 4.59-1.08-.54.19-2.91 1.56-3.56 1.59-.88.47-1.44.49-1.17 1.5 1.23-.62 4.43-1.38 5.67-1.9 9.83-1.44 16-2.57 25.46-3.48 9.63-.05 1.13-.85 2.57-.31-1.33 1.6-2.54 2.43-1.62.45 9.66-.28 12.52-.68 16.49-1.3 5.43-.78 9.41-1.4 14-2 1-.61.06.18 1.16 0l-8.8-.29c-10.42 1.96-1.95-.35-12.2.63zm-10 1.66c.67-.13 1.33-.55 2-.27a2.46 2.46 0 01-1.96.27zM53.79 32.64a5.84 5.84 0 00-.95-2.29 1.6 1.6 0 00-1.61-.35 3.21 3.21 0 00-.23 4c.1.27.53.45.24.83-3-3.15-.86-9.43-3.89-12.71A1.94 1.94 0 0044.6 22l-.11.1-.65.54a45.94 45.94 0 016-9.35 1.71 1.71 0 00-1.22-1.91c-.35 0-.79 0-1 .45-1.29.09-2.63-.34-3.78.27-2.2 1.52 1.17 2.71.26 4.23l-3.05 6.14c-.22-2.53-1.25-6 1.08-8.15a1.78 1.78 0 00-1.38-2.05c-1.81-.15-3.84-.35-5.46.62-.73.57-.26 1.49-.25 2.23 2.8 2.52 2.19 7.35 2.38 10.81-.43 3.89 1.9 7.32.95 11-.33.25-.61.29-.79.66-.29 1.24.93 1.81 1.78 2.33 2.18-.38 4.94-.12 6.18-1.9.27-2.66-3.25-2.69-3.53-5.08-.61-2.27-1.4-5.38-.53-7.62 4.62-.51 2 5.47 3.52 8.28.62 2.21 1.92 4.83 4.54 5.18l1.33-.15a4.22 4.22 0 011.41-.77l.29-.1a5.54 5.54 0 01.79-.95 7.41 7.41 0 00.47-1.81 5.88 5.88 0 01-.04-2.36zm-10.54 3.22l.51.16h-.49zm2.29-13.4c1-1 1.52.68 2 1.2-.22-.12-1.15-1.37-2-1.2zM44.27 0l.39.32-.6-.31.21-.01z"/><path d="M52.51 26.39c.05-.11.11-.22.15-.33a5.6 5.6 0 00.39-.49l.25-.28.64-.53a4.71 4.71 0 001.12-.76c.13 1.15 2.38 1.68 1.91 3.29-.47.75-.25 2.28-1.59 2.23l-.19-.13c-.14.44.24.63.49.9.82.15 1.16-.61 1.24-1.3.8-6.34-1.09-12.54 0-18.6A5.6 5.6 0 0161.43 7a3.47 3.47 0 013.45 1.9c.84 1.93 0 3.93 1.38 5.63.81 2.25-.44 4.93.28 7v.71c-.35 2.23-.68 4.91 1.23 6.42a5 5 0 01-.24-3.18c.26-.38.34-.75.79-1.07l2.18 1.13c1 1.3.43 3.31-.12 4.7a3.07 3.07 0 01-3.72 1.11c-2.75-1.85-2.21-5.48-3.1-8 0 0-4 2.07-3.39.8-.61 3.86 2 10-3.35 11.47a4.28 4.28 0 01-4.2-2.52c-.47-2-1-4.66 0-6.72zM62 9.86a2.42 2.42 0 00-2 1.36c-1.6 3.31.09 6.53-.57 10 1.11-.52 1.91.43 3.57.14l1.37-1.66v-2.48a15.92 15.92 0 01-1-3.18c0-.81.16-1.31.12-1.94S62 9.86 62 9.86zm-3.23-.33c-.52.24-.6 1-.93 1.5zm-4.25 16.9c-.06-.19-.44-.2-.57 0zM75.36 51.2v-.06c-.22-.51-.31-1.13-.77-1.46a1.64 1.64 0 00-1.49-.19c-.63.35-1.7.47-1.61 1.62.21.2.6.16.66.55s-.49.4-.78.38c-.66-.18-.56-1.1-.88-1.61 0-.4-.72-.59-.29-1 .46-.25.93 0 1.37.25a1.15 1.15 0 001.08-.44c0-.82-.59-1.29-.86-2-.61-.43-.69.6-1.13.83-.91 0-.6-1.28-.86-2 0-.51.43-.42.71-.49.51-.1 1 .51 1.26.9.36.15.46 0 .55-.3v-.22.11c0-.1 0-.2.08-.28a2.43 2.43 0 00-.55-1.51c-.24-.23-.55-.09-.81-.14l-1.84.21c-.51 0-1.1-.25-1.58.09-.19.25-.47.46-.37.86 0 .6.53.32.8.48a1.43 1.43 0 01.45.81 16.87 16.87 0 00.82 4.77.29.29 0 01-.32.2 1.54 1.54 0 00-.64 1.44c.1.76.69 0 1 .22a8 8 0 002 .37c1.06-.12 2.56.5 3.51-.18a2 2 0 00.43-1 3.93 3.93 0 00.06-1.21zm-3.12-2.48a.49.49 0 01-.06.47c-.09 0-.18.08-.26 0 .19-.01.31-.29.32-.47zm-4.07-4.15v-.07c.49 0 .92.23 1.42.12-.52.21-.98-.12-1.42-.05zm5.18 5.19a.57.57 0 01.36-.11c-.13.06-.2.35-.36.11zM168.1 46.68l.02.27-.04-.41.02.14zM165.28 45.827l.049-.008.035.218-.05.008zM171.3 48.84a1.39 1.39 0 01-.55.19 5.1 5.1 0 01.55-.19zM50.47 55c-.06.1-.09.15-.14.25-.51-.91.07-2.59-.73-3.48a1.69 1.69 0 00-1.53-1.43v-.11c-.14-.16.1-.43.07-.62-.14-.55 0-1.06-.2-1.6a4.64 4.64 0 00-1.67-1.88 4.43 4.43 0 00-2.74-.36c-1.39 0-2.08.65-3.14.48-.49.21-.3 1.48.13 1.87 2.35 2.26 3.8 3.7 1.93 5.93a.38.38 0 01.14.28c.11.26.16.57.54.7a1.93 1.93 0 01.75.32 2 2 0 01.29.29c.61.37 1.19 1.45 2 1.44.4-.18.53-.74.29-1.34l-.24-.12a2.17 2.17 0 00-.67-1.77 4.61 4.61 0 00-1.1-2.62c.84.48 2.23 0 2.88.63 1.28 1.75.6 4.86 2.84 8.16.78.37 1.5-.08 1.83-1a4.06 4.06 0 00-.37-3.77m-5.53.45c0-.29-.19-.62-.26-.89.48.19.3.66.22.87zm-.44-5.62a1.27 1.27 0 00-1.26-.17.66.66 0 00-.21.15l-.15.22c-.39-.69-1.61-2-1.08-2.79a4.26 4.26 0 011.41-.13c.28.18.29.58.85.57.1 0 .29 0 .31-.14v-.13a2 2 0 011 1.52c-.24.31 0 1.05-.91.88zM14.57 26.82a.22.22 0 01.24-.19.16.16 0 01.11.05zM25.85 36.34z"/><path d="M64.4 13.83a1.78 1.78 0 01-1.48.82 3.23 3.23 0 01-1.35-3.06c.4-.33 1.3-1.25 1.88-1.09"/></g></svg>