<svg xmlns="http://www.w3.org/2000/svg" viewBox="0 0 174.79 69.5"><path d="M43.19 54.59h9.62a3.73 3.73 0 013.72 3.72v1.25a2.45 2.45 0 01-.6 1.74.74.74 0 000 1.05 2.31 2.31 0 01.74 1.8v1.59A3.72 3.72 0 0153 69.47h-9.81a.75.75 0 01-.75-.74V55.34a.76.76 0 01.75-.75zm9.11 5.95a1.16 1.16 0 001.16-1.17v-.85a1.16 1.16 0 00-1.16-1.16h-6a.74.74 0 00-.74.74v1.7a.74.74 0 00.74.74zm.17 6.18a1.18 1.18 0 001.17-1.17v-1.19a1.17 1.17 0 00-1.17-1.17h-6.22a.74.74 0 00-.74.74v2a.73.73 0 00.73.75h6.23zM73 69.48h-1.7a.74.74 0 01-.67-.43l-2.06-4.39a.76.76 0 00-.68-.43h-4.58a.74.74 0 00-.74.74v3.77a.74.74 0 01-.74.74h-1.58a.74.74 0 01-.74-.74v-13.4a.75.75 0 01.74-.75h9.69a3.73 3.73 0 013.72 3.73v2.85a2.63 2.63 0 01-1.33 2.66.75.75 0 00-.38 1l1.69 3.57a.75.75 0 01-.32 1 .69.69 0 01-.37.08zm-3.53-8a1.16 1.16 0 001.17-1.16v-1.78a1.17 1.17 0 00-1.17-1.17h-6.16a.74.74 0 00-.74.74v2.66a.74.74 0 00.74.74h6.11zm8-6.91h11.84a.76.76 0 01.75.75v1.31a.75.75 0 01-.75.75h-8.79a.74.74 0 00-.74.74v1.6a.74.74 0 00.74.74H88a.74.74 0 01.74.74v1.27a.74.74 0 01-.74.74h-7.48a.75.75 0 00-.74.75v1.93a.74.74 0 00.74.74h8.79a.76.76 0 01.75.75v1.32a.75.75 0 01-.75.74H77.47a.74.74 0 01-.75-.74V55.34a.75.75 0 01.75-.75zm39 11.16v-.38a.75.75 0 01.74-.75h1.51a.75.75 0 01.74.75v.16a1.17 1.17 0 001.17 1.17h5.8a1.17 1.17 0 001.17-1.17v-1c0-.48-.17-.6-.73-.72l-7.24-.85h-.08c-1.85-.41-3-1.16-3-3.06v-1.56a3.72 3.72 0 013.72-3.72h6.43a3.73 3.73 0 013.72 3.72v.22a.74.74 0 01-.74.74h-1.49a.74.74 0 01-.74-.74 1.17 1.17 0 00-1.17-1.17h-5.52a1.17 1.17 0 00-1.17 1.17v.87c0 .47.17.59.72.72l7.24.84h.08c1.85.41 3 1.16 3 3v1.73a3.72 3.72 0 01-3.63 3.77h-6.73a3.71 3.71 0 01-3.72-3.72zm-5-10.58L109.41 64a.74.74 0 01-1.43.06l-2.88-9a.73.73 0 00-.71-.52h-1.51a.74.74 0 00-.7.52l-2.9 9a.73.73 0 01-.93.47.75.75 0 01-.49-.52l-2.12-8.87a.76.76 0 00-.72-.58h-1.65a.75.75 0 00-.75.74.76.76 0 000 .21L96 68.93a.75.75 0 00.72.57h3.36a.76.76 0 00.71-.53l2.12-6.87a.75.75 0 011.43 0l2.12 6.9a.76.76 0 00.71.53h3.21a.75.75 0 00.73-.57l3.37-13.41a.73.73 0 00-.51-.92.76.76 0 00-.21 0h-1.52a.74.74 0 00-.72.6zm-76.78 5.12c-.52 0-19.43.51-34.15.91a.53.53 0 000 1c14.73.47 33.62 1.12 34.14 1.13a1.55 1.55 0 10.17-3.09.48.48 0 00-.17 0zm104.18 3.2l34.13-.55a.54.54 0 00.48-.58.53.53 0 00-.48-.47c-14.72-.65-33.61-1.48-34.13-1.49a1.55 1.55 0 000 3.09zm33.47-22.54c-1.19 1.62-6.49 5.87-14.93 5.7h-.88a16 16 0 01-7.53-1.69 12.84 12.84 0 01-2.56-1.77c-1.79 1.32-5.22 3.54-8 3.54a4.39 4.39 0 01-3.69-1.79c-1.53-2.2-1.24-6.17.86-11.78.32-.83.61-1.54.87-2.17.6-1.43 1-2.36.74-2.85a1 1 0 00-.68-.48c-.69-.2-2 .05-3.8 1.38a19.31 19.31 0 00-5.14 6.7 11.22 11.22 0 00-1 3.09c-.13.55-.3 1.64-.47 2.79a18.77 18.77 0 01-.86 4.23 1.77 1.77 0 01-1.57.6c-1.45 0-2.31-1.3-2.54-3.76a21 21 0 01-3.06 2 15.91 15.91 0 01-7.8 2 10.34 10.34 0 01-6.89-2.37 7.83 7.83 0 01-2.66-4.75 19.85 19.85 0 01-4.32-.75 10.78 10.78 0 01-10.39 7 9.57 9.57 0 01-7-2.64 4.69 4.69 0 01-.48-.53c-.48.37-1.05.75-1.69 1.16q-4.32 2.77-6.87 2.76-4.09 0-4.16-4.09l.21-2.15a11.37 11.37 0 01-2.92 4.23A7.17 7.17 0 0158 46.62a5.22 5.22 0 01-4.47-2 7.23 7.23 0 01-.92-1.71 19.91 19.91 0 01-2.72 1.74 16 16 0 01-7.8 2 10.34 10.34 0 01-6.9-2.38q-2.85-2.37-2.85-7c0-3.41 2.44-13.93 11.51-13.93A7.06 7.06 0 0148.52 25a5.37 5.37 0 011.87 4.28 7.38 7.38 0 01-3.11 6.18q-3.12 2.37-9.44 3.67c.66 2 2.32 3 5 3A14.26 14.26 0 0052 38.55a29.31 29.31 0 011.42-7.81c.8-2.51 2.31-6.33 2.79-7.51a.4.4 0 01.51-.24l2.18.79a2 2 0 011.26 2.53c-.32 1-.74 2.25-1.25 3.67A32.35 32.35 0 0057 38.16v.48c0 2.26.8 3.4 2.38 3.39 1.25 0 2.53-.72 3.85-2.18 2.5-2.76 6.17-15.45 6.64-16.62a.42.42 0 01.53-.23l2.21.79a2 2 0 011.25 2.53c-.31 1-2.7 8.82-3.16 13.17l-.07.83c0 1.07.32 1.59 1 1.59q2-.12 5-3.19a12 12 0 01-.26-2.46v-.48a69.41 69.41 0 012.5-15.94 44.56 44.56 0 016.3-14Q89.16 0 93.93 0a3.86 3.86 0 013.36 1.49 6.2 6.2 0 011.08 3.71l-.07 1q-.3 4.13-3.75 10.09A29 29 0 0187.69 25l.76-.47a8.61 8.61 0 015-1.39c6.06 0 4.3 10.45 4 12a14.72 14.72 0 003.14.58 15 15 0 013.25-7.82q3.38-4.39 8.15-4.4a7.06 7.06 0 014.72 1.6 5.37 5.37 0 011.87 4.27 7.36 7.36 0 01-3.13 6.18c-2.07 1.58-5.22 2.8-9.42 3.67.63 2 2.3 3 5 3 3.61 0 7-1.5 10.23-4.5 4.81-4.49.27-2.12.35-2.62a48.1 48.1 0 013.14-11.46l.14-.33a.46.46 0 01.58-.26l2.21.81a2.06 2.06 0 011.32 2.48c-.2.61-.43 1.55-.56 2.1 1.17-1.47 4.75-5.31 9.7-5.31 1.93 0 3.23.47 3.88 1.46 1.22 1.85-.16 5.11-.9 6.85-2.48 5.87-3.24 9.67-2.12 10.71.53.48 1.49.39 2.85-.3s.44-.22 1-.55a7.79 7.79 0 002.34-2.16c.48-.69 1.09-1.52 1.25-1.82q.94-1.74 2-3.84c3.8-8.64 4.27-9.06 4.75-10.24a.4.4 0 01.52-.23l3.08 1.07a2.06 2.06 0 011.21 1.31 2.5 2.5 0 01-.29 1.9 2.58 2.58 0 00-.21.95 5.78 5.78 0 001.5 2.56 49.43 49.43 0 013 4.16 7.59 7.59 0 011.49 4 5.49 5.49 0 01-.76 2.95 9.89 9.89 0 005.74-4.8 3.2 3.2 0 00.21-2.48.47.47 0 01.29-.57 3.68 3.68 0 014.09 1.42 5.48 5.48 0 01-.79 5.46zM37.51 36.1q8.67-3 8.67-6.24c0-1.3-.76-1.95-2.26-1.95s-3 .87-4.33 2.61a8.71 8.71 0 00-2.08 5.58zm44.71-8.93q1.8-2.3 3-3.88c.27-.42.78-1.13 1.52-2.12s1.27-1.75 1.6-2.29.78-1.25 1.39-2.18q3.18-5.22 3.46-8.87v-.56c0-1-.37-1.59-1.11-1.59-1.34 0-2.77 1.43-4.27 4.28A47.45 47.45 0 0084.08 19a51.47 51.47 0 00-1.86 8.17zm7.27-.07a6.17 6.17 0 00-5 2.67 9.45 9.45 0 00-2.08 5.92q0 5.63 4.16 5.63c6.41 0 8.8-14.22 2.91-14.22zm16.25 8.46a18.88 18.88 0 005.69-2q2.92-1.8 2.93-3.69c0-1.26-.76-1.94-2.26-1.94s-2.94.87-4.33 2.6a8.74 8.74 0 00-2.03 5.03zm52.8 4q0-3.12-3.33-8l-4.58 9.29a7.36 7.36 0 004.16 1.88h.28q3.47-.06 3.47-3.18zM146.3 25.3h1.35a.69.69 0 00.63-.39l2.58-5.49a2.14 2.14 0 00-1-2.85l-.19-.08-2-.73a.33.33 0 00-.42.2l-1.9 8a1 1 0 00.77 1.26 1 1 0 00.18.08zm-113 1.15c-2.85 3.85-9.53 13.3-9.53 18 0 2.37 1.11 3.74 3.05 3.74s3.41-1.7 4.64-3.63a.43.43 0 01.61-.13.16.16 0 01.08.06A4 4 0 0132.6 49a7.19 7.19 0 01-6.22 4.07c-4.9 0-7.47-4.19-7.47-8.33 0-6.57 7.09-16.74 7.17-16.84l.6-.86-1 .34a19 19 0 01-7.76.61c-2.18 3.83-4.61 8.11-5.7 9.89a31.58 31.58 0 01-2.85 3.94 11 11 0 01-3.71 2.87 4.81 4.81 0 01-4.89-.62 3.28 3.28 0 01-.27-3.89.4.4 0 01.56-.12 2.73 2.73 0 002.2.42c2.66-.66 5.28-5.23 9.62-12.83l.48-.83-.36-.16a8.65 8.65 0 01-5.38-8.41c0-4.9 5-10.37 12.15-10.37a6.89 6.89 0 012 .28c4.55 1.12 2.29 8.61.38 12.21-.2.36-.95 1.67-1.9 3.44a24.63 24.63 0 0010.89-3 .41.41 0 01.57.12l1.55 2.28a2.81 2.81 0 01.01 3.24zM19.33 12.7a1.07 1.07 0 00-.95-.47 6 6 0 00-5.7 5.52 5.4 5.4 0 002.52 5l.31.19.66-1.25c2.66-5.25 3.83-7.92 3.16-8.99zM167.9 24h-.85a.17.17 0 01-.17-.18v-.39a.18.18 0 01.17-.18h3a.2.2 0 01.19.18v.39a.18.18 0 01-.18.18h-.85a.18.18 0 00-.18.17v3a.17.17 0 01-.17.18h-.62a.18.18 0 01-.17-.18v-3a.18.18 0 00-.17-.17zm3-.75h.62a.2.2 0 01.15.1l1 1.79a.18.18 0 00.24.08.19.19 0 00.07-.08l1-1.79a.18.18 0 01.15-.1h.63a.18.18 0 01.17.18v3.76a.17.17 0 01-.17.18H174a.18.18 0 01-.18-.18v-1.5a.18.18 0 00-.33-.08l-.42.8a.17.17 0 01-.16.09h-.42a.17.17 0 01-.16-.09l-.42-.8a.17.17 0 00-.24-.08.17.17 0 00-.09.16v1.49a.18.18 0 01-.18.18h-.58a.17.17 0 01-.17-.17v-3.77a.18.18 0 01.17-.18z" fill="#010101" data-name="Layer 2"/></svg>