<svg xmlns="http://www.w3.org/2000/svg" viewBox="0 0 286.31 80.23"><g data-name="Layer 2"><path d="M286 0a22.39 22.39 0 00-6.48 1.18 38.57 38.57 0 00-14.12 8.49l-.49.44a.55.55 0 01-.61.11c-.19-.1 0-.32 0-.47.28-1 .58-1.92.87-2.9a1.35 1.35 0 00-.26 0l-11.64 2.6c-.33.07-.41.25-.47.52-.41 1.77-.84 3.54-1.25 5.31-.66 2.79-1.31 5.59-2 8.4-.2-.13-.19-.3-.23-.44-1.18-3.86-2.37-7.73-3.53-11.6-.12-.37-.23-.5-.66-.4-3 .66-5.93 1.29-8.91 1.9a1 1 0 00-.78.68c-.28.69-.59 1.36-.85 2.06a.76.76 0 01-.67.51l-6.43 1.23c-.14 0-.29.12-.46 0 .64-2.14 1.29-4.29 1.94-6.47h-.35c-3.67.33-7.34.68-11 1-.42 0-.54.24-.64.58q-1 3.57-2.06 7.14c-.52 1.75-1.05 3.49-1.63 5.42-.06-.31-.08-.43-.1-.55q-.51-3.63-1-7.25c0-.27 0-.55-.46-.49-1.93.24-3.86.43-5.79.63a.61.61 0 00-.56.37q-1.09 2.53-2.22 5c-.82 1.85-1.65 3.71-2.48 5.56h-.13v-.51c.11-2.75.19-5.5.33-8.24 0-.54-.06-.65-.6-.59-3.51.41-7 .8-10.54 1.13-.66.06-.81.29-.8.89 0 .9-.08 1.79-.14 2.81a10.1 10.1 0 00-9-3.53 15.69 15.69 0 00-5.77 1.85 32.43 32.43 0 00-7.21 5.22 1.25 1.25 0 01-.11-.18 10.08 10.08 0 00-9.46-6.81c-4.84-.29-9.62.48-14.39 1.16-.3 0-.39.2-.47.45-.18.65-.38 1.29-.57 1.93-.14 0-.17 0-.18-.05a3.62 3.62 0 01-.22-.32 6.56 6.56 0 00-5.42-3.21A54.22 54.22 0 00121 22a.84.84 0 00-.64.55c-1.1 2.69-2.25 5.37-3.32 8.07-1.63 4.09-3.23 8.19-4.74 12.32-1.68 4.57-3.3 9.15-4.65 13.83a59 59 0 00-1.6 6.84c-.1.59.14.69.61.76a50.43 50.43 0 008.41.63 28.28 28.28 0 0011.86-2.36c.4-.19.76-.45 1.11.08.14.21.38.14.6.11q6.59-.88 13.18-1.74a.7.7 0 00.66-.57c.5-1.57 1-3.12 1.57-4.67s1-2.94 1.56-4.47c.21.23.37.4.52.58 2.62 3 5.25 6 7.84 9 .34.4.51.36.85 0 2.08-1.9 4.19-3.77 6.27-5.67a.6.6 0 01.87-.08 21.37 21.37 0 004.83 2.35 10.36 10.36 0 005.48.57 21.46 21.46 0 0010.3-5.2 11 11 0 003.18-4.89.62.62 0 00-.32-.85c-1.6-.93-3.19-1.88-4.78-2.83l-3.31-2 10.44-3.57c-.13 2.24-.25 4.38-.36 6.51l-.48 8.43c0 .33 0 .51.43.45 3.61-.49 7.22-.95 10.83-1.42a.62.62 0 00.55-.38c.88-1.76 1.78-3.5 2.68-5.25.75-1.45 1.51-2.9 2.32-4.48 0 .32 0 .49.06.66.16 2.81.32 5.61.46 8.42 0 .45.05.63.61.52 2.64-.5 5.29-.91 7.93-1.43.69-.14 1 0 1 .67s.33.56.78.46c3.2-.68 6.41-1.34 9.62-2l.7-.11c0 .51-.07.95-.11 1.44l.63-.17c4-1.18 8-2.37 12-3.53a1 1 0 00.78-.81c1-3.62 2.06-7.25 3.09-10.87 0-.16 0-.37.25-.5q1.32 5.76 2.62 11.45c.08.35.13.51.57.41Q250 46 255.27 44.85a.67.67 0 00.58-.59 10.36 10.36 0 01.45-1.93 1.21 1.21 0 01.22.15 11.37 11.37 0 0012.61 1.87 18.27 18.27 0 008.17-7.51 33.06 33.06 0 004.26-11 44.31 44.31 0 00.88-6.65l-13.74 2.43a18.61 18.61 0 013.94-3.62 48.32 48.32 0 0111.18-5.76.76.76 0 00.59-.72c.09-.76.25-1.51.38-2.26.5-3.07 1-6.13 1.52-9.22zM125.77 50.19a7.7 7.7 0 01-6.42 5.87c-.88.12-1.15-.17-.92-1s.47-1.6.71-2.39c1-2.78 2-5.56 3-8.35.18-.52.4-.5.8-.31a5.11 5.11 0 012.83 6.18zm5.09-16.27a7.65 7.65 0 01-1.65 3.08 18.41 18.41 0 01-4.21 3.7 4.54 4.54 0 01-.68.38c-.42.18-.9.53-1.28.18s.07-.73.17-1.08c.46-1.6 1-3.19 1.43-4.78l.26.08c.53-1.76 1.07-3.52 1.58-5.28.1-.34.26-.46.59-.43s.83 0 1.23.1a3.2 3.2 0 012.56 4.05zm3.83 10.47c-.36-.71-.64-1.28-.94-1.83-.12-.23-.12-.37.12-.53.69-.47 1.36-1 2.16-1.56-.44 1.36-.78 2.58-1.34 3.92zm20.39-10.5a15.68 15.68 0 01-2.94 4 52.13 52.13 0 01-4 3.85 4.23 4.23 0 01-1.08.74c-.22.09-.46.2-.68 0s-.05-.41 0-.61q.82-2.76 1.67-5.53l.29.09 1.66-5.59c.05-.17.06-.36.25-.45a4.1 4.1 0 013.65-.33 3 3 0 011.18 3.83zm4.24 11l-2.19-2c-.18-.16-.33-.28 0-.51.91-.74 1.79-1.51 2.78-2.35-.23 1.65-.41 3.17-.59 4.81zm17.85-2a17.28 17.28 0 01-4.38 4.44 3.16 3.16 0 01-4.61-1.3c-.1-.2-.22-.37.12-.48l8.8-3h.12a.27.27 0 01-.05.3zm6-7c-5 1.46-9.92 3-14.87 4.46a1.42 1.42 0 01-.81.15c2-5 5-9.1 10.25-11a3.69 3.69 0 014.83 1.59 12.9 12.9 0 011.48 2.91c.48 1.34.16 1.53-.89 1.84zM265.76 34a1.63 1.63 0 01-2.29-1.07 5.91 5.91 0 010-3.23 9.27 9.27 0 012.69-4.8q-.63 3.76-1.27 7.56h2.5a3.37 3.37 0 01-1.63 1.54zM100.31 65.78q-5.82-17.83-11.6-35.68c-.12-.38-.28-.49-.69-.43-3.43.54-6.86 1-10.29 1.55a.7.7 0 00-.64.52c-.58 1.51-1.22 3-1.79 4.51-.19.5-.35.5-.76.21-2.54-1.84-5.11-3.64-7.65-5.46a.64.64 0 00-1 .06Q60.53 36 55.12 40.89c-.14.13-.29.25-.56.47.61-2.62 1.17-5.09 1.75-7.62l-.76.1c-5 .77-10 1.62-15 2a98.9 98.9 0 00-20.15 3.52 36.92 36.92 0 00-10.88 4.58c-3 2-5.39 4.59-6 8.37a9.23 9.23 0 003.35 9.24 16.2 16.2 0 005.49 2.71 6.19 6.19 0 011.45.61c.25.15.61.29.55.66s-.41.36-.67.43a4.73 4.73 0 01-1.63.14 34.81 34.81 0 01-8.88-1.59c-.43-.15-.6-.12-.68.37Q1.27 71.71 0 78.51c-.08.43.06.54.46.63a47.06 47.06 0 006.36.91 50 50 0 0019.78-2.18l1.07-.37c0 .4.07.72.06 1 0 .5.1.6.63.48 4.63-1.12 9.27-2.19 13.9-3.28.81-.19 1.83-.18 2.34-.68s.55-1.52.77-2.32c.76-2.74 1.51-5.48 2.29-8.35l.32.41 6.45 8.53a.66.66 0 00.73.35q10-1.55 19.93-3.05a.61.61 0 00.61-.45c.56-1.64 1.18-3.25 1.74-4.89a.75.75 0 01.69-.57c1.78-.29 3.57-.6 5.35-.94.39-.07.52 0 .64.39.44 1.31.92 2.6 1.35 3.91.14.42.33.51.75.44q6.81-1.08 13.64-2.11c.47-.03.61-.11.45-.59zm-63.74-15.6c-.06.16-.1.34-.15.5-.61 1.64-1.24 3.27-1.84 4.92-.11.29-.21.37-.51.22-2.71-1.33-5.43-2.63-8.13-4-.88-.42-.93-1.14-.15-1.73a4.15 4.15 0 012.28-.74 52.2 52.2 0 018.29.38c.34.08.3.21.21.45zM64.14 61c-.46-.55-.88-1-1.29-1.54l-3-3.69c-.16-.19-.32-.33 0-.58q5.67-4.86 11.3-9.76l.22-.05zm20.8-3.53c-2.66.5-5.31 1-8.1 1.56l5.61-13.35c.19 0 .16.15.19.27q1.27 5.48 2.54 11c.06.15.19.39-.24.47z" fill="#010101"/><path d="M198 38.64l7.2-15.16c.5-1.05 1-2.09 1.47-3.15a.69.69 0 01.69-.45c.72-.06 1.44-.13 2.14-.25.5-.08.66 0 .73.56.68 4.95 1.39 9.89 2.09 14.83a2.58 2.58 0 00.07.34c.2-.1.18-.29.23-.44q3-9.74 5.91-19.49a.86.86 0 01.77-.72c2.1-.38 4.2-.8 6.3-1.21h.31c-.53 1.76-1 3.55-1.61 5.31-.9 2.7-1.86 5.38-2.79 8.07l-6.31 18.33c-.37 1.06-.72 2.11-1.09 3.17-.07.21-.13.38-.41.43-2.42.48-4.83 1-7.28 1.48L205.23 35h-.11c-.86 1.77-1.73 3.54-2.59 5.3l-5.07 10.44a.58.58 0 01-.5.34c-2.4.34-4.8.67-7.19 1-.33 0-.42 0-.41-.35q.25-6.54.47-13.08a.57.57 0 01.41-.57c.91-.38 1.81-.79 2.72-1.16a.47.47 0 00.35-.58 26.46 26.46 0 00-2.64-10 .94.94 0 01-.14-.55c.09-1.09.15-2.18.22-3.27 0-.28.16-.35.41-.37q3.56-.39 7.09-.82c.41 0 .4.14.39.44q-.3 6.9-.59 13.8c0 1-.07 2-.11 3.06zM241.24 26.84q-1.53 5.54-3 11.07-1 3.51-1.93 7c-.08.28-.16.51-.49.61-2.64.81-5.26 1.64-8 2.52l10.78-32.42-1.41.24c-.14-.52 0-.78.58-.89q2.9-.52 5.78-1.16c.47-.11.62 0 .76.44 1.74 5.6 3.51 11.18 5.26 16.77.06.18.12.35.24.72.43-1.85.82-3.5 1.21-5.16.69-3 1.37-6 2.06-9 .47-2 1-4 1.4-6.08a.77.77 0 01.7-.69c2.31-.45 4.61-1 7-1.45-.23 1-.44 1.89-.66 2.8-1 4.21-2 8.42-3.06 12.64q-1.77 7.3-3.5 14.63c-.19.79-.39 1.57-.56 2.36a.62.62 0 01-.5.53c-2.41.7-4.82 1.4-7.23 2.14-.52.16-.47-.17-.54-.44q-2.28-8.31-4.54-16.62c-.06-.21-.12-.42-.17-.62zM280 21.88a23.8 23.8 0 01-.49 3.4 39.57 39.57 0 01-2.85 9.12c-2.05 4.47-5.27 7.57-10.16 8.7-3.9.91-7.06-.52-9.76-3.26-.24-.24-.16-.47-.09-.72q.53-2.1 1.08-4.2l4.24-16.07c.24-.89.48-1.77.68-2.67a3 3 0 01.85-1.51 48.89 48.89 0 0113.93-10.45 22 22 0 015.73-1.83c.35-.06.54-.09.45.41-.38 2.18-.71 4.36-1.05 6.54a1 1 0 01-.66.85 48.09 48.09 0 00-15 10 20.28 20.28 0 00-5.58 9.56 10.62 10.62 0 00-.31 3.18c.18 2.76 2.34 4.24 4.92 3.24a7.92 7.92 0 004.82-5.9c.1-.38-.05-.48-.44-.44-.73.08-1.47.1-2.21.16-.25 0-.4 0-.37-.32a24.34 24.34 0 01.82-5.17 1.34 1.34 0 011.27-1.07c3.2-.43 6.38-.94 9.57-1.42zM216.54 49.45c.76-2.51 1.47-5 2.28-7.53 1.46-4.5 3-9 4.47-13.46l2.55-7.67c.08-.24.14-.42.44-.49 3-.63 6-1.28 9-1.93-.32 1.06-.6 2.1-.94 3.11-.91 2.66-1.84 5.3-2.76 7.94l-6 17.37a.56.56 0 01-.43.42zM40.79 38.1c-.47 1.21-.93 2.37-1.38 3.52-.68 1.71-1.36 3.42-2 5.14a.7.7 0 01-.77.5c-2.61 0-5.23.1-7.84.28A12 12 0 0023.71 49c-2 1.11-2.08 2.48-.2 3.78 1.34.92 2.88 1.48 4.27 2.29a28.22 28.22 0 015.33 3.89 7.32 7.32 0 012 6.8c-.52 3.46-2.82 5.67-5.62 7.43a30.46 30.46 0 01-13.41 4.18A53 53 0 012.87 77c-.33-.05-.43-.11-.36-.48C3 73.69 3.52 70.85 4 68c.14-.76.15-.74 1.06-.56a36.56 36.56 0 009.5.79 14.77 14.77 0 001.77-.23 3 3 0 001.5-.75 1.58 1.58 0 00.1-2.52 8.5 8.5 0 00-3-1.74 27.07 27.07 0 01-6.82-3.72c-2.75-2.13-3.17-4.48-1.9-8.08A10.67 10.67 0 0110.68 46a31.3 31.3 0 019.12-4 107.83 107.83 0 0118.39-3.81 16.93 16.93 0 012.6-.09z" fill="#ed9225"/><path d="M66.44 69.16l-4.9.85c-1.7.29-3.4.56-5.1.88a.74.74 0 01-.86-.35c-2.83-3.94-5.69-7.87-8.54-11.8-.1-.14-.21-.27-.34-.43-.05.07-.11.11-.12.16-1.26 4.58-2.53 9.16-3.77 13.74A1 1 0 0142 73c-3.32.74-6.64 1.52-10 2.28-.19 0-.45.24-.59 0s0-.47.17-.67a3.4 3.4 0 01.86-.79 14.28 14.28 0 005.17-6.76 8.29 8.29 0 00-.83-7.31 3.24 3.24 0 01-.29-3c1-2.44 1.94-4.87 2.8-7.36 1.27-3.66 2.54-7.33 3.69-11a.84.84 0 01.84-.69c2.77-.29 5.55-.61 8.31-1 .62-.07.62.12.5.61-1 3.8-1.91 7.6-2.86 11.41 0 .15-.14.32 0 .54 1.54-1.31 3.05-2.62 4.57-3.92q5.93-5.12 11.85-10.25a.71.71 0 011.09 0c1.91 1.44 3.85 2.86 5.79 4.26.4.29.39.42 0 .73q-8.31 7.36-16.61 14.74c-.4.36-.41.55-.09 1 3.36 4.39 6.68 8.82 10.07 13.34z" fill="#ed9225"/><path d="M123 44.09c-.39-.19-.61-.22-.8.31-1 2.79-2 5.57-3 8.35-.24.8-.5 1.59-.72 2.39s0 1.15.93 1a7.65 7.65 0 006.41-5.87 5.1 5.1 0 00-2.82-6.18zm.76 5.53a5.32 5.32 0 01-1.44 2.87 1.27 1.27 0 01-.44.28.41.41 0 01-.44 0c-.19-.12 0-.27 0-.4s.16-.54.24-.81c.38-1.09.78-2.17 1.15-3.27.14-.45.3-.38.53-.08a1.77 1.77 0 01.37 1.41z" fill="#010101"/><path d="M128.29 29.87c-.41-.08-.83-.06-1.24-.1s-.49.09-.59.43c-.51 1.76-1 3.52-1.58 5.28l-.25-.08c-.48 1.59-1 3.18-1.43 4.78-.1.35-.5.79-.18 1.08s.87 0 1.28-.18a5.76 5.76 0 00.69-.38 18.57 18.57 0 004.22-3.7 7.53 7.53 0 001.65-3.09 3.19 3.19 0 00-2.57-4.04zm.41 4.29a6.21 6.21 0 01-2.41 3c.46-1.53.91-3 1.34-4.49.11-.38.29-.38.57-.22a1.35 1.35 0 01.5 1.71z" fill="#020202"/><path d="M154 30.07a4.14 4.14 0 00-3.65.34c-.19.09-.19.28-.24.44-.58 1.89-1.14 3.77-1.71 5.66l-.3-.09-1.71 5.58c-.06.2-.23.42 0 .61s.46.08.68 0a4.37 4.37 0 001.08-.73 52.08 52.08 0 004-3.85 16 16 0 002.95-4.06 3 3 0 00-1.1-3.9zm-.78 2.93a3 3 0 01-.62 1.69 17.61 17.61 0 01-2.68 2.64c.47-1.61 1-3.17 1.63-4.71.22-.57.62-.53 1.06-.47s.64.37.61.85zM183.87 34a12.51 12.51 0 00-1.49-2.91 3.68 3.68 0 00-4.82-1.59c-5.31 1.88-8.23 6-10.25 11a1.47 1.47 0 00.8-.15c5-1.49 9.91-3 14.87-4.46 1.02-.37 1.37-.56.89-1.89zm-3.05-.34L174.56 36l-2 .76c-.19.07-.38.23-.62 0a37.13 37.13 0 012.52-3 12 12 0 012.63-2.14c1.91-1.05 3.35 0 4.1 1.57.17.42-.19.36-.37.43zM85.18 56.85q-1.28-5.48-2.54-11c0-.12 0-.28-.19-.27L76.84 59c2.79-.54 5.44-1.06 8.1-1.56.43-.1.3-.34.24-.59zm-2.25-1.38c-.92.17-1.82.38-2.81.6.64-1.62 1.24-3.15 1.88-4.76a2.9 2.9 0 01.35 1c.26.9.51 1.81.77 2.71.06.19.16.38-.19.45z" fill="#010101"/><path d="M96.82 63.94c-.37-1.12-.71-2.25-1-3.38Q91.5 46.77 87.24 33c-.15-.49-.32-.62-.84-.55-2.17.27-4.34.49-6.51.7a.82.82 0 00-.76.57c-1 2.26-2 4.5-3.06 6.75q-2.07 4.62-4.22 9.25l-4.26 9.38c-.61 1.33-1.21 2.66-1.84 4-.11.19 0 .34.12.51q1.74 2.34 3.45 4.71a.63.63 0 00.71.29c.93-.15 1.86-.29 2.79-.38a.78.78 0 00.71-.55c.64-1.46 1.29-2.92 1.91-4.39a.8.8 0 01.69-.58q4.59-.78 9.16-1.61c.39-.07.58 0 .72.4.49 1.31 1 2.61 1.51 3.92.12.31.22.44.6.38 2.8-.48 5.6-.93 8.4-1.38.36-.03.41-.14.3-.48zm-11.88-6.39c-2.65.49-5.3 1-8.09 1.55 1.9-4.52 3.75-8.93 5.61-13.34.19 0 .16.15.18.26L85.19 57c.06.22.19.46-.25.55zM160.24 36.19a15 15 0 004-6.9 3.79 3.79 0 00-.69-3.39 8.52 8.52 0 00-6.43-3.21c-4.19-.38-8.3.33-12.41 1a.56.56 0 00-.49.44c-.83 2.35-1.68 4.7-2.52 7l-5.22 14.67a4.29 4.29 0 00-.36 2.85 4.74 4.74 0 01.1 1.56 14.82 14.82 0 01-3.7 8.91l-.92 1.09c2.84-.28 5.55-.56 8.27-.79a.9.9 0 00.91-.71c.82-2.45 1.68-4.89 2.53-7.33.48-1.38 1-2.75 1.5-4.2.22.24.38.41.53.59q4.6 5.12 9.19 10.25c.31.35.45.35.78 0q3.33-3.35 6.71-6.62c.35-.34.29-.5 0-.81-2.49-2.44-5-4.93-7.46-7.36-.47-.45-.44-.69 0-1.16 1.74-1.99 3.78-3.87 5.68-5.88zM152.15 38a52.08 52.08 0 01-4 3.85 4.89 4.89 0 01-1.08.73c-.22.1-.47.2-.68 0s0-.41 0-.61l1.66-5.53.3.09c.57-1.89 1.13-3.77 1.71-5.66 0-.16.05-.35.24-.44a4.14 4.14 0 013.65-.34 3 3 0 011.15 3.83 16 16 0 01-2.95 4.08z" fill="#ed9225"/><path d="M188.2 26.49a8.1 8.1 0 00-5.94-4 12.62 12.62 0 00-7.48 1.43 21.21 21.21 0 00-7.6 7 47.08 47.08 0 00-5 9.34 9.41 9.41 0 00-.93 4.64 6.94 6.94 0 003.11 5.23c.72.5.78.81.28 1.5-.3.41-.59.82-.9 1.21s-.24.43.1.69c3.64 2.76 7.68 2.69 11.74 1.44 3.17-1 5.33-3.4 7.16-6.09.21-.32.05-.45-.21-.59-1.54-.83-3.08-1.66-4.6-2.51-.36-.2-.52-.2-.76.18a10.09 10.09 0 01-2.27 2.52 5.9 5.9 0 01-5.62 1.35 5.17 5.17 0 01-3.65-4.17c-.31-1.33-.09-1.69 1.21-2.14l9.49-3.3 13.88-4.83c.27-.09.58-.08.53-.56a18.2 18.2 0 00-2.54-8.34zm-5.2 9.36c-5 1.47-9.91 3-14.87 4.46a1.48 1.48 0 01-.8.16c2-5 4.94-9.11 10.25-11a3.68 3.68 0 014.82 1.59 12.51 12.51 0 011.47 2.94c.48 1.35.13 1.54-.87 1.85zM138.26 23.59a6.48 6.48 0 00-3.26-1.14 55.17 55.17 0 00-12 1c-.26 0-.36.19-.45.42-.43 1.17-.89 2.33-1.32 3.5-1.57 4.25-3.13 8.5-4.71 12.75q-2.88 7.76-5.52 15.65c-.54 2-1.3 4-1.7 6-.09.47.06.55.45.59a42.6 42.6 0 004.51.25 29.41 29.41 0 0012.46-2.34c4.12-1.9 6.79-4.89 7-9.63a11.43 11.43 0 00-2.63-8.1c-.44-.52-.36-.65.14-1a29.1 29.1 0 005.39-4.76 14.52 14.52 0 003.91-7.36c.25-2.28-.14-4.42-2.27-5.83zm-12.49 26.6a7.7 7.7 0 01-6.42 5.87c-.88.12-1.15-.17-.92-1s.47-1.6.71-2.39c1-2.78 2-5.56 3-8.35.18-.52.4-.5.8-.31a5.11 5.11 0 012.83 6.18zM130.86 34a7.53 7.53 0 01-1.65 3.09 18.82 18.82 0 01-4.21 3.66 5.76 5.76 0 01-.69.38c-.41.18-.89.53-1.28.18s.08-.73.18-1.08c.45-1.6 1-3.19 1.43-4.78l.25.08c.53-1.76 1.07-3.52 1.58-5.28.1-.34.26-.46.59-.43s.83 0 1.24.09a3.2 3.2 0 012.56 4.09z" fill="#ed9225"/></g></svg>