<svg xmlns="http://www.w3.org/2000/svg" viewBox="0 0 161.18 125.35"><title>logo-cigar-city-brewing</title><g id="Layer_2" data-name="Layer 2"><g id="svg"><polygon points="0 61.16 0.32 58.6 0.32 56.03 0.74 53.49 1.39 51 2.03 48.52 2.61 46.02 3.71 43.68 4.66 41.31 5.71 38.96 6.98 36.74 8.27 34.51 9.71 32.4 11.27 30.36 12.91 28.39 14.52 26.4 16.19 24.45 18.07 22.69 20 21 21.92 19.31 23.98 17.78 26.07 16.3 28.18 14.83 30.29 13.38 32.46 12.01 34.73 10.8 37.07 9.75 39.29 8.46 41.65 7.44 44.07 6.59 46.42 5.53 48.9 4.85 51.32 4 53.84 3.47 56.27 2.62 58.81 2.22 61.34 1.78 63.85 1.28 66.38 0.87 68.93 0.57 71.48 0.3 74.05 0.23 76.61 0.1 79.17 0 81.74 0.1 84.31 0.08 86.87 0.16 89.42 0.47 91.97 0.79 94.52 1.08 97.07 1.32 99.57 1.95 102.1 2.41 104.57 3.09 107.1 3.53 109.54 4.35 112.02 5.02 114.42 5.96 116.84 6.8 119.12 8 121.47 9.03 123.77 10.16 126.08 11.26 128.34 12.48 130.5 13.87 132.69 15.21 134.87 16.58 136.87 18.19 138.85 19.82 140.91 21.36 142.67 23.24 144.5 25.04 146.3 26.86 147.91 28.86 149.66 30.74 151.07 32.89 152.48 35.03 153.85 37.19 155.09 39.44 156.29 41.7 157.44 44 158.25 46.44 159.15 48.85 159.65 51.37 160.36 53.85 160.57 56.41 161 58.94 161.05 61.5 161.18 64.07 161.07 66.63 160.88 69.19 160.41 71.72 159.93 74.24 159.17 76.7 158.61 79.21 157.64 81.59 156.66 83.96 155.55 86.28 154.25 88.49 152.94 90.7 151.52 92.84 149.91 94.84 148.41 96.92 146.77 98.89 144.91 100.66 143.2 102.58 141.24 104.24 139.34 105.97 137.26 107.47 135.22 109.03 133.08 110.44 130.91 111.81 128.79 113.27 126.48 114.4 124.19 115.55 121.92 116.75 119.53 117.69 117.17 118.7 114.73 119.49 112.33 120.41 109.91 121.25 107.41 121.84 104.91 122.44 102.45 123.2 99.9 123.5 97.36 123.9 94.85 124.42 92.28 124.56 89.74 125.01 87.18 125.12 84.61 125.22 82.05 125.32 79.48 125.35 76.92 125.03 74.35 125.13 71.79 124.85 69.24 124.55 66.7 124.21 64.17 123.81 61.63 123.43 59.11 122.91 56.63 122.22 54.15 121.58 51.68 120.89 49.28 119.98 46.81 119.26 44.4 118.38 42.01 117.43 39.67 116.38 37.43 115.1 35.1 114.03 32.89 112.73 30.75 111.3 28.59 109.93 26.46 108.51 24.42 106.95 22.39 105.38 20.41 103.76 18.56 101.97 16.59 100.33 14.96 98.33 13.21 96.45 11.61 94.45 10.01 92.43 8.68 90.24 7.24 88.11 6.04 85.84 4.83 83.58 3.97 81.15 2.91 78.81 2.24 76.33 1.44 73.89 0.84 71.39 0.42 68.85 0.28 66.28 0.1 63.73 0 61.16" style="fill:#fff3bd"/><path d="M116.14,59.32c.4-.23.46-.79.49-1.26s.2-1,.66-1.14.79.25,1.07.58a2.38,2.38,0,0,1,.37.51,2.35,2.35,0,0,1,.14.37l.44,1.47c.17,0,.2-.24.29-.38a.49.49,0,0,1,.55-.2.47.47,0,0,1,.29.51,4.58,4.58,0,0,0,1.08-1.92,3.2,3.2,0,0,1,.28-1.22.39.39,0,0,1,.37-.21c.14,0,.22.16.28.28.86,1.93-.3,4,.35,6.23.22-.86.46,1.05.4-2.65a.71.71,0,0,1,.07-.35c.18-.3.65-.22,1-.4.71-.45-.13-1.88.58-2.14a.81.81,0,0,1,.71.06c.52.34-.34,4.31.38,4.29s.68-3.06.72-3.34c.08-.72-.16-1.56.31-2.11a2,2,0,0,1,1.31-.52,4.14,4.14,0,0,0-2.16-.78,66.69,66.69,0,0,0-7.34-.65,9.2,9.2,0,0,0-1.66,0,4.82,4.82,0,0,0-1.39.4.63.63,0,0,0-.23.16.59.59,0,0,0-.1.34,8.23,8.23,0,0,0,.44,2.14A8.88,8.88,0,0,0,116.14,59.32Z" style="fill:#95312d"/><path d="M116.63,64.22a2.72,2.72,0,0,0,.34-1.31c0-.19.08-.46.28-.44s.24.27.24.46a7.74,7.74,0,0,0,.11,1.45,1.55,1.55,0,0,0,.24.66.61.61,0,0,0,.61.27,1.29,1.29,0,0,0,.53-.39.56.56,0,0,1,.61-.16c.31.19.07.67.17,1s.09,1,.76,1.06.62-.6.76-.69a1.17,1.17,0,0,0,.44-1,1.68,1.68,0,0,1,.28-1c.24-.28.79-.27.88.07a1.55,1.55,0,0,1,0,.43c0,.47.39.85.43,1.31a.94.94,0,0,0,.13.62.43.43,0,0,0,.59-.1l0,0a3.51,3.51,0,0,0,.24-.61c.08-.22.23-.43.45-.45a.19.19,0,0,1,.23.21l.12,1a.73.73,0,0,0,1-.26,2.14,2.14,0,0,0,.28-1.05,2,2,0,0,1,.32-1,.92.92,0,0,1,.78-.35c.29,0,.29.06.49.28s.11.58.06,1.11a2.93,2.93,0,0,0,0,1,3,3,0,0,0,.47.75c.36.35,1.67-.41,1.48.2a16.17,16.17,0,0,1-1.44,2,2.59,2.59,0,0,1-2.5,1.17,21.19,21.19,0,0,1-9.5-1.63,1.91,1.91,0,0,1-1.07-.84,3.73,3.73,0,0,1-.19-.88,5.1,5.1,0,0,1-.22-1,1.67,1.67,0,0,1,.62-1.26C116,64.6,116.32,64.71,116.63,64.22Z" style="fill:#95312d"/><path d="M63,61.26c0,.07,0,.14,0,.2s0,.13.06.19a1.62,1.62,0,0,0,.61.05.66.66,0,0,0,.61-.67.5.5,0,0,0-.2-.33c-.11-.1-.46,0-.61-.05a.87.87,0,0,0-.36,0,.2.2,0,0,0-.14.17A.41.41,0,0,1,63,61,.58.58,0,0,0,63,61.26Z" style="fill:#95312d"/><path d="M64.28,62.57a1.2,1.2,0,0,0-.14-.5c-.08-.1-.46,0-.58-.09a.67.67,0,0,0-.42,0c-.14.11-.1.1-.09.28a.37.37,0,0,1,0,.23c-.06.13,0,.12,0,.24s-.13.36,0,.48a.61.61,0,0,0,.51.11c.22,0,.61-.06.71-.29a.83.83,0,0,0,.05-.49Z" style="fill:#95312d"/><path d="M65.42,72a1.63,1.63,0,0,1-1-1,6.2,6.2,0,0,1-.29-1.41c-.08-.52-.19-1-.25-1.54s0-.81,0-1.23v-.61l.08,0,.44-.32.34-.46.48-.29.33-.44.22-.52.31-.47.18-.52v-.58l.1-.54v-.56l0-.56-.24-.5-.21-.52-.32-.43-.26-.51-.41-.35-.42-.34-.38-.31q.1-1,.27-2.07a4.44,4.44,0,0,1,1-2.44,3.86,3.86,0,0,1,1.1-.32,89.72,89.72,0,0,0-9,.84,3.8,3.8,0,0,0-1,2.19q-.15.74-.24,1.47L56,57.7l-.45.3-.47.26-.29.5-.44.34-.31.47-.18.53-.23.51v.57l-.12.55.05.56.08.55.21.51.21.51.25.49.35.42.36.41.4.37.42.26v.24a10.1,10.1,0,0,0,0,1.1c0,.47.15.94.22,1.41a6.28,6.28,0,0,0,.26,1.29,1.59,1.59,0,0,0,.94.94c.32.1,8.22,1.67,9,1.6C66.19,72.14,65.74,72.07,65.42,72Zm-8-10.79c-.14.11-.17-.1-.2-.19a.92.92,0,0,0-.25-.27.35.35,0,0,1-.07-.12c0-.08-.11-.07-.19-.11a.67.67,0,0,0-.25-.08,1.67,1.67,0,0,0-.38.06.83.83,0,0,0-.61.4,2.53,2.53,0,0,0-.12.36.45.45,0,0,1,0,.23.65.65,0,0,0-.05.2.54.54,0,0,1,0,.18V62a3.15,3.15,0,0,0,0,.44c0,.29.3.47.53.61a.52.52,0,0,0,.32.11c.13,0,.27,0,.39,0a.75.75,0,0,0,.4-.19,1.14,1.14,0,0,0,.26-.36c0-.06.11-.14.19-.13s0,.2,0,.27a1,1,0,0,1,0,.46h0a.09.09,0,0,1-.06,0l-.14.06-.16,0a2.09,2.09,0,0,1-.43.11,1.92,1.92,0,0,1-.79-.05,1.85,1.85,0,0,1-.72-.38,1.36,1.36,0,0,1-.38-.73,2.55,2.55,0,0,1,0-.87,2.12,2.12,0,0,1,.33-.77c.06-.11.09-.23.22-.27h.14c.08,0,.11-.11.16-.17a.76.76,0,0,1,.32-.12,1.2,1.2,0,0,1,.42,0,3,3,0,0,1,.42.06,1.68,1.68,0,0,1,.44.07,3.24,3.24,0,0,1,.36.2.11.11,0,0,0,.06.13v.24C57.52,60.91,57.51,61.13,57.46,61.18Zm4-.07c-.17.12-.2-.13-.25-.24a1,1,0,0,0-.3-.33,1.19,1.19,0,0,1-.09-.15c-.06-.1-.14-.09-.23-.13a1,1,0,0,0-.42-.13,1.65,1.65,0,0,0-.48.1,1.1,1.1,0,0,0-.74.57,2.38,2.38,0,0,0-.11.38.48.48,0,0,1-.05.26.66.66,0,0,0-.06.27,1.93,1.93,0,0,1,0,.24v.25a2.92,2.92,0,0,0,0,.51c0,.36.34.56.61.72a.69.69,0,0,0,.42.12,4.23,4.23,0,0,0,.5.05.94.94,0,0,0,.48-.23,2.16,2.16,0,0,0,.47-.53c0-.06.08-.16.17-.15s.06.28,0,.37a1.87,1.87,0,0,1,0,.53h0a1.44,1.44,0,0,1-.58.29,4.84,4.84,0,0,1-.51.14,2.26,2.26,0,0,1-1-.07,2,2,0,0,1-.89-.44,1.67,1.67,0,0,1-.52-.86,3.65,3.65,0,0,1-.06-1.14,2.79,2.79,0,0,1,.48-.94c.08-.14.11-.28.26-.33l.18,0c.1-.05.13-.14.2-.22s.28-.12.39-.15a1.53,1.53,0,0,1,.52,0,4.63,4.63,0,0,1,.52.07,2.34,2.34,0,0,1,.53.08c.15.08.3.16.45.26a.16.16,0,0,0,.07.16v.29C61.54,60.75,61.57,61,61.47,61.11Zm1.46,2.45h-.36c-.12,0-.18,0-.24,0s0-.18,0-.29v-.11s.05,0,.06-.07a1,1,0,0,0,0-.3v-.94a2,2,0,0,1,0-.54,1.93,1.93,0,0,0,0-.34.86.86,0,0,0,0-.32c0-.1-.17-.22,0-.33s.38,0,.53,0a1.08,1.08,0,0,1,.31,0H64a.9.9,0,0,1,.65.31c0,.08,0,.11.11.16a.77.77,0,0,1,0,.3,1,1,0,0,1-.09.37.55.55,0,0,1-.18.22c-.07.05-.26.05-.19.17s.18.07.21.1a.53.53,0,0,1,.19.15.93.93,0,0,1,0,1.1,1.3,1.3,0,0,1-.23.18,1.2,1.2,0,0,1-.62.13,2.66,2.66,0,0,1-.91.07Z" style="fill:#95312d"/><path d="M21.42,49.67a.61.61,0,0,0-.2-.09L21,49.47c-.2-.08-.39-.17-.61-.24-.37-.11-.71-.34-1.08-.44a1.83,1.83,0,0,1-.46-.18c-.14-.06-.42-.25-.57-.17s-.1.12-.14.18-.1.1-.14.16a.39.39,0,0,0-.06.44,3,3,0,0,0,.24.38c.1.12.24.17.31.32a.42.42,0,0,0,.09.14.65.65,0,0,0,.15.18.51.51,0,0,1,.16.09,1,1,0,0,1,.13.23c.08.15.23.21.34.34a3.59,3.59,0,0,0,.39.39,2,2,0,0,1,.34.37c.09.11.2.27.35.27s.28-.3.35-.43a2.61,2.61,0,0,0,.12-.29c0-.09.11-.18.16-.27s.2-.4.28-.61a2.81,2.81,0,0,0,.1-.31A.4.4,0,0,0,21.42,49.67Z" style="fill:#95312d"/><path d="M16.2,54.05a.36.36,0,0,0,.2.06l.3.06c.21,0,.41.12.61.15.38,0,.74.22,1.13.26a2,2,0,0,1,.49.11c.14,0,.45.17.61.08a.53.53,0,0,0,.11-.21c0-.07.08-.12.11-.18a.39.39,0,0,0,0-.44c-.09-.12-.19-.23-.29-.34s-.26-.13-.36-.27a.6.6,0,0,0-.11-.12c-.06-.05-.1-.12-.17-.15a.55.55,0,0,1-.18-.06,1.46,1.46,0,0,1-.16-.21c-.11-.14-.27-.17-.4-.28a2,2,0,0,0-.44-.33,1.72,1.72,0,0,1-.4-.31c-.09-.09-.24-.23-.39-.21s-.23.34-.27.48,0,.21-.07.31l-.12.29c-.07.22-.12.44-.17.66a1.13,1.13,0,0,0-.05.32A.38.38,0,0,0,16.2,54.05Z" style="fill:#95312d"/><path d="M23.23,45.64a2.26,2.26,0,0,1-.52,0,3.11,3.11,0,0,0-.61,0,2.26,2.26,0,0,0-.52,0l-.28,0a.53.53,0,0,1-.18,0H20.7a2.36,2.36,0,0,1-.46,0,3.55,3.55,0,0,0-.47.06.45.45,0,0,0-.33.31.25.25,0,0,1-.05.18.31.31,0,0,0-.07.22c0,.08.36.23.49.28a2.09,2.09,0,0,1,.44.16c.33.21.74.31,1.08.51s.4.19.61.28l.28.14c.07,0,.13.09.21.09s.24-.16.31-.22a1.31,1.31,0,0,0,.19-.27c.13-.2.25-.4.36-.61s.08-.2.13-.29a2.53,2.53,0,0,1,.18-.27c0-.1.27-.41.13-.53S23.38,45.64,23.23,45.64Z" style="fill:#95312d"/><path d="M15.61,58.73a2.47,2.47,0,0,1,.52-.18,3.43,3.43,0,0,0,.57-.17,2.67,2.67,0,0,0,.48-.15,2,2,0,0,1,.25-.14,1.08,1.08,0,0,1,.18,0,.88.88,0,0,0,.23-.07l.15-.08a1.76,1.76,0,0,1,.44-.15,3.11,3.11,0,0,0,.4-.22.42.42,0,0,0,.21-.39V57a.41.41,0,0,0,0-.22c-.07-.13-.41-.1-.55-.1a2.63,2.63,0,0,1-.49-.05c-.36-.09-.77,0-1.15-.11-.22,0-.44,0-.66-.07h-.31a.45.45,0,0,0-.23,0c-.09,0-.16.21-.21.3a2.8,2.8,0,0,0-.09.31c0,.22-.1.45-.13.68V58c0,.1-.06.21-.07.32s-.12.46,0,.53A.76.76,0,0,0,15.61,58.73Z" style="fill:#95312d"/><path d="M18.05,59.85a2.78,2.78,0,0,1-.5.21,2.52,2.52,0,0,0-.54.21,1.91,1.91,0,0,0-.47.18l-.24.15h-.18c-.07,0-.14.07-.22.1l-.14.08a1.57,1.57,0,0,1-.42.18l-.39.23a.44.44,0,0,0-.17.38c0,.07,0,.12,0,.18a.51.51,0,0,0,0,.21c0,.06.41.06.56,0h.48a9,9,0,0,0,1.16,0h1a.41.41,0,0,0,.22,0c.1,0,.15-.21.18-.29s.05-.21.07-.31.06-.43.07-.64v-.3c0-.09,0-.19,0-.29s.08-.45-.09-.5A.78.78,0,0,0,18.05,59.85Z" style="fill:#95312d"/><path d="M21.15,76.62c0,.06-.13.07-.19.1l-.28.1c-.2.07-.39.17-.61.23-.37.11-.71.32-1.09.41a2.54,2.54,0,0,0-.46.17c-.14.07-.43.25-.57.17s-.1-.12-.14-.19-.1-.1-.14-.16a.39.39,0,0,1,0-.44,2.19,2.19,0,0,1,.25-.37c.1-.13.23-.18.3-.33a.52.52,0,0,1,.11-.1c.05-.06.08-.13.15-.17A.51.51,0,0,0,18.6,76a1,1,0,0,0,.13-.23c.09-.15.24-.21.35-.33a2.32,2.32,0,0,1,.44-.39,2.11,2.11,0,0,0,.35-.38c.08-.1.21-.25.35-.26s.28.31.35.44.06.2.1.3.11.18.16.27a6.57,6.57,0,0,1,.26.61,1.6,1.6,0,0,1,.1.31C21.17,76.37,21.21,76.54,21.15,76.62Z" style="fill:#95312d"/><path d="M16,72.15c0-.06.14-.05.2-.06l.29-.06c.21,0,.42-.11.61-.13.39-.05.76-.2,1.14-.24a2,2,0,0,0,.49-.09c.15,0,.46-.18.61-.07s.08.13.11.2a1.42,1.42,0,0,0,.11.18.39.39,0,0,1,0,.44,1.93,1.93,0,0,1-.31.33c-.11.11-.25.13-.35.27a.34.34,0,0,1-.12.12c-.06,0-.1.12-.18.14a.61.61,0,0,0-.17.07,1.63,1.63,0,0,0-.17.2c-.11.14-.26.16-.39.27a2.37,2.37,0,0,1-.46.32,1.72,1.72,0,0,0-.4.31c-.1.08-.25.22-.4.2s-.22-.35-.26-.49a2.73,2.73,0,0,1-.06-.31c0-.1-.08-.19-.11-.29a5.28,5.28,0,0,1-.16-.66,1.92,1.92,0,0,1-.05-.32C16,72.39,16,72.21,16,72.15Z" style="fill:#95312d"/><path d="M22.89,80.71a3.49,3.49,0,0,0-.56,0,2.49,2.49,0,0,1-.61,0,2.17,2.17,0,0,1-.51,0l-.28-.06a.59.59,0,0,0-.19,0,1,1,0,0,1-.24,0,.48.48,0,0,1-.17,0,1.85,1.85,0,0,0-.47,0,3.4,3.4,0,0,1-.46-.08.45.45,0,0,1-.33-.31.29.29,0,0,0-.05-.19A.34.34,0,0,1,19,79.9c0-.07.36-.23.5-.28a2.11,2.11,0,0,0,.46-.21c.32-.2.73-.29,1.07-.48s.41-.18.62-.27l.29-.14a.38.38,0,0,1,.21-.07c.11,0,.23.15.3.22a1.85,1.85,0,0,1,.19.27c.12.2.24.4.34.61s.08.2.13.29.12.18.17.27.26.41.13.53A.8.8,0,0,1,22.89,80.71Z" style="fill:#95312d"/><path d="M15.53,67.45a2.64,2.64,0,0,0,.51.19,5.4,5.4,0,0,1,.57.18c.16.08.32.06.48.17a1.38,1.38,0,0,0,.24.14.54.54,0,0,0,.18,0,.86.86,0,0,1,.2.13.44.44,0,0,1,.15.08,1.69,1.69,0,0,0,.43.15c.14.07.28.14.41.22a.46.46,0,0,1,.2.4v.19a.28.28,0,0,1,0,.22c-.07.13-.4.09-.55.09a2.59,2.59,0,0,0-.48,0c-.38.08-.79,0-1.17.1-.21,0-.44,0-.65,0h-.31a.45.45,0,0,1-.23,0,.58.58,0,0,1-.2-.31,1.81,1.81,0,0,1-.09-.31,5.65,5.65,0,0,1-.11-.68v-.31c0-.1-.06-.21-.07-.31s-.11-.47.06-.53S15.4,67.4,15.53,67.45Z" style="fill:#95312d"/><path d="M18,66.39a2.42,2.42,0,0,0-.49-.23,2.63,2.63,0,0,1-.55-.22,3.8,3.8,0,0,1-.47-.18,1.12,1.12,0,0,0-.22-.16h-.19a1,1,0,0,1-.21-.09l-.14-.09a2,2,0,0,0-.44-.22L14.9,65a.43.43,0,0,1-.16-.4.86.86,0,0,0,0-.17.45.45,0,0,1,0-.2c0-.07.41-.06.56,0a3.84,3.84,0,0,0,.48,0c.38,0,.79,0,1.17,0h1a.41.41,0,0,1,.22,0c.1,0,.15.22.17.3a.8.8,0,0,1,.06.3,3.26,3.26,0,0,1,.06.62v.29a2.54,2.54,0,0,0,0,.29c0,.1.07.45-.11.5A.74.74,0,0,1,18,66.39Z" style="fill:#95312d"/><path d="M140.07,50.2c0-.05.13-.06.19-.08l.28-.1c.2-.07.4-.16.62-.22.37-.1.71-.31,1.09-.4a2,2,0,0,0,.47-.17c.13-.06.42-.23.57-.15s.1.13.14.19.09.11.13.17a.41.41,0,0,1,0,.44c-.08.13-.16.25-.25.37s-.24.16-.32.31a.64.64,0,0,1-.1.13c-.05.06-.08.14-.16.17a.51.51,0,0,0-.16.09,1.76,1.76,0,0,0-.14.23c-.08.15-.24.2-.35.33a2.41,2.41,0,0,1-.41.37,2,2,0,0,0-.35.37c-.09.09-.21.25-.36.25s-.27-.31-.33-.45-.07-.19-.11-.29-.1-.19-.14-.28-.19-.41-.27-.61l-.09-.31C140,50.44,140,50.28,140.07,50.2Z" style="fill:#95312d"/><path d="M145.12,54.75a.34.34,0,0,1-.2,0l-.3.06L144,55c-.39,0-.75.19-1.14.22a2.19,2.19,0,0,0-.5.09c-.14,0-.45.16-.61.06s-.07-.14-.1-.21-.08-.12-.1-.19a.39.39,0,0,1,0-.44,3.11,3.11,0,0,1,.31-.32c.12-.1.26-.13.36-.26l.12-.12a1.24,1.24,0,0,1,.18-.14.49.49,0,0,0,.17-.06.82.82,0,0,0,.17-.2c.11-.13.27-.16.41-.26a2.06,2.06,0,0,1,.46-.31,2.32,2.32,0,0,0,.4-.3c.11-.09.26-.22.4-.2s.22.35.26.49,0,.21.06.31.07.2.1.3.11.44.15.67a1.55,1.55,0,0,1,0,.31C145.19,54.53,145.19,54.7,145.12,54.75Z" style="fill:#95312d"/><path d="M138.4,46.1a2.53,2.53,0,0,0,.55,0,3.11,3.11,0,0,1,.61,0h.52l.28.07a.61.61,0,0,0,.18-.05H141a2.36,2.36,0,0,0,.46,0,2.43,2.43,0,0,1,.47.08.47.47,0,0,1,.32.31.25.25,0,0,0,0,.2.27.27,0,0,1,.06.21c0,.07-.36.22-.51.27a2.57,2.57,0,0,0-.45.2c-.33.19-.74.28-1.08.46s-.41.18-.62.27l-.29.12a.32.32,0,0,1-.21.08c-.11,0-.23-.16-.29-.23a1.31,1.31,0,0,1-.19-.27c-.12-.2-.23-.41-.33-.62s-.08-.2-.13-.29-.11-.18-.16-.28-.25-.41-.11-.52S138.25,46.08,138.4,46.1Z" style="fill:#95312d"/><path d="M145.54,59.47a2.54,2.54,0,0,0-.52-.2,3.58,3.58,0,0,1-.55-.19,3.39,3.39,0,0,1-.48-.17,1.58,1.58,0,0,0-.24-.15h-.19a1,1,0,0,1-.22-.09l-.15-.08c-.14-.11-.28-.1-.43-.17a4.1,4.1,0,0,1-.4-.23.44.44,0,0,1-.19-.39v-.41c0-.07.41-.09.55-.08a2.7,2.7,0,0,0,.49,0c.37-.07.78,0,1.16-.07a3.71,3.71,0,0,0,.66,0h.31a.45.45,0,0,1,.23,0c.09.05.15.22.19.31a1.81,1.81,0,0,1,.09.31c0,.23.08.46.1.68v.32a1.55,1.55,0,0,1,.06.31c0,.14.11.46-.06.52A.68.68,0,0,1,145.54,59.47Z" style="fill:#95312d"/><path d="M143.06,60.49a2.27,2.27,0,0,0,.5.23,3.54,3.54,0,0,1,.53.23,2.76,2.76,0,0,1,.47.2,1.12,1.12,0,0,0,.22.16l.18,0a.68.68,0,0,1,.21.1.67.67,0,0,1,.14.09,2.26,2.26,0,0,0,.42.19,3.11,3.11,0,0,1,.38.25.42.42,0,0,1,.16.39c0,.06,0,.11-.05.18a.46.46,0,0,1,0,.2,1.57,1.57,0,0,1-.56,0h-.49c-.38,0-.78-.05-1.16,0h-1a.45.45,0,0,1-.23,0c-.09-.05-.14-.22-.17-.31a1.58,1.58,0,0,1-.05-.38c0-.22,0-.43-.05-.65v-.3c0-.09,0-.19,0-.29s-.06-.45.12-.49A.83.83,0,0,1,143.06,60.49Z" style="fill:#95312d"/><path d="M139.36,77.15c0,.06.13.07.19.09l.27.12c.2.08.39.18.61.25.37.12.71.34,1.08.45a2.62,2.62,0,0,1,.46.19c.13.07.41.26.56.19s.1-.12.15-.19.1-.1.14-.15a.44.44,0,0,0,.06-.44,2.45,2.45,0,0,0-.24-.38c-.08-.12-.23-.18-.29-.34l-.09-.13c-.06-.06-.08-.14-.15-.18a.39.39,0,0,1-.16-.1,1.71,1.71,0,0,1-.13-.23c-.08-.15-.23-.21-.33-.34a2.11,2.11,0,0,0-.39-.4,2.43,2.43,0,0,1-.33-.38c-.08-.11-.2-.27-.35-.28s-.28.3-.35.43a1.8,1.8,0,0,0-.12.29c0,.09-.12.18-.17.27a4.22,4.22,0,0,0-.28.61,1,1,0,0,0-.11.3A.48.48,0,0,0,139.36,77.15Z" style="fill:#95312d"/><path d="M144.65,72.85a.56.56,0,0,0-.21-.06l-.29-.07-.61-.15c-.38-.06-.74-.23-1.13-.28a2.57,2.57,0,0,1-.48-.11c-.14-.05-.45-.2-.61-.09s-.08.13-.12.2-.08.12-.11.18a.39.39,0,0,0,0,.44,1.81,1.81,0,0,0,.29.33c.11.12.25.15.35.29a.58.58,0,0,0,.1.12c.07,0,.11.12.18.15a.51.51,0,0,1,.17.07.83.83,0,0,1,.16.21c.1.14.26.17.39.29a3.72,3.72,0,0,0,.45.33,2.37,2.37,0,0,1,.39.32c.09.09.23.23.38.22s.23-.34.28-.48.05-.21.08-.31.08-.19.12-.29a6.36,6.36,0,0,0,.18-.66,1.55,1.55,0,0,0,.06-.31C144.69,73.1,144.71,72.92,144.65,72.85Z" style="fill:#95312d"/><path d="M137.48,81.16a3.37,3.37,0,0,1,.55,0,3.12,3.12,0,0,0,.61,0,3,3,0,0,0,.52,0,1.26,1.26,0,0,1,.28,0,.61.61,0,0,1,.18,0,1,1,0,0,0,.24,0,.48.48,0,0,0,.17,0,1.85,1.85,0,0,1,.47,0,3.56,3.56,0,0,0,.47,0,.51.51,0,0,0,.34-.3.27.27,0,0,1,.05-.19.27.27,0,0,0,.07-.21c0-.08-.35-.24-.49-.3a1.65,1.65,0,0,1-.44-.22c-.33-.21-.73-.32-1.06-.52a5.88,5.88,0,0,0-.62-.29l-.28-.15a.49.49,0,0,0-.21-.08c-.1,0-.23.14-.3.21a1.64,1.64,0,0,0-.2.26,5.51,5.51,0,0,0-.37.61c-.05.09-.08.2-.13.29s-.13.17-.18.26-.29.4-.14.53S137.32,81.17,137.48,81.16Z" style="fill:#95312d"/><path d="M145.31,68.21a2.43,2.43,0,0,1-.52.17,2.69,2.69,0,0,0-.57.17,2.09,2.09,0,0,0-.49.13,2,2,0,0,1-.25.14.54.54,0,0,1-.18,0,.63.63,0,0,0-.23.08l-.15.07c-.15.1-.28.08-.43.14a3.29,3.29,0,0,0-.42.21.45.45,0,0,0-.21.38v.2a.41.41,0,0,0,0,.22c.07.13.4.11.55.11a3.93,3.93,0,0,1,.48.06c.37.09.78.06,1.16.13.21,0,.44,0,.65.08H145a.45.45,0,0,0,.23,0c.1,0,.17-.21.21-.29s.07-.21.1-.31a5.47,5.47,0,0,0,.14-.68,1.12,1.12,0,0,1,0-.31c0-.1.06-.2.08-.3s.13-.47,0-.53A.66.66,0,0,0,145.31,68.21Z" style="fill:#95312d"/><path d="M142.89,67a2.41,2.41,0,0,1,.5-.21,2.13,2.13,0,0,0,.55-.2,2.3,2.3,0,0,0,.48-.17l.23-.15h.18a.85.85,0,0,0,.22-.09l.15-.08c.13-.11.27-.1.42-.17a4,4,0,0,0,.39-.23.43.43,0,0,0,.18-.38V65c0-.06-.42-.06-.57,0a2.57,2.57,0,0,1-.48,0,9,9,0,0,0-1.16,0h-1a.59.59,0,0,0-.23,0c-.09,0-.15.22-.19.3a1.59,1.59,0,0,0-.06.3,4.66,4.66,0,0,0-.08.64v.3c0,.09,0,.19,0,.29s-.09.45.09.5A.75.75,0,0,0,142.89,67Z" style="fill:#95312d"/><path d="M34,96.6c-.22.18-.38.21-.5.31-.4.32-.57.21-1.09.31A7.14,7.14,0,0,1,31,97.1a6.37,6.37,0,0,1-2.9-1.45,20.48,20.48,0,0,1-2.38-2,13.94,13.94,0,0,0-1.27-1.28c-.26-.19-.8-.39-.95-.69-.49-1,.42-.81.92-1.06.17-.07.26-.28.39-.35s.3,0,.45-.08c.41-.18.73-.67,1.05-1,1.13-1.15,2.15-2.44,3.28-3.59-.06.06-.11.13-.17.2a12.31,12.31,0,0,1,1.84-1.91,5.8,5.8,0,0,0,1-1.29,4.25,4.25,0,0,0,.93-1.25c.18-.52.06-1.36.86-1.34s1.28,1.31,1.89,1.71a7.31,7.31,0,0,1,1.11,1c.47.46,1,.84,1.46,1.3a5.06,5.06,0,0,1,1.42,2.79,3.22,3.22,0,0,1,0,1.66c-.21.48-.66,1-.88,1.44a1.81,1.81,0,0,1-1.23.91,3.18,3.18,0,0,1-1.62-.05c-.42-.13-1.31-.57-1,0a11.38,11.38,0,0,1,.6,1.28,5.1,5.1,0,0,1,0,1.17A5.33,5.33,0,0,1,34,96.6ZM32.8,93.42c.09-.17.26-.46.33-.61a4,4,0,0,0,.65-2c0-.61-.66-1.35-1-1.89a4.43,4.43,0,0,0-1.49-1A3.17,3.17,0,0,0,30.07,89a2.39,2.39,0,0,1-.93.8c-.61.29-.48.29-.7.84-.3.75-1.7,1-1.67,1.83s.4,1.22,1.21,1.93A2.6,2.6,0,0,0,31,94.9c.7-.43,1.4-.73,1.75-1.49Zm5.06-6a3.05,3.05,0,0,0,.14-2c-.13-.74-.82-1-1.27-1.45-.26-.29-.29-.61-.72-.72a1,1,0,0,0-1.15.34c-.25.31-.31.55-.66.79a3.37,3.37,0,0,0-1,.79c-.18.29-.23.64-.42.94s-.53.51-.49,1c.07.68,1,1.35,1.51,1.62,2.1,1,2.56.5,3.61-.56a4.29,4.29,0,0,0,.42-.68Z" style="fill:#533e34"/><path d="M67.1,98.17a.26.26,0,0,0-.16-.09l-1.83-.45a5.21,5.21,0,0,1-1.17-.26,5.56,5.56,0,0,0-1.22-.49c-.49-.11-1-.06-1.46-.2a4.78,4.78,0,0,0-1.12-.19c-.52,0-2-1.16-2.36-.62s.15,1,.27,1.59a4.16,4.16,0,0,1-.13,1.26,3,3,0,0,1-.22,1.22c-.16.28-.42.51-.61.81a3.68,3.68,0,0,0-.34,1.08c0,.21-.29.37-.32.61s.23.5.09.83-.47.4-.58.8c-.21.75-.38,1.48-.62,2.23a16.54,16.54,0,0,1-.68,1.77c-.35.78-1.42.65-1.47,1.49s1.5.87,2,1a11,11,0,0,1,2.17.62,20.2,20.2,0,0,0,2.9.74c.48.12,1,.29,1.44.4s1,.21,1.49.31a.49.49,0,0,0,.24,0,.57.57,0,0,0,.15-.12l.39-.39a2.32,2.32,0,0,0,.47-.61c.07-.16.09-.34.16-.5.13-.33.43-.61.38-1a.16.16,0,0,0-.05-.11.22.22,0,0,0-.11,0l-.61-.11a.25.25,0,0,0-.17,0,.33.33,0,0,0-.16.15,2.36,2.36,0,0,1-1.3.81,3.65,3.65,0,0,1-.74.08,8.78,8.78,0,0,1-1.7,0,9,9,0,0,0-1,0,1.87,1.87,0,0,1-1.65-.89c-.38-.72,0-1.4.26-2.07s.08-1.16.38-1.71a4.63,4.63,0,0,0,.35-1.15,2.38,2.38,0,0,1,.23-.55,1.35,1.35,0,0,1,.42-.37.1.1,0,0,1,.16,0,1.39,1.39,0,0,0,.61.21,1.79,1.79,0,0,1,.57.09l.17.12.21.09c.26.08.54.16.79.25a5,5,0,0,0,.84.32c.21,0,.41,0,.61,0a1.13,1.13,0,0,0,.7,0,.69.69,0,0,0,.33-.61v-.72a.17.17,0,0,0,0-.14.24.24,0,0,0-.09-.06,3.34,3.34,0,0,0-.52-.14c-.24,0-.52,0-.77,0s-.62,0-1-.08A4.29,4.29,0,0,1,60,102.9a1.19,1.19,0,0,0-.42-.21c.09-.62.21-1.23.36-1.84A1.53,1.53,0,0,1,60,100c.37-.65.65-.86.62-1.66s.68-1.11,1.5-.71c.25.12.42.41.61.51s.55,0,.87.09c.61.11,1.37,1.07,2,1.43l.19.21a.47.47,0,0,0,.12.09.29.29,0,0,0,.13,0,6.4,6.4,0,0,0,1,0l0-1.65A.29.29,0,0,0,67.1,98.17Z" style="fill:#533e34"/><path d="M88.87,100.08a1.49,1.49,0,0,1-.23.28.8.8,0,0,0-.21.2.89.89,0,0,0-.12.38,2.53,2.53,0,0,1-.34.89c-.14.24-.39.43-.47.69-.3,1-.53,2-.85,3a5,5,0,0,1-.61,1.06,8,8,0,0,0-.62,1.58c-.35.91-.62,1.83-1,2.71s-.62,1.84-.9,2.73c-.13.41-.22,1-.78,1.14a.84.84,0,0,1-1-.68.17.17,0,0,1,0-.07,2.85,2.85,0,0,0-.19-1.26c-.09-.18-.25-.33-.35-.51a4.32,4.32,0,0,1-.43-1.58c-.11-.61-.24-1.22-.4-1.83,0-.21-.11-.42-.17-.62l-.23-.82a.5.5,0,0,0-.09-.24c-.07-.12-.21-.2-.23-.34a.29.29,0,0,0,0-.16c-.08-.08-.2,0-.26.11a2.24,2.24,0,0,0-.22.4c-.14.34-.13.72-.24,1.08s-.32.61-.44,1-.12,1-.34,1.52a2.46,2.46,0,0,0-.22.61,3.17,3.17,0,0,1-.24.85c-.22.46-.61.8-.82,1.3s-.21.93-.67,1.11-.88-.31-1-.7c-.08-.24,0-.48-.12-.73s-.2-.39-.27-.61c-.17-.53-.37-1-.54-1.58s-.35-.82-.52-1.23c-.09-.22-.1-.46-.17-.67s-.32-.46-.43-.74c-.19-.47.06-1-.05-1.42s-.6-.81-.77-1.22-.22-1.11-.39-1.63a14.29,14.29,0,0,1-.42-1.59,4.36,4.36,0,0,0-.5-1.23,4.76,4.76,0,0,0-.46-.82c-.11-.12-.29-.12-.43-.2a.77.77,0,0,1-.25-.71A2,2,0,0,1,69.9,99a.47.47,0,0,1,.17-.33.46.46,0,0,1,.2,0,2.27,2.27,0,0,1,.52.09c.38.07.77.07,1.15.15a5,5,0,0,0,1.28.17c1.44-.08,1.37.48.89,1.48-.34.7.1,1.22.23,1.93a11.78,11.78,0,0,0,.31,1.57,8.11,8.11,0,0,1,.46,1.5,9.9,9.9,0,0,0,.53,1.76c.12.42.13.86.24,1.29.22.81,1.08,1.51,1.45.37a4.6,4.6,0,0,0,.21-1c0-.27-.06-.61.13-.82a1.06,1.06,0,0,0,.15-.15c.13-.17.05-.4.12-.58s.22-.36.29-.57a19.39,19.39,0,0,1,.54-2.4,2.37,2.37,0,0,0,.13-.34c.11-.43.21-.87.32-1.31a5.26,5.26,0,0,1,.42-1.23.37.37,0,0,1,.51-.13.39.39,0,0,1,.1.08,6.28,6.28,0,0,1,.6,2.1c.13.74.29,1.46.46,2.2a.7.7,0,0,0,.08.23c0,.07.09.17.14.26a1.72,1.72,0,0,1,.14.4l.6,2.19c.08.27.34,1.83.66,1.84a.18.18,0,0,0,.14-.1c.17-.25.34-.44.52-.67a4.59,4.59,0,0,0,.52-1c.1-.21.29-.38.38-.61s.05-.53.15-.78.25-.34.32-.56.09-.56.17-.82c.27-.94.9-1.71,1.14-2.67a8.06,8.06,0,0,0,.06-1,1.71,1.71,0,0,0-.23-1.11c-.17-.27-.33-.56-.14-.87a1,1,0,0,1,.76-.36h1a7,7,0,0,1,1.29,0A1.4,1.4,0,0,1,88.87,100.08Z" style="fill:#533e34"/><path d="M96.34,98.62c-.28.54-.84.81-.89,1.45a6.69,6.69,0,0,0,.42,2.25c.17.61,0,1,.21,1.62.24.83.31,1.71.52,2.54a3.68,3.68,0,0,1,.24,1,2.45,2.45,0,0,0,0,.81c.09.29.25.61.33.9a11.7,11.7,0,0,1,.15,1.17A2.66,2.66,0,0,0,98.41,112c.27.17.61.12.44.51s-.78.3-1.09.34-.73,0-1.08.06-.58.23-.88.3a4.32,4.32,0,0,1-.93.16c-.23,0-.84-.19-.87-.45s.43-.57.55-.73a3.3,3.3,0,0,0,.44-.88,2.2,2.2,0,0,0-.06-1c-.09-.44,0-.9-.13-1.33-.16-.72-.33-1.43-.49-2.17s-.43-1.26-.57-1.93.15-1.18,0-1.78c-.08-.26-.24-.49-.34-.74a5.49,5.49,0,0,1-.16-1.14c-.15-.93-.65-1.2-1.43-1.53-1.13-.47,0-1.09.71-1.15.45,0,.94,0,1.39,0s.54-.27.88-.36a3.35,3.35,0,0,1,.55,0c.18,0,.38-.14.56-.15.55,0,.61.24.49.67C96.24,98.81,96.39,98.48,96.34,98.62Z" style="fill:#533e34"/><path d="M113.75,92.73l-.08.09a1.44,1.44,0,0,0-.21.84,3,3,0,0,0,.18,1.11,5.48,5.48,0,0,1,.43,1.17,2,2,0,0,0,.09.49,3.18,3.18,0,0,0,.27.37,7.22,7.22,0,0,1,.34.92A3.14,3.14,0,0,0,115,98c.41.73.42,1.56.77,2.3s.5,1.33.83,2a1.83,1.83,0,0,0,.18.3l.15.21a1.82,1.82,0,0,1,.16.31c.28.64.55,1.27.79,1.92.12.33.47.75.4,1.1s-.74.57-1.16.56-.44-.15-.68-.45a1.62,1.62,0,0,0-.77-.55c-.36-.15-.77-.24-1.12-.4s-.75-.57-1.17-.8c-.61-.32-1.32-.55-2-.83a1.56,1.56,0,0,1-.61-.29c-.16-.17-.07-.31-.17-.45-.26-.36-.56-.33-1-.44a15.79,15.79,0,0,1-1.78-.92,6.18,6.18,0,0,1-2.39-1.35c-.19-.21-.3-.67-.57-.74a.57.57,0,0,0-.68.42.59.59,0,0,0,0,.19c0,.42.5.75.67,1.12a7.58,7.58,0,0,1,.52,1.52,18.17,18.17,0,0,0,1.69,4.62,1.84,1.84,0,0,0,.65.68c.26.19.35.47.61.69a.84.84,0,0,0,.52.22.26.26,0,0,1,.15,0,.33.33,0,0,1,.08.18c0,.2.2.36.22.57a.55.55,0,0,1-.26.46,1.62,1.62,0,0,1-.51.21A25.25,25.25,0,0,0,106,111a.28.28,0,0,1-.13,0c-.1,0-.14-.14-.15-.24l-.08-.46v-.14a.81.81,0,0,1,.23-.46.28.28,0,0,0,.08-.12.86.86,0,0,0,0-.16c0-.5-.09-1-.1-1.47a1.06,1.06,0,0,0,0-.31,1.89,1.89,0,0,0-.11-.25c0-.1,0-.2-.07-.3a3.34,3.34,0,0,0-.33-.84,4.76,4.76,0,0,1-.4-1.28,1.74,1.74,0,0,0-.36-.9,9.52,9.52,0,0,1-1-2.4c-.19-.82-.52-1.59-.78-2.4-.55-1.66-1.67-1.49-1.4-2.38.2-.68,2.06-1.1,2.67-1.21,1-.13.72.78,1.22,1.27a3,3,0,0,0,.61.62c.44.25.74.61,1.22.85a5.46,5.46,0,0,1,1.22.58c.28.22.33.41.66.56.84.37,1.71.68,2.54,1.12a11.3,11.3,0,0,1,1.22.82c.43.28.91.18,1.34.4s.53.73,1,.73.49-.55.24-.85a2.08,2.08,0,0,1-.68-1.23,2.08,2.08,0,0,0-.11-.66c-.1-.21-.29-.32-.3-.57a2.09,2.09,0,0,0-.55-1.18,4.83,4.83,0,0,1-.42-1.23,12.49,12.49,0,0,0-1.09-2.31,2.77,2.77,0,0,0-1.42-1,.62.62,0,0,1-.17-.11c-.41-.38.41-.86.65-1a4,4,0,0,1,.88-.44c.14,0,.28-.06.42-.11s.3-.16.45-.23a.7.7,0,0,1,.49-.07.78.78,0,0,1,.39.85A.66.66,0,0,1,113.75,92.73Z" style="fill:#533e34"/><path d="M54.88,47a2.06,2.06,0,0,1,.28-.31v-.16h0L54.78,46c-.08-.11-.14-.22-.21-.33l-.06-.13-.23-.44a5.07,5.07,0,0,0-.36-.54L53.61,44a.61.61,0,0,0-.27,0,.43.43,0,0,1-.46-.2.55.55,0,0,0,.06-.18.38.38,0,0,1,.18-.23.6.6,0,0,1,.19-.06.94.94,0,0,0,.23-.1l.48-.3a1.69,1.69,0,0,1,.28-.12l.11,0a.12.12,0,0,1,.08,0,.22.22,0,0,1,0,.08l.09.18a.31.31,0,0,0-.11.09l-.13.16h0c-.08.08-.16.14.11.61l.19.24a1.75,1.75,0,0,0,.18.29h.06l.25-.11.08,0a1.72,1.72,0,0,0,.38-.2l.22-.12a4.62,4.62,0,0,0,.62-.37.2.2,0,0,1,0-.11l-.1-.18c-.31-.56-.52-.84-.61-.82a1.09,1.09,0,0,1-.24.07c-.1,0-.17,0-.28-.18s-.06-.19.07-.3L55.7,42a3,3,0,0,0,.44-.28,1.18,1.18,0,0,1,.57-.22h0l.14,0a.09.09,0,0,0,0,.07.09.09,0,0,1,0,.05c0,.17-.09.28-.23.42l0,.05A4.74,4.74,0,0,0,57,43l0,.08c0,.11.17.33.34.64a7.3,7.3,0,0,0,.4.68,4,4,0,0,0,.38.54.94.94,0,0,0,.36-.11h.05a.33.33,0,0,1,.22.18v.09l-.12.16,0,.07a.69.69,0,0,0-.37.1,5.25,5.25,0,0,0-.49.33l-.1.07-.25.17-.11.05a.65.65,0,0,1-.16-.13s-.06-.07-.08-.07a1.16,1.16,0,0,1,.06-.16.41.41,0,0,1,.23-.27c.08,0,.13-.1-.19-.67a4.93,4.93,0,0,0-.34-.54.85.85,0,0,0-.51.15,2.32,2.32,0,0,1-.3.22l-.15.06-.7.45a5.15,5.15,0,0,0,.36.7c.1.13.2.26.27.37l0,0,.16,0,.13-.06.07,0c.08,0,.18.06.29.2a.19.19,0,0,1,0,.15h0s-.13.14-.4.29a4.08,4.08,0,0,0-.78.52l-.08.06c-.15.09-.29,0-.41-.12Z" style="fill:#533e34"/><path d="M60.38,43.51l0,.08.1.26a1.65,1.65,0,0,0,.62-.14.94.94,0,0,0,.54-.42,1.44,1.44,0,0,1,.05-.24c0-.16.07-.33.08-.41.22,0,.23,0,.29.15s.08.33.18.87a.7.7,0,0,1-.26.19H62l-.14,0-.14,0-.15.08a3.69,3.69,0,0,0-.45.11l-.54.25-.38.17-.16.09-.22.11c-.17.07-.28.07-.36,0h0l-.06-.09.08-.2.31-.2h.06a1.29,1.29,0,0,0-.06-.4l-.48-1.15,0-.13a.25.25,0,0,0,0-.17.43.43,0,0,1-.05-.15v-.06L59,42.06c0-.08-.07-.15-.11-.22v-.12a.57.57,0,0,0,0-.14,1.27,1.27,0,0,0-.31-.42c-.32.1-.51,0-.61-.22v-.06a.19.19,0,0,1,.07-.11,5.36,5.36,0,0,1,.77-.26l.19-.06.61-.3,1-.38h.11a.12.12,0,0,1,.08,0h0l.05.08a5.08,5.08,0,0,1,.28.86.57.57,0,0,1-.13.14,1.06,1.06,0,0,1-.4-.23.43.43,0,0,0-.12-.11,1.77,1.77,0,0,0-.72.17,1.82,1.82,0,0,0-.31.16,1.8,1.8,0,0,0,.11.56l.27.61a1.65,1.65,0,0,0,.57-.14.82.82,0,0,0,.25-.16h0a.65.65,0,0,0,0-.24v-.06a.59.59,0,0,1,.19-.43,1.07,1.07,0,0,1,.36.48.58.58,0,0,0,0,.34l.28.66-.09.05-.08.06a.18.18,0,0,1-.16,0,2.44,2.44,0,0,1-.23-.33l-.18-.09h0l-.55.2a.7.7,0,0,0-.17.09,1.61,1.61,0,0,0,.13.49Z" style="fill:#533e34"/><path d="M62.86,42.26a1.64,1.64,0,0,1-.29-.36l0-.1a3,3,0,0,1-.12-.65.61.61,0,0,0,0-.19v0a1.69,1.69,0,0,1,0-.45A2.55,2.55,0,0,1,63.2,39h0a1.28,1.28,0,0,1,.3-.17l.32-.2.33-.1c.61-.19,1-.21,1.13,0h0a.53.53,0,0,1,.24.34,1.18,1.18,0,0,1,0,.37l-.23.07a1.29,1.29,0,0,0-.85-.25,3.91,3.91,0,0,0-.44.26h0a1.78,1.78,0,0,0-.69.82,1.63,1.63,0,0,0,0,1l.13.33a2.29,2.29,0,0,0,.31.65,1.73,1.73,0,0,0,1.57.39,1,1,0,0,0,.44-.26l.18-.36c0-.07.06-.1.08-.13s.13-.24.23-.27h0c.06,0,.09,0,.1.07l.08.13c0,.1,0,.2,0,.3v0a.6.6,0,0,0,0,.19.6.6,0,0,0-.14.21,5.16,5.16,0,0,1-.61.43H65.6l-.19,0a2.28,2.28,0,0,1-2.15-.4Z" style="fill:#533e34"/><path d="M67.27,41.8a2.12,2.12,0,0,1,.36-.21l.07-.14h0l-.19-.65c0-.14-.07-.28-.1-.38v-.13a2,2,0,0,0-.08-.5,6.29,6.29,0,0,0-.17-.62L67,38.56a.43.43,0,0,0-.25-.07.45.45,0,0,1-.39-.33.36.36,0,0,0,.11-.16.42.42,0,0,1,.25-.16.54.54,0,0,1,.18,0h.26l.54-.14a.82.82,0,0,1,.31,0l.09.07a.13.13,0,0,1,.06.07v.28l-.13.06s-.09.06-.17.12h0c-.11,0-.19.09-.09.65l.11.28a1.32,1.32,0,0,0,.08.33h.43l.42-.07.25-.06c.25,0,.47-.09.71-.16l0-.11,0-.19c-.13-.61-.25-1-.35-1h-.21c-.1,0-.15-.09-.21-.26s0-.19.15-.26l.43-.09a2.21,2.21,0,0,0,.5-.15,1.61,1.61,0,0,1,.62,0h0l.12.09v.11c0,.18-.17.24-.35.34h-.06a4.54,4.54,0,0,0,.14,1v.09a5.31,5.31,0,0,0,.13.71c.07.35.12.57.17.77a6.21,6.21,0,0,0,.2.61.81.81,0,0,0,.38,0l0,0a.28.28,0,0,1,.16.23v.1l-.16.11-.06,0a.62.62,0,0,0-.38,0,4.74,4.74,0,0,0-.57.16H70.4l-.29.09H70a.66.66,0,0,1-.12-.17l0-.09.1-.13a.44.44,0,0,1,.3-.2c.09,0,.15,0,0-.69a4.37,4.37,0,0,0-.17-.62.92.92,0,0,0-.52,0,2.42,2.42,0,0,1-.35.12H69l-.8.22a5.26,5.26,0,0,0,.12.78,2.85,2.85,0,0,1,.16.43v0l.15.08h.22c.08,0,.16.11.22.27a.18.18,0,0,1-.08.13h0a1.14,1.14,0,0,1-.47.16,4,4,0,0,0-.9.26l-.1,0a.31.31,0,0,1-.34-.24Z" style="fill:#533e34"/><path d="M72.26,39.87a4.94,4.94,0,0,1-.22-.94,1.41,1.41,0,0,1,0-.41,2.43,2.43,0,0,1,.93-1.6h0c.14-.12.62-.19.72-.32a2.25,2.25,0,0,1,2.53,1.93c0,.07,0,.13,0,.19A1.48,1.48,0,0,1,76,39.8h0a2.09,2.09,0,0,1-1.39,1.28h0a.66.66,0,0,1-.2.06,2.2,2.2,0,0,1-1.93-1,2.75,2.75,0,0,0-.22-.26Zm.56-1.58a1.4,1.4,0,0,0,0,.5,3.15,3.15,0,0,0,.09.42v0c.18,1,.8,1.48,1.47,1.41s1.19-.88,1.07-1.93-.73-1.68-1.48-1.6h0a3.13,3.13,0,0,1-.51.19A1.46,1.46,0,0,0,72.82,38.29Z" style="fill:#533e34"/><path d="M80.31,39.05a.39.39,0,0,1,.06-.11h0a8.65,8.65,0,0,0,.42-1l.1-.06v0a14.92,14.92,0,0,1,.77-1.73h.18a3.55,3.55,0,0,1,.21.44h0a3.78,3.78,0,0,1,.1.57l.28,1h0a.17.17,0,0,1,0,.1v.08a6.65,6.65,0,0,1,.38,1.32c.06.37.09.53.44.61h0a.29.29,0,0,1,.18.29.33.33,0,0,1-.33.19h0a1.58,1.58,0,0,0-.38-.05h-.42a2.43,2.43,0,0,1-.47-.08.28.28,0,0,0-.06-.16.78.78,0,0,0,0-.14c.2-.06.39-.16.39-.21h0s0-.19-.11-.48L82,39.05c0-.17-.12-.21-.49-.22h-.21a1,1,0,0,1-.25.07,2.12,2.12,0,0,0-.45,1.18c.28.16.45.15.44.45h0a.3.3,0,0,0-.12.13l-.71-.06h-.09a4.32,4.32,0,0,1-.62,0l-.06-.11h0c0-.06-.06-.09,0-.27l.39-.2.24-.15h0A6.91,6.91,0,0,1,80.31,39.05Zm1.41-.74v-.2c0-.11-.09-.55-.21-.59a2.33,2.33,0,0,0-.3.69s0,.09-.06.08h0s.1,0,.17,0Z" style="fill:#533e34"/><path d="M88.81,41.12c-.13,0-.25-.26-.34-.82l-.13-.8c-.12-.39-.21-.67-.28-.85v-.14c0-.15,0-.33-.12-.36h0v.28c0,.32-.22.61-.29,1,0,0,0,.34-.11,1l.61.47c-.1.24-.19.22-.41.18S87.4,41,87.35,41c-.41-.06-.62,0-.73-.06-.33-.05-.31-.26-.29-.38l.22-.13c.1,0,.27,0,.33,0l.13-.12a4.21,4.21,0,0,1,.16-.61l.07-.45a4.05,4.05,0,0,1,.2-.76v-.25a4.79,4.79,0,0,0,.21-.74c0-.17-.66-.31-.67-.56h0a1,1,0,0,1,0-.24l.21-.13c1.12.19,1.3.33,1.35.93v.06c.1.36.2.61.26.88l.09.34.1.65h0c.07.29.14.46.21.5a17.91,17.91,0,0,1,1.06-1.79.61.61,0,0,0,.15-.26,1.27,1.27,0,0,0,.25-.49.8.8,0,0,0,.25-.11,8.86,8.86,0,0,1,1.11.25v.07a.24.24,0,0,1,0,.12c0,.08-.07.18-.36.19a1.33,1.33,0,0,0-.28,0h0a.44.44,0,0,0-.17.27c0,.09,0,.55,0,.61a.36.36,0,0,1,0,.11v0a3.66,3.66,0,0,1-.06.48,1.05,1.05,0,0,1-.06.24h0a2.22,2.22,0,0,1-.09.37,2.16,2.16,0,0,0,0,.36v0a2.55,2.55,0,0,1-.11.33h0a.38.38,0,0,0,.18.42h0c.29.18.5.2.47.37a.3.3,0,0,1-.32.16l-.21-.08h0a4.21,4.21,0,0,1-.53-.08c-.74-.12-.86-.24-.88-.39s.3-.16.49-.15a3.23,3.23,0,0,0,.3-1.06c.06-.38.17-1,0-1.1h0c-.12,0-.35.5-.48.64h0a5.52,5.52,0,0,1-.42.75,1.28,1.28,0,0,0-.26.47C89.1,40.88,88.9,41.13,88.81,41.12Z" style="fill:#533e34"/><path d="M93.09,40.55s0,0,.09-.09h0a6.3,6.3,0,0,0,.62-.87l.11,0v0A11.37,11.37,0,0,1,95.05,38l.17,0a2.46,2.46,0,0,1,.1.47h0a2.72,2.72,0,0,1,0,.57l.05,1h0a.31.31,0,0,1,0,.1v.09a7,7,0,0,1,.07,1.37c0,.38,0,.53.29.72h0a.31.31,0,0,1,.12.32.34.34,0,0,1-.38.1h0a2.43,2.43,0,0,0-.38-.13l-.4-.1a2.44,2.44,0,0,1-.44-.19.25.25,0,0,0,0-.17l.09-.12a.64.64,0,0,0,.43-.12V40.88c0-.17-.07-.24-.43-.33l-.2-.06h-.27c-.55.61-.56.65-.7,1,.23.22.4.26.32.54h0a.45.45,0,0,0-.14.1L92.63,42h-.15a3.2,3.2,0,0,1-.62-.09l0-.12h0c0-.07,0-.1,0-.28l.42-.1a.79.79,0,0,0,.27-.1h0C92.75,41,92.92,40.74,93.09,40.55Zm1.55-.4,0-.2c0-.1,0-.55-.08-.61a2.47,2.47,0,0,0-.45.61s-.07.07-.07.06h.2Z" style="fill:#533e34"/><path d="M98.09,40c.07-.17.07-.3-.19-.46s-.22-.11-.19-.44A.61.61,0,0,1,98,39h.08l.39.17.16.07c.42.17.44.24.48.62h0c0,.11.15.46.24.7.14.52.24.92.32,1.17h0c.37.9.4,1.27.6,1.43a1.11,1.11,0,0,0,.14-.29l0-.12c0-.13.08-.26.13-.39h0a2.8,2.8,0,0,1,.15-.43l.13-.33.11-.21c.2-.51.14-.56,0-.61h0a.16.16,0,0,1-.13,0h0a.4.4,0,0,1-.12-.1h0c-.07,0,0-.14,0-.32l.16-.08a.53.53,0,0,1,.35,0l.51.24.61.18a.66.66,0,0,1,0,.28c-.07.17-.22.23-.44.14h0c-.08,0-.17,0-.27.24l-.1.26a.41.41,0,0,1,0,.22.83.83,0,0,1-.07.13,6.42,6.42,0,0,0-.54,1.16c-.09.24-.31.9-.47,1.3s-.21.32-.37.27c-.11-.33-.21-.61-.25-.77h0a8.37,8.37,0,0,1-.51-1.56h0l-.38-.84,0-.16c0-.15-.1-.33-.12-.46h0a.72.72,0,0,0-.24-.41.11.11,0,0,0,0,.09l0,.08a.59.59,0,0,0-.1.17l0,.12c-.07.18-.08.31-.1.35-.1.28-.2.49-.28.7-.21.56-.29.91-.22,1a1.73,1.73,0,0,0,.31.14l.19.07a.7.7,0,0,1,0,.38.18.18,0,0,0-.14,0c-.36-.16-.88-.37-1.43-.57a.42.42,0,0,1,0-.33c.45.05.57,0,.65-.19v-.08l0-.17c0-.14.24-.49.35-.77l.06-.23a3.78,3.78,0,0,0,.27-.53,3.38,3.38,0,0,0,.08-.34,3,3,0,0,1,.21-.41Z" style="fill:#533e34"/><path d="M101.94,43.79a4.93,4.93,0,0,1,.35-.9,1,1,0,0,1,.23-.34,2.37,2.37,0,0,1,1.65-.82h0a4.7,4.7,0,0,0,.78.13,2.25,2.25,0,0,1,1.06,3l-.09.17a1.49,1.49,0,0,1-.78.78h0a2.12,2.12,0,0,1-1.87.3h0a.65.65,0,0,1-.2,0A2.23,2.23,0,0,1,102,44.15a1.88,1.88,0,0,0,0-.33Zm1.35-1a1.5,1.5,0,0,0-.3.4,2.78,2.78,0,0,0-.16.4v0c-.42,1-.15,1.69.45,2s1.48-.08,2-1,.32-1.84-.35-2.15h0a4.56,4.56,0,0,1-.53-.13,1.44,1.44,0,0,0-1,.45Z" style="fill:#533e34"/><path d="M36.86,54.7a2.42,2.42,0,0,0,.53-.81c.13-.29.23-.62.35-.88l.9-1.36.76-1.44,1-1.27,1.07-1.22,1-1.28,1.16-1.15,1.18-1.13,1.34-.94,1.38-1,1.4-1,1.42-.91,1.42-.93,1.5-.78,1.46-.88,1.59-.6,1.54-.72,1.6-.56,1.61-.53,1.57-.68,1.68-.29L66,34l1.65-.39,1.65-.41L71,32.9l1.7-.11,1.68-.28,1.69-.11h1.7l1.7-.24,1.69.18,1.7-.13,1.7.13,1.67.34,1.69.16,1.7.08,1.65.43,1.66.34,1.66.34,1.69.28,1.6.57,1.65.43,1.55.79,1.64.45,1.56.68,1.5.8,1.5.78,1.53.75,1.5.8,1.33,1.08,1.44.89,1.4,1,1.28,1.11,1.18,1L118,46.62l1.17,1.07,1,1.23,1,1.26.87,1.11a2.76,2.76,0,0,0,1,.37c.65.15.53-.17.32-.67a17.28,17.28,0,0,0-1-1.7l-1.09-1.23-1.1-1.23-1.05-1.27-1.13-1.19-1.36-.95-1.22-1.23-1.47-1-1.39-1L111,39.34l-1.47-.92L108,37.51l-1.61-.68-1.56-.78-1.55-.78-1.67-.52L100,34l-1.7-.41L96.69,33,95,32.72l-1.68-.44L91.56,32l-1.69-.45-1.73-.23-1.74-.09-1.73-.13-1.73-.26-1.75,0H79.45l-1.74.05L76,31.05l-1.73.18H72.48l-1.73.23-1.69.44-1.72.27-1.72.29L64,33l-1.68.45L60.63,34,59,34.51l-1.65.57-1.6.7-1.59.71-1.56.79-1.5.88L49.52,39l-1.43,1-1.38,1.06-1.35,1.1-1.28,1L42.9,44.31l-1.17,1.13-1.16,1.15-1.15,1.17-.88,1.39-.85,1.4-.89,1.36L36,53.35a4.32,4.32,0,0,0-.44,1c-.08.43-.4.94.52.61a1.66,1.66,0,0,0,.31-.12C36.57,54.7,36.74,54.75,36.86,54.7Z" style="fill:#533e34"/><path d="M121,76.2c-.44.24-.77.87-1.06,1.22l-1.13,1.22-1.2,1.17-1.29,1.08L115.07,82l-1.41,1-1.41.93L110.93,85l-1.55.72-1.44.88-1.48.84-1.55.79-1.64.48-1.56.67-1.63.48-1.6.56-1.6.57-1.64.45-1.69.23-1.64.46-1.69.2-1.69.15-1.68.28h-1.7l-1.7.1-1.69,0-1.7.11h-1.7l-1.68-.3-1.71,0-1.68-.37-1.71-.07-1.65-.41-1.69-.2-1.63-.5L65,90.8l-1.61-.52-1.66-.4-1.59-.58-1.58-.62L57,87.87l-1.61-.56L54,86.42l-1.54-.74-1.39-1L49.49,84l-1.37-1-1.35-1-1.22-1.16-1.31-1.06-1.19-1.23-1.21-1.23-1.07-1.31-.94-1.41-1.06-1.27-.7-1.55-.91-1.43a4.52,4.52,0,0,0-.75-1.9c-.15-.14-.4,0-.61-.11s-.34-.28-.55-.28c-.57,0,.13,1.38.22,1.67l.65,1.59L37,72.71l.75,1.55,1,1.41,1.22,1.23,1,1.4,1.22,1.23,1.22,1.17,1.21,1.17L45.88,83l1.41,1,1.49.91,1.42,1,1.46,1,1.61.7,1.55.78,1.59.71,1.59.77,1.62.62,1.65.54,1.64.62,1.64.62,1.71.39,1.69.45,1.73.24,1.72.26,1.73.15,1.73.27,1.72.29,1.75-.08,1.74.11,1.74.16,1.74-.27,1.73-.09H87l1.72-.3,1.73-.23,1.73-.22,1.72-.26,1.69-.46,1.68-.44,1.69-.4,1.61-.66,1.65-.57,1.69-.46,1.59-.71,1.51-.89,1.62-.64,1.48-.92,1.49-.91,1.49-.89,1.39-1.07,1.42-1L117.16,82,118.44,81l1.22-1.12,1.12-1.25,1.08-1.27c.25-.3.41-.66.66-.94.4-.45,0-.52-.46-.43l-.88.15A.67.67,0,0,0,121,76.2Z" style="fill:#533e34"/><path d="M120.89,63.82a.2.2,0,0,0,0-.11h-.07a.47.47,0,0,0-.27,0,.31.31,0,0,0-.06.16l0,.29a3.46,3.46,0,0,0,0,.79,2,2,0,0,1,0,.65c-.18.69-.42,2.1.09,2.12.28.07.31-1.22.38-1.7a4.49,4.49,0,0,0,0-1A6.8,6.8,0,0,1,120.89,63.82Z" style="fill:#533e34"/><path d="M127.35,60.24a25.35,25.35,0,0,1-.42,5.43c-.16.7-1.16,2.73-.55,2.89.5,0,.33-1,.57-1.43A11.1,11.1,0,0,0,128,62.06c0-.14-.09-.27-.08-.41C128.17,59.16,127.19,57.33,127.35,60.24Z" style="fill:#533e34"/><path d="M130.65,56.43a1.63,1.63,0,0,0-.47-1.22,5.79,5.79,0,0,0-2.09-.73,15,15,0,0,0-1.89-.15,13,13,0,0,1-2-.42,13.91,13.91,0,0,1-2.1-.68,2.27,2.27,0,0,0-.57-.2,1.62,1.62,0,0,0-.44,0,11.49,11.49,0,0,1-2.87,0c-.61-.11-1.13-.33-1.72-.42a18.81,18.81,0,0,0-2.12-.05c-1.06,0-2-.35-3.12-.37-.85,0-1.68.19-2.52.23-2,.11-4-.7-5.91-.27-.3.07-.59.16-.89.2a6.25,6.25,0,0,1-2-.23c-3.41-.63-7,.28-10.46.42a23.14,23.14,0,0,1-4.32-.23,7.3,7.3,0,0,0-1.4-.14,9,9,0,0,0-1.55.22,28.06,28.06,0,0,1-3.77.32L77,52.76c-3.06.13-6.18.21-9.27.33a4.17,4.17,0,0,0-.91.28,4.34,4.34,0,0,0-1,2.45c-.12.66-.19,1.31-.26,2l.25.2.49.42c.12.11.06.12.23.18a2.89,2.89,0,0,0,.83,0,14.28,14.28,0,0,0,1.74-.09c.56-.07.29-.5.53-.81s.61.2.67.46a4,4,0,0,0,.37.68c.12.19.13.43.23.61a6.09,6.09,0,0,0,.61,1,1.66,1.66,0,0,1,.23.31c0,.09.07.18.12.27a1.68,1.68,0,0,0,.2.34l.22.22c.07.1.13.2.19.3a4.3,4.3,0,0,1,.36.71c.1.28.22.53.14.61s-.1,0-.25-.1a8.54,8.54,0,0,1-.94-.77l-.17-.14a2,2,0,0,0-.61-.32,1.21,1.21,0,0,0-.55-.16c-.17,0-.33,0-.52,0-.83,0-1.58.08-2.36.07V62l-.13.61v.67l-.22.61-.36.55-.28.61-.39.51-.57.34-.3.41v.38a10.2,10.2,0,0,0,.05,1.23c0,.52.16,1,.23,1.54a7.49,7.49,0,0,0,.28,1.41,1.68,1.68,0,0,0,1,1,1.82,1.82,0,0,1,.71.28l4,.37c4.79.46,9.6.87,14.42,1.18A273.92,273.92,0,0,0,115,74.2q4-.17,8.09-.48c.89-.08,3.49-.15,4.23-.59a4.45,4.45,0,0,0,1.49-1.53C131.9,67.07,131.08,61.66,130.65,56.43ZM83.61,61a12.17,12.17,0,0,0-1,1c-.42.44-.74.82-1.3,1.41a7.22,7.22,0,0,1-.68.56c-.15.1-.58.48-.65.26a1.87,1.87,0,0,1,.34-.71c0-.06.31-.39.34-.45.14-.31.16-.3.24-.49s.39-.67.21-.83-.18-.06-.32-.07l-.68,0a.22.22,0,0,0-.16,0c-.07.06-.06.17-.1.25a.28.28,0,0,1-.21.13.53.53,0,0,1-.25,0l-1-.18-.32,0a9.92,9.92,0,0,0-1.09,0h-.54a.76.76,0,0,0-.42.06s-.09.08-.14.07a.26.26,0,0,0,0,.21.72.72,0,0,0,.09.2.88.88,0,0,1,0,.15.15.15,0,0,1,0,.14c-.15.16-.46,0-.61-.11l-.17-.07a.73.73,0,0,1-.31-.14l-.27-.23a2.75,2.75,0,0,0-.26-.22,1.83,1.83,0,0,1-.36-.26,3.71,3.71,0,0,1-.29-.27l-.51-.52s0,0,0-.07a.17.17,0,0,1,0-.1,1.3,1.3,0,0,1,.14-.32,2.79,2.79,0,0,1,.4-.61c.15-.17.32-.33.47-.51,0,0,.13-.22.24-.43a.91.91,0,0,1,.16-.11l.1-.07c.1-.1,0-.27,0-.41a.63.63,0,0,0-.5.2,2,2,0,0,0-.24.26l-.23.2a6.24,6.24,0,0,1-.62.46l-.15.14h0l-.07.1c-.09.13-.16.28-.26.42a.2.2,0,0,1-.23,0,1.18,1.18,0,0,1-.46-.37,2.43,2.43,0,0,1-.45-1.07,1.42,1.42,0,0,1,.15-1,.55.55,0,0,1,.19-.18,1.85,1.85,0,0,1,.61-.17c.29,0,.57-.14.85-.16a1.7,1.7,0,0,1,.45,0c.44,0,.89,0,1.33,0s.77,0,1.22,0h.16a.37.37,0,0,0,.21-.4,1.42,1.42,0,0,0-.12-.4c-.08-.21,0-.14-.16-.44s.18-.22.34-.12a3.2,3.2,0,0,1,.61.43l.35.33.33.31.76.74c.25.25.4.51.61.74l.14.15a1.64,1.64,0,0,1,.14.22,4.17,4.17,0,0,0,.29.44l.3.45c.18.26.4.54.7.54a.7.7,0,0,0-.07-.61l-.49-1.11c-.09-.22-.19-.43-.29-.62a8.1,8.1,0,0,1-.47-.93v-.1c0-.1.14-.14.23-.13.25,0,.43.23.66.32a3.32,3.32,0,0,0,1,.08,5.65,5.65,0,0,0,1.09-.07c.48-.05,1-.16,1.42-.18a3,3,0,0,0,2-.61,3.24,3.24,0,0,0,.62-.66,3.19,3.19,0,0,1,.32-.43.72.72,0,0,1,.45-.24c.17.07-.21,1-.38,1.45a16.35,16.35,0,0,1-1.23,2.48,6.21,6.21,0,0,1-.62,1,5,5,0,0,1-.61.61C84.12,60.55,83.86,60.77,83.61,61Zm13,1.28-.1-.12a1.7,1.7,0,0,0-2,.09c-.31.26-.52.61-.85.85l-.3.2a2.47,2.47,0,0,0-.37.35l-1,1.09a1.65,1.65,0,0,1-.37.33.56.56,0,0,1-.47.06.13.13,0,0,1-.07,0,.15.15,0,0,1,0-.16A13.26,13.26,0,0,1,92.33,63c.42-.61.9-1.22,1.31-1.83.13-.15.26-.29.4-.43a.38.38,0,0,0,.09-.32A.18.18,0,0,0,94,60.3a.18.18,0,0,0-.09.06l-.35.25-.15.12-.2.21c-.12.1-.29.11-.43.19s-.09.08-.14.13-.13.05-.2.09-.18.11-.28.17a1.61,1.61,0,0,1-.33.12,3.33,3.33,0,0,1-1.37,0H90.1a3.31,3.31,0,0,0-.42.12,2,2,0,0,1-.8,0h-.33a4.72,4.72,0,0,1-1.06-.12,3.8,3.8,0,0,0-1,0,.14.14,0,0,0-.09,0,.16.16,0,0,0-.08.06,3.42,3.42,0,0,1-.71.61c-.13.08-.27.13-.4.21a2,2,0,0,1-.26.15.39.39,0,0,1-.3,0,2.25,2.25,0,0,1,.45-1.05,8.75,8.75,0,0,0,.62-1.07A13.67,13.67,0,0,1,86.59,59c.18-.33.29-.69.44-1a5.25,5.25,0,0,1,1.1-1.34,3.83,3.83,0,0,1,3.35.49,6.78,6.78,0,0,1,.77.5A14.57,14.57,0,0,0,94,59.09c.42.36,1,.86,1.43,1.19a4.19,4.19,0,0,1,.54.49c.25.26.57.43.82.7l.45.47a.42.42,0,0,1,.11.16.92.92,0,0,1,0,.57.13.13,0,0,1,0,.09.14.14,0,0,1-.09,0,.34.34,0,0,1-.2,0,.43.43,0,0,1-.19-.21,2.49,2.49,0,0,0-.23-.31Zm16-1.47c0,.26-.07.51-.1.77a.18.18,0,0,1,0,.12l-.08,0c-.32.08-.61-.15-1-.23a4.67,4.67,0,0,0-1.29.12,2.6,2.6,0,0,0-1.28.28.5.5,0,0,1-.29.12c-.17,0-.25-.21-.28-.37a4,4,0,0,1,.12-1.74c.16-.56.39-1.1.58-1.66A.49.49,0,0,0,109,58a.24.24,0,0,0-.16-.22.5.5,0,0,0-.32.15,9.69,9.69,0,0,0-1.67,2.82,7.22,7.22,0,0,1-.86,1.44c-.22.26-.49.5-.69.78a6.84,6.84,0,0,1-.47.72.86.86,0,0,1-.75.35,1.43,1.43,0,0,1,.12-.58l.5-1.3c.08-.21.13-.5-.06-.62a.49.49,0,0,0-.21,0,12.46,12.46,0,0,0-2.44-.09.34.34,0,0,0-.17,0,.41.41,0,0,0-.08.24.49.49,0,0,0,0,.17.68.68,0,0,0,.18.26l.2.19.11.14a.26.26,0,0,1,0,.23h0a1,1,0,0,1-.61-.11,2.32,2.32,0,0,1-.53-.35,1.81,1.81,0,0,0-.21-.18,2.31,2.31,0,0,0-.35-.18c-.52-.24-.94-.67-1.47-.86a.52.52,0,0,1-.21-.14.54.54,0,0,0-.22-.15L98,60.36c-.43-.19-.84-.39-1.23-.61A10.1,10.1,0,0,1,94.3,58a12.75,12.75,0,0,1-.81-1.12,1.85,1.85,0,0,1-.3-.85.24.24,0,0,1,0-.12c0-.12.21-.14.32-.09a1.66,1.66,0,0,1,.27.26,3.47,3.47,0,0,1,.46.4,4.26,4.26,0,0,0,.54.41,1,1,0,0,0,.37.13,1.77,1.77,0,0,0,.72.09c.25-.06.48-.12.73-.16l1.14-.17a12.84,12.84,0,0,1,2.7-.14c.44,0,.8,0,.89.44A1.09,1.09,0,0,1,101,58c-.38.36.46.32.65.25a2.28,2.28,0,0,0,.8-.61,2.4,2.4,0,0,0,.25-.37c.09-.15.25-.22.35-.35s.21-.35.34-.51a2.43,2.43,0,0,0,.2-.25,2.53,2.53,0,0,0,.13-.22,1.58,1.58,0,0,1,.3-.28,2.34,2.34,0,0,1,.54-.34.31.31,0,0,1,.19,0c.29.06-.22.79-.28.92a1.1,1.1,0,0,0-.11.53c0,.35,1.39.23,1.6.33a1.25,1.25,0,0,1,.49.45,1.72,1.72,0,0,0,.25.35.43.43,0,0,0,.37.14.65.65,0,0,0,.34-.27l.25-.35A1.26,1.26,0,0,1,108,57a.87.87,0,0,1,.39-.07,1.56,1.56,0,0,1,.74.15,5,5,0,0,0,.94.18,18.43,18.43,0,0,1,2.58.14.26.26,0,0,1,.17.09.44.44,0,0,1,.08.35c0,.39-.07.79-.11,1.18C112.7,59.66,112.63,60.22,112.58,60.79Zm17,3.93a7,7,0,0,1-.23.9c-.13.39.09,1.84-.47,1.92h-.28c-.33,0-.57.33-.65.66a4.1,4.1,0,0,1-.21,1c-.14.3-.56.51-.82.3-.08-.08-.14-.19-.24-.24s-.38.07-.48.24a1.27,1.27,0,0,1-.34.48c-.33.21-.78-.15-.86-.53-.13-.57,0-1.14-.1-1.72a.75.75,0,0,0-.09-.29.26.26,0,0,0-.26-.13c-.12,0-.2.17-.24.3a2.44,2.44,0,0,0-.12.55,2.15,2.15,0,0,1-.11.55,1.34,1.34,0,0,1-.33.42,1.19,1.19,0,0,1-.23.16.54.54,0,0,1-.61-.28,1.18,1.18,0,0,1-.14-.55,13.71,13.71,0,0,1,.24-2.21c.1-.39-.08-.65,0-1,.42-1.5.25-4.82-.14-4.79s-.22.93-.22,1.46c0,.86-.1,1.72-.17,2.57s-.13,1.72-.2,2.58c0,.43-.08.85-.12,1.29,0,.08-.06.4-.11.71a2.58,2.58,0,0,1-.23.54.58.58,0,0,1-.42.37.49.49,0,0,1-.4-.18,1.2,1.2,0,0,1-.2-.41l-.26-.79a.09.09,0,0,0,0-.07h-.09a.63.63,0,0,0-.3,0,.78.78,0,0,0-.28.29.41.41,0,0,1-.35.2.3.3,0,0,1-.23-.19,4.11,4.11,0,0,1-.13-.7,3.14,3.14,0,0,1,0-.75,7.75,7.75,0,0,0,0-1.18.67.67,0,0,0,0-.24.26.26,0,0,0-.19-.13.22.22,0,0,0-.19.14.53.53,0,0,0,0,.25A9.77,9.77,0,0,1,118.3,68a.11.11,0,0,1,0,.08.11.11,0,0,1-.08,0,.46.46,0,0,1-.4-.23,1.31,1.31,0,0,1-.16-.43,7.73,7.73,0,0,1-.23-1,3.94,3.94,0,0,0,0-.68c0-.4-.07-.91-.44-1.15s-.75,2-.75,2.25.1.61-.11.79a1.21,1.21,0,0,1-.46-1.23c.06-1.44,1-3,.55-4.4a3.62,3.62,0,0,1-.17-.56,2.62,2.62,0,0,1,0-.56c.07-.54.15-1.09.26-1.63.17-.85-.22-1.56.08-2.38.16-.42.17-1.14.81-1.26,1.35-.27,1.65,3.56,1.69,4.29.08,1.43-.29,4.17,0,4.28.51.08.66-1,.73-1.53a27.29,27.29,0,0,0,.27-3.83.89.89,0,0,1,.06-.39.24.24,0,0,1,.06-.08h.1a.45.45,0,0,1,.25.05.3.3,0,0,1,.11.23,6.09,6.09,0,0,1,0,.74c0,.24.05.45.06.69a13.49,13.49,0,0,0,.25,1.69.4.4,0,0,0,.48-.14.71.71,0,0,0,.08-.45q-.14-3-.46-6a1.76,1.76,0,0,1,1.74.41,2.26,2.26,0,0,1,.61,1.47,8.58,8.58,0,0,1,0,.88,1.79,1.79,0,0,0,0,.61v.12a.62.62,0,0,0,.65-.19,1,1,0,0,0,.17-.61,9.14,9.14,0,0,0-.06-1.28c0-.38-.19-.75-.22-1.14v-.06s.07,0,.12,0h.2a.38.38,0,0,1,.25.08.31.31,0,0,1,.09.11,2.89,2.89,0,0,1,.36.91,5.85,5.85,0,0,0,.34.91,4.79,4.79,0,0,1,.18,2.19,11.74,11.74,0,0,0-.13,4c.68-.16.78-2.1,1-2.57a2.41,2.41,0,0,0,.09-1c0-.8-.08-1.6-.13-2.4a3.53,3.53,0,0,0-.25-1.36c-.06-.14-.3-.42-.09-.54a.59.59,0,0,1,.22,0,2,2,0,0,1,.43,0,8.44,8.44,0,0,1,1.22.33,1.79,1.79,0,0,1,.61.23c.36.25.36.7.53,1.06s.46.62.6,1a2.48,2.48,0,0,1,.17,1.17c0,1.77.41,3.58.07,5.3Z" style="fill:#533e34"/><path d="M54.9,69.84a5.68,5.68,0,0,1-.26-1.29c-.07-.47-.18-.93-.22-1.4s0-.67,0-1l-.38-.35-.43-.47-.42-.5-.29-.58-.26-.61L52.4,63l-.09-.62-.07-.65,0-.22a4.82,4.82,0,0,0-2.18-.24c-.22.06-.9.35-1.09.08a.25.25,0,0,1,0-.14,2,2,0,0,1,.27-1.09c.1-.16.27-.29.32-.49s-.23-.29-.43-.18a1.58,1.58,0,0,0-.34.29,6.84,6.84,0,0,0-.61.72,2.16,2.16,0,0,1-.49.51,4.19,4.19,0,0,1-2,.3s-.07,0-.08,0a.08.08,0,0,0,0,.07,2.68,2.68,0,0,1,.18.47c0,.13-.08.28-.21.28a.38.38,0,0,1-.17-.08,7,7,0,0,1-.81-.73,3.82,3.82,0,0,0-.45-.45,8.48,8.48,0,0,1-.78-.47,2.22,2.22,0,0,1-.43-.62.8.8,0,0,1-.12-.43c.08-.37.49-.32.76-.32A6.86,6.86,0,0,0,45,59a11.28,11.28,0,0,1,1.83-.49,4.6,4.6,0,0,1,.66.07c.3,0,.6,0,.9,0,.73,0,1.45-.05,2.18-.06h.09a.09.09,0,0,1,0,.07,2,2,0,0,1-.19.88.28.28,0,0,0,0,.18c0,.08.13.09.2.08a.88.88,0,0,0,.48-.43,2.25,2.25,0,0,1,.54-.57,3.73,3.73,0,0,1,1.84-.23l.32-.25.35-.58.57-.32.16-.1c.06-.39.12-.78.2-1.17a3.93,3.93,0,0,1,1-2.17c-1,.11-2,.23-2.93.38a93.56,93.56,0,0,1-9.74.93,8.42,8.42,0,0,0-1,.09,8.66,8.66,0,0,0-1.34.41c-.55.19-1.12.34-1.68.5a13.3,13.3,0,0,1-2.08.46,45.6,45.6,0,0,0-7.76,1.48c-1.65.49-3.36,1.82-3,3.74a3.48,3.48,0,0,0,.34.9,3.15,3.15,0,0,0,.45.69,3.09,3.09,0,0,0,1.08.59,6.61,6.61,0,0,0,1.39.36,10.88,10.88,0,0,1,2.81.62,11.12,11.12,0,0,0,1.44.68c1.13.33,2.34,0,3.47.29s1.91.93,2.9,1.24c1.83.62,3.9.63,5.82,1.08,1.35.3,2.62.79,3.94,1.16a42.63,42.63,0,0,0,5.13,1h.11A1.72,1.72,0,0,1,54.9,69.84ZM42,61.68a.09.09,0,0,1,0,.07.56.56,0,0,0-.26-.17l-.1,0,0,0a.73.73,0,0,0-.73-.25,3.18,3.18,0,0,0-.61.14c-.09.06-.12.18-.21.24a.37.37,0,0,1-.31,0,5,5,0,0,1-1-.45,2.54,2.54,0,0,0-.92-.33,8.51,8.51,0,0,1-1,0,.53.53,0,0,1-.43-.49,1,1,0,0,1,.5-.56,1.87,1.87,0,0,1,.48-.11l2-.28c.28,0,.55,0,.82-.1a.86.86,0,0,0,.23-.06.57.57,0,0,0,.2-.26l.1-.2a.1.1,0,0,1,0-.05h.07a.75.75,0,0,1,.69.25,8.7,8.7,0,0,1,.65,1.09,2.86,2.86,0,0,1,.34.76,4.19,4.19,0,0,1,.23,1.05.14.14,0,0,1,0,.09.11.11,0,0,1-.07,0,.7.7,0,0,1-.61-.16c-.21-.19-.31-.49-.56-.58s-.65.07-.95.1" style="fill:#533e34"/><path d="M49,77.69l.32.15a.75.75,0,0,0,.33-.25.57.57,0,0,0,.11-.11l.13-.22.08-.14.08-.07h0a2.22,2.22,0,0,0,.28-.33l.18-.26.2-.27.52-.57c.11-.17.16-.32.1-.44L51.05,75s0-.06,0-.1a1.86,1.86,0,0,1,.1-.25h.16a1,1,0,0,1,.41.19l.65.5.13.1a.28.28,0,0,0,.17.07l.08,0a1.81,1.81,0,0,1,.56.75.94.94,0,0,1-.05,1,1.14,1.14,0,0,1-.19.19.85.85,0,0,1-.22.09h0a1.14,1.14,0,0,0-.36.15A1.23,1.23,0,0,1,52.28,79a1.14,1.14,0,0,1-1.11.51,2.29,2.29,0,0,1-1.08-.45l-.2-.19a1,1,0,0,0-.17-.18c-.43-.32-.77-.54-1-.66a1.31,1.31,0,0,0,0-.28c.05,0,.13,0,.14,0Zm1.67-.23-.12.13a3.56,3.56,0,0,0-.23.29,1.44,1.44,0,0,0-.19.31v.11h0a.83.83,0,0,1,0,.15h0a.4.4,0,0,0,.15.17.84.84,0,0,0,.27.13l.25.2a1,1,0,0,0,.61-.17,1.68,1.68,0,0,0,.29-.24.66.66,0,0,0,0-.8,2.36,2.36,0,0,0-.6-.62H51ZM51.82,76a2.86,2.86,0,0,0-.4.38.27.27,0,0,0,0,.38s0,0,0,0l0,.05.05.07a1.46,1.46,0,0,0,.36.16l.13.09a.61.61,0,0,0,.61-.34l.08-.12v-.34h0a.34.34,0,0,0-.17-.29,1.21,1.21,0,0,0-.39-.39H52l-.15.18Z" style="fill:#533e34"/><path d="M53,79.53a5,5,0,0,1,.39-.89,1.11,1.11,0,0,1,.25-.32,2.42,2.42,0,0,1,1.72-.72h0c.19,0,.61.21.78.17a2.29,2.29,0,0,1,.91,3.1L57,81a1.47,1.47,0,0,1-.84.73h0a2.12,2.12,0,0,1-1.91.18h0a.47.47,0,0,1-.2-.06,2.28,2.28,0,0,1-1-2,1.93,1.93,0,0,0,0-.34Zm1.42-.92a1.18,1.18,0,0,0-.32.38,2.33,2.33,0,0,0-.19.39v.05a1.43,1.43,0,0,0,.35,2,1.63,1.63,0,0,0,2-.89c.53-.9.4-1.8-.26-2.19h0a2.52,2.52,0,0,1-.53-.17A1.48,1.48,0,0,0,54.42,78.61Z" style="fill:#533e34"/><path d="M58.92,80.25h0c0-.06,0-.13-.18-.27a.37.37,0,0,1-.24-.33h0v-.1l.08-.13h.24c.07,0,.48.28.67.37s.52.17.73.27a1.27,1.27,0,0,1,.87,1h0a1.15,1.15,0,0,1-.09.71.66.66,0,0,1-.17.23h0a.91.91,0,0,1-.85.37.06.06,0,0,0-.06,0h0A6,6,0,0,1,60,83.49a3.14,3.14,0,0,0,0,.61h0c0,.08.37.43.24.71l-.21.06a3.2,3.2,0,0,1-.76-.44h0a.49.49,0,0,1-.06-.41h0a4.23,4.23,0,0,0,0-.5v-.24a2.12,2.12,0,0,1-.06-.79h0a.44.44,0,0,0-.26-.38c-.07,0-.27.31-.41.61s-.14.39-.24.61a.66.66,0,0,1,.06.2l.14.06a.5.5,0,0,1,.09.35.13.13,0,0,1-.06.07h0a.47.47,0,0,1-.43-.05l-.12,0a2.41,2.41,0,0,0-.48-.3c-.08,0-.3-.08-.46-.15s-.16-.25-.12-.39h0l.1,0c.31,0,.54,0,.61-.15s.11-.33.14-.38a.31.31,0,0,1,0-.1h0a2.15,2.15,0,0,0,.14-.26c.06-.13.13-.31.24-.56a3.09,3.09,0,0,1,.21-.42l.06-.12a2,2,0,0,0,.1-.26l0-.14Zm.74.29a3,3,0,0,0-.4.75l-.14.3c0,.06.06.1.1.12.2,0,.77.43,1.09-.27a.76.76,0,0,0-.41-1h0a.2.2,0,0,0-.16.07Z" style="fill:#533e34"/><path d="M62.7,82c.06-.17.07-.29-.2-.45s-.24-.11-.22-.44a.92.92,0,0,1,.27-.08h.08l.41.16.13,0c.44.15.47.22.51.61h0c0,.12.16.46.27.7.16.52.28.92.37,1.18h0c.42.89.46,1.27.68,1.42a1.11,1.11,0,0,0,.14-.29l0-.12a2.63,2.63,0,0,1,.12-.4h0a3.09,3.09,0,0,1,.14-.43l.11-.34.11-.21c.18-.52.12-.56,0-.62h0l-.13,0h0a.43.43,0,0,1-.12-.11h0c-.08,0-.06-.13-.06-.32l.15-.08a.53.53,0,0,1,.35,0l.54.22.66.17a.53.53,0,0,1,0,.28c-.06.18-.22.23-.44.16h0c-.08,0-.18,0-.27.24l-.08.27a.81.81,0,0,1,0,.22.83.83,0,0,1-.07.13,6.1,6.1,0,0,0-.51,1.17c-.08.25-.28.92-.43,1.32s-.21.33-.36.28c-.13-.33-.23-.62-.29-.78h0a7.66,7.66,0,0,1-.6-1.55h0l-.42-.82,0-.17c0-.15-.12-.33-.14-.45h0a.68.68,0,0,0-.27-.41.19.19,0,0,1,0,.09v.09a.39.39,0,0,0-.1.16l0,.13a1.9,1.9,0,0,0-.09.36c-.09.27-.18.48-.26.7-.19.56-.26.92-.19,1a2.26,2.26,0,0,0,.33.13l.19.07a.7.7,0,0,1,0,.38.18.18,0,0,0-.14,0c-.38-.14-.92-.35-1.47-.54a.47.47,0,0,1,0-.33c.47,0,.61,0,.65-.21v-.08l0-.17c.05-.14.23-.49.32-.77l.06-.24a5.28,5.28,0,0,0,.27-.53c0-.17,0-.25.06-.35a4,4,0,0,1,.2-.42Z" style="fill:#533e34"/><path d="M68.73,87.17h0c.06-.06.12-.11.43-.13h0a.49.49,0,0,0,.25-.17l.51-2.9a.47.47,0,0,0-.27-.25c-.12-.09-.13-.19-.09-.38a.46.46,0,0,1,.42-.12l.66.19a1.72,1.72,0,0,1,.39,0,.48.48,0,0,1,.2.07h0a.34.34,0,0,1,.15.36c0,.12-.15.17-.35.2h0a.71.71,0,0,0-.25.06l-.2,1a1.47,1.47,0,0,0-.08.28v.11c0,.11-.07.22-.09.33a2,2,0,0,0-.05.42.21.21,0,0,1,0,.11v.1a1.12,1.12,0,0,1-.08.3l0,.16a1.73,1.73,0,0,1,0,.27c.24.12.41.33.38.46v.08l-.13,0s0,0,0,0l-.34,0c-.9-.19-1.28-.29-1.31-.52Z" style="fill:#533e34"/><path d="M72.54,84.74c0-.19,0-.31-.3-.41s-.25-.06-.29-.39a.7.7,0,0,1,.24-.13h.09l.42.07h.15c.45.07.49.13.61.49h0c0,.11.25.41.41.61a11.22,11.22,0,0,0,.61,1.08h0c.6.79.7,1.15,1,1.23a1.77,1.77,0,0,0,.08-.31v-.13a2.77,2.77,0,0,1,0-.41h0c0-.15,0-.3,0-.45l0-.35.07-.23c.07-.55,0-.57-.14-.62h-.19a.37.37,0,0,1-.14-.07h0c-.08,0-.09-.12-.12-.3l.13-.12a.6.6,0,0,1,.35,0l.56.12h.69a.46.46,0,0,1,.06.28c0,.19-.16.27-.41.24h0c-.08.06-.19,0-.22.29l0,.28a.41.41,0,0,1,0,.22.33.33,0,0,1,0,.14,6.8,6.8,0,0,0-.27,1.25c0,.26-.09,1-.15,1.38s-.14.36-.31.34c-.19-.29-.34-.54-.43-.69h0a8.89,8.89,0,0,1-.88-1.4h0L73.55,86l-.08-.16-.23-.41h0a.59.59,0,0,0-.34-.35v.18a.64.64,0,0,0-.06.18v.5c0,.29-.08.52-.11.74a2.28,2.28,0,0,0,0,1.06,1.07,1.07,0,0,0,.35.06h.21a.82.82,0,0,1,0,.38.13.13,0,0,0-.13.07c-.4-.08-1-.17-1.55-.24a.45.45,0,0,1-.11-.31c.47-.06.57-.14.62-.34v-.26c0-.15.13-.53.17-.83V86a5.47,5.47,0,0,0,.15-.58v-.34a2.46,2.46,0,0,1,.11-.45Z" style="fill:#533e34"/><path d="M79.09,85.78a.28.28,0,0,1-.16-.26,8.12,8.12,0,0,1,.42-1.13c.25,0,.47.25.57.25h.38a2.85,2.85,0,0,1,.51.07l0,0,.61,0h.12l.45.07a1,1,0,0,0,.38-.1h0a1.05,1.05,0,0,1,.43-.15h0c.13,0,.19.11.19.26s-.08.24-.1.41v.34a.33.33,0,0,1-.26.3c-.14,0-.19-.24-.22-.41h0a2.26,2.26,0,0,0-.92-.19c-.18,0-.21.25-.22.62v1h0a1.33,1.33,0,0,1,0,.28,1.22,1.22,0,0,1,0,.27v1c.1.06.13.14.26.14h.24c.1,0,.18.13.19.31s-.24.15-.51.15h-1a.78.78,0,0,0-.21,0h0a.43.43,0,0,1-.16,0,.3.3,0,0,1-.31-.25.31.31,0,0,1,0-.12l.09,0h0a.56.56,0,0,1,.31-.09h0c.19-.1.12-.06.25-.37h0a.2.2,0,0,0,0-.11,1.91,1.91,0,0,0,0-.33v0a.81.81,0,0,1,0-.22v-.74a4.22,4.22,0,0,0,0-.49V86a5.78,5.78,0,0,0,0-.72,1.71,1.71,0,0,0-.55,0h-.21a2,2,0,0,0-.37.44v.06c0,.17,0,.21-.12.21H79.1Z" style="fill:#533e34"/><path d="M83.58,87.3s0,0,.06-.12h0c.17-.53.26-.73.33-1l.09-.08v0a14.3,14.3,0,0,1,.62-1.81h.19c.13.21.23.36.25.41h0a4.94,4.94,0,0,1,.15.55l.37,1h0a.36.36,0,0,1,0,.09l0,.08a6.66,6.66,0,0,1,.5,1.28c.1.36.13.51.51.61h0a.3.3,0,0,1,.22.27.39.39,0,0,1-.33.22h0a1.88,1.88,0,0,0-.41,0l-.42,0a1.56,1.56,0,0,1-.48,0,.29.29,0,0,0-.08-.14l0-.14c.2-.09.38-.2.38-.25v0l-.16-.48-.18-.5c0-.17-.15-.21-.52-.18h-.21a.91.91,0,0,1-.25.11,2.12,2.12,0,0,0-.35,1.22c.3.14.47.11.49.41h0a.33.33,0,0,0-.12.14h-.82a4.09,4.09,0,0,1-.61.1l-.07-.1h0c-.06-.06-.07-.09-.09-.27l.39-.23a1.81,1.81,0,0,0,.23-.18h0A5.41,5.41,0,0,1,83.58,87.3ZM85,86.43l0-.2c0-.1-.15-.53-.27-.56a2.68,2.68,0,0,0-.25.72.59.59,0,0,1,0,.08h0s.1,0,.16,0Z" style="fill:#533e34"/><path d="M90,88.05c-.13,0-.32-.16-.61-.66L89,86.66c-.24-.33-.42-.57-.55-.72l-.06-.12c-.07-.14-.15-.3-.23-.31h0c0,.07,0,.19.06.28.06.32,0,.65,0,1.09,0,0,.07.32.21.93l.75.24c0,.26-.12.27-.35.31l-.41,0a6.86,6.86,0,0,0-.72.18c-.34.05-.38-.15-.4-.28l.17-.19c.09,0,.28,0,.32-.11l.09-.16a2.76,2.76,0,0,1,0-.64l-.07-.45a3.41,3.41,0,0,1,0-.78,1.11,1.11,0,0,0-.07-.26,3.88,3.88,0,0,0,0-.76c0-.16-.73-.08-.82-.32h0v0a.63.63,0,0,1-.07-.22l.16-.2c1.15-.18,1.36-.1,1.61.45v.06c.2.31.39.55.52.75l.2.3.31.61h0c.16.25.27.39.36.41a15.83,15.83,0,0,1,.46-2,.42.42,0,0,0,0-.29,1.22,1.22,0,0,0,.14-.56l.19-.18A7.74,7.74,0,0,1,92,83.56v0l0,.12c0,.06,0,.19-.3.3a1.19,1.19,0,0,0-.26.11h0a.42.42,0,0,0-.07.31c0,.08.13.54.14.61v.15c0,.09.06.3.09.47a1.13,1.13,0,0,1,0,.26h0a2.41,2.41,0,0,0,0,.38c0,.12.06.24.09.36v0a2,2,0,0,1,0,.35h0c0,.16.09.24.3.34h0c.35.08.56,0,.58.2s-.11.23-.25.25h-.24c-.17,0-.39.07-.53.09-.77.13-.92.05-1-.09s.24-.24.43-.29a3.13,3.13,0,0,0-.05-1.1c-.06-.38-.16-1-.32-1.06h0c-.11,0-.17.61-.24.75h0a6.11,6.11,0,0,1-.18.85,1.39,1.39,0,0,0-.1.53A.38.38,0,0,1,90,88.05Z" style="fill:#533e34"/><path d="M93.42,84.18a2,2,0,0,0-.16-.4h-.44a.56.56,0,0,1-.21-.29.47.47,0,0,0,.13-.15,1.45,1.45,0,0,1,.36,0l.17-.08a5.8,5.8,0,0,1,.71-.12v.09c0-.07,0-.19.09-.22l.81-.14a1.28,1.28,0,0,1,1.22.89,1.4,1.4,0,0,1-.89,1.74h-.38a1.31,1.31,0,0,0-.28,0h-.06a5.1,5.1,0,0,0,.13.68c.15.58.23.66.51.62a.27.27,0,0,1,.29.18c-.1.16-.15.21-.26.24a.62.62,0,0,0-.33,0,4.57,4.57,0,0,0-.61.24l-.31.08a.32.32,0,0,1-.29-.19l.14-.18.22-.11a.91.91,0,0,1,.09-.17h0c-.11-.42-.17-.76-.25-1a3.62,3.62,0,0,0-.17-.56v-.06a1.33,1.33,0,0,1,0-.34v0c0-.06-.11-.17-.13-.27v0S93.45,84.27,93.42,84.18Zm.77,0a2.09,2.09,0,0,0,.09.51l.1.4a1,1,0,0,0,.45,0,.77.77,0,0,0,.64-.88.43.43,0,0,0,0-.11.89.89,0,0,0-.61-.67h0a2.82,2.82,0,0,0-.57.09l-.19.21Z" style="fill:#533e34"/><path d="M97.18,85V84.9h0c0-.55.08-.78.07-1.08l.07-.09v0a13.39,13.39,0,0,1,.14-1.9l.18-.06c.12.11.24.22.35.34h0c.13.12.18.35.28.49l.61.85h0a.16.16,0,0,1,.06.08l.06.06a6.71,6.71,0,0,1,.81,1.11c.18.33.26.47.61.45h0a.28.28,0,0,1,.28.2.38.38,0,0,1-.27.3h0a2.74,2.74,0,0,0-.39.09l-.4.13a1.56,1.56,0,0,1-.48.08.32.32,0,0,0-.11-.12v-.15c.17-.12.32-.28.3-.33h0L99,84.89l-.29-.44c-.09-.15-.2-.16-.55,0l-.21.07a.89.89,0,0,1-.22.16,2.16,2.16,0,0,0,0,1.26c.32.06.48,0,.58.28h0a.3.3,0,0,0-.08.16l-.69.19-.09,0a5.38,5.38,0,0,1-.55.24l-.1-.08h0c-.06,0-.09-.07-.15-.24l.31-.32a1,1,0,0,0,.18-.23h0C97.18,85.59,97.18,85.27,97.18,85Zm1.11-1.18-.08-.19c-.07-.09-.28-.48-.41-.48a2.44,2.44,0,0,0,0,.76V84s0,0,0,0,.08-.07.14-.09Z" style="fill:#533e34"/><path d="M101.5,85.86a1.09,1.09,0,0,0,.2-.8h-.25c-.15,0-.27,0-.33-.09a.91.91,0,0,1-.07-.14l0-.1.09-.32.32-.12.24.1a.67.67,0,0,1,.35.37,1.15,1.15,0,0,1-.42,1.32.41.41,0,0,1-.1-.13Z" style="fill:#533e34"/><path d="M103.44,84.07c0-.06.07-.19.23-.33a.35.35,0,0,0,.06-.34.14.14,0,0,0,0-.15,1,1,0,0,0-.08-.14l-.09-.14h0l-.12-.23,0-.06a1.42,1.42,0,0,0-.14-.36,2.82,2.82,0,0,0-.21-.38l0-.09c0-.09-.09-.19-.12-.28l0-.12a.82.82,0,0,0-.12-.2l-.06-.12-.11-.32a.44.44,0,0,0-.08-.11.81.81,0,0,0-.34-.08h-.24a.24.24,0,0,1-.06-.08l0-.13a2.09,2.09,0,0,0,.14-.17,4.28,4.28,0,0,1,.8-.31.76.76,0,0,0,.2-.06l.53-.31.18-.06.21-.09a1.14,1.14,0,0,0,.23-.15h0l.18-.12a.59.59,0,0,1,.47,0l.35.73s0,0,0,0h0a.5.5,0,0,1-.1.19l0,0h-.09c-.09,0-.2-.1-.32-.2h0a.54.54,0,0,0-.22-.15h0a1.1,1.1,0,0,0-.55.16,2.25,2.25,0,0,0-.47.28,1.29,1.29,0,0,0,.07.4l.23.48a.85.85,0,0,1,.09.22l0,0c0,.09.08.11.2.06a.17.17,0,0,0,.1,0,3.17,3.17,0,0,0,.56-.4v0c0-.21,0-.46.19-.61a2.31,2.31,0,0,1,.41.65,3.7,3.7,0,0,1,.28.72.17.17,0,0,1-.16.15h0l-.44-.31a.59.59,0,0,0-.52.07,1.22,1.22,0,0,1-.24.1.22.22,0,0,0,0,.23,2.87,2.87,0,0,0,.18.4,1.57,1.57,0,0,0,.1.25l.12.25c.11.22.21.33.33.34h0a.21.21,0,0,1,.1-.06h.07c.29-.14.32-.16.45.09a.17.17,0,0,1,0,.1c0,.09-.13.19-.34.29l-.16.08a.54.54,0,0,0-.21,0l-.69.42C103.68,84.26,103.52,84.24,103.44,84.07Z" style="fill:#533e34"/><path d="M105.63,79.05a.41.41,0,0,0-.24.11h-.06a.4.4,0,0,1-.27-.22c0-.09,0-.15,0-.28l.78-.42.79-.47A1.09,1.09,0,0,1,107,78c-.08.2,0,.27-.33.45-.07.05-.08.07.11.46l.07.12c.17.29.27.37.43.61s.5,1,.6,1.23a1.5,1.5,0,0,0,.27.34.57.57,0,0,0,.31-.07l.08-.08h0l.26-.11c.3-.18.41-.37.52-1,.17,0,.24,0,.36.23l.06.09q.08.27.15.51a.56.56,0,0,1-.21.22c-.09.06-.32.13-.44.2h0a1.94,1.94,0,0,1-.29.21c-.21.13-.41.16-.7.33a3.19,3.19,0,0,0-.42.3l-.07,0-.46.26a.76.76,0,0,1-.21-.19c-.1-.17,0-.23.11-.29l.09-.06c.23-.13.2-.24,0-.65a1.49,1.49,0,0,0-.15-.2l0-.06a.82.82,0,0,1-.1-.24,2,2,0,0,1-.3-.41l-.08-.14a1.71,1.71,0,0,0-.13-.23.83.83,0,0,0-.08-.12l-.06-.08,0-.1a.36.36,0,0,0,0-.09l-.05-.08a.06.06,0,0,0,0,0l-.17-.27,0-.07c-.05-.08-.15-.08-.26,0Z" style="fill:#533e34"/><path d="M79.53,122.5l-1.43-.08H76.67l-1.42-.09-1.43-.16H72.38l-1.43,0-1.43-.1-1.41-.23-1.4-.34-1.4-.34-1.4-.28H62.46l-1.4-.32-1.36-.3-1.4-.3-1.4-.3-1.34-.5-1.36-.42-1.39-.35-1.4-.29-1.3-.62L48.7,117l-1.33-.52L46,116.18l-1.28-.62-1.29-.62-1.22-.69-1.42-.34-1.29-.62-1.22-.78L36.88,112l-1.28-.65-1.09-1-1.42-.47-1.22-.74-1.22-.81-1.11-.91-1.19-.8-1.12-.88-1.11-.88L25,104.06l-1.22-.8-.9-1.14-1.1-.91-1.08-.94-1.08-.93L18.5,98.4l-.88-1.13-1-1-.95-1.07L14.84,94l-1-1.06L13,91.77l-.82-1.16-.86-1.15-.73-1.23L9.9,87l-.81-1.18-.63-1.26L8,83.22,7.2,82l-.56-1.33-.49-1.34-.8-1.23-.44-1.33-.15-1.46L4.15,74l-.26-1.41-.34-1.39-.24-1.41-.18-1.42V66.92L3,65.5l0-1.43-.06-1.42L2.8,61.23V59.8l.1-1.43-.09-1.44.27-1.44.23-1.42.54-1.35.06-1.45.26-1.43.47-1.35.57-1.33.5-1.34.37-1.39.52-1.31L7.48,42,8,40.64l.62-1.28L9.28,38l.88-1.14.48-1.38,1.06-1,.66-1.27L13.12,32l1.09-1,.7-1.28,1.06-1,.86-1.16,1-1,.94-1.08,1-1L21,23.71l1.07-.95,1-1.07,1.22-.79,1.19-.8,1.16-.83,1.1-.86L29,17.68,30,16.74l1.16-.85,1.28-.63,1.29-.61,1.07-1L36.13,13l1.28-.65,1.35-.44,1.17-.87,1.41-.36,1.18-.87,1.41-.34,1.3-.61,1.41-.31,1.23-.8,1.47-.12,1.32-.61,1.3-.6,1.43-.19,1.33-.57,1.42-.22L57.51,5l1.39-.36h1.45l1.4-.32,1.38-.41,1.42-.2L66,3.47l1.43-.11,1.42-.1,1.42-.15L71.69,3h1.43l1.41-.36L76,2.91l1.43-.37h2.86l1.43.33,1.43-.14,1.43.18H86l1.45-.12,1.41.3,1.42.13,1.45-.06,1.42.15,1.42.19L96,3.78l1.4.35,1.41.24,1.37.43,1.42.21,1.36.47,1.42.2,1.37.45,1.44.12,1.36.44,1.35.52,1.38.38,1.27.68,1.35.47,1.42.28,1.32.57,1.29.62,1.27.66,1.32.55,1.38.42,1.29.62,1.22.8,1.22.8,1.31.58,1.22.74,1.19.75,1.15.85,1.18.81,1.22.72,1.15.86,1.18.81,1,1,1.15.85,1,1,1.14.87,1.09.93,1.07.95.81,1.23,1.3.78.77,1.23.9,1.11,1.06,1,.88,1.13.76,1.23.77,1.23,1,1,.61,1.31.73,1.23.94,1.11.53,1.34.48,1.36.89,1.07.66,1.27.4,1.38.43,1.37.61,1.31.14,1.45.6,1.31.28,1.4.46,1.37.25,1.41.22,1.42-.12,1.45.23,1.41.22,1.42v1.43L158.37,64l.16,1.44-.32,1.42v1.43l-.31,1.4-.18,1.42-.11,1.43-.52,1.35-.23,1.42-.37,1.38L156,78l-.33,1.4-.76,1.22L154.51,82l-.43,1.38-.82,1.22-.81,1.18-.51,1.35-.88,1.14-.74,1.22-.83,1.16-.71,1.22-.8,1.19-.85,1.14-.87,1.15-1,1.05-.93,1.14-1.12.92-.88,1.13-.91,1.12-1.19.82-1.12.88-1.14.86-.93,1.12-1.13.87-1.13.9-1.31.6-1.1.94-1.22.7-1.07,1-1.31.61-1.23.72-1.19.82-1.26.68-1.36.47-1.23.7-1.27.67-1.39.38-1.3.6-1.22.78-1.36.46-1.41.3-1.35.5-1.3.6-1.36.47-1.42.22-1.28.7-1.41.31-1.35.46-1.43.16-1.36.5-1.45.06-1.36.48-1.45.06-1.41.21-1.42.16-1.39.43-1.41.24-1.45,0-1.42.13-1.42.22-1.43.16-1.44-.23-1.42.32-1.44-.29-1.43.34Zm2.09-117L80.2,5.42l-1.42.08H75.91l-1.42.22-1.42.17-1.42.17-1.42.07H68.79l-1.43,0-1.42.15-1.38.48L63.15,7l-1.41.19-1.4.3L59,7.83,57.55,8l-1.4.3-1.37.42-1.32.52L52,9.46,50.7,10l-1.36.42-1.28.65-1.39.4-1.36.45-1.38.42-1.22.82-1.3.58-1.36.46L38.82,15l-1.23.69-1.4.41-1.09,1-1.23.73-1.22.71-1.26.67L30.22,20,29,20.78l-1.18.81-1.12.89-1,1-1.28.69-1.06,1-1,1-1,1-.93,1.08-1.1.93-.88,1.16L17.5,31.4l-1,1-.8,1.19-.86,1.09L14,35.84l-.74,1.22-.83,1.19-.75,1.22L11,40.77,10.34,42l-.76,1.22-.43,1.38-.62,1.29L8,47.23l-.15,1.46-.41,1.36-.62,1.3-.12,1.44-.35,1.38-.19,1.41L6,57l-.18,1.41-.28,1.42v1.43L5.44,62.7l0,1.42.19,1.42L5.84,67,6,68.4l.45,1.37.25,1.41L7,72.56,7.11,74l.66,1.3.51,1.32L8.68,78l.41,1.37.54,1.32.75,1.23.67,1.23.4,1.41.76,1.22L13,87l.91,1.11.67,1.28,1.1,1,.61,1.33,1,1,1,1,.75,1.23,1.16.86.88,1.14,1.11.9,1,1,1.12.89,1.13.88,1,1.07,1.13.85,1.22.72,1.07,1,1.17.91,1.18.82,1.22.74,1.17.83,1.31.58,1.29.62,1.22.78,1.22.77,1.44.31,1.26.67,1.3.61,1.22.81,1.42.28,1.22.76,1.45.2,1.27.69,1.37.38,1.31.61,1.46.1,1.27.73,1.42.23,1.44.13,1.34.55,1.43.12,1.37.41L64,118l1.42.2,1.36.51,1.42.15h1.44l1.41.2,1.43.07,1.41.19,1.43.17,1.42.07,1.43.12,1.42.11,1.44-.27,1.43.31,1.42-.35h1.42l1.43,0,1.44.23,1.42-.29H91l1.42-.2,1.39-.38h1.44l1.41-.23,1.37-.45,1.39-.27,1.4-.29,1.41-.25,1.41-.22,1.38-.36,1.42-.22,1.35-.47,1.41-.26,1.32-.57,1.38-.38,1.26-.72,1.35-.46,1.37-.43,1.29-.61,1.4-.36,1.3-.61,1.18-.83,1.3-.6,1.31-.61,1.29-.6,1.23-.75,1.12-.9,1.23-.76,1.28-.64,1.26-.68,1.1-.93,1.16-.83,1.1-.9,1.18-.81,1.11-.9,1-1,1.07-.94,1-1,1.16-.85L141.9,96l1-1,.86-1.16.87-1.13.84-1.15,1.08-1,.51-1.38,1-1,.81-1.19.56-1.32.71-1.22.77-1.22.68-1.26.33-1.42.71-1.25.51-1.34.21-1.43.58-1.31.55-1.34,0-1.45.18-1.42.39-1.37.24-1.41V66.81l.38-1.4L155.58,64l.07-1.44-.24-1.42-.06-1.43-.14-1.42.11-1.45-.33-1.4-.42-1.37-.27-1.4-.23-1.42-.61-1.31-.22-1.43-.64-1.29-.4-1.37-.61-1.3-.75-1.23-.45-1.38-.79-1.23-.72-1.22-.7-1.23-.9-1.11-.61-1.33-1-1-1-1-.74-1.22-.79-1.23L142,30.35l-.84-1.16-1-1-1-1-1.13-.88L137,25.4l-1.11-.9-1.14-.86-1.08-.93-1.15-.84-1-1-1.27-.67-1.27-.65-1.1-.94-1.18-.81L125.43,17l-1.38-.46-1.22-.68-1.29-.62-1.16-.88L119,13.87l-1.26-.69-1.41-.31-1.26-.71-1.32-.52-1.39-.36-1.34-.48-1.29-.62-1.38-.37L107,9.45l-1.31-.62-1.43-.36-1.45-.12L101.43,8l-1.33-.52-1.4-.26L97.27,7,95.85,6.8l-1.38-.4L93,6.5,91.6,6.25l-1.41,0-1.41-.31L87.34,6,85.9,5.63l-1.43.13-1.4-.24Z" style="fill:#533e34"/><path d="M41.2,20.87c-.1.7-.55,1-.34,1.77a8.74,8.74,0,0,0,1.34,2,2.74,2.74,0,0,1,.41.84,2.74,2.74,0,0,0,.37.77c.44.68.79,1.4,1.22,2.09a8.39,8.39,0,0,1,.54.83c.11.25.07.54.18.77s.46.49.61.73a4.83,4.83,0,0,1,.54,1A2.59,2.59,0,0,0,47.35,33c.2.09.62.06.74.16.35.22,0,.56-.19.7a15.47,15.47,0,0,0-1.79.85c-.5.41-1.07.91-1.68.78s-.46-.27-.31-.7a3.54,3.54,0,0,0,.21-.91c.07-.82-.43-1.29-.69-2a4.87,4.87,0,0,0-.61-1c-.18-.27-.23-.61-.4-.89l-.49-.8c-.16-.27-.49-.55-.69-.88a7.15,7.15,0,0,1-.5-.84c-.14-.34-.1-.73-.26-1.06a3.71,3.71,0,0,0-.66-.82,3.83,3.83,0,0,1-.81-1.07,2.3,2.3,0,0,0-.67-.85c-.52-.43-.78-.25-1.38-.31a.51.51,0,0,1-.52-.5.88.88,0,0,1,0-.16,1.5,1.5,0,0,1,.94-.71c.31-.09.77-.28,1.15-.43s.46-.42.78-.61.62-.27.91-.44c.49-.27.74-.11.75.42C41.17,21.08,41.17,20.72,41.2,20.87Z" style="fill:#533e34"/><path d="M59.21,22.85l-.08.1a.65.65,0,0,0,0,.19,5.44,5.44,0,0,0,0,1.14,6.37,6.37,0,0,0,.29.72c.17.48.35,1,.52,1.43a8.62,8.62,0,0,0,.43.86c.2.43.09.55-.32.77s-.76.49-1.16.72c-.22.12-.44.21-.66.32a.92.92,0,0,1-.53.16.29.29,0,0,0-.13,0,.17.17,0,0,0-.12.06,5,5,0,0,1-1.92.86,1.1,1.1,0,0,0-.26.06,2.77,2.77,0,0,0-.37.22,2,2,0,0,1-.48.18l-.67.19-.33.08a2.8,2.8,0,0,1-1.08,0,9.77,9.77,0,0,1-4-1.68,7.8,7.8,0,0,1-1.14-1.29,4.84,4.84,0,0,1-.76-1c-.18-.36-.25-.78-.4-1.16a6,6,0,0,1-.6-1.84c0-.37,0-.78,0-1.14a4.44,4.44,0,0,1-.12-1,6.16,6.16,0,0,1,1.29-3.39,6.83,6.83,0,0,1,1.36-1.43,8.08,8.08,0,0,0,.9-.52c.11-.1.14-.24.25-.33a1.94,1.94,0,0,1,.61-.26c.71-.28,1.44-.52,2.17-.73A6.13,6.13,0,0,1,54.11,15a11.35,11.35,0,0,1,2,.09c.54.17.73,1.22.88,1.71s.61,1.69,0,1.71-1.13-.65-1.5-1a5.58,5.58,0,0,0-.47-.38c-.15-.13-.21-.27-.31-.32a1.89,1.89,0,0,0-.75-.09,9.23,9.23,0,0,0-2.1.12c-.36.06-.72.15-1.07.18a2.68,2.68,0,0,0-.8.07,3.9,3.9,0,0,0-1.44,1.44,2.14,2.14,0,0,0-.49.8,7.75,7.75,0,0,1-.1.93,1.15,1.15,0,0,0-.13.66,5.52,5.52,0,0,1,.08,1.22c0,.32-.17.54-.06.86s.27.47.37.72a6.34,6.34,0,0,1,.3.83,4.09,4.09,0,0,0,.18.49,1.28,1.28,0,0,1,.16.5A4.92,4.92,0,0,0,49.56,27a4.66,4.66,0,0,0,1.21,1.66,2.92,2.92,0,0,0,1.51.62,3.05,3.05,0,0,0,.74,0,7.4,7.4,0,0,1,.81-.08,3.26,3.26,0,0,1,.45,0,3.78,3.78,0,0,0,1.66-.38,1.71,1.71,0,0,0,.62-.37,4,4,0,0,1,.24-.33,1.7,1.7,0,0,0,.19-.2,1,1,0,0,0,.13-.52,2.77,2.77,0,0,0,0-.5c0-.23-.09-.46-.15-.68s-.09-.43-.15-.64a5.2,5.2,0,0,0-.61-1.36c-.22-.34-.45-.51-.79-.27a.86.86,0,0,1-.89.07c-.52-.41.2-.82.55-1a5,5,0,0,1,.68-.26A10.16,10.16,0,0,0,57,22.27a3.05,3.05,0,0,1,.46-.2,1.29,1.29,0,0,0,.48-.1c.06,0,.1-.1.16-.14a.85.85,0,0,1,.35-.11l.41-.07a1.48,1.48,0,0,1,.42,0,.43.43,0,0,1,.33.24.53.53,0,0,1,0,.39,1.73,1.73,0,0,1-.36.61Z" style="fill:#533e34"/><path d="M132,88.73a1.13,1.13,0,0,0-.39.17l-.35.19a.89.89,0,0,0-.29.22,1.14,1.14,0,0,1-.1.19,3.11,3.11,0,0,1-.4.26,2.38,2.38,0,0,0-.36.35,10.22,10.22,0,0,1-1,.9,4,4,0,0,0-.54.48c-.27.28-.78.91-.16,1.14.31.11.68-.18.8-.36.24-.34.51-.26.83,0a5.76,5.76,0,0,1,1,1.12c.15.2.29.4.42.61a5.63,5.63,0,0,1,.37.62,2.84,2.84,0,0,1,.17.49,1,1,0,0,1,.06.54c0,.09-.08.18-.11.27s-.06.26-.11.39a1.37,1.37,0,0,1-.45.56,3.5,3.5,0,0,1-1.4.91c-.15,0-.3.06-.45.11a6.67,6.67,0,0,0-.71.35,3.26,3.26,0,0,1-.71.22,2.78,2.78,0,0,1-1.61-.12,4.94,4.94,0,0,1-1.73-1.2c-.41-.41-.88-.67-1.13-1.15a1.31,1.31,0,0,0-.33-.44,3.29,3.29,0,0,1-.33-.41,6.56,6.56,0,0,0-.57-.71c-.18-.2-.43-.36-.61-.58a2,2,0,0,1-.25-.84,5.94,5.94,0,0,0-.49-1.16,1.36,1.36,0,0,1-.12-.68c0-.34-.18-.61-.22-.94a2.17,2.17,0,0,1,.16-.94,4,4,0,0,1,.84-1.86,2.36,2.36,0,0,1,.72-.33c.31-.15.61-.36.93-.53a8.8,8.8,0,0,1,1.9-.8,1.7,1.7,0,0,1,.73-.17,3,3,0,0,1,.4.21c.18.08.38.11.57.21.47.26,1.22.72,1.78.5s-.34-1.32-.61-1.66-.85-1.39-1.42-1.38a11.26,11.26,0,0,0-1.89.61,5.58,5.58,0,0,0-2.08.81A21.84,21.84,0,0,0,121,86.32a1.91,1.91,0,0,0-.49.45c-.07.12,0,.28-.11.41-.14.29-.47.52-.65.79a6.46,6.46,0,0,0-.76,1.89,6.65,6.65,0,0,0,0,3.7,5.29,5.29,0,0,0,.48,1c.16.36.3.73.43,1.1a6.84,6.84,0,0,0,1.22,1.56c.27.31.48.7.77,1a4.94,4.94,0,0,0,1.07.73,7.84,7.84,0,0,0,1.51.88,9.53,9.53,0,0,0,4.28.23,2.78,2.78,0,0,0,1-.32l.27-.19.56-.41a2,2,0,0,0,.38-.33,3,3,0,0,1,.26-.34,1.64,1.64,0,0,1,.22-.14,3.76,3.76,0,0,0,.94-.79,3.63,3.63,0,0,0,.74-.95c0-.09.11-.2.21-.22h.12c.25,0,.48-.33.62-.51.29-.35.54-.73.83-1.08s.35-.49,0-.84a9.13,9.13,0,0,1-.69-.7l-1-1.23a3.07,3.07,0,0,1-.5-.58,4.62,4.62,0,0,1-.44-1.08.61.61,0,0,1,0-.19.5.5,0,0,1,0-.13h0a1.68,1.68,0,0,0,.13-.7.69.69,0,0,0-.12-.39A.42.42,0,0,0,132,88.73Z" style="fill:#533e34"/><path d="M74.64,25.89a5.83,5.83,0,0,0-.83.08c-.61.09-1.22.15-1.87.28-.3.07-.69.31-.91-.06s.16-.48.27-.73a1.27,1.27,0,0,0,0-.92,3,3,0,0,0-.32-.61,7.72,7.72,0,0,1-.29-.85c-.08-.2-.31-.3-.45-.46a2.39,2.39,0,0,1-.32-.56,1.92,1.92,0,0,0-.27-.46,3.59,3.59,0,0,1-.38-.82c-.61-1.07-1.94-.45-2.82-.25-.47.1-.85.13-1.1.6a2,2,0,0,0-.13.68c-.06.31-.13.62-.22.92-.11.48,0,1-.12,1.46a2.1,2.1,0,0,0,0,1.52c.09.16.36.28.42.38.19.28.35,1.15-.11,1.22l-.65.12a7.58,7.58,0,0,0-1.15.24c-.27.07-.57.07-.86.13-.12,0-.27.05-.36-.05a.47.47,0,0,1-.07-.12,2.23,2.23,0,0,1,0-.36.68.68,0,0,1,0-.37c0-.12.14-.22.2-.34s.09-.21.13-.32.21-.49.29-.75.27-.75.42-1.12a3.57,3.57,0,0,0,.16-.46,1.89,1.89,0,0,1,.08-.53l.12-.25a2.05,2.05,0,0,0,.06-.49,4.6,4.6,0,0,1,.06-.52c.14-.85.29-1.68.47-2.53.08-.35.18-.69.27-1s-.09-.73,0-1.05a1.75,1.75,0,0,0,.11-.24.81.81,0,0,0,0-.38,4.83,4.83,0,0,1,.21-1.07c0-.34,0-.61,0-.94a7.34,7.34,0,0,1,.15-.9c0-.22.08-.69-.08-.85s-.14-.11-.15-.19.15-.21.27-.27a3.12,3.12,0,0,0,.62-.46c.29-.3,1.39-1.25,1.91-.81.32.27.27,1.23.46,1.54a12.75,12.75,0,0,1,.91,1.5,12.61,12.61,0,0,0,.79,1.66c.25.45.61,1,.88,1.52a1.91,1.91,0,0,1,.29.9v.1c0,.12.17.16.25.25s.08.38.22.51a3.62,3.62,0,0,1,.65,1.13c.27.54.47,1,.77,1.46a3.56,3.56,0,0,1,.38.69c.08.26.06.49.24.68s.44.26.61.56.4.7.86.86a.38.38,0,0,1,.15.09A.24.24,0,0,1,75,25a1.78,1.78,0,0,1,0,.65.34.34,0,0,1-.06.15.31.31,0,0,1-.24.07Zm-6.57-7.44c-.06-.22,0,.11,0,0a4.82,4.82,0,0,0-.31-.7c-.09-.19-.07-.42-.14-.61a2.63,2.63,0,0,0-.27-.41c-.16-.24-.08-.23-.09-.48s.11-.26-.12-.47-.52-.37-.61-.69c0-.09-.06-.22-.15-.23h-.07c-.18.07-.25.29-.3.48A8.7,8.7,0,0,0,65.84,17a2,2,0,0,1,0,.54c0,.09-.07.17-.09.27a2.76,2.76,0,0,0-.06.4,5.26,5.26,0,0,1-.3,1.23.28.28,0,0,0,0,.18c0,.12.2.12.32.1a15.08,15.08,0,0,0,2-.35C68.14,19.24,68.26,19,68.07,18.45Z" style="fill:#533e34"/><path d="M84.87,19.75a4,4,0,0,1,.33.51,2.27,2.27,0,0,0,.17.5c.06.13.12.25.19.38s.13.33.19.51c.14.41.26.84.41,1.25a1.69,1.69,0,0,0,.24.61c.31.48.35,1.07.91,1.23a3.13,3.13,0,0,0,.53,0,.6.6,0,0,1,.35,0,.82.82,0,0,1,.22.67.5.5,0,0,1-.08.12,2.28,2.28,0,0,1-.73.54,1.64,1.64,0,0,1-.39.14,1.26,1.26,0,0,1-.43,0h-.52a1.37,1.37,0,0,1-.73-.28,3,3,0,0,1-.33-.21l-.13-.11a.15.15,0,0,0-.06-.14c-.06,0-.13-.06-.2-.11s-.1-.32-.19-.46-.07-.08-.09-.12a.88.88,0,0,1,0-.15c-.07-.2-.25-.29-.31-.48s-.15-.44-.22-.66a3.57,3.57,0,0,0-.1-.35,4,4,0,0,1-.22-.4,4.21,4.21,0,0,0-.52-1.39.86.86,0,0,1-.14-.18s0-.09-.06-.13l-.18-.18a1.88,1.88,0,0,1-.16-.23,2.63,2.63,0,0,0-.71-.7,3.11,3.11,0,0,0-.33-.29c-.14-.09-.3-.15-.45-.23a1,1,0,0,0-.24-.09A4.83,4.83,0,0,0,79.43,19c-.12,0-.27,0-.31.13a.29.29,0,0,0,0,.16l.07.87a3,3,0,0,0,.06.43,1.14,1.14,0,0,1-.07.85,1.76,1.76,0,0,0-.29.58c0,.25,0,.31.15.54.22.43,0,1,.12,1.45s1,1.08.6,1.58-1.42.11-1.88.12-1.29.32-1.71-.09.22-.83.4-1.19a3.15,3.15,0,0,0,.18-1.77c0-1.13.16-2.22.13-3.36s0-2.41.06-3.63c0-.61-.15-1.16-.11-1.74,0-.25.14-.44.05-.69,0-.07-.16-.1-.19-.17a2,2,0,0,1,0-.43c-.14-.48-.67-.47-.87-.9S76,11,76.46,11a8.91,8.91,0,0,1,1.55.11,4.34,4.34,0,0,0,1.48-.1,18.43,18.43,0,0,1,2.68,0,8.32,8.32,0,0,1,1.12.1c.23,0,.47.1.71.16a3.19,3.19,0,0,1,1,.39,2.86,2.86,0,0,1,.41.36,4,4,0,0,1,.84,1.38,5.47,5.47,0,0,1,.2,2,3.48,3.48,0,0,1-.11.72,3.1,3.1,0,0,1-.45.79,2.1,2.1,0,0,1-.7.72c-.16.07-.33.32-.49.38-.33.12-.56.42-.87.52-.15.05-.85.24-.73.3a1.31,1.31,0,0,0,.27.06,2.15,2.15,0,0,1,1.3.62C84.71,19.6,84.83,19.67,84.87,19.75Zm-.81-4.29c.06-.34.1-.69.13-1a1,1,0,0,0-.15-.74c-.05,0-.12-.1-.16-.15a3,3,0,0,1-.31-.62,1.7,1.7,0,0,0-.74-.56l-.56-.27A1.12,1.12,0,0,0,82,12a1,1,0,0,0-.3-.05c-.4,0-.81,0-1.22,0s-.89-.06-1.13.14c-.06.05-.05.13-.08.2a.3.3,0,0,0-.05.16c0,.11,0,.25,0,.33s-.06,0-.07.09v.08a8.93,8.93,0,0,1,.09,1c0,.31-.26.53-.23.82a.88.88,0,0,0,.1.27,1.84,1.84,0,0,0,.17.22l0,.34.13.06a1.41,1.41,0,0,0-.11.61,3.74,3.74,0,0,1-.08.82,3.41,3.41,0,0,0,.06.9,1.35,1.35,0,0,1,.53,0,8.26,8.26,0,0,0,1.79,0,1.11,1.11,0,0,0,.43-.12c.11-.06.33-.1.44-.17a5.84,5.84,0,0,0,.76-.45,3.74,3.74,0,0,0,.41-.55,2.42,2.42,0,0,0,.31-.33,1,1,0,0,0,.11-.34C84,15.79,84,15.62,84.06,15.46Z" style="fill:#533e34"/><path d="M47.84,101c0,.15.09.46.07.61a1.86,1.86,0,0,0-.07.52v.44a2.08,2.08,0,0,1-.06.54c-.06.45-.15.89-.21,1.34a2.39,2.39,0,0,0-.07.66c.07.57-.16,1.13.26,1.54a2.12,2.12,0,0,0,.47.25.7.7,0,0,1,.29.19.59.59,0,0,1,0,.37.64.64,0,0,1-.14.34.41.41,0,0,1-.13.08,2.12,2.12,0,0,1-.9.16,1.46,1.46,0,0,1-.41,0,1.65,1.65,0,0,1-.36-.22c-.15-.1-.33-.14-.48-.23a1.33,1.33,0,0,1-.53-.57c-.06-.12-.11-.24-.16-.36a.67.67,0,0,1-.07-.18v-.14c0-.06-.09-.13-.12-.2s.05-.33,0-.5v-.31c0-.21-.08-.38-.06-.57s.08-.48.12-.71a2.2,2.2,0,0,0,.06-.37,3.53,3.53,0,0,1,0-.46,4.47,4.47,0,0,0,.17-1.5,1.42,1.42,0,0,1,0-.22v-.15a1.91,1.91,0,0,0-.07-.24,2.89,2.89,0,0,1,0-.29,2.59,2.59,0,0,0-.31-1,3.69,3.69,0,0,0-.17-.42c-.08-.14-.2-.27-.29-.4a1.12,1.12,0,0,0-.18-.2,4.85,4.85,0,0,0-1.1-.92c-.11-.06-.26-.11-.35,0a.22.22,0,0,0-.08.14l-.34.83c0,.13-.11.27-.15.41A1.18,1.18,0,0,1,42,100a1.45,1.45,0,0,0-.52.4c-.16.21-.12.3-.11.56,0,.48-.44.91-.56,1.38s.42,1.44-.2,1.71-1.33-.54-1.75-.74-1.29-.29-1.48-.85.57-.66.9-.9a3.55,3.55,0,0,0,1-1.53c.46-1.07,1.15-2,1.64-3s1.09-2.21,1.72-3.29c.3-.52.39-1.13.69-1.64.13-.22.32-.35.36-.61,0-.08-.1-.17-.09-.25s.15-.25.18-.4c.1-.5-.38-.73-.36-1.23s.51-.6.91-.37A8.48,8.48,0,0,1,45.6,90a4.57,4.57,0,0,0,1.37.57,17.33,17.33,0,0,1,2.38,1.24,10,10,0,0,1,.95.58c.2.15.38.31.57.47a3.25,3.25,0,0,1,.75.82,2.45,2.45,0,0,1,.2.51A4,4,0,0,1,52,95.81a5.57,5.57,0,0,1-.75,1.92,2.55,2.55,0,0,1-.42.61,3,3,0,0,1-.76.52,1.93,1.93,0,0,1-1,.35c-.17,0-.44.15-.61.13-.35,0-.7.13-1,.08-.15,0-.86-.15-.78,0l.21.17a2,2,0,0,1,.89,1.12C47.76,100.76,47.84,100.86,47.84,101Zm1.25-4.28c.2-.29.4-.61.61-.9a.94.94,0,0,0,.2-.74.8.8,0,0,0-.08-.21,3.18,3.18,0,0,1,0-.69,1.82,1.82,0,0,0-.4-.84l-.38-.5-.17-.21a1.44,1.44,0,0,0-.25-.18,11.49,11.49,0,0,0-1.08-.61c-.27-.13-.77-.46-1.08-.39-.08,0-.09.1-.16.15a.49.49,0,0,0-.12.13c-.07.09-.09.23-.19.28a.27.27,0,0,0-.11.05l0,.07a8.53,8.53,0,0,1-.4,1c-.12.29-.48.37-.57.65a1.45,1.45,0,0,0,0,.29,1.49,1.49,0,0,0,.06.28l-.2.29.09.11a1.46,1.46,0,0,0-.39.53,3.75,3.75,0,0,1-.44.72,3.13,3.13,0,0,0-.36.84,1.13,1.13,0,0,1,.49.21,7.74,7.74,0,0,0,1.59.76,1.12,1.12,0,0,0,.44.09c.12,0,.34,0,.46,0a6.54,6.54,0,0,0,.89-.07,4.54,4.54,0,0,0,.62-.32,2.26,2.26,0,0,0,.43-.17,1,1,0,0,0,.25-.26c.1-.11.2-.25.3-.38Z" style="fill:#533e34"/><path d="M104.72,28.36c-.12.12.13-.17,0,0a2.79,2.79,0,0,1-1.59.49,18.1,18.1,0,0,1-2.21.16,10,10,0,0,1-2.56-.24,10.17,10.17,0,0,1-1.06-.36c-.38-.18-.74-.38-1.13-.53a3.06,3.06,0,0,1-1.33-.94,1.2,1.2,0,0,0-.26-.29c-.11-.08-.25-.11-.36-.19a1.19,1.19,0,0,1-.33-.44c-.23-.43-.48-1.11-.71-1.54a5.07,5.07,0,0,1-.4-1.13,5.23,5.23,0,0,1-.22-1.18,10.9,10.9,0,0,1,.53-3.89,6.66,6.66,0,0,1,.71-1.41,6.4,6.4,0,0,1,.83-1.22c.27-.26.66-.35.94-.61s.42-.61.75-.73c.16-.06.35-.06.51-.12s.46-.38.73-.47a1.07,1.07,0,0,1,.27-.06,6.63,6.63,0,0,0,1-.32,6,6,0,0,1,1.73-.18,4.42,4.42,0,0,1,1.84.21,3,3,0,0,0,.32.12,2.06,2.06,0,0,1,.85.26,1.07,1.07,0,0,0,.16.14,1.19,1.19,0,0,0,.42.11,4.73,4.73,0,0,1,.68.33l.28.08a2.67,2.67,0,0,1,.61.45,2.88,2.88,0,0,0,.65.39,1.42,1.42,0,0,0,.61.13,1.44,1.44,0,0,1,.62,0,.58.58,0,0,1,.24.43,5.74,5.74,0,0,1-.39,1.53c-.08.34-.2.7-.26,1.05s0,.49-.19.67c-.68.61-.86-.48-.92-.87a3.11,3.11,0,0,0-.85-1.37,2.14,2.14,0,0,1-.35-.65c-.16-.38-.3-.43-.65-.61a12.93,12.93,0,0,0-1.52-1,4.65,4.65,0,0,0-1.78-.14,3.29,3.29,0,0,0-1.58.27,5.89,5.89,0,0,0-1.61,1,6.78,6.78,0,0,0-1,1.47A14.73,14.73,0,0,0,95.79,19c-.1.29,0,.52-.05.8s-.13.54-.18.79c-.14.68-.39,1.33-.52,2a4,4,0,0,0,1.61,3.51,4.61,4.61,0,0,0,1.87,1.16,14.27,14.27,0,0,0,2.25.47,3.92,3.92,0,0,0,2.08-.56,5.25,5.25,0,0,0,1.37-1.37c.14-.16.35-.46.61-.47.5,0,.45.5.36.82C105,26.82,105.14,27.84,104.72,28.36Z" style="fill:#533e34"/><path d="M41.55,34.94c0,.17-.07-.2,0,0a2.6,2.6,0,0,1-.45,1.6,16.29,16.29,0,0,1-1.07,2,10.55,10.55,0,0,1-1.62,2,8.47,8.47,0,0,1-.89.69c-.35.23-.73.42-1.07.67a3,3,0,0,1-1.53.61,1.32,1.32,0,0,0-.39.06c-.13,0-.23.15-.36.2a1.15,1.15,0,0,1-.55,0c-.5,0-1.23-.2-1.7-.25a4.78,4.78,0,0,1-1.19-.27,6.53,6.53,0,0,1-1.13-.46,11.13,11.13,0,0,1-3-2.58,7,7,0,0,1-.78-1.35,6.73,6.73,0,0,1-.61-1.37c-.07-.37.07-.75,0-1.12s-.27-.69-.21-1c0-.17.14-.32.17-.49s-.07-.61,0-.88c0-.09.07-.17.1-.26a6.71,6.71,0,0,0,.25-1,6.12,6.12,0,0,1,.8-1.57,4.69,4.69,0,0,1,1.19-1.43c.09-.07.2-.14.28-.21.23-.2.4-.49.7-.61a.33.33,0,0,0,.21-.05l.31-.3a7.23,7.23,0,0,1,.66-.4l.22-.19a2.69,2.69,0,0,1,.73-.28,2.88,2.88,0,0,0,.68-.34,1.42,1.42,0,0,0,.45-.43c.11-.19.18-.42.37-.53a.56.56,0,0,1,.47.07c.47.27.71.78,1.08,1.17s.49.55.75.79.43.26.47.52c.13.92-.88.47-1.23.31a3.21,3.21,0,0,0-1.63,0,2.29,2.29,0,0,1-.74-.05,1.06,1.06,0,0,0-.89.21,12.62,12.62,0,0,0-1.69.72,4.49,4.49,0,0,0-1.1,1.42A3.39,3.39,0,0,0,27,32.06a6.38,6.38,0,0,0,0,1.9,6.77,6.77,0,0,0,.69,1.67,14.76,14.76,0,0,0,1.13,1.77c.19.25.43.29.66.49a6.42,6.42,0,0,1,.56.61c.51.48.92,1,1.43,1.53a4.12,4.12,0,0,0,3.87.56,4.9,4.9,0,0,0,2-1,18.13,18.13,0,0,0,1.63-1.65,4,4,0,0,0,.67-2.07,5.39,5.39,0,0,0-.41-1.9c-.07-.22-.21-.56-.08-.76.27-.43.67-.1.89.14C40.41,33.86,41.35,34.31,41.55,34.94Z" style="fill:#533e34"/><path d="M115.4,19.32c-.62.34-1.15.21-1.59.8a8.08,8.08,0,0,0-.89,2.15,1.74,1.74,0,0,1-.34.61,2.38,2.38,0,0,0-.37.79c-.29.8-.68,1.55-1,2.34a5.13,5.13,0,0,1-.27.78c-.12.23-.37.37-.48.61a10,10,0,0,0-.28,1.11,6.82,6.82,0,0,1-.48.93,2.62,2.62,0,0,0-.08,2c.1.23.36.37.13.61s-.61,0-.87-.15a8.5,8.5,0,0,0-1.75-.76c-.48-.13-1.46-.44-1.42-1.09,0-.32,1.17-.61,1.48-.85a5.36,5.36,0,0,0,1.14-1.88c.19-.34.18-.7.34-1.05a5,5,0,0,0,.44-.82c.24-.72.43-1.42.7-2.12a2.39,2.39,0,0,1,.37-.77,3.08,3.08,0,0,0,.58-.81c.13-.37.07-.78.18-1.14s.44-.66.57-1.05a2.33,2.33,0,0,0,0-1.23c-.12-.31-.43-.44-.57-.7a.48.48,0,0,1,.11-.67.44.44,0,0,1,.31-.09,2,2,0,0,1,1.13.42c.32.19.64.45,1,.61s.67,0,1,.19c.15.08.25.22.41.29s.35.05.47.13c.46.28.28.55,0,.8S115.51,19.22,115.4,19.32Z" style="fill:#533e34"/><path d="M128,27.25a1.33,1.33,0,0,0-.24.33c0,.09-.09.19-.14.29a1.22,1.22,0,0,1-.31.33.49.49,0,0,1-.28.11.38.38,0,0,1-.31-.33,1.93,1.93,0,0,1,0-.48,1.91,1.91,0,0,0-.27-1,3.11,3.11,0,0,0-.56-.86c-.2-.19-.49-.14-.71-.3s-.6-1-1.15-.75-.76,1.06-1,1.46a9.78,9.78,0,0,1-.84,1.38,6.18,6.18,0,0,0-1,1.55,4.3,4.3,0,0,1-.89,1.26c-.42.42-.46,1-.77,1.45a4.8,4.8,0,0,0-.39.7,2.69,2.69,0,0,1-.31.55c-.16.23-.14.52-.32.75s-.42.35-.58.61a2,2,0,0,0-.17,1.62c.09.29.81,1.16.39,1.44s-.85-.41-1.06-.61a11.08,11.08,0,0,0-1.57-1.06,8.14,8.14,0,0,0-1.33-.81c-.22-.1-.67-.14-.81-.35a.53.53,0,0,1,.34-.67c.5-.15,1,.21,1.44-.18s.57-.95.9-1.39c.68-.95,1.23-2,1.88-3,.35-.53.77-1.06,1.17-1.56a4.21,4.21,0,0,0,.71-1.38,3.1,3.1,0,0,1,.53-1,3.13,3.13,0,0,0,.71-1.27,1.71,1.71,0,0,0,0-1.35.8.8,0,0,0-.76-.51,3.75,3.75,0,0,1-.65-.2,4.59,4.59,0,0,0-.82-.17,5.11,5.11,0,0,0-1.1.09,2.39,2.39,0,0,0-.36,0,2.2,2.2,0,0,1-.57,0l-.07,0a.13.13,0,0,1,0-.1.88.88,0,0,1,.34-.61,3.64,3.64,0,0,0,.56-.48c.19-.25.26-.61.5-.79a1.32,1.32,0,0,1,.5-.22c.18-.06.42-.09.52.07a.7.7,0,0,1,.06.19,1.21,1.21,0,0,0,.42.39c.15.13.33.22.48.36a1.05,1.05,0,0,0,.55.29,3,3,0,0,1,1.42,1c.23.23.54.35.78.57a1.43,1.43,0,0,0,.68.45c.32.11.61.29.92.42a10.29,10.29,0,0,1,1,.58,2.32,2.32,0,0,1,.71.53,3.33,3.33,0,0,0,.94.57,3.27,3.27,0,0,0,1.18.38.4.4,0,0,1,.28.07.32.32,0,0,1,.1.2,1.27,1.27,0,0,1,0,.34,1.44,1.44,0,0,1-.44.84Z" style="fill:#533e34"/><path d="M139.52,37.29a1,1,0,0,1-.49-.06,8.8,8.8,0,0,0-2.79.18,17.89,17.89,0,0,0-2.08.24,5,5,0,0,1-1.68.24,1.29,1.29,0,0,0-.69.17c-.24.09-.49,0-.73.13-.49.16-.94.78-1.31,1.12s-.9.78-1.37,1.16A5.29,5.29,0,0,0,127.25,42a3.43,3.43,0,0,0-.68,1.9.33.33,0,0,1,0,.14c0,.13-.13.2-.23.28l-.14.07a.55.55,0,0,1-.37-.18c-.64-.61-1.08-1.4-1.72-2-.35-.35-1.17-.61-1.14-1.22s.61-.18.92-.18a1.62,1.62,0,0,0,1-.29c.41-.34.62-.93,1.06-1.3a9.79,9.79,0,0,0,2.46-2.43,4.53,4.53,0,0,0,.34-.61,2.43,2.43,0,0,0,0-.85,1.75,1.75,0,0,1,.28-.76,3,3,0,0,0,.1-.84.17.17,0,0,1,0-.1l.06-.07v-.08a2.76,2.76,0,0,1,.07-.76c.07-.25.11-.4.16-.61a8.29,8.29,0,0,0,.2-1.31,4.58,4.58,0,0,1,.11-1.61.48.48,0,0,0,.07-.23c0-.07-.06-.14-.06-.22a.45.45,0,0,1,.05-.19c.14-.36-.14-.76.29-1s1,.4,1.31.75a3.85,3.85,0,0,0,1.22,1.09,4.41,4.41,0,0,1,.78.48.77.77,0,0,1,.32.7.31.31,0,0,1-.28.35h0c-.15,0-.31,0-.46.09a.42.42,0,0,0-.31.33.11.11,0,0,1,0,.08s-.1,0-.15,0-.15.13-.18.23a2,2,0,0,1-.23.61c-.34.5-.32,1.11-.62,1.62a.78.78,0,0,0-.06.78s.11.11.1.18-.12.12-.12.2l0,.09a.45.45,0,0,1,0,.42l-.07.11v.12a1,1,0,0,0,.29,1c.39.29,1.27-.16,1.72-.22.61-.07,1.22-.19,1.83-.31a5.3,5.3,0,0,0,1.51-.42,7,7,0,0,0,.73-.93,1.24,1.24,0,0,1,.22-.18,1,1,0,0,1,.51-.1.37.37,0,0,1,.18,0l.1.1a3.16,3.16,0,0,1,.61.91,1.74,1.74,0,0,0,.54.72c.27.2.5.65.08.87A.48.48,0,0,1,139.52,37.29Z" style="fill:#533e34"/><path d="M139.68,85.93a3.06,3.06,0,1,0-.14,4.33,3.06,3.06,0,0,0,.14-4.33Zm-.4,4a2.68,2.68,0,1,1,.11-3.8,2.68,2.68,0,0,1-.11,3.8l0,0Z" style="fill:#533e34"/><path d="M136.05,87.87h0s-.08-.07-.23,0a.28.28,0,0,1-.31.07h0s0,0-.06,0l-.07-.09.07-.17s.32-.25.44-.36.26-.32.38-.44a.94.94,0,0,1,.94-.33h0a.82.82,0,0,1,.47.26.42.42,0,0,1,.11.18h0a.64.64,0,0,1,0,.68,0,0,0,0,0,0,0h0a8.12,8.12,0,0,1,.81.23,3.45,3.45,0,0,0,.42.14h0c.07,0,.4-.15.57,0a.43.43,0,0,0,0,.16,3,3,0,0,1-.52.42h0a.39.39,0,0,1-.3-.07h0l-.36-.1-.16-.08a1.69,1.69,0,0,1-.58-.17h0a.35.35,0,0,0-.34.07s.15.29.32.45.23.2.37.35h.15l.09-.09a.39.39,0,0,1,.26,0,.06.06,0,0,1,0,.06h0a.37.37,0,0,1-.14.29l-.07.06a2.88,2.88,0,0,0-.35.26,2.85,2.85,0,0,1-.22.28c-.08.09-.22,0-.31,0h0l.06-.06c.11-.21.17-.37.06-.48s-.2-.17-.23-.2l0-.06h0a1.18,1.18,0,0,0-.13-.18l-.33-.31c-.05,0-.12-.15-.24-.26l-.07-.07-.16-.15-.08-.07Zm.4-.43a2.23,2.23,0,0,0,.43.49l.17.18a.35.35,0,0,0,.11,0c.06-.14.51-.42.11-.84a.58.58,0,0,0-.81,0v0a.22.22,0,0,0,0,.14Z" style="fill:#533e34"/></g></g></svg>