<svg xmlns="http://www.w3.org/2000/svg" viewBox="0 0 264.2 73.37"><g data-name="Layer 2"><path d="M48.19 0c3.89.12 7 .24 10 .29 1.71 0 1.47 1.18 1.44 2.25-.1 3.44-.12 6.89-.34 10.32-.11 1.77.59 2.18 2.2 2.23s2.33-.38 2.31-2.12c0-4.14 1.07-8.44-2.77-12.6 4 .12 7.11.22 10.25.3 1.48 0 1.36 1 1.33 2-.34 11.19-.71 22.38-1 33.57 0 1.8-.8 2.06-2.36 2.07-6.27 0-6.26.08-6.08-6.09.07-2.37.05-4.75.25-7.1.14-1.77-.61-2.17-2.21-2.23S59 23.3 59 25c0 3.44-.27 6.88-.25 10.32 0 1.84-.34 2.66-2.49 2.61-6.21-.12-6.21 0-6-6.18s.41-12.48.55-18.72C50.84 8.74 51.9 4.27 48.19 0z" fill="#ed2026" fill-rule="evenodd"/><path d="M8.87 36.2c-.22-.4-.44-.8-.67-1.2.87 0 2.2-.5 2.36.69.14.97-1.1.31-1.69.51z" fill="#4a4a4a" fill-rule="evenodd"/><path d="M122.11 32.69c.06-4 .33-8-2.68-11.27-1-1.08.28-1.15.7-1.58 3.31-3.37 2.89-7.45 2-11.49-.82-3.55-3.5-5.25-6.91-5.93-4.89-1-9.87-.53-14.8-.86-1.93-.12-1.65 1-.94 2 1.65 2.29 1.45 4.84 1.34 7.43-.15 3.76-.23 7.53-.35 11.29-.11 3.66-.21 7.32-.33 11-.21 6.3-.21 6.23 6.22 6.26 1.87 0 2.42-.58 2.42-2.38 0-3.54.16-7.1.31-10.64 0-.87-.37-2.15 1.12-2.26 1.21-.08 2.41.13 2.94 1.47a10.51 10.51 0 01.58 4.13 45.83 45.83 0 00.26 7.4c.26 1.87.91 2.52 2.81 2.59 5.19.19 5.19.28 5.31-4.83-.04-.83-.01-1.58 0-2.33zm-8.62-16.2a3.18 3.18 0 01-3.2 1c-1.43-.21-.91-1.46-.93-2.33a25.9 25.9 0 01.13-3.84c.12-1-.62-2.6 1.28-2.71a3 3 0 013.39 2.31 11.46 11.46 0 01.18 2.29c-.16 1.29-.11 2.37-.85 3.28zM192.89 15.18c-.11-.73-.25-1.47-.32-2.21-.65-6.72-3.65-9.52-10.38-9.66-6.94-.14-10.31 2.62-11.14 9.27a95.52 95.52 0 00-.57 19.27c.33 4.21 1.47 8.36 6 9.71 7.47 2.21 14.61.52 15.55-9.33a12.39 12.39 0 01.36-1.55q.28-7.74.5-15.5zm-9.48 16.57c-.06 1.63-.38 3.59-2.45 3.48-1.82-.09-2.06-2-2.05-3.49 0-3 .16-6 .25-9 .09-2.89.15-5.78.27-8.67.07-1.55.24-3.19 2.32-3.17s2.25 1.6 2.25 3.2c-.2 5.9-.35 11.77-.59 17.65zM168.89 22.16c.1-3.43.45-6.89.25-10.31-.36-6.1-3.61-9-9.75-9.29-7.16-.3-10.59 2.08-11.54 8.36a87.79 87.79 0 00-.63 21.24c.6 6.41 4.13 9.32 10.83 9.34 6.25 0 9.9-3.12 10.53-9.35.3-3.3.21-6.65.31-9.99zM160 31.43c-.07 1.38-.58 3.07-2.28 3-1.93-.05-2.16-1.83-2.15-3.37 0-3.1.17-6.2.26-9.3.09-3 .16-6 .28-9 0-1.38.43-2.64 2.1-2.71 1.82-.07 2.44 1.21 2.41 2.73-.16 6.22-.34 12.45-.62 18.65zM97.88 37q-2.53-16.86-5-33.74c-.24-1.69-1.07-2-2.57-2.07-3.87 0-7.74-.2-12.71-.35 3.74 3.85 2.46 7.53 1.7 11.16q-2.49 11.81-4.94 23.63c-.19.88-.9 2.35.13 2.55a23.77 23.77 0 007 .34c1.77-.18 1.31-2.18 1.64-3.43.39-1.51.57-2.74 2.75-2.72s2.91 1.09 2.87 2.87c-.07 3.14 1.46 4.15 4.37 3.79a12.81 12.81 0 012.9.07c1.68.19 2.09-.53 1.86-2.1zM87.44 25.42a4 4 0 01-2.5-.08c-1.27-.48-.25-1.45-.16-2.17.19-1.57.57-3.12.87-4.68.56-.25-.08-1.67 1.19-1.21.37 2 .79 3.95 1.08 5.93.08.79.64 1.85-.48 2.21z" fill="#ed2026" fill-rule="evenodd"/><path d="M86.84 17.28c-.4.4-.8.8-1.19 1.21 0-.86-.37-2 .68-2.33.55-.16.59.61.51 1.12z" fill="#f59095" fill-rule="evenodd"/><path d="M146 10.41c-.78-4.47-2.78-6.48-7.32-7.3-4.69-.85-9.44-.48-14.15-.79-1.79-.12-2.25.51-1.16 2 1.88 2.51 1.92 5.34 1.75 8.29-.22 3.65-.25 7.3-.36 11l-.31 10.32c-.2 6.65-.2 6.6 6.46 6.36 1.53-.05 2.08-.52 2.09-2 0-3.11.28-6.23.22-9.34-.05-2.3.39-3.28 3.12-3.36 6.95-.21 9-2.37 9.92-9.27a19 19 0 00-.26-5.91zm-8.16 4.79c-.14 1.77-.58 3.59-2.85 3.48-2.59-.12-1-2.21-1.36-3.4a3.38 3.38 0 010-.95 20.78 20.78 0 01.08-2.23c.12-.86-.41-2.22 1-2.3a2.56 2.56 0 012.94 1.93 12.59 12.59 0 01.22 3.47z" fill="#ed2026" fill-rule="evenodd"/><path d="M12.34 46.52h.06v-.1h-.15zM88 46.19a1 1 0 00-.45-.21zM12.4 46.38zM59.87 57.71h-1.09a4.2 4.2 0 012.46-1.91c1.34-2.17-.11-2.86-1.81-3.41-1.94-.05-3.87-.59-5.81 0v3.29c.19.15 3.4 1.37 3.6 1.46a30.19 30.19 0 00-3.66 1.55c-.08 2-.12 3.05-.19 5.08 2.35.19 4.71.57 7-.18 3.05-2.2 2.96-3.32-.5-5.88zM250.68 52zM248.21 50.44zM258.31 52.64z" fill="none"/><path d="M184.14 47.28l8 .89c2.35-.5 4.7-1.25 7 .08l2-.38c1.76.16 3.62-.55 5.28.43a.92.92 0 01.41.26l2 .08c.74-.73 1.67-.55 2.57-.5v-1.26l-1.43-.25-9.48-.1a4.38 4.38 0 01-4.5-.14 132.47 132.47 0 00-14.3-.39c-1.33 1-2.8.28-4.21.37a1.74 1.74 0 00-1.86 0q-19.46-.57-38.92-1.15c-.94 0-2 .21-2.73-.61l-35.34-1.33-6.78-.09-.11.17.1.19a1.59 1.59 0 001.44 1l2 .18c3 .8 6-.12 9 .28.68.09 1.39-.17 2 .33 1.77 1.36 3.67 1 5.58.36 2.37-.47 4.75-1 7.09.2l.64.07c1.44-1.41 2.74.54 4.13.19 3.19-1.73 6.29.7 9.45.23v-.06h.1c1.13-1.23 2.52-.3 3.79-.39l3.24.13a2.34 2.34 0 01.53-.08c1.12.12 2.36-.39 3.31.64 1.42 1.57 2.53-1.4 3.92-.26 1.28.11 2.67-.47 3.82.57l.66.12c1.82-.75 3.33 1.77 5.19.5a6.92 6.92 0 015.22-.81c2.57.53 5.16.15 7.68.76a4.22 4.22 0 003.2-.43l7.66.2z" fill="#171818"/><path d="M144.19 46.61a.85.85 0 00-.52-.23 1.51 1.51 0 01.52.23zM133.27 46.36zM137.13 46.32v.15h.1a.71.71 0 01-.1-.15zM209.9 46.63c.26-.06.53-.12.79-.16a2.23 2.23 0 00-.79.16zM137.07 46.32h.06v-.4a.67.67 0 01-.06.4z" fill="#171818"/><path d="M143.27 55.1a52.48 52.48 0 01-4.9 9.25c-2-3.41-3.84-6.41-5.54-9.48-1-1.8-1.85-1.91-2.9-.13l-1 1.66.73.83c1-.33 1.29.52 1.67 1.11 1.36 2.18 2.64 4.4 4 6.55.66 1 .78 2.68 2.49 2.58 1.49-.09 1.53-1.6 2.08-2.56 1.91-3.33 3.54-6.83 5.85-9.92a1.58 1.58 0 00-2.48.11z" fill="#111"/><path d="M39.5 45.4c-.85-1.09-2.21-.28-3.26-.9 1.46-1.76 3-1.38 4.64-.31a5.44 5.44 0 013.32-.49l1.72-.54c1.83 0 3.69-.37 5.37.72l2 .12c.2-.67.4-1.33.61-2-3 1.24-5.81-.61-8.73-.33h-.63a21.64 21.64 0 01-7.44.49c-1.11-.16-.45-.86-.63-1.28a.36.36 0 00-.48-.13c-1.62.38-3.43-.39-4.95.85-.26.22-1.1-.06-1.15-.65 0-.28.51-.61.79-.91a6.76 6.76 0 00-5.15-.68v.53l.69.7c1.42-.14 2.65-.09 1.79 1.91v.77c.46.6 1.52.82 1.24 1.9l1.72-.61c.83-1.08 2.49-.2 3.19-1.58 1 2.08-.93 2.06-1.63 2.86a15.44 15.44 0 005.12.08c.46-.71 1.18-.51 1.85-.52z" fill="#151616"/><path d="M5.3 43.76l.7.05c.07-.84.48-1.29 1.35-1.26l.3-1.4 1 1.41A1.2 1.2 0 0110 41.3c.53-.69 1-1.75 2-.55l1.87.7c-.71-2.91.85-2.54 2.65-1.84l1.33-1.27c-1.06-.49-2.26-.29-3.31-.5C12.62 37.45 10 39 8.87 36.2c.43-.76-.12-1-.67-1.2-1.45 1.31-2.56 3-5.1 2.49-1.62-.31-2.33 1.19-2.2 2.82l2.53 2.76C4.55 42 4.87 43 5.3 43.76z" fill="#131313"/><path d="M12.34 46.52a.41.41 0 01.05.09v-.13z" fill="#1d1e1e"/><path d="M24 45h-1.1c0 .9-.51 1.22-1.33 1.38s-.62-.28-.64-.65a1.22 1.22 0 011.24-1.45l.04-1.28c-.78.05-1.59.11-1.84-.85-.19-.75-.93-1.84.37-2.13s.71 1 1 1.6a6.23 6.23 0 00.5.8l1.29-.56a4 4 0 012-2v-.53c-2.53-.64-5.06-1.33-7.73-1l-1.33 1.27c0 .25-.07.5-.1.75-.11.59.06 1.28-.6 1.67-.06.62-.16 1.22-.85 1.47-.1 1.11.9 2.44-.67 3.23-.62 0-1.24-.09-1.87-.12 0 .43 0 .87-.07 1.3v.67c1.49 1.36 3-.15 4.49 0-1.11-1.41.1-2.77 0-4.31 1.79.76 3 1.75 2.59 3.8l4.61-.57.68-1.21c-.57-.28-.55-.79-.68-1.28z" fill="#1d1e1e"/><path d="M137.12 47c-1.28-.22-2.75.61-3.84-.66-3.16.47-6.26-2-9.45-.23-1.43 1-2.76.09-4.13-.19l-.64-.07a10.47 10.47 0 01-7.09-.2c-1.91.61-3.81 1-5.58-.36-.65-.5-1.36-.24-2-.33-3-.4-6.06.52-9-.28.36 1.19-.38 1.17-1.21 1.12-1.36-.1-2.74-.16-4.11-.24-1.15.32-1.31-1.4-2.42-1.17l-.84 1.15.87.41a1 1 0 01.45.21l52.26 1.58a5.78 5.78 0 000-.58zM137.21 46.47h-.1v.12h.2a.44.44 0 01-.1-.12zM137.09 46.59v.44-.44z" fill="#9f9f9f"/><path d="M261.42 48.42c-1.14-.56-.72-1.28-.27-2-4.27-1-8.58-.68-12.89-.47.78 1.58-.38 2-1.46 2.51a.7.7 0 00-.55.18c0 .44-.09.88-.13 1.32.16.2.33.39.5.59l1.56-.08c-.1-1.18.55-.79 1.15-.52.64-.31 1-1.45 2-.6l1.32-.64c3.74-2.07 2.51.86 2.54 2.52l1.18 1 .59-.69c-.68-.38-.49-.82.06-1 .88-.34 1.13.49 1.52 1l1.86.76c.67-.44 1.49-.79 1.29-1.85.2-.82.67-1.58-.27-2.03z" fill="#262727"/><path d="M208.38 61.44a1 1 0 01-.07.15l.15-.07zM208.38 61.44zM203.84 60.23a37.33 37.33 0 00-2.89-3c-1.86-2.13-4.06-2.22-6.8-1.39 8.47 4.92 11.33 8.69 8.48 13.29a14.62 14.62 0 004.89-.06c-1.29-2.71-.33-5.1.79-7.46-1.89.98-3.26.39-4.47-1.38z" fill="#101010"/><path d="M156.69 61.18v-.56c-1.59-1.59-.38-3.44-.48-5.16-.06-.23-.11-.45-.17-.67-1.25.17-2.64-.63-3.73.57 0 4.07.71 8.23-1 12.16l5.2.16v-.59a4.76 4.76 0 01.18-5.91z" fill="#1d1e1e"/><path d="M232.77 70.14c.25-.7.84.16 1.19-.2.89-1.35 1.89-2.46 3.74-1.76.07-.22.14-.44.2-.66.5-.62 1.46-.9 1.41-1.92 0-1.25.63-.75 1.2-.44 1.33-1.16.78-1.76-.63-2.1a4 4 0 00-.48.07c-1.51 1.36-2.94 2.92-5.32 2.24-.65.49-1 1.86-2.21.72-.7 1.62-2.78 1.17-3.67 2.48a4.63 4.63 0 01-2.73 1.71l-1.19 1.38a17.17 17.17 0 006.5-.43c.84-.13 1.58 1.28 2.49.17a1.1 1.1 0 01-.5-1.26z" fill="#ecebea"/><path d="M72.26 53c0 4.06.18 8.14-.62 12.21a9 9 0 011.47.14c2.28.44 2.76-.29 2.52-2.66a27.83 27.83 0 01.55-9.69 2.82 2.82 0 00-3.92 0zM73.74 51.89h.67a1.52 1.52 0 00-.67 0z" fill="#151515"/><path d="M120 55.65c-.89-1.58-1.76-3.23-3.85-1.33 1.25 3.28 2.45 6.58 3.78 9.83.41 1 .22 2.63 1.72 2.81 1.78.21 2.07-1.49 2.74-2.65l-.84-.89c-2.1-2.18-2.39-5.18-3.55-7.77z" fill="#101010"/><path d="M99.28 59.63c0-.31 0-.62.07-.93 0-1.63.07-3.27.11-4.9a2.79 2.79 0 00-3.87-.26 25.65 25.65 0 01-.76 12.4h2c.65 0 1.47.06 2.17.06 0-.26.07-.51.1-.77.09-1.9.13-3.75.18-5.6zM175.23 55h.87a1.72 1.72 0 00-.87 0zM173.72 55.85a25.5 25.5 0 01-.65 12.25l4.49.13c-.67-4.13-.08-8.08 0-12-1.15-1.23-2.47-1.13-3.84-.38z" fill="#060606"/><path d="M234 48.08l.52.07c1-.26 2-.41 2.69.67 1.5-1.74 3 .88 4.44 0 1.84-2.3 4.21-2.51 5.17-.44 1.08-.49 2.24-.93 1.46-2.51l-13.54-.31c-.22.4-.45.8-.68 1.2z" fill="#333332"/><path d="M81.16 58.28l-3.49-.11c0 .28-.07.55-.11.83 4.42 1.9 6.67 8 13 6.57l-8-5.92a2 2 0 01-1.4-1.37z" fill="#191919"/><path d="M183.12 61.35l-4-.12c5 5.83 8.56 7.87 12.15 7.14l-8-6.85z" fill="#181818"/><path d="M244.66 59.89l1.26-1c-.15-.43-.29-.86-.43-1.29-1.36.29-1.64 2.35-3.36 2l-2.25 3.47c1.41.34 2 .94.63 2.1l.66 1.19c1.28.31 2.29-2.34 3.71-.32l1.64-1.77c-1.92-.92-2.14-2.54-1.86-4.38z" fill="#d0cece"/><path d="M71.36 44.46a18.81 18.81 0 005.75.28c3.28-.65 6.39.61 9.59.83l.84-1.15c0-.23-.09-.45-.13-.68a2.67 2.67 0 00-.59-.23c-3.14-.27-6.28-.57-9.42-.82-1.51-.11-3.08-.34-4.21 1.08L72 43.72a.67.67 0 00-.64.74z" fill="#303030"/><path d="M136.68 45.14q19.45.6 38.92 1.15a14.27 14.27 0 00-2.47-.51q-19.59-.66-39.18-1.25c.77.82 1.79.58 2.73.61z" fill="#181919"/><path d="M8.55 46.54c-1.67.28-2.12-.54-1.81-2l-.67-.09-1.37 1.9-3.91.54c-.19 1.23-.23 2.79 1.43 2.49 3.37-.61 6.85.49 10.14-.8v-.67c-1.67.59-3.36 1.31-3.81-1.37z" fill="#363636"/><path d="M226.86 48.59a1.12 1.12 0 00-1.87-.1c-.58 1-1.66.24-2.4.68a2.92 2.92 0 01-3.77-.12 20.16 20.16 0 01-5.54-.25l-.66.24a6.12 6.12 0 004.31 1.73c3.72.19 7.44.24 11.17.35v-.61c-1.25-.09-1.29-.98-1.24-1.92z" fill="#eeeded"/><path d="M83.83 52.22c.29.05.58.12.87.19a3.49 3.49 0 00-.87-.19zM82.52 59.65c.18-2.16 2.14-.92 3.15-1.59s2.64-1.23 2.64-2.8c0-1.73-1.26-2.52-2.9-2.69-.89.32-2-.39-2.76.59 1.06.56 2.15 1.1 1.9 2.6-.32 1.93-2.21 1.75-3.39 2.52a2 2 0 001.36 1.37z" fill="#242525"/><path d="M186.9 61c1.57-.49 2.91-1 2.89-2.78s-1.37-2.45-3-2.64c-.88.38-2-.31-2.77.59 3.22 2.08 3.1 2.77-.91 5.18l.13.17a8.36 8.36 0 003.66-.52z" fill="#151515"/><path d="M192.09 48.17c-2.62 1-5.25.11-7.88 0-.82.57-1.68.08-2.53.08 0 .24-.07.47-.11.7 2.47.11 4.94.37 7.4.29 3.6-.11 7.23.88 10.81-.2l-.67-.81c-2.32-1.31-4.67-.56-7.02-.06z" fill="#bebebe"/><path d="M221 46.72c-1-.43-2.08-.78-2.48.8l1.75.23c1.61 0 3.28-.27 4.73.74a1.12 1.12 0 011.87.1h2.58a1.35 1.35 0 010-.6c-1.59-2.33-4.2-1.72-6.41-2.24a.67.67 0 00-.57.19c-.07 1.06-.56 1.17-1.47.78z" fill="#1c1d1d"/><path d="M245.49 57.55c.21-1 1.53-.44 1.84-1.31-1.4-.44-.77-1.44-.64-2.31.19-1.31 0-2.32-1.68-2.25-.14 2.67-1.69 4.72-3 6.87l.12 1c1.72.35 2-1.71 3.36-2z" fill="#292a2a"/><path d="M99.46 53.8c2.8-.62 5.59.06 8.39.07.93-1 2.07-.43 3.14-.42-1.57-1.65-3.58-.7-5.36-.83-4.15-.3-8.32-.31-12.47-.43v.6l2.43.75a2.79 2.79 0 013.87.26z" fill="#555454"/><path d="M156.06 54.79c2.87.14 5.81-.58 8.56.81 1.59-.25.84 1.89 2.28 2.07.47-1.33 2-3-1-3.19-5.46-.32-10.93-.37-16.4-.54.94.67 1.93.88 2.8 1.42 1.12-1.2 2.51-.36 3.76-.57z" fill="#373838"/><path d="M208.51 61.4c3.18-.7 4.85-3.46 8.05-5.28a9 9 0 00-8.05 5.28zM208.38 61.44l.08.08a.61.61 0 010-.12h-.13z" fill="#373737"/><path d="M85.41 52.57c-.24-.07-.47-.11-.71-.16s-.58-.14-.87-.19a39.61 39.61 0 00-9.42-.37h-.67C72.37 52 71 52 69.63 52l2.63.94a2.82 2.82 0 013.92.08 13.24 13.24 0 016.47.12c.75-.96 1.87-.25 2.76-.57z" fill="#4a4949"/><path d="M152.59 47c.72 1.4 2 1.32 3.32 1.35 2.87.07 5.74.26 8.61.18 1.83 0 3.78.91 5.48-.5l-12.22-.53c-1.86 1.31-3.37-1.21-5.19-.5z" fill="#d6d6d6"/><path d="M186.8 55.58a34.72 34.72 0 00-10.7-.64h-.87c-1.31.06-2.61.13-3.92.15l2.41.72c1.37-.75 2.69-.89 3.88.35a11.71 11.71 0 016.43 0c.77-.89 1.89-.16 2.77-.58z" fill="#4a4949"/><path d="M225.47 70.28l-.55-1c-2.11 1.08-4.46 1.82-6.13 4.1l5.34-.43.15-1.28z" fill="#333434"/><path d="M123.53 63.42l.84.89a48.94 48.94 0 005.33-7.08l-.7-.83a52.23 52.23 0 00-5.47 7.02z" fill="#303131"/><path d="M157.78 47.54l12.22.53.68-.58c-2.52-.61-5.11-.23-7.68-.76a6.92 6.92 0 00-5.22.81z" fill="#181919"/><path d="M181.54 47.26l-7.66-.2c.35.92 1.61.19 2 1-.87.37-1.89-.23-2.9.7 1.64 0 3.69.69 4.29 0 1.75-1.94 2.9-.36 4.28.14 0-.23.08-.46.11-.7s-.07-.6-.12-.94z" fill="#a8a8a8"/><path d="M229.42 48l2-.61c.3-.46.59-.92.88-1.39 0-.13-.06-.26-.08-.4-3.06-.15-6.13-.58-9.17.16 2.17.48 4.78-.13 6.37 2.24z" fill="#909090"/><path d="M77.4 42.69c3.14.25 6.28.55 9.42.82-3.82-2-7.92-1.26-11.93-1.51-1.25-.08-1.74.57-1.7 1.75 1.13-1.4 2.7-1.17 4.21-1.06z" fill="#c9c8c8"/><path d="M71.36 44.46h-1.47l-1.75.73c-.07.15-.14.3-.2.46l9.68.27-.51-1.14a18.81 18.81 0 01-5.75-.32z" fill="#989898"/><path d="M86.7 45.57c-3.2-.22-6.31-1.48-9.59-.83l.51 1.14 10.4.31-.45-.19z" fill="#bbbaba"/><path d="M234.64 50c0-.6-.1-1.2-.14-1.8l-.52-.07-1.15.08c-.7 1-2 .45-2.8 1.2.52 2.32-1.35.64-1.92 1.15v.61l3.84.14 1.44-1.19 1.16.16z" fill="#d3d3d3"/><path d="M248.38 61.25c-.07-.42 0-.91-.51-1.13l-3.21-.23c-.28 1.84-.06 3.46 1.86 4.37A1.05 1.05 0 00247 64c.15-1-.37-2.47 1.38-2.75z" fill="#b5b5b5"/><path d="M3.43 43.07L.9 40.31a5.68 5.68 0 00-.68 4.56H2.7c.24-.63.49-1.21.73-1.8z" fill="#2c2c2c"/><path d="M162.31 67.15c-1.93 0-3.86 0-5.79-.06v.59c2.89.14 5.8.2 8.68.46s2.83-1.06 1.91-3.79c-.87 3.09-2.87 2.84-4.8 2.8z" fill="#252524"/><path d="M16.87 44.26c.08 1.54-1.13 2.9 0 4.31a3.48 3.48 0 002.61-.51c.36-2.06-.82-3.06-2.61-3.8z" fill="#2e2e2e"/><path d="M106.4 65.47c-2.42-.16-4.84-.2-7.26-.29 0 .26-.06.51-.1.77 3.91.16 7.82.9 11.74.07-.21-.75.13-1.63-.59-2.25a3.89 3.89 0 01-3.79 1.7z" fill="#262626"/><path d="M246.69 53.93c-.13.87-.76 1.87.64 2.31a2.33 2.33 0 00.59 0 2.18 2.18 0 01.18-.58c-.14-.9-.94-1.77-.16-2.73.28-.61.56-1.22.83-1.84l-.56-.66-1.56.08c-.34.76-1 .53-1.6.54a1.19 1.19 0 000 .62c1.62-.06 1.83.95 1.64 2.26z" fill="#4e4e4e"/><path d="M108 61.27c.61-3.16.28-3.93-.56-3.33-2.61 1.83-5.37.56-8 .76 0 .31 0 .62-.07.93 2.85.26 6.02-.85 8.63 1.64z" fill="#2b2b2b"/><path d="M144.19 46.61a1.51 1.51 0 00-.52-.23c-.94-.09-2.12 1.1-2.79-.41a2.34 2.34 0 00-.53.08V47.19a5.78 5.78 0 010 .58l6.43.21 1.4-1.63c-1.46-1.14-2.57 1.83-3.99.26z" fill="#aeadae"/><path d="M206.77 48.56l-1.19-.07a3.12 3.12 0 01-4-.11l-.54-.51-2 .38.67.81c2.94.93 6 .61 9 .76v-1.18z" fill="#adadad"/><path d="M206.77 48.56a.92.92 0 00-.41-.26 4.65 4.65 0 01.41.26z" fill="#adadad"/><path d="M264.2 47.87c-.1-1.51-1.84-1.32-3.05-1.48-.45.75-.87 1.47.27 2 .94.45.47 1.21.31 1.88a2.66 2.66 0 002.47-2.4z" fill="#3a3b3a"/><path d="M37.11 42.14a21.64 21.64 0 007.44-.49c-2.6-1.13-5.4-.32-8.07-.79.18.42-.48 1.14.63 1.28z" fill="#272727"/><path d="M148.11 46.35l-1.4 1.65c1.76-.27 3.89 1.31 5.22-1.06-1.15-1.06-2.54-.48-3.82-.59z" fill="#d6d6d6"/><path d="M164.67 63.82a10.9 10.9 0 00.18-5.53 3.76 3.76 0 01-3.62 2.47v.55c1.57-.09 2.49.97 3.44 2.51z" fill="#262626"/><path d="M234.08 65.37c2.38.68 3.81-.88 5.32-2.24l-1.4-.77-3.86 2.49a.84.84 0 01-.06.52z" fill="#454645"/><path d="M120 55.65c-.55-1.92 1.61-1.48 2.34-2.38L114 53c0 .13 0 .26-.08.39l2.18.9c2.12-1.87 2.99-.22 3.9 1.36z" fill="#505050"/><path d="M246.8 48.43c-1-2.07-3.33-1.86-5.17.44-1.48.84-2.94-1.78-4.44 0l.45.51a4.39 4.39 0 01-3 .62l-.1.27c1.29.65 2.54 1.13 3.4-.62 2.32 2 3 1.82 3.68-.71.88.43 1.89-.64 2.72.25l1.91-.54a.7.7 0 01.55-.22z" fill="#e1e0e0"/><path d="M239.88 63.06l2.25-3.47-.12-1-4 3.81 1.44.77a4 4 0 01.43-.11z" fill="#464747"/><path d="M44.2 43.7a5.44 5.44 0 00-3.32.49c0 .22-.07.43-.1.65v1.2l3.22-.48.15-.64c.04-.41.05-.81.05-1.22z" fill="#5a5a5a"/><path d="M53.91 42a14.46 14.46 0 00-8.73-.33c2.92-.28 5.82 1.57 8.73.33z" fill="#272727"/><path d="M214 47.49l2.06.1 1.79-.11c-.2-.4-.39-.8-.59-1.19a38.59 38.59 0 00-6.54.18c-.26 0-.53.1-.79.16l1.43.25c.91-.05 1.91-.37 2.64.61z" fill="#262626"/><path d="M224.28 71.66l-.15 1.28c2.29-.27 4.87.6 6.64-1.71a17.17 17.17 0 01-6.49.43z" fill="#aaa"/><path d="M253.76 55.06h-.29l-.28-.1-.65.16c-.28.6-.55 1.21-.83 1.81l.73.67 2.44.07a.77.77 0 00.17-.53 1.92 1.92 0 00-.61-1.69z" fill="#252525"/><path d="M60.38 45.52l-.46.12a1 1 0 00.46-.12zM59.71 44.26l-.21 1.07.88.19h5.11c.15-.35.3-.71.44-1.06-2.09.46-4.14-.27-6.22-.2z" fill="#858484"/><path d="M57 45.2c-.6-.26-1.56.67-1.87-.56S54 44 53.3 44c.83 1.13-.39 1.27-.87 1.76 2.5 0 5 .5 7.49-.14l.46-.12-.88-.19z" fill="#939293"/><path d="M3.91 45.17l-1.21-.33H.22a2.27 2.27 0 00.57 2l3.91-.54z" fill="#969696"/><path d="M94.07 45.83c.83.05 1.57.07 1.21-1.12l-2-.18c-1.22 1-2 .38-2.6-.75l-.68-.07v1.88c1.33.08 2.71.14 4.07.24z" fill="#6e6e6e"/><path d="M143.27 55.1a1.58 1.58 0 012.56-.11l2.63-.91-8.46-.26z" fill="#4e4e4e"/><path d="M34.13 43c-.7 1.38-2.36.5-3.19 1.58l.93 1.42.63-.15c.7-.85 2.67-.85 1.63-2.85z" fill="#5f5f5f"/><path d="M29.9 40.93c.05.59.89.87 1.15.65 1.52-1.24 3.33-.47 4.95-.85l-.34-.14c-1.59-.68-3.29-.52-5-.57-.25.3-.78.63-.76.91z" fill="#4c4c4c"/><path d="M250.41 60.22c-.69-.28.17-1.28-.69-1.49h-.45l-1.42.76v.63c.53.22.44.71.51 1.13s.06.63.08 1c.49-.09 1.11.13 1.31-.58.25-.52.45-.98.66-1.45z" fill="#434342"/><path d="M46.17 44.41l-2 .51-.15.64 7.23.2-.65-.8c-1.49-.06-3.08.66-4.43-.55z" fill="#bfbfbf"/><path d="M156.06 54.79c.06.22.11.44.17.67 2.8-.51 5.59.11 8.39.14-2.75-1.39-5.69-.67-8.56-.81z" fill="#585757"/><path d="M218.51 47.52c.4-1.58 1.48-1.23 2.48-.8s1.41.27 1.45-.81a8.38 8.38 0 00-5.21.38c.2.39.39.79.59 1.19z" fill="#424242"/><path d="M251.63 58.43c.09.94-.53 1.39-1.22 1.79-.21.47-.43.93-.64 1.4 1.88 0 2.75-1.47 3.84-2.62l-1.89-.65z" fill="#3c3c3c"/><path d="M29.22 45.15a1.36 1.36 0 00-.67 1.26c-1.47-.82-1.65-1.88-.57-3.16v-.77c-1.49.2-2-.5-1.8-1.91l-.69-.7a4 4 0 00-2 2 2.42 2.42 0 001.38 1.32l.53.57c.88.7.39 1.67.52 2.53v.8c1 .18 2 .53 2.69-.55 1.08-.15 2.32.6 3.23-.55l-.93-1.43z" fill="#232323"/><path d="M208.77 48.64v1.18c1.33.42 2.3-.34 3.31-1l-.72-.71c-.92-.02-1.85-.2-2.59.53z" fill="#999898"/><path d="M214 47.49c-.7-1-1.7-.66-2.64-.61v1.26l.72.71h.31l.25.19.66-.24z" fill="#262525"/><path d="M69.89 44.42h1.47a.67.67 0 01.59-.74c-.55-1.84-2.22-.69-3.26-1.23-.17.38-.35.76-.53 1.14.57.31 1.51-.23 1.73.83z" fill="#c2c1c1"/><path d="M241.17 66.35v.69h.69c1.27.43 2.1-.45 3-1-1.4-2.04-2.41.62-3.69.31z" fill="#727271"/><path d="M231.94 51.26c1.37 1.21 3 .57 4.83.74-1.18-1.06-3-.24-3.39-1.93z" fill="#e1e0e0"/><path d="M91.85 43.19l6.78.09c-2.26-.45-4.51-1.28-6.78-.09z" fill="#343434"/><path d="M258.29 52.62L257.08 54l-.76.71c-.84.56-.83 1.13 0 1.73a3.76 3.76 0 002.1-2c0-.57-.05-1.15-.07-1.72z" fill="#5f5f5e"/><path d="M237.7 68.18l-.47.69v.86c1.23-.41 2.91-.11 3.17-2l-2.52-.19c-.04.2-.11.46-.18.64z" fill="#565555"/><path d="M53.3 44c.68 0 1.51-.49 1.81.62a1.6 1.6 0 012 .15c.92 0 1.65-.88 2.63-.53 2.08-.07 4.13.66 6.22.17a2.93 2.93 0 012.21.72l1.75-.73c-.22-1.06-1.16-.52-1.73-.79-1.12.13-2.17.11-2.71-1.14L53.9 42c-.21.66-.41 1.32-.61 2l-2-.12c-.23.36-.45.72-.67 1.08l.65.8h1.16c.48-.47 1.7-.61.87-1.76z" fill="#191a1a"/><path d="M107.85 53.87c1.58-.38 1.12 1.87 2.37 2l.77-2.41c-1.07-.02-2.21-.57-3.14.41z" fill="#2e2e2e"/><path d="M241.16 67v-.69l-.66-1.19c-.57-.31-1.2-.81-1.2.44.39.69.78 1.38 1.16 2.07h.71a.76.76 0 01-.01-.63z" fill="#afafaf"/><path d="M228.2 68.57a6.42 6.42 0 00-3.28.7l.55 1a4.63 4.63 0 002.73-1.7z" fill="#646464"/><path d="M68.16 43.63c.18-.38.36-.76.53-1.14h-3.24c.55 1.25 1.55 1.27 2.71 1.14z" fill="#717172"/><path d="M251.72 58.35l1.89.65c.62-.24 1.16-.54 1.27-1.28l-2.44-.07z" fill="#4e4f4e"/><path d="M90 45.59v-1.88h-2.61c0 .23.09.45.13.68 1.13-.2 1.29 1.52 2.48 1.2z" fill="#6b6c6b"/><path d="M247 64c1.44.16 1.47-.82 1.47-1.82 0-.32-.05-.63-.08-1-1.76.35-1.24 1.82-1.39 2.82z" fill="#3a3a3a"/><path d="M256.32 54.67c-.94-.43-.91 1.34-1.88.83a1.92 1.92 0 01.61 1.69l1.23-.79c-.79-.6-.8-1.17.04-1.73z" fill="#141414"/><path d="M200.42 46.53l-4.5-.14a4.38 4.38 0 004.5.14z" fill="#181919"/><path d="M258.28 52a1.41 1.41 0 010 .61c0 .57.05 1.15.07 1.72a4.9 4.9 0 002.06-2.21l-1.86-.76z" fill="#3e3f3e"/><path d="M161.21 61.31v-.55l-4.52-.14v.56z" fill="#2a2a2a"/><path d="M234.54 70c0 .26 0 .52.05.78a4.88 4.88 0 002.66-1v-.86c-.82.54-2.1-.03-2.71 1.08z" fill="#666565"/><path d="M39.5 45.4c-.67 0-1.39-.19-1.88.5l3.2.14v-1.2z" fill="#393939"/><path d="M65.93 44.43c-.14.35-.29.71-.44 1.06l2.45.12c.06-.16.13-.31.2-.46a2.93 2.93 0 00-2.21-.72z" fill="#424343"/><path d="M234.08 65.37a.84.84 0 000-.52c-1.1-.23-1.47.86-2.23 1.24 1.2 1.14 1.58-.23 2.23-.72z" fill="#595959"/><path d="M246.62 50.52c-.17-.2-.34-.39-.5-.59a2 2 0 01-1.81-.32 1.28 1.28 0 00.71 1.45c.59-.01 1.26.22 1.6-.54z" fill="#e1e0e0"/><path d="M181.69 46a10.88 10.88 0 00-3.69.22l-.25.07-.28.08c1.42-.13 2.89.63 4.22-.37z" fill="#181919"/><path d="M234.25 69.94H234c-.35.36-.94-.5-1.19.2a1.1 1.1 0 00.5 1.26l1.32-.65c0-.26 0-.52-.05-.78z" fill="#8d8c8c"/><path d="M246.12 49.93c0-.44.09-.88.13-1.32l-1.91.54v.46a2 2 0 001.78.32z" fill="#353535"/><path d="M24.73 45.73a2 2 0 00-.05.55L24 47.49l2-.42v-.8z" fill="#3a3a3a"/><path d="M110.19 63.77c.72.62.38 1.5.59 2.25a6.84 6.84 0 00.55-2c-.05-1.18-.56-1.2-1.14-.25z" fill="#383838"/><path d="M93.28 44.53a1.59 1.59 0 01-1.44-1l-1.16.23c.61 1.15 1.38 1.73 2.6.77z" fill="#343434"/><path d="M234 46.81c.23-.4.46-.8.68-1.2h-2.54c0 .14 0 .27.08.4.68.13 1.49-.01 1.78.8z" fill="#5e5e5e"/><path d="M241.18 67.65c.42 0 .61-.2.67-.59h-.69a.76.76 0 00.02.59z" fill="#0a0a0a"/><path d="M119 45.88c-2.34-1.18-4.72-.67-7.09-.2a10.47 10.47 0 007.09.2z" fill="#1d1e1e"/><path d="M184.21 48.19c2.63.09 5.26 1 7.88 0l-8-.89c.08.28.1.58.12.89z" fill="#181919"/><path d="M201.08 47.87l.54.51 4 .11 1.19.07a4.65 4.65 0 00-.41-.26c-1.7-.98-3.56-.3-5.32-.43z" fill="#d6d7d6"/><path d="M184.14 47.28h-2.6c.05.34.1.68.14 1 .85 0 1.71.49 2.53-.08-.02-.32-.04-.62-.07-.92z" fill="#555554"/><path d="M123.8 46.14c-1.39.35-2.69-1.6-4.13-.19 1.33.28 2.7 1.22 4.13.19z" fill="#1d1e1e"/><path d="M137.11 45.92c-1.27.09-2.66-.84-3.79.39h3.75a.67.67 0 00.04-.39zM133.22 46.31v.06s.01-.04 0-.06z" fill="#c5c5c5"/><path d="M143.67 46.38a.85.85 0 01.52.23c-.95-1-2.19-.52-3.31-.64.67 1.51 1.85.32 2.79.41z" fill="#181919"/><path d="M137.21 46.47a.44.44 0 00.08.11h3.05v-.48l-3.24-.13v.4a.71.71 0 00.11.1z" fill="#b2b2b2"/><path d="M45.92 43.16c-.08.45 1.15.64.25 1.25 1.35 1.21 2.94.49 4.45.55.22-.36.44-.72.67-1.08-1.68-1.09-3.54-.75-5.37-.72zM36.24 44.5c1 .62 2.41-.19 3.26.9l1.28-.56c0-.22.06-.43.1-.65-1.61-1.07-3.18-1.45-4.64.31z" fill="#272727"/><path d="M28 42.48c.86-2-.37-2-1.79-1.91-.21 1.43.3 2.11 1.79 1.91z" fill="#4b4b4b"/><path d="M28.55 46.41a1.36 1.36 0 01.67-1.26c.28-1.08-.78-1.3-1.24-1.9-1.08 1.28-.9 2.34.57 3.16z" fill="#525252"/><path d="M45.92 43.16l-1.72.54v1.22l2-.51c.87-.61-.36-.8-.28-1.25z" fill="#d8d8d8"/><path d="M13.83 41.45l-1.41 2.45c1.34 0 1.1 1.4 1.76 2 .29-.79 0-1.75.75-2.4.69-.25.79-.85.85-1.47-.46-.79-1.32-1.73.6-1.67 0-.25.07-.5.1-.75-1.8-.7-3.36-1.07-2.65 1.84z" fill="#383838"/><path d="M9.12 44.66L10 44a1.36 1.36 0 00-1.29-.77 1.38 1.38 0 01-1.31-.69c-.87 0-1.28.42-1.35 1.26a6.18 6.18 0 00.07.62l.67.09a1.74 1.74 0 002.33.15z" fill="#3f3f3f"/><path d="M10.62 42c0 .45 0 .9-.07 1.35.53 0 1 0 1.37.48a1.2 1.2 0 00.5 0l1.41-2.45-1.83-.63A1.17 1.17 0 0110.62 42z" fill="#181818"/><path d="M5.3 43.76c-.93 0-1.29.59-1.39 1.41l.79 1.18 1.37-1.92a6.18 6.18 0 01-.07-.62z" fill="#111"/><path d="M8.66 43.24A1.36 1.36 0 0110 44l.6-.64c0-.45 0-.9.07-1.35L10 41.3a1.2 1.2 0 00-1.34 1.26c0 .23 0 .46.05.68z" fill="#454545"/><path d="M5.3 43.76c-.43-.76-.75-1.76-1.87-.69-.24.59-.49 1.17-.73 1.77l1.21.33c.09-.82.46-1.4 1.39-1.41z" fill="#525151"/><path d="M12 40.75c-1-1.2-1.48-.14-2 .55l.67.72A1.17 1.17 0 0012 40.75z" fill="#4e4f4e"/><path d="M8.66 43.24c0-.22 0-.45-.05-.68l-1-1.41-.3 1.4a1.38 1.38 0 001.35.69z" fill="#222"/><path d="M12.25 46.35l-3.12-.59-.58.78c.45 2.68 2.14 2 3.77 1.37 0-.43 0-.87.07-1.3a.41.41 0 00-.05-.09z" fill="#292a2a"/><path d="M22.21 43l-.06 1.28.73.72H24l.9-1.86a2.42 2.42 0 01-1.38-1.32l-1.29.56z" fill="#3a3a3a"/><path d="M21.71 41.6c-.26-.6.23-1.86-1-1.6s-.56 1.38-.37 2.13c.25 1 1.06.9 1.84.85v-.58a6.23 6.23 0 01-.47-.8z" fill="#3e3e3e"/><path d="M14.18 45.9c-.66-.6-.42-2-1.76-2a1.2 1.2 0 01-.5 0l.48 2.53v.23c.63 0 1.25.08 1.87.12 0-.28 0-.56-.08-.83z" fill="#535353"/><path d="M20.91 45.71c0 .37-.05.79.64.65s1.34-.48 1.33-1.38l-.73-.72a1.22 1.22 0 00-1.24 1.45z" fill="#898989"/><path d="M24 45c.15.47.13 1 .7 1.26a2 2 0 01.05-.55c.23-.67.45-1.33.68-2l-.53-.57z" fill="#7c7c7c"/><path d="M14.18 45.9c0 .27.05.55.08.83 1.57-.79.57-2.12.67-3.23-.71.65-.46 1.61-.75 2.4z" fill="#696969"/><path d="M15.78 42c.66-.39.49-1.08.6-1.67-1.92-.03-1.06.91-.6 1.67z" fill="#757575"/><path d="M133.28 46.37c1.09 1.27 2.56.44 3.84.66V46.32h-3.91.05z" fill="#5b5b5b"/><path d="M137.09 46.59v.44l3.19.16v-.66h-3.05z" fill="#383838"/><path d="M250.58 51.14c0 .28 0 .55.08.83l1.2-.17a.85.85 0 00.13-.51c.31-.87 4.31-.8.68-2.67l-1.32.64-.69 1.29a.87.87 0 01-.08.59z" fill="#353535"/><path d="M252 51.31l3.22-.15c0-1.66 1.2-4.59-2.54-2.52 3.64 1.87-.36 1.8-.68 2.67z" fill="#3a3b3b"/><path d="M251.88 51.82l2.05.77h.64l1.3-.12.54-.4-1.18-1-3.22.15a.85.85 0 01-.13.6z" fill="#d7d7d7"/><path d="M257.08 54l1.21-1.34a1.41 1.41 0 000-.61l-1.29-.63-.59.69-.54.4a1.16 1.16 0 001.21 1.49z" fill="#a09f9f"/><path d="M248.21 50.44l.56.66h1.81a.87.87 0 00.1-.57L249.6 50a.7.7 0 01-.24-.13c-.6-.27-1.25-.66-1.15.52z" fill="#919090"/><path d="M250.68 50.57l.69-1.29c-1-.85-1.37.29-2 .6a.7.7 0 00.24.13z" fill="#3a3b3b"/><path d="M258.58 51.39c-.39-.52-.64-1.35-1.52-1-.55.22-.74.66-.06 1l1.28.57z" fill="#b8b8b8"/><path d="M234 69.94h.58c.61-1.08 1.89-.51 2.69-1.1l.47-.69c-1.89-.67-2.89.44-3.74 1.79zM237.9 67.52l2.52.19h.08c-.38-.69-.77-1.38-1.16-2.07.02.98-.94 1.26-1.44 1.88z" fill="#e7e6e6"/><path d="M62 57.67c.22-.35.44-.71.67-1.06 1.34-.26 2.47-.93 2.52-2.36s-1.06-2.15-2.45-2.35c-.33-.1-.66-.17-1-.24a34.62 34.62 0 00-10.51-.39h-.12c-1.23.08-2.46.17-3.69.21l2 .15c1.41 4.28.64 8.5-.18 12.82l3.9.12c2.67.15 5.35.86 8-.28 2.41 0 4.69-.81 5-3.36S64.1 57.88 62 57.67zm-1.65 5.95c-2.33.75-4.69.37-7 .18.07-2 .11-3 .19-5.08a30.19 30.19 0 013.66-1.55c-.2-.09-3.41-1.31-3.6-1.46v-3.29c1.94-.59 3.87-.05 5.81 0 1.7.55 3.15 1.24 1.81 3.41a4.2 4.2 0 00-2.46 1.91h1.09c3.48 2.53 3.57 3.65.51 5.88z" fill="#161616"/><path d="M234.5 48.15c0 .6.09 1.2.14 1.8a4.39 4.39 0 003-.62l-.45-.51c-.68-1.08-1.67-.93-2.69-.67z" fill="#3c3d3d"/><path d="M232.26 46c-.29.47-.58.93-.88 1.39l1.45.81 1.15-.08.06-1.27c-.33-.85-1.14-.71-1.78-.85z" fill="#7e7d7d"/><path d="M57.08 44.79c0 .13-.07.27-.1.41l2.52.13.21-1.07c-.98-.35-1.71.56-2.63.53z" fill="#606060"/><path d="M55.11 44.64c.31 1.23 1.27.3 1.87.56 0-.14.07-.28.1-.41a1.6 1.6 0 00-1.97-.15z" fill="#464646"/><path d="M249.07 57.79a1.67 1.67 0 00-1.15-1.54 2.33 2.33 0 01-.59 0c-.31.87-1.63.31-1.84 1.31.14.43.28.86.43 1.29h.72z" fill="#b0b0b0"/><path d="M246.64 58.8h-.72l-1.26 1 3.21.23v-.63c-.45-.09-1.04 0-1.23-.6z" fill="#f2f2f2"/><path d="M9.12 44.66a1.74 1.74 0 01-2.38-.14c-.31 1.48.14 2.3 1.81 2l.58-.78c0-.35-.01-.74-.01-1.08z" fill="#949494"/><path d="M220.26 47.75c-1.44.59-2.86.88-4.23-.16l-2.06-.1-.69 1.31a20.16 20.16 0 005.54.25l3.77.12c.74-.44 1.82.31 2.4-.68-1.45-1.01-3.12-.72-4.73-.74z" fill="#313232"/><path d="M226.86 48.59c-.05.94 0 1.83 1.25 1.92.57-.51 2.44 1.17 1.92-1.15-.2-.27-.4-.53-.59-.8z" fill="#fff"/><path d="M218.82 49.05a2.92 2.92 0 003.77.12z" fill="#4f4f4f"/><path d="M229.42 48a1.35 1.35 0 000 .6c.19.27.39.53.59.8.79-.75 2.1-.25 2.8-1.2l-1.45-.81z" fill="#888"/><path d="M220.26 47.75l-1.75-.23h-.69l-1.79.11c1.37 1 2.79.71 4.23.12z" fill="#b1b1b1"/><path d="M25.93 46.27c-.13-.86.36-1.83-.52-2.53-.23.66-.45 1.32-.68 2z" fill="#6b6b6a"/><path d="M250 53.08l-2-.14c-.78 1 0 1.83.16 2.73l1.89-.45c2.16-.75.28-1.43-.05-2.14z" fill="#989797"/><path d="M250.66 52c0-.28 0-.55-.08-.83h-1.81c-.27.62-.55 1.23-.83 1.84l2 .14z" fill="#7d7d7d"/><path d="M250.53 56.83l-.53-1.61-1.89.45a2.18 2.18 0 00-.18.58 1.67 1.67 0 011.15 1.54c.07.31.14.63.2.94h.45a1.63 1.63 0 01.15-.52c-.09-.6-.07-1.16.65-1.38z" fill="#c1c0c0"/><path d="M205.58 48.49l-4-.11a3.12 3.12 0 004 .11z" fill="#818181"/><path d="M253.93 52.59l-2.05-.77-1.2.17-.7 1.09c.37.71 2.25 1.39 0 2.14l.54 1.61 1.18.15c.28-.6.55-1.21.83-1.81-.7-1.49.36-2.03 1.4-2.58z" fill="#d8d8d7"/><path d="M255.87 52.51l-1.3.12c-.07.73-.08 1.49-.88 1.88a.81.81 0 01.07.55l.68.44c1 .51.94-1.26 1.88-.83l.76-.71a1.16 1.16 0 01-1.21-1.45z" fill="#909090"/><path d="M254.57 52.63h-.64c-1 .55-2.1 1.09-1.39 2.58l.65-.16.5-.5c.8-.43.81-1.19.88-1.92z" fill="#b5b5b5"/><path d="M249.87 58.21l1.76.22.09-.08.72-.7-.73-.67-1.18-.15c-.72.22-.74.78-.66 1.38z" fill="#3c3c3c"/><path d="M253.69 54.51l-.5.5.28.1h.29a.81.81 0 00-.07-.6z" fill="#d7d8d7"/><path d="M249.72 58.73c.86.21 0 1.21.69 1.49.69-.4 1.31-.85 1.22-1.79l-1.76-.22a1.63 1.63 0 00-.15.52z" fill="#848484"/><path d="M246.64 58.8c.19.6.78.51 1.21.69l1.42-.76c-.06-.31-.13-.63-.2-.94z" fill="#7a7a7a"/><path d="M10.55 43.37L10 44l-.83.65v1.1l3.12.59h.15l-.48-2.53c-.36-.49-.88-.48-1.41-.44z" fill="#626262"/><path d="M216.49 13.13c.26-8.43.26-8.37-8.36-8.31-2.13 0-2.27.76-1.19 2.15 3.13 4 1.68 8.51 1.36 12.92-1.77-4.32-3.24-8.72-4.68-13.12-.34-1-.58-2.07-2-2.1-3.27-.06-6.54-.19-10.14-.3l2.31 5.07a6.1 6.1 0 01.26.9 10.7 10.7 0 01-.15 4.15q-.27 9.77-.58 19.54c.09 2.54.17 5.08.13 7.61 1.71.13 3.43.16 5.12.42 2.18.33 2.75-.58 2.76-2.65 0-4.75.24-9.5.38-14.26A79 79 0 01205.79 37c1.53 5.36 1.53 5.2 6.92 5.54 2.55.16 3-.74 3-3 .18-8.79.52-17.6.78-26.41z" fill="#ed2026" fill-rule="evenodd"/></g></svg>