<svg data-name="Layer 1" xmlns="http://www.w3.org/2000/svg" viewBox="0 0 270 100"><path fill="#fc0" d="M0 0h272v100H0z"/><path d="M100.17 54.48V40.25a.22.22 0 01.22-.23h4.2a.23.23 0 01.23.23v14c0 3.3 1.43 4.57 4.52 4.57s4.46-1.27 4.46-4.57v-14a.22.22 0 01.2-.25h4.2a.23.23 0 01.23.23v14.25c0 5.73-4 8.5-9.11 8.5s-9.17-2.77-9.17-8.5m21.69-14.7l13.79 13V40.25a.23.23 0 01.23-.23h3.9a.23.23 0 01.23.23v22.47a.26.26 0 01-.44.19l-13.8-13v12.54a.24.24 0 01-.23.23h-3.9a.23.23 0 01-.23-.23V40a.26.26 0 01.44-.19M149 44.12h-6.22a.23.23 0 01-.23-.23v-3.64a.23.23 0 01.23-.23h17.1a.23.23 0 01.23.23v3.64a.23.23 0 01-.23.23h-6.22v18.33a.23.23 0 01-.23.23h-4.2a.23.23 0 01-.23-.23zm18.58 4.34l-3 7.75h5.95zm.24-8.56L178 62.35a.23.23 0 01-.21.33h-4.38a.24.24 0 01-.21-.14l-1-2.43H163l-1 2.43a.23.23 0 01-.21.14h-4a.22.22 0 01-.2-.32l9.76-22.45a.26.26 0 01.47 0zm18.62 13.52c3.79 0 5.45-1.54 5.45-4.64s-1.73-4.66-5.45-4.66H185v9.3zm-6.12-13.17a.23.23 0 01.23-.23h6c6.31 0 10.1 3.3 10.1 8.76s-3.82 8.73-10.1 8.73H185v4.94a.23.23 0 01-.23.23h-4.19a.23.23 0 01-.23-.23zm25.23 13.17c3.79 0 5.45-1.54 5.45-4.64s-1.73-4.66-5.45-4.66h-1.46v9.3zm-6.12-13.17a.23.23 0 01.23-.23h6c6.32 0 10.11 3.3 10.11 8.76s-3.83 8.73-10.11 8.73h-1.59v4.94a.23.23 0 01-.23.23h-4.2a.23.23 0 01-.23-.23zm25.44 18.33c5 0 7.31-3 7.31-7.23s-2.29-7.23-7.31-7.23h-2.07v14.46zm-6.72-18.33a.23.23 0 01.23-.23h6.72c7 0 11.9 4.63 11.9 11.33s-4.92 11.33-11.9 11.33h-6.72a.23.23 0 01-.23-.23zM58 51.58L46.87 67.09a2.67 2.67 0 01-2.49 1.09 9.39 9.39 0 01-7.11-5.12 2.64 2.64 0 01.23-2.71l11.1-15.51a5.85 5.85 0 012-1.77l2.19-1.15A4.09 4.09 0 0054 41c1.07-1.2 3.91-4.35 9-9.45l.09-.4a.24.24 0 01.11-.15l.28-.07a.27.27 0 00.19-.27v-.35a.25.25 0 01.24-.27 4.17 4.17 0 013.23 2.32.26.26 0 01-.18.32l-.33.08a.25.25 0 00-.2.27v.28a.26.26 0 01-.13.24l-.35.21c-3.2 6.43-5.27 10.14-6.07 11.53a4.05 4.05 0 00-.49 1.39L59 49.09a5.8 5.8 0 01-1 2.49zm24.29 8.77L71.16 44.84a5.73 5.73 0 00-2-1.77L67 41.92a4.28 4.28 0 01-1.21-.92l-1.11-1.24a.16.16 0 00-.27 0C62.72 43 61.59 45 61.08 45.94a2.54 2.54 0 00-.33.92 6.79 6.79 0 000 2.11v.12a5.8 5.8 0 001 2.49L72.9 67.09a2.65 2.65 0 002.47 1.09 9.39 9.39 0 007.13-5.11 2.66 2.66 0 00-.23-2.72M52.84 32.64l.33.08a.25.25 0 01.2.27v.28a.26.26 0 00.13.24l.35.21C54.41 34.91 55 36 55.48 37a.14.14 0 00.24 0c.84-.89 1.84-2 3-3.18a.27.27 0 000-.37l-1.91-1.94-.09-.41a.24.24 0 00-.18-.18l-.28-.07a.27.27 0 01-.19-.27v-.35a.25.25 0 00-.24-.27 4.17 4.17 0 00-3.23 2.32.26.26 0 00.18.32" fill="#fff" fill-rule="evenodd"/></svg>